<svg id="Layer_1" data-name="Layer 1" xmlns="http://www.w3.org/2000/svg" viewBox="0 0 500 500"><defs><style>.cls-1{fill:#fff;}.cls-2{fill:#231f20;}</style></defs><circle class="cls-1" cx="250" cy="250" r="200"/><path class="cls-2" d="M242.53,155.29h63.75c4.56,0,7.92,3.13,8,7.45.06,3.73.09,7.5.1,11.27a16.8,16.8,0,0,0-16.7-14.48,16.92,16.92,0,0,0-16.93,16.86,17.15,17.15,0,0,0,16.92,16.93h0a16.93,16.93,0,0,0,16.71-14.62c0,4,0,7.94,0,11.84q0,3.45,0,6.9H114.6v-5.06c0-4,0-8.06,0-12.13A17,17,0,0,0,131,193.32h.05a16.9,16.9,0,1,0-16.47-20.78c0-2.79,0-5.59,0-8.37,0-3.37,1.12-7.62,6.37-8.76a9.59,9.59,0,0,1,1.77-.12h63.62c-.21.2-.41.41-.61.63a10,10,0,0,0-2.41,7.86c.68,6,1.37,11.42,2.09,16.69.85,6.09,4.73,9.44,10.93,9.44h36.1c6.42,0,10.37-3.55,11.12-10,.6-5.16,1.24-10.29,1.91-15.24a10.88,10.88,0,0,0-2.32-8.73c-.21-.23-.42-.45-.65-.66m19.38,38a16.86,16.86,0,0,0,16.74-16.81,16.68,16.68,0,0,0-16.72-17h-.12a16.9,16.9,0,0,0-.17,33.79h.27m-94.94,0a17.12,17.12,0,0,0,16.82-16.83,16.91,16.91,0,0,0-16.8-17h-.09a16.9,16.9,0,0,0-.15,33.79H167m65.85-43H122.75a14.11,14.11,0,0,0-2.83.23c-6.44,1.4-10.3,6.47-10.31,13.64,0,12.16,0,24.33,0,36.49,0,.57.06,1.14.09,1.79H319.16a5.06,5.06,0,0,0,.16-.8c0-13,.15-26-.06-39-.11-7.17-5.83-12.37-13-12.37Zm-18.4,34.63h-18c-3.7,0-5.46-1.44-6-5.13-.77-5.51-1.45-11-2.08-16.56a5,5,0,0,1,5.3-5.72h41.26c4,0,6.2,2.54,5.66,6.52-.68,5.1-1.32,10.22-1.92,15.33-.45,3.88-2.25,5.57-6.15,5.57Zm83.23,3.4a12.1,12.1,0,0,1-11.92-11.93,11.93,11.93,0,0,1,11.93-11.86h0a11.82,11.82,0,0,1,11.87,11.86,12,12,0,0,1-11.87,11.93Zm-166.59,0h0a12,12,0,0,1-11.87-11.95,11.87,11.87,0,1,1,11.91,11.95Zm130.85,0h-.19a11.91,11.91,0,0,1-11.76-12,11.78,11.78,0,0,1,11.85-11.77h.09a11.77,11.77,0,0,1,11.75,11.95,11.89,11.89,0,0,1-11.74,11.84Zm-94.94,0h-.15a12,12,0,0,1-11.82-12,11.85,11.85,0,0,1,11.9-11.78H167a11.87,11.87,0,0,1,11.82,11.94A12,12,0,0,1,167,188.32Z"/><path class="cls-2" d="M275.46,214.59a5.72,5.72,0,0,1-1.26.16l-90.95,0H153.32c-4.39,0-6.92,1.63-8.27,3a8.89,8.89,0,0,0-2.52,6.55c.07,4.63,3.41,9.3,10.73,9.31h9.49c1.35,1.62,3.61,2.92,7.4,2.92l48.5,0h24.12c-1.64,1.69-3.3,3.43-4.93,5.2q-39,0-78.07,0H124.41l-1,0a9.41,9.41,0,0,0-8.73,5.82V214.59H275.46m-160.75,100a9.67,9.67,0,0,0,8.71,5.93l1,0H219l.42,1.69H114.71v-7.63m204.46-105H109.71V327.21H225.79c-1-3.9-1.94-7.68-2.95-11.69H124.38l-.72,0a4.57,4.57,0,0,1-4.69-4.76q0-29.64,0-59.29a4.46,4.46,0,0,1,4.64-4.74l.8,0h35.36q39.24,0,78.49,0h0a3.65,3.65,0,0,0,3-1.36c3.2-3.49,6.53-6.87,9.87-10.23,1.18-1.19,2.53-2.2,4.17-3.61H218.65q-24.26,0-48.51,0h0c-2.2,0-3.85-.46-4.26-2.92h-12.6c-3.63,0-5.69-1.58-5.73-4.39s2-4.47,5.79-4.47h29.93q45.48,0,90.95,0a10.92,10.92,0,0,0,3.62-.65,83.91,83.91,0,0,1,28-5.37h.95c4.12,0,8.23.23,12.43.34v-4.48Z"/><path class="cls-2" d="M224.38,337a89.93,89.93,0,0,0,13.34,21.64H123.18c-5.26,0-8.37-2.95-8.53-8.09-.13-4.05-.09-8.22-.07-12.25,0-.43,0-.85,0-1.27h30.49c29.39,0,54.2,0,79.3,0m1.42-5h0q-40.35,0-80.71,0H109.79a7.24,7.24,0,0,0-.18,1.06c0,5.88-.14,11.75,0,17.62.25,7.86,5.67,12.93,13.53,12.93H248.76l.21-.43c-.61-.56-1.25-1.09-1.84-1.68a85.35,85.35,0,0,1-18.73-27.84,2.34,2.34,0,0,0-2.6-1.69Z"/><path class="cls-2" d="M310.38,220.73c-44.26,0-80.26,35.85-80.28,80a80.29,80.29,0,0,0,79.22,80.35h.94c44.68,0,80.36-36.43,80.18-80.18a80.09,80.09,0,0,0-80.06-80.14Zm0,153.87h-.13a73.78,73.78,0,0,1-73.64-74.12c.25-41.62,34.34-73.31,73.82-73.31h.6c40,.33,73,33.4,72.92,73.74,0,40.6-33.1,73.69-73.57,73.69Z"/><path class="cls-2" d="M307.7,144.08H121.24v4.18H307.7v-4.18Z"/><path class="cls-2" d="M161,367.28H134.28a5,5,0,0,0,2.81,3.94,19.84,19.84,0,0,0,10.42,2.49h.19a20.28,20.28,0,0,0,10.11-2.25c1.58-.88,2.95-2,3.22-4.18Z"/><path class="cls-2" d="M287.43,255A20.7,20.7,0,0,1,300.77,261c6.61,6.31,8.56,13.91,6,23.22a7.09,7.09,0,0,0,2.07,7.6q.69.65,1.38,1.35l-3.54,3.71a7.81,7.81,0,0,0-5-1.92c-1.71,0-4.2.63-6.32,3.65l-.07.1a7.21,7.21,0,0,0-1.6-.17,11,11,0,0,0-2.48.32,28.18,28.18,0,0,1-6.27.75,20.71,20.71,0,0,1-15.66-7,21,21,0,0,1-6.18-14.14l1.12,1.06c.54.52,1.09,1.1,1.68,1.72s1,1,1.45,1.51a17,17,0,0,0,12.13,5.08,16.86,16.86,0,0,0,12.26-28.4c-1.42-1.52-2.84-3-4.28-4.51m-1.52-5a35.69,35.69,0,0,0-9.09,1.26c3.94,4.11,7.64,7.86,11.23,11.71a11.86,11.86,0,0,1-8.6,20,12.13,12.13,0,0,1-8.59-3.61c-1.09-1.09-2.11-2.26-3.22-3.32-2.69-2.56-5.42-5.08-8.05-7.55a4.5,4.5,0,0,0-.31.83c-2.75,10.1-.91,19.23,6.35,26.87a25.77,25.77,0,0,0,19.28,8.54,33.05,33.05,0,0,0,7.38-.87,6.12,6.12,0,0,1,1.37-.2,2.23,2.23,0,0,1,2,1.11,1.31,1.31,0,0,0,.92.66c.31,0,.62-.25.91-.86a22.63,22.63,0,0,1,2-3,2.86,2.86,0,0,1,2.23-1.53,3.38,3.38,0,0,1,2.18,1.11c1,.92,2,1.86,3,2.85l10.25-10.77c-1.73-1.78-3.25-3.45-4.89-5a2.18,2.18,0,0,1-.67-2.6c3-10.79.86-20.39-7.31-28.19a25.64,25.64,0,0,0-18.31-7.49Z"/><path class="cls-2" d="M322.89,305.59l3.79,3.71,6.65,6.48,9.57,9.34h-.33a11.29,11.29,0,0,0-11.38,11.27c-4.7-5.12-9.31-10.22-13.76-15.23.39-.29.77-.59,1.15-.9a7.33,7.33,0,0,0,.9-11.11l3.41-3.56m-.11-7.12-10.35,10.82c1.12,1.07,2.23,2,3.25,3.12,1.32,1.38,1.24,2.77-.23,4-1.2,1-2.47,1.83-4.07,3,.21,1,.07,2.58.78,3.37q10.14,11.44,20.54,22.66a12.28,12.28,0,0,0,9.25,4.15,15.17,15.17,0,0,0,3.42-.4,12.54,12.54,0,0,0,9.7-9.18,12.77,12.77,0,0,0-3.54-13.37c-7.08-7-14.23-13.93-21.36-20.89-2.44-2.38-4.87-4.78-7.39-7.25ZM342.61,343a6.43,6.43,0,0,1,0-12.85h0a6.43,6.43,0,0,1,0,12.85Z"/><path class="cls-2" d="M296.14,306a2.17,2.17,0,0,0-1.56.83c-1.27,1.41-2.6,2.77-3.91,4.14q-12.23,12.78-24.47,25.56a4.44,4.44,0,0,0-1.11,5.17,5.05,5.05,0,0,1,1.35-.18c4.63,0,10.44,5.43,9.68,10.71a5.39,5.39,0,0,0,1.67.29,4.26,4.26,0,0,0,3.16-1.45q14.26-14.91,28.54-29.8c1.09-1.14,1.08-2.18,0-3.23q-5.89-5.67-11.83-11.31a2.25,2.25,0,0,0-1.52-.73Zm-24.21,30.3-.44-.39q11.68-12.19,23.35-24.4l.41.4-23.32,24.39Zm2.36,2.27-.41-.39q11.64-12.19,23.3-24.38l.41.42q-11.65,12.18-23.3,24.35Zm2.39,2.26-.42-.39,23.28-24.36.44.39-23.3,24.36Zm2.39,2.25-.43-.38L302,318.33l.41.4L279.07,343.1Zm2.32,2.33L281,345l23.33-24.4.42.4-23.33,24.4Z"/><path class="cls-2" d="M348.52,265.4l-1.2,2.05c-.56.32-1.12.64-1.69.95a15.2,15.2,0,0,1,2.89-3m6.05-9.67a53.92,53.92,0,0,1-5,3.14A21.07,21.07,0,0,0,339,270.21a13.93,13.93,0,0,1-2.52,4.32c-8.94,9.49-18,18.89-27,28.33-.43.45-1.1,1.35-1,1.52a12.35,12.35,0,0,0,2.68,2.72.15.15,0,0,0,.1,0,3.87,3.87,0,0,0,1.69-1.06q13.54-14.1,27.05-28.25a6.42,6.42,0,0,1,1.27-1.23c2.95-1.7,5.95-3.34,8.91-5a2.73,2.73,0,0,0,1-.93c2.25-3.82,4.46-7.66,6.74-11.6l-3.43-3.28Z"/><path class="cls-2" d="M301.92,300.85c-.63,0-1.15.91-2.5,2.85a1.91,1.91,0,0,0,.33,2.92c3,2.83,6,5.72,9,8.59,1.16,1.1,1.73,1.64,2.35,1.64s1.22-.47,2.44-1.4c.64-.48,1.21-1,2-1.71-.5-.59-.83-1.06-1.23-1.45l-9.62-9.23c-1.5-1.44-2.17-2.21-2.75-2.21Z"/><path class="cls-2" d="M267.38,342.66a5.71,5.71,0,0,0-2.12.44l9.13,8.71.6-.45c.43-3.24-1.52-5.32-3.84-7.12a6.12,6.12,0,0,0-3.77-1.58Z"/></svg>