<svg id="Layer_1" data-name="Layer 1" xmlns="http://www.w3.org/2000/svg" viewBox="0 0 1048.01 615.36"><defs><style>.cls-1{fill:#dee9f7;}.cls-2{fill:#c0d1ec;}.cls-3{fill:#9fb6df;}.cls-4{fill:#447bbf;}.cls-5{fill:#be1e2d;}.cls-6{fill:#fff;}.cls-7{fill:#b2c1e3;}.cls-8{fill:#9ab0db;}.cls-9{fill:#a8c3e6;}.cls-10{fill:#919bce;}.cls-11{fill:#35498c;}.cls-12{fill:#fab17e;}.cls-13{fill:#751113;}.cls-14{fill:#2b488c;}.cls-15{fill:#2e3b65;}.cls-16{fill:#ee985e;}.cls-17{fill:#243962;}.cls-18{fill:#d63044;}</style></defs><path class="cls-1" d="M1006.18,615.33c-60,0-979.72.06-979.72,0C-7.23,581.17-17.15,499.62,55.81,420.87,82.54,392,11.63,336.72,57.66,248,75.15,214.26,145,156.3,329.4,201.28c78.4,19.12,144.92-11.42,159.65-22.44a164,164,0,0,1,27.11-16.32c101.48-49.1,276.8-17.83,353.32,41.19,10.85,8.37,60.16,51.65,21.29,111.14-24.54,37.56,78.28,73.44,114.81,116.33C1098.47,540.23,1007,613.91,1006.18,615.33Z"/><path class="cls-2" d="M201.92,359.16v.61c0,11.72-9.93,21.25-22.13,21.25H113.48c-7.36,0-13.36,5.75-13.36,12.82v2a13.13,13.13,0,0,0,13.36,12.83h73.21a2.69,2.69,0,0,1,2.7,2.69,5.74,5.74,0,0,1-5.73,5.73H113.48c-12.2,0-22.13-9.53-22.13-21.25v-2c0-11.71,9.93-21.24,22.13-21.24h66.31a13.11,13.11,0,0,0,13.36-12.83v-.61a13.12,13.12,0,0,0-13.36-12.83H112.25c-12.2,0-22.13-9.53-22.13-21.25v-2.84c0-11.72,9.93-21.25,22.13-21.25h67.54a12.84,12.84,0,1,0,0-25.66H46.63c.8-2.76,1.7-5.57,2.72-8.41H179.79c12.2,0,22.13,9.53,22.13,21.25s-9.93,21.24-22.13,21.24H112.25a13.11,13.11,0,0,0-13.36,12.83v2.84a13.12,13.12,0,0,0,13.36,12.84h67.54C192,337.92,201.92,347.45,201.92,359.16Z"/><rect class="cls-3" x="599.88" y="269.44" width="113.36" height="2.55"/><path class="cls-3" d="M598.57,270.34a2.69,2.69,0,1,1,2.69,2.69A2.69,2.69,0,0,1,598.57,270.34Z"/><path class="cls-3" d="M709.78,270.34a2.69,2.69,0,1,1,2.69,2.69A2.68,2.68,0,0,1,709.78,270.34Z"/><path class="cls-4" d="M702.23,269.51v87.65c-8.7,1.48-31.42.21-44.36,1.69s-42.34-.51-42.34-.51V269.91a2.64,2.64,0,0,1,2.63-2.63l81.72-.12A2.35,2.35,0,0,1,702.23,269.51Z"/><path class="cls-5" d="M702.23,323v34.14c-8.7,1.48-31.42.21-44.36,1.69s-42.34-.51-42.34-.51V325.49c.21-1.17.32-1.85.32-1.85a297.59,297.59,0,0,0,35.65.4C668.18,323,688.23,325.71,702.23,323Z"/><path class="cls-6" d="M631.43,343.08c-7.09,0-15.38-.34-15.85-.36l.09-2.12c.15,0,15.31.63,22.18.21l1.62-.1c8.32-.51,25.63-1.58,32.86-.38,7.44,1.24,30.37-.28,30.61-.29l.14,2.11c-1,.07-23.42,1.55-31.1.27-7-1.16-24.78-.06-32.38.41l-1.62.1C636.19,343,633.88,343.08,631.43,343.08Z"/><path class="cls-6" d="M631.43,347.75c-7.09,0-15.38-.34-15.85-.36l.09-2.12c.15,0,15.31.63,22.18.21l1.62-.1c8.32-.51,25.63-1.58,32.86-.38,7.44,1.24,30.37-.28,30.61-.29l.14,2.11c-1,.07-23.42,1.55-31.1.27-7-1.16-24.78-.06-32.38.41l-1.62.1C636.19,347.71,633.88,347.75,631.43,347.75Z"/><rect class="cls-3" x="462.4" y="246.4" width="105.04" height="133.77"/><rect class="cls-2" x="466.66" y="250.58" width="96.52" height="125.91"/><rect class="cls-2" x="137.03" y="454.55" width="129.79" height="159.77"/><rect class="cls-7" x="137.03" y="478.37" width="129.79" height="2.17"/><path class="cls-7" d="M175.43,476.26h-34.5V457.82h34.5Zm-34.07-.44H175V458.25H141.36Z"/><path class="cls-7" d="M194.2,467a6.18,6.18,0,1,1,6.18,6.18A6.17,6.17,0,0,1,194.2,467Z"/><path class="cls-7" d="M210.9,467a5,5,0,1,1,5,5A5,5,0,0,1,210.9,467Z"/><rect class="cls-7" x="228.87" y="461.11" width="27.63" height="11.85"/><circle class="cls-7" cx="200.38" cy="539.91" r="48.09"/><circle class="cls-8" cx="200.38" cy="539.91" r="38.67" transform="translate(-26.4 10.55) rotate(-2.83)"/><rect class="cls-7" x="229.95" y="533.41" width="14.3" height="16.9" rx="4.7"/><rect class="cls-2" x="448.49" y="452.38" width="144.1" height="161.66"/><rect class="cls-7" x="448.49" y="501.98" width="144.1" height="1.91"/><rect class="cls-7" x="508.47" y="457.91" width="26.13" height="3.2" rx="1.05"/><rect class="cls-7" x="448.49" y="560.65" width="144.1" height="1.91"/><rect class="cls-7" x="508.47" y="507.84" width="26.13" height="3.2" rx="1.05"/><rect class="cls-7" x="508.47" y="569.13" width="26.13" height="3.2" rx="1.05"/><rect class="cls-8" x="439.51" y="443.96" width="161.03" height="10.59"/><path class="cls-8" d="M513,420.87h0a3.23,3.23,0,0,1-3.22-3.22V388.37a3.23,3.23,0,0,1,3.22-3.22h0a3.23,3.23,0,0,1,3.22,3.22v29.28A3.23,3.23,0,0,1,513,420.87Z"/><path class="cls-2" d="M568,420.87c0,9.9-10.69,18.53-26.56,23.12H489.24c-15.86-4.59-26.56-13.22-26.56-23.12Z"/><path class="cls-9" d="M570.55,420.87H460.08a2.33,2.33,0,0,1-2.32-2.32h0a2.33,2.33,0,0,1,2.32-2.31H570.55a2.33,2.33,0,0,1,2.32,2.31h0A2.33,2.33,0,0,1,570.55,420.87Z"/><path class="cls-10" d="M301.91,615.36s-6.16-9.74-23.62-7.69-29.9,11.44-71.56,1-37.89,8.32-61.61,4.27S111,615.36,111,615.36Z"/><rect class="cls-11" x="271.93" y="506.96" width="3.44" height="18.23" transform="translate(-265.81 292.02) rotate(-39.51)"/><path class="cls-11" d="M266.26,503h0c.74,1.17,1,2.66.05,3.65-1.28,1.32-2.81.81-3.95-.57,0,0-.29-.35-.3-.36-.39-.48-1.44.57-1.38,1.19a5,5,0,0,0,7.63,3.61,5,5,0,0,0,1.13-7.32,4.88,4.88,0,0,0-1.87-1.4C266.9,501.49,265.86,502.36,266.26,503Z"/><path class="cls-11" d="M280.82,529.68v0c-.73-1.16-1-2.65-.05-3.64,1.28-1.32,2.82-.81,3.95.57,0,0,.29.35.3.36.39.48,1.45-.57,1.38-1.19a5,5,0,0,0-7.63-3.61,5,5,0,0,0,.74,8.72C280.18,531.17,281.23,530.3,280.82,529.68Z"/><path class="cls-12" d="M272.43,520.39c3.17.5,10.55-1.71,11.09-1.76,4.58-.44.16-4.94.16-4.94s-7.19-1.58-8.39-1.49a11.89,11.89,0,0,0-1.76.34l1.24,1.2s-6,.64-6.06,2A4.66,4.66,0,0,0,272.43,520.39Z"/><path class="cls-12" d="M275.29,512.2l-5.1.62c0,1.34,3.92.9,4.11,1.56s1.1-.92,1.1-.92Z"/><path class="cls-12" d="M322.81,512.61s-6.86.67-6.42,1.4,3.45,1,3.45,1l2.41-1.55Z"/><path class="cls-13" d="M282.27,515.92c-1.1-3.19.44-4.18.44-4.18s31.41-14.9,34-16.54,19.83-33.09,19.83-33.09,6.4-12.86,14.55-12.6c7.09.22,11,4.64,13.21,9.27a14.87,14.87,0,0,1-2.68,16.51c-9.41,9.95-28.3,29.66-33.19,32.65-10.89,6.66-43.53,12-43.53,12A10.68,10.68,0,0,1,282.27,515.92Z"/><path class="cls-14" d="M286.87,550.05c4.74,5.46,14.74,9,34,9.89,1.55.07,3.11.13,4.67.18s3.23.08,4.84.11c5.25.07,10.46,0,15.43-.16s9.41-.43,13.57-.77c8.13-.68,14.63-1.66,18-2.79a6.4,6.4,0,0,0,2.13-1,3.63,3.63,0,0,0,.83-1.08c1.22-2.25.59-6-.88-10-2.15-5.93-6.08-12.65-8.73-16.86-.53-.84-1-1.58-1.4-2.19-.81-1.24-1.31-2-1.31-2s-9,.83-21.35,2.43c-2.51.33-5.17.69-7.91,1.08-26.52,3.75-52.95,10.49-52.92,19.43C285.84,547.64,285.75,548.77,286.87,550.05Z"/><path class="cls-15" d="M319.71,559.83c1.61,0,9.08.37,10.69.4,5.25.07,10.46,0,15.43-.16l4.68-18.83C343.28,551.32,322,559.18,319.71,559.83Z"/><path class="cls-15" d="M335.33,614.53H309.62a4.56,4.56,0,0,1,3.77-2.67c4.05-.71,11.08-2.9,10.18-8.74s8.94-6.69,8.94-6.69S336.62,612.28,335.33,614.53Z"/><path class="cls-14" d="M286.45,549.08s31.89,50.18,34.55,56.14c0,0,10.85,1,13.46-6.74,0,0-19-53-27.29-57.31S286.45,549.08,286.45,549.08Z"/><path class="cls-12" d="M350.77,443.45s-11,15-20.77,15.84a29.79,29.79,0,0,1,2.27-6.28,6.6,6.6,0,0,0-.12-6.28.41.41,0,0,0,0-.09,58.44,58.44,0,0,1-2.77-5.44l4.5-8.15.93-4.38a29.2,29.2,0,0,0,2.65,5.52A20.87,20.87,0,0,0,350.77,443.45Z"/><path class="cls-16" d="M337.84,434.11a12.64,12.64,0,0,1-5.74,12.53,58.44,58.44,0,0,1-2.77-5.44l4.5-8.15C337.43,432.52,337.84,434.11,337.84,434.11Z"/><path class="cls-12" d="M328,445.74s13.78-7.51,9-16-6.26-15.21-15.26-10.78-8.86,8.64-7.95,11.87S324.25,447.47,328,445.74Z"/><path class="cls-14" d="M336.88,412.79c.08-.22.34-.47,1-.78a3.08,3.08,0,0,0-1.47.13c-.53-.94-1.74-2.5-3.6-2.28a2.3,2.3,0,0,1,1.63,1.16c-2.75-1.29-7.52-1.16-18.79,4.27-14.85,7.15-5.95,15.16-3.51,15.58s6.18-4.76,10-5.89,6.61,4,8.15,4.28.54-.87,1.94-2.3,2.66,1.36,2.89,3.4,2.69,3.75,2.69,3.75.81-.15,2.17-3.64-.63-15.26-2.6-17.17Z"/><path class="cls-17" d="M419.13,598.13s3.21,4.86,3.95,6.44-.71,4.93-2.91,5.43c-1.94.45-2.23,3.89-2.23,3.89h9.4a2.47,2.47,0,0,0,2.27-1.4c1.32-2.91,1.63-6.7,1.89-8,.56-2.67,1.67-4.91,1.18-7.62s-5.11-4.27-13.55-4.25C409.87,592.68,419.13,598.13,419.13,598.13Z"/><path class="cls-5" d="M391.51,539.49c-7.08,7.51-59.1-8-54.74-12,1.11-1,.73-2.21,1.18-3.83,2.16-7.68-2.14-20.82-4-25.91-.43-1.19-.73-1.93-.78-2.08a89.44,89.44,0,0,1-4-14.49c-1.72-9.18-1.68-17.72.66-22.95,0,0,0-.05,0-.07C339.62,455.33,345,441,345,441s30.87,8.77,42.07,52.82c0,0,.58,2.8,1.29,7h0c.21,1.29.45,2.72.68,4.24,1.19,7.84,1.89,17.89,2.6,25.37,0,.26.05.53.08.8C392.07,534.48,392.69,538.24,391.51,539.49Z"/><path class="cls-4" d="M350.55,532s5.19.68,15.65,1.45c10.83.81,22.32,2.52,24.19,6.16.62,1.2.19,4.25-1,8.47-2.67,9.32-9.15,24.33-16.55,37.63,19,1.1,44.85,5.3,44.85,5.3a11.36,11.36,0,0,1,2.46,10.37c-1.36,0-5.44.59-11,1.49-20.16,3.24-44.71,9.91-59.94,9.91-3.33,0-5.82-2.36-6.83-5.45h0C336.1,588.32,350.55,532,350.55,532Z"/><path class="cls-15" d="M389.37,549.53c-10.49-.33-36.79-13.24-36.36-13.34a125.51,125.51,0,0,1,13.19-2.57c10.83.88,22.32,2.73,24.19,6.7C391,541.63,390.58,545,389.37,549.53Z"/><path class="cls-4" d="M350.16,443.15s-13.19,2.74-14.48,14.3c-.94,8.43,5.75,27.5,5.75,27.5l4.27-1.76s-8.08-23.54-6.84-27.55c1.6-5.13,9.18-12.82,16.16-9.75Z"/><path class="cls-4" d="M391.51,539.49c-7.08,7.51-60.22-7.86-55.86-11.82a8.18,8.18,0,0,0,2.3-4c2.16-7.68-2.14-20.82-4-25.91-.43-1.19-4.49-15.18-4.55-15.33l15-3.24s4.23,7.29,9.73,11a60.7,60.7,0,0,0,34.24,10.61h0c.21,1.29.45,2.72.68,4.24,1.19,7.84,1.89,17.89,2.6,25.37,0,.26.05.53.08.8C392.07,534.48,392.69,538.24,391.51,539.49Z"/><path class="cls-12" d="M333,512a29,29,0,0,1-4.91.64c-2.28.07-4.7-.35-5.8.11-2.32,1-9.65,6-6.11,8.17a8.15,8.15,0,0,0,9.61-.56c2.42-2,9-2.12,9-2.12Z"/><path class="cls-18" d="M357.63,453.76c15.91,4.59,25.6,42.77,23.36,54.2s-47.16,12-47.16,12-2.52-2-2.82-4a9,9,0,0,1,0-3.8s28.4-7.71,29-11-13.67-20.65-13.46-30.08S349,451.25,357.63,453.76Z"/><rect class="cls-17" y="613.67" width="1048.01" height="1.68" rx="0.84"/></svg>