<svg id="Layer_1" data-name="Layer 1" xmlns="http://www.w3.org/2000/svg" viewBox="0 0 627.76 627.76"><defs><style>.cls-1{fill:#231f20;}.cls-2{fill:#be1e2d;}</style></defs><path class="cls-1" d="M313.88,25A289,289,0,0,1,426.32,580.07,289,289,0,0,1,201.44,47.69,287,287,0,0,1,313.88,25m0-25C140.53,0,0,140.53,0,313.88S140.53,627.76,313.88,627.76,627.76,487.23,627.76,313.88,487.23,0,313.88,0Z"/><path class="cls-2" d="M93.68,239.24H422.41a7,7,0,0,0,.26-1.25c0-20.4.23-40.8-.09-61.18-.17-11.25-9.15-19.41-20.38-19.42q-144,0-288,0a21.15,21.15,0,0,0-4.43.36c-10.12,2.19-16.17,10.15-16.19,21.4,0,19.09,0,38.18,0,57.27C93.54,237.33,93.63,238.22,93.68,239.24Zm295-59.5a18.54,18.54,0,0,1,18.62,18.62,18.77,18.77,0,0,1-18.62,18.72A19,19,0,0,1,370,198.36,18.73,18.73,0,0,1,388.68,179.74Zm-56.13,0a18.67,18.67,0,0,1-.27,37.34,18.68,18.68,0,0,1-18.46-18.86A18.49,18.49,0,0,1,332.55,179.74Zm-107.15-11c10.89,0,21.77,0,32.65,0h32.1c6.35,0,9.73,4,8.89,10.23q-1.62,12-3,24.06c-.71,6.09-3.54,8.74-9.65,8.74q-28.32,0-56.65,0c-5.81,0-8.58-2.26-9.38-8-1.2-8.65-2.27-17.32-3.27-26C216.49,172.62,220.15,168.73,225.4,168.71Zm-41.83,11a18.62,18.62,0,0,1,18.55,18.74,18.67,18.67,0,1,1-37.33-.24A18.6,18.6,0,0,1,183.57,179.74Zm-56.36,0a18.51,18.51,0,0,1,18.58,18.65,18.64,18.64,0,1,1-18.58-18.65Z"/><path class="cls-2" d="M162.15,266.45q94.86,0,189.72-.05a16.85,16.85,0,0,0,5.66-1c14.2-5.14,28.78-8.28,43.9-8.42,7-.06,13.91.34,21,.53v-7H93.7v184.6H275.89c-1.55-6.12-3-12.06-4.63-18.35H118.39c-.93,0-1.86,0-2.79,0-4.42-.21-7.35-3.1-7.36-7.48q0-46.53,0-93c0-4.48,2.85-7.3,7.29-7.45,1,0,2,0,3.07,0q88.44,0,176.86,0a5.78,5.78,0,0,0,4.75-2.14c5-5.48,10.25-10.79,15.49-16.06,1.85-1.86,4-3.45,6.54-5.66h-4q-64.83,0-129.64.05c-3.48,0-6.08-.72-6.73-4.6H162.06c-5.7,0-8.94-2.47-9-6.88S156.27,266.45,162.15,266.45Z"/><path class="cls-2" d="M280,445.2c-.87-2.1-1.94-2.65-4.1-2.65q-89.5.09-179,.05h-3a11.72,11.72,0,0,0-.29,1.67c0,9.22-.22,18.44.07,27.65.39,12.34,8.89,20.29,21.23,20.29H311.94l.32-.68c-1-.87-2-1.71-2.88-2.62A133.86,133.86,0,0,1,280,445.2Z"/><path class="cls-2" d="M408.65,267.94c-69.47,0-126,56.27-126,125.51,0,69.41,55.89,125.32,124.33,126.1,70.81.8,127.58-56.69,127.31-125.83C534,323.9,478,267.94,408.65,267.94Zm-.19,241.49c-63.94-.11-116-52.21-115.58-116.32.39-65.65,54.44-115.56,116.8-115.06,62.84.51,114.51,52.42,114.44,115.72C524,457.57,472.07,509.55,408.46,509.43Z"/><path class="cls-2" d="M404.44,147.65H111.8v6.56H404.44Z"/><path class="cls-2" d="M136.68,504.12c5,3,10.6,3.87,16.35,3.9s11.14-.73,16.17-3.52c2.48-1.38,4.62-3.11,5-6.56h-42C132.54,501,134.41,502.75,136.68,504.12Z"/><path class="cls-2" d="M380.26,398.23c2.26-.52,3.8-.58,5.24,1.43.9,1.26,1.94,1.61,2.87-.3a34.3,34.3,0,0,1,3.06-4.66c2.1-3,4.22-3.18,6.93-.66,1.56,1.45,3.09,2.92,4.72,4.47l16.1-16.89c-2.72-2.79-5.1-5.41-7.68-7.82a3.42,3.42,0,0,1-1.05-4.08c4.74-16.93,1.35-32-11.47-44.24-12.05-11.51-26.51-14.12-43-9.78,6.19,6.44,12,12.33,17.63,18.38a18.45,18.45,0,0,1-.61,26.13,18.68,18.68,0,0,1-26.38-.43c-1.71-1.71-3.3-3.54-5.05-5.21-4.22-4-8.49-8-12.64-11.84a11.2,11.2,0,0,0-.48,1.3c-4.31,15.86-1.42,30.17,10,42.16S364.14,401.93,380.26,398.23Z"/><path class="cls-2" d="M439.71,401.33c-3.84-3.74-7.66-7.5-11.61-11.38l-16.24,17c1.76,1.69,3.49,3.24,5.1,4.91,2.07,2.16,2,4.34-.37,6.21-1.88,1.51-3.87,2.88-6.38,4.73.34,1.62.11,4,1.22,5.29q15.92,18,32.25,35.55c5.37,5.8,12.26,7.64,19.88,5.89a19.64,19.64,0,0,0,15.21-14.41c2.34-8,.38-15.13-5.54-21C462.11,423.12,450.88,412.25,439.71,401.33Zm19.56,58.45a10.08,10.08,0,1,1,10-10.14A10.06,10.06,0,0,1,459.27,459.78Z"/><path class="cls-2" d="M388.68,403c-1.61-1.53-3.23-1.6-4.83.16-2,2.2-4.08,4.34-6.14,6.49q-19.18,20.06-38.41,40.12c-2.27,2.37-3,5-1.74,8.1,7.44-2,18.63,7.42,17.31,16.53a6.74,6.74,0,0,0,7.58-1.82q22.38-23.4,44.79-46.77c1.72-1.79,1.7-3.42,0-5.06Q398,411.79,388.68,403Zm-40.39,46.4-.68-.61,36.64-38.29.65.62Zm3.72,3.57-.65-.62,36.56-38.25.64.66Zm3.74,3.55-.65-.62,36.53-38.23.69.62Zm3.76,3.52-.69-.6,36.62-38.27.65.62Zm3.64,3.65-.66-.62,36.62-38.29.65.63Z"/><path class="cls-2" d="M470.17,327.81a32.94,32.94,0,0,0-16.64,17.79,22.1,22.1,0,0,1-4,6.78c-14,14.89-28.21,29.64-42.32,44.46-.66.7-1.72,2.11-1.51,2.39a19.29,19.29,0,0,0,4.2,4.26c.38.27,2.06-.84,2.81-1.62Q434,379.75,455.2,357.53a10.36,10.36,0,0,1,2-1.93c4.64-2.68,9.34-5.25,14-7.91a4.36,4.36,0,0,0,1.61-1.46c3.53-6,7-12,10.57-18.21L478,322.88A86.77,86.77,0,0,1,470.17,327.81Z"/><path class="cls-2" d="M416.71,413.92c-.78-.93-1.3-1.66-1.93-2.27-5-4.85-10.08-9.66-15.1-14.5s-4.17-4.83-8.25,1c-1.27,1.83-1,3.11.52,4.58,4.76,4.45,9.43,9,14.15,13.48,3.54,3.37,3.56,3.38,7.52.38C414.62,415.84,415.52,415,416.71,413.92Z"/><path class="cls-2" d="M347.08,461.79c-2.43-1.89-5.13-3.42-9.24-1.79l14.31,13.66,1-.7C353.77,467.87,350.72,464.61,347.08,461.79Z"/></svg>