<svg xmlns="http://www.w3.org/2000/svg" viewBox="0 0 688.51 314.49"><defs><style>.cls-1{fill:#dee9f7;}.cls-2{fill:#c0d1ec;}.cls-3{fill:#9fb6df;}.cls-4{fill:#447bbf;}.cls-5{fill:#be1e2d;}.cls-6{fill:#fff;}.cls-7{fill:#b2c1e3;}.cls-8{fill:#9ab0db;}.cls-9{fill:#a8c3e6;}.cls-10{fill:#243962;}.cls-11{fill:#919bce;}.cls-12{fill:#35498c;}.cls-13{fill:#fab17e;}.cls-14{fill:#751113;}.cls-15{fill:#2b488c;}.cls-16{fill:#2e3b65;}.cls-17{fill:#ee985e;}.cls-18{fill:#d63044;}</style></defs><g id="Layer_2" data-name="Layer 2"><g id="Layer_1-2" data-name="Layer 1"><path class="cls-1" d="M661.54,313.65c-39.43,0-644.1.05-644.1,0-22.15-22.46-28.67-76.07,19.3-127.84,17.57-19-29-55.33,1.21-113.66C49.45,50,95.38,11.87,216.6,41.44c51.54,12.57,95.28-7.5,105-14.75A107.84,107.84,0,0,1,339.39,16C406.1-16.32,521.36,4.24,571.67,43c7.13,5.5,39.55,34,14,73.07-16.14,24.69,51.46,48.28,75.47,76.47C722.21,264.28,662.1,312.72,661.54,313.65Z"/><path class="cls-2" d="M132.79,145.24v.4c0,7.7-6.52,14-14.54,14H74.65A8.62,8.62,0,0,0,65.87,168v1.33a8.63,8.63,0,0,0,8.78,8.44h48.13a1.77,1.77,0,0,1,1.77,1.77,3.76,3.76,0,0,1-3.76,3.76H74.65c-8,0-14.55-6.26-14.55-14V168c0-7.7,6.53-14,14.55-14h43.6a8.63,8.63,0,0,0,8.78-8.44v-.4a8.63,8.63,0,0,0-8.78-8.44H73.84c-8,0-14.55-6.26-14.55-14V121c0-7.71,6.53-14,14.55-14h44.41a8.44,8.44,0,1,0,0-16.87H30.7c.53-1.82,1.12-3.66,1.79-5.53h85.76c8,0,14.54,6.26,14.54,14s-6.52,14-14.54,14H73.84A8.63,8.63,0,0,0,65.06,121v1.87a8.62,8.62,0,0,0,8.78,8.43h44.41C126.27,131.27,132.79,137.54,132.79,145.24Z"/><rect class="cls-3" x="394.43" y="86.25" width="74.53" height="1.67"/><path class="cls-3" d="M393.57,86.85a1.77,1.77,0,1,1,1.76,1.76A1.76,1.76,0,0,1,393.57,86.85Z"/><path class="cls-3" d="M466.68,86.85a1.77,1.77,0,1,1,1.76,1.76A1.76,1.76,0,0,1,466.68,86.85Z"/><path class="cls-4" d="M461.71,86.3v57.62c-5.72,1-20.65.14-29.16,1.12s-27.83-.34-27.83-.34V86.57a1.72,1.72,0,0,1,1.72-1.73l53.73-.09A1.54,1.54,0,0,1,461.71,86.3Z"/><path class="cls-5" d="M461.71,121.48v22.44c-5.72,1-20.65.14-29.16,1.12s-27.83-.34-27.83-.34V123.11c.13-.78.21-1.22.21-1.22a195.12,195.12,0,0,0,23.43.26C439.33,121.46,452.51,123.25,461.71,121.48Z"/><path class="cls-6" d="M415.17,134.67c-4.66,0-10.12-.23-10.42-.24l.05-1.39c.11,0,10.07.41,14.59.14l1.06-.07c5.47-.34,16.85-1,21.61-.25s20-.18,20.12-.19l.09,1.39c-.63,0-15.4,1-20.44.18-4.6-.77-16.3,0-21.29.26l-1.07.07C418.29,134.64,416.78,134.67,415.17,134.67Z"/><path class="cls-6" d="M415.17,137.74c-4.66,0-10.12-.23-10.42-.24l.05-1.39c.11,0,10.07.41,14.59.14l1.06-.07c5.47-.34,16.85-1,21.61-.25s20-.18,20.12-.19l.09,1.39c-.63,0-15.4,1-20.44.18-4.6-.77-16.3,0-21.29.26l-1.07.07C418.29,137.71,416.78,137.74,415.17,137.74Z"/><rect class="cls-3" x="304.04" y="71.11" width="69.05" height="87.94"/><rect class="cls-2" x="306.84" y="73.86" width="63.46" height="82.78"/><rect class="cls-2" x="90.13" y="207.95" width="85.33" height="105.04"/><rect class="cls-7" x="90.13" y="223.61" width="85.33" height="1.43"/><path class="cls-7" d="M115.38,222.22H92.7V210.1h22.68ZM93,221.94h22.11V210.39H93Z"/><path class="cls-7" d="M127.72,216.16a4.06,4.06,0,1,1,4.06,4.07A4.06,4.06,0,0,1,127.72,216.16Z"/><path class="cls-7" d="M138.7,216.16a3.32,3.32,0,1,1,3.31,3.31A3.31,3.31,0,0,1,138.7,216.16Z"/><rect class="cls-7" x="150.51" y="212.27" width="18.16" height="7.79"/><circle class="cls-7" cx="131.78" cy="264.07" r="31.62"/><circle class="cls-8" cx="131.78" cy="264.07" r="25.42" transform="translate(-12.87 6.83) rotate(-2.83)"/><rect class="cls-7" x="151.22" y="259.8" width="9.4" height="11.11" rx="4.7"/><rect class="cls-2" x="294.89" y="206.53" width="94.74" height="106.28"/><rect class="cls-7" x="294.89" y="239.13" width="94.74" height="1.26"/><rect class="cls-7" x="334.33" y="210.16" width="17.18" height="2.11" rx="1.05"/><rect class="cls-7" x="294.89" y="277.7" width="94.74" height="1.26"/><rect class="cls-7" x="334.33" y="242.99" width="17.18" height="2.11" rx="1.05"/><rect class="cls-7" x="334.33" y="283.28" width="17.18" height="2.11" rx="1.05"/><rect class="cls-8" x="288.99" y="200.99" width="105.87" height="6.96"/><path class="cls-8" d="M337.29,185.81h0a2.12,2.12,0,0,1-2.12-2.12V164.44a2.12,2.12,0,0,1,2.12-2.11h0a2.12,2.12,0,0,1,2.11,2.11v19.25A2.12,2.12,0,0,1,337.29,185.81Z"/><path class="cls-2" d="M373.44,185.81c0,6.51-7,12.18-17.47,15.2H321.69c-10.43-3-17.47-8.69-17.47-15.2Z"/><path class="cls-9" d="M375.14,185.81H302.52a1.53,1.53,0,0,1-1.53-1.52h0a1.54,1.54,0,0,1,1.53-1.53h72.62a1.54,1.54,0,0,1,1.53,1.53h0A1.53,1.53,0,0,1,375.14,185.81Z"/><rect class="cls-10" y="312.81" width="685.08" height="1.68" rx="0.84"/><path class="cls-11" d="M198.53,313.67s-4.05-6.4-15.53-5.05-19.65,7.52-47,.63-24.92,5.47-40.51,2.81S73,313.67,73,313.67Z"/><rect class="cls-12" x="178.82" y="242.41" width="2.26" height="11.99" transform="translate(-116.92 171.25) rotate(-39.51)"/><path class="cls-12" d="M175.09,239.79h0a1.94,1.94,0,0,1,0,2.4c-.84.87-1.85.53-2.59-.38,0,0-.2-.23-.2-.23-.26-.32-1,.37-.91.78a3.35,3.35,0,0,0,1,2,3.26,3.26,0,0,0,4.75-4.45A3.14,3.14,0,0,0,176,239C175.52,238.81,174.83,239.38,175.09,239.79Z"/><path class="cls-12" d="M184.67,257.34h0a1.92,1.92,0,0,1,0-2.39c.84-.87,1.85-.54,2.6.37,0,0,.19.23.19.24.26.32,1-.38.91-.78a3.29,3.29,0,0,0-1-2,3.26,3.26,0,0,0-4.75,4.45,3.32,3.32,0,0,0,1.23.92C184.25,258.32,184.93,257.75,184.67,257.34Z"/><path class="cls-13" d="M179.15,251.24c2.09.32,6.94-1.12,7.29-1.16,3-.29.11-3.25.11-3.25a52.61,52.61,0,0,0-5.52-1,8,8,0,0,0-1.16.23l.81.79s-3.94.41-4,1.33A3.07,3.07,0,0,0,179.15,251.24Z"/><path class="cls-13" d="M181,245.85l-3.35.41c0,.88,2.57.59,2.7,1s.72-.61.72-.61Z"/><path class="cls-13" d="M212.27,246.12s-4.51.44-4.22.92,2.27.69,2.27.69l1.58-1Z"/><path class="cls-14" d="M185.62,248.3c-.72-2.1.29-2.75.29-2.75s20.65-9.79,22.33-10.87,13-21.76,13-21.76,4.21-8.45,9.57-8.28c4.66.15,7.25,3.05,8.68,6.09a9.76,9.76,0,0,1-1.76,10.86c-6.18,6.54-18.6,19.49-21.82,21.46-7.16,4.38-28.61,7.92-28.61,7.92A7,7,0,0,1,185.62,248.3Z"/><path class="cls-15" d="M188.64,270.74c3.12,3.59,9.69,5.91,22.37,6.5,1,.05,2,.09,3.07.12l3.18.07c3.45,0,6.88,0,10.15-.1s6.18-.29,8.92-.51A60,60,0,0,0,248.15,275a4.19,4.19,0,0,0,1.4-.69,2.51,2.51,0,0,0,.55-.7c.8-1.49.38-3.92-.59-6.6a64,64,0,0,0-5.73-11.09l-.93-1.44c-.53-.81-.86-1.29-.86-1.29s-5.92.55-14,1.61c-1.65.21-3.4.45-5.21.7C205.32,258,188,262.38,188,268.26A3.25,3.25,0,0,0,188.64,270.74Z"/><path class="cls-16" d="M210.23,277.17c1.06,0,6,.24,7,.26,3.45,0,6.88,0,10.15-.1l3.07-12.39C225.73,271.57,211.76,276.74,210.23,277.17Z"/><path class="cls-16" d="M220.5,313.13H203.6a3,3,0,0,1,2.48-1.76c2.66-.46,7.28-1.9,6.69-5.75s5.88-4.39,5.88-4.39S221.35,311.65,220.5,313.13Z"/><path class="cls-15" d="M188.37,270.1s21,33,22.71,36.91c0,0,7.13.66,8.85-4.43,0,0-12.47-34.82-17.94-37.68S188.37,270.1,188.37,270.1Z"/><path class="cls-13" d="M230.65,200.65s-7.22,9.89-13.66,10.42a20,20,0,0,1,1.5-4.13,4.35,4.35,0,0,0-.08-4.13l0-.06a38.34,38.34,0,0,1-1.82-3.58l3-5.35.61-2.88a19.13,19.13,0,0,0,1.74,3.63A13.69,13.69,0,0,0,230.65,200.65Z"/><path class="cls-17" d="M222.15,194.51a8.31,8.31,0,0,1-3.77,8.24,38.34,38.34,0,0,1-1.82-3.58l3-5.35C221.88,193.47,222.15,194.51,222.15,194.51Z"/><path class="cls-13" d="M215.66,202.16s9.05-4.94,5.89-10.53-4.11-10-10-7.08-5.83,5.68-5.23,7.8S213.22,203.3,215.66,202.16Z"/><path class="cls-15" d="M221.52,180.5c0-.14.23-.31.68-.52a2,2,0,0,0-1,.09,2.54,2.54,0,0,0-2.37-1.5,1.49,1.49,0,0,1,1.07.76c-1.8-.84-4.94-.76-12.35,2.81-9.76,4.7-3.91,10-2.31,10.24s4.07-3.13,6.57-3.87,4.35,2.64,5.36,2.81.36-.56,1.27-1.51,1.75.9,1.9,2.24a4.35,4.35,0,0,0,1.77,2.46s.53-.1,1.43-2.39-.42-10-1.71-11.29Z"/><path class="cls-10" d="M275.6,302.35s2.1,3.19,2.59,4.23a3.06,3.06,0,0,1-1.91,3.57c-1.28.29-1.47,2.55-1.47,2.55H281a1.63,1.63,0,0,0,1.49-.91,22,22,0,0,0,1.25-5.24c.37-1.76,1.1-3.23.78-5s-3.37-2.81-8.91-2.8C269.5,298.76,275.6,302.35,275.6,302.35Z"/><path class="cls-5" d="M257.44,263.79c-4.66,4.94-38.86-5.27-36-7.87.73-.66.48-1.46.77-2.52,1.42-5.05-1.4-13.69-2.61-17-.29-.77-.48-1.26-.52-1.36a58.82,58.82,0,0,1-2.63-9.53c-1.13-6-1.11-11.64.43-15.08l0,0c6.4-1.87,9.93-11.3,9.93-11.3s20.3,5.77,27.66,34.73c0,0,.38,1.84.85,4.61h0c.15.85.3,1.79.45,2.79.79,5.16,1.24,11.76,1.71,16.68,0,.17,0,.35.05.53C257.81,260.5,258.21,263,257.44,263.79Z"/><path class="cls-4" d="M230.51,258.9s3.41.45,10.28,1c7.13.53,14.68,1.65,15.91,4,.41.79.12,2.8-.67,5.57-1.76,6.12-6,16-10.88,24.74,12.49.72,29.48,3.48,29.48,3.48a7.48,7.48,0,0,1,1.62,6.82c-.89,0-3.57.39-7.23,1-13.25,2.13-29.39,6.52-39.4,6.52a4.83,4.83,0,0,1-4.5-3.59h0C221,295.9,230.51,258.9,230.51,258.9Z"/><path class="cls-16" d="M256,270.4c-6.9-.22-24.19-8.71-23.91-8.78a81.47,81.47,0,0,1,8.67-1.68c7.13.57,14.68,1.79,15.91,4.4C257.11,265.2,256.82,267.38,256,270.4Z"/><path class="cls-4" d="M230.25,200.45s-8.67,1.81-9.52,9.41c-.62,5.54,3.78,18.08,3.78,18.08l2.81-1.16s-5.31-15.48-4.5-18.11c1.05-3.38,6-8.43,10.63-6.41Z"/><path class="cls-4" d="M257.44,263.79c-4.66,4.94-39.6-5.16-36.73-7.76a5.38,5.38,0,0,0,1.51-2.63c1.42-5.05-1.4-13.69-2.61-17-.29-.77-3-10-3-10.07l9.83-2.13s2.78,4.79,6.4,7.25a39.83,39.83,0,0,0,22.51,7h0c.15.85.3,1.79.45,2.79.79,5.16,1.24,11.76,1.71,16.68,0,.17,0,.35.05.53C257.81,260.5,258.21,263,257.44,263.79Z"/><path class="cls-13" d="M219,245.73a19.4,19.4,0,0,1-3.23.42c-1.51,0-3.1-.23-3.82.07-1.52.63-6.34,3.95-4,5.37a5.37,5.37,0,0,0,6.33-.37c1.59-1.29,5.91-1.39,5.91-1.39Z"/><path class="cls-18" d="M235.16,207.43c10.46,3,16.83,28.12,15.36,35.63s-31,7.91-31,7.91a5.4,5.4,0,0,1-1.86-2.64,5.91,5.91,0,0,1,0-2.5s18.67-5.06,19.1-7.22-9-13.58-8.85-19.78S229.46,205.78,235.16,207.43Z"/></g></g></svg>