<svg id="Layer_1" data-name="Layer 1" xmlns="http://www.w3.org/2000/svg" viewBox="0 0 627.76 627.76"><defs><style>.cls-1{fill:#231f20;}.cls-2{fill:#be1e2d;}</style></defs><path class="cls-1" d="M313.88,25A289,289,0,0,1,426.32,580.07,289,289,0,0,1,201.44,47.69,287,287,0,0,1,313.88,25m0-25C140.53,0,0,140.53,0,313.88S140.53,627.76,313.88,627.76,627.76,487.23,627.76,313.88,487.23,0,313.88,0Z"/><path class="cls-2" d="M222.3,289c0,3-.06,5.74,0,8.5.07,2.42-.72,3.78-3.41,3.71-3.73-.11-7.46-.1-11.19,0-2.51.07-3.22-1.1-3.1-3.42.14-2.78,0-5.56,0-8.61-1.44-.17-2.57-.31-3.71-.43-8.62-.95-14.86-7.6-14.65-15.63.22-8.34,6.81-14.74,15.59-15.12,1.47-.06,2.93,0,4.4,0h256c0-3.35,0-6.24,0-9.14-.08-24-.06-48-.31-72A122.1,122.1,0,0,0,460.43,157c-2-11.61-10.4-18.48-22.14-18.44a55.65,55.65,0,0,0-14.12,1.89c-4.81,1.29-8.17,4.81-10.22,9.47-1.35,3.06-1,4.88,2.49,6.43,12.08,5.37,17.17,14.7,15.35,27.41h-62c-1.21-4.44-.27-8.65,1.62-12.65,3.69-7.8,10.08-12.47,18-15.53a6.67,6.67,0,0,0,3.76-3.77c5.59-22.67,22.87-33.36,45.53-32a59.12,59.12,0,0,1,12.16,2.12c15.16,4.24,25.87,16.49,26.86,32.23.9,14.47.54,29,.63,43.54.12,19.32.12,38.65.19,58a10.9,10.9,0,0,0,.3,1.87c10.85,3.08,15.44,7.63,15.72,15.5.27,7.52-3.94,12.13-15.16,16.36,0,13.44.11,27-.06,40.6a63.54,63.54,0,0,1-1.43,13,46.72,46.72,0,0,1-39.52,36.23c-2.85.39-3.86,1.4-3.54,4.35,1.16,10.89,3,13.07,13.57,15.69.52.13,1.06.16,1.57.3,3.63,1,7.52,1.68,7.78,6.6.23,4.21-3,9.71-7.31,10.34-4.72.7-10,.86-14.44-.6-8.09-2.66-14.5-8-17-16.7A94.26,94.26,0,0,1,415.86,384c-.38-3.33-1.53-4.21-4.69-4.13-7.59.19-15.2-.07-22.79.13-3.06.07-4.41-.74-4.2-4a74.85,74.85,0,0,0,0-9.59c-.19-3.17,1.1-4.19,4.19-4.16,13.19.11,26.39.26,39.58-.07,5.11-.13,10.56-.62,15.19-2.53,11.78-4.87,18.11-14.24,18.43-27,.34-13.59.12-27.19.11-40.79a20.52,20.52,0,0,0-.45-2.89Z"/><path class="cls-2" d="M312.9,522.6h-4.49q-58.37,0-116.74-.06c-3.06,0-4.85.57-6.53,3.56-5.38,9.55-18,9.46-24,.25a8.32,8.32,0,0,0-4.43-3.23c-14.19-3.84-23.52-15.72-23.52-30.45q0-71.78.05-143.55a48.47,48.47,0,0,1,1.29-10.65c2.57-11.43,10.12-17.75,21.37-19.83a57.65,57.65,0,0,1,10.33-.89q85.95-.09,171.91,0A42.72,42.72,0,0,1,348.44,319c12.27,3.08,19.11,12.48,19.19,26.47.13,20,0,40,0,60V498.2c0,14.83-9.21,24.74-24.06,26-1.26.11-3.1.61-3.58,1.51-3.53,6.53-9.16,8.67-16.07,8C317.48,533.07,314.36,528.66,312.9,522.6ZM151.74,388.34v4.23q0,51.36,0,102.73c0,7.65,2.73,10.38,10.32,10.38H340.33c7.68,0,10.42-2.7,10.42-10.27V388.34Zm199-17.14c0-9.95,0-19.52,0-29.08,0-5.93-3.18-9.07-9.21-9.07q-90.31,0-180.63,0c-6,0-9.11,3.18-9.15,9.12-.05,8.66,0,17.32,0,26,0,1,.2,2,.31,3.05Z"/><path class="cls-2" d="M384.8,201.74c-1.89,1.27-3.63,3.11-5.7,3.64-2.37.61-5.18-2.69-4.78-5.14.47-2.8,2.36-5,5.11-4.38,2,.42,3.63,2.57,5.43,3.95Z"/><path class="cls-2" d="M401.42,206.23c-1.32-1.85-3.2-3.54-3.82-5.6-.7-2.33,2.52-5.24,5-4.93,2.83.36,5,2.23,4.54,5-.35,2-2.47,3.72-3.8,5.57Z"/><path class="cls-2" d="M431.19,201.73c-1.89,1.27-3.62,3.11-5.7,3.65-2.36.62-5.18-2.68-4.78-5.13.45-2.81,2.34-4.95,5.09-4.39,2,.41,3.65,2.56,5.45,3.94Z"/><path class="cls-2" d="M384.84,221.59c-1.86,1.31-3.55,3.18-5.62,3.79-2.32.69-5.24-2.56-4.91-5,.38-2.83,2.26-5,5-4.51,2,.35,3.71,2.48,5.55,3.81Z"/><path class="cls-2" d="M401.59,226.25c-1.38-1.81-3.29-3.44-4-5.48-.77-2.28,2.35-5.31,4.85-5.08,2.85.26,5.06,2.11,4.68,4.84-.27,2-2.35,3.79-3.63,5.67Z"/><path class="cls-2" d="M431.19,221.74c-1.89,1.26-3.63,3.1-5.71,3.64-2.37.61-5.18-2.7-4.77-5.15.46-2.8,2.35-4.94,5.1-4.37,2,.41,3.64,2.56,5.44,3.94Z"/><path class="cls-2" d="M384.84,244c-1.86,1.32-3.55,3.19-5.62,3.8-2.32.68-5.24-2.56-4.91-5,.38-2.83,2.26-5,5-4.52,2,.36,3.71,2.48,5.55,3.82C384.85,242.7,384.84,243.34,384.84,244Z"/><path class="cls-2" d="M401.55,248.64c-1.36-1.82-3.27-3.46-3.94-5.51-.76-2.29,2.38-5.29,4.88-5,2.85.28,5.05,2.14,4.66,4.87-.29,2-2.39,3.77-3.68,5.64Z"/><path class="cls-2" d="M424.54,248.61c-1.3-1.87-3.16-3.58-3.75-5.65-.66-2.33,2.59-5.21,5.07-4.86,2.81.4,5,2.28,4.47,5-.38,2-2.51,3.69-3.86,5.51Z"/><path class="cls-2" d="M250.26,486.61H177.11c-5.3,0-6.3-1-6.3-6.25q0-32.58,0-65.17c0-5.29,1-6.28,6.27-6.28h146.7c5.3,0,6.3,1,6.3,6.26q0,32.58,0,65.16c0,5.3-1,6.28-6.27,6.28Z"/><path class="cls-2" d="M186.92,351.19a8.85,8.85,0,1,1-9-8.68A8.8,8.8,0,0,1,186.92,351.19Z"/><path class="cls-2" d="M205.11,360.22a8.86,8.86,0,1,1,9-8.7A8.8,8.8,0,0,1,205.11,360.22Z"/><path class="cls-2" d="M241.3,351.34a8.85,8.85,0,1,1-8.88-8.83A8.8,8.8,0,0,1,241.3,351.34Z"/><path class="cls-2" d="M268.49,351.44a8.85,8.85,0,1,1-8.77-8.93A8.79,8.79,0,0,1,268.49,351.44Z"/><path class="cls-2" d="M321.25,360.22a8.86,8.86,0,1,1,8.83-8.88A8.8,8.8,0,0,1,321.25,360.22Z"/></svg>