<svg xmlns="http://www.w3.org/2000/svg" viewBox="0 0 4281.57 843.3"><defs><style>.cls-1{fill:#dee9f7;}.cls-2{fill:#b1c6e6;}.cls-3{fill:#fab17e;}.cls-4{fill:#751113;}.cls-5{fill:#183660;}.cls-6{fill:#243962;}.cls-7{fill:#447bbf;}.cls-8{fill:#be1e2d;}.cls-9{fill:#f9a56c;}.cls-10{fill:#231f20;}.cls-11{fill:#d63044;}.cls-12{fill:#2b4f97;}.cls-13{opacity:0.5;}.cls-14{fill:#fff;}.cls-15{fill:#9fb6df;}.cls-16{fill:#d6e3f4;}.cls-17{fill:#b2c1e3;}.cls-18{fill:#84a4d5;}.cls-19{fill:#9ab0db;}.cls-20{fill:#c0d1ec;}.cls-21{fill:none;}</style></defs><g id="Layer_2" data-name="Layer 2"><g id="Layer_1-2" data-name="Layer 1"><path class="cls-1" d="M4237.49,843.27c-64.44,0-1052.58.07-1052.58,0-36.19-36.7-46.86-124.31,31.54-208.92,28.71-31-47.47-90.41,2-185.75,18.79-36.22,93.86-98.49,292-50.17,84.22,20.54,155.7-12.26,171.52-24.11A175.85,175.85,0,0,1,3711,356.79c109-52.75,297.38-19.15,379.6,44.25,11.65,9,64.62,55.49,22.87,119.41-26.37,40.35,84.09,78.89,123.34,125C4336.64,762.58,4238.4,841.74,4237.49,843.27Z"/><rect class="cls-2" x="3741.65" y="556.85" width="3.16" height="16.78" transform="translate(7236.12 2025.06) rotate(-165.9)"/><path class="cls-2" d="M3744.21,551.43v0a2.7,2.7,0,0,0,1.4,3c1.59.59,2.66-.44,3.06-2l.1-.42c.14-.56,1.43-.1,1.62.44a4.56,4.56,0,1,1-8.74.38,4.5,4.5,0,0,1,1-1.91C3743.09,550.45,3744.3,550.76,3744.21,551.43Z"/><path class="cls-2" d="M3742.65,579.37v0a2.71,2.71,0,0,0-1.4-3.05c-1.58-.59-2.65.44-3.06,2l-.1.41c-.13.56-1.43.1-1.61-.44a4.56,4.56,0,0,1,4.91-6,4.58,4.58,0,0,1,3.83,5.64,4.69,4.69,0,0,1-1,1.9C3743.77,580.35,3742.56,580,3742.65,579.37Z"/><path class="cls-3" d="M3735.69,506a55.74,55.74,0,0,1-3.68-5.25c-1.45-2.45-10.34-7.6-11-3.26-.58,4,2.29,2.79,3.34,5.94s2.33,4.5,8.86,7.38Z"/><path class="cls-4" d="M3733.56,507.53c2-2.91,2.53-3.06,2.53-3.06s32.22,12.33,35.3,13.36,49,3.62,49,3.62l13.87,29.26s-61.26-13.41-69-16.16c-12.79-4.56-33.3-22.39-33.3-22.39A9.31,9.31,0,0,1,3733.56,507.53Z"/><path class="cls-5" d="M3813.6,781.09s-.7,10.86-2.8,13.41h-32.32c.21-1.08,1.12-3.75,5.16-4.43,5.11-.85,13.66-4.3,16.75-10.77C3803.64,772.48,3813.6,781.09,3813.6,781.09Z"/><path class="cls-5" d="M3871.05,776.63s2,16.46-.73,16.71c-.37,0-13.32,0-16.83.51-5.75.83-15.34.11-15.34.11a1.47,1.47,0,0,1-1.38-2.2,6.18,6.18,0,0,1,4.4-2.7c5.09-.94,13.57-4.53,16.54-11C3860.84,771.14,3871.05,776.63,3871.05,776.63Z"/><path class="cls-6" d="M3798.41,636.67s8.12,27.28,31.41,74.66a333.35,333.35,0,0,1,16.14,38c.44,1.28.86,2.5,1.24,3.68q.93,2.87,1.67,5.37c.37,1.28.71,2.49,1,3.64,3.05,11.41,3,16.59,3,16.59a29.66,29.66,0,0,0,11.61,1.31c3.22-.32,10.28-3.21,10.28-3.21s-.77-7.64-2.3-18.44c-.17-1.19-.35-2.41-.54-3.67q-.37-2.53-.8-5.22c-.2-1.2-.4-2.42-.61-3.65-2.7-16.09-6.72-34.76-12.07-46.41-11-23.91-13.25-89.35-13.25-89.35Z"/><path class="cls-7" d="M3785.41,622.75a679.58,679.58,0,0,0,6.92,84.56c2.63,17.92,4.05,32.28,4.78,43.39.08,1.31.16,2.57.22,3.79.11,2,.19,3.8.26,5.53,0,1.3.09,2.55.12,3.73a140.7,140.7,0,0,1-.34,17.46,9.46,9.46,0,0,0,1.43.62h0a27.83,27.83,0,0,0,9.36,1.39,23.1,23.1,0,0,0,5.31-.61,16,16,0,0,0,3.94-1.39s1.23-6.91,2.62-16.93c.17-1.2.34-2.44.51-3.73.23-1.7.45-3.46.68-5.29.14-1.22.3-2.45.44-3.72,1.84-15.92,3.27-34.84,1.73-47.61a58.36,58.36,0,0,1-.36-6.76h0c0-11.5,2.43-27,5.37-41.44l0-.12c3-14.86,6.58-28.58,8.49-35.69.87-3.22,1.4-5.08,1.4-5.08l-1.61-.05h0l-12.73-.4-34.74-1.08-2.14-.06-1.73-.06S3785.31,616.63,3785.41,622.75Z"/><path class="cls-3" d="M3821.36,514.32l-8.6,6.12-12.44-2.51c.17-1.09,1-5.6,1.74-9.69.05-.24.09-.48.13-.71.64-3.48,1.2-6.47,1.2-6.47l11.61-5.55,4.33-2.07c0,.07-.33,3.85-.38,4.41A34.41,34.41,0,0,0,3821.36,514.32Z"/><path class="cls-4" d="M3801.19,511.24c.27-.11,16.92-4.83,18.73-4.25s2.88,3.93,2.88,3.93l-25.7,7S3797.71,512.64,3801.19,511.24Z"/><path class="cls-8" d="M3846,618.41c-2.81,12.35-61.64-26.4-60.86-33.94.09-.83.18-1.66.26-2.49,1.09-10.5,2.13-20.76,2.2-27.47a90.5,90.5,0,0,1,2-17.15c1-5,2.27-9.51,3.37-13a14.16,14.16,0,0,1,4.11-6.39,15,15,0,0,1,4.69-2.87,13.89,13.89,0,0,1,1.46-.49c7.08-2,16.89-4.41,19.54-3.66,7.2,2,12.55,14.19,16.34,29.69C3846.21,569.62,3847.85,610.36,3846,618.41Z"/><path class="cls-9" d="M3818.08,498c-2.55,4.68-12.06,8.73-16,10.22.05-.24.09-.48.13-.71.64-3.48,1.2-6.47,1.2-6.47l11.61-5.55C3817.57,495.47,3819.13,496.09,3818.08,498Z"/><path class="cls-3" d="M3797.74,500.41s21,6.27,24.83-6.31,9.18-20.25-4-24.78-17.3-.48-19.66,3.42S3792.39,498.45,3797.74,500.41Z"/><path class="cls-10" d="M3799.7,471.53s1.33,14.64,4.49,14,6-1.1,5.55,3.31-4.84,9.51,4.89,10.29,23.71-23.28,21-27.84C3828,458.14,3788.55,455.49,3799.7,471.53Z"/><path class="cls-4" d="M3786.93,613.19c5.82,2-.1-5.55,0-7.13.45-6.95-2.39-15.72-1.52-24.08L3821,561.57S3829.43,612.87,3786.93,613.19Z"/><path class="cls-7" d="M3846,618.41c-15.19,27-17.61,37.32-17.61,37.32-13.22-1.44-35.87-26.38-43.05-33,0,0-1-30.68-.2-38.22l11-.31s19.85,4.83,25-1.72,2.91-38.7,2.91-38.7l15.09-3.13C3846.21,569.62,3850.09,611.16,3846,618.41Z"/><path class="cls-3" d="M3755.89,566.65s-7.23-4.7-8.61-5.11-5.86-.85-6.07-.51-.83,1.38,0,1.73,1.76.23,1.47.48-3.25-1.1-3.93.34-1.28,6.4,2.18,7.9,12,.15,12.65.32C3758.78,573.26,3755.89,566.65,3755.89,566.65Z"/><path class="cls-11" d="M3755.82,565.38s35.29,5.75,38.42,4.29c5-2.33-1.94-36.68-1.94-36.68s-.3-7.79,9.18-9.63c8.24-1.59,16.18,4.33,16.18,4.33s7.23,6.2,6.31,13.08c-2,15.26-5.23,46.29-15.87,51.05-13.72,6.13-53.41-17-53.41-17a6.45,6.45,0,0,1-1.13-4.43A10.16,10.16,0,0,1,3755.82,565.38Z"/><path class="cls-12" d="M3827,543.13l-2.93.61s-6.18-25.67-26.94-25.8a15,15,0,0,1,4.69-2.87C3809.4,517,3822.61,523.27,3827,543.13Z"/><g class="cls-13"><path class="cls-14" d="M3846,749.29c.44,1.28.86,2.5,1.24,3.68a86.38,86.38,0,0,0,20.68-2.76c1.18-.29,2.27-.59,3.25-.87-.2-1.2-.4-2.42-.61-3.65A85,85,0,0,1,3846,749.29Z"/></g><g class="cls-13"><path class="cls-14" d="M3848.87,758.34c.37,1.28.71,2.49,1,3.64a88.35,88.35,0,0,0,18.79-2.73c1.4-.35,2.67-.7,3.79-1-.17-1.19-.35-2.41-.54-3.67A88.08,88.08,0,0,1,3848.87,758.34Z"/></g><path class="cls-3" d="M3734.81,504.83a23.06,23.06,0,0,0-1.26-4.81c-.85-2-1.94-4.58-2.17-3.26s.62,3.57,0,4.66S3734.81,504.83,3734.81,504.83Z"/><path class="cls-14" d="M3797.11,750.7c.08,1.31.16,2.57.22,3.79a88.16,88.16,0,0,0,19.54,1.08c1.62-.08,3.08-.19,4.35-.3.14-1.22.3-2.45.44-3.72A88.3,88.3,0,0,1,3797.11,750.7Z"/><path class="cls-14" d="M3797.59,760c0,1.3.09,2.55.12,3.73a90.17,90.17,0,0,0,18,.83c1.6-.08,3-.18,4.29-.29.17-1.2.34-2.44.51-3.73A91,91,0,0,1,3797.59,760Z"/><path class="cls-15" d="M3773.28,466.36s-29.09,23.46-32,22-3.48-5.18-3.48-5.18c-6.09,1.17-11.13,9-13.4,13.14-.83,1.5-1.28,2.51-1.28,2.51a4.26,4.26,0,0,1-4.27-1.38c3.18-12,16.23-26.52,29.61-31.45S3771.84,465.18,3773.28,466.36Z"/><path class="cls-16" d="M3776.09,469.18c2.46,5.21-3.75,13.3-13.87,18.06s-20.3,4.39-22.76-.82,3.76-13.3,13.88-18.06S3773.64,464,3776.09,469.18Z"/><path class="cls-15" d="M3759.74,477.83c.14.29-.27.77-.9,1.07s-1.25.3-1.39,0,.27-.76.9-1.06S3759.6,477.54,3759.74,477.83Z"/><path class="cls-15" d="M3752,481.48c.13.29-.27.77-.9,1.06s-1.26.31-1.39,0,.26-.76.89-1.06S3751.85,481.19,3752,481.48Z"/><path class="cls-15" d="M3763.62,476c.13.29-.27.76-.9,1.06s-1.26.3-1.39,0,.26-.77.9-1.07S3763.48,475.72,3763.62,476Z"/><path class="cls-15" d="M3767.49,474.18c.14.29-.26.77-.89,1.07s-1.26.3-1.4,0,.27-.76.9-1.06S3767.36,473.89,3767.49,474.18Z"/><path class="cls-15" d="M3772.52,471.82c.13.29-.27.76-.9,1.06s-1.26.31-1.39,0,.26-.77.89-1.06S3772.38,471.53,3772.52,471.82Z"/><path class="cls-15" d="M3755.86,479.66c.14.29-.26.76-.9,1.06s-1.25.3-1.39,0,.27-.77.9-1.07S3755.73,479.37,3755.86,479.66Z"/><path class="cls-15" d="M3747.22,483.72c.14.29-.26.77-.9,1.07s-1.25.3-1.39,0,.27-.76.9-1.06S3747.09,483.44,3747.22,483.72Z"/><path class="cls-15" d="M3758.64,475.5c.14.29-.26.76-.9,1.06s-1.25.31-1.39,0,.27-.77.9-1.06S3758.51,475.21,3758.64,475.5Z"/><path class="cls-15" d="M3750.89,479.15c.13.29-.27.76-.9,1.06s-1.26.31-1.39,0,.26-.77.9-1.06S3750.75,478.86,3750.89,479.15Z"/><path class="cls-15" d="M3746.86,480.64c.13.29-.27.77-.9,1.07s-1.26.3-1.39,0,.26-.76.89-1.06S3746.72,480.35,3746.86,480.64Z"/><path class="cls-15" d="M3769.43,470c.13.29-.27.77-.9,1.06s-1.26.31-1.39,0,.26-.77.89-1.06S3769.29,469.73,3769.43,470Z"/><path class="cls-15" d="M3749.45,477c.14.29-.27.77-.9,1.07s-1.26.3-1.39,0,.27-.76.9-1.06S3749.31,476.7,3749.45,477Z"/><path class="cls-15" d="M3762.52,473.68c.14.28-.27.76-.9,1.06s-1.25.3-1.39,0,.27-.76.9-1.06S3762.38,473.39,3762.52,473.68Z"/><path class="cls-15" d="M3766.4,471.85c.13.29-.27.77-.9,1.06s-1.26.31-1.39,0,.26-.77.89-1.06S3766.26,471.56,3766.4,471.85Z"/><path class="cls-15" d="M3754.77,477.33c.13.28-.27.76-.9,1.06s-1.26.3-1.39,0,.26-.76.89-1.06S3754.63,477,3754.77,477.33Z"/><path class="cls-15" d="M3760.72,479.91c.13.29-.27.77-.9,1.06s-1.26.31-1.39,0,.26-.77.9-1.06S3760.58,479.62,3760.72,479.91Z"/><path class="cls-15" d="M3753,483.56c.14.29-.26.77-.89,1.06s-1.26.31-1.4,0,.27-.77.9-1.06S3752.83,483.27,3753,483.56Z"/><path class="cls-15" d="M3750.26,486.11c.14.29-.27.77-.9,1.06s-1.25.31-1.39,0,.27-.77.9-1.06S3750.12,485.82,3750.26,486.11Z"/><path class="cls-15" d="M3764.6,478.09c.13.29-.27.76-.9,1.06s-1.26.3-1.39,0,.26-.76.89-1.06S3764.46,477.8,3764.6,478.09Z"/><path class="cls-15" d="M3768.47,476.26c.14.29-.26.77-.9,1.06s-1.25.31-1.39,0,.27-.77.9-1.06S3768.34,476,3768.47,476.26Z"/><path class="cls-15" d="M3771.66,474.76c.13.29-.27.77-.9,1.07s-1.26.3-1.39,0,.26-.76.9-1.06S3771.52,474.47,3771.66,474.76Z"/><path class="cls-15" d="M3769.57,478.59c.14.29-.27.77-.9,1.07s-1.25.3-1.39,0,.27-.76.9-1.06S3769.43,478.31,3769.57,478.59Z"/><path class="cls-15" d="M3756.84,481.74c.14.29-.26.76-.9,1.06s-1.25.3-1.39,0,.27-.76.9-1.06S3756.71,481.45,3756.84,481.74Z"/><path class="cls-15" d="M3761.82,482.24c.13.29-.27.77-.9,1.07s-1.26.3-1.39,0,.26-.76.89-1.06S3761.68,482,3761.82,482.24Z"/><path class="cls-15" d="M3756.39,470.72c.14.29-.26.76-.9,1.06s-1.25.31-1.39,0,.27-.77.9-1.07S3756.26,470.43,3756.39,470.72Z"/><path class="cls-15" d="M3763,484.67c.13.29-.27.77-.9,1.06s-1.25.31-1.39,0,.27-.76.9-1.06S3762.82,484.38,3763,484.67Z"/><path class="cls-15" d="M3765.69,480.42c.14.29-.26.76-.9,1.06s-1.25.31-1.39,0,.27-.77.9-1.07S3765.56,480.13,3765.69,480.42Z"/><path class="cls-15" d="M3757.94,484.07c.14.29-.27.76-.9,1.06s-1.25.31-1.39,0,.27-.77.9-1.07S3757.8,483.78,3757.94,484.07Z"/><path class="cls-15" d="M3754.43,485.72c.13.29-.27.77-.9,1.06s-1.26.31-1.39,0,.26-.76.89-1.06S3754.29,485.43,3754.43,485.72Z"/><path class="cls-15" d="M3757.55,473.17c.13.29-.27.77-.9,1.07s-1.26.3-1.39,0,.26-.76.9-1.06S3757.41,472.88,3757.55,473.17Z"/><path class="cls-15" d="M3761.42,471.35c.14.29-.26.76-.89,1.06s-1.26.3-1.4,0,.27-.77.9-1.07S3761.29,471.06,3761.42,471.35Z"/><path class="cls-15" d="M3760.52,469.42c.13.29-.27.76-.9,1.06s-1.26.3-1.39,0,.26-.77.89-1.07S3760.38,469.13,3760.52,469.42Z"/><path class="cls-15" d="M3766.59,482.32c.14.29-.27.77-.9,1.07s-1.25.3-1.39,0,.27-.76.9-1.06S3766.45,482,3766.59,482.32Z"/><path class="cls-15" d="M3759.21,485.8c.14.28-.26.76-.89,1.06s-1.26.3-1.4,0,.27-.76.9-1.06S3759.08,485.51,3759.21,485.8Z"/><path class="cls-15" d="M3752.76,473.07c.14.29-.26.76-.9,1.06s-1.25.3-1.39,0,.27-.76.9-1.06S3752.63,472.78,3752.76,473.07Z"/><path class="cls-15" d="M3765.3,469.52c.14.29-.27.77-.9,1.07s-1.25.3-1.39,0,.27-.76.9-1.06S3765.16,469.23,3765.3,469.52Z"/><path class="cls-15" d="M3753.67,475c.14.29-.27.76-.9,1.06s-1.25.3-1.39,0,.27-.77.9-1.07S3753.53,474.71,3753.67,475Z"/><path class="cls-17" d="M3688.87,454.36h2.33a1.76,1.76,0,0,1,1.76,1.76V793.23a0,0,0,0,1,0,0h-6a0,0,0,0,1,0,0v-337A1.92,1.92,0,0,1,3688.87,454.36Z"/><path class="cls-15" d="M3693.13,587.68l-.35-4.11a17.61,17.61,0,0,0,9.77-3.18c9.47-6.54,15.13-22.64,16.39-46.55a224.37,224.37,0,0,0-1.1-35l6.74-.32c.34,2.74,8.15,67.24-17,84.59A26.42,26.42,0,0,1,3693.13,587.68Z"/><path class="cls-17" d="M3748.51,656.48h-54.26a4.3,4.3,0,0,1-4.3-4.3h0a4.31,4.31,0,0,1,4.3-4.3h54.26a4.3,4.3,0,0,1,4.29,4.3h0A4.29,4.29,0,0,1,3748.51,656.48Z"/><path class="cls-17" d="M3728.53,502.79h-38a3.63,3.63,0,0,1-3.62-3.63h0a3.63,3.63,0,0,1,3.62-3.62h38a3.63,3.63,0,0,1,3.62,3.62h0A3.63,3.63,0,0,1,3728.53,502.79Z"/><polygon class="cls-8" points="3746.41 592.78 3743.12 639.2 3729.63 639.2 3726.95 592.78 3746.41 592.78"/><rect class="cls-14" x="3729.63" y="639.2" width="13.49" height="8.68"/><rect class="cls-4" x="3726.95" y="589.88" width="19.47" height="2.9"/><path class="cls-14" d="M3742.07,608.65a2.85,2.85,0,1,0-2.84,2.85A2.84,2.84,0,0,0,3742.07,608.65Z"/><path class="cls-14" d="M3738.28,615.56a3.53,3.53,0,1,0-3.53,3.52A3.52,3.52,0,0,0,3738.28,615.56Z"/><path class="cls-14" d="M3735,609.72a1.78,1.78,0,1,0-1.77,1.78A1.78,1.78,0,0,0,3735,609.72Z"/><path class="cls-4" d="M3734.4,609.1a.62.62,0,0,0-1.23,0,.62.62,0,1,0,1.23,0Z"/><path class="cls-4" d="M3734.28,616.92a1.11,1.11,0,1,0-1.11,1.11A1.11,1.11,0,0,0,3734.28,616.92Z"/><path class="cls-4" d="M3741.42,609.56a1.2,1.2,0,1,0-1.2,1.2A1.19,1.19,0,0,0,3741.42,609.56Z"/><polygon class="cls-8" points="3721.86 606.4 3718.56 639.2 3705.07 639.2 3702.39 606.4 3721.86 606.4"/><rect class="cls-14" x="3705.07" y="639.2" width="13.49" height="8.68"/><rect class="cls-4" x="3702.39" y="604.36" width="19.47" height="2.05"/><path class="cls-14" d="M3717.51,615.29a2.85,2.85,0,1,0-2.84,2.85A2.84,2.84,0,0,0,3717.51,615.29Z"/><path class="cls-14" d="M3713.72,622.2a3.53,3.53,0,1,0-3.52,3.52A3.53,3.53,0,0,0,3713.72,622.2Z"/><path class="cls-14" d="M3710.46,616.36a1.78,1.78,0,1,0-1.78,1.78A1.78,1.78,0,0,0,3710.46,616.36Z"/><path class="cls-4" d="M3709.84,615.74a.61.61,0,0,0-.61-.61.61.61,0,0,0-.62.61.62.62,0,0,0,.62.62A.61.61,0,0,0,3709.84,615.74Z"/><path class="cls-4" d="M3709.72,623.56a1.11,1.11,0,1,0-1.11,1.11A1.11,1.11,0,0,0,3709.72,623.56Z"/><path class="cls-4" d="M3716.86,616.2a1.2,1.2,0,1,0-1.2,1.2A1.19,1.19,0,0,0,3716.86,616.2Z"/><path class="cls-18" d="M3737.76,483.16c-6.09,1.17-11.13,9-13.4,13.14.28-5.12,9.95-16.77,12.56-15.85S3737.76,483.16,3737.76,483.16Z"/><polygon class="cls-19" points="3728.39 824.07 3718.92 841.89 3714.03 841.89 3717.82 824.07 3728.39 824.07"/><polygon class="cls-19" points="3930.38 824.07 3939.85 841.89 3944.73 841.89 3940.95 824.07 3930.38 824.07"/><path class="cls-20" d="M4032.83,699.06l-23.6,64.59a100.55,100.55,0,0,1-94.45,66h-170a77.36,77.36,0,0,1-75.61-61l-9.39-43.28a566.68,566.68,0,0,0,71.64,6.36C3874,736.13,4032.83,699.06,4032.83,699.06Z"/><path class="cls-17" d="M3829.62,829.69h-84.86a77.36,77.36,0,0,1-75.61-61l-9.39-43.28a566.68,566.68,0,0,0,71.64,6.36C3730.38,747.7,3731.68,817,3829.62,829.69Z"/><path class="cls-19" d="M3772,734.83c-19.69,0-37.38-.59-52.08-1.36-41.28-2.14-68.59-6.13-68.86-6.17a3.92,3.92,0,1,1,1.15-7.76c.27,0,27.28,4,68.22,6.1,37.75,2,95.4,2.73,155.68-4.7s101.69-14.82,125.76-19.7c26.09-5.29,38.05-8.86,38.17-8.9a3.93,3.93,0,0,1,2.27,7.52c-.49.15-12.3,3.68-38.66,9-24.23,4.91-65.86,12.35-126.58,19.84A867.61,867.61,0,0,1,3772,734.83Z"/><path class="cls-20" d="M3373.42,568.05v.66c0,12.59-10.67,22.83-23.77,22.83h-71.24c-7.92,0-14.36,6.18-14.36,13.78v2.17c0,7.6,6.44,13.78,14.36,13.78h78.64a2.9,2.9,0,0,1,2.9,2.9,6.15,6.15,0,0,1-6.15,6.15h-75.39c-13.11,0-23.78-10.24-23.78-22.83v-2.17c0-12.59,10.67-22.82,23.78-22.82h71.24c7.91,0,14.35-6.19,14.35-13.79v-.66c0-7.6-6.44-13.78-14.35-13.78h-72.57c-13.11,0-23.77-10.24-23.77-22.83v-3.06c0-12.58,10.66-22.82,23.77-22.82h72.57c7.91,0,14.35-6.18,14.35-13.78S3357.56,478,3349.65,478H3206.59q1.27-4.46,2.91-9h140.15c13.1,0,23.77,10.24,23.77,22.83s-10.67,22.82-23.77,22.82h-72.57c-7.91,0-14.36,6.19-14.36,13.78v3.06c0,7.61,6.45,13.79,14.36,13.79h72.57C3362.75,545.23,3373.42,555.47,3373.42,568.05Z"/><rect class="cls-20" x="3326.17" y="670.53" width="139.44" height="171.65"/><rect class="cls-17" x="3326.17" y="696.13" width="139.44" height="2.33"/><path class="cls-17" d="M3367.43,693.86h-37.06V674.05h37.06Zm-36.6-.47H3367V674.51h-36.13Z"/><path class="cls-17" d="M3387.59,684a6.65,6.65,0,1,1,6.64,6.64A6.64,6.64,0,0,1,3387.59,684Z"/><path class="cls-17" d="M3405.54,684a5.42,5.42,0,1,1,5.42,5.42A5.42,5.42,0,0,1,3405.54,684Z"/><rect class="cls-17" x="3424.85" y="677.59" width="29.68" height="12.73"/><circle class="cls-17" cx="3394.23" cy="762.25" r="51.66"/><circle class="cls-19" cx="3394.23" cy="762.25" r="41.54" transform="translate(-33.48 168.44) rotate(-2.83)"/><rect class="cls-17" x="3426" y="755.26" width="15.36" height="18.15" rx="4.7"/><path class="cls-1" d="M44.08,843.27c64.43,0,1052.57.07,1052.57,0,36.2-36.7,46.86-124.31-31.53-208.92-28.71-31,47.47-90.41-2-185.75-18.79-36.22-93.85-98.49-291.94-50.17C687,419,615.49,386.17,599.67,374.32a176.36,176.36,0,0,0-29.14-17.53C461.52,304,273.16,337.64,190.94,401c-11.65,9-64.63,55.49-22.87,119.41,26.37,40.35-84.09,78.89-123.34,125C-55.07,762.58,43.17,841.74,44.08,843.27Z"/><rect class="cls-2" x="536.75" y="556.85" width="3.16" height="16.78" transform="translate(-121.45 148.12) rotate(-14.1)"/><path class="cls-2" d="M537.36,551.43v0a2.7,2.7,0,0,1-1.39,3c-1.59.59-2.66-.44-3.06-2,0,0-.11-.41-.11-.42-.13-.56-1.43-.1-1.61.44a4.56,4.56,0,1,0,8.74.38,4.73,4.73,0,0,0-1-1.91C538.48,550.45,537.27,550.76,537.36,551.43Z"/><path class="cls-2" d="M538.92,579.37v0a2.72,2.72,0,0,1,1.4-3.05c1.59-.59,2.66.44,3.06,2,0,0,.1.4.11.41.13.56,1.42.1,1.61-.44a4.53,4.53,0,0,0-.06-3.14,4.56,4.56,0,0,0-8.68,2.77,4.46,4.46,0,0,0,1,1.9C537.8,580.35,539,580,538.92,579.37Z"/><path class="cls-3" d="M545.88,506a55.74,55.74,0,0,0,3.68-5.25c1.45-2.45,10.33-7.6,11-3.26.58,4-2.3,2.79-3.35,5.94s-2.33,4.5-8.85,7.38Z"/><path class="cls-4" d="M548,507.53c-2-2.91-2.53-3.06-2.53-3.06s-32.22,12.33-35.3,13.36-49,3.62-49,3.62l-13.88,29.26s61.26-13.41,69-16.16c12.79-4.56,33.3-22.39,33.3-22.39A9.31,9.31,0,0,0,548,507.53Z"/><path class="cls-5" d="M468,781.09s.71,10.86,2.81,13.41h32.31c-.2-1.08-1.12-3.75-5.16-4.43-5.1-.85-13.65-4.3-16.74-10.77C477.92,772.48,468,781.09,468,781.09Z"/><path class="cls-5" d="M410.52,776.63s-2,16.46.73,16.71c.37,0,13.31,0,16.83.51,5.75.83,15.34.11,15.34.11a1.46,1.46,0,0,0,1.37-2.2,6.13,6.13,0,0,0-4.39-2.7c-5.09-.94-13.57-4.53-16.54-11C420.73,771.14,410.52,776.63,410.52,776.63Z"/><path class="cls-6" d="M483.16,636.67S475,664,451.74,711.33a337.05,337.05,0,0,0-16.14,38c-.44,1.28-.85,2.5-1.23,3.68-.63,1.91-1.18,3.7-1.67,5.37-.38,1.28-.72,2.49-1,3.64-3.05,11.41-3,16.59-3,16.59a29.59,29.59,0,0,1-11.6,1.31c-3.22-.32-10.28-3.21-10.28-3.21s.76-7.64,2.3-18.44c.17-1.19.35-2.41.54-3.67q.38-2.53.8-5.22c.19-1.2.39-2.42.6-3.65,2.71-16.09,6.72-34.76,12.08-46.41,11-23.91,13.25-89.35,13.25-89.35Z"/><path class="cls-7" d="M496.15,622.75a677.6,677.6,0,0,1-6.92,84.56c-2.63,17.92-4,32.28-4.77,43.39-.08,1.31-.16,2.57-.22,3.79-.11,2-.2,3.8-.27,5.53,0,1.3-.09,2.55-.11,3.73a138.11,138.11,0,0,0,.34,17.46,10.14,10.14,0,0,1-1.43.62h0a27.81,27.81,0,0,1-9.35,1.39,23.12,23.12,0,0,1-5.32-.61,16.23,16.23,0,0,1-3.94-1.39s-1.22-6.91-2.61-16.93c-.18-1.2-.34-2.44-.51-3.73-.23-1.7-.45-3.46-.68-5.29-.15-1.22-.3-2.45-.45-3.72-1.84-15.92-3.26-34.84-1.73-47.61a58.24,58.24,0,0,0,.37-6.76h0c0-11.5-2.44-27-5.38-41.44a.56.56,0,0,0,0-.12c-3-14.86-6.58-28.58-8.5-35.69-.86-3.22-1.39-5.08-1.39-5.08l1.61-.05h0l12.74-.4,34.73-1.08,2.14-.06,1.73-.06S496.26,616.63,496.15,622.75Z"/><path class="cls-3" d="M460.2,514.32l8.61,6.12,12.44-2.51c-.18-1.09-1-5.6-1.74-9.69-.05-.24-.1-.48-.14-.71l-1.19-6.47-11.62-5.55-4.33-2.07c0,.07.34,3.85.38,4.41A34.27,34.27,0,0,1,460.2,514.32Z"/><path class="cls-4" d="M480.38,511.24c-.28-.11-16.92-4.83-18.73-4.25s-2.88,3.93-2.88,3.93l25.7,7S483.85,512.64,480.38,511.24Z"/><path class="cls-8" d="M435.55,618.41c2.82,12.35,61.65-26.4,60.86-33.94-.08-.83-.17-1.66-.26-2.49-1.08-10.5-2.12-20.76-2.2-27.47a90.5,90.5,0,0,0-2-17.15c-1-5-2.28-9.51-3.37-13a14.33,14.33,0,0,0-4.11-6.39,15,15,0,0,0-4.69-2.87c-.48-.19-1-.35-1.46-.49-7.09-2-16.89-4.41-19.55-3.66-7.2,2-12.55,14.19-16.33,29.69C435.35,569.62,433.71,610.36,435.55,618.41Z"/><path class="cls-9" d="M463.48,498c2.56,4.68,12.06,8.73,16,10.22-.05-.24-.1-.48-.14-.71l-1.19-6.47-11.62-5.55C464,495.47,462.43,496.09,463.48,498Z"/><path class="cls-3" d="M483.82,500.41s-20.95,6.27-24.82-6.31-9.18-20.25,4-24.78,17.31-.48,19.66,3.42S489.18,498.45,483.82,500.41Z"/><path class="cls-10" d="M481.87,471.53s-1.34,14.64-4.49,14-6-1.1-5.56,3.31,4.84,9.51-4.89,10.29-23.7-23.28-21-27.84C453.61,458.14,493,455.49,481.87,471.53Z"/><path class="cls-4" d="M494.64,613.19c-5.83,2,.1-5.55,0-7.13-.46-6.95,2.38-15.72,1.51-24.08l-35.58-20.41S452.13,612.87,494.64,613.19Z"/><path class="cls-7" d="M435.55,618.41c15.19,27,17.61,37.32,17.61,37.32,13.22-1.44,35.87-26.38,43.06-33,0,0,1-30.68.19-38.22l-11-.31s-19.85,4.83-25-1.72-2.92-38.7-2.92-38.7l-15.08-3.13C435.35,569.62,431.48,611.16,435.55,618.41Z"/><path class="cls-3" d="M525.68,566.65s7.23-4.7,8.6-5.11,5.87-.85,6.08-.51.82,1.38,0,1.73-1.77.23-1.47.48,3.25-1.1,3.93.34,1.28,6.4-2.19,7.9-12,.15-12.64.32C522.79,573.26,525.68,566.65,525.68,566.65Z"/><path class="cls-11" d="M525.75,565.38s-35.29,5.75-38.42,4.29c-5-2.33,1.94-36.68,1.94-36.68s.29-7.79-9.18-9.63c-8.24-1.59-16.19,4.33-16.19,4.33s-7.22,6.2-6.3,13.08c2,15.26,5.23,46.29,15.86,51.05,13.72,6.13,53.41-17,53.41-17a6.49,6.49,0,0,0,1.14-4.43A10.16,10.16,0,0,0,525.75,565.38Z"/><path class="cls-12" d="M454.6,543.13l2.92.61s6.18-25.67,27-25.8a15,15,0,0,0-4.69-2.87C472.17,517,459,523.27,454.6,543.13Z"/><g class="cls-13"><path class="cls-14" d="M435.6,749.29c-.44,1.28-.85,2.5-1.23,3.68a86.38,86.38,0,0,1-20.68-2.76c-1.18-.29-2.27-.59-3.25-.87.19-1.2.39-2.42.6-3.65A85.08,85.08,0,0,0,435.6,749.29Z"/></g><g class="cls-13"><path class="cls-14" d="M432.7,758.34c-.38,1.28-.72,2.49-1,3.64a88.45,88.45,0,0,1-18.79-2.73c-1.39-.35-2.66-.7-3.78-1,.17-1.19.35-2.41.54-3.67A88.08,88.08,0,0,0,432.7,758.34Z"/></g><path class="cls-3" d="M546.76,504.83A23.44,23.44,0,0,1,548,500c.86-2,2-4.58,2.18-3.26s-.62,3.57,0,4.66S546.76,504.83,546.76,504.83Z"/><path class="cls-14" d="M484.46,750.7c-.08,1.31-.16,2.57-.22,3.79a88.25,88.25,0,0,1-19.55,1.08c-1.62-.08-3.08-.19-4.34-.3-.15-1.22-.3-2.45-.45-3.72A88.37,88.37,0,0,0,484.46,750.7Z"/><path class="cls-14" d="M484,760c0,1.3-.09,2.55-.11,3.73a90.2,90.2,0,0,1-18,.83c-1.6-.08-3-.18-4.29-.29-.18-1.2-.34-2.44-.51-3.73A90.92,90.92,0,0,0,484,760Z"/><path class="cls-15" d="M508.29,466.36s29.08,23.46,32,22,3.49-5.18,3.49-5.18c6.08,1.17,11.13,9,13.4,13.14.82,1.5,1.28,2.51,1.28,2.51a4.26,4.26,0,0,0,4.27-1.38c-3.19-12-16.23-26.52-29.61-31.45S509.72,465.18,508.29,466.36Z"/><path class="cls-16" d="M505.47,469.18c-2.45,5.21,3.76,13.3,13.87,18.06s20.31,4.39,22.76-.82-3.75-13.3-13.87-18.06S507.93,464,505.47,469.18Z"/><path class="cls-15" d="M521.83,477.83c-.14.29.26.77.89,1.07s1.26.3,1.4,0-.27-.76-.9-1.06S522,477.54,521.83,477.83Z"/><path class="cls-15" d="M529.58,481.48c-.14.29.27.77.9,1.06s1.25.31,1.39,0-.27-.76-.9-1.06S529.72,481.19,529.58,481.48Z"/><path class="cls-15" d="M518,476c-.14.29.26.76.9,1.06s1.25.3,1.39,0-.27-.77-.9-1.07S518.08,475.72,518,476Z"/><path class="cls-15" d="M514.07,474.18c-.13.29.27.77.9,1.07s1.26.3,1.39,0-.26-.76-.9-1.06S514.21,473.89,514.07,474.18Z"/><path class="cls-15" d="M509.05,471.82c-.14.29.27.76.9,1.06s1.25.31,1.39,0-.27-.77-.9-1.06S509.19,471.53,509.05,471.82Z"/><path class="cls-15" d="M525.7,479.66c-.13.29.27.76.9,1.06s1.26.3,1.39,0-.26-.77-.9-1.07S525.84,479.37,525.7,479.66Z"/><path class="cls-15" d="M534.34,483.72c-.13.29.27.77.9,1.07s1.26.3,1.39,0-.26-.76-.89-1.06S534.48,483.44,534.34,483.72Z"/><path class="cls-15" d="M522.92,475.5c-.13.29.27.76.9,1.06s1.26.31,1.39,0-.26-.77-.9-1.06S523.06,475.21,522.92,475.5Z"/><path class="cls-15" d="M530.68,479.15c-.14.29.26.76.9,1.06s1.25.31,1.39,0-.27-.77-.9-1.06S530.81,478.86,530.68,479.15Z"/><path class="cls-15" d="M534.71,480.64c-.14.29.27.77.9,1.07s1.25.3,1.39,0-.27-.76-.9-1.06S534.85,480.35,534.71,480.64Z"/><path class="cls-15" d="M512.14,470c-.14.29.27.77.9,1.06s1.25.31,1.39,0-.27-.77-.9-1.06S512.28,469.73,512.14,470Z"/><path class="cls-15" d="M532.12,477c-.14.29.26.77.9,1.07s1.25.3,1.39,0-.27-.76-.9-1.06S532.25,476.7,532.12,477Z"/><path class="cls-15" d="M519.05,473.68c-.14.28.26.76.9,1.06s1.25.3,1.39,0-.27-.76-.9-1.06S519.18,473.39,519.05,473.68Z"/><path class="cls-15" d="M515.17,471.85c-.14.29.27.77.9,1.06s1.25.31,1.39,0-.27-.77-.9-1.06S515.31,471.56,515.17,471.85Z"/><path class="cls-15" d="M526.8,477.33c-.14.28.27.76.9,1.06s1.25.3,1.39,0-.27-.76-.9-1.06S526.94,477,526.8,477.33Z"/><path class="cls-15" d="M520.85,479.91c-.14.29.26.77.9,1.06s1.25.31,1.39,0-.27-.77-.9-1.06S521,479.62,520.85,479.91Z"/><path class="cls-15" d="M528.6,483.56c-.13.29.27.77.9,1.06s1.25.31,1.39,0-.27-.77-.9-1.06S528.74,483.27,528.6,483.56Z"/><path class="cls-15" d="M531.3,486.11c-.13.29.27.77.9,1.06s1.26.31,1.39,0-.26-.77-.89-1.06S531.44,485.82,531.3,486.11Z"/><path class="cls-15" d="M517,478.09c-.14.29.27.76.9,1.06s1.25.3,1.39,0-.27-.76-.9-1.06S517.11,477.8,517,478.09Z"/><path class="cls-15" d="M513.09,476.26c-.13.29.27.77.9,1.06s1.26.31,1.39,0-.26-.77-.89-1.06S513.23,476,513.09,476.26Z"/><path class="cls-15" d="M509.91,474.76c-.14.29.27.77.9,1.07s1.25.3,1.39,0-.27-.76-.9-1.06S510.05,474.47,509.91,474.76Z"/><path class="cls-15" d="M512,478.59c-.14.29.26.77.89,1.07s1.26.3,1.4,0-.27-.76-.9-1.06S512.13,478.31,512,478.59Z"/><path class="cls-15" d="M524.72,481.74c-.13.29.27.76.9,1.06s1.26.3,1.39,0-.26-.76-.89-1.06S524.86,481.45,524.72,481.74Z"/><path class="cls-15" d="M519.75,482.24c-.14.29.27.77.9,1.07s1.25.3,1.39,0-.27-.76-.9-1.06S519.89,482,519.75,482.24Z"/><path class="cls-15" d="M525.17,470.72c-.13.29.27.76.9,1.06s1.26.31,1.39,0-.26-.77-.89-1.07S525.31,470.43,525.17,470.72Z"/><path class="cls-15" d="M518.61,484.67c-.14.29.26.77.9,1.06s1.25.31,1.39,0-.27-.76-.9-1.06S518.74,484.38,518.61,484.67Z"/><path class="cls-15" d="M515.87,480.42c-.13.29.27.76.9,1.06s1.26.31,1.39,0-.26-.77-.9-1.07S516,480.13,515.87,480.42Z"/><path class="cls-15" d="M523.63,484.07c-.14.29.26.76.9,1.06s1.25.31,1.39,0-.27-.77-.9-1.07S523.76,483.78,523.63,484.07Z"/><path class="cls-15" d="M527.14,485.72c-.14.29.27.77.9,1.06s1.25.31,1.39,0-.27-.76-.9-1.06S527.28,485.43,527.14,485.72Z"/><path class="cls-15" d="M524,473.17c-.14.29.27.77.9,1.07s1.25.3,1.39,0-.27-.76-.9-1.06S524.15,472.88,524,473.17Z"/><path class="cls-15" d="M520.14,471.35c-.13.29.27.76.9,1.06s1.26.3,1.39,0-.26-.77-.9-1.07S520.28,471.06,520.14,471.35Z"/><path class="cls-15" d="M521.05,469.42c-.14.29.27.76.9,1.06s1.25.3,1.39,0-.27-.77-.9-1.07S521.19,469.13,521.05,469.42Z"/><path class="cls-15" d="M515,482.32c-.14.29.26.77.89,1.07s1.26.3,1.4,0-.27-.76-.9-1.06S515.11,482,515,482.32Z"/><path class="cls-15" d="M522.35,485.8c-.13.28.27.76.9,1.06s1.26.3,1.39,0-.26-.76-.9-1.06S522.49,485.51,522.35,485.8Z"/><path class="cls-15" d="M528.8,473.07c-.13.29.27.76.9,1.06s1.26.3,1.39,0-.26-.76-.89-1.06S528.94,472.78,528.8,473.07Z"/><path class="cls-15" d="M516.26,469.52c-.13.29.27.77.9,1.07s1.26.3,1.39,0-.26-.76-.89-1.06S516.4,469.23,516.26,469.52Z"/><path class="cls-15" d="M527.9,475c-.14.29.26.76.89,1.06s1.26.3,1.4,0-.27-.77-.9-1.07S528,474.71,527.9,475Z"/><path class="cls-17" d="M588.61,454.36h6a0,0,0,0,1,0,0V791.47a1.76,1.76,0,0,1-1.76,1.76h-2.33a1.92,1.92,0,0,1-1.92-1.92v-337A0,0,0,0,1,588.61,454.36Z" transform="translate(1183.23 1247.59) rotate(-180)"/><path class="cls-15" d="M588.43,587.68l.35-4.11a17.58,17.58,0,0,1-9.76-3.18c-9.47-6.54-15.14-22.64-16.39-46.55a224.37,224.37,0,0,1,1.1-35l-6.74-.32c-.34,2.74-8.15,67.24,17,84.59A26.44,26.44,0,0,0,588.43,587.68Z"/><path class="cls-17" d="M533.06,656.48h54.25a4.29,4.29,0,0,0,4.3-4.3h0a4.3,4.3,0,0,0-4.3-4.3H533.06a4.31,4.31,0,0,0-4.3,4.3h0A4.3,4.3,0,0,0,533.06,656.48Z"/><path class="cls-17" d="M553,502.79h38a3.64,3.64,0,0,0,3.63-3.63h0a3.63,3.63,0,0,0-3.63-3.62H553a3.63,3.63,0,0,0-3.62,3.62h0A3.63,3.63,0,0,0,553,502.79Z"/><polygon class="cls-8" points="535.15 592.78 538.45 639.2 551.93 639.2 554.62 592.78 535.15 592.78"/><rect class="cls-14" x="538.45" y="639.2" width="13.49" height="8.68"/><rect class="cls-4" x="535.15" y="589.88" width="19.47" height="2.9"/><path class="cls-14" d="M539.49,608.65a2.85,2.85,0,1,1,2.85,2.85A2.85,2.85,0,0,1,539.49,608.65Z"/><path class="cls-14" d="M543.29,615.56a3.53,3.53,0,1,1,3.52,3.52A3.52,3.52,0,0,1,543.29,615.56Z"/><path class="cls-14" d="M546.55,609.72a1.78,1.78,0,1,1,1.78,1.78A1.78,1.78,0,0,1,546.55,609.72Z"/><path class="cls-4" d="M547.17,609.1a.61.61,0,0,1,.61-.61.61.61,0,0,1,.62.61.62.62,0,0,1-.62.62A.61.61,0,0,1,547.17,609.1Z"/><path class="cls-4" d="M547.29,616.92A1.11,1.11,0,1,1,548.4,618,1.11,1.11,0,0,1,547.29,616.92Z"/><path class="cls-4" d="M540.15,609.56a1.2,1.2,0,1,1,1.2,1.2A1.19,1.19,0,0,1,540.15,609.56Z"/><polygon class="cls-8" points="559.71 606.4 563 639.2 576.49 639.2 579.18 606.4 559.71 606.4"/><rect class="cls-14" x="563" y="639.2" width="13.49" height="8.68"/><rect class="cls-4" x="559.71" y="604.36" width="19.47" height="2.05"/><path class="cls-14" d="M564.05,615.29a2.85,2.85,0,1,1,2.85,2.85A2.85,2.85,0,0,1,564.05,615.29Z"/><path class="cls-14" d="M567.85,622.2a3.52,3.52,0,1,1,3.52,3.52A3.52,3.52,0,0,1,567.85,622.2Z"/><path class="cls-14" d="M571.11,616.36a1.78,1.78,0,1,1,1.78,1.78A1.77,1.77,0,0,1,571.11,616.36Z"/><path class="cls-4" d="M571.72,615.74a.61.61,0,0,1,.62-.61.61.61,0,0,1,.61.61.61.61,0,0,1-.61.62A.62.62,0,0,1,571.72,615.74Z"/><path class="cls-4" d="M571.85,623.56a1.11,1.11,0,1,1,1.1,1.11A1.11,1.11,0,0,1,571.85,623.56Z"/><path class="cls-4" d="M564.71,616.2a1.2,1.2,0,1,1,1.19,1.2A1.19,1.19,0,0,1,564.71,616.2Z"/><path class="cls-18" d="M543.81,483.16c6.08,1.17,11.13,9,13.4,13.14-.28-5.12-10-16.77-12.57-15.85S543.81,483.16,543.81,483.16Z"/><polygon class="cls-19" points="553.17 824.07 562.65 841.89 567.53 841.89 563.75 824.07 553.17 824.07"/><polygon class="cls-19" points="351.19 824.07 341.72 841.89 336.83 841.89 340.62 824.07 351.19 824.07"/><path class="cls-20" d="M248.74,699.06l23.6,64.59a100.55,100.55,0,0,0,94.44,66h170a77.37,77.37,0,0,0,75.62-61l9.38-43.28a566.35,566.35,0,0,1-71.63,6.36C407.59,736.13,248.74,699.06,248.74,699.06Z"/><path class="cls-17" d="M452,829.69H536.8a77.37,77.37,0,0,0,75.62-61l9.38-43.28a566.35,566.35,0,0,1-71.63,6.36C551.18,747.7,549.89,817,452,829.69Z"/><path class="cls-19" d="M509.56,734.83c19.69,0,37.39-.59,52.09-1.36,41.28-2.14,68.58-6.13,68.85-6.17a3.92,3.92,0,0,0-1.14-7.76c-.27,0-27.29,4-68.23,6.1-37.75,2-95.4,2.73-155.67-4.7s-101.7-14.82-125.77-19.7c-26.08-5.29-38.05-8.86-38.16-8.9a3.93,3.93,0,0,0-2.27,7.52c.49.15,12.3,3.68,38.66,9,24.23,4.91,65.86,12.35,126.58,19.84A867.45,867.45,0,0,0,509.56,734.83Z"/><path class="cls-20" d="M908.15,568.05v.66c0,12.59,10.66,22.83,23.77,22.83h71.24c7.91,0,14.35,6.18,14.35,13.78v2.17c0,7.6-6.44,13.78-14.35,13.78H924.51a2.9,2.9,0,0,0-2.9,2.9,6.16,6.16,0,0,0,6.15,6.15h75.4c13.11,0,23.77-10.24,23.77-22.83v-2.17c0-12.59-10.66-22.82-23.77-22.82H931.92c-7.91,0-14.35-6.19-14.35-13.79v-.66c0-7.6,6.44-13.78,14.35-13.78h72.57c13.1,0,23.77-10.24,23.77-22.83v-3.06c0-12.58-10.67-22.82-23.77-22.82H931.92c-7.91,0-14.35-6.18-14.35-13.78S924,478,931.92,478H1075q-1.27-4.46-2.92-9H931.92c-13.11,0-23.77,10.24-23.77,22.83s10.66,22.82,23.77,22.82h72.57c7.91,0,14.35,6.19,14.35,13.78v3.06c0,7.61-6.44,13.79-14.35,13.79H931.92C918.81,545.23,908.15,555.47,908.15,568.05Z"/><rect class="cls-20" x="815.96" y="670.53" width="139.44" height="171.65" transform="translate(1771.35 1512.72) rotate(-180)"/><rect class="cls-17" x="815.96" y="696.13" width="139.44" height="2.33" transform="translate(1771.35 1394.59) rotate(-180)"/><path class="cls-17" d="M914.14,674.05H951.2v19.81H914.14Zm36.59.46H914.6v18.88h36.13Z"/><path class="cls-17" d="M894,684a6.64,6.64,0,1,0-6.64,6.64A6.64,6.64,0,0,0,894,684Z"/><path class="cls-17" d="M876,684a5.41,5.41,0,1,0-5.41,5.42A5.41,5.41,0,0,0,876,684Z"/><rect class="cls-17" x="827.04" y="677.59" width="29.68" height="12.73" transform="translate(1683.75 1367.9) rotate(-180)"/><circle class="cls-17" cx="887.33" cy="762.25" r="51.66"/><circle class="cls-19" cx="887.33" cy="762.25" r="41.54" transform="translate(82.22 1610.88) rotate(-87.17)"/><rect class="cls-17" x="840.2" y="755.26" width="15.36" height="18.15" rx="4.7" transform="translate(1695.77 1528.68) rotate(180)"/><rect class="cls-6" y="841.61" width="4280.72" height="1.68" rx="0.84"/><rect class="cls-21" width="4281.57" height="843.3"/></g></g></svg>