<svg id="Layer_1" data-name="Layer 1" xmlns="http://www.w3.org/2000/svg" viewBox="0 0 1048.01 615.36"><defs><style>.cls-1{fill:#dee9f7;}.cls-2{fill:#b1c6e6;}.cls-3{fill:#fab17e;}.cls-4{fill:#751113;}.cls-5{fill:#183660;}.cls-6{fill:#243962;}.cls-7{fill:#447bbf;}.cls-8{fill:#be1e2d;}.cls-9{fill:#f9a56c;}.cls-10{fill:#231f20;}.cls-11{fill:#d63044;}.cls-12{fill:#2b4f97;}.cls-13{opacity:0.5;}.cls-14{fill:#fff;}.cls-15{fill:#9fb6df;}.cls-16{fill:#d6e3f4;}.cls-17{fill:#b2c1e3;}.cls-18{fill:#84a4d5;}.cls-19{fill:#9ab0db;}.cls-20{fill:#c0d1ec;}</style></defs><path class="cls-1" d="M1006.18,615.33c-60,0-979.72.06-979.72,0C-7.23,581.17-17.15,499.62,55.81,420.87,82.54,392,11.63,336.72,57.66,248,75.15,214.26,145,156.3,329.4,201.28c78.4,19.12,144.92-11.42,159.65-22.44a164,164,0,0,1,27.11-16.32c101.48-49.1,276.8-17.83,353.32,41.19,10.85,8.37,60.16,51.65,21.29,111.14-24.54,37.56,78.28,73.44,114.81,116.33C1098.47,540.23,1007,613.91,1006.18,615.33Z"/><rect class="cls-2" x="544.67" y="348.73" width="2.95" height="15.61" transform="translate(989.01 835.35) rotate(-165.9)"/><path class="cls-2" d="M547,343.69v0a2.53,2.53,0,0,0,1.3,2.84c1.48.55,2.48-.41,2.85-1.9,0,0,.09-.38.1-.38.12-.52,1.33-.1,1.5.41a4.25,4.25,0,1,1-8.14.34,4.37,4.37,0,0,1,.93-1.77C546,342.78,547.13,343.06,547,343.69Z"/><path class="cls-2" d="M545.59,369.69h0a2.52,2.52,0,0,0-1.3-2.84c-1.48-.55-2.48.41-2.85,1.89l-.1.39c-.12.52-1.33.09-1.5-.41a4.24,4.24,0,1,1,7.21,1.42C546.64,370.61,545.51,370.32,545.59,369.69Z"/><path class="cls-3" d="M539.11,301.37a51.91,51.91,0,0,1-3.42-4.88c-1.35-2.28-9.62-7.08-10.21-3-.54,3.71,2.14,2.61,3.11,5.53s2.17,4.19,8.25,6.87Z"/><path class="cls-4" d="M537.13,302.82c1.82-2.7,2.36-2.84,2.36-2.84s30,11.47,32.85,12.43S618,315.78,618,315.78L630.9,343s-57-12.48-64.22-15c-11.9-4.23-31-20.83-31-20.83A8.74,8.74,0,0,1,537.13,302.82Z"/><path class="cls-5" d="M611.64,557.46s-.66,10.1-2.61,12.47H579c.19-1,1-3.49,4.8-4.12,4.75-.79,12.71-4,15.59-10C602.37,549.44,611.64,557.46,611.64,557.46Z"/><path class="cls-5" d="M665.11,553.3s1.89,15.32-.68,15.55c-.35,0-12.4,0-15.67.48-5.35.77-14.27.1-14.27.1a1.37,1.37,0,0,1-1.29-2,5.72,5.72,0,0,1,4.09-2.52c4.74-.87,12.63-4.21,15.4-10.29C655.6,548.19,665.11,553.3,665.11,553.3Z"/><path class="cls-6" d="M597.49,423s7.57,25.39,29.24,69.49a312,312,0,0,1,15,35.33c.41,1.19.79,2.33,1.15,3.43.58,1.78,1.09,3.44,1.55,5,.35,1.2.66,2.33.95,3.4,2.85,10.61,2.79,15.44,2.79,15.44a27.42,27.42,0,0,0,10.8,1.21c3-.29,9.57-3,9.57-3s-.71-7.11-2.14-17.16c-.16-1.11-.33-2.25-.5-3.42q-.36-2.35-.75-4.86c-.18-1.12-.37-2.25-.56-3.39-2.52-15-6.26-32.37-11.24-43.21-10.25-22.25-12.33-83.16-12.33-83.16Z"/><path class="cls-7" d="M585.4,410.07a630.62,630.62,0,0,0,6.44,78.71c2.45,16.68,3.77,30,4.44,40.39.08,1.22.15,2.39.21,3.52.1,1.82.18,3.54.24,5.15,0,1.21.09,2.37.11,3.47a129.17,129.17,0,0,1-.31,16.25,8.11,8.11,0,0,0,1.32.58h0a25.91,25.91,0,0,0,8.71,1.29,21.94,21.94,0,0,0,4.95-.56,15.54,15.54,0,0,0,3.66-1.29s1.14-6.43,2.44-15.76c.16-1.12.31-2.28.47-3.48.22-1.58.42-3.22.64-4.92.13-1.14.27-2.29.41-3.46,1.71-14.82,3-32.43,1.61-44.32a52.82,52.82,0,0,1-.34-6.29h0c0-10.7,2.26-25.12,5-38.57l0-.11c2.82-13.83,6.12-26.61,7.9-33.23.81-3,1.3-4.72,1.3-4.72l-1.5,0h0l-11.86-.37-32.33-1-2-.06-1.61-.05S585.3,404.38,585.4,410.07Z"/><path class="cls-3" d="M618.86,309.15l-8,5.69-11.58-2.34c.16-1,.93-5.21,1.62-9,.05-.22.09-.45.13-.67.59-3.23,1.11-6,1.11-6l10.81-5.17,4-1.93c0,.07-.31,3.59-.35,4.1A32,32,0,0,0,618.86,309.15Z"/><path class="cls-4" d="M600.08,306.28c.26-.1,15.75-4.49,17.43-4s2.68,3.66,2.68,3.66l-23.92,6.54S596.85,307.59,600.08,306.28Z"/><path class="cls-8" d="M641.8,406c-2.62,11.49-57.37-24.58-56.64-31.59l.24-2.32c1-9.77,2-19.32,2-25.56a84.87,84.87,0,0,1,1.87-16c1-4.64,2.12-8.85,3.14-12.13a13.27,13.27,0,0,1,3.82-5.94,13.85,13.85,0,0,1,4.37-2.67,12.79,12.79,0,0,1,1.36-.46c6.59-1.83,15.72-4.11,18.19-3.41,6.7,1.89,11.68,13.21,15.21,27.63C642,360.62,643.52,398.54,641.8,406Z"/><path class="cls-9" d="M615.81,294c-2.38,4.36-11.23,8.13-14.92,9.52.05-.22.09-.45.13-.67.59-3.23,1.11-6,1.11-6l10.81-5.17C615.33,291.6,616.78,292.18,615.81,294Z"/><path class="cls-3" d="M596.87,296.2S616.38,302,620,290.33s8.55-18.85-3.75-23.07-16.11-.44-18.3,3.18S591.89,294.38,596.87,296.2Z"/><path class="cls-10" d="M598.69,269.32s1.25,13.62,4.18,13,5.6-1,5.17,3.08-4.5,8.85,4.55,9.58,22.07-21.67,19.58-25.92C625,256.86,588.32,254.39,598.69,269.32Z"/><path class="cls-4" d="M586.81,401.18c5.42,1.88-.1-5.18,0-6.65.42-6.46-2.22-14.63-1.41-22.41l33.11-19S626.37,400.87,586.81,401.18Z"/><path class="cls-7" d="M641.8,406c-14.13,25.14-16.39,34.74-16.39,34.74-12.3-1.34-33.39-24.56-40.07-30.75,0,0-.91-28.57-.18-35.58l10.22-.28s18.47,4.49,23.26-1.61,2.72-36,2.72-36l14-2.92C642,360.62,645.6,399.28,641.8,406Z"/><path class="cls-3" d="M557.92,357.85s-6.73-4.37-8-4.75-5.46-.79-5.66-.47-.76,1.28,0,1.61,1.64.21,1.36.44-3-1-3.65.32-1.2,6,2,7.35,11.2.14,11.77.3C560.6,364,557.92,357.85,557.92,357.85Z"/><path class="cls-11" d="M557.85,356.67s32.85,5.36,35.76,4c4.64-2.17-1.8-34.15-1.8-34.15s-.28-7.25,8.54-9c7.67-1.48,15.07,4,15.07,4s6.72,5.77,5.86,12.18c-1.9,14.2-4.87,43.08-14.76,47.51-12.77,5.71-49.71-15.83-49.71-15.83a6.05,6.05,0,0,1-1.06-4.13A9.44,9.44,0,0,1,557.85,356.67Z"/><path class="cls-12" d="M624.08,336l-2.72.57s-5.76-23.9-25.09-24a13.85,13.85,0,0,1,4.37-2.67C607.72,311.67,620,317.48,624.08,336Z"/><g class="cls-13"><path class="cls-14" d="M641.76,527.85c.41,1.19.79,2.33,1.15,3.43a80.19,80.19,0,0,0,19.25-2.57c1.09-.27,2.11-.55,3-.81-.18-1.12-.37-2.25-.56-3.39A79.42,79.42,0,0,1,641.76,527.85Z"/></g><g class="cls-13"><path class="cls-14" d="M644.46,536.27c.35,1.2.66,2.33.95,3.4a83.25,83.25,0,0,0,17.49-2.54c1.31-.33,2.48-.66,3.53-1-.16-1.11-.33-2.25-.5-3.42A82.26,82.26,0,0,1,644.46,536.27Z"/></g><path class="cls-3" d="M538.3,300.31a22.11,22.11,0,0,0-1.17-4.47c-.8-1.88-1.81-4.27-2-3s.58,3.33,0,4.34S538.3,300.31,538.3,300.31Z"/><path class="cls-14" d="M596.28,529.17c.08,1.22.15,2.39.21,3.52a81.67,81.67,0,0,0,18.19,1c1.51-.08,2.87-.17,4.05-.28.13-1.14.27-2.29.41-3.46A82.4,82.4,0,0,1,596.28,529.17Z"/><path class="cls-14" d="M596.73,537.84c0,1.21.09,2.37.11,3.47a83.28,83.28,0,0,0,16.78.77c1.49-.07,2.83-.16,4-.26.16-1.12.31-2.28.47-3.48A84.74,84.74,0,0,1,596.73,537.84Z"/><path class="cls-15" d="M574.1,264.5S547,286.34,544.29,285s-3.25-4.82-3.25-4.82c-5.66,1.09-10.36,8.4-12.47,12.23-.77,1.4-1.19,2.34-1.19,2.34a3.94,3.94,0,0,1-4-1.28c3-11.2,15.1-24.68,27.55-29.27S572.77,263.41,574.1,264.5Z"/><path class="cls-16" d="M576.72,267.13c2.29,4.85-3.49,12.38-12.91,16.81s-18.9,4.09-21.18-.76,3.5-12.38,12.91-16.81S574.44,262.28,576.72,267.13Z"/><path class="cls-15" d="M561.5,275.19c.13.26-.25.71-.83,1s-1.17.29-1.3,0,.25-.71.84-1S561.38,274.92,561.5,275.19Z"/><path class="cls-15" d="M554.28,278.58c.13.27-.24.71-.83,1s-1.17.28-1.3,0,.25-.71.84-1S554.16,278.31,554.28,278.58Z"/><path class="cls-15" d="M565.11,273.49c.13.27-.25.71-.84,1s-1.16.28-1.29,0,.25-.71.84-1S565,273.22,565.11,273.49Z"/><path class="cls-15" d="M568.72,271.79c.13.27-.25.71-.84,1s-1.17.28-1.29,0,.25-.71.83-1S568.59,271.52,568.72,271.79Z"/><path class="cls-15" d="M573.39,269.59c.13.27-.24.71-.83,1s-1.17.28-1.3,0,.25-.71.84-1S573.27,269.32,573.39,269.59Z"/><path class="cls-15" d="M557.89,276.88c.13.27-.24.72-.83,1s-1.17.29-1.3,0,.25-.72.84-1S557.77,276.61,557.89,276.88Z"/><path class="cls-15" d="M549.85,280.67c.13.27-.25.71-.84,1s-1.16.28-1.29,0,.25-.71.84-1S549.72,280.4,549.85,280.67Z"/><path class="cls-15" d="M560.48,273c.13.27-.25.72-.84,1s-1.16.29-1.29,0,.25-.71.84-1S560.35,272.74,560.48,273Z"/><path class="cls-15" d="M553.26,276.41c.13.27-.24.71-.83,1s-1.17.28-1.3,0,.25-.71.84-1S553.14,276.14,553.26,276.41Z"/><path class="cls-15" d="M549.51,277.8c.13.27-.25.71-.84,1s-1.16.28-1.29,0,.25-.71.83-1S549.38,277.53,549.51,277.8Z"/><path class="cls-15" d="M570.52,267.91c.12.27-.25.72-.84,1s-1.17.29-1.29,0,.24-.71.83-1S570.39,267.65,570.52,267.91Z"/><path class="cls-15" d="M551.92,274.4c.13.26-.24.71-.83,1s-1.17.29-1.3,0,.25-.71.84-1S551.8,274.13,551.92,274.4Z"/><path class="cls-15" d="M564.09,271.32c.13.26-.25.71-.84,1s-1.17.29-1.29,0,.25-.71.83-1S564,271.05,564.09,271.32Z"/><path class="cls-15" d="M567.7,269.62c.12.27-.25.71-.84,1s-1.17.28-1.29,0,.24-.71.83-1S567.57,269.35,567.7,269.62Z"/><path class="cls-15" d="M556.87,274.71c.13.27-.25.71-.83,1s-1.17.28-1.3,0,.25-.72.84-1S556.74,274.44,556.87,274.71Z"/><path class="cls-15" d="M562.41,277.12c.13.27-.24.71-.83,1s-1.17.28-1.3,0,.25-.71.84-1S562.29,276.85,562.41,277.12Z"/><path class="cls-15" d="M555.2,280.52c.12.27-.25.71-.84,1s-1.17.28-1.3,0,.25-.71.84-1S555.07,280.25,555.2,280.52Z"/><path class="cls-15" d="M552.68,282.89c.13.27-.25.71-.84,1s-1.17.28-1.29,0,.25-.71.83-1S552.55,282.62,552.68,282.89Z"/><path class="cls-15" d="M566,275.42c.13.27-.25.71-.83,1s-1.17.28-1.3,0,.25-.71.84-1S565.89,275.15,566,275.42Z"/><path class="cls-15" d="M569.63,273.72c.13.27-.25.72-.84,1s-1.17.29-1.29,0,.25-.72.83-1S569.5,273.45,569.63,273.72Z"/><path class="cls-15" d="M572.59,272.33c.13.27-.24.71-.83,1s-1.17.28-1.3,0,.25-.71.84-1S572.47,272.06,572.59,272.33Z"/><path class="cls-15" d="M570.65,275.89c.13.27-.25.72-.83,1s-1.17.29-1.3,0,.25-.71.84-1S570.52,275.62,570.65,275.89Z"/><path class="cls-15" d="M558.8,278.82c.13.27-.24.71-.83,1s-1.17.28-1.3,0,.25-.71.84-1S558.68,278.55,558.8,278.82Z"/><path class="cls-15" d="M563.43,279.29c.13.27-.24.71-.83,1s-1.17.28-1.3,0,.25-.71.84-1S563.31,279,563.43,279.29Z"/><path class="cls-15" d="M558.39,268.56c.12.27-.25.71-.84,1s-1.17.29-1.3,0,.25-.72.84-1S558.26,268.29,558.39,268.56Z"/><path class="cls-15" d="M564.5,281.55c.12.27-.25.71-.84,1s-1.17.28-1.29,0,.24-.71.83-1S564.37,281.28,564.5,281.55Z"/><path class="cls-15" d="M567,277.59c.13.27-.24.71-.83,1s-1.17.29-1.3,0,.25-.72.84-1S566.92,277.32,567,277.59Z"/><path class="cls-15" d="M559.83,281c.12.27-.25.71-.84,1s-1.17.28-1.3,0,.25-.71.84-1S559.7,280.72,559.83,281Z"/><path class="cls-15" d="M556.56,282.53c.12.27-.25.71-.84,1s-1.17.28-1.3,0,.25-.71.84-1S556.43,282.26,556.56,282.53Z"/><path class="cls-15" d="M559.46,270.85c.13.27-.25.71-.84,1s-1.16.28-1.29,0,.25-.71.84-1S559.33,270.58,559.46,270.85Z"/><path class="cls-15" d="M563.07,269.15c.13.27-.25.71-.84,1s-1.17.28-1.29,0,.25-.71.83-1S562.94,268.88,563.07,269.15Z"/><path class="cls-15" d="M562.22,267.35c.13.27-.24.71-.83,1s-1.17.28-1.3,0,.25-.72.84-1S562.1,267.08,562.22,267.35Z"/><path class="cls-15" d="M567.88,279.37c.12.26-.25.71-.84,1s-1.17.29-1.29,0,.24-.71.83-1S567.75,279.1,567.88,279.37Z"/><path class="cls-15" d="M561,282.6c.13.27-.25.71-.83,1s-1.17.28-1.3,0,.25-.71.84-1S560.89,282.33,561,282.6Z"/><path class="cls-15" d="M555,270.75c.12.27-.25.71-.84,1s-1.17.28-1.29,0,.24-.71.83-1S554.88,270.48,555,270.75Z"/><path class="cls-15" d="M566.68,267.45c.12.27-.25.71-.84,1s-1.17.28-1.29,0,.24-.71.83-1S566.55,267.18,566.68,267.45Z"/><path class="cls-15" d="M555.85,272.55c.13.27-.25.71-.83,1s-1.17.28-1.3,0,.25-.71.84-1S555.73,272.28,555.85,272.55Z"/><path class="cls-17" d="M495.67,253.34h1.92a1.76,1.76,0,0,1,1.76,1.76V568.75a0,0,0,0,1,0,0h-5.59a0,0,0,0,1,0,0V255.25A1.92,1.92,0,0,1,495.67,253.34Z"/><path class="cls-15" d="M499.5,377.43l-.32-3.82a16.45,16.45,0,0,0,9.09-3c8.81-6.09,14.09-21.07,15.25-43.32a208.08,208.08,0,0,0-1-32.59l6.27-.3c.32,2.55,7.59,62.59-15.78,78.74A24.62,24.62,0,0,1,499.5,377.43Z"/><path class="cls-17" d="M551.05,441.47h-50.5a4,4,0,0,1-4-4h0a4,4,0,0,1,4-4h50.5a4,4,0,0,1,4,4h0A4,4,0,0,1,551.05,441.47Z"/><path class="cls-17" d="M532.45,298.41H497.12a3.38,3.38,0,0,1-3.37-3.37h0a3.38,3.38,0,0,1,3.37-3.37h35.33a3.38,3.38,0,0,1,3.37,3.37h0A3.38,3.38,0,0,1,532.45,298.41Z"/><polygon class="cls-8" points="549.1 382.18 546.03 425.38 533.48 425.38 530.98 382.18 549.1 382.18"/><rect class="cls-14" x="533.48" y="425.38" width="12.55" height="8.08"/><rect class="cls-4" x="530.98" y="379.48" width="18.12" height="2.69"/><path class="cls-14" d="M545.06,397a2.65,2.65,0,1,0-2.65,2.65A2.65,2.65,0,0,0,545.06,397Z"/><path class="cls-14" d="M541.52,403.38a3.28,3.28,0,1,0-3.27,3.28A3.27,3.27,0,0,0,541.52,403.38Z"/><path class="cls-14" d="M538.49,397.94a1.66,1.66,0,1,0-1.66,1.66A1.65,1.65,0,0,0,538.49,397.94Z"/><path class="cls-4" d="M537.92,397.37a.58.58,0,1,0-.58.57A.57.57,0,0,0,537.92,397.37Z"/><path class="cls-4" d="M537.8,404.65a1,1,0,1,0-1,1A1,1,0,0,0,537.8,404.65Z"/><path class="cls-4" d="M544.45,397.8a1.12,1.12,0,1,0-1.12,1.11A1.11,1.11,0,0,0,544.45,397.8Z"/><polygon class="cls-8" points="526.24 394.86 523.17 425.38 510.62 425.38 508.12 394.86 526.24 394.86"/><rect class="cls-14" x="510.62" y="425.38" width="12.55" height="8.08"/><rect class="cls-4" x="508.12" y="392.95" width="18.12" height="1.9"/><path class="cls-14" d="M522.2,403.13a2.65,2.65,0,1,0-2.65,2.65A2.65,2.65,0,0,0,522.2,403.13Z"/><path class="cls-14" d="M518.67,409.56a3.28,3.28,0,1,0-3.28,3.28A3.28,3.28,0,0,0,518.67,409.56Z"/><path class="cls-14" d="M515.63,404.12a1.66,1.66,0,1,0-1.66,1.66A1.65,1.65,0,0,0,515.63,404.12Z"/><path class="cls-4" d="M515.06,403.55a.58.58,0,1,0-.57.57A.57.57,0,0,0,515.06,403.55Z"/><path class="cls-4" d="M514.94,410.83a1,1,0,1,0-1,1A1,1,0,0,0,514.94,410.83Z"/><path class="cls-4" d="M521.59,404a1.12,1.12,0,1,0-1.12,1.11A1.12,1.12,0,0,0,521.59,404Z"/><path class="cls-18" d="M541,280.14c-5.66,1.09-10.36,8.4-12.47,12.23.26-4.76,9.27-15.6,11.69-14.75S541,280.14,541,280.14Z"/><polygon class="cls-19" points="532.32 597.46 523.5 614.05 518.96 614.05 522.48 597.46 532.32 597.46"/><polygon class="cls-19" points="720.33 597.46 729.14 614.05 733.69 614.05 730.17 597.46 720.33 597.46"/><path class="cls-20" d="M815.69,481.1l-22,60.12a93.6,93.6,0,0,1-87.91,61.47H547.56a72,72,0,0,1-70.38-56.75l-8.74-40.29a529.25,529.25,0,0,0,66.68,5.93C667.84,515.61,815.69,481.1,815.69,481.1Z"/><path class="cls-17" d="M626.54,602.69h-79a72,72,0,0,1-70.38-56.75l-8.74-40.29a529.25,529.25,0,0,0,66.68,5.93C534.18,526.37,535.38,590.88,626.54,602.69Z"/><path class="cls-19" d="M572.91,514.39c-18.32,0-34.79-.55-48.47-1.26-38.43-2-63.84-5.7-64.09-5.74a3.65,3.65,0,0,1,1.06-7.23c.25,0,25.4,3.7,63.51,5.68,35.13,1.82,88.79,2.54,144.89-4.38s94.66-13.79,117.07-18.33c24.27-4.92,35.41-8.25,35.52-8.28a3.65,3.65,0,1,1,2.11,7c-.46.14-11.45,3.43-36,8.41-22.56,4.57-61.3,11.49-117.82,18.47A807.56,807.56,0,0,1,572.91,514.39Z"/><path class="cls-20" d="M201.92,359.16v.61c0,11.72-9.93,21.25-22.13,21.25H113.48c-7.36,0-13.36,5.75-13.36,12.82v2a13.13,13.13,0,0,0,13.36,12.83h73.21a2.69,2.69,0,0,1,2.7,2.69,5.74,5.74,0,0,1-5.73,5.73H113.48c-12.2,0-22.13-9.53-22.13-21.25v-2c0-11.71,9.93-21.24,22.13-21.24h66.31a13.11,13.11,0,0,0,13.36-12.83v-.61a13.12,13.12,0,0,0-13.36-12.83H112.25c-12.2,0-22.13-9.53-22.13-21.25v-2.84c0-11.72,9.93-21.25,22.13-21.25h67.54a12.84,12.84,0,1,0,0-25.66H46.63c.8-2.76,1.7-5.57,2.72-8.41H179.79c12.2,0,22.13,9.53,22.13,21.25s-9.93,21.24-22.13,21.24H112.25a13.11,13.11,0,0,0-13.36,12.83v2.84a13.12,13.12,0,0,0,13.36,12.84h67.54C192,337.92,201.92,347.45,201.92,359.16Z"/><rect class="cls-20" x="157.94" y="454.55" width="129.79" height="159.77"/><rect class="cls-17" x="157.94" y="478.37" width="129.79" height="2.17"/><path class="cls-17" d="M196.34,476.26H161.85V457.82h34.49Zm-34.06-.44h33.63V458.25H162.28Z"/><path class="cls-17" d="M215.11,467a6.19,6.19,0,1,1,6.19,6.18A6.18,6.18,0,0,1,215.11,467Z"/><path class="cls-17" d="M231.82,467a5,5,0,1,1,5,5A5,5,0,0,1,231.82,467Z"/><rect class="cls-17" x="249.79" y="461.11" width="27.63" height="11.85"/><circle class="cls-17" cx="221.3" cy="539.91" r="48.09"/><circle class="cls-19" cx="221.3" cy="539.91" r="38.67" transform="matrix(1, -0.05, 0.05, 1, -26.38, 11.58)"/><rect class="cls-17" x="250.86" y="533.41" width="14.3" height="16.9" rx="4.7"/><rect class="cls-6" y="613.67" width="1048.01" height="1.68" rx="0.84"/></svg>