<svg id="Layer_1" data-name="Layer 1" xmlns="http://www.w3.org/2000/svg" viewBox="0 0 1048.01 615.36"><defs><style>.cls-1{fill:#dee9f7;}.cls-2{fill:#c0d1ec;}.cls-3{fill:#9fb6df;}.cls-4{fill:#447bbf;}.cls-5{fill:#be1e2d;}.cls-6{fill:#fff;}.cls-7{fill:#b2c1e3;}.cls-8{fill:#9ab0db;}.cls-9{fill:#fab17e;}.cls-10{fill:#751113;}.cls-11{fill:#35498c;}.cls-12{fill:#7988c3;}.cls-13{fill:#a8c3e6;}.cls-14{fill:#2e3b65;}.cls-15{fill:#ee985e;}.cls-16{fill:#231f20;}.cls-17{fill:#d63044;}.cls-18{fill:#919bce;}.cls-19{fill:#243962;}</style></defs><path class="cls-1" d="M41.83,615.33c60,0,979.72.06,979.72,0,33.69-34.16,43.62-115.71-29.35-194.46C965.47,392,1036.38,336.72,990.35,248c-17.49-33.72-87.36-91.68-271.74-46.7C640.22,220.4,573.69,189.86,559,178.84a163.58,163.58,0,0,0-27.11-16.32c-101.47-49.1-276.8-17.83-353.32,41.19-10.85,8.37-60.16,51.65-21.29,111.14C181.78,352.41,79,388.29,42.43,431.18-50.46,540.23,41,613.91,41.83,615.33Z"/><path class="cls-2" d="M846.09,359.16v.61c0,11.72,9.93,21.25,22.13,21.25h66.31a13.11,13.11,0,0,1,13.36,12.82v2a13.12,13.12,0,0,1-13.36,12.83H861.32a2.69,2.69,0,0,0-2.69,2.69,5.72,5.72,0,0,0,5.72,5.73h70.18c12.2,0,22.13-9.53,22.13-21.25v-2c0-11.71-9.93-21.24-22.13-21.24H868.22a13.12,13.12,0,0,1-13.36-12.83v-.61a13.13,13.13,0,0,1,13.36-12.83h67.54c12.2,0,22.13-9.53,22.13-21.25v-2.84c0-11.72-9.93-21.25-22.13-21.25H868.22c-7.36,0-13.36-5.75-13.36-12.82a13.13,13.13,0,0,1,13.36-12.84h133.16c-.8-2.76-1.7-5.57-2.72-8.41H868.22c-12.2,0-22.13,9.53-22.13,21.25s9.93,21.24,22.13,21.24h67.54a13.11,13.11,0,0,1,13.36,12.83v2.84a13.12,13.12,0,0,1-13.36,12.84H868.22C856,337.92,846.09,347.45,846.09,359.16Z"/><rect class="cls-3" x="334.77" y="269.44" width="113.36" height="2.55" transform="translate(782.9 541.42) rotate(-180)"/><path class="cls-3" d="M449.44,270.34a2.69,2.69,0,1,0-2.69,2.69A2.68,2.68,0,0,0,449.44,270.34Z"/><path class="cls-3" d="M338.24,270.34a2.69,2.69,0,1,0-2.69,2.69A2.69,2.69,0,0,0,338.24,270.34Z"/><path class="cls-4" d="M345.78,269.51v87.65c8.71,1.48,31.42.21,44.37,1.69s42.33-.51,42.33-.51V269.91a2.64,2.64,0,0,0-2.63-2.63l-81.72-.12A2.35,2.35,0,0,0,345.78,269.51Z"/><path class="cls-5" d="M345.78,323v34.14c8.71,1.48,31.42.21,44.37,1.69s42.33-.51,42.33-.51V325.49c-.2-1.17-.32-1.85-.32-1.85a297.47,297.47,0,0,1-35.64.4C379.83,323,359.79,325.71,345.78,323Z"/><path class="cls-6" d="M416.58,343.08c7.09,0,15.39-.34,15.85-.36l-.09-2.12c-.15,0-15.31.63-22.18.21l-1.61-.1c-8.32-.51-25.64-1.58-32.87-.38-7.43,1.24-30.37-.28-30.6-.29l-.15,2.11c1,.07,23.43,1.55,31.1.27,7-1.16,24.79-.06,32.38.41l1.63.1C411.83,343,414.13,343.08,416.58,343.08Z"/><path class="cls-6" d="M416.58,347.75c7.09,0,15.39-.34,15.85-.36l-.09-2.12c-.15,0-15.31.63-22.18.21l-1.61-.1c-8.32-.51-25.64-1.58-32.87-.38-7.43,1.24-30.37-.28-30.6-.29l-.15,2.11c1,.07,23.42,1.55,31.1.27,7-1.16,24.79-.06,32.38.41l1.63.1C411.83,347.71,414.13,347.75,416.58,347.75Z"/><rect class="cls-3" x="480.58" y="246.4" width="105.04" height="133.77" transform="translate(1066.19 626.56) rotate(-180)"/><rect class="cls-2" x="484.83" y="250.58" width="96.52" height="125.91" transform="translate(1066.19 627.08) rotate(-180)"/><rect class="cls-2" x="781.2" y="454.55" width="129.79" height="159.77" transform="translate(1692.19 1068.87) rotate(-180)"/><rect class="cls-7" x="781.2" y="478.37" width="129.79" height="2.17" transform="translate(1692.19 958.91) rotate(-180)"/><path class="cls-7" d="M872.58,457.82h34.5v18.44h-34.5Zm34.07.43H873v17.57h33.63Z"/><path class="cls-7" d="M853.82,467a6.19,6.19,0,1,0-6.19,6.18A6.18,6.18,0,0,0,853.82,467Z"/><path class="cls-7" d="M837.11,467a5,5,0,1,0-5,5A5,5,0,0,0,837.11,467Z"/><rect class="cls-7" x="791.51" y="461.11" width="27.63" height="11.85" transform="translate(1610.65 934.07) rotate(-180)"/><circle class="cls-7" cx="847.63" cy="539.91" r="48.09"/><circle class="cls-8" cx="847.63" cy="539.91" r="38.67" transform="translate(266.55 1359.87) rotate(-87.17)"/><rect class="cls-7" x="803.77" y="533.41" width="14.3" height="16.9" rx="4.7" transform="translate(1621.83 1083.72) rotate(180)"/><rect class="cls-2" x="455.42" y="452.38" width="144.1" height="161.66" transform="translate(1054.95 1066.43) rotate(-180)"/><rect class="cls-7" x="455.42" y="501.98" width="144.1" height="1.91" transform="translate(1054.95 1005.87) rotate(-180)"/><rect class="cls-7" x="513.41" y="457.91" width="26.13" height="3.2" rx="1.05" transform="translate(1052.95 919.02) rotate(-180)"/><rect class="cls-7" x="455.42" y="560.65" width="144.1" height="1.91" transform="translate(1054.95 1123.2) rotate(-180)"/><rect class="cls-7" x="513.41" y="507.84" width="26.13" height="3.2" rx="1.05" transform="translate(1052.95 1018.89) rotate(180)"/><rect class="cls-7" x="513.41" y="569.13" width="26.13" height="3.2" rx="1.05" transform="translate(1052.95 1141.46) rotate(-180)"/><rect class="cls-8" x="447.47" y="443.96" width="161.03" height="10.59" transform="translate(1055.97 898.5) rotate(-180)"/><path class="cls-8" d="M535,420.87h0a3.23,3.23,0,0,0,3.22-3.22V388.37a3.23,3.23,0,0,0-3.22-3.22h0a3.22,3.22,0,0,0-3.21,3.22v29.28A3.22,3.22,0,0,0,535,420.87Z"/><path class="cls-9" d="M552.1,404.88s-7.78-2.92-10.4-1.14.81,7.29,2.89,7.65,8.14-.54,8.14-.54Z"/><path class="cls-10" d="M550.85,408.6c-1.23-3.32-.2-5-.2-5s28.63-5.55,31.3-7.32S608.77,361,608.77,361l38,3.53s-47.35,39.77-54.2,44.14c-11.31,7.22-38.67,3.1-38.67,3.1A5,5,0,0,1,550.85,408.6Z"/><rect class="cls-11" x="542.94" y="398.58" width="3.44" height="18.23" transform="translate(-134.94 439.68) rotate(-39.51)"/><path class="cls-11" d="M537.26,394.6v0c.74,1.16,1,2.65.06,3.64-1.28,1.33-2.82.81-4-.57l-.29-.35c-.4-.49-1.45.56-1.38,1.18a5,5,0,1,0,6.89-5.11C537.91,393.12,536.86,394,537.26,394.6Z"/><path class="cls-11" d="M551.83,421.3h0c-.74-1.17-1-2.66-.06-3.65,1.29-1.32,2.82-.81,4,.57,0,0,.29.35.29.36.4.48,1.45-.57,1.38-1.19a5,5,0,1,0-6.89,5.11C551.19,422.79,552.23,421.92,551.83,421.3Z"/><path class="cls-9" d="M541.7,403.74s4.52-.14,4.67,2.1.5,5.69-1.78,5.55S535.94,406.12,541.7,403.74Z"/><path class="cls-12" d="M525.87,408.19s-28.56-26-39.61-11.44c-2.89,3.8,3.38,8.31,7.88,9C502.19,407,515.51,402.84,525.87,408.19Z"/><path class="cls-2" d="M480.06,420.87c0,9.9,10.7,18.53,26.56,23.12h52.15c15.87-4.59,26.56-13.22,26.56-23.12Z"/><path class="cls-13" d="M477.46,420.87H587.93a2.32,2.32,0,0,0,2.32-2.32h0a2.32,2.32,0,0,0-2.32-2.31H477.46a2.32,2.32,0,0,0-2.31,2.31h0A2.32,2.32,0,0,0,477.46,420.87Z"/><path class="cls-12" d="M513.89,425.52s-1.92,10.78,3.34,13.71,9.42-3.3,4.81-6.11S515.58,430.43,513.89,425.52Z"/><path class="cls-12" d="M513.5,416.24s-14.53,1.93-20.24,12.81-10.24,26.13,1.43,28.47,17.07-3.61,13.45-17.3C503,420.87,513.5,416.24,513.5,416.24Z"/><path class="cls-14" d="M722.14,590.34s5.11,4.74,4.11,8.11-5.61,5.61-6.23,9.72-3.12,6.36-5.36,6.36H704s-1.65-2.89,2.34-3.77,5.5-5.7,5.25-10.19a80.67,80.67,0,0,1,.37-10.48l8.48-2Z"/><path class="cls-14" d="M659.41,602.45s1.19,10.79-1,11.91h-29s0-3.43,4.56-4.17,12.72-3.5,14.09-9.61S659.41,602.45,659.41,602.45Z"/><path class="cls-4" d="M635.16,449.2s1.51,18.9,3.29,41.63c2.42,30.86,5.33,68.78,5.62,76,.5,12.48,2.5,32.43,2.5,32.43S651.3,604,660.78,602c0,0,8.45-28.48,10.86-58.62l.12-1.48c2.24-30.68,5.73-95.28,5.73-95.28Z"/><path class="cls-14" d="M635.16,449.2s1.51,18.9,3.29,41.63l33.19,52.51.12-1.48c2.24-30.68,5.73-95.28,5.73-95.28Z"/><path class="cls-4" d="M642.08,451.44s1.4,3.52,3.78,9.33c5.55,13.56,16.4,39.6,27.15,62.67,5,10.7,9.94,20.76,14.33,28.64,18,32.18,23.58,41.15,23.58,41.15l.69-.28c1.86-.79,7-3.07,9.38-5.16a3.89,3.89,0,0,0,1.15-1.48s-6.87-62.11-18.9-77.25c-6.79-8.56-14.77-34.24-15.15-43.21-.16-4-.66-9.62-1.16-14.73-.44-4.6-.9-8.75-1.13-10.75l-.14-1.27L654.13,448Z"/><path class="cls-14" d="M648.5,460.24A127.15,127.15,0,0,0,677,456c4.86-1.19,8.08-3.69,9.95-4.84-.44-4.6-.9-8.75-1.13-10.75l-12.68,6.48Z"/><path class="cls-9" d="M630.05,343.66s-11.15,19.61-22,22.16a32.61,32.61,0,0,1,2.09-9,4,4,0,0,0-.62-4c-.44-.54-.85-1.06-1.23-1.55a67,67,0,0,1-4-5.66l3.7-9.94,2.51-6.74a32,32,0,0,0,3.92,5.65C621.47,342.73,630.05,343.66,630.05,343.66Z"/><path class="cls-15" d="M614.33,334.53s1.33,9.82-6.08,16.69a67,67,0,0,1-4-5.66l3.7-9.94A20.9,20.9,0,0,1,614.33,334.53Z"/><path class="cls-9" d="M601.27,347s16.65-6.49,12.45-16.8-4.89-18.08-15.69-14.38-11.26,8.48-10.7,12.26S596.83,348.43,601.27,347Z"/><path class="cls-5" d="M610.79,390.65a102.52,102.52,0,0,0,7,15.65c.55,1,1.08,2,1.58,3,.34.65.67,1.3,1,1.94a103.61,103.61,0,0,1,10.09,31.21c.23,1.6.41,3.12.53,4.55.55,6.12,57.77-13.8,55.93-22.36C685.64,419,684,413,682.42,408c-2.27-7.39-4.3-12.9-4.3-12.9-10.7-25.47-25.89-39.19-37.73-46.43-2.14-1.31-4.17-2.42-6-3.33a50.71,50.71,0,0,0-12.08-4.4s-2.45,12.23-13,17.08c0,0-1.64,6.65-1.64,6.68C605.91,371,607.31,380.6,610.79,390.65Z"/><path class="cls-16" d="M616.11,311.07c.11-.23.45-.48,1.28-.73a3.55,3.55,0,0,0-1.68-.07c-.47-1.14-1.6-3.08-3.73-3.09a2.6,2.6,0,0,1,1.67,1.54c-2.92-1.85-8.33-2.39-21.85,2.11-17.81,5.93-8.91,16.27-6.21,17.1s7.67-4.49,12.14-5.22,6.89,5.5,8.59,6,.73-.9,2.52-2.32,2.81,1.92,2.77,4.26,3.44,4.57,3.44,4.57l2-3.74c2-3.75,1.48-17.33-.46-19.78C616.45,311.51,616.28,311.29,616.11,311.07Z"/><path class="cls-10" d="M646.07,381.35s-1.92,14.51-8.4,25.49-9.34-6.11-9.34-6.11Z"/><path class="cls-4" d="M620.31,411.2a103.61,103.61,0,0,1,10.09,31.21c.23,1.6.41,3.12.53,4.55a71.71,71.71,0,0,1,0,13.19c-.59,6.68,49.62-6.22,56.33-15.88,3.7-5.32-.94-23.57-4.85-36.28-.65.16-31.78,7.57-53.32-11.69Z"/><path class="cls-14" d="M616.5,376.72l3.1-6.18c0-.11-.34-10.92,6.15-17.26,3.49-3.43,8.42-5,14.64-4.62-2.14-1.31-4.17-2.42-6-3.33a19.74,19.74,0,0,0-11.13,5.39C615.59,358.19,616.48,376.22,616.5,376.72Z"/><path class="cls-9" d="M573.68,419.32s-9.77-1.76-11.39-1.57-7.19,2.84-7.25,3.3.24.83,1.22.85,4.2-.55,4-.15-9.42,2.68-9.43,4.56,5.25,5.12,9.58,5.15S573,426.08,573.72,426C579.86,425.15,573.68,419.32,573.68,419.32Z"/><path class="cls-17" d="M571.85,423.29c-.19-1.92,1.83-4,1.83-4s29-8,31.38-10.4,13.51-41,13.51-41,3.83-15.6,12.78-17.32c7.78-1.5,13.16,2.35,16.68,6.87a16.58,16.58,0,0,1,1.13,18.66c-7.82,13.17-23.58,39.3-28.18,43.77-10.25,9.93-47.26,7.89-47.26,7.89S572.23,427.17,571.85,423.29Z"/><path class="cls-18" d="M385.53,614.05s6.15-9.74,23.61-7.69,29.91,11.44,71.56,1,37.9,8.32,61.62,4.27,34.14,2.46,34.14,2.46Z"/><rect class="cls-19" y="613.67" width="1048.01" height="1.68" rx="0.84"/></svg>