<svg xmlns="http://www.w3.org/2000/svg" viewBox="0 0 4281.57 844.98"><defs><style>.cls-1{fill:#243962;}.cls-2{fill:#dee9f7;}.cls-3{fill:#c0d1ec;}.cls-4{fill:#9fb6df;}.cls-5{fill:#447bbf;}.cls-6{fill:#be1e2d;}.cls-7{fill:#fff;}.cls-8{fill:#b2c1e3;}.cls-9{fill:#9ab0db;}.cls-10{fill:#a8c3e6;}.cls-11{fill:#919bce;}.cls-12{fill:#35498c;}.cls-13{fill:#fab17e;}.cls-14{fill:#751113;}.cls-15{fill:#2b488c;}.cls-16{fill:#2e3b65;}.cls-17{fill:#ee985e;}.cls-18{fill:#d63044;}.cls-19{fill:none;}</style></defs><g id="Layer_2" data-name="Layer 2"><g id="Layer_1-2" data-name="Layer 1"><rect class="cls-1" x="0.84" y="843.3" width="4280.72" height="1.68" rx="0.84"/><path class="cls-2" d="M4236.74,844.13c-65.54,0-1070.58.07-1070.58,0-36.81-37.33-47.66-126.43,32.07-212.49,29.21-31.52-48.27-92,2-188.92,19.12-36.85,95.46-100.18,296.94-51,85.67,20.9,158.36-12.47,174.46-24.52a178.55,178.55,0,0,1,29.63-17.82c110.88-53.66,302.46-19.49,386.08,45,11.85,9.14,65.73,56.44,23.26,121.45-26.82,41.05,85.53,80.24,125.45,127.11C4337.58,762.06,4237.66,842.58,4236.74,844.13Z"/><path class="cls-3" d="M3357.89,564.21v.67c0,12.8-10.85,23.21-24.18,23.21h-72.46c-8.05,0-14.59,6.29-14.59,14v2.21c0,7.73,6.54,14,14.59,14h80a3,3,0,0,1,2.95,2.94,6.27,6.27,0,0,1-6.26,6.26h-76.69c-13.33,0-24.18-10.41-24.18-23.22v-2.21c0-12.8,10.85-23.21,24.18-23.21h72.46c8.05,0,14.6-6.29,14.6-14v-.67c0-7.73-6.55-14-14.6-14H3259.9c-13.33,0-24.17-10.42-24.17-23.22v-3.11c0-12.8,10.84-23.21,24.17-23.21h73.81c8.05,0,14.6-6.29,14.6-14s-6.55-14-14.6-14H3188.2q1.31-4.55,3-9.2h142.54c13.33,0,24.18,10.42,24.18,23.22s-10.85,23.22-24.18,23.22H3259.9c-8,0-14.6,6.28-14.6,14V527c0,7.74,6.56,14,14.6,14h73.81C3347,541,3357.89,551.41,3357.89,564.21Z"/><rect class="cls-4" x="3792.75" y="466.16" width="123.87" height="2.78"/><path class="cls-4" d="M3791.32,467.15a2.94,2.94,0,1,1,2.94,2.94A2.94,2.94,0,0,1,3791.32,467.15Z"/><path class="cls-4" d="M3912.84,467.15a2.94,2.94,0,1,1,2.94,2.94A2.94,2.94,0,0,1,3912.84,467.15Z"/><path class="cls-5" d="M3904.59,466.24V562c-9.51,1.62-34.32.23-48.47,1.85s-46.26-.55-46.26-.55V466.69a2.87,2.87,0,0,1,2.87-2.88l89.3-.13A2.55,2.55,0,0,1,3904.59,466.24Z"/><path class="cls-6" d="M3904.59,524.72V562c-9.51,1.62-34.32.23-48.47,1.85s-46.26-.55-46.26-.55v-35.9l.35-2a324.3,324.3,0,0,0,38.95.44C3867.39,524.68,3889.29,527.66,3904.59,524.72Z"/><path class="cls-7" d="M3827.23,546.64c-7.75,0-16.81-.37-17.32-.4l.1-2.31c.16,0,16.73.68,24.23.23l1.77-.11c9.09-.56,28-1.73,35.92-.42,8.12,1.36,33.18-.3,33.44-.32l.15,2.31c-1,.07-25.59,1.7-34,.3-7.64-1.27-27.08-.07-35.38.45l-1.78.1C3832.43,546.59,3829.91,546.64,3827.23,546.64Z"/><path class="cls-7" d="M3827.23,551.74c-7.75,0-16.81-.37-17.32-.39l.1-2.32c.16,0,16.73.69,24.23.23l1.77-.11c9.09-.56,28-1.73,35.92-.42,8.12,1.36,33.18-.3,33.44-.32l.15,2.32c-1,.07-25.59,1.69-34,.29-7.64-1.27-27.08-.07-35.38.45l-1.78.11C3832.43,551.7,3829.91,551.74,3827.23,551.74Z"/><rect class="cls-4" x="3642.53" y="440.99" width="114.78" height="146.17"/><rect class="cls-3" x="3647.18" y="445.56" width="105.47" height="137.59"/><rect class="cls-3" x="3286.98" y="668.44" width="141.82" height="174.58"/><rect class="cls-8" x="3286.98" y="694.47" width="141.82" height="2.37"/><path class="cls-8" d="M3328.94,692.16h-37.69V672h37.69Zm-37.22-.47h36.75v-19.2h-36.75Z"/><path class="cls-8" d="M3349.45,682.09a6.76,6.76,0,1,1,6.76,6.75A6.76,6.76,0,0,1,3349.45,682.09Z"/><path class="cls-8" d="M3367.71,682.09a5.51,5.51,0,1,1,5.5,5.51A5.51,5.51,0,0,1,3367.71,682.09Z"/><rect class="cls-8" x="3387.34" y="675.61" width="30.19" height="12.95"/><circle class="cls-8" cx="3356.21" cy="761.72" r="52.55"/><circle class="cls-9" cx="3356.21" cy="761.72" r="42.25" transform="translate(-33.5 166.56) rotate(-2.83)"/><rect class="cls-8" x="3388.52" y="754.62" width="15.62" height="18.46" rx="4.7"/><rect class="cls-3" x="3627.32" y="666.08" width="157.47" height="176.65"/><rect class="cls-8" x="3627.32" y="720.27" width="157.47" height="2.09"/><rect class="cls-8" x="3692.87" y="672.11" width="28.56" height="3.5" rx="1.05"/><rect class="cls-8" x="3627.32" y="784.38" width="157.47" height="2.09"/><rect class="cls-8" x="3692.87" y="726.68" width="28.56" height="3.5" rx="1.05"/><rect class="cls-8" x="3692.87" y="793.65" width="28.56" height="3.5" rx="1.05"/><rect class="cls-9" x="3617.51" y="656.87" width="175.97" height="11.58"/><path class="cls-9" d="M3697.78,631.64h0a3.52,3.52,0,0,1-3.51-3.52v-32a3.52,3.52,0,0,1,3.51-3.52h0a3.53,3.53,0,0,1,3.52,3.52v32A3.53,3.53,0,0,1,3697.78,631.64Z"/><path class="cls-3" d="M3757.87,631.64c0,10.81-11.69,20.25-29,25.26h-57c-17.34-5-29-14.45-29-25.26Z"/><path class="cls-10" d="M3760.7,631.64H3640a2.54,2.54,0,0,1-2.53-2.53h0a2.54,2.54,0,0,1,2.53-2.53H3760.7a2.54,2.54,0,0,1,2.54,2.53h0A2.54,2.54,0,0,1,3760.7,631.64Z"/><path class="cls-11" d="M3467.15,844.16s-6.72-10.64-25.81-8.4-32.67,12.5-78.19,1-41.41,9.1-67.33,4.67-37.3,2.68-37.3,2.68Z"/><rect class="cls-12" x="3434.39" y="725.72" width="3.76" height="19.92" transform="translate(317.11 2354.31) rotate(-39.51)"/><path class="cls-12" d="M3428.2,721.37h0c.8,1.27,1.1,2.9.06,4-1.4,1.45-3.08.89-4.32-.62,0,0-.32-.38-.33-.39-.43-.53-1.58.62-1.5,1.3a5.42,5.42,0,0,0,8.33,3.94,5.42,5.42,0,0,0-.81-9.53C3428.9,719.74,3427.76,720.69,3428.2,721.37Z"/><path class="cls-12" d="M3444.11,750.54v0c-.8-1.27-1.1-2.9-.06-4,1.4-1.45,3.08-.89,4.32.62,0,0,.32.39.33.39.43.53,1.58-.62,1.5-1.29a5.34,5.34,0,0,0-1.67-3.34,5.42,5.42,0,0,0-7.89,7.39,5.31,5.31,0,0,0,2,1.53C3443.41,752.16,3444.55,751.22,3444.11,750.54Z"/><path class="cls-13" d="M3434.94,740.39c3.47.54,11.53-1.87,12.12-1.92,5-.48.18-5.4.18-5.4s-7.86-1.73-9.18-1.63a15.08,15.08,0,0,0-1.92.37l1.35,1.32s-6.55.69-6.62,2.21A5.1,5.1,0,0,0,3434.94,740.39Z"/><path class="cls-13" d="M3438.06,731.44l-5.57.68c0,1.46,4.29,1,4.5,1.71s1.19-1,1.19-1Z"/><path class="cls-13" d="M3490,731.89s-7.5.73-7,1.53,3.77,1.14,3.77,1.14l2.63-1.7Z"/><path class="cls-14" d="M3445.69,735.5c-1.2-3.48.48-4.57.48-4.57s34.32-16.27,37.13-18.07S3505,676.71,3505,676.71s7-14.06,15.91-13.77c7.74.24,12,5.07,14.43,10.13a16.21,16.21,0,0,1-2.94,18c-10.27,10.88-30.91,32.41-36.26,35.68-11.9,7.28-47.56,13.16-47.56,13.16A11.57,11.57,0,0,1,3445.69,735.5Z"/><path class="cls-15" d="M3450.72,772.8c5.18,6,16.1,9.83,37.18,10.81,1.69.08,3.39.14,5.1.19s3.53.1,5.29.12c5.73.08,11.43,0,16.86-.17,5.26-.18,10.28-.47,14.82-.85,8.89-.73,16-1.81,19.65-3a6.92,6.92,0,0,0,2.33-1.15,4,4,0,0,0,.91-1.17c1.33-2.47.64-6.51-1-11-2.34-6.49-6.64-13.84-9.53-18.44-.58-.92-1.1-1.72-1.54-2.39-.88-1.35-1.43-2.14-1.43-2.14s-9.84.91-23.32,2.66c-2.75.35-5.66.75-8.65,1.17-29,4.1-57.86,11.47-57.83,21.24C3449.59,770.17,3449.5,771.4,3450.72,772.8Z"/><path class="cls-16" d="M3486.6,783.49c1.76,0,9.93.41,11.69.43,5.73.08,11.43,0,16.86-.17l5.11-20.58C3512.36,774.19,3489.14,782.78,3486.6,783.49Z"/><path class="cls-16" d="M3503.67,843.26h-28.09a5,5,0,0,1,4.12-2.92c4.42-.77,12.1-3.17,11.12-9.55s9.78-7.31,9.78-7.31S3505.08,840.8,3503.67,843.26Z"/><path class="cls-15" d="M3450.26,771.74s34.85,54.83,37.75,61.35c0,0,11.86,1.1,14.71-7.37,0,0-20.72-57.86-29.82-62.63S3450.26,771.74,3450.26,771.74Z"/><path class="cls-13" d="M3520.54,656.32s-12,16.42-22.7,17.3a32.68,32.68,0,0,1,2.49-6.86,7.22,7.22,0,0,0-.13-6.86.93.93,0,0,0,0-.1,64.64,64.64,0,0,1-3-5.95L3502,645l1-4.79a32.51,32.51,0,0,0,2.89,6A22.84,22.84,0,0,0,3520.54,656.32Z"/><path class="cls-17" d="M3506.41,646.11a13.81,13.81,0,0,1-6.26,13.69,64.64,64.64,0,0,1-3-5.95L3502,645C3506,644.37,3506.41,646.11,3506.41,646.11Z"/><path class="cls-13" d="M3495.62,658.81s15.05-8.2,9.8-17.49-6.85-16.62-16.68-11.78-9.68,9.44-8.68,13S3491.57,660.71,3495.62,658.81Z"/><path class="cls-15" d="M3505.37,622.81c.08-.23.37-.51,1.13-.85a3.29,3.29,0,0,0-1.61.14c-.58-1-1.9-2.74-3.93-2.49a2.49,2.49,0,0,1,1.78,1.26c-3-1.4-8.22-1.26-20.53,4.67-16.22,7.81-6.5,16.57-3.83,17s6.75-5.21,10.91-6.44,7.23,4.39,8.91,4.68.59-.95,2.12-2.52,2.9,1.49,3.15,3.72,2.94,4.1,2.94,4.1.89-.17,2.38-4-.7-16.67-2.85-18.76Z"/><path class="cls-1" d="M3595.25,825.34s3.5,5.31,4.31,7-.78,5.39-3.18,5.94c-2.12.49-2.44,4.24-2.44,4.24h10.27a2.67,2.67,0,0,0,2.48-1.52c1.45-3.18,1.78-7.33,2.07-8.71.62-2.92,1.83-5.36,1.29-8.33s-5.59-4.67-14.8-4.64C3585.12,819.38,3595.25,825.34,3595.25,825.34Z"/><path class="cls-6" d="M3565.07,761.26c-7.75,8.2-64.59-8.77-59.83-13.09,1.22-1.1.8-2.42,1.29-4.19,2.36-8.39-2.33-22.75-4.35-28.31-.47-1.29-.79-2.11-.85-2.28a97.25,97.25,0,0,1-4.38-15.83c-1.87-10-1.84-19.35.72-25.07l0-.08c10.65-3.11,16.51-18.78,16.51-18.78s33.74,9.59,46,57.72c0,0,.63,3.07,1.41,7.68h0c.23,1.41.49,3,.74,4.63,1.31,8.57,2.07,19.55,2.84,27.73l.09.86C3565.68,755.78,3566.35,759.9,3565.07,761.26Z"/><path class="cls-5" d="M3520.3,753.12s5.67.75,17.1,1.59c11.84.88,24.4,2.74,26.44,6.72.67,1.32.2,4.65-1.12,9.26-2.92,10.18-10,26.58-18.08,41.12,20.76,1.2,49,5.79,49,5.79a12.4,12.4,0,0,1,2.68,11.33c-1.48,0-5.93.65-12,1.63-22,3.54-48.85,10.83-65.49,10.83-3.64,0-6.36-2.58-7.47-6h0C3504.52,814.62,3520.3,753.12,3520.3,753.12Z"/><path class="cls-16" d="M3562.72,772.24c-11.46-.37-40.2-14.48-39.73-14.59a135.06,135.06,0,0,1,14.41-2.8c11.84.95,24.4,3,26.44,7.31C3564.51,763.6,3564,767.22,3562.72,772.24Z"/><path class="cls-5" d="M3519.88,656s-14.42,3-15.83,15.64c-1,9.2,6.28,30,6.28,30l4.68-1.92s-8.84-25.73-7.48-30.1c1.75-5.62,10-14,17.66-10.66Z"/><path class="cls-5" d="M3565.07,761.26c-7.75,8.2-65.81-8.59-61.05-12.91a9,9,0,0,0,2.51-4.37c2.36-8.39-2.33-22.75-4.35-28.31-.47-1.29-4.91-16.58-5-16.75l16.35-3.54s4.63,8,10.63,12.06A66.45,66.45,0,0,0,3561.61,719h0c.23,1.41.49,3,.74,4.63,1.31,8.57,2.07,19.55,2.84,27.73l.09.86C3565.68,755.78,3566.35,759.9,3565.07,761.26Z"/><path class="cls-13" d="M3501.09,731.23a30.94,30.94,0,0,1-5.37.7c-2.5.08-5.14-.38-6.34.12-2.53,1.05-10.55,6.56-6.68,8.93a8.91,8.91,0,0,0,10.51-.62c2.64-2.14,9.83-2.31,9.83-2.31Z"/><path class="cls-18" d="M3528,667.57c17.38,5,28,46.75,25.52,59.23S3502,739.94,3502,739.94s-2.76-2.15-3.09-4.38a9.94,9.94,0,0,1,0-4.15s31-8.43,31.75-12-14.94-22.57-14.71-32.87S3518.56,664.84,3528,667.57Z"/><path class="cls-2" d="M44.83,844.13c65.54,0,1070.57.07,1070.57,0,36.82-37.33,47.66-126.43-32.07-212.49-29.2-31.52,48.28-92-2-188.92-19.11-36.85-95.46-100.18-296.93-51-85.67,20.9-158.37-12.47-174.46-24.52a179,179,0,0,0-29.63-17.82c-110.88-53.66-302.46-19.49-386.08,45-11.85,9.14-65.74,56.44-23.27,121.45C197.76,556.84,85.41,596,45.49,642.9-56,762.06,43.91,842.58,44.83,844.13Z"/><path class="cls-3" d="M923.68,564.21v.67c0,12.8,10.84,23.21,24.17,23.21h72.46c8,0,14.6,6.29,14.6,14v2.21c0,7.73-6.55,14-14.6,14h-80a3,3,0,0,0-3,2.94,6.25,6.25,0,0,0,6.25,6.26h76.69c13.33,0,24.18-10.41,24.18-23.22v-2.21c0-12.8-10.85-23.21-24.18-23.21H947.85c-8,0-14.6-6.29-14.6-14v-.67c0-7.73,6.56-14,14.6-14h73.81c13.33,0,24.18-10.42,24.18-23.22v-3.11c0-12.8-10.85-23.21-24.18-23.21H947.85c-8,0-14.6-6.29-14.6-14s6.56-14,14.6-14h145.51c-.87-3-1.85-6.09-3-9.2H947.85c-13.33,0-24.17,10.42-24.17,23.22s10.84,23.22,24.17,23.22h73.81c8.05,0,14.6,6.28,14.6,14V527c0,7.74-6.55,14-14.6,14H947.85C934.52,541,923.68,551.41,923.68,564.21Z"/><rect class="cls-4" x="364.94" y="466.16" width="123.87" height="2.78" transform="translate(853.75 935.11) rotate(-180)"/><path class="cls-4" d="M490.24,467.15a2.94,2.94,0,1,0-2.94,2.94A2.94,2.94,0,0,0,490.24,467.15Z"/><path class="cls-4" d="M368.72,467.15a2.94,2.94,0,1,0-2.93,2.94A2.94,2.94,0,0,0,368.72,467.15Z"/><path class="cls-5" d="M377,466.24V562c9.51,1.62,34.33.23,48.48,1.85s46.26-.55,46.26-.55V466.69a2.88,2.88,0,0,0-2.87-2.88l-89.3-.13A2.55,2.55,0,0,0,377,466.24Z"/><path class="cls-6" d="M377,524.72V562c9.51,1.62,34.33.23,48.48,1.85s46.26-.55,46.26-.55v-35.9c-.23-1.28-.35-2-.35-2a324.38,324.38,0,0,1-38.95.44C414.18,524.68,392.27,527.66,377,524.72Z"/><path class="cls-7" d="M454.33,546.64c7.75,0,16.82-.37,17.33-.4l-.1-2.31c-.17,0-16.73.68-24.24.23l-1.77-.11c-9.09-.56-28-1.73-35.91-.42-8.12,1.36-33.19-.3-33.44-.32l-.16,2.31c1,.07,25.6,1.7,34,.3,7.65-1.27,27.09-.07,35.39.45l1.77.1C449.14,546.59,451.66,546.64,454.33,546.64Z"/><path class="cls-7" d="M454.33,551.74c7.75,0,16.82-.37,17.33-.39l-.1-2.32c-.17,0-16.73.69-24.24.23l-1.77-.11c-9.09-.56-28-1.73-35.91-.42-8.12,1.36-33.19-.3-33.44-.32l-.16,2.32c1,.07,25.6,1.69,34,.29,7.65-1.27,27.09-.07,35.39.45l1.77.11C449.14,551.7,451.66,551.74,454.33,551.74Z"/><rect class="cls-4" x="524.26" y="440.99" width="114.78" height="146.17" transform="translate(1163.3 1028.15) rotate(-180)"/><rect class="cls-3" x="528.91" y="445.56" width="105.47" height="137.59" transform="translate(1163.3 1028.71) rotate(-180)"/><rect class="cls-3" x="852.76" y="668.44" width="141.82" height="174.58" transform="translate(1847.35 1511.47) rotate(-180)"/><rect class="cls-8" x="852.76" y="694.47" width="141.82" height="2.37" transform="translate(1847.35 1391.32) rotate(-180)"/><path class="cls-8" d="M952.62,672h37.7v20.15h-37.7Zm37.23.48H953.1v19.2h36.75Z"/><path class="cls-8" d="M932.11,682.09a6.76,6.76,0,1,0-6.75,6.75A6.76,6.76,0,0,0,932.11,682.09Z"/><path class="cls-8" d="M913.86,682.09a5.51,5.51,0,1,0-5.51,5.51A5.51,5.51,0,0,0,913.86,682.09Z"/><rect class="cls-8" x="864.03" y="675.61" width="30.19" height="12.95" transform="translate(1758.26 1364.18) rotate(-180)"/><circle class="cls-8" cx="925.36" cy="761.72" r="52.55"/><circle class="cls-9" cx="925.36" cy="761.72" r="42.25" transform="translate(118.9 1648.36) rotate(-87.17)"/><rect class="cls-8" x="877.43" y="754.62" width="15.62" height="18.46" rx="4.7" transform="translate(1770.48 1527.7) rotate(-180)"/><rect class="cls-3" x="496.78" y="666.08" width="157.47" height="176.65" transform="translate(1151.02 1508.81) rotate(-180)"/><rect class="cls-8" x="496.78" y="720.27" width="157.47" height="2.09" transform="translate(1151.02 1442.63) rotate(-180)"/><rect class="cls-8" x="560.14" y="672.11" width="28.56" height="3.5" rx="1.05" transform="translate(1148.84 1347.73) rotate(180)"/><rect class="cls-8" x="496.78" y="784.38" width="157.47" height="2.09" transform="translate(1151.02 1570.85) rotate(-180)"/><rect class="cls-8" x="560.14" y="726.68" width="28.56" height="3.5" rx="1.05" transform="translate(1148.84 1456.86) rotate(-180)"/><rect class="cls-8" x="560.14" y="793.65" width="28.56" height="3.5" rx="1.05" transform="translate(1148.84 1590.79) rotate(-180)"/><rect class="cls-9" x="488.09" y="656.87" width="175.97" height="11.58" transform="translate(1152.14 1325.31) rotate(-180)"/><path class="cls-9" d="M583.78,631.64h0a3.53,3.53,0,0,0,3.52-3.52v-32a3.53,3.53,0,0,0-3.52-3.52h0a3.53,3.53,0,0,0-3.52,3.52v32A3.53,3.53,0,0,0,583.78,631.64Z"/><path class="cls-3" d="M523.7,631.64c0,10.81,11.69,20.25,29,25.26h57c17.34-5,29-14.45,29-25.26Z"/><path class="cls-10" d="M520.86,631.64H641.57a2.54,2.54,0,0,0,2.54-2.53h0a2.54,2.54,0,0,0-2.54-2.53H520.86a2.54,2.54,0,0,0-2.53,2.53h0A2.54,2.54,0,0,0,520.86,631.64Z"/><path class="cls-11" d="M814.41,844.16s6.73-10.64,25.81-8.4,32.67,12.5,78.19,1,41.42,9.1,67.34,4.67,37.3,2.68,37.3,2.68Z"/><rect class="cls-12" x="843.41" y="725.72" width="3.76" height="19.92" transform="translate(1029.39 1841.05) rotate(-140.49)"/><path class="cls-12" d="M853.37,721.37h0c-.81,1.27-1.11,2.9-.06,4,1.4,1.45,3.08.89,4.32-.62,0,0,.32-.38.32-.39.43-.53,1.59.62,1.51,1.3a5.42,5.42,0,1,1-9.57-4.06,5.39,5.39,0,0,1,2-1.53C852.67,719.74,853.81,720.69,853.37,721.37Z"/><path class="cls-12" d="M837.46,750.54v0c.81-1.27,1.11-2.9.06-4-1.4-1.45-3.07-.89-4.32.62,0,0-.31.39-.32.39-.43.53-1.58-.62-1.51-1.29a5.42,5.42,0,1,1,7.53,5.58C838.16,752.16,837,751.22,837.46,750.54Z"/><path class="cls-13" d="M846.62,740.39c-3.46.54-11.52-1.87-12.11-1.92-5-.48-.18-5.4-.18-5.4s7.86-1.73,9.18-1.63a15.42,15.42,0,0,1,1.92.37l-1.36,1.32s6.55.69,6.62,2.21A5.08,5.08,0,0,1,846.62,740.39Z"/><path class="cls-13" d="M843.51,731.44l5.56.68c0,1.46-4.28,1-4.49,1.71s-1.2-1-1.2-1Z"/><path class="cls-13" d="M791.58,731.89s7.49.73,7,1.53-3.77,1.14-3.77,1.14l-2.63-1.7Z"/><path class="cls-14" d="M835.87,735.5c1.21-3.48-.47-4.57-.47-4.57s-34.33-16.27-37.13-18.07-21.68-36.15-21.68-36.15-7-14.06-15.9-13.77c-7.74.24-12,5.07-14.43,10.13a16.19,16.19,0,0,0,2.93,18c10.28,10.88,30.92,32.41,36.27,35.68,11.9,7.28,47.56,13.16,47.56,13.16A11.49,11.49,0,0,0,835.87,735.5Z"/><path class="cls-15" d="M830.85,772.8c-5.18,6-16.1,9.83-37.18,10.81-1.69.08-3.4.14-5.11.19s-3.52.1-5.28.12c-5.73.08-11.43,0-16.86-.17-5.27-.18-10.28-.47-14.83-.85-8.89-.73-16-1.81-19.65-3a6.85,6.85,0,0,1-2.32-1.15,4,4,0,0,1-.92-1.17c-1.32-2.47-.63-6.51,1-11,2.34-6.49,6.63-13.84,9.53-18.44.58-.92,1.09-1.72,1.53-2.39.89-1.35,1.43-2.14,1.43-2.14s9.85.91,23.33,2.66c2.75.35,5.65.75,8.65,1.17,29,4.1,57.85,11.47,57.83,21.24C832,770.17,832.07,771.4,830.85,772.8Z"/><path class="cls-16" d="M795,783.49c-1.76,0-9.93.41-11.69.43-5.73.08-11.43,0-16.86-.17l-5.11-20.58C769.21,774.19,792.43,782.78,795,783.49Z"/><path class="cls-16" d="M777.9,843.26H806a5,5,0,0,0-4.12-2.92c-4.43-.77-12.11-3.17-11.12-9.55s-9.78-7.31-9.78-7.31S776.49,840.8,777.9,843.26Z"/><path class="cls-15" d="M831.31,771.74s-34.86,54.83-37.75,61.35c0,0-11.86,1.1-14.71-7.37,0,0,20.71-57.86,29.82-62.63S831.31,771.74,831.31,771.74Z"/><path class="cls-13" d="M761,656.32s12,16.42,22.69,17.3a33,33,0,0,0-2.48-6.86,7.25,7.25,0,0,1,.12-6.86l.06-.1a62.52,62.52,0,0,0,3-5.95l-4.92-8.9-1-4.79a31.89,31.89,0,0,1-2.89,6A22.81,22.81,0,0,1,761,656.32Z"/><path class="cls-17" d="M775.15,646.11a13.81,13.81,0,0,0,6.27,13.69,62.52,62.52,0,0,0,3-5.95l-4.92-8.9C775.6,644.37,775.15,646.11,775.15,646.11Z"/><path class="cls-13" d="M786,658.81s-15.06-8.2-9.8-17.49,6.84-16.62,16.67-11.78,9.69,9.44,8.69,13S790,660.71,786,658.81Z"/><path class="cls-15" d="M776.2,622.81c-.08-.23-.38-.51-1.13-.85a3.25,3.25,0,0,1,1.6.14c.58-1,1.9-2.74,3.93-2.49a2.51,2.51,0,0,0-1.78,1.26c3-1.4,8.22-1.26,20.53,4.67,16.23,7.81,6.51,16.57,3.84,17s-6.75-5.21-10.92-6.44-7.22,4.39-8.91,4.68-.59-.95-2.11-2.52-2.91,1.49-3.16,3.72-2.94,4.1-2.94,4.1-.88-.17-2.37-4,.69-16.67,2.85-18.76Z"/><path class="cls-1" d="M686.32,825.34s-3.5,5.31-4.32,7,.79,5.39,3.19,5.94c2.12.49,2.43,4.24,2.43,4.24H677.36a2.7,2.7,0,0,1-2.49-1.52c-1.45-3.18-1.78-7.33-2.07-8.71-.61-2.92-1.82-5.36-1.29-8.33s5.59-4.67,14.81-4.64C696.44,819.38,686.32,825.34,686.32,825.34Z"/><path class="cls-6" d="M716.5,761.26c7.74,8.2,64.59-8.77,59.82-13.09-1.21-1.1-.8-2.42-1.29-4.19-2.36-8.39,2.34-22.75,4.35-28.31.47-1.29.79-2.11.86-2.28a98.27,98.27,0,0,0,4.38-15.83c1.87-10,1.84-19.35-.73-25.07,0,0,0-.06,0-.08-10.65-3.11-16.51-18.78-16.51-18.78s-33.73,9.59-46,57.72c0,0-.63,3.07-1.41,7.68h0c-.24,1.41-.49,3-.74,4.63-1.31,8.57-2.07,19.55-2.85,27.73,0,.28-.05.57-.08.86C715.89,755.78,715.21,759.9,716.5,761.26Z"/><path class="cls-5" d="M761.26,753.12s-5.67.75-17.09,1.59c-11.85.88-24.4,2.74-26.44,6.72-.68,1.32-.21,4.65,1.11,9.26,2.93,10.18,10,26.58,18.09,41.12-20.77,1.2-49,5.79-49,5.79a12.42,12.42,0,0,0-2.69,11.33c1.49,0,5.94.65,12,1.63,22,3.54,48.86,10.83,65.5,10.83,3.63,0,6.36-2.58,7.46-6h0C777.05,814.62,761.26,753.12,761.26,753.12Z"/><path class="cls-16" d="M718.84,772.24c11.46-.37,40.21-14.48,39.74-14.59a135.54,135.54,0,0,0-14.41-2.8c-11.85.95-24.4,3-26.44,7.31C717.05,763.6,717.52,767.22,718.84,772.24Z"/><path class="cls-5" d="M761.68,656s14.42,3,15.83,15.64c1,9.2-6.28,30-6.28,30l-4.67-1.92s8.83-25.73,7.47-30.1c-1.74-5.62-10-14-17.65-10.66Z"/><path class="cls-5" d="M716.5,761.26c7.74,8.2,65.81-8.59,61-12.91A8.94,8.94,0,0,1,775,744c-2.36-8.39,2.34-22.75,4.35-28.31.47-1.29,4.91-16.58,5-16.75L768,695.38s-4.63,8-10.64,12.06A66.42,66.42,0,0,1,720,719h0c-.24,1.41-.49,3-.74,4.63-1.31,8.57-2.07,19.55-2.85,27.73,0,.28-.05.57-.08.86C715.89,755.78,715.21,759.9,716.5,761.26Z"/><path class="cls-13" d="M780.48,731.23a30.94,30.94,0,0,0,5.37.7c2.49.08,5.14-.38,6.34.12,2.53,1.05,10.55,6.56,6.67,8.93a8.89,8.89,0,0,1-10.5-.62c-2.65-2.14-9.84-2.31-9.84-2.31Z"/><path class="cls-18" d="M753.53,667.57c-17.39,5-28,46.75-25.53,59.23s51.53,13.14,51.53,13.14,2.76-2.15,3.08-4.38a9.72,9.72,0,0,0,0-4.15s-31-8.43-31.74-12,14.94-22.57,14.7-32.87S763,664.84,753.53,667.57Z"/><rect class="cls-19" width="4281.57" height="843.3"/></g></g></svg>