<svg id="Layer_1" data-name="Layer 1" xmlns="http://www.w3.org/2000/svg" viewBox="0 0 1048.01 477.11"><defs><style>.cls-1{fill:#dee9f7;}.cls-2{fill:#c0d1ec;}.cls-3{fill:#9fb6df;}.cls-4{fill:#447bbf;}.cls-5{fill:#be1e2d;}.cls-6{fill:#fff;}.cls-7{fill:#b2c1e3;}.cls-8{fill:#9ab0db;}.cls-9{fill:#a8c3e6;}.cls-10{fill:#919bce;}.cls-11{fill:#35498c;}.cls-12{fill:#fab17e;}.cls-13{fill:#751113;}.cls-14{fill:#2b488c;}.cls-15{fill:#2e3b65;}.cls-16{fill:#ee985e;}.cls-17{fill:#243962;}.cls-18{fill:#d63044;}</style></defs><path class="cls-1" d="M1006.18,477.08c-60,0-979.72.07-979.72,0-33.69-34.16-43.61-115.7,29.35-194.45,26.73-28.84-44.18-84.16,1.85-172.89C75.15,76,145,18.06,329.4,63,407.8,82.16,474.32,51.62,489.05,40.6a164,164,0,0,1,27.11-16.32C617.64-24.82,793,6.45,869.48,65.47c10.85,8.37,60.16,51.65,21.29,111.14-24.54,37.56,78.28,73.43,114.81,116.32C1098.47,402,1007,475.66,1006.18,477.08Z"/><path class="cls-2" d="M201.92,220.92v.61c0,11.72-9.93,21.25-22.13,21.25H113.48c-7.36,0-13.36,5.75-13.36,12.82v2a13.13,13.13,0,0,0,13.36,12.83h73.21a2.69,2.69,0,0,1,2.7,2.69,5.72,5.72,0,0,1-5.73,5.72H113.48c-12.2,0-22.13-9.52-22.13-21.24v-2c0-11.71,9.93-21.24,22.13-21.24h66.31a13.12,13.12,0,0,0,13.36-12.83v-.61a13.12,13.12,0,0,0-13.36-12.83H112.25c-12.2,0-22.13-9.53-22.13-21.25V184c0-11.72,9.93-21.25,22.13-21.25h67.54a12.84,12.84,0,1,0,0-25.66H46.63c.8-2.76,1.7-5.57,2.72-8.41H179.79c12.2,0,22.13,9.53,22.13,21.24s-9.93,21.25-22.13,21.25H112.25A13.11,13.11,0,0,0,98.89,184v2.84a13.11,13.11,0,0,0,13.36,12.83h67.54C192,199.67,201.92,209.2,201.92,220.92Z"/><rect class="cls-3" x="599.88" y="131.2" width="113.36" height="2.55"/><path class="cls-3" d="M598.57,132.1a2.69,2.69,0,1,1,2.69,2.69A2.69,2.69,0,0,1,598.57,132.1Z"/><path class="cls-3" d="M709.78,132.1a2.69,2.69,0,1,1,2.69,2.69A2.68,2.68,0,0,1,709.78,132.1Z"/><path class="cls-4" d="M702.23,131.27v87.64c-8.7,1.49-31.42.22-44.36,1.7s-42.34-.51-42.34-.51V131.67a2.64,2.64,0,0,1,2.63-2.63l81.72-.12A2.35,2.35,0,0,1,702.23,131.27Z"/><path class="cls-5" d="M702.23,184.78v34.13c-8.7,1.49-31.42.22-44.36,1.7s-42.34-.51-42.34-.51V187.25c.21-1.17.32-1.85.32-1.85a297.59,297.59,0,0,0,35.65.4C668.18,184.75,688.23,187.47,702.23,184.78Z"/><path class="cls-6" d="M631.43,204.84c-7.09,0-15.38-.34-15.85-.36l.09-2.12c.15,0,15.31.63,22.18.21l1.62-.1c8.32-.51,25.63-1.59,32.86-.38,7.44,1.24,30.37-.28,30.61-.3l.14,2.12c-1,.07-23.42,1.55-31.1.27-7-1.16-24.78-.06-32.38.41l-1.62.1C636.19,204.8,633.88,204.84,631.43,204.84Z"/><path class="cls-6" d="M631.43,209.51c-7.09,0-15.38-.34-15.85-.36l.09-2.12c.15,0,15.31.63,22.18.21l1.62-.1c8.32-.51,25.63-1.59,32.86-.38,7.44,1.24,30.37-.28,30.61-.3l.14,2.12c-1,.07-23.42,1.55-31.1.27-7-1.16-24.78-.06-32.38.41l-1.62.1C636.19,209.47,633.88,209.51,631.43,209.51Z"/><rect class="cls-3" x="462.4" y="108.16" width="105.04" height="133.77"/><rect class="cls-2" x="466.66" y="112.34" width="96.52" height="125.91"/><rect class="cls-2" x="137.03" y="316.31" width="129.79" height="159.77"/><rect class="cls-7" x="137.03" y="340.13" width="129.79" height="2.17"/><path class="cls-7" d="M175.43,338h-34.5V319.58h34.5Zm-34.07-.44H175V320H141.36Z"/><path class="cls-7" d="M194.2,328.8a6.18,6.18,0,1,1,6.18,6.18A6.18,6.18,0,0,1,194.2,328.8Z"/><path class="cls-7" d="M210.9,328.8a5,5,0,1,1,5,5A5,5,0,0,1,210.9,328.8Z"/><rect class="cls-7" x="228.87" y="322.87" width="27.63" height="11.85"/><circle class="cls-7" cx="200.38" cy="401.67" r="48.09"/><circle class="cls-8" cx="200.38" cy="401.67" r="38.67" transform="translate(-19.58 10.38) rotate(-2.83)"/><rect class="cls-7" x="229.95" y="395.17" width="14.3" height="16.9" rx="4.7"/><rect class="cls-2" x="448.49" y="314.14" width="144.1" height="161.66"/><rect class="cls-7" x="448.49" y="363.74" width="144.1" height="1.91"/><rect class="cls-7" x="508.47" y="319.67" width="26.13" height="3.2" rx="1.05"/><rect class="cls-7" x="448.49" y="422.4" width="144.1" height="1.91"/><rect class="cls-7" x="508.47" y="369.6" width="26.13" height="3.2" rx="1.05"/><rect class="cls-7" x="508.47" y="430.89" width="26.13" height="3.2" rx="1.05"/><rect class="cls-8" x="439.51" y="305.71" width="161.03" height="10.59"/><path class="cls-8" d="M513,282.63h0a3.23,3.23,0,0,1-3.22-3.22V250.13a3.23,3.23,0,0,1,3.22-3.22h0a3.23,3.23,0,0,1,3.22,3.22v29.28A3.23,3.23,0,0,1,513,282.63Z"/><path class="cls-2" d="M568,282.63c0,9.89-10.69,18.53-26.56,23.11H489.24c-15.86-4.58-26.56-13.22-26.56-23.11Z"/><path class="cls-9" d="M570.55,282.63H460.08a2.33,2.33,0,0,1-2.32-2.32h0a2.33,2.33,0,0,1,2.32-2.32H570.55a2.33,2.33,0,0,1,2.32,2.32h0A2.33,2.33,0,0,1,570.55,282.63Z"/><path class="cls-10" d="M301.91,477.11s-6.16-9.73-23.62-7.68-29.9,11.44-71.56,1-37.89,8.32-61.61,4.27S111,477.11,111,477.11Z"/><rect class="cls-11" x="271.93" y="368.72" width="3.44" height="18.23" transform="translate(-177.86 260.43) rotate(-39.51)"/><path class="cls-11" d="M266.26,364.74h0c.74,1.17,1,2.66.05,3.65-1.28,1.32-2.81.81-3.95-.57,0,0-.29-.35-.3-.36-.39-.48-1.44.57-1.38,1.19a5,5,0,0,0,1.53,3.06,5,5,0,0,0,7.23-6.77,4.88,4.88,0,0,0-1.87-1.4C266.9,363.25,265.86,364.12,266.26,364.74Z"/><path class="cls-11" d="M280.82,391.44v0c-.73-1.16-1-2.65-.05-3.64,1.28-1.32,2.82-.81,3.95.57,0,0,.29.35.3.35.39.49,1.45-.56,1.38-1.18a5,5,0,1,0-6.89,5.11C280.18,392.92,281.23,392.06,280.82,391.44Z"/><path class="cls-12" d="M272.43,382.15c3.17.5,10.55-1.71,11.09-1.76,4.58-.44.16-4.94.16-4.94s-7.19-1.58-8.39-1.49a11.89,11.89,0,0,0-1.76.34l1.24,1.2s-6,.63-6.06,2A4.66,4.66,0,0,0,272.43,382.15Z"/><path class="cls-12" d="M275.29,374l-5.1.62c0,1.34,3.92.9,4.11,1.56s1.1-.92,1.1-.92Z"/><path class="cls-12" d="M322.81,374.37s-6.86.67-6.42,1.4,3.45,1,3.45,1l2.41-1.55Z"/><path class="cls-13" d="M282.27,377.68c-1.1-3.19.44-4.18.44-4.18s31.41-14.9,34-16.54,19.83-33.09,19.83-33.09,6.4-12.86,14.55-12.6c7.09.22,11,4.64,13.21,9.27a14.87,14.87,0,0,1-2.68,16.51c-9.41,9.95-28.3,29.66-33.19,32.65-10.89,6.66-43.53,12-43.53,12A10.68,10.68,0,0,1,282.27,377.68Z"/><path class="cls-14" d="M286.87,411.81c4.74,5.46,14.74,9,34,9.89,1.55.07,3.11.13,4.67.18s3.23.08,4.84.1c5.25.08,10.46,0,15.43-.15s9.41-.43,13.57-.77c8.13-.68,14.63-1.66,18-2.79a6.4,6.4,0,0,0,2.13-1,3.63,3.63,0,0,0,.83-1.08c1.22-2.25.59-5.95-.88-10a96.92,96.92,0,0,0-8.73-16.86c-.53-.85-1-1.58-1.4-2.2-.81-1.23-1.31-1.95-1.31-1.95s-9,.83-21.35,2.43l-7.91,1.07c-26.52,3.75-52.95,10.5-52.92,19.44C285.84,409.4,285.75,410.52,286.87,411.81Z"/><path class="cls-15" d="M319.71,421.59c1.61.05,9.08.37,10.69.39,5.25.08,10.46,0,15.43-.15L350.51,403C343.28,413.08,322,420.94,319.71,421.59Z"/><path class="cls-15" d="M335.33,476.29H309.62a4.56,4.56,0,0,1,3.77-2.67c4.05-.71,11.08-2.9,10.18-8.75s8.94-6.68,8.94-6.68S336.62,474,335.33,476.29Z"/><path class="cls-14" d="M286.45,410.84S318.34,461,321,467c0,0,10.85,1,13.46-6.74,0,0-19-52.95-27.29-57.32S286.45,410.84,286.45,410.84Z"/><path class="cls-12" d="M350.77,305.21s-11,15-20.77,15.83a29.81,29.81,0,0,1,2.27-6.27,6.6,6.6,0,0,0-.12-6.28.41.41,0,0,0,0-.09,57.64,57.64,0,0,1-2.77-5.45l4.5-8.14.93-4.38a29.2,29.2,0,0,0,2.65,5.52A20.87,20.87,0,0,0,350.77,305.21Z"/><path class="cls-16" d="M337.84,295.87a12.64,12.64,0,0,1-5.74,12.53,57.64,57.64,0,0,1-2.77-5.45l4.5-8.14C337.43,294.28,337.84,295.87,337.84,295.87Z"/><path class="cls-12" d="M328,307.5s13.78-7.51,9-16-6.26-15.2-15.26-10.77-8.86,8.64-7.95,11.87S324.25,309.23,328,307.5Z"/><path class="cls-14" d="M336.88,274.55c.08-.22.34-.47,1-.78a3.08,3.08,0,0,0-1.47.13c-.53-.94-1.74-2.51-3.6-2.28a2.3,2.3,0,0,1,1.63,1.16c-2.75-1.29-7.52-1.16-18.79,4.27-14.85,7.14-5.95,15.16-3.51,15.58s6.18-4.77,10-5.9,6.61,4,8.15,4.29.54-.87,1.94-2.3,2.66,1.36,2.89,3.4,2.69,3.75,2.69,3.75.81-.15,2.17-3.64-.63-15.26-2.6-17.17Z"/><path class="cls-17" d="M419.13,459.89s3.21,4.86,3.95,6.44-.71,4.93-2.91,5.43c-1.94.45-2.23,3.88-2.23,3.88h9.4a2.46,2.46,0,0,0,2.27-1.39c1.32-2.91,1.63-6.7,1.89-8,.56-2.67,1.67-4.91,1.18-7.62s-5.11-4.28-13.55-4.25C409.87,454.44,419.13,459.89,419.13,459.89Z"/><path class="cls-5" d="M391.51,401.25c-7.08,7.51-59.1-8-54.74-12,1.11-1,.73-2.21,1.18-3.83,2.16-7.68-2.14-20.82-4-25.92-.43-1.18-.73-1.92-.78-2.07a89.44,89.44,0,0,1-4-14.49c-1.72-9.18-1.68-17.72.66-22.95,0,0,0-.05,0-.07,9.74-2.85,15.11-17.18,15.11-17.18s30.87,8.76,42.07,52.81c0,0,.58,2.81,1.29,7h0c.21,1.29.45,2.72.68,4.24,1.19,7.84,1.89,17.89,2.6,25.37,0,.26.05.53.08.8C392.07,396.23,392.69,400,391.51,401.25Z"/><path class="cls-4" d="M350.55,393.8s5.19.68,15.65,1.45c10.83.81,22.32,2.51,24.19,6.16.62,1.2.19,4.25-1,8.47-2.67,9.32-9.15,24.32-16.55,37.63,19,1.1,44.85,5.29,44.85,5.29a11.38,11.38,0,0,1,2.46,10.38c-1.36,0-5.44.59-11,1.48-20.16,3.25-44.71,9.92-59.94,9.92-3.33,0-5.82-2.36-6.83-5.45h0C336.1,450.08,350.55,393.8,350.55,393.8Z"/><path class="cls-15" d="M389.37,411.29C378.88,411,352.58,398.05,353,398a125.51,125.51,0,0,1,13.19-2.57c10.83.87,22.32,2.73,24.19,6.69C391,403.39,390.58,406.71,389.37,411.29Z"/><path class="cls-4" d="M350.16,304.9s-13.19,2.75-14.48,14.31c-.94,8.43,5.75,27.5,5.75,27.5L345.7,345s-8.08-23.54-6.84-27.55c1.6-5.14,9.18-12.82,16.16-9.75Z"/><path class="cls-4" d="M391.51,401.25c-7.08,7.51-60.22-7.86-55.86-11.82a8.18,8.18,0,0,0,2.3-4c2.16-7.68-2.14-20.82-4-25.92-.43-1.18-4.49-15.17-4.55-15.32l15-3.24s4.23,7.29,9.73,11a60.7,60.7,0,0,0,34.24,10.61h0c.21,1.29.45,2.72.68,4.24,1.19,7.84,1.89,17.89,2.6,25.37,0,.26.05.53.08.8C392.07,396.23,392.69,400,391.51,401.25Z"/><path class="cls-12" d="M333,373.77a29,29,0,0,1-4.91.64c-2.28.07-4.7-.35-5.8.11-2.32,1-9.65,6-6.11,8.17a8.15,8.15,0,0,0,9.61-.56c2.42-2,9-2.13,9-2.13Z"/><path class="cls-18" d="M357.63,315.51c15.91,4.59,25.6,42.78,23.36,54.21s-47.16,12-47.16,12-2.52-2-2.82-4a9,9,0,0,1,0-3.8s28.4-7.71,29-11-13.67-20.66-13.46-30.08S349,313,357.63,315.51Z"/><rect class="cls-17" y="475.43" width="1048.01" height="1.68" rx="0.84"/></svg>