<svg xmlns="http://www.w3.org/2000/svg" viewBox="0 0 4281.57 1042.68"><defs><style>.cls-1{fill:#243962;}.cls-2{fill:#dee9f7;}.cls-3{fill:#c0d1ec;}.cls-4{fill:#9fb6df;}.cls-5{fill:#447bbf;}.cls-6{fill:#be1e2d;}.cls-7{fill:#fff;}.cls-8{fill:#b2c1e3;}.cls-9{fill:#9ab0db;}.cls-10{fill:#a8c3e6;}.cls-11{fill:#919bce;}.cls-12{fill:#35498c;}.cls-13{fill:#fab17e;}.cls-14{fill:#751113;}.cls-15{fill:#2b488c;}.cls-16{fill:#2e3b65;}.cls-17{fill:#ee985e;}.cls-18{fill:#d63044;}.cls-19{fill:none;}</style></defs><g id="Layer_2" data-name="Layer 2"><g id="Layer_1-2" data-name="Layer 1"><rect class="cls-1" x="0.84" y="1040.99" width="4280.72" height="1.68" rx="0.84"/><path class="cls-2" d="M4236.74,1041.82c-65.54,0-1070.58.08-1070.58,0-36.81-37.32-47.66-126.43,32.07-212.49,29.21-31.51-48.27-92,2-188.92,19.12-36.84,95.46-100.18,296.94-51,85.67,20.89,158.36-12.47,174.46-24.52A178.59,178.59,0,0,1,3701.28,547c110.88-53.65,302.46-19.48,386.08,45,11.85,9.14,65.73,56.44,23.26,121.44-26.82,41,85.53,80.25,125.45,127.12C4337.58,959.76,4237.66,1040.27,4236.74,1041.82Z"/><path class="cls-3" d="M3357.89,761.9v.67c0,12.8-10.85,23.22-24.18,23.22h-72.46c-8.05,0-14.59,6.28-14.59,14V802c0,7.73,6.54,14,14.59,14h80a3,3,0,0,1,2.95,3,6.25,6.25,0,0,1-1.84,4.42,6.19,6.19,0,0,1-4.42,1.83h-76.69c-13.33,0-24.18-10.41-24.18-23.21V799.8c0-12.79,10.85-23.21,24.18-23.21h72.46c8.05,0,14.6-6.29,14.6-14v-.67c0-7.73-6.55-14-14.6-14H3259.9c-13.33,0-24.17-10.41-24.17-23.21v-3.11c0-12.81,10.84-23.22,24.17-23.22h73.81c8.05,0,14.6-6.29,14.6-14s-6.55-14-14.6-14H3188.2q1.31-4.53,3-9.19h142.54c13.33,0,24.18,10.41,24.18,23.21s-10.85,23.22-24.18,23.22H3259.9c-8,0-14.6,6.29-14.6,14v3.11c0,7.73,6.56,14,14.6,14h73.81C3347,738.69,3357.89,749.1,3357.89,761.9Z"/><rect class="cls-4" x="3792.75" y="663.86" width="123.87" height="2.78"/><path class="cls-4" d="M3791.32,664.84a2.94,2.94,0,1,1,2.94,2.94A2.94,2.94,0,0,1,3791.32,664.84Z"/><path class="cls-4" d="M3912.84,664.84a2.94,2.94,0,1,1,2.94,2.94A2.94,2.94,0,0,1,3912.84,664.84Z"/><path class="cls-5" d="M3904.59,663.94v95.77c-9.51,1.63-34.32.23-48.47,1.86s-46.26-.56-46.26-.56V664.38a2.86,2.86,0,0,1,2.87-2.87l89.3-.14A2.56,2.56,0,0,1,3904.59,663.94Z"/><path class="cls-6" d="M3904.59,722.41v37.3c-9.51,1.63-34.32.23-48.47,1.86s-46.26-.56-46.26-.56v-35.9c.22-1.28.35-2,.35-2a324.3,324.3,0,0,0,38.95.44C3867.39,722.38,3889.29,725.35,3904.59,722.41Z"/><path class="cls-7" d="M3827.23,744.33c-7.75,0-16.81-.37-17.32-.39l.1-2.32c.16,0,16.73.69,24.23.23l1.77-.1c9.09-.57,28-1.74,35.92-.42,8.12,1.35,33.18-.31,33.44-.33l.15,2.32c-1,.07-25.59,1.69-34,.29-7.64-1.27-27.08-.06-35.38.45l-1.78.11C3832.43,744.29,3829.91,744.33,3827.23,744.33Z"/><path class="cls-7" d="M3827.23,749.44c-7.75,0-16.81-.38-17.32-.4l.1-2.32c.16,0,16.73.69,24.23.24l1.77-.11c9.09-.57,28-1.74,35.92-.42,8.12,1.35,33.18-.31,33.44-.32l.15,2.31c-1,.07-25.59,1.7-34,.3-7.64-1.28-27.08-.07-35.38.44l-1.78.11C3832.43,749.39,3829.91,749.44,3827.23,749.44Z"/><rect class="cls-4" x="3642.53" y="638.68" width="114.78" height="146.17"/><rect class="cls-3" x="3647.18" y="643.26" width="105.47" height="137.59"/><rect class="cls-3" x="3286.98" y="866.14" width="141.82" height="174.58"/><rect class="cls-8" x="3286.98" y="892.17" width="141.82" height="2.37"/><path class="cls-8" d="M3328.94,889.86h-37.69V869.71h37.69Zm-37.22-.48h36.75v-19.2h-36.75Z"/><path class="cls-8" d="M3349.45,879.78a6.76,6.76,0,1,1,6.76,6.76A6.76,6.76,0,0,1,3349.45,879.78Z"/><path class="cls-8" d="M3367.71,879.78a5.51,5.51,0,1,1,5.5,5.51A5.5,5.5,0,0,1,3367.71,879.78Z"/><rect class="cls-8" x="3387.34" y="873.31" width="30.19" height="12.95"/><circle class="cls-8" cx="3356.21" cy="959.42" r="52.55"/><circle class="cls-9" cx="3356.21" cy="959.42" r="42.25" transform="translate(-43.26 166.8) rotate(-2.83)"/><rect class="cls-8" x="3388.52" y="952.32" width="15.62" height="18.46" rx="4.7"/><rect class="cls-3" x="3627.32" y="863.77" width="157.47" height="176.65"/><rect class="cls-8" x="3627.32" y="917.96" width="157.47" height="2.09"/><rect class="cls-8" x="3692.87" y="869.81" width="28.56" height="3.5" rx="1.05"/><rect class="cls-8" x="3627.32" y="982.07" width="157.47" height="2.09"/><rect class="cls-8" x="3692.87" y="924.37" width="28.56" height="3.5" rx="1.05"/><rect class="cls-8" x="3692.87" y="991.34" width="28.56" height="3.5" rx="1.05"/><rect class="cls-9" x="3617.51" y="854.56" width="175.97" height="11.58"/><path class="cls-9" d="M3697.78,829.33h0a3.52,3.52,0,0,1-3.51-3.51v-32a3.52,3.52,0,0,1,3.51-3.51h0a3.52,3.52,0,0,1,3.52,3.51v32A3.52,3.52,0,0,1,3697.78,829.33Z"/><path class="cls-3" d="M3757.87,829.33c0,10.82-11.69,20.26-29,25.26h-57c-17.34-5-29-14.44-29-25.26Z"/><path class="cls-10" d="M3760.7,829.33H3640a2.53,2.53,0,0,1-2.53-2.53h0a2.54,2.54,0,0,1,2.53-2.53H3760.7a2.54,2.54,0,0,1,2.54,2.53h0A2.54,2.54,0,0,1,3760.7,829.33Z"/><path class="cls-11" d="M3467.15,1041.86s-6.72-10.64-25.81-8.4-32.67,12.49-78.19,1-41.41,9.1-67.33,4.67-37.3,2.69-37.3,2.69Z"/><rect class="cls-12" x="3434.39" y="923.41" width="3.76" height="19.92" transform="translate(191.33 2399.49) rotate(-39.51)"/><path class="cls-12" d="M3428.2,919.06v0c.8,1.27,1.1,2.9.06,4-1.4,1.45-3.08.89-4.32-.62,0,0-.32-.39-.33-.39-.43-.53-1.58.62-1.5,1.29a5.34,5.34,0,0,0,1.67,3.34,5.42,5.42,0,1,0,5.85-8.92C3428.9,917.44,3427.76,918.38,3428.2,919.06Z"/><path class="cls-12" d="M3444.11,948.23h0c-.8-1.27-1.1-2.91-.06-4,1.4-1.44,3.08-.88,4.32.63,0,0,.32.38.33.39.43.53,1.58-.62,1.5-1.3a5.42,5.42,0,0,0-8.33-3.94,5.42,5.42,0,0,0-1.23,8,5.31,5.31,0,0,0,2,1.53C3443.41,949.86,3444.55,948.91,3444.11,948.23Z"/><path class="cls-13" d="M3434.94,938.08c3.47.55,11.53-1.86,12.12-1.92,5-.48.18-5.4.18-5.4s-7.86-1.72-9.18-1.62a13.2,13.2,0,0,0-1.92.36l1.35,1.32s-6.55.69-6.62,2.21A5.08,5.08,0,0,0,3434.94,938.08Z"/><path class="cls-13" d="M3438.06,929.14l-5.57.67c0,1.47,4.29,1,4.5,1.71s1.19-1,1.19-1Z"/><path class="cls-13" d="M3490,929.58s-7.5.74-7,1.53,3.77,1.14,3.77,1.14l2.63-1.69Z"/><path class="cls-14" d="M3445.69,933.2c-1.2-3.49.48-4.57.48-4.57s34.32-16.28,37.13-18.07S3505,874.4,3505,874.4s7-14,15.91-13.77c7.74.25,12,5.07,14.43,10.13a16.23,16.23,0,0,1-2.94,18c-10.27,10.87-30.91,32.41-36.26,35.68-11.9,7.27-47.56,13.16-47.56,13.16A11.68,11.68,0,0,1,3445.69,933.2Z"/><path class="cls-15" d="M3450.72,970.5c5.18,6,16.1,9.82,37.18,10.8,1.69.08,3.39.15,5.1.2s3.53.09,5.29.11c5.73.08,11.43,0,16.86-.16,5.26-.18,10.28-.47,14.82-.85,8.89-.74,16-1.82,19.65-3.05a7.13,7.13,0,0,0,2.33-1.14,4,4,0,0,0,.91-1.18c1.33-2.47.64-6.51-1-11-2.34-6.48-6.64-13.83-9.53-18.43-.58-.92-1.1-1.72-1.54-2.4-.88-1.35-1.43-2.14-1.43-2.14s-9.84.92-23.32,2.67c-2.75.35-5.66.74-8.65,1.17-29,4.1-57.86,11.46-57.83,21.24C3449.59,967.86,3449.5,969.09,3450.72,970.5Z"/><path class="cls-16" d="M3486.6,981.18c1.76.06,9.93.41,11.69.43,5.73.08,11.43,0,16.86-.16l5.11-20.58C3512.36,971.88,3489.14,980.47,3486.6,981.18Z"/><path class="cls-16" d="M3503.67,1041h-28.09a5,5,0,0,1,4.12-2.92c4.42-.78,12.1-3.17,11.12-9.56s9.78-7.31,9.78-7.31S3505.08,1038.49,3503.67,1041Z"/><path class="cls-15" d="M3450.26,969.44s34.85,54.83,37.75,61.34c0,0,11.86,1.1,14.71-7.37,0,0-20.72-57.86-29.82-62.62S3450.26,969.44,3450.26,969.44Z"/><path class="cls-13" d="M3520.54,854s-12,16.42-22.7,17.3a32.9,32.9,0,0,1,2.49-6.86,7.22,7.22,0,0,0-.13-6.86.93.93,0,0,1,0-.1,65.48,65.48,0,0,1-3-5.94l4.92-8.91,1-4.78a32.51,32.51,0,0,0,2.89,6A22.8,22.8,0,0,0,3520.54,854Z"/><path class="cls-17" d="M3506.41,843.8a13.81,13.81,0,0,1-6.26,13.69,65.48,65.48,0,0,1-3-5.94l4.92-8.91C3506,842.06,3506.41,843.8,3506.41,843.8Z"/><path class="cls-13" d="M3495.62,856.51s15.05-8.2,9.8-17.5-6.85-16.61-16.68-11.77-9.68,9.44-8.68,13S3491.57,858.4,3495.62,856.51Z"/><path class="cls-15" d="M3505.37,820.5c.08-.23.37-.51,1.13-.85a3.37,3.37,0,0,0-1.61.15c-.58-1-1.9-2.74-3.93-2.5a2.52,2.52,0,0,1,1.78,1.27c-3-1.41-8.22-1.26-20.53,4.66-16.22,7.82-6.5,16.57-3.83,17s6.75-5.2,10.91-6.44,7.23,4.4,8.91,4.68.59-.94,2.12-2.51,2.9,1.48,3.15,3.72,2.94,4.09,2.94,4.09.89-.16,2.38-4-.7-16.68-2.85-18.77Z"/><path class="cls-1" d="M3595.25,1023s3.5,5.32,4.31,7-.78,5.39-3.18,5.94c-2.12.48-2.44,4.24-2.44,4.24h10.27a2.69,2.69,0,0,0,2.48-1.52c1.45-3.19,1.78-7.33,2.07-8.72.62-2.91,1.83-5.36,1.29-8.32s-5.59-4.67-14.8-4.64C3585.12,1017.08,3595.25,1023,3595.25,1023Z"/><path class="cls-6" d="M3565.07,959c-7.75,8.21-64.59-8.76-59.83-13.09,1.22-1.09.8-2.41,1.29-4.18,2.36-8.39-2.33-22.75-4.35-28.32-.47-1.29-.79-2.1-.85-2.27a97.81,97.81,0,0,1-4.38-15.83c-1.87-10-1.84-19.36.72-25.07l0-.08c10.65-3.11,16.51-18.78,16.51-18.78s33.74,9.58,46,57.72c0,0,.63,3.06,1.41,7.67h0c.23,1.41.49,3,.74,4.64,1.31,8.56,2.07,19.54,2.84,27.72,0,.29.06.57.09.87C3565.68,953.48,3566.35,957.59,3565.07,959Z"/><path class="cls-5" d="M3520.3,950.81s5.67.75,17.1,1.59c11.84.88,24.4,2.75,26.44,6.73.67,1.31.2,4.65-1.12,9.25-2.92,10.19-10,26.59-18.08,41.13,20.76,1.2,49,5.78,49,5.78a12.42,12.42,0,0,1,2.68,11.34c-1.48,0-5.93.64-12,1.62-22,3.55-48.85,10.84-65.49,10.84-3.64,0-6.36-2.58-7.47-6h0C3504.52,1012.32,3520.3,950.81,3520.3,950.81Z"/><path class="cls-16" d="M3562.72,969.93c-11.46-.36-40.2-14.47-39.73-14.58a137.85,137.85,0,0,1,14.41-2.81c11.84,1,24.4,3,26.44,7.32C3564.51,961.29,3564,964.92,3562.72,969.93Z"/><path class="cls-5" d="M3519.88,853.68s-14.42,3-15.83,15.63c-1,9.2,6.28,30,6.28,30l4.68-1.91s-8.84-25.73-7.48-30.11c1.75-5.61,10-14,17.66-10.65Z"/><path class="cls-5" d="M3565.07,959c-7.75,8.21-65.81-8.58-61.05-12.91a8.93,8.93,0,0,0,2.51-4.36c2.36-8.39-2.33-22.75-4.35-28.32-.47-1.29-4.91-16.58-5-16.74l16.35-3.54s4.63,8,10.63,12a66.29,66.29,0,0,0,37.42,11.59h0c.23,1.41.49,3,.74,4.64,1.31,8.56,2.07,19.54,2.84,27.72,0,.29.06.57.09.87C3565.68,953.48,3566.35,957.59,3565.07,959Z"/><path class="cls-13" d="M3501.09,928.92a30.94,30.94,0,0,1-5.37.7c-2.5.09-5.14-.38-6.34.12-2.53,1.06-10.55,6.57-6.68,8.93a8.92,8.92,0,0,0,10.51-.61c2.64-2.15,9.83-2.32,9.83-2.32Z"/><path class="cls-18" d="M3528,865.27c17.38,5,28,46.74,25.52,59.23S3502,937.64,3502,937.64s-2.76-2.16-3.09-4.39a10,10,0,0,1,0-4.15s31-8.42,31.75-12-14.94-22.58-14.71-32.88S3518.56,862.54,3528,865.27Z"/><path class="cls-2" d="M44.83,1041.82c65.54,0,1070.57.08,1070.57,0,36.82-37.32,47.66-126.43-32.07-212.49-29.2-31.51,48.28-92-2-188.92-19.11-36.84-95.46-100.18-296.93-51C698.71,610.27,626,576.91,609.92,564.86A179,179,0,0,0,580.29,547c-110.88-53.65-302.46-19.48-386.08,45-11.85,9.14-65.74,56.44-23.27,121.44,26.82,41-85.53,80.25-125.45,127.12C-56,959.76,43.91,1040.27,44.83,1041.82Z"/><path class="cls-3" d="M923.68,761.9v.67c0,12.8,10.84,23.22,24.17,23.22h72.46c8,0,14.6,6.28,14.6,14V802c0,7.73-6.55,14-14.6,14h-80a3,3,0,0,0-3,3,6.25,6.25,0,0,0,6.25,6.25h76.69c13.33,0,24.18-10.41,24.18-23.21V799.8c0-12.79-10.85-23.21-24.18-23.21H947.85c-8,0-14.6-6.29-14.6-14v-.67c0-7.73,6.56-14,14.6-14h73.81c13.33,0,24.18-10.41,24.18-23.21v-3.11c0-12.81-10.85-23.22-24.18-23.22H947.85c-8,0-14.6-6.29-14.6-14s6.56-14,14.6-14h145.51c-.87-3-1.85-6.08-3-9.19H947.85c-13.33,0-24.17,10.41-24.17,23.21s10.84,23.22,24.17,23.22h73.81c8.05,0,14.6,6.29,14.6,14v3.11c0,7.73-6.55,14-14.6,14H947.85C934.52,738.69,923.68,749.1,923.68,761.9Z"/><rect class="cls-4" x="364.94" y="663.86" width="123.87" height="2.78" transform="translate(853.75 1330.5) rotate(-180)"/><path class="cls-4" d="M490.24,664.84a2.94,2.94,0,1,0-2.94,2.94A2.93,2.93,0,0,0,490.24,664.84Z"/><path class="cls-4" d="M368.72,664.84a2.94,2.94,0,1,0-2.93,2.94A2.93,2.93,0,0,0,368.72,664.84Z"/><path class="cls-5" d="M377,663.94v95.77c9.51,1.63,34.33.23,48.48,1.86s46.26-.56,46.26-.56V664.38a2.87,2.87,0,0,0-2.87-2.87l-89.3-.14A2.57,2.57,0,0,0,377,663.94Z"/><path class="cls-6" d="M377,722.41v37.3c9.51,1.63,34.33.23,48.48,1.86s46.26-.56,46.26-.56v-35.9c-.23-1.28-.35-2-.35-2a324.38,324.38,0,0,1-38.95.44C414.18,722.38,392.27,725.35,377,722.41Z"/><path class="cls-7" d="M454.33,744.33c7.75,0,16.82-.37,17.33-.39l-.1-2.32c-.17,0-16.73.69-24.24.23l-1.77-.1c-9.09-.57-28-1.74-35.91-.42-8.12,1.35-33.19-.31-33.44-.33l-.16,2.32c1,.07,25.6,1.69,34,.29,7.65-1.27,27.09-.06,35.39.45l1.77.11C449.14,744.29,451.66,744.33,454.33,744.33Z"/><path class="cls-7" d="M454.33,749.44c7.75,0,16.82-.38,17.33-.4l-.1-2.32c-.17,0-16.73.69-24.24.24l-1.77-.11c-9.09-.57-28-1.74-35.91-.42-8.12,1.35-33.19-.31-33.44-.32l-.16,2.31c1,.07,25.6,1.7,34,.3,7.65-1.28,27.09-.07,35.39.44l1.77.11C449.14,749.39,451.66,749.44,454.33,749.44Z"/><rect class="cls-4" x="524.26" y="638.68" width="114.78" height="146.17" transform="translate(1163.3 1423.54) rotate(-180)"/><rect class="cls-3" x="528.91" y="643.26" width="105.47" height="137.59" transform="translate(1163.3 1424.1) rotate(-180)"/><rect class="cls-3" x="852.76" y="866.14" width="141.82" height="174.58" transform="translate(1847.35 1906.86) rotate(-180)"/><rect class="cls-8" x="852.76" y="892.17" width="141.82" height="2.37" transform="translate(1847.35 1786.71) rotate(-180)"/><path class="cls-8" d="M952.62,869.71h37.7v20.15h-37.7Zm37.23.47H953.1v19.2h36.75Z"/><path class="cls-8" d="M932.11,879.78a6.76,6.76,0,1,0-6.75,6.76A6.75,6.75,0,0,0,932.11,879.78Z"/><path class="cls-8" d="M913.86,879.78a5.51,5.51,0,1,0-5.51,5.51A5.51,5.51,0,0,0,913.86,879.78Z"/><rect class="cls-8" x="864.03" y="873.31" width="30.19" height="12.95" transform="translate(1758.26 1759.57) rotate(-180)"/><circle class="cls-8" cx="925.36" cy="959.42" r="52.55"/><circle class="cls-9" cx="925.36" cy="959.42" r="42.25" transform="translate(-78.56 1836.3) rotate(-87.17)"/><rect class="cls-8" x="877.43" y="952.32" width="15.62" height="18.46" rx="4.7" transform="translate(1770.48 1923.09) rotate(-180)"/><rect class="cls-3" x="496.78" y="863.77" width="157.47" height="176.65" transform="translate(1151.02 1904.2) rotate(-180)"/><rect class="cls-8" x="496.78" y="917.96" width="157.47" height="2.09" transform="translate(1151.02 1838.02) rotate(-180)"/><rect class="cls-8" x="560.14" y="869.81" width="28.56" height="3.5" rx="1.05" transform="translate(1148.84 1743.12) rotate(180)"/><rect class="cls-8" x="496.78" y="982.07" width="157.47" height="2.09" transform="translate(1151.02 1966.23) rotate(-180)"/><rect class="cls-8" x="560.14" y="924.37" width="28.56" height="3.5" rx="1.05" transform="translate(1148.84 1852.25) rotate(-180)"/><rect class="cls-8" x="560.14" y="991.34" width="28.56" height="3.5" rx="1.05" transform="translate(1148.84 1986.18) rotate(-180)"/><rect class="cls-9" x="488.09" y="854.56" width="175.97" height="11.58" transform="translate(1152.14 1720.7) rotate(-180)"/><path class="cls-9" d="M583.78,829.33h0a3.53,3.53,0,0,0,3.52-3.51v-32a3.53,3.53,0,0,0-3.52-3.51h0a3.53,3.53,0,0,0-3.52,3.51v32A3.53,3.53,0,0,0,583.78,829.33Z"/><path class="cls-3" d="M523.7,829.33c0,10.82,11.69,20.26,29,25.26h57c17.34-5,29-14.44,29-25.26Z"/><path class="cls-10" d="M520.86,829.33H641.57a2.54,2.54,0,0,0,2.54-2.53h0a2.54,2.54,0,0,0-2.54-2.53H520.86a2.54,2.54,0,0,0-2.53,2.53h0A2.53,2.53,0,0,0,520.86,829.33Z"/><path class="cls-11" d="M814.41,1041.86s6.73-10.64,25.81-8.4,32.67,12.49,78.19,1,41.42,9.1,67.34,4.67,37.3,2.69,37.3,2.69Z"/><rect class="cls-12" x="843.41" y="923.41" width="3.76" height="19.92" transform="translate(903.61 2191.27) rotate(-140.49)"/><path class="cls-12" d="M853.37,919.06v0c-.81,1.27-1.11,2.9-.06,4,1.4,1.45,3.08.89,4.32-.62l.32-.39c.43-.53,1.59.62,1.51,1.29a5.42,5.42,0,1,1-7.53-5.58C852.67,917.44,853.81,918.38,853.37,919.06Z"/><path class="cls-12" d="M837.46,948.23h0c.81-1.27,1.11-2.91.06-4-1.4-1.44-3.07-.88-4.32.63l-.32.39c-.43.53-1.58-.62-1.51-1.3a5.42,5.42,0,1,1,9.57,4.06,5.39,5.39,0,0,1-2,1.53C838.16,949.86,837,948.91,837.46,948.23Z"/><path class="cls-13" d="M846.62,938.08c-3.46.55-11.52-1.86-12.11-1.92-5-.48-.18-5.4-.18-5.4s7.86-1.72,9.18-1.62a13.45,13.45,0,0,1,1.92.36l-1.36,1.32s6.55.69,6.62,2.21A5.06,5.06,0,0,1,846.62,938.08Z"/><path class="cls-13" d="M843.51,929.14l5.56.67c0,1.47-4.28,1-4.49,1.71s-1.2-1-1.2-1Z"/><path class="cls-13" d="M791.58,929.58s7.49.74,7,1.53-3.77,1.14-3.77,1.14l-2.63-1.69Z"/><path class="cls-14" d="M835.87,933.2c1.21-3.49-.47-4.57-.47-4.57s-34.33-16.28-37.13-18.07-21.68-36.16-21.68-36.16-7-14-15.9-13.77c-7.74.25-12,5.07-14.43,10.13a16.21,16.21,0,0,0,2.93,18c10.28,10.87,30.92,32.41,36.27,35.68,11.9,7.27,47.56,13.16,47.56,13.16A11.59,11.59,0,0,0,835.87,933.2Z"/><path class="cls-15" d="M830.85,970.5c-5.18,6-16.1,9.82-37.18,10.8-1.69.08-3.4.15-5.11.2s-3.52.09-5.28.11c-5.73.08-11.43,0-16.86-.16-5.27-.18-10.28-.47-14.83-.85-8.89-.74-16-1.82-19.65-3.05a7.06,7.06,0,0,1-2.32-1.14,4,4,0,0,1-.92-1.18c-1.32-2.47-.63-6.51,1-11,2.34-6.48,6.63-13.83,9.53-18.43q.87-1.38,1.53-2.4c.89-1.35,1.43-2.14,1.43-2.14s9.85.92,23.33,2.67c2.75.35,5.65.74,8.65,1.17,29,4.1,57.85,11.46,57.83,21.24C832,967.86,832.07,969.09,830.85,970.5Z"/><path class="cls-16" d="M795,981.18c-1.76.06-9.93.41-11.69.43-5.73.08-11.43,0-16.86-.16l-5.11-20.58C769.21,971.88,792.43,980.47,795,981.18Z"/><path class="cls-16" d="M777.9,1041H806a5,5,0,0,0-4.12-2.92c-4.43-.78-12.11-3.17-11.12-9.56s-9.78-7.31-9.78-7.31S776.49,1038.49,777.9,1041Z"/><path class="cls-15" d="M831.31,969.44s-34.86,54.83-37.75,61.34c0,0-11.86,1.1-14.71-7.37,0,0,20.71-57.86,29.82-62.62S831.31,969.44,831.31,969.44Z"/><path class="cls-13" d="M761,854s12,16.42,22.69,17.3a33.2,33.2,0,0,0-2.48-6.86,7.25,7.25,0,0,1,.12-6.86l.06-.1a63.31,63.31,0,0,0,3-5.94l-4.92-8.91-1-4.78a31.89,31.89,0,0,1-2.89,6A22.77,22.77,0,0,1,761,854Z"/><path class="cls-17" d="M775.15,843.8a13.8,13.8,0,0,0,6.27,13.69,63.31,63.31,0,0,0,3-5.94l-4.92-8.91C775.6,842.06,775.15,843.8,775.15,843.8Z"/><path class="cls-13" d="M786,856.51s-15.06-8.2-9.8-17.5,6.84-16.61,16.67-11.77,9.69,9.44,8.69,13S790,858.4,786,856.51Z"/><path class="cls-15" d="M776.2,820.5c-.08-.23-.38-.51-1.13-.85a3.33,3.33,0,0,1,1.6.15c.58-1,1.9-2.74,3.93-2.5a2.54,2.54,0,0,0-1.78,1.27c3-1.41,8.22-1.26,20.53,4.66,16.23,7.82,6.51,16.57,3.84,17s-6.75-5.2-10.92-6.44-7.22,4.4-8.91,4.68-.59-.94-2.11-2.51-2.91,1.48-3.16,3.72-2.94,4.09-2.94,4.09-.88-.16-2.37-4,.69-16.68,2.85-18.77Z"/><path class="cls-1" d="M686.32,1023s-3.5,5.32-4.32,7,.79,5.39,3.19,5.94c2.12.48,2.43,4.24,2.43,4.24H677.36a2.71,2.71,0,0,1-2.49-1.52c-1.45-3.19-1.78-7.33-2.07-8.72-.61-2.91-1.82-5.36-1.29-8.32s5.59-4.67,14.81-4.64C696.44,1017.08,686.32,1023,686.32,1023Z"/><path class="cls-6" d="M716.5,959c7.74,8.21,64.59-8.76,59.82-13.09-1.21-1.09-.8-2.41-1.29-4.18-2.36-8.39,2.34-22.75,4.35-28.32.47-1.29.79-2.1.86-2.27a98.84,98.84,0,0,0,4.38-15.83c1.87-10,1.84-19.36-.73-25.07,0,0,0-.06,0-.08-10.65-3.11-16.51-18.78-16.51-18.78s-33.73,9.58-46,57.72c0,0-.63,3.06-1.41,7.67h0c-.24,1.41-.49,3-.74,4.64-1.31,8.56-2.07,19.54-2.85,27.72,0,.29-.05.57-.08.87C715.89,953.48,715.21,957.59,716.5,959Z"/><path class="cls-5" d="M761.26,950.81s-5.67.75-17.09,1.59c-11.85.88-24.4,2.75-26.44,6.73-.68,1.31-.21,4.65,1.11,9.25,2.93,10.19,10,26.59,18.09,41.13-20.77,1.2-49,5.78-49,5.78a12.44,12.44,0,0,0-2.69,11.34c1.49,0,5.94.64,12,1.62,22,3.55,48.86,10.84,65.5,10.84,3.63,0,6.36-2.58,7.46-6h0C777.05,1012.32,761.26,950.81,761.26,950.81Z"/><path class="cls-16" d="M718.84,969.93c11.46-.36,40.21-14.47,39.74-14.58a138.35,138.35,0,0,0-14.41-2.81c-11.85,1-24.4,3-26.44,7.32C717.05,961.29,717.52,964.92,718.84,969.93Z"/><path class="cls-5" d="M761.68,853.68s14.42,3,15.83,15.63c1,9.2-6.28,30-6.28,30l-4.67-1.91s8.83-25.73,7.47-30.11c-1.74-5.61-10-14-17.65-10.65Z"/><path class="cls-5" d="M716.5,959c7.74,8.21,65.81-8.58,61-12.91a8.87,8.87,0,0,1-2.52-4.36c-2.36-8.39,2.34-22.75,4.35-28.32.47-1.29,4.91-16.58,5-16.74L768,893.08s-4.63,8-10.64,12A66.27,66.27,0,0,1,720,916.72h0c-.24,1.41-.49,3-.74,4.64-1.31,8.56-2.07,19.54-2.85,27.72,0,.29-.05.57-.08.87C715.89,953.48,715.21,957.59,716.5,959Z"/><path class="cls-13" d="M780.48,928.92a30.94,30.94,0,0,0,5.37.7c2.49.09,5.14-.38,6.34.12,2.53,1.06,10.55,6.57,6.67,8.93a8.9,8.9,0,0,1-10.5-.61c-2.65-2.15-9.84-2.32-9.84-2.32Z"/><path class="cls-18" d="M753.53,865.27c-17.39,5-28,46.74-25.53,59.23s51.53,13.14,51.53,13.14,2.76-2.16,3.08-4.39a9.75,9.75,0,0,0,0-4.15s-31-8.42-31.74-12,14.94-22.58,14.7-32.88S763,862.54,753.53,865.27Z"/><rect class="cls-19" width="4281.57" height="1040.99"/></g></g></svg>