<svg xmlns="http://www.w3.org/2000/svg" viewBox="0 0 4281.57 843.3"><defs><style>.cls-1{fill:#243962;}.cls-2{fill:none;}.cls-3{fill:#dbe8f7;}.cls-4{fill:#92a4d4;}.cls-5{fill:#d1dff3;}.cls-6{fill:#b0c0e3;}.cls-7{fill:#becfea;}.cls-8{fill:#bed7f0;}.cls-9{fill:#dee9f7;}.cls-10{fill:#b4d3ef;}.cls-11{fill:#751113;}.cls-12{fill:#d63044;}.cls-13{fill:#be1e2d;}.cls-14{fill:#faab77;}.cls-15{fill:#eaf3fb;}.cls-16{fill:#c3d0eb;}.cls-17{fill:#a0aed9;}.cls-18{fill:#e86524;}.cls-19{fill:#f79134;}.cls-20{fill:#f47621;}.cls-21{fill:#8facd9;}.cls-22{fill:#8d98cc;}.cls-23{fill:#c3ddf4;}.cls-24{fill:#344891;}.cls-25{fill:#f4fbfe;}.cls-26{fill:#447bbf;}.cls-27{fill:#1e3966;}.cls-28{fill:#f89a5f;}.cls-29{fill:#231f20;}.cls-30{fill:#2b3a68;}.cls-31{fill:#fab284;}.cls-32{fill:#ef7d2d;}.cls-33{fill:#f68730;}.cls-34{fill:#f89e58;}.cls-35{fill:#f9a03d;}.cls-36{fill:#da6127;}.cls-37{fill:#fff;}.cls-38{fill:#ed7a23;}.cls-39{fill:#234f9d;}.cls-40{fill:#f47b23;}.cls-41{fill:#f8cba6;}.cls-42{fill:#fedcbb;}.cls-43{fill:#72b571;}.cls-44{fill:#9dd199;}.cls-45{fill:#254790;}.cls-46{fill:#f5904e;}.cls-47{fill:#ed8822;}.cls-48{fill:#697abb;}.cls-49{fill:#f79351;}.cls-50{fill:#fcb315;}.cls-51{opacity:0.8;}</style></defs><g id="Layer_2" data-name="Layer 2"><g id="Layer_1-2" data-name="Layer 1"><rect class="cls-1" x="0.84" y="841.61" width="4280.72" height="1.68" rx="0.84"/><rect class="cls-2" width="4281.57" height="843.3"/><path class="cls-3" d="M1114.73,773.41c-13.15,42.6-35.38,67.21-35.81,68.2-66.22,0-1030.9.24-1031.45-1.48l-.1-.21a1.17,1.17,0,0,1-.09-.32c-.16-.35-25.63-41.69-39.12-101.89-19.1-85.27-14.14-208.36,121-306.38,90.19-65.43-5.64-108.62,66.07-181.46,71.2-72.3,148-13.06,226.68-20,34.55-3,62-18.61,86.05-43.05,56.47-57.4,144.62-68.9,224.45-56.28C809.59,142.72,884,178,928,224.1c12,12.55,66.42,77.48,23.5,166.73-27.1,56.35,86.43,110.17,126.77,174.51C1133,652.59,1129.76,724.74,1114.73,773.41Z"/><path class="cls-4" d="M254.14,654v4.72c0,1.65-.54,3-1.19,3H80.74c-.65,0-1.18-1.35-1.18-3V654c0-1.65.53-3,1.18-3H253C253.6,651,254.14,652.36,254.14,654Z"/><path class="cls-5" d="M254.14,654v4.72c0,1.65-.49,3-1.09,3H116.33c-.6,0-1.09-1.35-1.09-3V654c0-1.65.49-3,1.09-3H253.05C253.65,651,254.14,652.36,254.14,654Z"/><rect class="cls-6" x="88.3" y="661.73" width="122.26" height="178.19"/><rect class="cls-7" x="122.56" y="661.73" width="122.26" height="178.19"/><path class="cls-4" d="M238.24,830.08H129.13V666.76H238.24Zm-107.93-1.17H237.07v-161H130.31Z"/><rect class="cls-4" x="129.72" y="720.79" width="107.94" height="1.18"/><rect class="cls-4" x="129.72" y="775.87" width="107.94" height="1.18"/><path class="cls-4" d="M194.75,677.3h-20a1.77,1.77,0,0,1-1.77-1.77h0a1.77,1.77,0,0,1,1.77-1.77h20a1.77,1.77,0,0,1,1.76,1.77h0A1.77,1.77,0,0,1,194.75,677.3Z"/><path class="cls-4" d="M194.75,731.16h-20a1.77,1.77,0,0,1-1.77-1.77h0a1.76,1.76,0,0,1,1.77-1.76h20a1.76,1.76,0,0,1,1.76,1.76h0A1.77,1.77,0,0,1,194.75,731.16Z"/><path class="cls-4" d="M194.75,787.31h-20a1.77,1.77,0,0,1-1.77-1.77h0a1.77,1.77,0,0,1,1.77-1.77h20a1.77,1.77,0,0,1,1.76,1.77h0A1.77,1.77,0,0,1,194.75,787.31Z"/><rect class="cls-8" x="240.47" y="265.05" width="85.69" height="83.14" rx="14.09"/><rect class="cls-9" x="244.19" y="268.65" width="78.27" height="75.93" rx="12.87"/><path class="cls-10" d="M281.54,276.24a1.78,1.78,0,1,1,1.78,1.77A1.78,1.78,0,0,1,281.54,276.24Z"/><path class="cls-10" d="M295.87,278.74a1.78,1.78,0,1,1,.69,2.42A1.77,1.77,0,0,1,295.87,278.74Z"/><path class="cls-10" d="M308.14,288.49a1.78,1.78,0,1,1-.53,2.46A1.78,1.78,0,0,1,308.14,288.49Z"/><path class="cls-10" d="M314.22,303.58a1.78,1.78,0,1,1-1.78,1.78A1.78,1.78,0,0,1,314.22,303.58Z"/><circle class="cls-10" cx="309.86" cy="322.35" r="1.78"/><path class="cls-10" d="M300,332.27a1.77,1.77,0,1,1-2.51,2.51,1.76,1.76,0,0,1,0-2.51A1.78,1.78,0,0,1,300,332.27Z"/><path class="cls-10" d="M281.54,338a1.78,1.78,0,1,1,1.78,1.78A1.78,1.78,0,0,1,281.54,338Z"/><path class="cls-10" d="M270.71,278.74a1.78,1.78,0,1,0-.68,2.42A1.77,1.77,0,0,0,270.71,278.74Z"/><path class="cls-10" d="M258.44,288.49A1.78,1.78,0,1,0,259,291,1.78,1.78,0,0,0,258.44,288.49Z"/><path class="cls-10" d="M252.36,303.58a1.78,1.78,0,1,0,1.78,1.78A1.78,1.78,0,0,0,252.36,303.58Z"/><path class="cls-10" d="M255.47,321.09a1.78,1.78,0,1,0,2.51,0A1.79,1.79,0,0,0,255.47,321.09Z"/><path class="cls-10" d="M266.62,332.27a1.76,1.76,0,0,0,0,2.51,1.77,1.77,0,1,0,0-2.51Z"/><path class="cls-10" d="M282.84,305.36a1.78,1.78,0,1,1,1.78,1.77A1.78,1.78,0,0,1,282.84,305.36Z"/><rect class="cls-10" x="284.37" y="283.18" width="0.48" height="22.18"/><rect class="cls-10" x="282.8" y="299.99" width="14.95" height="1.45" transform="translate(-123.73 243.39) rotate(-38.13)"/><rect class="cls-11" x="83.07" y="562.17" width="96.07" height="88.83" transform="translate(262.21 1213.18) rotate(180)"/><rect class="cls-12" x="131.1" y="562.17" width="96.07" height="88.83" transform="translate(358.28 1213.18) rotate(180)"/><polygon class="cls-13" points="83.12 628.48 98.35 628.48 97.01 623.67 98.35 620.24 83.12 620.24 83.12 628.48"/><polygon class="cls-11" points="131.1 589.67 146.33 589.67 144.99 584.86 146.33 581.43 131.1 581.43 131.1 589.67"/><polygon class="cls-13" points="131.1 581.43 115.88 581.43 117.22 586.23 115.88 589.67 131.1 589.67 131.1 581.43"/><polygon class="cls-14" points="227.18 629.43 211.95 629.43 213.29 634.24 211.95 637.67 227.18 637.67 227.18 629.43"/><rect class="cls-15" x="461.77" y="585.86" width="31.13" height="179.54" rx="13.6"/><rect class="cls-15" x="504.2" y="585.86" width="31.13" height="179.54" rx="13.6"/><rect class="cls-15" x="546.62" y="585.86" width="31.13" height="179.54" rx="13.6"/><rect class="cls-15" x="589.05" y="585.86" width="31.13" height="179.54" rx="13.6"/><rect class="cls-15" x="631.48" y="585.86" width="31.13" height="179.54" rx="13.6"/><rect class="cls-15" x="673.91" y="585.86" width="31.13" height="179.54" rx="13.6"/><path class="cls-15" d="M720.34,128.79c-76.53-9.64-158.76,3.46-212.4,58-21.57,21.94-45.93,36.74-75.68,41.72V545.39H720.34Z"/><path class="cls-16" d="M732.39,555.7V130.5q-7.92-1.26-16-2.18V538.63H437.85V227.44a130.94,130.94,0,0,1-16,2.39V555.7Z"/><path class="cls-16" d="M419.48,540.74H736.21a13.5,13.5,0,0,1,13.5,13.5v2.33a0,0,0,0,1,0,0H405.65a0,0,0,0,1,0,0v-2A13.83,13.83,0,0,1,419.48,540.74Z"/><path class="cls-16" d="M583.17,140.27q-9.67,3.34-18.94,7.56V543.92h18.94Z"/><path class="cls-17" d="M576.8,348.72h-1.52a1.9,1.9,0,0,1-1.89-1.86l-.67-21.76a1.9,1.9,0,0,1,1.89-2h2.92a1.91,1.91,0,0,1,1.89,2l-.72,21.75A1.92,1.92,0,0,1,576.8,348.72Z"/><path class="cls-15" d="M764.15,650.44H675.66V644.9h88.49A16.94,16.94,0,0,0,781.06,628V141.59h5.55V628A22.48,22.48,0,0,1,764.15,650.44Z"/><path class="cls-6" d="M1018.47,837.58l-23.24-85.85h18.11l13.06,85.4a3,3,0,0,1-2.61,3.57h-1.65A4,4,0,0,1,1018.47,837.58Z"/><path class="cls-6" d="M758.55,837.58l23.24-85.85H763.68l-13,85.4a2.94,2.94,0,0,0,2.6,3.57h1.65A4,4,0,0,0,758.55,837.58Z"/><path class="cls-6" d="M900,837.58l-23.24-85.85h18.11l13.05,85.4a2.94,2.94,0,0,1-2.6,3.57h-1.65A4,4,0,0,1,900,837.58Z"/><path class="cls-18" d="M1033.26,547.55s-48.09-10.5-140.88,0L881.73,655.72l127.4-6.3Z"/><path class="cls-19" d="M746.35,710.59s-9.12-96.82,32.54-96.82,48.17-.33,46.22-38.88c-1.59-31.63,73.81-28.74,73.81-28.74l-33,164.44Z"/><path class="cls-20" d="M770.19,710.59s-9.13-96.82,32.53-96.82,54.13-6.56,59.93-44.72c3.84-25.33,44.88-23.07,44.88-23.07A34.55,34.55,0,0,0,895.42,570c-2,35.31-5.66,140.55-5.66,140.55Z"/><path class="cls-18" d="M770.15,710.59s-1.25-9.46,4.74-13.79c15.06-10.87,40.11-24.52,72.7-26.37,55.25-3.16,90.43,40.16,90.43,40.16Z"/><path class="cls-21" d="M896.25,760.63S884,760.35,881.71,770l-3.26-12.35h17.47Z"/><path class="cls-21" d="M1014.71,760.69s-12.27-.41-14.56,9.22l-3.36-12.31h17.48Z"/><path class="cls-21" d="M762.52,759.32s14.35-.43,14.94,8.43l2.74-10.13H762.78Z"/><rect class="cls-6" x="952.88" y="423.4" width="3.54" height="267.33" transform="translate(241.44 -287.33) rotate(19.55)"/><path class="cls-6" d="M932.35,697,883.7,679.72h0a6.71,6.71,0,0,1,8.58-4.08l36,12.78a6.71,6.71,0,0,1,4.08,8.58Z"/><path class="cls-6" d="M989.45,506.3a.65.65,0,0,1,.83-.39.65.65,0,1,1-.83.39Z"/><path class="cls-6" d="M989.87,505.12a.65.65,0,1,1,1.22.43.65.65,0,0,1-1.22-.43Z"/><path class="cls-6" d="M989,507.49a.66.66,0,0,1,.83-.4.65.65,0,0,1,.39.83.65.65,0,0,1-1.22-.43Z"/><path class="cls-6" d="M988.6,508.7a.65.65,0,1,1,.4.83A.65.65,0,0,1,988.6,508.7Z"/><path class="cls-6" d="M988.19,511.22a.65.65,0,0,1,1.29.14.66.66,0,0,1-.72.58A.65.65,0,0,1,988.19,511.22Z"/><path class="cls-6" d="M988.33,510a.65.65,0,1,1,.57.71A.64.64,0,0,1,988.33,510Z"/><path class="cls-6" d="M988.05,512.47a.65.65,0,1,1,.58.72A.65.65,0,0,1,988.05,512.47Z"/><path class="cls-6" d="M987.91,513.75a.65.65,0,1,1,.57.71A.64.64,0,0,1,987.91,513.75Z"/><path class="cls-6" d="M987.82,516.25a.65.65,0,1,1,1.28-.18.65.65,0,1,1-1.28.18Z"/><path class="cls-6" d="M987.84,515a.65.65,0,1,1,1.28-.18.65.65,0,0,1-1.28.18Z"/><path class="cls-6" d="M987.87,517.5a.65.65,0,1,1,.74.55A.65.65,0,0,1,987.87,517.5Z"/><path class="cls-6" d="M988.29,518.66a.65.65,0,1,1,1.28-.18.65.65,0,0,1-1.28.18Z"/><path class="cls-6" d="M990,521a.65.65,0,1,1,.92,0A.65.65,0,0,1,990,521Z"/><path class="cls-6" d="M989.16,520.09a.65.65,0,1,1,.92,0A.65.65,0,0,1,989.16,520.09Z"/><path class="cls-6" d="M990.92,521.89a.65.65,0,1,1,.92,0A.65.65,0,0,1,990.92,521.89Z"/><path class="cls-6" d="M991.82,522.81a.65.65,0,1,1,.92,0A.65.65,0,0,1,991.82,522.81Z"/><polygon class="cls-22" points="1002.89 511.53 943.91 490.59 978.41 418.79 1021.4 434.05 1002.89 511.53"/><path class="cls-19" d="M795.66,492.54l-.13.24h0l-.13.23c-1.35,1.89-7.64.6-14.28-3s-11.17-8.11-10.34-10.28l.12-.23v0c0-.08.08-.16.13-.24a14,14,0,1,1,24.63,13.27Z"/><path class="cls-22" d="M795.53,492.78h0l0,.08c0,.06-.06.1-.09.15-1.35,1.89-7.64.6-14.27-3s-11.18-8.11-10.35-10.28a1.19,1.19,0,0,1,.08-.16.25.25,0,0,1,0-.07v0c.9-1.38,4.28-1.15,8.53.35a40,40,0,0,1,5.78,2.58,45.08,45.08,0,0,1,4.31,2.65C793.74,488.06,796.25,491.13,795.53,492.78Z"/><path class="cls-23" d="M789.52,485.09a5.65,5.65,0,0,1-3.24,2.12,5.77,5.77,0,0,1-7-4.26,5.86,5.86,0,0,1,.11-3.09,40,40,0,0,1,5.78,2.58A45.08,45.08,0,0,1,789.52,485.09Z"/><polygon class="cls-24" points="818.9 540.82 817.65 541.12 812.5 519.64 817.45 484.01 790.43 471.82 790.95 470.65 818.85 483.24 813.8 519.57 818.9 540.82"/><path class="cls-24" d="M788.39,474.69h0a1.31,1.31,0,0,1-.73-1.7l1.26-3.13a1.31,1.31,0,0,1,1.7-.73h0a1.31,1.31,0,0,1,.73,1.7L790.09,474A1.31,1.31,0,0,1,788.39,474.69Z"/><path class="cls-24" d="M816.17,483.92a1.7,1.7,0,1,1,2.05,1.26A1.71,1.71,0,0,1,816.17,483.92Z"/><path class="cls-24" d="M815.09,540.35h6.49a3.21,3.21,0,0,1,3.21,3.21V544a0,0,0,0,1,0,0H811.88a0,0,0,0,1,0,0v-.46a3.21,3.21,0,0,1,3.21-3.21Z" transform="translate(-103.92 205.92) rotate(-13.49)"/><rect class="cls-24" x="814.52" y="520.73" width="2.71" height="20.52" transform="translate(-101.34 204.93) rotate(-13.49)"/><path class="cls-25" d="M806.91,687.25l32.34-.14a1.66,1.66,0,0,0,1.66-1.56,42,42,0,0,0-.31-9.19v0a1.66,1.66,0,0,0-2.05-1.26,12.66,12.66,0,0,1-7.39-.33,17.59,17.59,0,0,1-5.22-2.92,1.67,1.67,0,0,0-2.19,0c-2.24,2-7.33,6.39-10,6.4-3.17,0-7.85,1.42-8.51,7.11A1.68,1.68,0,0,0,806.91,687.25Z"/><path class="cls-25" d="M855.9,687.25l32.34-.14a1.67,1.67,0,0,0,1.66-1.56,42,42,0,0,0-.31-9.19v0a1.65,1.65,0,0,0-2.05-1.26,12.66,12.66,0,0,1-7.39-.33,17.72,17.72,0,0,1-5.22-2.92,1.66,1.66,0,0,0-2.18,0c-2.24,2-7.34,6.39-10,6.4-3.16,0-7.84,1.42-8.5,7.11A1.68,1.68,0,0,0,855.9,687.25Z"/><path class="cls-26" d="M820.65,672.63s14.21,6.75,22.55,2.12c0,0,3.26-11.59,7.14-28.45,3.23-14,6.88-31.52,9.49-49.1.14-.93.27-1.94.4-3,2.08-17.72,1.86-54.92-34.06-44.91Z"/><path class="cls-27" d="M850.34,646.3c3.23-14,6.88-31.52,9.49-49.1.14-.93.27-1.94.4-3-2.21-12.43-5.66-22.38-9.69-23.57C850.54,570.6,836.61,630.79,850.34,646.3Z"/><path class="cls-14" d="M845.33,466.66l18.84,9.52,3.71-13.05a39.76,39.76,0,0,1-3.53-11.89,49.49,49.49,0,0,1-.44-10.73l-15.27,7.91a28.61,28.61,0,0,1,.62,3.5,25.45,25.45,0,0,1-.23,8.19A11.31,11.31,0,0,1,845.33,466.66Z"/><path class="cls-28" d="M849,460.11c8.71-.27,15.32-8.87,15.32-8.87l-15.09.68A25.45,25.45,0,0,1,849,460.11Z"/><path class="cls-14" d="M844.79,455.28s17.38,4.51,23.32-9.33c6.4-14.93-.74-25.76-6.64-26.46-11.77-1.41-18.58,3.1-20.63,7.85S835.19,452.88,844.79,455.28Z"/><path class="cls-29" d="M865,450.8s2-6,1.75-9.18c0,0,4.51-5.79,1.86-7.21s-4.06,2-4.66,1.33-1.61-12-4.81-11.64-15,4.1-20.28-.37,7.33-22,28.74-15.36S884.78,438.84,865,450.8Z"/><path class="cls-30" d="M878.22,417.65s1-2.89-.09-4.95c0,0,0,2.84-1.15,4.11S878.22,417.65,878.22,417.65Z"/><path class="cls-30" d="M877.77,415.63a4.27,4.27,0,0,1,3.9,1.72,3.41,3.41,0,0,0-3.75.09Z"/><path class="cls-26" d="M890.75,548.6c1.55.21-4,68.12-.82,80.85s.21,47.18.21,47.18A43.68,43.68,0,0,1,865,675.26s-4.24-41.3-7.74-53.12c-7.55-25.46-11.59-71.25-11.59-71.25Z"/><polygon class="cls-31" points="828.61 482.53 817.6 511.38 832.8 513.26 835.88 489.75 828.61 482.53"/><path class="cls-13" d="M823.57,557.66a153.38,153.38,0,0,0,37,3.38A276,276,0,0,0,893.35,558c-.35.09-3.49-64.4-3.49-64.4l1.8-20.22c-5.68-7-16.32-9.19-23.78-10.23-2.85,2.94-8.47,7.27-14.78,6.47-4.74-.6-5.64-2.83-5.57-5.53-9.91,1.67-16.84,10-16.84,10Z"/><path class="cls-14" d="M891.36,472.36s19.72,37.15,17.17,47.3-30.57,14-30.57,14l-1.85-5.35s20.85-14.05,18.49-16.4S883.44,494.08,883,491.72,884.77,473.1,891.36,472.36Z"/><path class="cls-12" d="M882.09,466.57a28.25,28.25,0,0,1,12.65,9.73,98.56,98.56,0,0,1,8.43,15.63s-7.5,8.63-18.22,8.56S882.09,466.57,882.09,466.57Z"/><path class="cls-11" d="M840.38,466.63s-7.88,3.34-10.92,9.12-6.75,18.53-6.75,18.53a45.24,45.24,0,0,0,7.89.44C835.08,494.58,840.38,466.63,840.38,466.63Z"/><path class="cls-24" d="M853.52,513.49l9.07-18.24a3.07,3.07,0,0,0,.17-2.23h0a9.55,9.55,0,0,1,1-6.86,2,2,0,0,1,2.86-.72,2.33,2.33,0,0,1,.67,3.07,5,5,0,0,0-.57,3.17c.07.24.29,1,1.62,1.58,3,1.39,4.38-1.27,4.73-2.12a2,2,0,0,1,2.72-1.17,2.3,2.3,0,0,1,1.1,2.93,9.13,9.13,0,0,1-4.39,4.73h0a4.32,4.32,0,0,0-2.19,2.05l-9.08,18.25Z"/><path class="cls-24" d="M845.22,512.52l1.95-10.79a1.62,1.62,0,0,0-.24-1.16h0a5.13,5.13,0,0,1-.49-3.65,1.09,1.09,0,0,1,1.35-.85,1.2,1.2,0,0,1,.79,1.45,2.6,2.6,0,0,0,.17,1.7c.07.11.28.44,1,.53a1.88,1.88,0,0,0,2.1-1.87,1.12,1.12,0,0,1,1.21-1.05,1.15,1.15,0,0,1,1,1.3,5.08,5.08,0,0,1-1.54,3.14h0a2.4,2.4,0,0,0-.81,1.4l-2,10.81Z"/><path class="cls-22" d="M810,517.2l-6-13.91a2,2,0,0,0-1.15-1.1h0a6.55,6.55,0,0,1-3.34-3.69,1.7,1.7,0,0,1,.88-2.15,1.51,1.51,0,0,1,2,.94,3.38,3.38,0,0,0,1.5,1.77c.16.06.66.25,1.59-.32a2.84,2.84,0,0,0,.93-4,1.74,1.74,0,0,1,.57-2.25,1.48,1.48,0,0,1,2.11.61,7.38,7.38,0,0,1,.65,4.9h0a3.59,3.59,0,0,0,.15,2.31l6,13.91Z"/><rect class="cls-32" x="797.92" y="506.15" width="51.9" height="46.01" transform="translate(1650.17 1054.49) rotate(179.74)"/><rect class="cls-33" x="823.87" y="506.03" width="51.9" height="46.01" transform="translate(1702.06 1054.14) rotate(179.74)"/><polygon class="cls-34" points="823.78 506.14 834.09 518.2 885.31 517.97 875.67 505.91 823.78 506.14"/><polygon class="cls-35" points="798 540.61 806.22 540.57 805.48 538.09 806.2 536.3 797.98 536.34 798 540.61"/><polygon class="cls-36" points="823.8 511.35 812.9 523.16 797.92 523.23 797.86 506.26 823.78 506.14 823.8 511.35"/><polygon class="cls-34" points="797.83 506.26 786.21 518.42 812.17 518.31 823.78 506.14 797.83 506.26"/><path class="cls-14" d="M876.64,528.16s-4.76-3-7-1.92-6.08,5.27-3.95,6.06,5.07.57,6.22,1.18a8.23,8.23,0,0,0,6.3.15C880.9,532.65,876.64,528.16,876.64,528.16Z"/><path class="cls-14" d="M876.43,528.13a19.11,19.11,0,0,1-1-2.7c-.12-.68-.74-.39-.75.38s-.06,2.16-.06,2.16Z"/><path class="cls-20" d="M878.66,710.59h147.77a0,0,0,0,1,0,0v25a22,22,0,0,1-22,22H901.26a22.6,22.6,0,0,1-22.6-22.6V710.59A0,0,0,0,1,878.66,710.59Z"/><path class="cls-19" d="M746.36,710.59H903.65a0,0,0,0,1,0,0v24.35A22.68,22.68,0,0,1,881,757.62H769.67a23.31,23.31,0,0,1-23.31-23.31V710.59A0,0,0,0,1,746.36,710.59Z"/><path class="cls-19" d="M879.53,710.59s-9.37-96.82,33.42-96.82,68,3.91,59.08-44.47c-5.29-28.73,15-28.4,55.53-25.07,5,.41,13.27,7,12.09,11.89l-37.29,154.47Z"/><path class="cls-20" d="M903.67,710.59s-9.27-99.94,33.41-96.82c53.8,3.94,64.55,6,54.15-40.52-7.38-33,14.8-31.9,42.7-28.28,3.85.5,8.06,3.4,7.19,9l-14.63,156.57Z"/><path class="cls-22" d="M254,580.44c-.58,2.28-1.82,5.94-3.39,10.34-.53,1.49-1.11,3.06-1.71,4.69-1.28,3.45-2.68,7.14-4.1,10.83-2.32,6-4.7,12-6.65,16.92-2.69,6.72-4.62,11.45-4.62,11.45l2.85,6.93-24.26-5.51,5.55-5s.29-5.08.78-12.28c.37-5.32.83-11.83,1.32-18.29.3-3.91.63-7.8,1-11.42.29-3,.57-5.84.84-8.32.35-3.13.71-5.72,1-7.44a13.86,13.86,0,0,1,1.78-4.61c4.22-6.9,13.39-8.29,14.2-11.83a16.23,16.23,0,0,0,.26-1.9c.51-5.56-.11-16.78-.11-16.78l15.86,3.6s-5.29,9.66-7.28,14.92a15.28,15.28,0,0,0-.64,2c-.8,3.53,6.89,8.75,7.71,16.79A14.11,14.11,0,0,1,254,580.44Z"/><path class="cls-37" d="M254,580.44c-.58,2.28-1.82,5.94-3.39,10.34-.53,1.49-1.11,3.06-1.71,4.69-.17,0-8.47,1.73-28.16-6.39h0c.29-3,.57-5.84.84-8.32.35-3.13.71-5.72,1-7.44a13.86,13.86,0,0,1,1.78-4.61s14.27,7.21,30,6.8A14.11,14.11,0,0,1,254,580.44Z"/><path class="cls-19" d="M249.68,593.36s-1.14-.9-3.15-2.55c-1-.82-1.8-.41-2.81.1a5.36,5.36,0,0,1-3.61.77,4.71,4.71,0,0,1-2.79-1.62,4.07,4.07,0,0,0-4.08-1.42c-3.65.43-4.56-.43-6.2-2-.3-.29-.64-.61-1-.95a4.11,4.11,0,0,0-4.78-.53l-.14-.23a4.39,4.39,0,0,1,5.1.56c.39.34.73.67,1,1,1.58,1.51,2.45,2.35,6,1.93a4.33,4.33,0,0,1,4.3,1.5,4.52,4.52,0,0,0,2.64,1.55,5.25,5.25,0,0,0,3.45-.75c1.05-.54,2-1,3.1-.07,2,1.65,3.13,2.54,3.14,2.54Z"/><path class="cls-19" d="M250,591.76s-1.14-.9-3.15-2.55c-1-.82-1.8-.41-2.81.1a5.36,5.36,0,0,1-3.61.77,4.71,4.71,0,0,1-2.79-1.62,4.06,4.06,0,0,0-4.07-1.42c-3.66.43-4.57-.43-6.21-2-.3-.28-.63-.61-1-.95a4.07,4.07,0,0,0-4.78-.53l-.14-.23a4.4,4.4,0,0,1,5.1.56c.39.34.73.67,1,1,1.58,1.51,2.45,2.34,6,1.92a4.37,4.37,0,0,1,4.3,1.5,4.49,4.49,0,0,0,2.64,1.55,5.16,5.16,0,0,0,3.44-.75c1.06-.54,2-1,3.11-.07,2,1.65,3.13,2.54,3.14,2.55Z"/><path class="cls-19" d="M229.84,584.14a1,1,0,1,1,.75,1.2A1,1,0,0,1,229.84,584.14Z"/><path class="cls-19" d="M240.08,586.47a1,1,0,0,1,1.19-.75,1,1,0,1,1-1.19.75Z"/><path class="cls-19" d="M234.1,590.67a1,1,0,0,1,1.94.44,1,1,0,1,1-1.94-.44Z"/><path class="cls-19" d="M244,592.92a1,1,0,0,1,1.94.44,1,1,0,1,1-1.94-.44Z"/><path class="cls-19" d="M223,587.12a1,1,0,1,1,.75,1.19A1,1,0,0,1,223,587.12Z"/><path class="cls-19" d="M248.32,588.34a1,1,0,1,1,.75,1.19A1,1,0,0,1,248.32,588.34Z"/><path class="cls-19" d="M252.62,583.79s-1.2-.92-3.32-2.59c-1.07-.84-1.9-.44-3,.07a5.79,5.79,0,0,1-3.77.73,5,5,0,0,1-2.93-1.65,4.51,4.51,0,0,0-4.3-1.48c-3.83.4-4.78-.47-6.52-2.06-.31-.29-.67-.62-1.08-1a4.44,4.44,0,0,0-5-.59l-.14-.24a4.8,4.8,0,0,1,5.35.61c.41.35.77.68,1.09,1,1.68,1.54,2.6,2.38,6.3,2a4.75,4.75,0,0,1,4.52,1.55,4.82,4.82,0,0,0,2.78,1.58,5.54,5.54,0,0,0,3.61-.71c1.1-.53,2.05-1,3.25,0,2.12,1.67,3.31,2.58,3.32,2.59Z"/><path class="cls-19" d="M253,582.19s-1.2-.91-3.32-2.59c-1.06-.83-1.9-.44-3,.07a5.78,5.78,0,0,1-3.77.74,5.11,5.11,0,0,1-2.93-1.66,4.49,4.49,0,0,0-4.3-1.47c-3.82.39-4.78-.48-6.52-2.07-.31-.29-.67-.62-1.08-1a4.49,4.49,0,0,0-5-.59l-.14-.24a4.77,4.77,0,0,1,5.34.62c.41.34.77.67,1.09,1,1.68,1.54,2.6,2.38,6.3,2a4.75,4.75,0,0,1,4.52,1.55,4.85,4.85,0,0,0,2.79,1.58,5.52,5.52,0,0,0,3.6-.71c1.1-.53,2-1,3.25,0,2.12,1.67,3.31,2.57,3.32,2.58Z"/><path class="cls-19" d="M231.72,574.33a1,1,0,0,1,1.24-.74,1,1,0,1,1-1.24.74Z"/><path class="cls-19" d="M242.48,576.77a1,1,0,1,1,.8,1.2A1,1,0,0,1,242.48,576.77Z"/><path class="cls-19" d="M236.26,580.92a1,1,0,1,1,.8,1.2A1,1,0,0,1,236.26,580.92Z"/><path class="cls-19" d="M246.67,583.28a1,1,0,1,1,.8,1.2A1,1,0,0,1,246.67,583.28Z"/><path class="cls-19" d="M224.54,577.24a1,1,0,0,1,1.24-.74,1,1,0,1,1-.44,1.94A1,1,0,0,1,224.54,577.24Z"/><path class="cls-19" d="M251.17,578.75a1,1,0,0,1,1.24-.74,1,1,0,0,1,.8,1.2,1,1,0,0,1-2-.46Z"/><path class="cls-38" d="M236.39,641.6l-24.26-5.51,5.55-5a42.47,42.47,0,0,0,15.86,3.6Z"/><path class="cls-39" d="M172.41,598.54V585.26s8.86-7.24,18.51-5.63,23.14-1,27.36,5.63a37.94,37.94,0,0,1,5.23,12.67l-2.82,1.21Z"/><path class="cls-40" d="M256.57,585.39s11.13-6.43,18.64-4.29S281,585,281,585,256.7,585,256.57,585.39Z"/><path class="cls-41" d="M213.29,651h62.57a4.28,4.28,0,0,0,4.26-3.89l5.13-57.43A4.27,4.27,0,0,0,281,585H208.16a4.28,4.28,0,0,0-4.26,4.65L209,647.12A4.28,4.28,0,0,0,213.29,651Z"/><path class="cls-42" d="M176.25,651h62.58a4.27,4.27,0,0,0,4.25-3.89l5.13-57.43A4.26,4.26,0,0,0,244,585H171.12a4.28,4.28,0,0,0-4.26,4.65L172,647.12A4.26,4.26,0,0,0,176.25,651Z"/><path class="cls-39" d="M196.53,596.37h19.35a2.63,2.63,0,0,0,2.62-2.62h0a2.63,2.63,0,0,0-2.62-2.63H196.53a2.63,2.63,0,0,0-2.63,2.63h0A2.63,2.63,0,0,0,196.53,596.37Z"/><path class="cls-43" d="M182.41,488s-11.95-13.94-.74-22.8c0,0,8.19-5,14.87-4.55,0,0-9.46,15.86-6.4,17.44s9.27-18.44,9.27-18.44,18.64-1.8,24.63,1.08c0,0-15.93,13-12.57,13.81s20.56-12,20.56-12,17.34,2.95,16.42,13.53-6.9,13.85-9.53,13.57-18-6.15-18.33-4,8.92,9.18,15.4,9.51c0,0-12.23,13.49-20.36,9.6s-8.82-10.07-13.89-12.38-9.39-2.31-7.3.05,11.26,4.66,14.16,9.78,5.5,8.58-2.91,7.32-22.08-7.42-22.68-14.47Z"/><path class="cls-43" d="M239.93,476.36s-47.11-1.82-57.52,11.66A34,34,0,0,1,173,501.18l-1.1,3s8.16-8.61,11.08-9.13C183,495.06,178.44,478.37,239.93,476.36Z"/><path class="cls-43" d="M173,501.18s-10.11,7.48-10.81,20.84l1.83.17s3.23-13.82,9.07-19.22S173,501.18,173,501.18Z"/><path class="cls-44" d="M140.63,470.49s19-10.65,10.14-25.09c0,0-7.09-8.87-14.7-11.15,0,0,4.06,21.54,0,22S133.29,432,133.29,432s-20-9.64-27.88-8.87c0,0,12.42,21,8.36,20.52s-18-21.79-18-21.79S75.25,418,72,430.19s2,18.25,5.06,19,22.56.51,22,3-13.68,6.59-21,4.31c0,0,8.11,20,18.75,19s13.94-7.61,20.53-8.11,11.4,1.26,8.11,3-14.45.58-19.77,5.1-9.63,7.31.25,9.34,27.63.76,31.18-6.84Z"/><path class="cls-43" d="M81.33,434s53.22,17.24,59.3,36.5A40.49,40.49,0,0,0,145.7,489v3.8s-5.57-12.93-8.61-14.7C137.09,478.09,149,461.36,81.33,434Z"/><path class="cls-43" d="M145.7,489s8.21,12.46,3.53,27.63l-2.11-.57s2-16.71-2.24-25.11S145.7,489,145.7,489Z"/><path class="cls-44" d="M170.87,455.81s-25.05-14-13.36-33.08c0,0,9.35-11.69,19.38-14.69,0,0-5.35,28.39,0,29.06S180.56,405,180.56,405s26.39-12.7,36.75-11.69c0,0-16.37,27.72-11,27.06S230,391.67,230,391.67s27.06-5,31.41,11-2.68,24.05-6.69,25.06-29.73.66-29.06,4,18,8.69,27.73,5.68c0,0-10.69,26.39-24.72,25.06s-18.38-10-27.06-10.69-15,1.67-10.69,4,19,.76,26.06,6.73,12.69,9.64-.34,12.31-36.41,1-41.09-9Z"/><path class="cls-43" d="M249.05,407.7s-70.16,22.72-78.18,48.11c0,0,.34,11.36-6.68,24.38v5s7.35-17,11.36-19.37C175.55,465.83,159.85,443.78,249.05,407.7Z"/><path class="cls-43" d="M164.19,480.19s-10.82,16.43-4.65,36.43l2.78-.75s-2.7-22,3-33.1S164.19,480.19,164.19,480.19Z"/><path class="cls-6" d="M170,560a49.08,49.08,0,0,0,49.08-49.08H121A49.08,49.08,0,0,0,170,560Z"/><path class="cls-22" d="M219.79,562.49H120.27a6.06,6.06,0,0,1,6.06-6.06h87.4a6.06,6.06,0,0,1,6.06,6.06Z"/><rect class="cls-22" x="119.34" y="510.91" width="100.89" height="1.51"/><path class="cls-45" d="M362.7,579.52s0,1.75.11,4.89c.44,20.24,2.17,98.51,3.81,142.14.07,1.59.12,3.13.18,4.62,0,.79.06,1.59.1,2.37a472.6,472.6,0,0,0,6.73,58.27c3.69,21.07,7.43,35.42,7.43,35.42,14.06,2.84,12.45-21.52,12.45-21.52S405.58,785.19,407,765.4c.47-6.43,5.22-21.49,8.12-48.14,2.25-20.61,4.85-44.06,7.24-65.39.13-1.14.25-2.27.38-3.39,3.85-34.48,7.05-62.57,7.05-62.57L405,583.55Z"/><path class="cls-27" d="M373.63,791.81l41.52-74.55c2.25-20.61,4.85-44.06,7.24-65.39.13-1.14.25-2.27.38-3.39,3.85-34.48,7.05-62.57,7.05-62.57L405,583.55l-42.16.86Z"/><path class="cls-46" d="M440.71,402.45s-2.94-10.85-4.57-15.42-17.47-13.93-21.33-12.63,1.54,13,3.46,16.61,1.16,7.65,4.32,9.92,9.53,7.22,9.53,7.22Z"/><path class="cls-47" d="M418.79,713.25S396,819.86,399.31,823s25,4.13,31.06,12.83c2,2.9,1.55,7.46,1.55,7.46h-54s-4.83-3-5.27-16.32-3.84-87.23-2.07-112.35C370.59,714.63,380.88,706.06,418.79,713.25Z"/><path class="cls-11" d="M433.59,406.61l6,57.08,32.79,16.17s4-23.73-8.91-48.72a161.06,161.06,0,0,0-22.72-32.5A23.63,23.63,0,0,0,433.59,406.61Z"/><rect class="cls-27" x="423.75" y="390.17" width="13.44" height="23.19" rx="5.77" transform="matrix(0.82, -0.57, 0.57, 0.82, -152.28, 317.36)"/><rect class="cls-48" x="425.01" y="392.23" width="11.73" height="20.23" rx="5.03" transform="translate(-152.54 317.71) rotate(-34.78)"/><path class="cls-14" d="M374.47,416.33l19.26,18.46a59.16,59.16,0,0,0,11-12.36c.45-.66.88-1.33,1.29-2a94.57,94.57,0,0,0,5.82-11l.62-1.38c1.06-2.32-10.69-9.77-17.33-14.48a26,26,0,0,1-4.18-3.45,19,19,0,0,1,0,5.23,21.51,21.51,0,0,1-5.81,10.88C378.42,413.66,374.47,416.33,374.47,416.33Z"/><path class="cls-49" d="M389,395.85s3.82,20.29,15.69,26.58c.45-.66.88-1.33,1.29-2a94.57,94.57,0,0,0,5.82-11c-1.44-3-11.34-9.32-17.22-13.5C391.29,395.92,389,395.85,389,395.85Z"/><path class="cls-14" d="M412.64,418.38s-28.83-9.62-22.56-27.48,6.77-31.13,25.44-25.74,19.83,13.45,19.19,19.92S420.3,420.42,412.64,418.38Z"/><path class="cls-29" d="M387.86,396.29s-5.49-2-5.39-13.16c.06-6.22-4.42-9.17.3-17.72S387.18,350,400.16,350s14.3-6,20.91-3.92,12.5,11.82,18.16,13.64,10,31.5-3,30.69c0,0-4.87-2.43-7.05-6.35S416,371.19,412.44,374.1,394.83,396.43,387.86,396.29Z"/><path class="cls-11" d="M369.73,462.63s56.86,25.44,91.42,31.29c0,0,10.82-.74,11.19-14.06.23-8.44-56.74-49.92-77.56-48.69S362.53,453.71,369.73,462.63Z"/><path class="cls-27" d="M342.28,841.4h48.1a11,11,0,0,0-7.52-6.14,13.09,13.09,0,0,0-1.54-.31c-5.18-.73-13.16-3-18.25-7.62a14.45,14.45,0,0,1-4.46-7.17c-2.38-9.66-18,3.35-18,3.35s-.16,1.55-.28,3.74C340.11,832,340.05,839.77,342.28,841.4Z"/><path class="cls-26" d="M425.22,586.1S400.57,666.55,381.65,722s-26,87.5-26,87.5-9.08,21.45-16.73,17.08c0,0-4.38-105.06,7.08-133,7.57-18.45,13.37-57.73,11.4-71.88s-3.81-42.52-3.81-42.52Z"/><path class="cls-13" d="M350.5,576.21c1.31,7,4.42,12.62,9.24,16,5.49,3.89,14.14,5.29,23.67,5.15A129.5,129.5,0,0,0,416.7,592a77.61,77.61,0,0,0,13.17-5.07c14.72-7.67,12.63-17.88,12.27-56.1-.35-39-24.36-89.42-28.68-97.86-7.7-15-40.35-10.09-40.35-10.09-7.16,6.57-13.43,16.1-17.7,31.34-1.73,6.17-2.74,14.79-3.32,24.48-1.76,29.61.52,69.1-1.21,78.32A52.94,52.94,0,0,0,350.5,576.21Z"/><path class="cls-11" d="M377.37,408s-5.34,12.64-4.26,14.89c0,0,29.05,2.86,41,11.36,0,0-3.64-12.36-8.42-15.41S377.37,408,377.37,408Z"/><path class="cls-11" d="M350.5,576.21c60.76-23.12,26.07-108.63,26.07-108.63-8.5.61-16.83,4.74-24.48,11.08-1.76,29.61.52,69.1-1.21,78.32A52.94,52.94,0,0,0,350.5,576.21Z"/><path class="cls-14" d="M371,541.27s3.33,5.77,6.53,4.41,9.67-2.79,14.47.3,12.06,11.45,7.53,13.49-13.14-3.37-15.17-4.28-5.59.91-9.51-1.06a39.4,39.4,0,0,1-8-5.88Z"/><path class="cls-50" d="M388,713.75S360.58,819,363.89,822.15s27.47,4.85,31.32,14.58a15,15,0,0,1,1.05,6.57h-54s-4.83-3-5.28-16.32-3.84-87.23-2.07-112.35C334.93,714.63,367.14,711.09,388,713.75Z"/><path class="cls-14" d="M376,544.82s7.32-2.44,8.57-3.55,1.26,1.26-1.77,3.55-7.24,1.33-7.24,1.33Z"/><path class="cls-12" d="M371.19,424.7s-38.89,33.48-62.53,59.71a12.88,12.88,0,0,0-1.72,15.14l.08.14A81,81,0,0,0,329.3,527.8C351.68,546.22,364,549.87,364,549.87s14.84,2.55,12.25-7L348,504.12a6.29,6.29,0,0,1,2.55-9.49c18.34-8,37.25-19.06,42.11-28.53C402.15,447.55,382.53,423,371.19,424.7Z"/><path class="cls-29" d="M600.38,386.77s21.3-6.47,33.86,5.71,10.09,26.15,28,25.06,22,5.51,19.7,15.81,19.85,7.4,26.56,20,7.66,35.72-26.92,34.53-49.93-19.81-64.74-12.08-39.23-4.7-32.82-15.54-6-7.91-8.22-30S585.42,388.44,600.38,386.77Z"/><path class="cls-26" d="M644.93,457.14c-18.7-3.94-31.55-1.22-43.78-.9h0a63.2,63.2,0,0,1-33.31-7.74c-10.45-5.66,8-33.88,8-33.88l-8-5.12s-34.08,32.55-33.33,45c.49,8.23,25.74,20.56,42.19,28.93A9.51,9.51,0,0,1,581.53,494c0,.05,0,.1,0,.14-2.8,19.5,12.61,48.23,12.61,48.23l28.71,22.54,27.39-19.49h0l2.23-.8s4.51-2.25,5.86-12.92c.17-1.32,1.12-12.59,2.07-23.95,1-12.27,2-24.62,2-24.62Z"/><path class="cls-11" d="M596.23,548.68s-10.8,31.59-8.88,54.71c1.15,14,19.92,113.36,21,119.81,1,6.08,14.48,84.78,14.48,84.78s-2.32,13.1,2.64,11.7c6.87-1.94,9-4.26,9-4.26s10.29-131.83,3.92-178.92A745.54,745.54,0,0,1,632,548.68Z"/><path class="cls-13" d="M652.19,547.46s20.15,27,22,45.3,2.95,82.46,6.95,100.28,18.71,52.1,18.71,107.66c0,0-1.53,3.18-6.25,4.88-1.51.54-.82-2.17-2.78-1.72-3.89.89-35.54-78.56-37.31-82.14-9.94-20-29.44-89.4-51.24-126.22-5.24-8.84,3.21-44,3.21-44Z"/><path class="cls-14" d="M622.07,462.24c3.59-1.63,5.16-4.3,4.38-8.19-1.14-5.7-3.25-11-3.5-19.33l-1.2.27-20.16,4.7s.9,12.49.9,12.54C603,460.31,605,470,622.07,462.24Z"/><path class="cls-46" d="M601.59,439.69s.68,6.37.9,12.39c11.34-.7,17-11.26,19.26-17.09Z"/><path class="cls-14" d="M598,445.52s26.89-.46,26.34-17.2,2.57-28.07-14.62-28.48-20.31,6.08-21.49,11.71S591,445.2,598,445.52Z"/><path class="cls-29" d="M596.29,400.63s9,21.85,21.87,24.7,18.23-.75,18.23-.75a36.07,36.07,0,0,1-12.5-20.89S602.19,389.89,596.29,400.63Z"/><path class="cls-29" d="M599.74,399.7s-6.07,2.5-8.45,7.07a30.46,30.46,0,0,0-3.51,17.45s-6.75-14.83,0-23.57C594.9,391.38,599.74,399.7,599.74,399.7Z"/><path class="cls-27" d="M650.22,545.38h0l2.23-.8s4.51-2.25,5.86-12.92c.17-1.32,1.4-15.92,2.35-27.28,0,0-10.4-6.75-13.5-.73s4.06,17.37,1.43,24.07S641.41,543.43,650.22,545.38Z"/><path class="cls-27" d="M594.12,542.33s5.3,4.2,15.83,4.41c12.59.25,43.76-3.21,43.76-3.21a25.65,25.65,0,0,1,1.33,8s-38.08,9.6-60.14,1.4C594.9,552.89,592.06,547.54,594.12,542.33Z"/><path class="cls-37" d="M606.94,557.58c-3.17,0-5.75-2.91-5.75-6.49s2.58-6.5,5.75-6.5,5.74,2.91,5.74,6.5S610.1,557.58,606.94,557.58Zm0-11.09c-2.12,0-3.84,2.06-3.84,4.6s1.72,4.59,3.84,4.59,3.83-2.06,3.83-4.59S609.05,546.49,606.94,546.49Z"/><path class="cls-27" d="M644.93,457.14s18.07.89,28,14.62,32,46.6,33.53,56.73-36.34,38.58-36.34,38.58a15.5,15.5,0,0,1-4.1-2.2,16.76,16.76,0,0,1-2.45-2.7s21.92-35.86,20.15-38.61-35.76-29.19-35.76-29.19Z"/><path class="cls-14" d="M567.79,409.5s1.83-9.68,5.08-12,14.92-8.44,15.32-6.11-7.2,9.67-7.34,12.33c-.22,3.84,2.65,4.61-5,10.94S567.79,409.5,567.79,409.5Z"/><path class="cls-14" d="M569.15,404.24s.47-5.41-.42-8.28,1.44-1.4,2-.57A44.32,44.32,0,0,1,572.5,400Z"/><path class="cls-14" d="M663.52,562.17s-8.08-2.95-10.81-1.18-7.75,8.57-6,10.79,8.87-1.18,10.79-2.07,3.94,1.67,6.72,1.77,5.83-4.41,5.83-4.41Z"/><path class="cls-14" d="M663.52,562.17s-6.26-4.54-6.93-4,2,3.65,2.33,4S663.52,562.17,663.52,562.17Z"/><path class="cls-50" d="M646.62,708.54s27-6,42-13.07c0,0,15.22,85.29,21,114.45.9,4.54,3.17,11.4,4.05,15.49a34.55,34.55,0,0,1-.21,14.51H666.82s.3-7.18,8.5-9.84,16.77-8.35,16.55-11.89S646.62,708.54,646.62,708.54Z"/><path class="cls-50" d="M602.41,710.79l39.89-.29S639,807.7,640.48,818a210.29,210.29,0,0,1,1.82,21.88H590.89s-.66-6,7.54-10.93,17.5-.68,20.6-7.55S602.41,710.79,602.41,710.79Z"/><path class="cls-25" d="M299.47,735.39a41.51,41.51,0,0,1-41.54,41.55c-.36,0-.71,0-1.06,0a41.56,41.56,0,1,1,42.6-41.53Z"/><polygon class="cls-24" points="269.44 724.18 253.55 724.18 245.6 737.94 253.55 751.7 269.44 751.7 277.38 737.94 269.44 724.18"/><path class="cls-24" d="M290.71,760.92a41.52,41.52,0,0,1-23.17,14.9l-.73-1.26,7.95-13.76h15.88Z"/><path class="cls-24" d="M299,729.14H287.93L280,715.38l6.09-10.54A41.33,41.33,0,0,1,299,729.14Z"/><path class="cls-24" d="M255.4,699.54l-7.94,13.76H231.57l-3.77-6.52a41.37,41.37,0,0,1,24.52-12.57Z"/><path class="cls-24" d="M235,739.39,227,753.15h-6.65a41.65,41.65,0,0,1-2.82-27.53H227Z"/><path class="cls-24" d="M257.2,776.35l-.33.57a41.33,41.33,0,0,1-26-10l2.5-4.33h15.89Z"/><g class="cls-51"><path class="cls-22" d="M1114.73,773.41c-13.15,42.6-35.38,67.21-35.81,68.2-66.22,0-1030.9.24-1031.45-1.48l-.1-.21a1.17,1.17,0,0,1-.09-.32c-.16-.35-25.63-41.69-39.12-101.89,20.18-6.44,76.17-18.55,149.79,13.12,93.07,40,261.39-11.93,361.81-2.4S654.91,787,746.36,775.21,911,763.1,971,775.21C1022,785.49,1068.69,772.77,1114.73,773.41Z"/></g><path class="cls-3" d="M3166.84,773.41c13.15,42.6,35.37,67.21,35.81,68.2,66.22,0,1030.9.24,1031.45-1.48l.1-.21a1.17,1.17,0,0,0,.09-.32c.15-.35,25.63-41.69,39.12-101.89,19.1-85.27,14.13-208.36-121-306.38-90.19-65.43,5.64-108.62-66.08-181.46-71.19-72.3-148-13.06-226.67-20-34.55-3-62-18.61-86-43.05-56.47-57.4-144.62-68.9-224.46-56.28-77.2,12.22-151.63,47.54-195.59,93.6-12,12.55-66.42,77.48-23.5,166.73,27.09,56.35-86.43,110.17-126.77,174.51C3148.62,652.59,3151.8,724.74,3166.84,773.41Z"/><path class="cls-4" d="M4027.43,654v4.72c0,1.65.53,3,1.19,3h172.2c.65,0,1.19-1.35,1.19-3V654c0-1.65-.54-3-1.19-3h-172.2C4028,651,4027.43,652.36,4027.43,654Z"/><path class="cls-5" d="M4027.43,654v4.72c0,1.65.49,3,1.09,3h136.71c.6,0,1.09-1.35,1.09-3V654c0-1.65-.49-3-1.09-3H4028.52C4027.92,651,4027.43,652.36,4027.43,654Z"/><rect class="cls-6" x="4071.01" y="661.73" width="122.26" height="178.19" transform="translate(8264.28 1501.65) rotate(-180)"/><rect class="cls-7" x="4036.75" y="661.73" width="122.26" height="178.19" transform="translate(8195.76 1501.65) rotate(-180)"/><path class="cls-4" d="M4043.32,666.76h109.12V830.08H4043.32Zm107.94,1.18H4044.5v161h106.76Z"/><rect class="cls-4" x="4043.91" y="720.79" width="107.94" height="1.18"/><rect class="cls-4" x="4043.91" y="775.87" width="107.94" height="1.18"/><path class="cls-4" d="M4086.82,677.3h20a1.78,1.78,0,0,0,1.77-1.77h0a1.78,1.78,0,0,0-1.77-1.77h-20a1.78,1.78,0,0,0-1.77,1.77h0A1.78,1.78,0,0,0,4086.82,677.3Z"/><path class="cls-4" d="M4086.82,731.16h20a1.78,1.78,0,0,0,1.77-1.77h0a1.77,1.77,0,0,0-1.77-1.76h-20a1.77,1.77,0,0,0-1.77,1.76h0A1.78,1.78,0,0,0,4086.82,731.16Z"/><path class="cls-4" d="M4086.82,787.31h20a1.78,1.78,0,0,0,1.77-1.77h0a1.78,1.78,0,0,0-1.77-1.77h-20a1.78,1.78,0,0,0-1.77,1.77h0A1.78,1.78,0,0,0,4086.82,787.31Z"/><rect class="cls-8" x="3955.4" y="265.05" width="85.69" height="83.14" rx="14.09" transform="translate(7996.49 613.23) rotate(-180)"/><rect class="cls-9" x="3959.11" y="268.65" width="78.27" height="75.93" rx="12.87" transform="translate(7996.49 613.23) rotate(-180)"/><path class="cls-10" d="M4000,276.24a1.78,1.78,0,1,0-1.77,1.77A1.77,1.77,0,0,0,4000,276.24Z"/><path class="cls-10" d="M3985.7,278.74a1.78,1.78,0,1,0-.69,2.42A1.78,1.78,0,0,0,3985.7,278.74Z"/><path class="cls-10" d="M3973.43,288.49A1.78,1.78,0,1,0,3974,291,1.79,1.79,0,0,0,3973.43,288.49Z"/><path class="cls-10" d="M3967.35,303.58a1.78,1.78,0,1,0,1.77,1.78A1.78,1.78,0,0,0,3967.35,303.58Z"/><circle class="cls-10" cx="3971.71" cy="322.35" r="1.78"/><path class="cls-10" d="M3981.6,332.27a1.77,1.77,0,1,0,2.51,0A1.78,1.78,0,0,0,3981.6,332.27Z"/><path class="cls-10" d="M4000,338a1.78,1.78,0,1,0-1.77,1.78A1.77,1.77,0,0,0,4000,338Z"/><path class="cls-10" d="M4010.85,278.74a1.78,1.78,0,1,1,.69,2.42A1.78,1.78,0,0,1,4010.85,278.74Z"/><path class="cls-10" d="M4023.12,288.49a1.78,1.78,0,1,1-.53,2.46A1.79,1.79,0,0,1,4023.12,288.49Z"/><path class="cls-10" d="M4029.2,303.58a1.78,1.78,0,1,1-1.77,1.78A1.78,1.78,0,0,1,4029.2,303.58Z"/><path class="cls-10" d="M4026.1,321.09a1.78,1.78,0,1,1-2.51,2.52,1.78,1.78,0,0,1,2.51-2.52Z"/><path class="cls-10" d="M4015,332.27a1.77,1.77,0,1,1-2.51,0A1.78,1.78,0,0,1,4015,332.27Z"/><path class="cls-10" d="M3998.72,305.36a1.78,1.78,0,1,0-1.77,1.77A1.78,1.78,0,0,0,3998.72,305.36Z"/><rect class="cls-10" x="3996.71" y="283.18" width="0.48" height="22.18"/><rect class="cls-10" x="3990.57" y="293.24" width="1.45" height="14.95" transform="translate(1290.37 3254.67) rotate(-51.87)"/><rect class="cls-11" x="4102.43" y="562.17" width="96.07" height="88.83"/><rect class="cls-12" x="4054.39" y="562.17" width="96.07" height="88.83"/><polygon class="cls-13" points="4198.44 628.48 4183.22 628.48 4184.56 623.67 4183.22 620.24 4198.44 620.24 4198.44 628.48"/><polygon class="cls-11" points="4150.46 589.67 4135.24 589.67 4136.58 584.86 4135.24 581.43 4150.46 581.43 4150.46 589.67"/><polygon class="cls-13" points="4150.46 581.43 4165.69 581.43 4164.35 586.23 4165.69 589.67 4150.46 589.67 4150.46 581.43"/><polygon class="cls-14" points="4054.39 629.43 4069.61 629.43 4068.27 634.24 4069.61 637.67 4054.39 637.67 4054.39 629.43"/><rect class="cls-15" x="3788.67" y="585.86" width="31.13" height="179.54" rx="13.6" transform="translate(7608.46 1351.25) rotate(-180)"/><rect class="cls-15" x="3746.24" y="585.86" width="31.13" height="179.54" rx="13.6" transform="translate(7523.61 1351.25) rotate(-180)"/><rect class="cls-15" x="3703.81" y="585.86" width="31.13" height="179.54" rx="13.6" transform="translate(7438.75 1351.25) rotate(180)"/><rect class="cls-15" x="3661.38" y="585.86" width="31.13" height="179.54" rx="13.6" transform="translate(7353.9 1351.25) rotate(-180)"/><rect class="cls-15" x="3618.96" y="585.86" width="31.13" height="179.54" rx="13.6" transform="translate(7269.04 1351.25) rotate(-180)"/><rect class="cls-15" x="3576.53" y="585.86" width="31.13" height="179.54" rx="13.6" transform="translate(7184.19 1351.25) rotate(-180)"/><path class="cls-15" d="M3561.22,128.79c76.54-9.64,158.77,3.46,212.41,58,21.57,21.94,45.92,36.74,75.68,41.72V545.39H3561.22Z"/><path class="cls-16" d="M3549.17,555.7V130.5q7.93-1.26,16-2.18V538.63h278.57V227.44a131.11,131.11,0,0,0,16,2.39V555.7Z"/><path class="cls-16" d="M3531.86,540.74h344.06a0,0,0,0,1,0,0v2.33a13.5,13.5,0,0,1-13.5,13.5H3545.69a13.83,13.83,0,0,1-13.83-13.83v-2A0,0,0,0,1,3531.86,540.74Z" transform="translate(7407.78 1097.3) rotate(-180)"/><path class="cls-16" d="M3698.4,140.27q9.66,3.34,18.93,7.56V543.92H3698.4Z"/><path class="cls-17" d="M3704.76,348.72h1.53a1.9,1.9,0,0,0,1.89-1.86l.67-21.76a1.91,1.91,0,0,0-1.89-2H3704a1.92,1.92,0,0,0-1.9,2l.73,21.75A1.9,1.9,0,0,0,3704.76,348.72Z"/><path class="cls-15" d="M3517.42,650.44h88.48V644.9h-88.48A16.93,16.93,0,0,1,3500.51,628V141.59H3495V628A22.48,22.48,0,0,0,3517.42,650.44Z"/><path class="cls-6" d="M3263.1,837.58l23.24-85.85h-18.12l-13,85.4a2.94,2.94,0,0,0,2.61,3.57h1.64A4,4,0,0,0,3263.1,837.58Z"/><path class="cls-6" d="M3523,837.58l-23.24-85.85h18.12l13.05,85.4a2.94,2.94,0,0,1-2.61,3.57h-1.64A4,4,0,0,1,3523,837.58Z"/><path class="cls-6" d="M3381.55,837.58l23.24-85.85h-18.11l-13.06,85.4a3,3,0,0,0,2.61,3.57h1.64A4,4,0,0,0,3381.55,837.58Z"/><path class="cls-18" d="M3248.31,547.55s48.08-10.5,140.87,0l10.65,108.17-127.39-6.3Z"/><path class="cls-19" d="M3535.21,710.59s9.13-96.82-32.53-96.82-48.18-.33-46.23-38.88c1.6-31.63-73.8-28.74-73.8-28.74l33,164.44Z"/><path class="cls-20" d="M3511.38,710.59s9.12-96.82-32.54-96.82-54.13-6.56-59.92-44.72C3415.08,543.72,3374,546,3374,546a34.52,34.52,0,0,1,12.1,24.06c2,35.31,5.66,140.55,5.66,140.55Z"/><path class="cls-18" d="M3511.41,710.59s1.25-9.46-4.73-13.79c-15.07-10.87-40.12-24.52-72.71-26.37-55.24-3.16-90.43,40.16-90.43,40.16Z"/><path class="cls-21" d="M3385.32,760.63s12.24-.28,14.53,9.34l3.27-12.35h-17.47Z"/><path class="cls-21" d="M3266.85,760.69s12.28-.41,14.57,9.22l3.35-12.31H3267.3Z"/><path class="cls-21" d="M3519.05,759.32s-14.35-.43-14.94,8.43l-2.74-10.13h17.42Z"/><rect class="cls-6" x="3325.15" y="423.4" width="3.54" height="267.33" transform="translate(6648.46 -31.23) rotate(160.45)"/><path class="cls-6" d="M3349.21,697l48.65-17.28h0a6.71,6.71,0,0,0-8.58-4.08l-36,12.78a6.72,6.72,0,0,0-4.09,8.58Z"/><path class="cls-6" d="M3292.11,506.3a.65.65,0,0,0-1.22.44.65.65,0,0,0,.83.39A.65.65,0,0,0,3292.11,506.3Z"/><path class="cls-6" d="M3291.69,505.12a.64.64,0,0,0-.82-.4.65.65,0,1,0,.43,1.22A.64.64,0,0,0,3291.69,505.12Z"/><path class="cls-6" d="M3292.53,507.49a.65.65,0,1,0-1.22.43.65.65,0,0,0,.83.39A.63.63,0,0,0,3292.53,507.49Z"/><path class="cls-6" d="M3293,508.7a.65.65,0,0,0-1.22.43.65.65,0,1,0,1.22-.43Z"/><path class="cls-6" d="M3293.37,511.22a.64.64,0,1,0-1.28.14.66.66,0,0,0,.71.58A.64.64,0,0,0,3293.37,511.22Z"/><path class="cls-6" d="M3293.23,510a.64.64,0,1,0-.57.71A.64.64,0,0,0,3293.23,510Z"/><path class="cls-6" d="M3293.51,512.47a.65.65,0,0,0-.71-.57.65.65,0,1,0,.71.57Z"/><path class="cls-6" d="M3293.65,513.75a.64.64,0,1,0-.57.71A.64.64,0,0,0,3293.65,513.75Z"/><path class="cls-6" d="M3293.75,516.25a.65.65,0,0,0-.55-.73.65.65,0,0,0-.18,1.28A.65.65,0,0,0,3293.75,516.25Z"/><path class="cls-6" d="M3293.72,515a.64.64,0,0,0-.55-.73.65.65,0,0,0-.18,1.28A.64.64,0,0,0,3293.72,515Z"/><path class="cls-6" d="M3293.69,517.5a.64.64,0,0,0-.55-.73.65.65,0,1,0,.55.73Z"/><path class="cls-6" d="M3293.28,518.66a.65.65,0,1,0-.74.55A.65.65,0,0,0,3293.28,518.66Z"/><path class="cls-6" d="M3291.52,521a.64.64,0,1,0-.91,0A.64.64,0,0,0,3291.52,521Z"/><path class="cls-6" d="M3292.4,520.09a.64.64,0,1,0-.91,0A.64.64,0,0,0,3292.4,520.09Z"/><path class="cls-6" d="M3290.64,521.89a.64.64,0,1,0-.91,0A.64.64,0,0,0,3290.64,521.89Z"/><path class="cls-6" d="M3289.74,522.81a.64.64,0,1,0-.91,0A.64.64,0,0,0,3289.74,522.81Z"/><polygon class="cls-22" points="3278.67 511.53 3337.65 490.59 3303.15 418.79 3260.17 434.05 3278.67 511.53"/><path class="cls-19" d="M3485.9,492.54l.14.24h0a1.71,1.71,0,0,0,.13.23c1.35,1.89,7.63.6,14.27-3s11.18-8.11,10.34-10.28a1.27,1.27,0,0,0-.12-.23v0c0-.08-.08-.16-.12-.24a14,14,0,1,0-24.64,13.27Z"/><path class="cls-22" d="M3486,492.78h0a.2.2,0,0,0,0,.08.46.46,0,0,0,.09.15c1.35,1.89,7.63.6,14.27-3s11.18-8.11,10.34-10.28a1.11,1.11,0,0,0-.07-.16l0-.07v0c-.89-1.38-4.28-1.15-8.53.35a40,40,0,0,0-5.77,2.58,46.57,46.57,0,0,0-4.32,2.65C3487.82,488.06,3485.32,491.13,3486,492.78Z"/><path class="cls-23" d="M3492,485.09a5.77,5.77,0,0,0,10.09-5.23,40,40,0,0,0-5.77,2.58A46.57,46.57,0,0,0,3492,485.09Z"/><polygon class="cls-24" points="3462.66 540.82 3463.91 541.12 3469.07 519.64 3464.12 484.01 3491.14 471.82 3490.61 470.65 3462.72 483.24 3467.76 519.57 3462.66 540.82"/><path class="cls-24" d="M3493.17,474.69h0a1.3,1.3,0,0,0,.73-1.7l-1.25-3.13a1.31,1.31,0,0,0-1.7-.73h0a1.3,1.3,0,0,0-.73,1.7l1.25,3.13A1.31,1.31,0,0,0,3493.17,474.69Z"/><path class="cls-24" d="M3465.39,483.92a1.7,1.7,0,1,0-2,1.26A1.7,1.7,0,0,0,3465.39,483.92Z"/><path class="cls-24" d="M3456.77,540.35h12.91a0,0,0,0,1,0,0v.46a3.21,3.21,0,0,1-3.21,3.21H3460a3.21,3.21,0,0,1-3.21-3.21v-.46A0,0,0,0,1,3456.77,540.35Z" transform="translate(6704.34 1877.52) rotate(-166.51)"/><rect class="cls-24" x="3464.33" y="520.73" width="2.71" height="20.52" transform="translate(6711.96 1855.64) rotate(-166.51)"/><path class="cls-25" d="M3474.65,687.25l-32.34-.14a1.68,1.68,0,0,1-1.66-1.56,42.08,42.08,0,0,1,.32-9.19v0a1.65,1.65,0,0,1,2.05-1.26,12.66,12.66,0,0,0,7.39-.33,17.72,17.72,0,0,0,5.22-2.92,1.66,1.66,0,0,1,2.18,0c2.24,2,7.34,6.39,10,6.4,3.17,0,7.85,1.42,8.5,7.11A1.67,1.67,0,0,1,3474.65,687.25Z"/><path class="cls-25" d="M3425.66,687.25l-32.33-.14a1.66,1.66,0,0,1-1.66-1.56,42,42,0,0,1,.31-9.19v0a1.66,1.66,0,0,1,2.05-1.26,12.66,12.66,0,0,0,7.39-.33,17.59,17.59,0,0,0,5.22-2.92,1.67,1.67,0,0,1,2.19,0c2.24,2,7.33,6.39,10,6.4,3.17,0,7.85,1.42,8.51,7.11A1.69,1.69,0,0,1,3425.66,687.25Z"/><path class="cls-26" d="M3460.92,672.63s-14.21,6.75-22.56,2.12c0,0-3.25-11.59-7.14-28.45-3.22-14-6.88-31.52-9.48-49.1-.14-.93-.28-1.94-.4-3-2.09-17.72-1.87-54.92,34.06-44.91Z"/><path class="cls-27" d="M3431.22,646.3c-3.22-14-6.88-31.52-9.48-49.1-.14-.93-.28-1.94-.4-3,2.21-12.43,5.66-22.38,9.69-23.57C3431,570.6,3445,630.79,3431.22,646.3Z"/><path class="cls-14" d="M3436.23,466.66l-18.83,9.52-3.71-13.05a40.11,40.11,0,0,0,3.53-11.89,50.18,50.18,0,0,0,.43-10.73l15.28,7.91a29.64,29.64,0,0,0-.63,3.5,25.73,25.73,0,0,0,.23,8.19A11.42,11.42,0,0,0,3436.23,466.66Z"/><path class="cls-28" d="M3432.53,460.11c-8.7-.27-15.31-8.87-15.31-8.87l15.08.68A25.73,25.73,0,0,0,3432.53,460.11Z"/><path class="cls-14" d="M3436.78,455.28s-17.39,4.51-23.32-9.33c-6.4-14.93.74-25.76,6.64-26.46,11.77-1.41,18.58,3.1,20.62,7.85S3446.37,452.88,3436.78,455.28Z"/><path class="cls-29" d="M3416.54,450.8s-2-6-1.75-9.18c0,0-4.51-5.79-1.87-7.21s4.06,2,4.67,1.33,1.6-12,4.81-11.64,15,4.1,20.27-.37-7.32-22-28.74-15.36S3396.79,438.84,3416.54,450.8Z"/><path class="cls-30" d="M3403.35,417.65s-1-2.89.09-4.95c0,0,0,2.84,1.15,4.11S3403.35,417.65,3403.35,417.65Z"/><path class="cls-30" d="M3403.8,415.63a4.27,4.27,0,0,0-3.9,1.72,3.4,3.4,0,0,1,3.74.09Z"/><path class="cls-26" d="M3390.82,548.6c-1.56.21,4,68.12.82,80.85s-.21,47.18-.21,47.18a43.68,43.68,0,0,0,25.12-1.37s4.23-41.3,7.74-53.12c7.54-25.46,11.58-71.25,11.58-71.25Z"/><polygon class="cls-31" points="3452.96 482.53 3463.97 511.38 3448.76 513.26 3445.68 489.75 3452.96 482.53"/><path class="cls-13" d="M3458,557.66a153.46,153.46,0,0,1-37,3.38,276,276,0,0,1-32.78-3.06c.36.09,3.5-64.4,3.5-64.4l-1.81-20.22c5.69-7,16.32-9.19,23.79-10.23,2.84,2.94,8.46,7.27,14.78,6.47,4.74-.6,5.64-2.83,5.57-5.53,9.9,1.67,16.83,10,16.83,10Z"/><path class="cls-14" d="M3390.2,472.36s-19.72,37.15-17.17,47.3,30.58,14,30.58,14l1.85-5.35s-20.86-14.05-18.49-16.4,11.15-17.86,11.63-20.22S3396.8,473.1,3390.2,472.36Z"/><path class="cls-12" d="M3399.48,466.57a28.25,28.25,0,0,0-12.65,9.73,98.56,98.56,0,0,0-8.43,15.63s7.5,8.63,18.22,8.56S3399.48,466.57,3399.48,466.57Z"/><path class="cls-11" d="M3441.18,466.63s7.88,3.34,10.92,9.12,6.76,18.53,6.76,18.53a45.3,45.3,0,0,1-7.9.44C3446.48,494.58,3441.18,466.63,3441.18,466.63Z"/><path class="cls-24" d="M3428,513.49,3419,495.25a3.07,3.07,0,0,1-.16-2.23h0a9.66,9.66,0,0,0-1-6.86,2,2,0,0,0-2.86-.72,2.33,2.33,0,0,0-.68,3.07,5,5,0,0,1,.57,3.17c-.07.24-.28,1-1.62,1.58-3,1.39-4.37-1.27-4.72-2.12a2,2,0,0,0-2.73-1.17,2.3,2.3,0,0,0-1.09,2.93,9,9,0,0,0,4.39,4.73h0a4.32,4.32,0,0,1,2.19,2.05l9.07,18.25Z"/><path class="cls-24" d="M3436.35,512.52l-1.95-10.79a1.57,1.57,0,0,1,.23-1.16h0a5.13,5.13,0,0,0,.49-3.65,1.09,1.09,0,0,0-1.35-.85,1.2,1.2,0,0,0-.79,1.45,2.67,2.67,0,0,1-.17,1.7c-.07.11-.29.44-1.06.53a1.87,1.87,0,0,1-2.09-1.87,1.13,1.13,0,0,0-1.21-1.05,1.17,1.17,0,0,0-1,1.3,5.12,5.12,0,0,0,1.55,3.14h0a2.42,2.42,0,0,1,.82,1.4l1.95,10.81Z"/><path class="cls-22" d="M3471.56,517.2l6-13.91a2.05,2.05,0,0,1,1.16-1.1h0a6.51,6.51,0,0,0,3.34-3.69,1.7,1.7,0,0,0-.87-2.15,1.52,1.52,0,0,0-2,.94,3.4,3.4,0,0,1-1.49,1.77c-.16.06-.66.25-1.6-.32a2.86,2.86,0,0,1-.93-4,1.72,1.72,0,0,0-.57-2.25,1.47,1.47,0,0,0-2.1.61,7.32,7.32,0,0,0-.65,4.9h0a3.66,3.66,0,0,1-.15,2.31l-6,13.91Z"/><rect class="cls-32" x="3431.75" y="506.15" width="51.9" height="46.01" transform="translate(2.48 -15.96) rotate(0.26)"/><rect class="cls-33" x="3405.8" y="506.03" width="51.9" height="46.01" transform="matrix(1, 0, 0, 1, 2.47, -15.81)"/><polygon class="cls-34" points="3457.79 506.14 3447.47 518.2 3396.26 517.97 3405.89 505.91 3457.79 506.14"/><polygon class="cls-35" points="3483.57 540.61 3475.35 540.57 3476.08 538.09 3475.36 536.3 3483.59 536.34 3483.57 540.61"/><polygon class="cls-36" points="3457.77 511.35 3468.66 523.16 3483.64 523.23 3483.71 506.26 3457.79 506.14 3457.77 511.35"/><polygon class="cls-34" points="3483.74 506.26 3495.36 518.42 3469.39 518.31 3457.79 506.14 3483.74 506.26"/><path class="cls-14" d="M3404.93,528.16s4.75-3,7-1.92,6.07,5.27,4,6.06-5.07.57-6.22,1.18a8.25,8.25,0,0,1-6.31.15C3400.67,532.65,3404.93,528.16,3404.93,528.16Z"/><path class="cls-14" d="M3405.13,528.13a18.86,18.86,0,0,0,1-2.7c.11-.68.73-.39.75.38s.06,2.16.06,2.16Z"/><path class="cls-20" d="M3277.72,710.59h103.19a22,22,0,0,1,22,22v25a0,0,0,0,1,0,0H3255.13a0,0,0,0,1,0,0V733.18A22.6,22.6,0,0,1,3277.72,710.59Z" transform="translate(6658.03 1468.2) rotate(-180)"/><path class="cls-19" d="M3401.23,710.59h111.3a22.68,22.68,0,0,1,22.68,22.68v24.35a0,0,0,0,1,0,0H3377.92a0,0,0,0,1,0,0V733.9a23.31,23.31,0,0,1,23.31-23.31Z" transform="translate(6913.12 1468.2) rotate(-180)"/><path class="cls-19" d="M3402,710.59s9.38-96.82-33.42-96.82-68,3.91-59.07-44.47c5.28-28.73-15-28.4-55.54-25.07-5,.41-13.26,7-12.09,11.89l37.29,154.47Z"/><path class="cls-20" d="M3377.9,710.59s9.26-99.94-33.42-96.82c-53.79,3.94-64.55,6-54.14-40.52,7.37-33-14.8-31.9-42.71-28.28-3.85.5-8.05,3.4-7.18,9l14.62,156.57Z"/><path class="cls-22" d="M4027.56,580.44c.58,2.28,1.82,5.94,3.38,10.34.54,1.49,1.12,3.06,1.72,4.69,1.27,3.45,2.67,7.14,4.09,10.83,2.33,6,4.71,12,6.66,16.92,2.69,6.72,4.62,11.45,4.62,11.45l-2.86,6.93,24.27-5.51-5.55-5s-.29-5.08-.79-12.28c-.37-5.32-.82-11.83-1.31-18.29-.31-3.91-.64-7.8-1-11.42-.28-3-.56-5.84-.84-8.32-.34-3.13-.7-5.72-1-7.44a13.87,13.87,0,0,0-1.79-4.61c-4.21-6.9-13.39-8.29-14.19-11.83a16,16,0,0,1-.27-1.9c-.5-5.56.11-16.78.11-16.78L4027,541.8s5.3,9.66,7.29,14.92a15,15,0,0,1,.63,2c.81,3.53-6.88,8.75-7.7,16.79A13.87,13.87,0,0,0,4027.56,580.44Z"/><path class="cls-37" d="M4027.56,580.44c.58,2.28,1.82,5.94,3.38,10.34.54,1.49,1.12,3.06,1.72,4.69.17,0,8.47,1.73,28.16-6.39h0c-.28-3-.56-5.84-.84-8.32-.34-3.13-.7-5.72-1-7.44a13.87,13.87,0,0,0-1.79-4.61s-14.27,7.21-30,6.8A13.87,13.87,0,0,0,4027.56,580.44Z"/><path class="cls-19" d="M4031.89,593.36s1.14-.9,3.14-2.55c1-.82,1.8-.41,2.82.1a5.36,5.36,0,0,0,3.61.77,4.68,4.68,0,0,0,2.78-1.62,4.08,4.08,0,0,1,4.08-1.42c3.66.43,4.56-.43,6.2-2,.3-.29.64-.61,1-.95a4.13,4.13,0,0,1,4.79-.53l.14-.23a4.41,4.41,0,0,0-5.11.56c-.38.34-.72.67-1,1-1.58,1.51-2.45,2.35-6,1.93a4.35,4.35,0,0,0-4.3,1.5,4.49,4.49,0,0,1-2.64,1.55,5.22,5.22,0,0,1-3.44-.75c-1.06-.54-2-1-3.11-.07-2,1.65-3.13,2.54-3.14,2.54Z"/><path class="cls-19" d="M4031.53,591.76s1.13-.9,3.14-2.55c1-.82,1.8-.41,2.81.1a5.37,5.37,0,0,0,3.62.77,4.68,4.68,0,0,0,2.78-1.62A4.07,4.07,0,0,1,4048,587c3.66.43,4.56-.43,6.2-2,.3-.28.64-.61,1-.95a4.07,4.07,0,0,1,4.78-.53l.15-.23a4.41,4.41,0,0,0-5.11.56c-.38.34-.72.67-1,1-1.58,1.51-2.45,2.34-6,1.92a4.37,4.37,0,0,0-4.3,1.5,4.49,4.49,0,0,1-2.64,1.55,5.16,5.16,0,0,1-3.44-.75c-1.06-.54-2-1-3.11-.07-2,1.65-3.13,2.54-3.14,2.55Z"/><path class="cls-19" d="M4051.73,584.14a1,1,0,1,0-.75,1.2A1,1,0,0,0,4051.73,584.14Z"/><path class="cls-19" d="M4041.49,586.47a1,1,0,0,0-1.94.44,1,1,0,1,0,1.94-.44Z"/><path class="cls-19" d="M4047.47,590.67a1,1,0,0,0-1.94.44,1,1,0,1,0,1.94-.44Z"/><path class="cls-19" d="M4037.56,592.92a1,1,0,0,0-1.95.44,1,1,0,0,0,1.2.75A1,1,0,0,0,4037.56,592.92Z"/><path class="cls-19" d="M4058.61,587.12a1,1,0,0,0-1.19-.75,1,1,0,0,0-.75,1.19,1,1,0,0,0,1.94-.44Z"/><path class="cls-19" d="M4033.25,588.34a1,1,0,1,0-.75,1.19A1,1,0,0,0,4033.25,588.34Z"/><path class="cls-19" d="M4029,583.79s1.2-.92,3.32-2.59c1.06-.84,1.9-.44,2.95.07a5.82,5.82,0,0,0,3.78.73,5,5,0,0,0,2.93-1.65,4.49,4.49,0,0,1,4.3-1.48c3.82.4,4.78-.47,6.51-2.06.32-.29.68-.62,1.08-1a4.44,4.44,0,0,1,5-.59l.14-.24a4.8,4.8,0,0,0-5.35.61c-.4.35-.77.68-1.08,1-1.68,1.54-2.6,2.38-6.3,2a4.75,4.75,0,0,0-4.52,1.55,4.85,4.85,0,0,1-2.79,1.58,5.56,5.56,0,0,1-3.61-.71c-1.09-.53-2-1-3.24,0-2.12,1.67-3.31,2.58-3.32,2.59Z"/><path class="cls-19" d="M4028.58,582.19s1.2-.91,3.33-2.59c1.06-.83,1.89-.44,3,.07a5.81,5.81,0,0,0,3.78.74,5.11,5.11,0,0,0,2.93-1.66,4.46,4.46,0,0,1,4.29-1.47c3.83.39,4.79-.48,6.52-2.07.32-.29.68-.62,1.08-1a4.51,4.51,0,0,1,5-.59l.14-.24a4.79,4.79,0,0,0-5.35.62c-.41.34-.77.67-1.09,1-1.67,1.54-2.59,2.38-6.3,2a4.75,4.75,0,0,0-4.52,1.55,4.82,4.82,0,0,1-2.78,1.58,5.56,5.56,0,0,1-3.61-.71c-1.1-.53-2.05-1-3.24,0-2.12,1.67-3.31,2.57-3.32,2.58Z"/><path class="cls-19" d="M4049.84,574.33a1,1,0,1,0-.8,1.2A1,1,0,0,0,4049.84,574.33Z"/><path class="cls-19" d="M4039.09,576.77a1,1,0,0,0-1.24-.74,1,1,0,1,0,1.24.74Z"/><path class="cls-19" d="M4045.31,580.92a1,1,0,0,0-1.24-.74,1,1,0,0,0-.8,1.2,1,1,0,0,0,1.24.74A1,1,0,0,0,4045.31,580.92Z"/><path class="cls-19" d="M4034.89,583.28a1,1,0,0,0-1.24-.74,1,1,0,1,0,.44,1.94A1,1,0,0,0,4034.89,583.28Z"/><path class="cls-19" d="M4057,577.24a1,1,0,1,0-.8,1.2A1,1,0,0,0,4057,577.24Z"/><path class="cls-19" d="M4030.39,578.75a1,1,0,1,0-.8,1.2A1,1,0,0,0,4030.39,578.75Z"/><path class="cls-38" d="M4045.17,641.6l24.27-5.51-5.55-5a42.54,42.54,0,0,1-15.86,3.6Z"/><path class="cls-39" d="M4109.15,598.54V585.26s-8.85-7.24-18.51-5.63-23.13-1-27.35,5.63a37.68,37.68,0,0,0-5.23,12.67l2.81,1.21Z"/><path class="cls-40" d="M4025,585.39s-11.13-6.43-18.64-4.29-5.79,3.94-5.79,3.94S4024.86,585,4025,585.39Z"/><path class="cls-41" d="M4068.28,651H4005.7a4.27,4.27,0,0,1-4.25-3.89l-5.13-57.43a4.26,4.26,0,0,1,4.25-4.65h72.84a4.28,4.28,0,0,1,4.26,4.65l-5.14,57.43A4.26,4.26,0,0,1,4068.28,651Z"/><path class="cls-42" d="M4105.31,651h-62.57a4.26,4.26,0,0,1-4.25-3.89l-5.14-57.43a4.28,4.28,0,0,1,4.26-4.65h72.84a4.26,4.26,0,0,1,4.25,4.65l-5.13,57.43A4.27,4.27,0,0,1,4105.31,651Z"/><path class="cls-39" d="M4085,596.37h-19.35a2.64,2.64,0,0,1-2.63-2.62h0a2.64,2.64,0,0,1,2.63-2.63H4085a2.63,2.63,0,0,1,2.62,2.63h0A2.63,2.63,0,0,1,4085,596.37Z"/><path class="cls-43" d="M4099.15,488s12-13.94.74-22.8c0,0-8.19-5-14.87-4.55,0,0,9.47,15.86,6.4,17.44s-9.26-18.44-9.26-18.44-18.64-1.8-24.64,1.08c0,0,15.94,13,12.58,13.81s-20.56-12-20.56-12-17.35,2.95-16.42,13.53,6.9,13.85,9.52,13.57,18-6.15,18.33-4-8.91,9.18-15.39,9.51c0,0,12.23,13.49,20.36,9.6s8.82-10.07,13.88-12.38,9.4-2.31,7.3.05-11.26,4.66-14.15,9.78-5.5,8.58,2.91,7.32,22.07-7.42,22.67-14.47Z"/><path class="cls-43" d="M4041.64,476.36s47.11-1.82,57.51,11.66a34.13,34.13,0,0,0,9.39,13.16l1.1,3s-8.16-8.61-11.09-9.13C4098.55,495.06,4103.12,478.37,4041.64,476.36Z"/><path class="cls-43" d="M4108.54,501.18s10.11,7.48,10.81,20.84l-1.84.17s-3.22-13.82-9.06-19.22S4108.54,501.18,4108.54,501.18Z"/><path class="cls-44" d="M4140.93,470.49s-19-10.65-10.14-25.09c0,0,7.1-8.87,14.7-11.15,0,0-4.05,21.54,0,22s2.79-24.32,2.79-24.32,20-9.64,27.88-8.87c0,0-12.42,21-8.37,20.52s18-21.79,18-21.79,20.53-3.8,23.82,8.36-2,18.25-5.07,19-22.55.51-22.05,3,13.69,6.59,21,4.31c0,0-8.11,20-18.76,19s-13.93-7.61-20.52-8.11-11.41,1.26-8.11,3,14.44.58,19.76,5.1,9.63,7.31-.25,9.34-27.62.76-31.17-6.84Z"/><path class="cls-43" d="M4200.23,434s-53.22,17.24-59.3,36.5a40.49,40.49,0,0,1-5.07,18.5v3.8s5.58-12.93,8.62-14.7C4144.48,478.09,4132.57,461.36,4200.23,434Z"/><path class="cls-43" d="M4135.86,489s-8.2,12.46-3.53,27.63l2.12-.57s-2.05-16.71,2.24-25.11S4135.86,489,4135.86,489Z"/><path class="cls-44" d="M4110.69,455.81s25.06-14,13.36-33.08c0,0-9.35-11.69-19.37-14.69,0,0,5.34,28.39,0,29.06S4101,405,4101,405s-26.39-12.7-36.74-11.69c0,0,16.37,27.72,11,27.06s-23.72-28.73-23.72-28.73-27.06-5-31.4,11,2.67,24.05,6.68,25.06,29.73.66,29.06,4-18,8.69-27.72,5.68c0,0,10.69,26.39,24.72,25.06s18.37-10,27.06-10.69,15,1.67,10.69,4-19,.76-26.06,6.73-12.69,9.64.33,12.31,36.42,1,41.1-9Z"/><path class="cls-43" d="M4032.52,407.7s70.15,22.72,78.17,48.11c0,0-.33,11.36,6.68,24.38v5s-7.35-17-11.35-19.37C4106,465.83,4121.72,443.78,4032.52,407.7Z"/><path class="cls-43" d="M4117.37,480.19s10.82,16.43,4.65,36.43l-2.78-.75s2.7-22-3-33.1S4117.37,480.19,4117.37,480.19Z"/><path class="cls-6" d="M4111.54,560a49.08,49.08,0,0,1-49.08-49.08h98.16A49.08,49.08,0,0,1,4111.54,560Z"/><path class="cls-22" d="M4061.78,562.49h99.51a6.05,6.05,0,0,0-6.05-6.06h-87.41a6.05,6.05,0,0,0-6,6.06Z"/><rect class="cls-22" x="4061.34" y="510.91" width="100.89" height="1.51" transform="translate(8223.57 1023.33) rotate(-180)"/><path class="cls-45" d="M3918.86,579.52s0,1.75-.1,4.89c-.44,20.24-2.17,98.51-3.81,142.14-.07,1.59-.13,3.13-.19,4.62l-.09,2.37a470.55,470.55,0,0,1-6.74,58.27c-3.68,21.07-7.43,35.42-7.43,35.42-14.05,2.84-12.44-21.52-12.44-21.52s-12.08-20.52-13.52-40.31c-.47-6.43-5.22-21.49-8.12-48.14-2.25-20.61-4.86-44.06-7.24-65.39-.13-1.14-.25-2.27-.38-3.39-3.86-34.48-7.05-62.57-7.05-62.57l24.85-2.36Z"/><path class="cls-27" d="M3907.93,791.81l-41.51-74.55c-2.25-20.61-4.86-44.06-7.24-65.39-.13-1.14-.25-2.27-.38-3.39-3.86-34.48-7.05-62.57-7.05-62.57l24.85-2.36,42.16.86Z"/><path class="cls-46" d="M3840.86,402.45s2.93-10.85,4.57-15.42,17.46-13.93,21.33-12.63-1.54,13-3.47,16.61-1.15,7.65-4.31,9.92-9.53,7.22-9.53,7.22Z"/><path class="cls-47" d="M3862.77,713.25s22.8,106.61,19.49,109.76-25,4.13-31.06,12.83c-2,2.9-1.55,7.46-1.55,7.46h54s4.84-3,5.28-16.32,3.84-87.23,2.07-112.35C3911,714.63,3900.69,706.06,3862.77,713.25Z"/><path class="cls-11" d="M3848,406.61l-6,57.08-32.78,16.17s-4-23.73,8.9-48.72a161.33,161.33,0,0,1,22.73-32.5A23.74,23.74,0,0,1,3848,406.61Z"/><rect class="cls-27" x="3844.38" y="390.17" width="13.44" height="23.19" rx="5.77" transform="translate(6784.85 2928.71) rotate(-145.22)"/><rect class="cls-48" x="3844.83" y="392.23" width="11.73" height="20.23" rx="5.03" transform="translate(6783.74 2929.59) rotate(-145.22)"/><path class="cls-14" d="M3907.1,416.33l-19.26,18.46a58.88,58.88,0,0,1-11-12.36c-.45-.66-.88-1.33-1.3-2a92.78,92.78,0,0,1-5.81-11c-.23-.49-.43-1-.62-1.38-1.07-2.32,10.69-9.77,17.33-14.48a26,26,0,0,0,4.18-3.45,18.57,18.57,0,0,0,0,5.23,21.57,21.57,0,0,0,5.8,10.88C3903.15,413.66,3907.1,416.33,3907.1,416.33Z"/><path class="cls-49" d="M3892.53,395.85s-3.82,20.29-15.68,26.58c-.45-.66-.88-1.33-1.3-2a92.78,92.78,0,0,1-5.81-11c1.44-3,11.33-9.32,17.22-13.5C3890.28,395.92,3892.53,395.85,3892.53,395.85Z"/><path class="cls-14" d="M3868.93,418.38s28.83-9.62,22.56-27.48-6.77-31.13-25.44-25.74-19.84,13.45-19.2,19.92S3861.27,420.42,3868.93,418.38Z"/><path class="cls-29" d="M3893.7,396.29s5.5-2,5.39-13.16c-.05-6.22,4.42-9.17-.29-17.72S3894.39,350,3881.4,350s-14.29-6-20.91-3.92-12.49,11.82-18.16,13.64-9.95,31.5,3,30.69c0,0,4.88-2.43,7.06-6.35s13.22-12.85,16.74-9.94S3886.73,396.43,3893.7,396.29Z"/><path class="cls-11" d="M3911.83,462.63s-56.85,25.44-91.41,31.29c0,0-10.83-.74-11.19-14.06-.23-8.44,56.74-49.92,77.56-48.69S3919,453.71,3911.83,462.63Z"/><path class="cls-27" d="M3939.29,841.4h-48.11a11,11,0,0,1,7.52-6.14,14,14,0,0,1,1.54-.31c5.19-.73,13.16-3,18.25-7.62a14.38,14.38,0,0,0,4.46-7.17c2.38-9.66,18,3.35,18,3.35s.16,1.55.28,3.74C3941.46,832,3941.51,839.77,3939.29,841.4Z"/><path class="cls-26" d="M3856.34,586.1S3881,666.55,3899.92,722s26,87.5,26,87.5,9.08,21.45,16.73,17.08c0,0,4.37-105.06-7.08-133-7.58-18.45-13.37-57.73-11.4-71.88s3.81-42.52,3.81-42.52Z"/><path class="cls-13" d="M3931.06,576.21c-1.3,7-4.42,12.62-9.23,16-5.49,3.89-14.15,5.29-23.67,5.15a129.43,129.43,0,0,1-33.29-5.43,77.75,77.75,0,0,1-13.18-5.07c-14.71-7.67-12.62-17.88-12.27-56.1.36-39,24.36-89.42,28.69-97.86,7.69-15,40.35-10.09,40.35-10.09,7.15,6.57,13.42,16.1,17.69,31.34,1.73,6.17,2.74,14.79,3.32,24.48,1.77,29.61-.51,69.1,1.21,78.32A52.94,52.94,0,0,1,3931.06,576.21Z"/><path class="cls-11" d="M3904.19,408s5.34,12.64,4.27,14.89c0,0-29.05,2.86-41,11.36,0,0,3.64-12.36,8.41-15.41S3904.19,408,3904.19,408Z"/><path class="cls-11" d="M3931.06,576.21C3870.31,553.09,3905,467.58,3905,467.58c8.5.61,16.82,4.74,24.47,11.08,1.77,29.61-.51,69.1,1.21,78.32A52.94,52.94,0,0,1,3931.06,576.21Z"/><path class="cls-14" d="M3910.53,541.27s-3.33,5.77-6.53,4.41-9.67-2.79-14.48.3-12.05,11.45-7.52,13.49,13.13-3.37,15.17-4.28,5.58.91,9.51-1.06a39.73,39.73,0,0,0,8-5.88Z"/><path class="cls-50" d="M3893.6,713.75S3921,819,3917.67,822.15s-27.46,4.85-31.31,14.58a14.82,14.82,0,0,0-1.05,6.57h54s4.83-3,5.27-16.32,3.84-87.23,2.07-112.35C3946.63,714.63,3914.43,711.09,3893.6,713.75Z"/><path class="cls-14" d="M3905.56,544.82s-7.31-2.44-8.57-3.55-1.25,1.26,1.78,3.55,7.24,1.33,7.24,1.33Z"/><path class="cls-12" d="M3910.38,424.7s38.89,33.48,62.52,59.71a12.87,12.87,0,0,1,1.73,15.14l-.08.14a80.91,80.91,0,0,1-22.29,28.11c-22.37,18.42-34.72,22.07-34.72,22.07s-14.84,2.55-12.24-7l28.31-38.71a6.29,6.29,0,0,0-2.56-9.49c-18.33-8-37.24-19.06-42.11-28.53C3879.42,447.55,3899,423,3910.38,424.7Z"/><path class="cls-29" d="M3681.19,386.77s-21.3-6.47-33.86,5.71-10.09,26.15-28,25.06-22,5.51-19.69,15.81-19.86,7.4-26.56,20-7.67,35.72,26.92,34.53,49.92-19.81,64.74-12.08,39.22-4.7,32.81-15.54,6-7.91,8.23-30S3696.14,388.44,3681.19,386.77Z"/><path class="cls-26" d="M3636.64,457.14c18.7-3.94,31.54-1.22,43.78-.9h0a63.17,63.17,0,0,0,33.3-7.74c10.46-5.66-8-33.88-8-33.88l8-5.12s34.08,32.55,33.34,45c-.5,8.23-25.74,20.56-42.2,28.93A9.52,9.52,0,0,0,3700,494l0,.14c2.79,19.5-12.61,48.23-12.61,48.23l-28.71,22.54-27.39-19.49h0l-2.23-.8s-4.52-2.25-5.86-12.92c-.17-1.32-1.12-12.59-2.07-23.95-1-12.27-2-24.62-2-24.62Z"/><path class="cls-11" d="M3685.34,548.68s10.8,31.59,8.88,54.71c-1.16,14-19.93,113.36-21,119.81-1,6.08-14.48,84.78-14.48,84.78s2.32,13.1-2.63,11.7c-6.88-1.94-9.05-4.26-9.05-4.26s-10.28-131.83-3.92-178.92a746.94,746.94,0,0,0,6.44-87.82Z"/><path class="cls-13" d="M3629.38,547.46s-20.15,27-22,45.3-2.94,82.46-6.95,100.28-18.7,52.1-18.7,107.66c0,0,1.53,3.18,6.25,4.88,1.51.54.81-2.17,2.78-1.72,3.89.89,35.53-78.56,37.31-82.14,9.94-20,29.43-89.4,51.24-126.22,5.23-8.84-3.22-44-3.22-44Z"/><path class="cls-14" d="M3659.49,462.24c-3.59-1.63-5.16-4.3-4.38-8.19,1.15-5.7,3.25-11,3.5-19.33l1.2.27,20.16,4.7s-.89,12.49-.89,12.54C3678.54,460.31,3676.58,470,3659.49,462.24Z"/><path class="cls-46" d="M3680,439.69s-.67,6.37-.89,12.39c-11.34-.7-17-11.26-19.27-17.09Z"/><path class="cls-14" d="M3683.57,445.52s-26.88-.46-26.34-17.2-2.56-28.07,14.63-28.48,20.31,6.08,21.49,11.71S3690.58,445.2,3683.57,445.52Z"/><path class="cls-29" d="M3685.27,400.63s-9,21.85-21.86,24.7-18.24-.75-18.24-.75a36.07,36.07,0,0,0,12.5-20.89S3679.37,389.89,3685.27,400.63Z"/><path class="cls-29" d="M3681.83,399.7s6.07,2.5,8.45,7.07a30.54,30.54,0,0,1,3.51,17.45s6.75-14.83,0-23.57C3686.66,391.38,3681.83,399.7,3681.83,399.7Z"/><path class="cls-27" d="M3631.35,545.38h0l-2.23-.8s-4.52-2.25-5.86-12.92c-.17-1.32-1.4-15.92-2.35-27.28,0,0,10.4-6.75,13.49-.73s-4.05,17.37-1.42,24.07S3640.15,543.43,3631.35,545.38Z"/><path class="cls-27" d="M3687.45,542.33s-5.31,4.2-15.84,4.41c-12.58.25-43.76-3.21-43.76-3.21a26,26,0,0,0-1.33,8s38.08,9.6,60.14,1.4C3686.66,552.89,3689.51,547.54,3687.45,542.33Z"/><path class="cls-37" d="M3668.89,551.09c0-3.59,2.57-6.5,5.74-6.5s5.74,2.91,5.74,6.5-2.57,6.49-5.74,6.49S3668.89,554.67,3668.89,551.09Zm1.9,0c0,2.53,1.72,4.59,3.84,4.59s3.84-2.06,3.84-4.59-1.72-4.6-3.84-4.6S3670.79,548.55,3670.79,551.09Z"/><path class="cls-27" d="M3636.64,457.14s-18.08.89-28,14.62-32,46.6-33.52,56.73,36.34,38.58,36.34,38.58a15.5,15.5,0,0,0,4.09-2.2,16.61,16.61,0,0,0,2.46-2.7s-21.92-35.86-20.15-38.61,35.75-29.19,35.75-29.19Z"/><path class="cls-14" d="M3713.77,409.5s-1.82-9.68-5.07-12-14.92-8.44-15.32-6.11,7.19,9.67,7.34,12.33c.21,3.84-2.66,4.61,5,10.94S3713.77,409.5,3713.77,409.5Z"/><path class="cls-14" d="M3712.41,404.24s-.46-5.41.42-8.28-1.44-1.4-1.95-.57a44.32,44.32,0,0,0-1.81,4.65Z"/><path class="cls-14" d="M3618.05,562.17s8.07-2.95,10.8-1.18,7.76,8.57,6,10.79-8.86-1.18-10.78-2.07-3.94,1.67-6.72,1.77-5.83-4.41-5.83-4.41Z"/><path class="cls-14" d="M3618.05,562.17s6.26-4.54,6.92-4-2,3.65-2.33,4S3618.05,562.17,3618.05,562.17Z"/><path class="cls-50" d="M3634.94,708.54s-27-6-42-13.07c0,0-15.22,85.29-21,114.45-.9,4.54-3.18,11.4-4.06,15.49a34.45,34.45,0,0,0,.22,14.51h46.68s-.29-7.18-8.49-9.84-16.77-8.35-16.55-11.89S3634.94,708.54,3634.94,708.54Z"/><path class="cls-50" d="M3679.15,710.79l-39.89-.29s3.35,97.2,1.82,107.54a213.47,213.47,0,0,0-1.82,21.88h51.41s.67-6-7.53-10.93-17.51-.68-20.61-7.55S3679.15,710.79,3679.15,710.79Z"/><path class="cls-25" d="M3982.09,735.39a41.52,41.52,0,0,0,41.55,41.55c.35,0,.7,0,1.06,0a41.54,41.54,0,1,0-42.14-47.78A43,43,0,0,0,3982.09,735.39Z"/><polygon class="cls-24" points="4012.13 724.18 4028.02 724.18 4035.97 737.94 4028.02 751.7 4012.13 751.7 4004.18 737.94 4012.13 724.18"/><path class="cls-24" d="M3990.86,760.92a41.52,41.52,0,0,0,23.17,14.9l.73-1.26-8-13.76h-15.88Z"/><path class="cls-24" d="M3982.56,729.14h11.08l7.94-13.76-6.09-10.54A41.4,41.4,0,0,0,3982.56,729.14Z"/><path class="cls-24" d="M4026.17,699.54l7.94,13.76H4050l3.77-6.52a41.39,41.39,0,0,0-24.53-12.57Z"/><path class="cls-24" d="M4046.61,739.39l7.95,13.76h6.65a41.77,41.77,0,0,0,2.83-27.53h-9.48Z"/><path class="cls-24" d="M4024.36,776.35l.34.57a41.33,41.33,0,0,0,26-10l-2.5-4.33H4032.3Z"/><g class="cls-51"><path class="cls-22" d="M3166.84,773.41c13.15,42.6,35.37,67.21,35.81,68.2,66.22,0,1030.9.24,1031.45-1.48l.1-.21a1.17,1.17,0,0,0,.09-.32c.15-.35,25.63-41.69,39.12-101.89-20.18-6.44-76.17-18.55-149.8,13.12-93.07,40-261.39-11.93-361.8-2.4s-135.15,38.61-226.6,26.78-164.65-12.11-224.67,0C3259.56,785.49,3212.88,772.77,3166.84,773.41Z"/></g></g></g></svg>