<svg id="Layer_1" data-name="Layer 1" xmlns="http://www.w3.org/2000/svg" viewBox="0 0 500 500"><defs><style>.cls-1{fill:#fff;}.cls-2{fill:#0084ff;}</style></defs><circle class="cls-1" cx="250" cy="250" r="200"/><path class="cls-2" d="M347.09,115c1.1,0,3,.39,6.62,3.79q9.82,9.17,19.64,18.34c18.3,17.09,37.23,34.77,55.88,52.12-.05,6.22,0,12.53,0,18.66l-31.12-29.08q-22.15-20.68-44.3-41.37l-1.36-1.3c-1.86-1.79-4-3.82-7.44-3.82a10.5,10.5,0,0,0-6.06,2.27c-.46.31-1,.67-1.63,1.07q-76,47.1-152,94.25l-32.56,20.19a104.58,104.58,0,0,0-.32-11.95c-.32-3.3.08-4.4,3.66-6.35,6.71-3.66,13.2-7.76,19.47-11.74,3.19-2,6.49-4.11,9.75-6.09A11.27,11.27,0,0,0,191,203.55c-.11-7-.08-14.21-.06-21.16V178c0-3.12.95-3.68,3.58-3.69h25.06l6.49,0,6.92,0c3.86,0,7,0,9.9.1h.49a20.14,20.14,0,0,0,11.05-3.3c29.68-18.48,60.16-37.37,86.4-53.64,2.67-1.65,4.72-2.45,6.26-2.45m0-7c-3,0-6.19,1.18-9.95,3.5q-43.22,26.79-86.41,53.65a13.38,13.38,0,0,1-7.35,2.24h-.33c-3.35-.07-6.71-.1-10.06-.1-4.48,0-9,0-13.42.05H194.5c-6.71,0-10.54,3.89-10.56,10.67,0,8.57-.08,17.14.05,25.7a4.33,4.33,0,0,1-2.36,4.31c-9.66,5.88-19,12.27-28.93,17.67-5.69,3.1-7.9,6.72-7.28,13.16.65,6.71.12,13.53.17,20.3,0,1.8.21,2.59.95,2.59a5.26,5.26,0,0,0,2.17-.9l1.35-.83Q245.52,200.76,341,141.58c2.33-1.45,3.21-2.29,4-2.29s1.61,1,4,3.24q41.87,39,83.68,78.16c.64.59,1.24,1.66,2.15,1.66a1.5,1.5,0,0,0,.69-.19c1-.55.69-1.9.7-2.93,0-10-.07-20.1,0-30.14a6,6,0,0,0-2.13-4.92Q396.24,149,358.49,113.62c-4.08-3.81-7.61-5.67-11.4-5.67Z"/><path class="cls-2" d="M324.58,166.17v27.66a9.08,9.08,0,0,0-2.95-.51c-1.86,0-7.95.71-8,9.94,0,2.59,0,5.18,0,7.76,0,3.49,0,7.09,0,10.61a9,9,0,0,1-.1,1.25,7.53,7.53,0,0,1-1.37.11c-2.74,0-5.41,0-7.94,0s-4.86,0-7.16,0a5.19,5.19,0,0,1-1.14-.12,5.11,5.11,0,0,1-.12-1.2q0-4.68,0-9.37c0-3.11,0-6.23,0-9.34-.05-9-6-9.73-7.86-9.73a11.52,11.52,0,0,0-5.81,1.92l-3.38,2c-1.4.82-2.85,1.66-4.26,2.45A14.72,14.72,0,0,0,266.72,213l0,7c0,6.46,0,13.15.1,19.73a14,14,0,0,0,7.33,12.51l4.36,2.49,3.44,2v78.31c-2.52,1.45-5,2.9-7.54,4.33A15,15,0,0,0,266.71,353c0,2.2,0,4.46,0,6.64,0,1.45,0,2.93,0,4.42l-4.85,0-4.55,0c0-13.1,0-26.35,0-39.2v-19q0-13.32,0-26.64c0-23.09.05-47,0-70.46a5.32,5.32,0,0,1,.07-1,5.22,5.22,0,0,1,.68-.48c19.09-11.7,38.42-23.71,57.11-35.32l9.36-5.82m2.62-9c-1.45,0-2.73.85-4.06,1.67-22.87,14.2-45.73,28.44-68.69,42.51-3,1.85-4.1,4-4.09,7.42.08,32.36,0,64.72,0,97.07,0,20.84,0,41.67,0,62.5,0,2.1.47,2.81,2.51,2.81h.26c2.93-.08,5.86-.11,8.8-.11q4.8,0,9.59.09h.14c1.72,0,2.2-.6,2.16-2.33-.1-5.28,0-10.57-.05-15.86a8,8,0,0,1,4.21-7.6q11.54-6.61,23-13.3a7.49,7.49,0,0,1,3.76-1.08,7.7,7.7,0,0,1,3.77,1.06c2.3,1.28,4.56,2.64,6.85,3.95l16,9.14V246.35c-7.63,4.44-14.84,8.6-22,12.82a9,9,0,0,1-4.56,1.41,7.5,7.5,0,0,1-3.79-1.09c-7.75-4.51-15.55-9-23.34-13.4a7.1,7.1,0,0,1-3.81-6.49c-.08-8.88-.09-17.76-.12-26.64a7.75,7.75,0,0,1,4.18-7.29c2.58-1.44,5.12-3,7.68-4.42a6.2,6.2,0,0,1,2.35-1c.72,0,.85.83.86,2.76,0,6.24,0,12.48,0,18.72,0,5.37,2.84,8.22,8.19,8.28q3.62,0,7.23,0c2.67,0,5.33,0,8,0,5.74-.05,8.36-2.64,8.41-8.3,0-6.14,0-12.27,0-18.4,0-2.1.17-3,1-3a6.37,6.37,0,0,1,2.35.9c2.45,1.28,4.6,3.15,7.6,3.92V163.61c0-2.26,0-4.49-2.3-5.84a4.1,4.1,0,0,0-2.08-.61Zm-22.44,105.2a10.78,10.78,0,0,0,6-2.07c3-2,6.3-3.7,9.78-5.71v82.6c-4-2.28-7.5-4.18-10.89-6.29a9.29,9.29,0,0,0-4.93-1.58,9,9,0,0,0-4.84,1.55c-3.44,2.17-7,4.09-10.9,6.3V254.58c3.58,2,7,3.69,10.06,5.8a10.12,10.12,0,0,0,5.73,2Z"/><path class="cls-2" d="M343.49,154.39l.12.1q11.49,10.78,23,21.55l4.84,4.53a16.75,16.75,0,0,0-.89,3.9c-.35,2.94-.8,6-1.23,8.89-.22,1.48-.44,3-.65,4.43-.63,4.49.89,7.21,2.68,8.84V210c0,16,.08,32.49,0,48.74l-6.83,0c-5.09,0-11.15,2.16-11.12,12.21,0,5.23,1.78,8.24,4.19,9.91,0,4.61.05,9.3.06,13.85,0,5.22,0,10.59.08,15.95-2.29,0-4.69-.05-7.25-.05-2.38,0-4.87,0-7.77,0,.06-46.86.09-101.55,0-155.75v0a9.47,9.47,0,0,1,.82-.51m-.8.27h0m54.38,49.89c4.25,4,8.59,8,12.9,12,0,16.05,0,30.93,0,45a11.43,11.43,0,0,0-8-2.79h-7.1c0-.32,0-.63,0-1q0-25.38,0-50.78a7.49,7.49,0,0,0,2.17-2.45M410,280c0,10.55,0,20.69,0,30.6h-1.11c0-3.38,0-6.75,0-10.05,0-6.41,0-13,.1-19.52v-.22a8.17,8.17,0,0,0,1-.81M343.8,146.8a4.36,4.36,0,0,0-2.1.59c-3,1.64-6,3-6,7.56q.18,80.1,0,160.21c0,2.1.64,2.59,2.53,2.59h.17q6-.09,12.07-.1c3.59,0,7.18,0,10.76.12h.39c2.41,0,3.21-.66,3.16-3.42-.22-11.42-.09-22.84-.21-34.26,0-2,.52-2.65,2.54-2.65h.08q6.48,0,13,.05,9.06,0,18.11-.14h.3c2.54,0,3.46.62,3.41,3.55-.2,11.31,0,22.63-.12,33.94,0,2,.29,2.92,2.25,2.92h.46c1.61-.1,3.24-.15,4.86-.15s3.32.05,5,.14l.42,0c1.78,0,2.18-.78,2.18-2.67q-.11-49.32,0-98.66a6.27,6.27,0,0,0-2.19-5c-7.23-6.65-14.39-13.39-21.57-20.1l-3.9-3.65c.64,4.42,1.16,8,1.67,11.51.14.94.4,2.19-.78,2.43-2.75.56-2.31,2.56-2.3,4.43q0,25.86,0,51.71c0,6,0,5.88-6.07,6.11h-.48c-2.39,0-3-.8-3-3.46.14-18.29.08-36.58,0-54.88,0-1.25.65-3-1.21-3.52s-1.73-1.86-1.53-3.27c.64-4.49,1.37-9,1.9-13.48.3-2.52.83-4.53,4-4.53h.34l-1.57-1.49q-16-14.94-31.95-29.89c-1.4-1.32-2.83-2.59-4.59-2.59Zm28.49,129c-2.58,0-5.17,0-7.75,0-3.35,0-4.14-1-4.15-4.82,0-4.06.81-5.17,4.15-5.19q12.21,0,24.43,0l13,0c3.25,0,4.15,1.14,4.16,4.87,0,4.1-.76,5.14-4.15,5.17l-7.7,0-11,0h-11Z"/><path class="cls-2" d="M238.87,219.28V246a20,20,0,0,0-2.6.51l-1.14-4.73L229.75,247c-.13-.12-.26-.25-.39-.36l4.89-11.26L217,244l-.2.1-.06,0-.41.2-4.92-7.15-2.56,10.64a16.16,16.16,0,0,0-7.84-2,19.87,19.87,0,0,0-5,.67l-1.64.43c9.64-6,19.23-11.93,28.64-17.79l15.83-9.84m-51.39,31.91,4.48,5.93c-.2.48-.54,1.15-.79,1.64s-.48.94-.7,1.41c-.64,1.36-1.4,2.74-2.21,4.2a56,56,0,0,0-4.26,9c-1.48,4.34-3.29,11-2,18.43a15.89,15.89,0,0,1-.08,3.85c-.09,1-.19,2-.22,3.08-.3,9.42-.26,18.95-.22,28.16,0,3.94,0,8,0,12,0,6.44,4.31,10.73,11,10.93a40,40,0,0,1,13,2.08c5.76,2.17,7,4.16,6.24,10.12l-.57,4.58c-1.94,15.58-3.95,31.7-5.26,47.7-.06.79-.12,1.57-.16,2.36l-17.24,0c-6,0-11.53,0-16.74,0q0-7.84,0-15.7V374.46c0-37,0-75.19-.07-112.78a5.44,5.44,0,0,1,0-.77,5.49,5.49,0,0,1,.59-.41q7.53-4.63,15.09-9.31m54.38-41a8.55,8.55,0,0,0-4.19,1.63c-23,14.26-45.91,28.58-68.94,42.74a7.36,7.36,0,0,0-4,7.16q.13,69.66.07,139.32,0,10.15,0,20.31c0,1.28-.23,2.41,1.8,2.41h0q11-.06,21.92-.05,11.41,0,22.82,0h0c1.42,0,1.85-.47,1.6-1.85a26.94,26.94,0,0,1-.06-6.95c1.42-17.39,3.65-34.68,5.8-52,1.14-9.19-2-14.24-10.73-17.54a46.22,46.22,0,0,0-15.23-2.53c-2.56-.08-4.24-1-4.23-3.91,0-13.33-.24-26.67.19-40,.08-2.78.7-5.57.2-8.4-.93-5.15,0-10.08,1.69-14.93,1.51-4.43,4.18-8.28,6.17-12.48,1.49-3.15,3.76-6.26,1-9.91a13.11,13.11,0,0,1,3.24-.44,9.36,9.36,0,0,1,5.52,1.76c2.5,1.73,3.83,4.28,4.91,7.21a23.94,23.94,0,0,0,3.11-7.71c2.64,3.84,1.55,7.76,1.75,11.57,1.75-5,6.27-9.21,3.82-15.18h-.09l0-.07-.21,0,.29-.14c0,.06,0,.12-.08.17h0l0,.05a5.46,5.46,0,0,1,.79-.06c2.57,0,4.32,1.65,5.48,3.7.79,1.41,1.47,2.54,2.51,2.54a3.61,3.61,0,0,0,2.26-1.28c.3,1.25-.77,2.45.62,3.11,2.26-4.17,5.7-5.63,9.77-5.63a20.79,20.79,0,0,1,2.57.17l1.71-.08V214.24a1.15,1.15,0,0,1-.36-1.27c-1.12-1.89-2.2-2.81-3.65-2.81Z"/><path class="cls-2" d="M225.78,272.55l7,12.12,4.09-11.45a32.63,32.63,0,0,0,2.2,2.43c-.06,4.93-.07,9.56,0,14l-14,0c-8.58,0-17.49,0-26.53.06-.23-4.61,1.47-8.8,5.31-13.1l1.7.68a8.09,8.09,0,0,0,1.12.36,18,18,0,0,0,6.72,5.82,9.51,9.51,0,0,0,4.4,1.2,7.5,7.5,0,0,0,5.61-2.5,8,8,0,0,0,1.89-6.52,6,6,0,0,1,.57-3.12m13.33-14.88c-4.57,2.14-6.25,5.91-7.85,10.37a16.77,16.77,0,0,0-5.75-6.45,2.52,2.52,0,0,0-1.15-.5c-.32,0-.61.19-.87.76-2.17,4.72-5.91,8.86-5.24,14.63.11.92-.14,1.21-.54,1.21a3.22,3.22,0,0,1-1.25-.45,12.44,12.44,0,0,1-6.07-7.45c-.85.13-1.12,1.12-1.88,1.12a1.23,1.23,0,0,1-.43-.09c0-3.66,1-7.59-3.19-10.42.38,4.15-1.5,6.71-4.07,9.2-7,6.74-11,14.63-8.76,24.74.39,1.77,1.09,2.4,2.91,2.4h0q15-.06,30-.07,9.28,0,18.56,0h0c1.93,0,2.51-.6,2.48-2.52-.11-6.35-.1-12.69,0-19a5.09,5.09,0,0,0-1.74-4.13c-3.61-3.47-6.05-7.54-5.2-13.34Z"/><path class="cls-2" d="M213,147h0c6.11,0,12.19,0,18.07,0,.7,0,2.85,0,2.95,3,.05,1.43,0,2.91,0,4-.06,2.56-1.25,3.09-3,3.11-2.15,0-4.46,0-7.26,0H201l-7.28,0c-2.28,0-2.93-.64-3-2.88a39.36,39.36,0,0,1,0-4.61,2.47,2.47,0,0,1,2.76-2.65c6.65,0,13.24,0,19.59,0m0-7q-9.81,0-19.62,0a9.44,9.44,0,0,0-9.72,9.22,50.82,50.82,0,0,0,0,5.38c.29,5.94,4,9.49,10,9.54,2.44,0,4.89,0,7.33,0l11.14,0h.23l11.37,0c2.44,0,4.89,0,7.33,0,5.94-.06,9.84-4,10-10,0-1.48.05-3,0-4.44-.2-5.7-4.2-9.73-9.92-9.75q-9,0-18.1,0Z"/><path class="cls-2" d="M245.24,344.89a2.83,2.83,0,0,0-1,.21c-6.62,2.36-12.37,7.26-11.37,15.78,1.28,10.9,2.85,21.76,4.09,32.66,1,9,2.55,18,2.34,27.1,0,1.26-.78,3.11,1.2,3.11a5,5,0,0,0,.72-.06,3.12,3.12,0,0,1,.54,0c.71,0,1.49.16,2.2.16,1.2,0,2.18-.48,2.12-3.08-.23-12.15-.08-24.3-.08-36.45h0q0-18.52,0-37.07c0-.91.4-2.32-.76-2.32Z"/><path class="cls-2" d="M243.45,324.31h-.17c-3.67.06-7.35.08-11,.08l-13.39,0v.1H197.78c-6.25,0-6.14.06-6.3,6.39-.06,2.42.55,3.18,3,3.18h.11c7.48-.06,15-.07,22.44-.07h22.26c6.79,0,6.7,0,6.77-6.79,0-2.11-.47-2.85-2.61-2.85Z"/><path class="cls-2" d="M383.28,282.35h0c-3.92,0-5.29,1.35-5.3,5.38,0,7.3,0,14.59,0,21.89,0,7.09,0,8.22,5,8.22,1,0,2.14,0,3.54-.09,1.63-.06,2.17-.46,2.13-2.16-.11-4.75,0-9.51,0-14.27,0-4.55,0-9.09,0-13.64,0-4-1.36-5.33-5.29-5.33Z"/><path class="cls-2" d="M394.51,282.39c-2.2,0-3.7,1.88-3.72,4.65-.05,4.65,0,9.3,0,13.95v11.09c0,5.05,0,5.71,3.74,5.71l2.13,0c1.58,0,2.24-.36,2.22-2.1-.08-9.62,0-19.23-.07-28.85,0-2.63-1.37-4.22-4-4.41Z"/><path class="cls-2" d="M371.52,282.42c-2.19,0-3.82,1.81-3.84,4.73-.05,8.34,0,16.69,0,25,0,5.66,0,5.55,5.65,5.59h.06c2,0,2.37-.67,2.32-2.52-.13-4.75,0-9.51,0-14.26h0c0-4.65,0-9.29,0-13.94,0-2-.54-3.54-2.5-4.3a4.81,4.81,0,0,0-1.68-.33Z"/><path class="cls-2" d="M303.44,361.54c-2.49,0-5,0-7.48.09-4,.09-6.66,2.83-7.16,6.72-.23,1.81.09,2.8,2.13,2.8h.3c1.83-.08,3.67-.1,5.51-.1,2.57,0,5.14,0,7.72,0h6.79c1.77,0,3.54,0,5.32,0h.06c.73,0,1.62.22,2.38.22a1.36,1.36,0,0,0,1.39-.69,5.87,5.87,0,0,0-.7-5.44,6.85,6.85,0,0,0-6-3.52c-3.41-.05-6.83-.09-10.25-.09Z"/><path class="cls-2" d="M244.51,300.09l-.87,0q-24.87,0-49.73.06h0l-1,0c-.77,0-1.44.2-1.45,1.58s.55,1.51,1.21,1.51c.39,0,.82-.08,1.19-.08h0q6.89,0,13.77,0h23.21l12.75,0h0c.35,0,.73.05,1.09.05.72,0,1.35-.22,1.34-1.54s-.74-1.59-1.56-1.59Z"/><path class="cls-2" d="M329.69,239.07a2.66,2.66,0,0,0-1.29.43q-12,7-24,14c-1.11.65-1.55,1.51-.93,2.61a1.68,1.68,0,0,0,1.48,1,3,3,0,0,0,1.47-.49c7.79-4.63,15.61-9.2,23.42-13.79.71-.42,1.57-.75,1.39-2.19-.27-.83-.67-1.6-1.53-1.6Z"/><path class="cls-2" d="M245.87,252.93l-1.71.08c1.05.54,1.85.77.64,2.33a7.35,7.35,0,0,0,1.07,10.06V252.93Z"/><path class="cls-2" d="M245.51,213a1.15,1.15,0,0,0,.36,1.27c.23-.52-.05-.9-.36-1.27Z"/><path class="cls-2" d="M220.17,250.23l-.29.14.21,0c0-.05,0-.11.08-.17Zm-.08.17,0,.07.07-.06Zm0,.07Z"/><path class="cls-2" d="M313.4,271h0m-1.85-5.45h-.07c-3.23,0-5.11,2.11-5.12,5.86q0,24.24,0,48.48c0,3.66,2.11,6,5.16,6h.22c3-.11,4.92-2.48,4.93-6.13q0-12,0-24.08c0-8.13,0-16.26,0-24.39,0-3.71-1.89-5.77-5.11-5.77Z"/><path class="cls-2" d="M402.06,270.15H378.79c-1,0-1.94.15-2,1.73s1,1.86,2,1.86h12v-.12h10.77l.93,0c.94,0,1.77-.19,1.8-1.67,0-1.74-1.07-1.82-2.26-1.82Z"/></svg>