<svg id="Layer_1" data-name="Layer 1" xmlns="http://www.w3.org/2000/svg" viewBox="0 0 500 500"><defs><style>.cls-1{fill:#fff;}.cls-2{fill:#0084ff;}</style></defs><circle class="cls-1" cx="250" cy="250" r="200"/><path class="cls-2" d="M421.59,207.54c.39,1.13.79,2.33,1.18,3.61a6,6,0,0,0-2.39-2,10.93,10.93,0,0,0,1.21-1.65M239.46,314.92c10.79.13,21.37.46,31.44,1a5.27,5.27,0,0,1,1.06,1.21,36.33,36.33,0,0,1,1.93,3.85,30,30,0,0,0,4,6.94c3.18,3.83,7.25,5.94,11.46,5.94s8.25-2,11.62-5.83c.63-.71,1.22-1.45,1.78-2.21.26.91.53,1.82.82,2.73,6.9,21.49,20.58,38.44,40.65,50.4a6.34,6.34,0,0,1,2.45,3.13c1.15,3.93,2,8.07,2.93,12.45q.57,2.78,1.23,5.76l1,4.64a165.3,165.3,0,0,1-89.21,25.83A172.77,172.77,0,0,1,211.75,423l.2-.1,1.13-.58,2.54-1.31-.4-2.82c-.32-2.18-.66-4.36-1-6.54-.71-4.6-1.45-9.37-1.95-14-2.52-23.43-4.65-44.31-6.49-63.84a14.75,14.75,0,0,1,.88-4.82c.14-.51.28-1,.41-1.5.71-2.68,1.48-5.54,2.32-8.52a12.67,12.67,0,0,0,11,6.34,16.1,16.1,0,0,0,7-1.7,30.08,30.08,0,0,0,6.58-4.7c1-.9,2-1.76,3.07-2.49a12.18,12.18,0,0,1,2.43-1.49M160,395.37l1.09,1.05-1.2-1,.11-.07m36.26,22a35.61,35.61,0,0,0,3.8,1.18l4.63,1.07.64.79c.2.24.39.47.56.7-.81-.29-1.63-.58-2.43-.88-2.43-.9-4.83-1.86-7.2-2.86M420.37,196.1a53.25,53.25,0,0,0-1.13,5.71c-.35,3.73-2.08,5.83-5.77,7.19-14.7,5.46-29.23,11.37-43.93,16.83a8.23,8.23,0,0,1-2.78.44,10.19,10.19,0,0,1-4.09-.82A115.29,115.29,0,0,1,346,216.62,16.21,16.21,0,0,0,327,215.8c-5.92,3.38-13.6,4.24-15.45,12.55a2.32,2.32,0,0,1-.79,1c-2.93,2.54-2.28,5.2-.8,7.58,2.57-1,4.76-2.25,7.09-2.61,3.61-.56,7.37-.21,11-.78a13.56,13.56,0,0,1,2.15-.18c4.5,0,7.86,2.41,11.15,5.47a17,17,0,0,0,5.43,3.28c4.72,1.81,12.29,4.25,12.29,4.25s14.23,6.76,23.73,17.19c8.85,10.92,12.64,23.64,13.57,37.43.11,1.61.38,4,1.43,4.64,8.08,5.25,8.47,13.11,7.81,21.41-.43,5.4-.78,10.82-1.47,16.19a17.74,17.74,0,0,1-2.12,6.93,158.13,158.13,0,0,1-32,37.24c-4.82,4.13-10,7.84-15.3,12-1.49-6.77-2.54-12.71-4.22-18.47a10.33,10.33,0,0,0-4.24-5.45c-18.95-11.28-32.13-27.13-38.89-48.19-1.14-3.54-2-7.18-3-11.08-2.26,3.29-4,6.48-6.37,9.14-2.62,3-5.63,4.48-8.62,4.48s-5.89-1.49-8.38-4.5-3.55-7-5.59-10.31c-.82-1.35-2.45-3-3.8-3.1q-16-.85-32.15-1h0c-1.57,0-3.3,1.25-4.71,2.25-3.08,2.2-5.71,5.22-9,6.83a12.18,12.18,0,0,1-5.25,1.3c-4.56,0-8.13-3.24-9.26-8.83-.66-3.21-.59-6.57-.85-9.87-2.71,7.88-4.95,15.85-7.06,23.85-.67,2.54-1.65,5.22-1.41,7.73q3,32,6.49,63.89c.75,6.93,2,13.81,3,20.71l-1.51.77c-1.2-1.79-3.1-3.45-3.48-5.4-2.11-10.78-3.86-21.64-5.69-32.47-.45-2.62-.75-5.26-1.21-8.54-4.84,8-8.63,11.05-13.76,11.05a26.6,26.6,0,0,1-8.73-2,3.16,3.16,0,0,0-1.09-.17,3.58,3.58,0,0,0-1.74.41c-7.05,4.07-14,8.27-20.92,12.36,27,24.48,67.08,39.92,109.5,39.92,39.66,0,81.39-13.51,116.4-45.74,36.1-33.25,54.27-75,55.67-124.13.76-26.6-8.51-62.47-14.33-68.78Zm-53.84,35.49c2.86,0,5.92-1.26,11.73-3.6,12.37-5,24.86-9.7,37.23-14.71a6.82,6.82,0,0,1,2.38-.6c1.29,0,2,.86,2.62,2.95a168.53,168.53,0,0,1,5.24,68,164.1,164.1,0,0,1-15.66,51.85c0-6.2.24-12.73-.07-19.24-.24-4.86-2.71-8.84-6.22-12.28a8.48,8.48,0,0,1-2.53-4.74c-2-22.2-10.86-40.48-30.54-52.12-6.36-3.76-13.62-6-20.46-9-1.85-.8-4.11-1.32-5.38-2.7a20.26,20.26,0,0,0-15.67-6.95,28.6,28.6,0,0,0-3.86.27c-2.4.32-4.86.3-7.29.43l-.81-1.24a41.56,41.56,0,0,1,4.16-4.13c1.14-.86,2.83-1,4-1.79a16.58,16.58,0,0,1,9.82-3.45c4.31,0,8.5,1.87,12.67,4.74a68.08,68.08,0,0,0,6.21,3.3c6.28,3.42,9.23,5,12.44,5ZM185.14,389a19.73,19.73,0,0,0,10.77-3.15c1.73,9.84,3.4,19.28,5.09,28.83-8.3-1.92-29.29-13.65-36.24-20.29,3.49-2.19,6.86-4.39,10.32-6.42a2.59,2.59,0,0,1,1.31-.29,4.28,4.28,0,0,1,1.16.16,27.65,27.65,0,0,0,7.59,1.16Z"/><path class="cls-2" d="M376.16,128.15a12.64,12.64,0,0,1,2.44.23c7.22,1.46,14.29,3.51,20.85,5.5a5.84,5.84,0,0,1,2.82,2c4.87,7.51,9.82,15.54,15.11,24.56a4.12,4.12,0,0,1,.37,2.42c-3,12.92-6,25.51-9.12,37.4a3.06,3.06,0,0,1-1.12,1.22c-10.5,4.41-24.38,10.17-38.62,15.61a4.69,4.69,0,0,1-1.52.21,6.94,6.94,0,0,1-2.72-.53c-4.22-1.93-8.47-4.07-12.57-6.15-3.74-1.89-7.6-3.84-11.48-5.66A11.1,11.1,0,0,0,337,204l3.82-1.55,6.86-2.8h0a5,5,0,0,0,3-1.8c.83-1.09,1.59-2.2,2.33-3.27.25-.37.5-.74.76-1.1l3.38-4.88-5.79-1.31a11.46,11.46,0,0,1-1.29-.41,12.11,12.11,0,0,0-4-.88,6.09,6.09,0,0,0-2.23.4c-5.9,2.24-11.77,4.74-17.46,7.15l-4.59,1.95a5.56,5.56,0,0,1-.09-2.18c.23-.83,1.55-2.08,4.28-4,7.92-5.67,12.06-12.74,12.29-21,.09-3.18-1-7.35-3.72-9.51a2.47,2.47,0,0,1-.57-.56,3.2,3.2,0,0,1,.15-.94c0-.14.08-.28.11-.42a10.05,10.05,0,0,0,.47-3.41c-.44-6.64,2.34-10.06,10.63-13.06,5.16-1.88,10.16-4.19,15-6.44,3.7-1.72,7.53-3.49,11.33-5a12.29,12.29,0,0,1,4.44-.78m18.52,49.65c9,0,16-6.93,16.41-16.11a16.92,16.92,0,0,0-4.45-12.34,16.31,16.31,0,0,0-11.53-5.22h-.54a17,17,0,0,0-16.9,16.23,16.67,16.67,0,0,0,16.07,17.42c.31,0,.63,0,.94,0m-18.52-53.65a16.34,16.34,0,0,0-5.93,1.06c-8.84,3.55-17.26,8.17-26.2,11.41-8.37,3-13.89,7.43-13.25,17.09a9.05,9.05,0,0,1-.46,2.58c-.57,2.25-.41,3.84,1.79,5.6,1.5,1.2,2.29,4.15,2.23,6.28-.23,7.8-4.61,13.57-10.63,17.88-7.27,5.2-6.74,6.71-4.7,14.89.93-.36,1.86-.68,2.77-1.06,7.83-3.29,15.61-6.72,23.54-9.73a2.16,2.16,0,0,1,.81-.14c1.33,0,3,.87,4.43,1.19-1,1.42-1.93,2.86-3,4.23-.22.29-.81.29-1.21.46-8.41,3.44-16.83,6.84-25.21,10.34-5.1,2.13-6.26,4.22-5.17,9.31,5.87-2.51,11.32-5,16.94-7.11a8.63,8.63,0,0,1,2.89-.47,7.47,7.47,0,0,1,3.09.6c8.1,3.78,15.95,8.11,24.07,11.82a11,11,0,0,0,4.39.89,8.32,8.32,0,0,0,2.94-.48c13-5,25.91-10.26,38.75-15.66a6.69,6.69,0,0,0,3.44-3.87q4.85-18.7,9.15-37.54a8,8,0,0,0-.82-5.33c-4.9-8.35-9.94-16.61-15.21-24.72a9.72,9.72,0,0,0-5-3.62c-7-2.12-14.05-4.14-21.21-5.59a16.34,16.34,0,0,0-3.24-.31Zm18.52,49.65-.73,0a12.64,12.64,0,0,1-12.28-13.31,13,13,0,0,1,12.9-12.35H395a12.57,12.57,0,0,1,12.11,13.4c-.31,7.06-5.64,12.28-12.41,12.28Z"/><path class="cls-2" d="M334.53,246.88a5.44,5.44,0,0,1,1.58.35c4.79,1.65,9.67,3.24,14.39,4.78l6,2,.36.12c9.14,4.38,17.33,14.66,17.41,14.76a65.68,65.68,0,0,1,13.16,35.67,4.85,4.85,0,0,1-.91,2.74c-9.33,12.09-21.89,19.23-38.4,21.84a4.77,4.77,0,0,1-.78.07c-.44,0-.76,0-1.62-1.56-6.72-12.33-9.92-26.58-10.07-44.84l-7.95-.61c-3,18.22-1.16,34.53,5.55,49.87a8.15,8.15,0,0,1,.22,4.73,31.49,31.49,0,0,0-.78,12.95C313.85,332.48,308,310.76,315.34,285a21.92,21.92,0,0,0,1.13-7l.17-.3c1.59-2.8,3.19-5.58,4.77-8.36,4-6.93,8.08-14.1,12-21.22.67-1.24,1-1.24,1.15-1.24m0-4c-1.89,0-3.38,1-4.66,3.32-5.39,9.87-11.06,19.59-16.71,29.52l-1.82-1.09c1.93,3,1.05,6.15.15,9.32-8.34,29.3-.42,54,23.37,72.85,3.78,3,7.72,5.81,11.58,8.71a13.68,13.68,0,0,0-3.57-4.62c-6.54-6.58-7.78-14.35-5.54-23.15a12.1,12.1,0,0,0-.44-7.32c-6.72-15.38-7.93-31.28-5.26-47.62.14,16.33,2.6,32.1,10.56,46.71,1.34,2.45,2.75,3.65,5.13,3.65a8.83,8.83,0,0,0,1.4-.12c16.61-2.62,30.57-9.9,40.95-23.34a8.76,8.76,0,0,0,1.73-5.47,69.28,69.28,0,0,0-14-37.81c-.7-.92-9.72-12-19.83-16.39l.13.13c-6.78-2.23-13.57-4.39-20.32-6.71a9.11,9.11,0,0,0-2.88-.57Zm-23.41,31.43-.09.14.31.18a3.62,3.62,0,0,0-.22-.32Z"/><path class="cls-2" d="M188.43,282.48q-.74,3.22-1.46,6.42c-2.48,10.9-4.82,21.19-7.07,31.76-2.87,13.49-6.52,29.07-13.62,43.19l-1.88,3.74,3.83,1.71.62.27.77.35,3.54,1.58,1.69-3.49,6.71-13.82,1.29-2.65a21.26,21.26,0,0,1-3.41,13.59c-7.24,11.72-18.69,18.75-36.05,22.13a5.14,5.14,0,0,1-1,.07c-.52,0-1.11,0-1.74-.09l-.66-.05c-5-.33-7.61-.93-8.63-2-1.17-1.22-1.65-4.44-2-8.89-1.66-20.3,3.7-38.25,16.38-54.88,4.48-5.86,8.83-11.93,13.05-17.8,2.44-3.41,5-6.93,7.49-10.36a4.28,4.28,0,0,1,1.29-1.31c6.9-3.19,13.69-6.26,20.85-9.48m5.67-7c-9.55,4.32-18.91,8.5-28.2,12.8a8.1,8.1,0,0,0-2.84,2.57c-6.85,9.35-13.46,18.89-20.49,28.1-13,17.09-18.94,36.09-17.18,57.64,1,11.6,2.57,13.76,14.37,14.55.88.05,1.78.14,2.66.14a9.15,9.15,0,0,0,1.74-.15c15.91-3.1,29.86-9.67,38.69-23.95,5.06-8.18,5.54-17.07.81-26.52-4.38,9-8.4,17.29-12.41,25.56l-1.39-.63c7-14,10.73-29,13.95-44.15s6.78-30.34,10.29-46Z"/><path class="cls-2" d="M310.4,177.41c.25.82.51,1.6.75,2.35a39.16,39.16,0,0,1,1.32,4.64,9.36,9.36,0,0,0-4.69-1.14,22.18,22.18,0,0,0-3.91.43l-3.44.63.16,3.49c.25,5.63,3.64,9.27,8.63,9.27a11,11,0,0,0,2-.19L311,198.4c-.43,3.31-.86,6.67-1.3,10l-.41-.3v-9.32l-1.6-1.2a10.32,10.32,0,0,0-6.16-2.27c-3.47,0-6,2.08-8,3.75l-.92.75-7.05,5.57,3.69.63a15.69,15.69,0,0,0-2.44,1.29L276.58,214l10.88.65,0,.71,0,.83-.16,3.81,3.8.34,13.33,1.17,3.47.31-.18,1.18a2.41,2.41,0,0,1-.18.54,20.89,20.89,0,0,0-7.58-1.43,26.49,26.49,0,0,0-10.29,2.27c-4,1.67-6.94,2.45-9.22,2.45-3.07,0-6-1.33-11.12-7.93-.3-.39-.62-.78-.93-1.16l-.4-.5-.86-1.08,1.44-1.16-8.63-1.54a9.32,9.32,0,0,1-6.91-6,8.65,8.65,0,0,1,.57-8,9.47,9.47,0,0,1,2.64-.32h.05a15,15,0,0,1,3.31.61c.67.18,1.37.35,2.11.51l4.06.83.68-4.09c.12-.7.29-1.45.48-2.24a21,21,0,0,0,.77-6.77,2.82,2.82,0,0,1,.68-2.08,1.21,1.21,0,0,1,.77-.44,1.29,1.29,0,0,1,.25,0,35.06,35.06,0,0,0,4.7,1.07l-.44.32,5.17,3.13c.6.35,1.14.64,1.63.89a10.72,10.72,0,0,1,1.13.64,8,8,0,0,0,6.07,2.89,11.56,11.56,0,0,0,5.05-1.43,8.64,8.64,0,0,1,1.57-.65l5,.24-.83-4.9c0-.09,0-.36,0-.53a6.56,6.56,0,0,0-1.23-4q2.15-.87,4.42-2c2.69-1.28,5.55-2.43,8.57-3.64l.32-.12M260,221.71c.45,1.21.85,2.43,1.28,3.73a62.45,62.45,0,0,0,4.12,10.24c1.75,3.23,6.06,5.35,9.41,5.78a26.93,26.93,0,0,0,3.32.2,59.78,59.78,0,0,0,8-.71l.6-.08a19.87,19.87,0,0,1,2.65-.22c1.75,0,2.16,0,4.06,4.38,2.56,5.93.34,10.56-3.34,17-.09.16-.26.4-.43.64a8.47,8.47,0,0,0-1.75,4c-.33,2.85-1.08,3.74-5.08,3.74l-1.39,0c-.75,0-1.55-.06-2.36-.06-2.88,0-5.74.23-8.66.49a10.68,10.68,0,0,0-3.27.85,4.94,4.94,0,0,0-2.46-1.49c-2.61-.66-4.11-1.9-4.59-6.56-.11-1-.3-2-.48-2.95-.08-.37-.15-.75-.21-1.12l-.58-3.26h-.3c.19-3.91.37-8.2.48-12.59.1-4-.1-8-.28-11.87-.13-2.68-.26-5.45-.29-8.14a12.88,12.88,0,0,1,.89-1.27l.17-.23a4,4,0,0,1,.46-.38M313.2,172c-4.93,2-9.27,3.62-13.41,5.6-6.58,3.15-13.21,5.43-20.2,5.43a31.55,31.55,0,0,1-9.1-1.34,4.89,4.89,0,0,0-1.39-.21c-3.25,0-5.76,3.41-5.43,6.89.24,2.6-.76,5.31-1.21,8-2.07-.43-4.15-1.2-6.22-1.2h-.11c-1.89,0-4.59.33-5.53,1.57-5.47,7.23-.73,19,8.59,20.66a16,16,0,0,0-2.79,2.32c-.82,1.08-1.89,2.41-1.88,3.62,0,6.74.73,13.48.57,20.21-.13,5.54-.39,11.09-.68,16.63h1.14c.22,1.26.52,2.52.65,3.79.5,4.88,2.23,8.67,7.59,10,1,.25,1.39,2.36,2.33,3.37s2.24,2.46,3.5,2.62h.3c1.32,0,2.75-1,4.12-1.46-.22-.45-.45-.9-.68-1.35-.32.53-.58,1.46-1,1.52a19,19,0,0,1-2.92.26,10.47,10.47,0,0,1-1.68-.12c-.34-.06-.87-2.36-.53-2.64a7.1,7.1,0,0,1,3.61-1.46c2.75-.25,5.53-.48,8.3-.48.72,0,1.45,0,2.17,0,.53,0,1.06,0,1.58,0,4.74,0,8.36-1.31,9-7.28.13-1.07,1.09-2.05,1.67-3.06,3.69-6.4,7-12.65,3.55-20.54-2.16-5-3.59-6.79-7.73-6.79a24.83,24.83,0,0,0-3.18.25,61.3,61.3,0,0,1-8.1.76,21.75,21.75,0,0,1-2.81-.17c-2.32-.3-5.38-1.82-6.41-3.72-2.3-4.23-3.54-9-5.21-13.61l1.08-.48c.43.54.87,1.08,1.29,1.62,5.06,6.53,9,9.48,14.28,9.48,3,0,6.44-1,10.76-2.76a22.72,22.72,0,0,1,8.75-2,17.45,17.45,0,0,1,9.28,2.73c.92-1.91,2.17-3.5,2.44-5.25,1.42-9.5,2.61-19,3.84-28.56.15-1.15-.33-2.51.12-3.48,3.14-6.74-1.22-12.3-2.38-19.54Zm-25.59,18.46a4.14,4.14,0,0,1-3.12-1.59c-.84-.92-2.18-1.38-3.64-2.26a13.89,13.89,0,0,1,7.89-2.43,8.66,8.66,0,0,1,5.13,1.41c.56.43.38,1.84.54,2.79h-.16c-2.25,0-4.38,2.08-6.64,2.08Zm21.61,2.66c-2.74,0-4.48-1.92-4.64-5.45a18.61,18.61,0,0,1,3.2-.37c2.47,0,4.47,1,5.17,4.88a9.13,9.13,0,0,1-3.73.94Zm-3.94,11.64L295,203c2.16-1.71,4.07-3.64,6.48-3.64a6.26,6.26,0,0,1,3.76,1.48v3.9Zm2.18,7.05-18.52-1.09a15.27,15.27,0,0,1,8.23-2.16,16.55,16.55,0,0,1,10.29,3.25Zm-2.74,5.71-13.33-1.18c0-.27,0-.55,0-.83l13.39.62c0,.47-.07.93-.1,1.39Zm-50.51,42.64c0,1.15,0,2.3,0,3.45.07-1.15.13-2.3.19-3.44Zm0,3.45c-.21,3.91-.43,7.82-.63,11.73a24.86,24.86,0,0,0,.58-3.89c.08-2.61.07-5.23.05-7.84Zm-.63,11.73c-.07.36-.14.71-.2,1.07l.14.12.06-1.19Z"/><path class="cls-2" d="M394.32,318.67a23.13,23.13,0,0,1,1.69,6.12c.86,10.93-2.46,17.86-10.75,22.45-9.5,5.25-18.87,10.14-29.11,12.21a1.67,1.67,0,0,1-.36,0,3.23,3.23,0,0,1-1.45-.33c-4.82-3.14-7.66-10.86-6.13-16.43,18.75-2.35,32.69-13.3,46.11-24.05m1.9-6.45c-1.44,1-1.92,1.34-2.37,1.7-14.11,11.29-28.05,22.9-47.09,24.94a3.57,3.57,0,0,0-2.23,2.2c-2.33,7.25,1.16,17.23,7.62,21.44a7,7,0,0,0,3.64,1,5.28,5.28,0,0,0,1.15-.11c10.91-2.2,20.59-7.29,30.26-12.63,10.64-5.89,13.67-15.2,12.79-26.26-.31-4-2.37-7.88-3.77-12.26Z"/><path class="cls-2" d="M320.15,241.22l.59,0c.49,0,1,0,1.53,0l1,0c-7.49,11.1-12.67,21.41-16.08,32h0q-1.14,3.63-2.31,7.24c-1.87,5.8-3.81,11.8-5.47,17.81a74.9,74.9,0,0,0-1.63,7.64l-1-1-2.6-2.63-3.61-3.64-1.75,2.89c.25-1,.52-2,.82-3,1.52-5.16,3.47-10.37,5.35-15.41,1.12-3,2.27-6.08,3.35-9.16a46,46,0,0,0,1.45-5.74c0-.21.08-.42.13-.63a5.24,5.24,0,0,0,2.2-2.91,27.14,27.14,0,0,1,6.44-11,45.91,45.91,0,0,0,6-8.74c1.73-3.1,3.4-3.73,5.53-3.73m-33.46,74.61.41.49c.34.39.68.79.88,1.08l2,2.94-.16,0a4.29,4.29,0,0,1-3.14-4.49m9.11.45a5.84,5.84,0,0,1-.33.71c-1.32,2.29-2.59,3.07-3.67,3.31l2.32-2.33,1.68-1.69m35.72-79.71c-3.67.26-6.53.72-9.25.72-.43,0-.86,0-1.29,0l-.83,0c-4.25,0-7,2.07-9,5.78a42.08,42.08,0,0,1-5.42,8,31.13,31.13,0,0,0-7.33,12.58c-.21.74-1.58,1.16-1.88,1.36a77.91,77.91,0,0,1-1.84,7.7c-2.87,8.27-6.28,16.38-8.76,24.76a87.52,87.52,0,0,0-3.18,18.06,8.25,8.25,0,0,0,6.49,8.82,10.19,10.19,0,0,0,1.62.13c3.66,0,6.26-2.18,8.12-5.42a15.29,15.29,0,0,0,1.5-4.53c1-5,1.53-10.17,2.89-15.09,2.34-8.42,5.17-16.71,7.79-25.05l-.09.15c4.37-13.51,11.43-25.63,20.49-37.89Zm-40.23,78.58c-1.05-1.54-3-3.15-2.92-4.6.15-1.88,2-3.63,3.05-5.43l4.92,5-5,5.07Z"/><path class="cls-2" d="M282.55,148.32a11,11,0,0,1,2.61.58c3.29,1,9.11,5,13.58,9-9.89,1.52-19.82,4.15-28.51,10.55-6.57,4.85-13,10.06-19.19,15.1-1.56,1.28-3.16,2.58-4.77,3.87a33.13,33.13,0,0,1,2.77-19c3.74-7.73,10.47-13.55,19.46-16.81a79.68,79.68,0,0,1,12.13-3l1.74-.33h.18m0-4a5.77,5.77,0,0,0-.94.08,95.29,95.29,0,0,0-14.47,3.46c-20.74,7.53-29.32,27.16-23.39,46.6.51-.36,1-.66,1.39-1,9.14-7.28,18.06-14.86,27.46-21.79,10-7.34,21.89-9.38,34.35-10.81-4-5.68-15-14.08-20.63-15.79a13.36,13.36,0,0,0-3.77-.75Z"/><path class="cls-2" d="M244.42,272.23a14.42,14.42,0,0,0,6.84,7.61c5.32,4.67,11.68,5,17.31,5.25l1.14.06c.46,0,.94,0,1.42,0,1.77,0,3.52-.15,5.2-.3.92-.09,1.87-.17,2.81-.23l2.95-.18,0,.09c-1.66,5.4-3.37,11-5.22,16.42a2.81,2.81,0,0,1-.46.65c-8,.14-16,.15-22.78.15H240.09c0-.15,0-.3,0-.46.57-4.53,1.1-8.81,1.7-13.15a8,8,0,0,1,.36-1.22,12.74,12.74,0,0,0,.75-3.32,7.45,7.45,0,0,0-.11-1.73,5.23,5.23,0,0,0,2.43-3.49,6.31,6.31,0,0,0-1.8-5.37c.31-.27.62-.54.95-.8m2.12-6.6a65.85,65.85,0,0,0-6.56,5.2c-.77.77-1.21,3.27-.7,3.71,4.55,3.89.5,4.33-1.27,5.1.4,1.48,1,2.63.94,3.74-.08,1.43-.87,2.8-1.07,4.23-.82,6-1.54,12-2.33,18.16h18.06c8.06,0,15.87,0,23.67-.16,1.17,0,2.88-1.95,3.35-3.33,2.52-7.4,4.73-14.9,7-22.18l-10.82-2.06,2.09,2.61c-2.69.16-5.24.52-7.76.52-.4,0-.81,0-1.21,0-5.79-.3-11.75-.3-16.4-4.66-5-2.26-6-7-7-10.86Zm6.85,10.74.13.12h0l-.14-.13Z"/><path class="cls-2" d="M199,220.1l.46.4c.4.36.7.65,1,.9a6.38,6.38,0,0,0,2.51,1.73,12.74,12.74,0,0,1,6,4.27c-3.55-3.43-8.07-5.17-12.47-6.56l2.56-.74m-13.59,4,2.87,2.31a2.4,2.4,0,0,1,.24.22l.24.22a16.79,16.79,0,0,0-2.57-1l-2.72-.82a2.42,2.42,0,0,1,.53-.46l1.41-.47m5.74,4.22c4.26,1.73,4.84,4.71,4.72,11.2h0v0c.12-5.59-2-9-4.72-11.15M218,210.76a13.88,13.88,0,0,0-3.16.38c-5.34,1.3-10.53,3.18-15.81,4.77-5.46,1.64-11,3.07-16.39,4.91a5.46,5.46,0,0,0-3.14,3.26c-.76,3.49-.9,7.11-1.42,11.84,3-2.56,7.13-1.77,6.93-6.22,5.14,1.55,6.93,5,6.83,9.71a3.65,3.65,0,0,0,.64,2.5,46,46,0,0,0,4.51,3.41c1-1.48,2.78-2.94,2.82-4.44.18-6.57.35-13.37-7.51-16.37a6.76,6.76,0,0,1-1.56-1.21c7.65,2.36,15.72,4.07,19.1,12.7a6.66,6.66,0,0,0,1.75,3,26,26,0,0,0,4.76,2.15c.37-1.81,1.51-3.88,1-5.38-2.38-7-5.31-13.69-13.13-16.41-.5-.18-.88-.74-2.14-1.86,8,3.3,14.23,6.86,15.46,15.26a4.21,4.21,0,0,0,1,2.39,51.3,51.3,0,0,0,4.32,3.25c.8-1.87,2.51-3.89,2.24-5.59-1-6.69-2.74-13.26-10-16.22a7.6,7.6,0,0,1-1.68-1.36l.87-.75c4.45,3.36,9.86,5.66,11,12.42.28,1.69,2.48,3.06,3.81,4.58.87-1.94,2.31-3.83,2.5-5.83.72-7.34-4.58-11-9.89-14.08a7.37,7.37,0,0,0-3.67-.81Z"/><path class="cls-2" d="M310.73,166.27l-2.25,1c-9.71,4.46-18.87,8.68-29.12,9.55-.44,0-.89.05-1.38.05l-1.3,0c7.1-5.11,20.25-9.73,34.05-10.6m4.64-4.15c-19.94,0-42.21,8.5-47.06,17.92,3.43.27,6.6.86,9.67.86.58,0,1.15,0,1.72-.07,17.46-1.48,31.68-11.91,48.53-17.34a56.29,56.29,0,0,0-12.86-1.37Z"/><path class="cls-2" d="M381.49,364.16a40.35,40.35,0,0,1-6.45,10.1,45.39,45.39,0,0,1-3.34,3.29c-.69.63-1.41,1.29-2.11,2s-1.17,1.12-1.58,1.47c-.28-.33-.66-.81-1.16-1.5a81.33,81.33,0,0,1-5.08-8.26,51.07,51.07,0,0,0,19.72-7.08M389.22,354c-9.68,7.35-19.67,13.62-33.47,13.62h-.64c3.27,5.55,5.52,10.17,8.52,14.25,1.81,2.47,2.94,3.63,4.18,3.63s2.49-1.08,4.57-3.11c1.88-1.84,3.93-3.52,5.67-5.48,5.77-6.56,9-14.4,11.17-22.91Z"/><path class="cls-2" d="M245.75,219.8a17.79,17.79,0,0,1,1.58,2.71c1.08,2.45.88,3.21.83,3.34s-.42.8-2.79,1.83c-2.56,1.1-5.17,2.21-7.83,3.3a7.41,7.41,0,0,0,.9-2.16c.92-3.78,3.64-6,7.08-8.84l.23-.18m.78-6c-4.89,4.54-10.36,7.35-12,14-.56,2.32-3.75,4-5.74,6-.39.39-.74.82-1.16,1.17-2.25,1.88-4.51,3.77-6.79,5.62-.67.54-1.43,1-2.15,1.44A268.91,268.91,0,0,0,247,231.35c5.38-2.32,6.44-5,4-10.45-1-2.35-2.75-4.4-4.46-7.05Z"/><path class="cls-2" d="M192.78,336.72a20.59,20.59,0,0,1,2.79,9.45c0,.46.05.94.05,1.41a38.14,38.14,0,0,0-2.18-8.87,18.33,18.33,0,0,1-.66-2m-1.21-7.56c-3.66,3.17-3.64,6.36-1.86,11A35.85,35.85,0,0,1,191.79,356c-.69,7.3-3,14.45-4.41,21,12.8-14.26,17.68-36.09,4.19-47.81Z"/><path class="cls-2" d="M391.78,151.77a3.55,3.55,0,0,0-1.22.19,9.19,9.19,0,0,0-6.12,8.52c.27,5,2.23,8.17,6.39,9.75a11.14,11.14,0,0,0,4,.78,9.57,9.57,0,0,0,6.86-3.08c2.07-2,2.54-4,.43-6.4-2.38-2.75-4.26-6-6.79-8.56a5.43,5.43,0,0,0-3.51-1.2Zm3.23,13.7c-4.4,0-5.52-1.6-4.94-6.85l5.57,6.84Z"/><path class="cls-2" d="M206.22,241.28c.53.73,1.07,1.47,1.63,2.2l-.12.05-2.1.84a12.91,12.91,0,0,0,.59-3.09m-20.14,1.19,0,.1a11.88,11.88,0,0,0,5.4,7.59c-4.05,1.71-8.12,3.45-12.08,5.14-4.62,2-9.39,4-14.09,6-4.93,2.07-10.19,4.24-15.54,6.14a11.07,11.07,0,0,0-3.67,2.12l-1.73.71q-2.52,1-5,2c-4,1.58-8.06,3.22-12,5.11a7.89,7.89,0,0,1-3,.91q.78-1.2,1.53-2.4c3.26-5.14,6.64-10.46,10.38-15.29.5-.65,2.87-1.69,5.84-1.87h.12a13.4,13.4,0,0,1,4,1.23c1,.41,2.16.87,3.4,1.27l3.79,1.24,1.24-3.8c.85-2.59,2.79-4.79,5.51-7.11a8.84,8.84,0,0,0,3.54,1.82,7.29,7.29,0,0,0,1.48.15,10.16,10.16,0,0,0,7.24-3.54,12.82,12.82,0,0,0,2.88-5,59.62,59.62,0,0,0,6-1.06c1.69-.42,3.29-.94,4.93-1.51m44.71,5.68a9,9,0,0,0-2.13,1.66,23.33,23.33,0,0,0-2.45.25l4.58-1.91m-18.64,7.75-3.83,2.61a8.53,8.53,0,0,0-1.12-.07,8,8,0,0,0-1.47.13l6.42-2.67m25.3,2.85c-.64,1.76-1.22,3.5-1.69,5.3-2.2,8.46-4.36,17.57-7,29.55a47.83,47.83,0,0,0-.8,5.49l-.06,0-2.83-2.52-3.45-3.07-.86,1.31c.83-4.77,1.75-9.6,2.81-14.39a93.34,93.34,0,0,1,4.65-13.8l.52-1.34a13.56,13.56,0,0,1,1.65-2.64c.37-.51.76-1,1.15-1.64l1.14-.43,4.77-1.77m-34.8,1.1a8.21,8.21,0,0,0-1.29,1.08l-.2.2-1.54.57-2.52.88a42.63,42.63,0,0,0-4.38,1.67c-2.28,1.07-4.56,2.2-6.76,3.3-3.3,1.63-6.71,3.33-10.1,4.8-3.79,1.65-7.7,3.25-11.49,4.79-5.83,2.37-11.86,4.82-17.68,7.58a11.4,11.4,0,0,1-4.77,1.3,6.66,6.66,0,0,1-1.91-.29c1.4-.61,2.78-1.15,4.15-1.59a13.18,13.18,0,0,0,1.65-.66l3.83-1.59,52.24-21.72.77-.32M218.48,309l.17.17a10.17,10.17,0,0,1,.76.81l.88,1.09h0a4.65,4.65,0,0,1-.87-.07c-.63-.11-1-1.08-.93-2M357.6,122.07a33.72,33.72,0,0,0-8,1c-7.76,3.88-15,7.33-22.1,11.18a8.3,8.3,0,0,0-3.67,4.73c-1.27,5.08-1.95,10.32-2.89,15.61a21.43,21.43,0,0,1-3.31.28,12.67,12.67,0,0,1-9.27-3.77c-6.83-6.53-14.34-12.65-24.18-13.39-.87-.07-1.75-.1-2.63-.1a50.29,50.29,0,0,0-13.74,2.12c-17.71,5.14-30.12,15.72-32.67,35-1.34,10.14,0,20.19,2.35,30.12a5.89,5.89,0,0,1-.6,4.27,3.36,3.36,0,0,1-2.73,1.65,5.54,5.54,0,0,1-3.29-1.48c-3.5-2.83-6.8-6.37-11.53-6.37a10.17,10.17,0,0,0-2.38.29c-12.75,3-25.82,5-37.73,10.94-5.53,2.77-8,7.49-8.6,13.43-.16,1.6-.11,3.24-.42,4.82-.75,3.78-3.59,6.36-7,6.36a7,7,0,0,1-1.84-.25,17.8,17.8,0,0,0-4.45-.7c-2.84,0-5.2,1.18-7,4.68-.56,1.11-2.77,1.89-4.24,1.94-7.27.23-13.9,1.62-18.45,8q-10.92,15.45-21.88,30.87a6.8,6.8,0,0,0-.47,1.77l33.84,14.8-21.42,38.94s-.25,4.78,2,18.14a88.92,88.92,0,0,1,12.4-35.17c6.59-10.59,13.85-20.75,21.28-31.77-3.43,1.43-6.2,2.69-9,3.72a12.33,12.33,0,0,1-3.71,1,2.21,2.21,0,0,1-.87-.15c-9.16-3.75-18.2-7.79-27.64-11.9,7.23-10.08,13.64-19.95,21.13-28.93,2-2.4,6.47-4.24,9.89-4.24a7.63,7.63,0,0,1,1.46.13,13.59,13.59,0,0,0,2.55.27c3.5,0,5.4-1.82,7.37-4.78a4,4,0,0,1,3.44-2.15,9,9,0,0,1,4.57,1.76c-5.05,3.79-9.72,7.42-11.43,12.63-3.28-1.07-6-2.7-8.58-2.7h-.37c-3,.2-7.07,1.25-8.75,3.42-5.34,6.89-9.78,14.48-14.48,21.65a8.22,8.22,0,0,0,5.65,2.49A11.32,11.32,0,0,0,129,281c5.49-2.61,11.21-4.72,16.87-7.06,1.11,3.5.37,5.3-3,6.37-4,1.27-7.74,3.26-12.2,5.2a49.32,49.32,0,0,1,4.57,2.32,11.71,11.71,0,0,0,6.61,2.17,15,15,0,0,0,6.48-1.69c9.5-4.5,19.42-8.11,29.06-12.31,5.75-2.5,11.28-5.48,17-8.15,1.81-.85,3.76-1.39,6.56-2.41-1.56,5.58,3.13,11.58-3.77,15.2h.07c3.95,0,7.47-5.05,8.26-13.45-1.28,1.7-2.55,3.4-3.86,5.13-.05-6.31,2.35-9.9,5.52-9.9a5.07,5.07,0,0,1,1.88.39l7.16-4.88v8.9c.45-8.76,4.69-13,13.83-13.09a22.15,22.15,0,0,1-1.29,4c-1.14,2.06-2.91,3.83-3.76,6-2,5.16-4.17,10.36-5.36,15.74-2.08,9.4-3.62,18.92-5.1,28.44-.48,3.11,1,6.37,4.13,6.94a9.06,9.06,0,0,0,1.59.13,11.3,11.3,0,0,0,6.43-2c2.08-1.58,3.46-4.63,4.21-7.3,1-3.64.92-7.58,1.74-11.29,2.18-9.83,4.44-19.66,7-29.4,1.09-4.22,2.93-8.25,4.71-13.13l-13.05,4.84c-1.18-3-.07-4.54,2.32-5.56q7.09-3,14.11-6.17c5.52-2.5,5.9-3.43,4.21-10L148.11,278.19c-1.24-3.79-.33-5.79,3-7,5.31-1.89,10.54-4,15.75-6.22,9.49-4,18.92-8.1,28.41-12.07,6.67-2.79,13.39-5.44,20.39-8.27-1.48-.84-2.76-1.19-3.44-2-2.28-2.82-4.27-5.88-6.56-8.69a3.89,3.89,0,0,0-2.77-1.18h0c-.4,0-1.08,1.55-1.11,2.41,0,1.6.39,3.21.47,4.82.2,3.93-2.09,7.23-5.16,7.54a5.07,5.07,0,0,1-.55,0c-3,0-5.72-2.44-6.52-5.89-.32-1.36-.69-2.7-1.13-4.39-3.12,1-5.85,2.14-8.68,2.83s-5.71,1-8.58,1.43a.09.09,0,0,1,0,0c0,.05,0,.11.06.15l-.05,0c.28,3.53-3.32,7.81-6.55,7.81a3.23,3.23,0,0,1-.69-.07c-1-.2-2.58-1.49-2.49-2a4.81,4.81,0,0,1,2.11-3.23,60.56,60.56,0,0,1,7.62-2.48,1,1,0,0,1,0-.17c-.19-.44-.49-1-.4-1.1,4.13-3,4-7.52,4.31-11.89.3-4.54,1.87-8.45,6.38-10.17,5.14-2,10.4-3.62,15.68-5.18s10.92-2.85,16.34-4.42a16.57,16.57,0,0,1,4.57-.77,8.41,8.41,0,0,1,6.38,2.8c1.2,1.26,2.94,2,4.11,3.31a5.64,5.64,0,0,0,4.29,2.13,9.94,9.94,0,0,0,4.34-1.29c4.65-2.34,5.73-5.58,4.95-10.68-1.32-8.66-2.74-17.44-2.66-26.15.1-11.49,5.08-21.39,15.2-27.25S273.16,142,280.33,142c8.1,0,15.26,3.89,23.64,11.94,5.46,5.25,11.17,6.09,17.53,6.09q1.71,0,3.48-.06c.65-3.35,1.86-6.52,1.77-9.65-.27-9,4.31-13.49,12.28-16.59s15.15-7.4,22.91-11.28a24,24,0,0,0-4.34-.38ZM222.54,307.43c-1-1.23-2.79-2.49-2.74-3.67.06-1.45,1.67-2.84,2.61-4.25l4.34,3.86c-1.88,1.81-3.05,2.93-4.21,4.06Z"/><path class="cls-2" d="M216.24,266.85a34.61,34.61,0,0,0,0,3.53v-3.53Z"/><path class="cls-2" d="M171.62,241.57a1,1,0,0,0,0,.17l.05,0s0-.1-.06-.15Z"/></svg>