<svg xmlns="http://www.w3.org/2000/svg" viewBox="0 0 400 120"><defs><style>.cls-1{fill:none;}.cls-2{fill:#0084ff;}</style></defs><g id="Layer_2" data-name="Layer 2"><g id="Layer_1-2" data-name="Layer 1"><rect class="cls-1" width="400" height="120"/><rect class="cls-1" width="400" height="120"/><rect class="cls-1" width="400" height="120"/><rect class="cls-1" width="400" height="120"/><path class="cls-2" d="M220.24,44.23c1.16,2.38,2.25,4.66,3.36,7l-.88.47a81.69,81.69,0,0,0-9.32,5.54,46.18,46.18,0,0,0-18.8,26.36,79.77,79.77,0,0,0-2.65,21c0,.11,0,.22,0,.4h.55l12.87.31c.73,0,1.46,0,2.18.07.37,0,.52-.12.49-.48a3.38,3.38,0,0,1,0-.45,66.46,66.46,0,0,1,1.31-15.29A30,30,0,0,1,217.43,74a48.56,48.56,0,0,1,11.88-8.31,2.09,2.09,0,0,1,.32-.08l2.54,6.72c3.11-7.47,7.36-14.22,11.15-21.3C235.62,48.79,228.13,46,220.24,44.23Z"/><path class="cls-2" d="M185.58,33.5h6.27c.72,0,.72,0,.72.74q0,12.3,0,24.62a1.54,1.54,0,0,0,.51,1.15c1.53,1.55,3.06,3.11,4.51,4.74.94,1,1.74,2.23,2.63,3.4.1-.11.17-.17.22-.24a43.81,43.81,0,0,1,7.48-8.2,1.13,1.13,0,0,0,.39-1q0-12.26,0-24.51c0-.54.1-.74.7-.73,2.13,0,4.25,0,6.38,0h.8L200.45,14.65,184.7,33.5Z"/><path class="cls-2" d="M199.08,69.9a.65.65,0,0,0,0-.84,45.31,45.31,0,0,0-5.18-6.3,61.2,61.2,0,0,0-15.2-10.93l-2.28-1.2,3.37-7c-7.91,1.79-15.39,4.57-23.08,6.85,3.78,7.07,8,13.83,11.15,21.3l2.56-6.76c.27.13.45.19.61.29,2.29,1.39,4.65,2.69,6.85,4.21a29.76,29.76,0,0,1,12.48,17.89c.39,1.6.69,3.23,1,4.77.26-1.41.5-2.9.8-4.38A51.58,51.58,0,0,1,199.08,69.9Z"/></g></g></svg>