<svg id="Layer_1" data-name="Layer 1" xmlns="http://www.w3.org/2000/svg" viewBox="0 0 627.76 627.76"><defs><style>.cls-1{fill:#231f20;}.cls-2{fill:#be1e2d;}</style></defs><path class="cls-1" d="M313.88,25A289,289,0,0,1,426.32,580.07,289,289,0,0,1,201.44,47.69,287,287,0,0,1,313.88,25m0-25C140.53,0,0,140.53,0,313.88S140.53,627.76,313.88,627.76,627.76,487.23,627.76,313.88,487.23,0,313.88,0Z"/><path class="cls-2" d="M491.9,293.65c-4.14-2.3-8.13-4.86-12.18-7.34Q448.49,267.19,417.26,248c-13.95-8.6-27.78-17.39-41.7-26.05-19.7-12.24-39.45-24.41-59.11-36.71a4,4,0,0,0-5,0c-7.75,4.91-15.61,9.66-23.42,14.48l-78.68,48.59c-24.38,15.07-48.73,30.19-73.17,45.16a5.23,5.23,0,0,0-2.8,5.18q.11,43.2.05,86.39,0,60.56,0,121.12c0,6,3.39,9.48,9.29,9.55,7.64.09,15.28,0,22.92,0a17.53,17.53,0,0,0,2.51-.37V341.42c0-4.12,0-4.13,4.27-4.13H459.61V515.75c8.44,0,16.47,0,24.51,0,7.21,0,10.48-3.36,10.47-10.64q-.07-61.47-.16-122.95,0-41.81.24-83.6A4.83,4.83,0,0,0,491.9,293.65Z"/><path class="cls-2" d="M517.79,274.47c0-1-1.25-2.25-2.24-2.87-15-9.32-30-18.54-45-27.8-10.33-6.38-20.61-12.83-31-19.16-10.08-6.16-20.27-12.13-30.33-18.33-13.42-8.27-26.74-16.69-40.13-25-17.52-10.87-35.09-21.66-52.56-32.6a4.24,4.24,0,0,0-5.25,0c-10.23,6.4-20.55,12.63-30.82,19q-27.31,16.88-54.6,33.8c-10.12,6.29-20.11,12.77-30.24,19-9.27,5.74-18.69,11.23-28,16.94-17.13,10.53-34,21.43-51.42,31.52-5.34,3.1-6.79,6.55-6.35,12.19.46,5.81.1,11.67.1,17.89,1-.45,1.56-.64,2.06-.94L178.64,257q30.41-18.76,60.79-37.54,35.64-22,71.24-44.14c2.33-1.45,4.14-1.56,6.47,0,6.21,4.06,12.54,7.95,18.86,11.83q33.72,20.73,67.46,41.43c12.8,7.89,25.47,16,38.28,23.84,14,8.61,28.23,17,42.27,25.62,8.43,5.18,16.67,10.66,25,16,2.68,1.7,5.45,3.26,8.87,5.3C517.9,290.54,518,282.5,517.79,274.47Z"/><path class="cls-2" d="M432.76,377.81c-25.7.1-51.4,0-77.09.06-29.33,0-58.65.17-88,.17-24.26,0-48.51-.11-72.77-.16-1,0-2,.16-3,.25v20.55H436.29c0-5.9-.17-11.56.06-17.2C436.47,378.61,435.63,377.8,432.76,377.81Z"/><path class="cls-2" d="M436.14,348.55H192v14.92H436.14Z"/><path class="cls-2" d="M214.89,500.31c0,4.61-.17,8.63.13,12.63a3.75,3.75,0,0,0,2.54,2.62c7,.24,14,.23,21.05.06a3.49,3.49,0,0,0,2.56-2.24c.29-3.46.12-6.95.12-10.49C232.47,501.72,223.65,504.34,214.89,500.31Z"/><path class="cls-2" d="M385.12,502.19c0,4.33-.14,7.91.12,11.47.06.74,1.6,2,2.48,2,7,.15,14,.16,21,0a3.53,3.53,0,0,0,2.54-2.31c.27-3.87.12-7.76.12-11.1Z"/><path class="cls-2" d="M412.77,410.14c1.75-.3,3.31-1.71,5-2.62l-.45-.7h-20.8c.58,1.27,1,2.28,1.52,3.29-1.61-2.72-3.87-3.6-7.12-3.59q-76.58.15-153.17,0c-3.16,0-6.09,0-8.1,2.91.46-.85.92-1.7,1.42-2.64H210.36c-.1.29-.21.59-.32.88,1.84.87,3.6,2.18,5.53,2.52a94.88,94.88,0,0,0,11.32,1.06c.76.05,1.56-.67,2.35-1-3.2,4.63-5.94,9.7-9.72,13.79a26,26,0,0,0-7.16,18.17c-.16,16.4.17,32.81-.19,49.2-.15,6.83,3.21,8.58,9,9.78a25.34,25.34,0,0,0,4.94.22h34.93l141.18,0a39,39,0,0,0,4.33-.2c6.61-.74,9-3.42,9-10,0-3.92,0-7.84,0-11.77-.08-10-.7-20-.13-29.94.7-12.44-2.1-23.22-11.34-32-2.28-2.16-4-4.87-6-7.33.9.39,1.83,1.16,2.71,1.11A99.77,99.77,0,0,0,412.77,410.14ZM264.34,440.27q22.91,0,45.8,0h3.71v0h48.89c4.84,0,5.41.75,3.37,5.17s-4.13,8.53-6.45,12.66a4.29,4.29,0,0,1-3.11,1.82q-42.71.13-85.41,0a3.87,3.87,0,0,1-2.86-1.69c-2.43-4.42-4.7-8.93-6.85-13.5C259.8,441.19,260.46,440.28,264.34,440.27Zm-39.19,47.52a6.36,6.36,0,0,1,.37-12.71,6.12,6.12,0,0,1,6.08,6.4A6.05,6.05,0,0,1,225.15,487.79Zm25.55-30.55c-2.7-.64-5.35-1.48-8-2.28-8.46-2.54-16.9-5.11-25.36-7.65-1.83-.55-3.31-1.31-3-3.66.89-4,1.64-8.07,2.78-12a3.56,3.56,0,0,1,2.91-1.81c7.28,1.22,14.55,2.57,21.75,4.21a6.58,6.58,0,0,1,3.89,3.19c2.75,5.72,5.23,11.58,7.62,17.47C254.1,456.66,252.92,457.77,250.7,457.24Zm109.46,38.82c-.45.72-2.16.92-3.28.92-27.15,0-54.3-.12-81.44.18-5.37.06-8.84-1-10.92-6.27-1.42-3.57-3.79-6.76-6-10.58H369.34C366.17,485.83,363.29,491,360.16,496.06Zm41.71-8.18c-3-.15-5.76-3.38-5.67-6.59.09-3.46,3.19-6.85,6.21-6.79s6.56,3.7,6.45,6.57C408.67,485.48,406,488.08,401.87,487.88Zm5.17-58c2.44-.52,3.71.22,4.17,2.68.74,3.93,1.6,7.85,2.56,12.46-.72.58-1.54,1.72-2.6,2q-16.51,5.1-33.11,9.9c-1.05.3-2.32-.16-3.48-.27a10.31,10.31,0,0,1,.31-2.92c2.13-5.23,4.29-10.44,6.6-15.59,1.22-2.71,3.42-4.12,6.47-4.63C394.35,432.49,400.7,431.2,407,429.87Z"/><path class="cls-2" d="M353.54,445.87H274A371.51,371.51,0,0,0,353.54,445.87Z"/><path class="cls-2" d="M353.72,453.34H273.45A377.87,377.87,0,0,0,353.72,453.34Z"/></svg>