<svg xmlns="http://www.w3.org/2000/svg" xmlns:xlink="http://www.w3.org/1999/xlink" viewBox="0 0 1048.01 477.11"><defs><style>.cls-1{fill:url(#linear-gradient);}.cls-2{isolation:isolate;}.cls-3{fill:#dee9f7;}.cls-4{fill:#98b1dc;}.cls-29,.cls-5{fill:#fff;}.cls-5{opacity:0.57;}.cls-6{fill:#c0cfeb;}.cls-7{fill:#8193ca;}.cls-8{fill:url(#linear-gradient-2);}.cls-9{clip-path:url(#clip-path);}.cls-10{fill:#a0aed9;}.cls-11{fill:#243962;}.cls-12{fill:url(#linear-gradient-4);}.cls-13{fill:url(#linear-gradient-5);}.cls-14{fill:#777;}.cls-14,.cls-16{opacity:0.63;mix-blend-mode:multiply;}.cls-15{fill:#f3f3f3;}.cls-16{fill:#b4b4b4;}.cls-17{fill:#ccc;}.cls-18{fill:#b1c6e6;}.cls-19{fill:#fab17e;}.cls-20{fill:#751113;}.cls-21{fill:#183660;}.cls-22{fill:#447bbf;}.cls-23{fill:#be1e2d;}.cls-24{fill:#f9a56c;}.cls-25{fill:#231f20;}.cls-26{fill:#d63044;}.cls-27{fill:#2b4f97;}.cls-28{opacity:0.5;}.cls-30{fill:#35498c;}.cls-31{fill:#2e3b65;}.cls-32{fill:#ee985e;}.cls-33{fill:#c0d1ec;}.cls-34{fill:#b2c1e3;}</style><linearGradient id="linear-gradient" x1="303.82" y1="296.72" x2="518.88" y2="296.72" gradientUnits="userSpaceOnUse"><stop offset="0" stop-color="#5560ab"/><stop offset="1" stop-color="#4c57a6"/></linearGradient><linearGradient id="linear-gradient-2" x1="1600.02" y1="106.9" x2="1579.16" y2="206.66" gradientTransform="matrix(-1, 0, 0, 1, 1972.26, 0)" xlink:href="#linear-gradient"/><clipPath id="clip-path"><path id="SVGID" class="cls-1" d="M310.12,350H455l63.86-106.58H341.14l-36.73,97.64A6.29,6.29,0,0,0,310.12,350Z"/></clipPath><linearGradient id="linear-gradient-4" x1="644.04" y1="264.43" x2="742.9" y2="-5.06" xlink:href="#linear-gradient"/><linearGradient id="linear-gradient-5" x1="510.52" y1="638.87" x2="515.31" y2="492.16" xlink:href="#linear-gradient"/></defs><g class="cls-2"><g id="Layer_1" data-name="Layer 1"><path class="cls-3" d="M50.05,477.08c59,0,963,.07,963,0,33.11-33.57,42.87-113.72-28.85-191.14-26.28-28.35,43.42-82.71-1.82-169.94-17.19-33.14-85.87-90.11-267.1-45.9C638.23,88.89,572.84,58.88,558.37,48a161.4,161.4,0,0,0-26.66-16C432-16.26,259.64,14.48,184.42,72.49c-10.66,8.22-59.13,50.77-20.93,109.24,24.13,36.93-76.93,72.19-112.84,114.34C-40.66,403.26,49.22,475.69,50.05,477.08Z"/><path class="cls-4" d="M628.41,250.5c4.67-19.24,15.16-35.06,28.2-44.86a56.32,56.32,0,0,0,21.9-36.07c.24-1.52.54-3,.91-4.57,5.61-23.13,24.3-38.46,41.75-34.23s27,26.42,21.42,49.55a55.88,55.88,0,0,1-5,13.11,56.57,56.57,0,0,0-5,41.34,82.93,82.93,0,0,1,.16,41c-5.22,21.52-17.72,38.76-32.93,48.08a55.28,55.28,0,0,0-15,13.44c-6.83,8.89-17,13.58-26.79,11.2-10.56-2.56-17.74-12.62-19-24.88a59,59,0,0,0-5.92-19.87C625.87,289,623.69,270,628.41,250.5Z"/><path class="cls-5" d="M709.09,153.9c-6,14.74-11.5,29.66-16.85,44.63-1.34,3.75-2.62,7.51-3.92,11.27l-1.93,5.64-1.89,5.66c-1.25,3.78-2.55,7.53-3.75,11.33l-3.61,11.37c-2.31,7.61-4.68,15.2-6.85,22.85-1.09,3.83-2.26,7.63-3.27,11.48l-3.09,11.52c-4,15.41-7.54,30.92-10.33,46.59l.67.12,2.53-11.64.63-2.91.7-2.89,1.41-5.79,1.4-5.79c.46-1.93,1-3.84,1.49-5.76,1-3.84,2-7.69,3-11.52,4.25-15.3,8.71-30.54,13.49-45.69,2.44-7.56,4.82-15.14,7.32-22.68l1.86-5.66,1.9-5.64c1.27-3.77,2.54-7.53,3.84-11.28q3.82-11.3,7.81-22.52t8-22.44Z"/><path class="cls-6" d="M527.81,237.61c2.25-23.51,12-44,25.77-57.76a67,67,0,0,0,19.79-46.31c0-1.83.13-3.68.31-5.54,2.71-28.28,22.24-49.55,43.61-47.5s36.5,26.64,33.79,54.92a66.42,66.42,0,0,1-3.64,16.32,67.36,67.36,0,0,0,1.13,49.68,98.78,98.78,0,0,1,7.16,48.46c-2.52,26.29-14.39,48.77-30.82,62.36a66.07,66.07,0,0,0-15.42,18.4c-6.57,11.66-17.81,18.91-29.81,17.76-12.94-1.24-23.16-11.91-26.79-26.16a70.34,70.34,0,0,0-10.39-22.49C531.35,283.55,525.53,261.39,527.81,237.61Z"/><path class="cls-5" d="M606.92,109.87c-4.58,18.42-8.57,37-12.37,55.57-.95,4.65-1.82,9.31-2.71,14l-1.34,7-1.28,7c-.83,4.67-1.73,9.33-2.51,14l-2.34,14c-1.44,9.38-3,18.75-4.23,28.16-.64,4.7-1.37,9.39-1.92,14.11l-1.69,14.14c-2.08,18.87-3.68,37.8-4.32,56.78l.82,0,1-14.18.24-3.54.34-3.54.68-7.07.68-7.08c.21-2.36.52-4.71.78-7.06.55-4.71,1.06-9.42,1.64-14.12,2.44-18.79,5.13-37.56,8.21-56.26,1.61-9.34,3.14-18.69,4.82-28l1.23-7,1.3-7c.86-4.66,1.72-9.32,2.63-14q2.61-14,5.42-27.92c1.83-9.3,3.75-18.59,5.7-27.87Z"/><path class="cls-7" d="M334,471.78H439.55a8.53,8.53,0,0,0,8.54-8.53V358a8.53,8.53,0,0,0-8.54-8.53H325.45V463.25A8.53,8.53,0,0,0,334,471.78Z"/><path class="cls-8" d="M310.12,350H455l63.86-106.58H341.14l-36.73,97.64A6.29,6.29,0,0,0,310.12,350Z"/><path class="cls-7" d="M709.42,473.82H604.15v-126H721V462.24A11.57,11.57,0,0,1,709.42,473.82Z"/><path id="SVGID-2" data-name="SVGID" class="cls-1" d="M310.12,350H455l63.86-106.58H341.14l-36.73,97.64A6.29,6.29,0,0,0,310.12,350Z"/><g class="cls-9"><rect class="cls-10" x="306.31" y="344.01" width="113.53" height="6.02" transform="translate(726.15 694.03) rotate(180)"/><rect class="cls-10" x="310.44" y="333.95" width="109.4" height="6.02" transform="translate(730.28 673.92) rotate(180)"/><rect class="cls-10" x="313.91" y="323.26" width="105.93" height="6.02" transform="translate(733.76 652.54) rotate(180)"/><rect class="cls-10" x="318.04" y="313.2" width="101.8" height="6.02" transform="translate(737.89 632.43) rotate(180)"/><rect class="cls-10" x="321.52" y="301.74" width="101.15" height="6.02" transform="translate(744.19 609.51) rotate(180)"/><rect class="cls-10" x="325.45" y="291.69" width="97.22" height="6.02" transform="translate(748.12 589.4) rotate(180)"/><rect class="cls-10" x="329.56" y="280.97" width="98.97" height="6.02" transform="translate(758.1 567.97) rotate(180)"/><rect class="cls-10" x="331.95" y="270.92" width="96.58" height="6.02" transform="translate(760.49 547.85) rotate(180)"/><rect class="cls-10" x="336.3" y="260.11" width="99.84" height="6.02" transform="translate(772.44 526.24) rotate(180)"/><rect class="cls-10" x="314.88" y="250.05" width="125.94" height="6.02" transform="translate(755.71 506.13) rotate(180)"/><rect class="cls-10" x="323.44" y="229.76" width="5.78" height="126.68" transform="translate(534.89 678.98) rotate(-160.32)"/><rect class="cls-10" x="380.26" y="235.29" width="6.02" height="126.68" transform="translate(643.58 708.89) rotate(-160.32)"/></g><path class="cls-10" d="M340.27,246.41l174.54,1.71,3.87-12.29c.17-.56-.37-1.09-1.1-1.09H351.72c-6.32,0-11.45,3.17-11.45,7.08Z"/><path class="cls-6" d="M388.75,288.8a1.06,1.06,0,0,1-.89-.48,1.07,1.07,0,0,1,.31-1.48l129-83.77a7,7,0,0,1,7.58,0l16.42,10.69a1.06,1.06,0,0,1-1.16,1.78l-16.42-10.69a4.84,4.84,0,0,0-5.26,0l-129,83.78A1.12,1.12,0,0,1,388.75,288.8Z"/><path class="cls-5" d="M411.37,416.12a1.05,1.05,0,0,1-1.06-1.06V319.39a1.06,1.06,0,0,1,2.12,0v95.67A1.05,1.05,0,0,1,411.37,416.12Z"/><rect class="cls-4" x="653.01" y="373.31" width="51.4" height="79.72" rx="7.63"/><rect class="cls-4" x="344.06" y="373.46" width="51.4" height="79.72" rx="7.63"/><rect class="cls-11" y="475.43" width="1048.01" height="1.68" rx="0.84"/><path class="cls-12" d="M737.74,350H599.67L522.48,243.43l185.7,3,35,94.9A6.11,6.11,0,0,1,737.74,350Z"/><path class="cls-6" d="M651.22,346.83a1.06,1.06,0,0,1,0-2.12l81.44-.6a2.26,2.26,0,0,0,2.12-3L709.55,268a1.05,1.05,0,0,1,.65-1.35,1.06,1.06,0,0,1,1.36.66l25.22,73.14a4.39,4.39,0,0,1-4.11,5.82l-81.44.59Z"/><path class="cls-4" d="M638.24,469V287.65a5.39,5.39,0,0,0-2.73-4.69l-113-64a5.39,5.39,0,0,0-5.5.11L408.63,286.19a5.39,5.39,0,0,0-2.56,4.59V470a5.41,5.41,0,0,0,5.43,5.4l221.37-1A5.4,5.4,0,0,0,638.24,469Z"/><path class="cls-13" d="M524,200.37l133.14,84.34a3.4,3.4,0,0,1,.94,5.35h0c-6,6.6-17.71,7.87-25.67,2.76L523.2,222.68a6,6,0,0,0-6.31.06L411,293.7c-7,4.68-17.47,3.86-23.18-1.8L386,290.07a3.41,3.41,0,0,1,.76-5.5l131.06-84.18A5.77,5.77,0,0,1,524,200.37Z"/><polygon class="cls-14" points="597.74 365.2 597.74 475.42 591.29 439.11 452.47 439.11 445.52 475.42 445.52 365.2 597.74 365.2"/><polygon class="cls-15" points="604.14 359.78 604.14 475.43 597.87 475.43 597.87 365.2 445.66 365.2 445.66 475.43 439.12 475.43 439.12 359.78 604.14 359.78"/><polygon class="cls-15" points="611.75 340.89 611.75 354.77 604.15 359.77 439.12 359.77 432.6 354.77 432.6 340.89 611.75 340.89"/><polygon class="cls-16" points="611.75 354.77 604.15 359.77 439.12 359.77 432.57 354.77 611.75 354.77"/><rect class="cls-17" x="445.64" y="365.2" width="152.22" height="26.27"/><rect class="cls-15" x="445.64" y="366.81" width="152.22" height="3.21"/><rect class="cls-15" x="445.64" y="371.1" width="152.22" height="3.23"/><rect class="cls-15" x="445.64" y="375.39" width="152.22" height="3.23"/><rect class="cls-15" x="445.64" y="379.69" width="152.22" height="3.22"/><rect class="cls-15" x="445.64" y="383.99" width="152.22" height="3.22"/><rect class="cls-15" x="445.64" y="388.29" width="152.22" height="3.22"/><rect class="cls-18" x="602.72" y="405.41" width="0.93" height="4.94" transform="translate(1088.88 950.37) rotate(-165.9)"/><path class="cls-18" d="M603.47,403.81h0a.81.81,0,0,0,.41.9c.47.17.79-.13.9-.6l0-.13c0-.16.42,0,.47.13a1.35,1.35,0,0,1,0,.93,1.34,1.34,0,0,1-2.55-.82,1.31,1.31,0,0,1,.29-.56C603.14,403.52,603.5,403.61,603.47,403.81Z"/><path class="cls-18" d="M603,412h0a.79.79,0,0,0-.41-.9c-.46-.18-.78.13-.9.6l0,.12c0,.17-.42,0-.48-.13a1.42,1.42,0,0,1,0-.93,1.35,1.35,0,0,1,2.56.82,1.3,1.3,0,0,1-.29.56C603.34,412.33,603,412.24,603,412Z"/><path class="cls-19" d="M601,390.41a15.12,15.12,0,0,1-1.08-1.54c-.43-.72-3-2.24-3.23-1s.67.82,1,1.75.69,1.32,2.61,2.17Z"/><path class="cls-20" d="M600.34,390.87c.57-.85.74-.9.74-.9s9.49,3.64,10.4,3.94S625.93,395,625.93,395L630,403.6s-18-4-20.33-4.76c-3.77-1.35-9.81-6.6-9.81-6.6A2.69,2.69,0,0,1,600.34,390.87Z"/><path class="cls-21" d="M623.92,471.48s-.21,3.2-.83,3.95h-9.52a1.66,1.66,0,0,1,1.52-1.31c1.51-.25,4-1.26,4.94-3.17S623.92,471.48,623.92,471.48Z"/><path class="cls-21" d="M640.85,470.17s.6,4.85-.22,4.92c-.11,0-3.92,0-5,.15a27.47,27.47,0,0,1-4.52,0,.43.43,0,0,1-.4-.65,1.77,1.77,0,0,1,1.29-.79c1.5-.28,4-1.34,4.88-3.26S640.85,470.17,640.85,470.17Z"/><path class="cls-11" d="M619.44,428.93s2.4,8,9.26,22a97.45,97.45,0,0,1,4.75,11.19c.13.37.26.74.37,1.08.18.57.35,1.09.49,1.59s.21.73.3,1.07a20.65,20.65,0,0,1,.88,4.89,8.74,8.74,0,0,0,3.42.38,16.36,16.36,0,0,0,3-.94s-.22-2.25-.68-5.44c0-.35-.1-.71-.16-1.08s-.15-1-.23-1.53l-.18-1.08c-.8-4.74-2-10.24-3.56-13.68-3.24-7-3.9-26.32-3.9-26.32Z"/><path class="cls-22" d="M615.61,424.83a202.14,202.14,0,0,0,2,24.91c.78,5.28,1.19,9.51,1.41,12.79,0,.38.05.75.06,1.11,0,.58.06,1.12.08,1.63s0,.75,0,1.1a40.88,40.88,0,0,1-.1,5.14,2.74,2.74,0,0,0,.42.19h0a8.29,8.29,0,0,0,2.76.41,6.76,6.76,0,0,0,1.56-.18,4.63,4.63,0,0,0,1.16-.41s.36-2,.77-5c.05-.35.1-.72.15-1.1s.14-1,.2-1.56c.05-.36.09-.72.13-1.09.55-4.7,1-10.27.51-14a17.47,17.47,0,0,1-.1-2h0a66.3,66.3,0,0,1,1.58-12.21.08.08,0,0,1,0,0c.89-4.38,1.94-8.43,2.5-10.52l.41-1.5h-.47l-3.76-.12L616.74,422l-.63,0h-.51S615.58,423,615.61,424.83Z"/><path class="cls-19" d="M626.21,392.88l-2.54,1.8-3.66-.74c0-.32.29-1.65.51-2.85,0-.08,0-.15,0-.22.19-1,.35-1.9.35-1.9l3.42-1.64,1.28-.61s-.1,1.14-.11,1.3A10.17,10.17,0,0,0,626.21,392.88Z"/><path class="cls-20" d="M620.26,392c.08,0,5-1.42,5.52-1.25s.85,1.15.85,1.15l-7.57,2.07S619.24,392.38,620.26,392Z"/><path class="cls-23" d="M633.47,423.55c-.83,3.63-18.16-7.78-17.93-10,0-.25.05-.49.07-.74.32-3.09.63-6.12.65-8.09a27,27,0,0,1,.59-5.06c.3-1.46.67-2.8,1-3.84a4.21,4.21,0,0,1,1.22-1.88,4.3,4.3,0,0,1,1.38-.84,3.12,3.12,0,0,1,.43-.15c2.09-.58,5-1.3,5.76-1.08,2.12.6,3.69,4.18,4.81,8.75C633.53,409.17,634,421.17,633.47,423.55Z"/><path class="cls-24" d="M625.24,388.07c-.75,1.38-3.55,2.58-4.72,3,0-.08,0-.15,0-.22.19-1,.35-1.9.35-1.9l3.42-1.64C625.09,387.32,625.55,387.51,625.24,388.07Z"/><path class="cls-19" d="M619.25,388.78s6.17,1.85,7.31-1.86,2.71-6-1.19-7.3-5.1-.14-5.79,1S617.67,388.2,619.25,388.78Z"/><path class="cls-25" d="M619.82,380.27s.4,4.31,1.33,4.12,1.77-.32,1.63,1-1.42,2.8,1.44,3,7-6.86,6.2-8.2C628.15,376.32,616.54,375.54,619.82,380.27Z"/><path class="cls-20" d="M616.06,422c1.72.59,0-1.64,0-2.1.13-2.05-.7-4.64-.45-7.1l10.49-6S628.58,421.91,616.06,422Z"/><path class="cls-22" d="M633.47,423.55c-4.48,7.95-5.19,11-5.19,11-3.89-.42-10.57-7.77-12.69-9.73,0,0-.28-9-.05-11.26l3.23-.09s5.85,1.42,7.37-.51.86-11.41.86-11.41l4.44-.92C633.53,409.17,634.67,421.41,633.47,423.55Z"/><path class="cls-19" d="M606.91,408.29a28.33,28.33,0,0,0-2.53-1.5,5.55,5.55,0,0,0-1.79-.15c-.06.1-.24.41,0,.51s.52.07.43.14-1-.33-1.16.1-.38,1.89.65,2.33,3.54,0,3.72.09C607.76,410.24,606.91,408.29,606.91,408.29Z"/><path class="cls-26" d="M606.89,407.92s10.4,1.7,11.32,1.27c1.47-.69-.57-10.81-.57-10.81a2.94,2.94,0,0,1,2.71-2.84,6.94,6.94,0,0,1,4.77,1.27s2.12,1.83,1.85,3.86c-.6,4.5-1.54,13.64-4.67,15-4,1.81-15.74-5-15.74-5a1.9,1.9,0,0,1-.33-1.31A3,3,0,0,1,606.89,407.92Z"/><path class="cls-27" d="M627.86,401.37l-.86.17s-1.82-7.56-7.94-7.6a4.3,4.3,0,0,1,1.38-.84C622.68,393.68,626.57,395.51,627.86,401.37Z"/><g class="cls-28"><path class="cls-29" d="M633.45,462.11c.13.37.26.74.37,1.08a25.24,25.24,0,0,0,6.09-.81c.35-.08.67-.17,1-.25l-.18-1.08A25.19,25.19,0,0,1,633.45,462.11Z"/></g><g class="cls-28"><path class="cls-29" d="M634.31,464.78c.11.37.21.73.3,1.07a26.38,26.38,0,0,0,5.54-.81q.61-.15,1.11-.3c0-.35-.1-.71-.16-1.08A26.08,26.08,0,0,1,634.31,464.78Z"/></g><path class="cls-19" d="M600.7,390.08a7.08,7.08,0,0,0-.37-1.42c-.25-.59-.57-1.35-.64-1s.18,1.05,0,1.38S600.7,390.08,600.7,390.08Z"/><path class="cls-29" d="M619.06,462.53c0,.38.05.75.06,1.11a25.81,25.81,0,0,0,5.76.32c.48,0,.91-.06,1.28-.09.05-.36.09-.72.13-1.09A26.27,26.27,0,0,1,619.06,462.53Z"/><path class="cls-29" d="M619.2,465.27c0,.39,0,.75,0,1.1a25.59,25.59,0,0,0,5.31.24l1.26-.08c.05-.35.1-.72.15-1.1A26.77,26.77,0,0,1,619.2,465.27Z"/><path class="cls-19" d="M442.22,384.45s1.79-.67,2.39-.26-.18,1.67-.66,1.76a10,10,0,0,1-1.87-.13Z"/><path class="cls-20" d="M442.51,385.31a1.37,1.37,0,0,0,0-1.15s-6.58-1.28-7.19-1.68-6.17-8.11-6.17-8.11l-8.73.81s10.89,9.14,12.46,10.15c2.61,1.66,8.9.71,8.9.71A1.15,1.15,0,0,0,442.51,385.31Z"/><rect class="cls-30" x="443.54" y="383" width="0.79" height="4.19" transform="translate(541.43 964.64) rotate(-140.49)"/><path class="cls-30" d="M445.63,382.09h0a.68.68,0,0,0,0,.84c.29.3.65.18.91-.13l.07-.09c.09-.11.33.14.31.28a1.14,1.14,0,1,1-2-.86,1.21,1.21,0,0,1,.43-.32C445.49,381.74,445.73,381.94,445.63,382.09Z"/><path class="cls-30" d="M442.28,388.23h0a.68.68,0,0,0,0-.84c-.3-.3-.65-.18-.91.13l-.07.09c-.09.11-.33-.13-.32-.28a1.16,1.16,0,0,1,.36-.7,1.14,1.14,0,0,1,1.66,1.56,1.21,1.21,0,0,1-.43.32C442.43,388.57,442.19,388.37,442.28,388.23Z"/><path class="cls-19" d="M444.61,384.19s-1,0-1.07.48-.12,1.31.41,1.28S445.94,384.73,444.61,384.19Z"/><path class="cls-31" d="M403.12,427.1s-1.18,1.09-.95,1.86,1.29,1.29,1.44,2.24.71,1.46,1.23,1.46h2.46s.38-.67-.54-.87-1.26-1.31-1.2-2.34a17.72,17.72,0,0,0-.09-2.41l-2-.46Z"/><path class="cls-31" d="M417.54,429.88s-.27,2.48.25,2.74h6.65s0-.79-1.05-1-2.92-.8-3.24-2.21S417.54,429.88,417.54,429.88Z"/><path class="cls-22" d="M423.12,394.64s-.35,4.35-.76,9.57c-.55,7.1-1.22,15.82-1.29,17.47-.11,2.87-.57,7.46-.57,7.46a3.61,3.61,0,0,1-3.27.63,75.47,75.47,0,0,1-2.5-13.48l0-.34c-.52-7.06-1.32-21.91-1.32-21.91Z"/><path class="cls-31" d="M423.12,394.64s-.35,4.35-.76,9.57l-7.63,12.08,0-.34c-.52-7.06-1.32-21.91-1.32-21.91Z"/><path class="cls-22" d="M421.53,395.16s-.32.81-.87,2.14c-1.27,3.12-3.77,9.11-6.24,14.41-1.15,2.46-2.29,4.78-3.3,6.59-4.13,7.4-5.42,9.46-5.42,9.46l-.16-.06a9.88,9.88,0,0,1-2.16-1.19.93.93,0,0,1-.26-.34s1.58-14.28,4.35-17.76c1.56-2,3.39-7.88,3.48-9.94,0-.91.15-2.21.27-3.39s.2-2,.26-2.47l0-.29,7.25,2.05Z"/><path class="cls-31" d="M420.05,397.18a29.8,29.8,0,0,1-6.55-1,7.21,7.21,0,0,1-2.28-1.12c.1-1.06.2-2,.26-2.47l2.91,1.49Z"/><path class="cls-19" d="M424.3,370.37s2.56,4.51,5.06,5.1a7.31,7.31,0,0,0-.48-2.08.91.91,0,0,1,.15-.92l.28-.36a15.94,15.94,0,0,0,.93-1.3l-.85-2.29-.58-1.55a6.91,6.91,0,0,1-.9,1.3A6.1,6.1,0,0,1,424.3,370.37Z"/><path class="cls-32" d="M427.91,368.27a4.78,4.78,0,0,0,1.4,3.84,15.94,15.94,0,0,0,.93-1.3l-.85-2.29A5.13,5.13,0,0,0,427.91,368.27Z"/><path class="cls-19" d="M430.91,371.14s-3.82-1.49-2.86-3.86,1.13-4.16,3.61-3.31,2.59,1.95,2.46,2.82S431.94,371.47,430.91,371.14Z"/><path class="cls-23" d="M428.73,381.18a23.81,23.81,0,0,1-1.61,3.59l-.36.69-.22.44a23.58,23.58,0,0,0-2.32,7.18c-.06.37-.1.72-.13,1.05-.12,1.4-13.28-3.18-12.86-5.15.28-1.29.67-2.65,1-3.81.52-1.7,1-3,1-3a22.13,22.13,0,0,1,8.68-10.68c.49-.3,1-.55,1.39-.76a12,12,0,0,1,2.78-1,5.94,5.94,0,0,0,3,3.93s.38,1.53.38,1.54C429.85,376.65,429.53,378.87,428.73,381.18Z"/><path class="cls-25" d="M427.5,362.88c0-.06-.1-.11-.29-.17a.82.82,0,0,1,.38,0,1,1,0,0,1,.86-.71.61.61,0,0,0-.38.36c.67-.43,1.91-.55,5,.48,4.1,1.37,2.05,3.74,1.43,3.93s-1.76-1-2.79-1.19-1.58,1.26-2,1.38-.17-.21-.58-.53-.64.44-.63,1-.79,1.05-.79,1.05l-.47-.86a7.69,7.69,0,0,1,.1-4.55Z"/><path class="cls-20" d="M420.61,379a17.94,17.94,0,0,0,1.93,5.86c1.49,2.52,2.15-1.41,2.15-1.41Z"/><path class="cls-22" d="M426.54,385.9a23.58,23.58,0,0,0-2.32,7.18c-.06.37-.1.72-.13,1.05a17.31,17.31,0,0,0,0,3c.14,1.53-11.41-1.43-12.95-3.65-.85-1.23.21-5.42,1.11-8.34.15,0,7.31,1.74,12.26-2.69Z"/><path class="cls-31" d="M427.41,378l-.71-1.43a5.93,5.93,0,0,0-1.41-4,4.3,4.3,0,0,0-3.37-1.06c.49-.3,1-.55,1.39-.76a4.49,4.49,0,0,1,2.56,1.24C427.62,373.71,427.42,377.86,427.41,378Z"/><path class="cls-19" d="M437.26,387.77a25.25,25.25,0,0,1,2.62-.36,5.17,5.17,0,0,1,1.66.76c0,.11-.05.19-.28.19s-1-.12-.92,0,2.17.61,2.17,1.05-1.21,1.18-2.2,1.18-2.89-1.24-3.06-1.26C435.84,389.11,437.26,387.77,437.26,387.77Z"/><path class="cls-26" d="M437.68,388.68a1.44,1.44,0,0,0-.42-.91s-6.67-1.83-7.22-2.39-3.1-9.42-3.1-9.42-.88-3.59-2.94-4a3.76,3.76,0,0,0-3.84,1.58,3.82,3.82,0,0,0-.26,4.29c1.8,3,5.42,9,6.48,10.06,2.36,2.29,10.87,1.82,10.87,1.82S437.59,389.57,437.68,388.68Z"/><rect class="cls-33" x="396.64" y="432.79" width="37.99" height="42.62" transform="translate(831.27 908.2) rotate(-180)"/><rect class="cls-34" x="395.11" y="432.79" width="41.05" height="1.18" transform="translate(831.27 866.75) rotate(-180)"/></g></g></svg>