<svg id="Layer_1" data-name="Layer 1" xmlns="http://www.w3.org/2000/svg" viewBox="0 0 500 500"><defs><style>.cls-1{fill:#fff;}.cls-2{fill:#231f20;}</style></defs><circle class="cls-1" cx="250" cy="250" r="200"/><path class="cls-2" d="M250.05,173c7.4,4.62,14.91,9.28,22.19,13.79l14.42,8.94q5.65,3.51,11.27,7.06c5,3.14,10.19,6.39,15.32,9.55,9.67,6,19.52,12,29.05,17.82l10.76,6.59,1.9,1.17c1.68,1,3.42,2.12,5.23,3.15-.1,19-.15,36.23-.15,52.49,0,16.77,0,33.82.06,50.31q0,14,0,28a5,5,0,0,1-.19,1.58,4.89,4.89,0,0,1-1.51.19H347.86V259.92h-188c-5.48,0-7.72,2.21-7.72,7.63V373.63l-5,0c-2.35,0-4.31,0-6.17,0a2.18,2.18,0,0,1-.84-.12,2.53,2.53,0,0,1-.14-1q0-31.95,0-63.91v-26.4c0-13.54,0-27.54,0-41.32,11.23-6.88,22.61-13.92,33.62-20.73L186,212.49l50.13-31,4.67-2.86c3-1.85,6.13-3.76,9.22-5.71m0-5.46a3,3,0,0,0-1.58.56c-4.94,3.13-10,6.15-14.92,9.22l-50.14,31c-15.54,9.6-31.05,19.24-46.62,28.78a3.3,3.3,0,0,0-1.78,3.3q.06,27.53,0,55.05,0,38.58,0,77.17c0,3.81,2.16,6,5.93,6.08,2.07,0,4.15,0,6.22,0l8.38,0a12.06,12.06,0,0,0,1.6-.23V267.55c0-2.63,0-2.63,2.72-2.63h183V378.63h15.61c4.6,0,6.68-2.14,6.68-6.78q-.06-39.17-.11-78.34,0-26.64.16-53.27a3.08,3.08,0,0,0-1.77-3.13c-2.64-1.47-5.18-3.1-7.76-4.68q-19.91-12.18-39.8-24.39c-8.89-5.49-17.7-11.09-26.57-16.6-12.55-7.81-25.13-15.56-37.67-23.39a3,3,0,0,0-1.59-.56Z"/><path class="cls-2" d="M250,149.6c6.89,4.31,13.88,8.63,20.66,12.82l11.87,7.35c3.55,2.2,7.09,4.42,10.63,6.63,4.89,3.07,9.95,6.23,14.95,9.32,3.51,2.15,7.08,4.29,10.53,6.37,2.9,1.73,5.89,3.53,8.81,5.31,4.08,2.49,8.21,5.06,12.2,7.54l7.52,4.66,8.41,5.19c6.35,3.91,12.9,8,19.34,12,0,1.66,0,3.34.05,5q-2-1.24-3.89-2.5c-3.29-2.12-6.69-4.31-10.1-6.41-4.6-2.83-9.3-5.66-13.84-8.39-4.3-2.59-8.75-5.27-13.1-7.94s-8.69-5.39-12.92-8c-3.75-2.35-7.62-4.78-11.46-7.14-8.45-5.22-17.06-10.49-25.38-15.6L266.71,165c-3.9-2.4-7.94-4.89-11.9-7.47a8.62,8.62,0,0,0-4.74-1.51,8.84,8.84,0,0,0-4.76,1.48C231.6,166,217.64,174.64,204.13,183l-4.2,2.6-26.49,16.35L161.2,209.5l-5.34,3.3-30.69,18.94c0-1-.07-2-.14-3-.15-1.86,0-2.15,1.56-3.06,7.63-4.42,15.2-9.15,22.52-13.72,3.39-2.11,6.9-4.3,10.35-6.42,2.76-1.69,5.59-3.39,8.32-5,3.13-1.88,6.36-3.81,9.52-5.77,3.45-2.14,6.92-4.34,10.27-6.46,3-1.87,6-3.81,9-5.68,11.18-7,22.37-13.86,34.78-21.52,2.52-1.56,5-3.1,7.57-4.65,3.65-2.23,7.4-4.53,11.11-6.84m0-5.43a3.17,3.17,0,0,0-1.67.58c-6.52,4.08-13.1,8.05-19.64,12.08q-17.4,10.75-34.79,21.53c-6.45,4-12.81,8.14-19.27,12.13-5.9,3.66-11.9,7.16-17.82,10.8-10.92,6.7-21.69,13.65-32.77,20.08-3.4,2-4.32,4.18-4,7.77s.07,7.44.07,11.4c.63-.29,1-.41,1.31-.6l42.41-26.18,38.73-23.92q22.71-14,45.39-28.13a4.07,4.07,0,0,1,2.12-.72,3.65,3.65,0,0,1,2,.69c4,2.59,8,5.07,12,7.55q21.48,13.2,43,26.39c8.15,5,16.23,10.18,24.39,15.19,8.95,5.49,18,10.83,26.93,16.33,5.37,3.3,10.63,6.79,16,10.16,1.71,1.09,3.47,2.09,5.65,3.38,0-5.55.05-10.68-.07-15.79,0-.63-.8-1.44-1.43-1.83-9.53-5.94-19.11-11.81-28.66-17.71-6.59-4.07-13.14-8.18-19.74-12.21-6.42-3.93-12.92-7.73-19.32-11.68-8.55-5.27-17-10.64-25.58-15.94-11.16-6.92-22.35-13.8-33.49-20.77a3.14,3.14,0,0,0-1.67-.58Z"/><path class="cls-2" d="M323,295.74c0,1.11,0,2.21,0,3.29H177.3v-3.24l13.72,0c9.39,0,19.1.05,28.66.05h.9c10.61,0,21.4,0,31.84-.05l24.21-.05h24.15c7.06,0,14.59,0,22.19,0m2.82-5h0q-12.48.06-25,0H276.62c-18.68,0-37.36.1-56,.1h-.9c-15.16,0-30.32-.07-45.48-.1h0c-.63,0-1.26.1-1.9.16V304H328c0-3.75-.11-7.36,0-11,.07-1.81-.46-2.34-2.25-2.34Z"/><path class="cls-2" d="M327.9,272.09H172.35v9.51H327.9v-9.51Z"/><path class="cls-2" d="M186.93,368.79c0,2.94-.11,5.5.07,8a2.41,2.41,0,0,0,1.62,1.67c2.39.08,4.77.11,7.16.11,2.09,0,4.17,0,6.26-.08a2.22,2.22,0,0,0,1.63-1.42c.18-2.2.08-4.43.08-6.69a29.62,29.62,0,0,0-3.76-.21c-1.57,0-3.14.08-4.71.08a19.23,19.23,0,0,1-8.35-1.51Z"/><path class="cls-2" d="M312.13,370H295.4c0,2.76-.1,5,.07,7.3,0,.48,1,1.25,1.58,1.27,2.11,0,4.22.07,6.34.07q3.53,0,7.05-.1a2.24,2.24,0,0,0,1.61-1.47c.18-2.46.08-4.94.08-7.07Z"/><path class="cls-2" d="M299.09,314h.3l.38.47c.36.45.71.92,1.05,1.38a30.2,30.2,0,0,0,3.21,3.78l.21.2c-2.75.55-5.29,1-7.85,1.45a9.92,9.92,0,0,0-7.87,5.84c-.17.38-.35.77-.52,1.16-1.87-2.81-5.24-2.81-6.86-2.81H250l-5,0H218.43c-1.26,0-4.61,0-6.45,2.88-.31-.66-.62-1.32-.94-2a9.12,9.12,0,0,0-5.87-4.74c-2.72-.62-5.57-1.21-8.71-1.79.7-1,1.35-2,2-3s1.15-1.8,1.73-2.63l.13-.19c.33,0,.75,0,1,0h.18q23.19,0,46.38,0c18.3,0,35.06,0,51.25-.05m-108.8,26.75,5.23,1.58,7.68,2.32.9.27c1.44.44,2.92.89,4.49,1.26a7.57,7.57,0,0,0,1.8.22,6.08,6.08,0,0,0,5.16-2.64,5,5,0,0,0,.37-.63c.21.4.42.79.64,1.18a7.36,7.36,0,0,0,6.19,3.68c9.34,0,18.68,0,27.79,0,8.94,0,17.91,0,26.66,0a7.76,7.76,0,0,0,6.08-3.31l-.08.8,5,.46.3,0a9.75,9.75,0,0,0,1.9.21,6.66,6.66,0,0,0,1.9-.27c5.83-1.69,11.62-3.41,17.27-5.13,0,2.43,0,4.85.08,7.23a8.16,8.16,0,0,0-3.14-.72h-.14c-4.61,0-8.77,4.3-8.91,9.2a9.44,9.44,0,0,0,4.29,8H286.26c.65-1.12,1.3-2.26,2-3.42l1.45-2.54,4.31-7.49H206.06l4.34,7.5c.49.84,1,1.61,1.43,2.36a27.29,27.29,0,0,1,2,3.58H198.38a9.11,9.11,0,0,0-4.61-16.77h-.14a9.38,9.38,0,0,0-3.33.61c0-1.22,0-2.43,0-3.63v-3.91M299.09,309h0q-25.62,0-51.23.05-23.19,0-46.38,0h-.18c-1.94,0-3.73.07-5,1.86.3-.54.59-1.08.91-1.68H184l-.21.56a15.26,15.26,0,0,0,3.53,1.61,59.82,59.82,0,0,0,7.21.67h0c.47,0,1-.43,1.46-.66-2,3-3.78,6.19-6.2,8.79a16.59,16.59,0,0,0-4.56,11.58c-.1,10.45.11,20.9-.12,31.35-.09,4.35,2.05,5.47,5.75,6.23a8.58,8.58,0,0,0,1.84.15H306.3a25.37,25.37,0,0,0,2.76-.12c4.21-.47,5.74-2.18,5.73-6.38,0-2.5,0-5,0-7.5-.05-6.36-.44-12.74-.09-19.08.45-7.93-1.33-14.79-7.22-20.39a44.38,44.38,0,0,1-3.82-4.67c.55.24,1.13.71,1.67.71h.05a64.81,64.81,0,0,0,7.63-.73c1.12-.2,2.11-1.1,3.16-1.68-.1-.14-.19-.29-.29-.44H302.63l1,2.1c-1-1.73-2.46-2.29-4.51-2.29Zm-8.7,32.2c-.55,0-1.15-.19-1.72-.24a7.08,7.08,0,0,1,.2-1.86c1.36-3.33,2.74-6.66,4.21-9.94a5,5,0,0,1,4.12-2.94c4.07-.67,8.12-1.5,12.16-2.35a4.38,4.38,0,0,1,.84-.09c1,0,1.58.55,1.82,1.8.47,2.51,1,5,1.63,7.94-.46.38-1,1.1-1.66,1.31q-10.53,3.24-21.1,6.3a1.68,1.68,0,0,1-.5.07Zm-80,.2a3.28,3.28,0,0,1-.65-.08c-1.72-.41-3.41-1-5.1-1.46L188.48,335c-1.17-.35-2.11-.84-1.9-2.33.56-2.56,1-5.14,1.77-7.66a2.3,2.3,0,0,1,1.74-1.15h.11c4.64.78,9.27,1.64,13.86,2.68a4.21,4.21,0,0,1,2.48,2c1.75,3.64,3.33,7.38,4.85,11.13.43,1,0,1.7-1,1.7Zm37.23-10.9H250v0h31.15c3.09,0,3.45.48,2.15,3.3s-2.63,5.43-4.11,8.06a2.69,2.69,0,0,1-2,1.16q-13.33,0-26.65,0-13.89,0-27.78,0a2.5,2.5,0,0,1-1.82-1.08q-2.31-4.23-4.36-8.6c-1-2.22-.62-2.8,1.85-2.81h29.19Zm58.73,30.34h-.28a4.24,4.24,0,0,1-3.62-4.2c.06-2.19,2-4.33,3.91-4.33h.05c1.91,0,4.18,2.36,4.11,4.19-.11,2.71-1.69,4.34-4.17,4.34Zm-112.81-.06h-.08a4.05,4.05,0,0,1,.17-8.1h.07a3.89,3.89,0,0,1,3.87,4.07,3.85,3.85,0,0,1-4,4Zm31.71,6c-3.27,0-5.41-.74-6.7-4a56.78,56.78,0,0,0-3.82-6.74h70.61c-2,3.51-3.86,6.83-5.85,10-.29.46-1.38.59-2.09.59H252c-8.84,0-17.68,0-26.52.11Z"/><path class="cls-2" d="M275.27,334.1H224.56a234,234,0,0,0,25.22,1.36,239.19,239.19,0,0,0,25.49-1.36Z"/><path class="cls-2" d="M275.39,338.86H224.24a235.36,235.36,0,0,0,25.43,1.37,243.66,243.66,0,0,0,25.72-1.37Z"/></svg>