<svg xmlns="http://www.w3.org/2000/svg" viewBox="0 0 2140 314.49"><defs><style>.cls-1{fill:#dee9f7;}.cls-2{fill:#c0d1ec;}.cls-3{fill:#9fb6df;}.cls-4{fill:#447bbf;}.cls-5{fill:#be1e2d;}.cls-6{fill:#fff;}.cls-7{fill:#b2c1e3;}.cls-8{fill:#9ab0db;}.cls-9{fill:#a8c3e6;}.cls-10{fill:#243962;}.cls-11{fill:#919bce;}.cls-12{fill:#35498c;}.cls-13{fill:#fab17e;}.cls-14{fill:#751113;}.cls-15{fill:#2b488c;}.cls-16{fill:#2e3b65;}.cls-17{fill:#ee985e;}.cls-18{fill:#d63044;}</style></defs><g id="Layer_2" data-name="Layer 2"><g id="Layer_1-2" data-name="Layer 1"><path class="cls-1" d="M1387,313.65c-39.43,0-644.1.05-644.1,0-22.15-22.46-28.68-76.07,19.29-127.84,17.57-19-29-55.33,1.22-113.66C774.91,50,820.84,11.87,942.06,41.44c51.54,12.57,95.27-7.5,105-14.75A107.34,107.34,0,0,1,1064.84,16c66.71-32.28,182-11.72,232.29,27.08,7.13,5.5,39.55,34,14,73.07-16.13,24.69,51.46,48.28,75.48,76.47C1447.67,264.28,1387.55,312.72,1387,313.65Z"/><path class="cls-2" d="M858.25,145.24v.4c0,7.7-6.53,14-14.55,14H800.11a8.62,8.62,0,0,0-8.79,8.43v1.33a8.63,8.63,0,0,0,8.79,8.44h48.12a1.78,1.78,0,0,1,1.78,1.77,3.76,3.76,0,0,1-3.76,3.76H800.11c-8,0-14.55-6.26-14.55-14V168c0-7.7,6.53-14,14.55-14H843.7a8.64,8.64,0,0,0,8.79-8.44v-.4a8.64,8.64,0,0,0-8.79-8.44H799.3c-8,0-14.55-6.26-14.55-14V121c0-7.71,6.53-14,14.55-14h44.4a8.44,8.44,0,1,0,0-16.87H756.16q.78-2.73,1.78-5.53H843.7c8,0,14.55,6.26,14.55,14s-6.53,14-14.55,14H799.3a8.63,8.63,0,0,0-8.79,8.44v1.87a8.62,8.62,0,0,0,8.79,8.43h44.4C851.72,131.27,858.25,137.54,858.25,145.24Z"/><rect class="cls-3" x="1119.88" y="86.25" width="74.53" height="1.67"/><path class="cls-3" d="M1119,86.85a1.77,1.77,0,1,1,1.77,1.76A1.77,1.77,0,0,1,1119,86.85Z"/><path class="cls-3" d="M1192.13,86.85a1.77,1.77,0,1,1,1.77,1.76A1.77,1.77,0,0,1,1192.13,86.85Z"/><path class="cls-4" d="M1187.17,86.3v57.62c-5.72,1-20.66.14-29.17,1.12s-27.83-.34-27.83-.34V86.57a1.72,1.72,0,0,1,1.73-1.73l53.72-.09A1.54,1.54,0,0,1,1187.17,86.3Z"/><path class="cls-5" d="M1187.17,121.48v22.44c-5.72,1-20.66.14-29.17,1.12s-27.83-.34-27.83-.34V123.11c.13-.78.21-1.22.21-1.22a195.12,195.12,0,0,0,23.43.26C1164.78,121.46,1178,123.25,1187.17,121.48Z"/><path class="cls-6" d="M1140.62,134.67c-4.66,0-10.11-.23-10.42-.24l.06-1.39c.1,0,10.06.41,14.58.14l1.07-.07c5.47-.34,16.85-1,21.6-.25s20-.18,20.12-.19l.1,1.39c-.63,0-15.4,1-20.45.18-4.6-.77-16.29,0-21.29.26l-1.06.07C1143.75,134.64,1142.23,134.67,1140.62,134.67Z"/><path class="cls-6" d="M1140.62,137.74c-4.66,0-10.11-.23-10.42-.24l.06-1.39c.1,0,10.07.41,14.58.14l1.07-.07c5.47-.34,16.85-1,21.6-.25s20-.18,20.12-.19l.1,1.39c-.63,0-15.4,1-20.45.18-4.6-.77-16.29,0-21.29.26l-1.06.07C1143.75,137.71,1142.23,137.74,1140.62,137.74Z"/><rect class="cls-3" x="1029.5" y="71.11" width="69.05" height="87.94"/><rect class="cls-2" x="1032.29" y="73.86" width="63.46" height="82.78"/><rect class="cls-2" x="815.58" y="207.95" width="85.33" height="105.04"/><rect class="cls-7" x="815.58" y="223.61" width="85.33" height="1.43"/><path class="cls-7" d="M840.83,222.22H818.15V210.1h22.68Zm-22.39-.28h22.11V210.39H818.44Z"/><path class="cls-7" d="M853.17,216.16a4.07,4.07,0,1,1,4.07,4.07A4.07,4.07,0,0,1,853.17,216.16Z"/><path class="cls-7" d="M864.15,216.16a3.32,3.32,0,1,1,3.32,3.31A3.32,3.32,0,0,1,864.15,216.16Z"/><rect class="cls-7" x="875.97" y="212.27" width="18.16" height="7.79"/><circle class="cls-7" cx="857.24" cy="264.07" r="31.62"/><circle class="cls-8" cx="857.24" cy="264.07" r="25.42" transform="translate(-11.99 42.63) rotate(-2.83)"/><rect class="cls-7" x="876.67" y="259.8" width="9.4" height="11.11" rx="4.7"/><rect class="cls-2" x="1020.35" y="206.53" width="94.74" height="106.28"/><rect class="cls-7" x="1020.35" y="239.13" width="94.74" height="1.26"/><rect class="cls-7" x="1059.78" y="210.16" width="17.18" height="2.11" rx="1.05"/><rect class="cls-7" x="1020.35" y="277.7" width="94.74" height="1.26"/><rect class="cls-7" x="1059.78" y="242.99" width="17.18" height="2.11" rx="1.05"/><rect class="cls-7" x="1059.78" y="283.28" width="17.18" height="2.11" rx="1.05"/><rect class="cls-8" x="1014.45" y="200.99" width="105.87" height="6.96"/><path class="cls-8" d="M1062.74,185.81h0a2.12,2.12,0,0,1-2.11-2.12V164.44a2.12,2.12,0,0,1,2.11-2.11h0a2.12,2.12,0,0,1,2.12,2.11v19.25A2.12,2.12,0,0,1,1062.74,185.81Z"/><path class="cls-2" d="M1098.89,185.81c0,6.51-7,12.18-17.46,15.2h-34.29c-10.43-3-17.46-8.69-17.46-15.2Z"/><path class="cls-9" d="M1100.6,185.81H1028a1.53,1.53,0,0,1-1.52-1.52h0a1.53,1.53,0,0,1,1.52-1.53h72.63a1.53,1.53,0,0,1,1.52,1.53h0A1.53,1.53,0,0,1,1100.6,185.81Z"/><rect class="cls-10" y="312.81" width="2140" height="1.68" rx="0.84"/><path class="cls-11" d="M924,313.67s-4-6.4-15.52-5.05-19.66,7.52-47.05.63-24.91,5.47-40.51,2.81-22.44,1.61-22.44,1.61Z"/><rect class="cls-12" x="904.28" y="242.41" width="2.26" height="11.99" transform="translate(48.84 632.79) rotate(-39.51)"/><path class="cls-12" d="M900.55,239.79h0a1.93,1.93,0,0,1,0,2.4c-.84.87-1.85.53-2.6-.38l-.19-.23c-.26-.32-1,.37-.91.78a3.26,3.26,0,1,0,5.75-2.44,3.18,3.18,0,0,0-1.22-.92C901,238.81,900.28,239.38,900.55,239.79Z"/><path class="cls-12" d="M910.12,257.34h0a1.91,1.91,0,0,1,0-2.39c.84-.87,1.85-.54,2.6.37,0,0,.19.23.19.24.26.32,1-.38.91-.78a3.26,3.26,0,1,0-5.75,2.44,3.29,3.29,0,0,0,1.22.92C909.7,258.32,910.39,257.75,910.12,257.34Z"/><path class="cls-13" d="M904.61,251.24c2.08.32,6.93-1.12,7.29-1.16,3-.29.1-3.25.1-3.25a52.61,52.61,0,0,0-5.52-1,7.66,7.66,0,0,0-1.15.23l.81.79s-3.94.41-4,1.33A3.06,3.06,0,0,0,904.61,251.24Z"/><path class="cls-13" d="M906.48,245.85l-3.35.41c0,.88,2.58.59,2.7,1s.73-.61.73-.61Z"/><path class="cls-13" d="M937.72,246.12s-4.51.44-4.21.92,2.26.69,2.26.69l1.59-1Z"/><path class="cls-14" d="M911.07,248.3c-.72-2.1.29-2.75.29-2.75s20.65-9.79,22.34-10.87,13-21.76,13-21.76,4.21-8.45,9.57-8.28c4.66.15,7.24,3.05,8.68,6.09a9.77,9.77,0,0,1-1.77,10.86c-6.18,6.54-18.6,19.49-21.81,21.46-7.16,4.38-28.62,7.92-28.62,7.92A7,7,0,0,1,911.07,248.3Z"/><path class="cls-15" d="M914.1,270.74c3.11,3.59,9.68,5.91,22.37,6.5,1,.05,2,.09,3.07.12l3.18.07c3.44,0,6.87,0,10.14-.1s6.19-.29,8.92-.51A59.73,59.73,0,0,0,973.6,275a4.09,4.09,0,0,0,1.4-.69,2.34,2.34,0,0,0,.55-.7c.8-1.49.38-3.92-.58-6.6a64,64,0,0,0-5.74-11.09l-.92-1.44c-.53-.81-.86-1.29-.86-1.29s-5.93.55-14,1.61c-1.65.21-3.4.45-5.2.7-17.44,2.47-34.81,6.9-34.79,12.78A3.17,3.17,0,0,0,914.1,270.74Z"/><path class="cls-16" d="M935.68,277.17c1.06,0,6,.24,7,.26,3.44,0,6.87,0,10.14-.1l3.07-12.39C951.18,271.57,937.21,276.74,935.68,277.17Z"/><path class="cls-16" d="M946,313.13h-16.9a3,3,0,0,1,2.48-1.76c2.66-.46,7.29-1.9,6.69-5.75s5.89-4.39,5.89-4.39S946.8,311.65,946,313.13Z"/><path class="cls-15" d="M913.82,270.1s21,33,22.71,36.91c0,0,7.14.66,8.85-4.43,0,0-12.46-34.82-17.94-37.68S913.82,270.1,913.82,270.1Z"/><path class="cls-13" d="M956.11,200.65s-7.22,9.89-13.66,10.42a19.6,19.6,0,0,1,1.49-4.13,4.35,4.35,0,0,0-.07-4.13l0-.06a37.31,37.31,0,0,1-1.83-3.58l3-5.35.61-2.88a19.76,19.76,0,0,0,1.74,3.63A13.72,13.72,0,0,0,956.11,200.65Z"/><path class="cls-17" d="M947.6,194.51a8.31,8.31,0,0,1-3.76,8.24,37.31,37.31,0,0,1-1.83-3.58l3-5.35C947.34,193.47,947.6,194.51,947.6,194.51Z"/><path class="cls-13" d="M941.11,202.16s9.06-4.94,5.9-10.53-4.12-10-10-7.08-5.82,5.68-5.22,7.8S938.67,203.3,941.11,202.16Z"/><path class="cls-15" d="M947,180.5c0-.14.22-.31.68-.52a2,2,0,0,0-1,.09,2.53,2.53,0,0,0-2.36-1.5,1.51,1.51,0,0,1,1.07.76c-1.81-.84-4.95-.76-12.36,2.81-9.76,4.7-3.91,10-2.3,10.24s4.06-3.13,6.57-3.87,4.34,2.64,5.36,2.81.35-.56,1.27-1.51,1.75.9,1.9,2.24a4.3,4.3,0,0,0,1.76,2.46s.54-.1,1.43-2.39-.41-10-1.71-11.29Z"/><path class="cls-10" d="M1001.05,302.35s2.11,3.19,2.6,4.23a3.06,3.06,0,0,1-1.92,3.57c-1.27.29-1.46,2.55-1.46,2.55h6.17a1.63,1.63,0,0,0,1.5-.91,21.9,21.9,0,0,0,1.24-5.24c.37-1.76,1.1-3.23.78-5s-3.36-2.81-8.91-2.8C995,298.76,1001.05,302.35,1001.05,302.35Z"/><path class="cls-5" d="M982.89,263.79c-4.65,4.94-38.85-5.27-36-7.87.73-.66.48-1.46.78-2.52,1.42-5.05-1.41-13.69-2.62-17-.28-.77-.48-1.26-.51-1.36a58.87,58.87,0,0,1-2.64-9.53c-1.13-6-1.1-11.64.44-15.08,0,0,0,0,0,0,6.41-1.87,9.93-11.3,9.93-11.3s20.3,5.77,27.67,34.73c0,0,.38,1.84.85,4.61h0c.14.85.29,1.79.44,2.79.79,5.16,1.25,11.76,1.71,16.68l.06.53C983.26,260.5,983.67,263,982.89,263.79Z"/><path class="cls-4" d="M956,258.9s3.41.45,10.29,1c7.12.53,14.68,1.65,15.9,4,.41.79.13,2.8-.67,5.57-1.75,6.12-6,16-10.88,24.74,12.5.72,29.49,3.48,29.49,3.48a7.46,7.46,0,0,1,1.61,6.82c-.89,0-3.57.39-7.23,1-13.25,2.13-29.39,6.52-39.4,6.52a4.81,4.81,0,0,1-4.49-3.59h0C946.46,295.9,956,258.9,956,258.9Z"/><path class="cls-16" d="M981.48,270.4c-6.89-.22-24.18-8.71-23.9-8.78a81.47,81.47,0,0,1,8.67-1.68c7.12.57,14.68,1.79,15.9,4.4C982.56,265.2,982.28,267.38,981.48,270.4Z"/><path class="cls-4" d="M955.71,200.45s-8.68,1.81-9.52,9.41c-.62,5.54,3.77,18.08,3.77,18.08l2.82-1.16s-5.32-15.48-4.5-18.11c1.05-3.38,6-8.43,10.62-6.41Z"/><path class="cls-4" d="M982.89,263.79c-4.65,4.94-39.59-5.16-36.72-7.76a5.54,5.54,0,0,0,1.51-2.63c1.42-5.05-1.41-13.69-2.62-17-.28-.77-2.95-10-3-10.07l9.84-2.13s2.78,4.79,6.39,7.25a39.9,39.9,0,0,0,22.52,7h0c.14.85.29,1.79.44,2.79.79,5.16,1.25,11.76,1.71,16.68l.06.53C983.26,260.5,983.67,263,982.89,263.79Z"/><path class="cls-13" d="M944.4,245.73a19.4,19.4,0,0,1-3.23.42c-1.5,0-3.09-.23-3.81.07-1.53.63-6.35,3.95-4,5.37a5.36,5.36,0,0,0,6.32-.37c1.59-1.29,5.92-1.39,5.92-1.39Z"/><path class="cls-18" d="M960.62,207.43c10.46,3,16.83,28.12,15.35,35.63S945,251,945,251a5.34,5.34,0,0,1-1.85-2.64,5.91,5.91,0,0,1,0-2.5s18.67-5.06,19.09-7.22-9-13.58-8.84-19.78S954.92,205.78,960.62,207.43Z"/></g></g></svg>