<svg xmlns="http://www.w3.org/2000/svg" viewBox="0 0 2667.26 314.49"><defs><style>.cls-1{fill:#dee9f7;}.cls-2{fill:#c0d1ec;}.cls-3{fill:#9fb6df;}.cls-4{fill:#447bbf;}.cls-5{fill:#be1e2d;}.cls-6{fill:#fff;}.cls-7{fill:#b2c1e3;}.cls-8{fill:#9ab0db;}.cls-9{fill:#a8c3e6;}.cls-10{fill:#243962;}.cls-11{fill:#919bce;}.cls-12{fill:#35498c;}.cls-13{fill:#fab17e;}.cls-14{fill:#751113;}.cls-15{fill:#2b488c;}.cls-16{fill:#2e3b65;}.cls-17{fill:#ee985e;}.cls-18{fill:#d63044;}</style></defs><g id="Layer_2" data-name="Layer 2"><g id="Layer_1-2" data-name="Layer 1"><path class="cls-1" d="M1650.63,313.65c-39.43,0-644.1.05-644.1,0-22.15-22.46-28.68-76.07,19.29-127.84,17.58-19-29-55.33,1.22-113.66,11.5-22.17,57.43-60.28,178.65-30.71,51.54,12.57,95.28-7.5,105-14.75A107.43,107.43,0,0,1,1328.48,16c66.71-32.28,182-11.72,232.28,27.08,7.13,5.5,39.55,34,14,73.07-16.14,24.69,51.45,48.28,75.47,76.47C1711.3,264.28,1651.18,312.72,1650.63,313.65Z"/><path class="cls-2" d="M1121.88,145.24v.4c0,7.7-6.53,14-14.55,14h-43.59A8.62,8.62,0,0,0,1055,168v1.33a8.63,8.63,0,0,0,8.78,8.44h48.13a1.77,1.77,0,0,1,1.77,1.77,3.76,3.76,0,0,1-3.76,3.76h-46.14c-8,0-14.55-6.26-14.55-14V168c0-7.7,6.53-14,14.55-14h43.59a8.64,8.64,0,0,0,8.79-8.44v-.4a8.64,8.64,0,0,0-8.79-8.44h-44.4c-8,0-14.55-6.26-14.55-14V121c0-7.71,6.53-14,14.55-14h44.4a8.44,8.44,0,1,0,0-16.87h-87.54q.78-2.73,1.79-5.53h85.75c8,0,14.55,6.26,14.55,14s-6.53,14-14.55,14h-44.4a8.64,8.64,0,0,0-8.79,8.44v1.87a8.63,8.63,0,0,0,8.79,8.43h44.4C1115.35,131.27,1121.88,137.54,1121.88,145.24Z"/><rect class="cls-3" x="1383.51" y="86.25" width="74.53" height="1.67"/><path class="cls-3" d="M1382.65,86.85a1.77,1.77,0,1,1,1.77,1.76A1.77,1.77,0,0,1,1382.65,86.85Z"/><path class="cls-3" d="M1455.76,86.85a1.77,1.77,0,1,1,1.77,1.76A1.77,1.77,0,0,1,1455.76,86.85Z"/><path class="cls-4" d="M1450.8,86.3v57.62c-5.72,1-20.65.14-29.17,1.12s-27.83-.34-27.83-.34V86.57a1.73,1.73,0,0,1,1.73-1.73l53.73-.09A1.54,1.54,0,0,1,1450.8,86.3Z"/><path class="cls-5" d="M1450.8,121.48v22.44c-5.72,1-20.65.14-29.17,1.12s-27.83-.34-27.83-.34V123.11c.14-.78.21-1.22.21-1.22a195.25,195.25,0,0,0,23.44.26C1428.42,121.46,1441.6,123.25,1450.8,121.48Z"/><path class="cls-6" d="M1404.26,134.67c-4.67,0-10.12-.23-10.43-.24l.06-1.39c.1,0,10.07.41,14.58.14l1.07-.07c5.47-.34,16.85-1,21.6-.25s20-.18,20.13-.19l.09,1.39c-.63,0-15.4,1-20.44.18-4.6-.77-16.3,0-21.3.26l-1.06.07C1407.38,134.64,1405.87,134.67,1404.26,134.67Z"/><path class="cls-6" d="M1404.26,137.74c-4.67,0-10.12-.23-10.43-.24l.06-1.39c.1,0,10.07.41,14.58.14l1.07-.07c5.47-.34,16.85-1,21.6-.25s20-.18,20.13-.19l.09,1.39c-.63,0-15.4,1-20.44.18-4.6-.77-16.3,0-21.3.26l-1.06.07C1407.38,137.71,1405.87,137.74,1404.26,137.74Z"/><rect class="cls-3" x="1293.13" y="71.11" width="69.05" height="87.94"/><rect class="cls-2" x="1295.93" y="73.86" width="63.46" height="82.78"/><rect class="cls-2" x="1079.22" y="207.95" width="85.33" height="105.04"/><rect class="cls-7" x="1079.22" y="223.61" width="85.33" height="1.43"/><path class="cls-7" d="M1104.46,222.22h-22.68V210.1h22.68Zm-22.39-.28h22.11V210.39h-22.11Z"/><path class="cls-7" d="M1116.8,216.16a4.07,4.07,0,1,1,4.07,4.07A4.07,4.07,0,0,1,1116.8,216.16Z"/><path class="cls-7" d="M1127.79,216.16a3.31,3.31,0,1,1,3.31,3.31A3.31,3.31,0,0,1,1127.79,216.16Z"/><rect class="cls-7" x="1139.6" y="212.27" width="18.16" height="7.79"/><circle class="cls-7" cx="1120.87" cy="264.07" r="31.62"/><circle class="cls-8" cx="1120.87" cy="264.07" r="25.42" transform="translate(-11.67 55.64) rotate(-2.83)"/><rect class="cls-7" x="1140.31" y="259.8" width="9.4" height="11.11" rx="4.7"/><rect class="cls-2" x="1283.98" y="206.53" width="94.74" height="106.28"/><rect class="cls-7" x="1283.98" y="239.13" width="94.74" height="1.26"/><rect class="cls-7" x="1323.42" y="210.16" width="17.18" height="2.11" rx="1.05"/><rect class="cls-7" x="1283.98" y="277.7" width="94.74" height="1.26"/><rect class="cls-7" x="1323.42" y="242.99" width="17.18" height="2.11" rx="1.05"/><rect class="cls-7" x="1323.42" y="283.28" width="17.18" height="2.11" rx="1.05"/><rect class="cls-8" x="1278.08" y="200.99" width="105.87" height="6.96"/><path class="cls-8" d="M1326.37,185.81h0a2.12,2.12,0,0,1-2.11-2.12V164.44a2.12,2.12,0,0,1,2.11-2.11h0a2.12,2.12,0,0,1,2.12,2.11v19.25A2.12,2.12,0,0,1,1326.37,185.81Z"/><path class="cls-2" d="M1362.52,185.81c0,6.51-7,12.18-17.46,15.2h-34.29c-10.43-3-17.46-8.69-17.46-15.2Z"/><path class="cls-9" d="M1364.23,185.81H1291.6a1.53,1.53,0,0,1-1.52-1.52h0a1.53,1.53,0,0,1,1.52-1.53h72.63a1.53,1.53,0,0,1,1.52,1.53h0A1.53,1.53,0,0,1,1364.23,185.81Z"/><rect class="cls-10" y="312.81" width="2667.26" height="1.68" rx="0.84"/><path class="cls-11" d="M1187.62,313.67s-4-6.4-15.53-5.05-19.66,7.52-47,.63-24.92,5.47-40.51,2.81-22.45,1.61-22.45,1.61Z"/><rect class="cls-12" x="1167.91" y="242.41" width="2.26" height="11.99" transform="translate(109.08 800.52) rotate(-39.51)"/><path class="cls-12" d="M1164.18,239.79h0a1.94,1.94,0,0,1,0,2.4c-.84.87-1.85.53-2.6-.38l-.19-.23c-.26-.32-1,.37-.91.78a3.26,3.26,0,1,0,5.76-2.44,3.29,3.29,0,0,0-1.23-.92C1164.6,238.81,1163.91,239.38,1164.18,239.79Z"/><path class="cls-12" d="M1173.75,257.34h0a1.91,1.91,0,0,1,0-2.39c.85-.87,1.85-.54,2.6.37l.2.24c.26.32,1-.38.9-.78a3.26,3.26,0,1,0-5.75,2.44,3.29,3.29,0,0,0,1.22.92C1173.33,258.32,1174,257.75,1173.75,257.34Z"/><path class="cls-13" d="M1168.24,251.24c2.08.32,6.93-1.12,7.29-1.16,3-.29.11-3.25.11-3.25a52.39,52.39,0,0,0-5.53-1,7.66,7.66,0,0,0-1.15.23l.81.79s-3.94.41-4,1.33A3.07,3.07,0,0,0,1168.24,251.24Z"/><path class="cls-13" d="M1170.11,245.85l-3.35.41c0,.88,2.58.59,2.71,1s.72-.61.72-.61Z"/><path class="cls-13" d="M1201.35,246.12s-4.5.44-4.21.92,2.26.69,2.26.69l1.59-1Z"/><path class="cls-14" d="M1174.71,248.3c-.73-2.1.28-2.75.28-2.75s20.65-9.79,22.34-10.87,13-21.76,13-21.76,4.21-8.45,9.57-8.28c4.66.15,7.25,3.05,8.68,6.09a9.78,9.78,0,0,1-1.76,10.86c-6.19,6.54-18.6,19.49-21.82,21.46-7.16,4.38-28.62,7.92-28.62,7.92A7.07,7.07,0,0,1,1174.71,248.3Z"/><path class="cls-15" d="M1177.73,270.74c3.11,3.59,9.69,5.91,22.37,6.5,1,.05,2,.09,3.07.12l3.18.07c3.45,0,6.88,0,10.14-.1s6.19-.29,8.92-.51a59.73,59.73,0,0,0,11.82-1.84,4,4,0,0,0,1.4-.69,2.34,2.34,0,0,0,.55-.7c.8-1.49.38-3.92-.58-6.6a64,64,0,0,0-5.74-11.09c-.34-.55-.66-1-.92-1.44-.53-.81-.86-1.29-.86-1.29s-5.92.55-14,1.61c-1.66.21-3.4.45-5.21.7-17.43,2.47-34.81,6.9-34.79,12.78A3.17,3.17,0,0,0,1177.73,270.74Z"/><path class="cls-16" d="M1199.32,277.17c1.06,0,6,.24,7,.26,3.45,0,6.88,0,10.14-.1l3.08-12.39C1214.81,271.57,1200.84,276.74,1199.32,277.17Z"/><path class="cls-16" d="M1209.59,313.13h-16.91a3,3,0,0,1,2.48-1.76c2.67-.46,7.29-1.9,6.7-5.75s5.88-4.39,5.88-4.39S1210.44,311.65,1209.59,313.13Z"/><path class="cls-15" d="M1177.45,270.1s21,33,22.72,36.91c0,0,7.13.66,8.85-4.43,0,0-12.47-34.82-18-37.68S1177.45,270.1,1177.45,270.1Z"/><path class="cls-13" d="M1219.74,200.65s-7.22,9.89-13.66,10.42a19.32,19.32,0,0,1,1.5-4.13,4.35,4.35,0,0,0-.08-4.13l0-.06a37.31,37.31,0,0,1-1.83-3.58l3-5.35.61-2.88a19.77,19.77,0,0,0,1.75,3.63A13.69,13.69,0,0,0,1219.74,200.65Z"/><path class="cls-17" d="M1211.24,194.51a8.33,8.33,0,0,1-3.77,8.24,37.31,37.31,0,0,1-1.83-3.58l3-5.35C1211,193.47,1211.24,194.51,1211.24,194.51Z"/><path class="cls-13" d="M1204.74,202.16s9.06-4.94,5.9-10.53-4.12-10-10-7.08-5.83,5.68-5.23,7.8S1202.31,203.3,1204.74,202.16Z"/><path class="cls-15" d="M1210.61,180.5c.05-.14.22-.31.68-.52a2,2,0,0,0-1,.09,2.53,2.53,0,0,0-2.36-1.5,1.51,1.51,0,0,1,1.07.76c-1.81-.84-5-.76-12.35,2.81-9.77,4.7-3.91,10-2.31,10.24s4.06-3.13,6.57-3.87,4.34,2.64,5.36,2.81.35-.56,1.27-1.51,1.75.9,1.9,2.24a4.35,4.35,0,0,0,1.77,2.46s.53-.1,1.43-2.39-.42-10-1.72-11.29Z"/><path class="cls-10" d="M1264.68,302.35s2.11,3.19,2.6,4.23a3.06,3.06,0,0,1-1.92,3.57c-1.27.29-1.46,2.55-1.46,2.55h6.18a1.63,1.63,0,0,0,1.49-.91,22.54,22.54,0,0,0,1.25-5.24c.36-1.76,1.09-3.23.77-5s-3.36-2.81-8.91-2.8C1258.59,298.76,1264.68,302.35,1264.68,302.35Z"/><path class="cls-5" d="M1246.53,263.79c-4.66,4.94-38.86-5.27-36-7.87.72-.66.47-1.46.77-2.52,1.42-5.05-1.4-13.69-2.62-17-.28-.77-.47-1.26-.51-1.36a58.87,58.87,0,0,1-2.64-9.53c-1.12-6-1.1-11.64.44-15.08,0,0,0,0,0,0,6.41-1.87,9.94-11.3,9.94-11.3s20.29,5.77,27.66,34.73c0,0,.38,1.84.85,4.61h0c.14.85.3,1.79.45,2.79.78,5.16,1.24,11.76,1.71,16.68,0,.17,0,.35.05.53C1246.89,260.5,1247.3,263,1246.53,263.79Z"/><path class="cls-4" d="M1219.6,258.9s3.4.45,10.28,1c7.13.53,14.68,1.65,15.91,4,.4.79.12,2.8-.67,5.57-1.76,6.12-6,16-10.88,24.74,12.49.72,29.48,3.48,29.48,3.48a7.48,7.48,0,0,1,1.62,6.82c-.89,0-3.57.39-7.23,1-13.26,2.13-29.4,6.52-39.41,6.52a4.82,4.82,0,0,1-4.49-3.59h0C1210.1,295.9,1219.6,258.9,1219.6,258.9Z"/><path class="cls-16" d="M1245.12,270.4c-6.9-.22-24.19-8.71-23.91-8.78a81.47,81.47,0,0,1,8.67-1.68c7.13.57,14.68,1.79,15.91,4.4C1246.19,265.2,1245.91,267.38,1245.12,270.4Z"/><path class="cls-4" d="M1219.34,200.45s-8.67,1.81-9.52,9.41c-.62,5.54,3.78,18.08,3.78,18.08l2.81-1.16s-5.32-15.48-4.5-18.11c1-3.38,6-8.43,10.62-6.41Z"/><path class="cls-4" d="M1246.53,263.79c-4.66,4.94-39.6-5.16-36.73-7.76a5.46,5.46,0,0,0,1.51-2.63c1.42-5.05-1.4-13.69-2.62-17-.28-.77-3-10-3-10.07l9.84-2.13s2.78,4.79,6.39,7.25a39.9,39.9,0,0,0,22.52,7h0c.14.85.3,1.79.45,2.79.78,5.16,1.24,11.76,1.71,16.68,0,.17,0,.35.05.53C1246.89,260.5,1247.3,263,1246.53,263.79Z"/><path class="cls-13" d="M1208,245.73a19.2,19.2,0,0,1-3.23.42c-1.5,0-3.09-.23-3.81.07-1.52.63-6.35,3.95-4,5.37a5.36,5.36,0,0,0,6.32-.37c1.59-1.29,5.92-1.39,5.92-1.39Z"/><path class="cls-18" d="M1224.25,207.43c10.46,3,16.83,28.12,15.35,35.63s-31,7.91-31,7.91a5.4,5.4,0,0,1-1.85-2.64,5.91,5.91,0,0,1,0-2.5s18.67-5.06,19.1-7.22-9-13.58-8.85-19.78S1218.55,205.78,1224.25,207.43Z"/></g></g></svg>