<svg xmlns="http://www.w3.org/2000/svg" viewBox="0 0 400 120"><defs><style>.cls-1{fill:#447bbe;}.cls-2{fill:none;}</style></defs><g id="Layer_2" data-name="Layer 2"><g id="Layer_1-2" data-name="Layer 1"><path class="cls-1" d="M179.69,42.34c0-3.42,0-6.77,0-10.12a59.49,59.49,0,0,1,.19-7.44c1.07-7.89,5.33-13.52,12.75-16.45,7.18-2.83,14-1.7,20,3.06a19.46,19.46,0,0,1,7.61,15.75c.06,4.7,0,9.41,0,14.11v1c1.18.27,2.33.44,3.41.8a9.91,9.91,0,0,1,6.73,9.16c0,8.69.06,17.38,0,26.07A10,10,0,0,1,220.3,88c-7.27,0-14.54,0-21.81,0q-9.36,0-18.72,0a10,10,0,0,1-10-7.91,11.09,11.09,0,0,1-.26-2.51q0-12.39,0-24.8a10.13,10.13,0,0,1,9.74-10.42Zm30.4,0a1.67,1.67,0,0,0,0-.24c0-4.36,0-8.71,0-13.07a27.38,27.38,0,0,0-.15-3.39,10.13,10.13,0,0,0-20.15,1.59c0,4.83,0,9.67,0,14.5,0,.2,0,.4,0,.61Zm-12.64,29v3.65a2.55,2.55,0,1,0,5.08,0c0-2.41,0-4.81,0-7.21a1.56,1.56,0,0,1,.7-1.45A4.45,4.45,0,0,0,205,62.33a5.07,5.07,0,0,0-4.33-4.67,5.13,5.13,0,0,0-5.38,3A4.87,4.87,0,0,0,197,66.62a1.47,1.47,0,0,1,.45,1C197.48,68.86,197.45,70.13,197.45,71.4Z"/><path d="M223.5,23.34a28.6,28.6,0,0,1,.31,3.76c0,3.26,0,6.56,0,9.76a37.71,37.71,0,0,1,4.75,4.79A36.84,36.84,0,0,1,237,65.2a37,37,0,1,1-60.87-28.33c0-1.55,0-3.13,0-4.68,0-.63,0-1.25,0-1.92a40.27,40.27,0,0,1,.23-6l.15-1a48,48,0,1,0,47,0Z"/><path d="M206.62,28.76a22.17,22.17,0,0,0-.11-2.65,6.58,6.58,0,0,0-7.91-5.4,6.57,6.57,0,0,0-5.22,6.56v1.49a37.43,37.43,0,0,1,13.24,0Z"/><rect class="cls-2" width="400" height="120"/></g></g></svg>