<svg id="Layer_1" data-name="Layer 1" xmlns="http://www.w3.org/2000/svg" viewBox="0 0 500 500"><defs><style>.cls-1{fill:#fff;}.cls-2{fill:#231f20;}</style></defs><circle class="cls-1" cx="250" cy="250" r="200"/><path class="cls-2" d="M347.09,112c2.59,0,5.26,1.41,8.67,4.59l19.53,18.24c18.37,17.16,37.36,34.9,56.08,52.31a2.14,2.14,0,0,1,.86,2c-.05,6.73,0,13.56,0,20.17,0,1.85,0,3.7,0,5.55l-36.27-33.89q-22.1-20.64-44.21-41.29l-1.39-1.33c-1.73-1.66-3.09-3-5.36-3-1.76,0-3,.82-4.39,1.77-.48.32-1,.69-1.72,1.12q-76.24,47.25-152.47,94.53l-36.79,22.82c0-1.05,0-2.1.06-3.13a119.41,119.41,0,0,0-.27-14c-.45-4.68.77-6.85,5.21-9.27,6.63-3.61,13.07-7.69,19.3-11.64,3.21-2,6.52-4.13,9.8-6.12A8.25,8.25,0,0,0,188,203.6c-.11-7.06-.08-14.25-.06-21.21V178c0-4.61,2-6.67,6.57-6.68h25.06l6.48,0,6.93,0c3.89,0,7.06,0,10,.1h.42a17.26,17.26,0,0,0,9.46-2.85c29.81-18.56,60.24-37.42,86.41-53.64,3.2-2,5.7-2.9,7.84-2.9m0-4c-3,0-6.19,1.18-9.94,3.5q-43.23,26.79-86.42,53.65a13.38,13.38,0,0,1-7.35,2.24h-.33q-5-.11-10.07-.1c-4.47,0-8.94,0-13.41.05H194.5c-6.71,0-10.54,3.89-10.56,10.67,0,8.57-.08,17.14.05,25.7a4.33,4.33,0,0,1-2.36,4.31c-9.66,5.88-19,12.27-28.93,17.67-5.69,3.1-7.9,6.72-7.28,13.16.65,6.71.12,13.53.17,20.3,0,1.8.21,2.59.95,2.59a5.31,5.31,0,0,0,2.17-.9l1.35-.83Q245.52,200.76,341,141.58c2.33-1.45,3.21-2.29,4-2.29s1.61,1,4,3.24q41.87,39,83.68,78.16c.64.59,1.24,1.66,2.15,1.66a1.5,1.5,0,0,0,.69-.19c1-.55.69-1.9.7-2.93,0-10-.07-20.1,0-30.14a6,6,0,0,0-2.13-4.92Q396.24,149,358.49,113.62c-4.08-3.81-7.61-5.67-11.4-5.67Z"/><path class="cls-2" d="M327.17,161.17l.09.05.15.1a8.37,8.37,0,0,1,.17,2.28v35.08c-.56-.34-1.13-.68-1.75-1a9.17,9.17,0,0,0-4.2-1.36,4.8,4.8,0,0,0-4.63,3.56,12.66,12.66,0,0,0-.35,3.39c0,2.59,0,5.17,0,7.76,0,3.48,0,7.09,0,10.63s-.9,4.3-4.45,4.33c-2.74,0-5.42,0-8,0s-4.87,0-7.19,0c-3.15,0-4.22-1.12-4.23-4.3s0-6.27,0-9.41,0-6.2,0-9.31a12.47,12.47,0,0,0-.3-3.14,4.68,4.68,0,0,0-4.56-3.6h0a8.71,8.71,0,0,0-4.32,1.53c-1.13.64-2.24,1.29-3.36,1.94-1.41.82-2.87,1.67-4.3,2.47A11.68,11.68,0,0,0,269.72,213l0,7c0,6.46,0,13.13.1,19.7a11.16,11.16,0,0,0,5.82,9.94l4.36,2.49,5,2.82v81.78l-9,5.21a12,12,0,0,0-6.22,11.1c0,2.21,0,4.47,0,6.66,0,2.45,0,5,0,7.46-2.87,0-5.46-.06-7.87-.06-2.68,0-5.16,0-7.56.08.05-14.11.05-28.41,0-42.26v-19q0-13.32,0-26.64c0-23.09,0-47,0-70.44,0-2.14.42-2.92,2.18-4,19.09-11.7,38.43-23.71,57.13-35.33l11.58-7.19.19-.12a9.93,9.93,0,0,1,1.73-.94m.2,92.13v84.92l-2.84-1.62V255l2.36-1.37.48-.28m-.17-96.14c-1.45,0-2.73.85-4.06,1.67-22.87,14.2-45.73,28.44-68.69,42.51-3,1.85-4.1,4-4.09,7.42.08,32.36,0,64.72,0,97.07,0,20.84,0,41.67,0,62.5,0,2.1.47,2.81,2.51,2.81h.26c2.93-.08,5.86-.11,8.8-.11q4.8,0,9.59.09h.14c1.72,0,2.2-.6,2.16-2.33-.1-5.28,0-10.57-.05-15.86a8,8,0,0,1,4.21-7.6q11.54-6.61,23-13.3a7.49,7.49,0,0,1,3.76-1.08,7.7,7.7,0,0,1,3.77,1.06c2.3,1.28,4.56,2.64,6.85,3.95l16,9.14V246.35c-7.63,4.44-14.84,8.6-22,12.82a9,9,0,0,1-4.56,1.41,7.5,7.5,0,0,1-3.79-1.09c-7.75-4.51-15.55-9-23.34-13.4a7.1,7.1,0,0,1-3.81-6.49c-.08-8.88-.09-17.76-.12-26.64a7.75,7.75,0,0,1,4.18-7.29c2.58-1.44,5.12-3,7.68-4.42a6.2,6.2,0,0,1,2.35-1c.72,0,.85.83.86,2.76,0,6.24,0,12.48,0,18.72,0,5.37,2.84,8.22,8.19,8.28q3.62,0,7.23,0c2.67,0,5.33,0,8,0,5.74-.05,8.36-2.64,8.41-8.3,0-6.14,0-12.27,0-18.4,0-2.1.17-3,1-3a6.37,6.37,0,0,1,2.35.9c2.45,1.28,4.6,3.15,7.6,3.92V163.61c0-2.26,0-4.49-2.3-5.84a4.1,4.1,0,0,0-2.08-.61Zm-22.44,105.2a10.78,10.78,0,0,0,6-2.07c3-2,6.3-3.7,9.78-5.71v82.6c-4-2.28-7.5-4.18-10.89-6.29a9.29,9.29,0,0,0-4.93-1.58,9,9,0,0,0-4.84,1.55c-3.44,2.17-7,4.09-10.9,6.3V254.58c3.58,2,7,3.69,10.06,5.8a10.12,10.12,0,0,0,5.73,2Z"/><path class="cls-2" d="M343.79,150.82a9.5,9.5,0,0,1,1.87,1.48q11.49,10.78,23,21.55l6.47,6.05a11.16,11.16,0,0,0-1.59,4.92c-.35,3-.81,6-1.25,9-.21,1.47-.43,2.94-.64,4.41-.55,3.89.92,5.92,2.71,7,0,.12,0,.26,0,.39V210c0,16.52.08,33.61-.05,50.4,0,.42,0,.88,0,1.34l-9.85,0c-8.16,0-8.14,6.7-8.13,9.2,0,3.17.58,6.71,4.2,8.15,0,.42,0,.77,0,1,.05,4.85.06,9.8.07,14.59,0,6.23,0,12.66.12,19-3.2-.08-6.57-.11-10.29-.11-3.16,0-6.53,0-10.77.08.06-47.5.09-103.35,0-158.78,0-1.69.42-2.15,3.49-3.8l.45-.25.18-.08m51.12,47.6,1.13,1.05c5.24,4.91,10.66,10,16,14.93a2.32,2.32,0,0,1,.9,2c0,37.23,0,68.18,0,97.24-1.2-.05-2.39-.07-3.56-.07s-2.39,0-3.57.07c0-4.39,0-8.82,0-13.12,0-6.42,0-13.07.1-19.58a12.46,12.46,0,0,0-.09-1.87c3.69-1.49,4.24-5.19,4.23-8.51,0-2.18,0-8.84-8.15-8.85l-10.29,0a30.16,30.16,0,0,0,.21-4q0-25.86,0-51.71c0-.26,0-.52,0-.77,1.48-.58,3.73-2.18,3.08-6.51l0-.15,0-.22M343.8,146.8a4.36,4.36,0,0,0-2.1.59c-3,1.64-6,3-6,7.56q.18,80.1,0,160.21c0,2.1.64,2.59,2.53,2.59h.17q6-.09,12.07-.1c3.59,0,7.18,0,10.76.12h.39c2.41,0,3.21-.66,3.16-3.42-.22-11.42-.09-22.84-.21-34.26,0-2,.52-2.65,2.54-2.65h.08q6.48,0,13,.05,9.06,0,18.11-.14h.3c2.54,0,3.46.62,3.41,3.55-.2,11.31,0,22.63-.12,33.94,0,2,.29,2.92,2.25,2.92h.46c1.61-.1,3.24-.15,4.86-.15s3.32.05,5,.14l.42,0c1.78,0,2.18-.78,2.18-2.67q-.11-49.32,0-98.66a6.27,6.27,0,0,0-2.19-5c-7.23-6.65-14.39-13.39-21.57-20.1l-3.9-3.65c.64,4.42,1.16,8,1.67,11.51.14.94.4,2.19-.78,2.43-2.75.56-2.3,2.56-2.3,4.43q0,25.86,0,51.71c0,6,0,5.88-6.07,6.11h-.48c-2.39,0-3-.8-3-3.46.14-18.29.08-36.58,0-54.88,0-1.25.65-3-1.21-3.52s-1.73-1.86-1.53-3.27c.64-4.49,1.37-9,1.9-13.48.29-2.52.83-4.53,4-4.53h.34l-1.57-1.49q-16-14.94-31.95-29.89c-1.4-1.32-2.83-2.59-4.59-2.59Zm28.49,129c-2.58,0-5.17,0-7.75,0-3.35,0-4.14-1-4.15-4.82,0-4.06.81-5.17,4.15-5.19q12.21,0,24.43,0l13,0c3.25,0,4.15,1.14,4.16,4.87,0,4.1-.76,5.14-4.15,5.17l-7.71,0-11,0h-11Z"/><path class="cls-2" d="M241.53,214.27a4.38,4.38,0,0,0,.35,1.16v33.41h-.28a15.65,15.65,0,0,0-7.44,1.7l-.7-2.94-4,3.84a11.28,11.28,0,0,0-3.84-3.79l2.56-5.9-9.83,4.9-.27.14-2.74,1.36-2.58-3.75-1.36,5.7-2.5,1.23-.08-.05a13.46,13.46,0,0,0-7.79-2.47,17.12,17.12,0,0,0-4.26.57L191,250.89l3.61,4.78c.73,1,.74,1.45-.78,4.45-.22.44-.45.89-.66,1.33-.68,1.45-1.46,2.87-2.29,4.37a52.44,52.44,0,0,0-4,8.53c-1.37,4-3.06,10.16-1.84,16.93a17.86,17.86,0,0,1-.06,4.66c-.08.93-.17,1.89-.2,2.9-.3,9.36-.26,18.86-.22,28,0,4,0,8,0,12.06,0,4.81,3,7.77,8.11,7.92a42.82,42.82,0,0,1,13.94,2.27c7,2.64,9.08,6,8.17,13.3L214.2,367c-1.94,15.55-3.95,31.64-5.25,47.57a44,44,0,0,0-.19,5.13q-10.09,0-20.21,0c-7.17,0-13.65,0-19.74,0q0-9.36,0-18.71V374.62c0-37,0-75.29-.07-112.94,0-2,.38-2.71,2.06-3.74,16.92-10.4,34.07-21.06,50.65-31.37l18.31-11.38a10.94,10.94,0,0,1,1.75-.92m.33-4.11a8.55,8.55,0,0,0-4.19,1.63c-23,14.26-45.91,28.58-68.94,42.74a7.36,7.36,0,0,0-4,7.16q.13,69.66.07,139.32,0,10.15,0,20.31c0,1.28-.23,2.41,1.8,2.41h0q11-.06,21.91-.05l22.83,0h0c1.42,0,1.85-.47,1.6-1.85a26.94,26.94,0,0,1-.06-6.95c1.42-17.39,3.65-34.68,5.8-52,1.14-9.19-2-14.24-10.73-17.54a46.22,46.22,0,0,0-15.23-2.53c-2.56-.08-4.24-1-4.23-3.91,0-13.33-.24-26.67.19-40,.08-2.78.7-5.57.2-8.4-.93-5.15,0-10.08,1.69-14.93,1.51-4.43,4.18-8.28,6.17-12.48,1.49-3.15,3.76-6.26,1-9.91a13.11,13.11,0,0,1,3.24-.44,9.36,9.36,0,0,1,5.52,1.76c2.5,1.73,3.83,4.28,4.91,7.21a23.94,23.94,0,0,0,3.11-7.71c2.64,3.84,1.55,7.76,1.75,11.57,1.75-5,6.27-9.21,3.82-15.18h-.09l0-.07-.21,0,.29-.14c0,.06,0,.12-.08.17h0l0,.05a5.46,5.46,0,0,1,.79-.06c2.56,0,4.32,1.65,5.48,3.7.79,1.41,1.47,2.54,2.51,2.54a3.61,3.61,0,0,0,2.26-1.28c.3,1.25-.77,2.45.62,3.11,2.26-4.17,5.7-5.63,9.77-5.63a20.79,20.79,0,0,1,2.57.17l1.71-.08q0-19.35,0-38.69a1.14,1.14,0,0,1-.37-1.27c-1.12-1.89-2.2-2.81-3.65-2.81Z"/><path class="cls-2" d="M236.21,266.39a22.13,22.13,0,0,0,5.33,7.5,1.23,1.23,0,0,1,.51,1.2c-.08,6.27-.09,12.05,0,17.61l-17,0c-9.42,0-19.23,0-29.18.07-1.39-7.33,1.1-13.79,7.79-20.26l.47-.46,0,1.49,2.54,1a5.36,5.36,0,0,0,1.78.38,15.31,15.31,0,0,0,6.29,5.9,6.62,6.62,0,0,0,3.05.88,4.44,4.44,0,0,0,3.37-1.49,5.14,5.14,0,0,0,1.15-4.18c-.35-3,1.12-5.55,2.82-8.56l.42-.75A19.11,19.11,0,0,1,227.8,270l4.31,7.51,2.92-8.15c.4-1.13.79-2.12,1.18-3M196,293.75h0m43.07-36.08c-4.57,2.14-6.25,5.91-7.85,10.37a16.77,16.77,0,0,0-5.75-6.45,2.52,2.52,0,0,0-1.15-.5c-.32,0-.61.19-.87.76-2.17,4.72-5.91,8.86-5.24,14.63.11.92-.14,1.21-.54,1.21a3.22,3.22,0,0,1-1.25-.45,12.44,12.44,0,0,1-6.07-7.45c-.85.13-1.12,1.12-1.88,1.12a1.23,1.23,0,0,1-.43-.09c0-3.66,1-7.59-3.19-10.42.38,4.15-1.49,6.71-4.07,9.2-7,6.74-11,14.63-8.76,24.74.39,1.77,1.09,2.4,2.91,2.4h0q15-.06,30-.07,9.28,0,18.56,0h0c1.93,0,2.51-.6,2.48-2.52-.11-6.35-.1-12.69,0-19a5.09,5.09,0,0,0-1.74-4.13c-3.61-3.47-6.05-7.54-5.2-13.34Z"/><path class="cls-2" d="M213,144h0c6.11,0,12.2,0,18.08,0,3.54,0,5.81,2.27,5.94,5.89.05,1.51,0,3,0,4.21-.08,3.8-2.27,6-6,6-2.16,0-4.48,0-7.29,0H201c-2.43,0-4.87,0-7.3,0-3.86,0-5.83-1.91-6-5.73a45.4,45.4,0,0,1,0-4.95,5.44,5.44,0,0,1,5.75-5.46c6.65,0,13.25,0,19.6,0m0-4q-9.81,0-19.62,0a9.44,9.44,0,0,0-9.72,9.22,50.82,50.82,0,0,0,0,5.38c.29,5.94,4,9.49,10,9.54,2.44,0,4.89,0,7.33,0l11.14,0h.23l11.37,0c2.44,0,4.89,0,7.33,0,5.94-.06,9.84-4,10-10,0-1.48.05-3,0-4.44-.2-5.7-4.2-9.73-9.92-9.75q-9,0-18.1,0Z"/><path class="cls-2" d="M242,350.53q0,13,0,25.94v7.81l0,3.35q0,3.5,0,7t0,6.8c-.1-.78-.2-1.55-.29-2.32-.25-2-.51-4-.74-6-.66-5.86-1.44-11.79-2.18-17.53-.65-5-1.32-10.1-1.91-15.15-.5-4.23,1.23-7.54,5.13-9.88m3.24-5.64a2.83,2.83,0,0,0-1,.21c-6.62,2.36-12.37,7.26-11.37,15.78,1.28,10.9,2.85,21.76,4.09,32.66,1,9,2.55,18,2.34,27.1,0,1.26-.78,3.11,1.2,3.11a5,5,0,0,0,.72-.06,3.12,3.12,0,0,1,.54,0c.71,0,1.49.16,2.2.16,1.2,0,2.18-.48,2.12-3.08-.23-12.15-.08-24.3-.08-36.45h0q0-18.52,0-37.07c0-.91.4-2.32-.76-2.32Z"/><path class="cls-2" d="M242.05,328.33c0,.57,0,1.13-.05,1.59-.75,0-1.77,0-2.71,0H217c-8.63,0-15.32,0-21.52.07,0-.54,0-1.08.05-1.53.67,0,1.5,0,2.23,0h25.08v-.09h9.39c3.77,0,6.92,0,9.79-.06m1.4-4h-.17c-3.67.06-7.35.08-11,.08l-13.39,0v.1H197.79c-6.26,0-6.15.06-6.31,6.39-.06,2.42.55,3.18,3,3.18h.11c7.48-.06,15-.07,22.44-.07h22.26c6.79,0,6.7,0,6.77-6.79,0-2.11-.47-2.85-2.61-2.85Z"/><path class="cls-2" d="M383.28,282.35v4a8.94,8.94,0,0,1,1.19.07,9,9,0,0,1,.1,1.3c0,3.1,0,6.26,0,9.32,0,1.43,0,2.85,0,4.28s0,2.72,0,4.09c0,2.75,0,5.57,0,8.4l-1.64,0-.92,0c-.08-1-.08-2.62-.08-4.21v-5.08c0-5.51,0-11.2,0-16.79a6.45,6.45,0,0,1,.1-1.3,5.89,5.89,0,0,1,1.21-.09l0-4m0,0h0c-3.92,0-5.29,1.35-5.3,5.38,0,7.3,0,14.59,0,21.89,0,7.09,0,8.22,5,8.22,1,0,2.14,0,3.54-.09,1.63-.06,2.17-.46,2.13-2.16-.11-4.75,0-9.51,0-14.27,0-4.55,0-9.09,0-13.64,0-4-1.36-5.33-5.29-5.33Z"/><path class="cls-2" d="M394.79,287q0,5,0,10c0,5.53,0,11.23.05,16.88h-.07c0-.53,0-1.14,0-1.71V296.66c0-3.15,0-6.4,0-9.58V287m-.28-4.56c-2.2,0-3.7,1.88-3.72,4.65-.05,4.65,0,9.3,0,13.95v11.09c0,5.05,0,5.71,3.74,5.71l2.13,0c1.58,0,2.24-.36,2.22-2.1-.08-9.62,0-19.23-.07-28.85,0-2.63-1.37-4.22-4-4.41Z"/><path class="cls-2" d="M371.7,286.85V287c0,3.33,0,6.71,0,10,0,1.34,0,2.67,0,4v2.82c0-5.45,0-11.1,0-16.63a2.92,2.92,0,0,1,0-.33m-.18-4.43c-2.19,0-3.82,1.81-3.84,4.73-.05,8.34,0,16.69,0,25,0,5.66,0,5.55,5.65,5.59h.06c2,0,2.37-.67,2.32-2.52-.13-4.75,0-9.51,0-14.26h0c0-4.65,0-9.29,0-13.94,0-2-.54-3.54-2.5-4.3a4.77,4.77,0,0,0-1.68-.33Z"/><path class="cls-2" d="M303.44,365.54c3.31,0,6.58,0,10.2.09a2.81,2.81,0,0,1,2.54,1.43c-1.43,0-3,0-4.93,0h-6.79c-1.28,0-2.55,0-3.83,0l-3.89,0c-1.24,0-2.35,0-3.38,0a3,3,0,0,1,2.69-1.45c2.27-.05,4.69-.08,7.39-.08m0-4c-2.49,0-5,0-7.48.09-4,.09-6.66,2.83-7.16,6.72-.23,1.81.09,2.8,2.13,2.8h.3c1.83-.08,3.67-.1,5.51-.1,2.57,0,5.14,0,7.72,0h6.79c1.77,0,3.54,0,5.32,0h.06c.73,0,1.62.22,2.38.22a1.36,1.36,0,0,0,1.39-.69,5.87,5.87,0,0,0-.7-5.44,6.85,6.85,0,0,0-6-3.52c-3.41-.05-6.83-.09-10.25-.09Z"/><path class="cls-2" d="M244.51,300.09l-.87,0q-24.87,0-49.73.06h0l-1,0c-.77,0-1.44.2-1.45,1.58s.55,1.51,1.21,1.51c.39,0,.82-.08,1.19-.08h0q6.89,0,13.77,0h23.19l12.76,0h0c.35,0,.73.05,1.09.05.72,0,1.35-.22,1.34-1.54s-.74-1.59-1.56-1.59Z"/><path class="cls-2" d="M329.69,239.07a2.66,2.66,0,0,0-1.29.43q-12,7-24,14c-1.11.65-1.55,1.51-.93,2.61a1.68,1.68,0,0,0,1.48,1,3,3,0,0,0,1.47-.49c7.79-4.63,15.61-9.2,23.42-13.79.71-.42,1.57-.75,1.39-2.19-.27-.83-.67-1.6-1.53-1.6Z"/><path class="cls-2" d="M245.87,252.93l-1.71.08c1.05.54,1.85.77.64,2.33a7.35,7.35,0,0,0,1.07,10.06V252.93Z"/><path class="cls-2" d="M245.51,213a1.14,1.14,0,0,0,.37,1.27c.22-.52-.06-.9-.37-1.27Z"/><path class="cls-2" d="M220.17,250.23l-.29.14.21,0c0-.05,0-.11.08-.17Zm-.08.17,0,.07.07-.06Zm0,.07Z"/><path class="cls-2" d="M311.55,269.54c.69,0,1.11,0,1.11,1.78,0,5.71,0,11.52,0,17.14,0,2.41,0,4.83,0,7.24v6.77q0,8.65,0,17.31c0,1.39-.37,2.11-1.08,2.13h-.07c-1,0-1.16-1.11-1.16-2,0-17,0-32.88,0-48.46,0-1.86.47-1.86,1.16-1.87h0m0-4h-.07c-3.23,0-5.11,2.11-5.12,5.86q0,24.24,0,48.48c0,3.66,2.11,6,5.16,6h.22c3-.11,4.92-2.48,4.93-6.13q0-12,0-24.08c0-8.13,0-16.26,0-24.39,0-3.71-1.89-5.77-5.11-5.77Z"/><path class="cls-2" d="M402.06,270.15H378.79c-1,0-1.94.15-2,1.73s1,1.86,2,1.86h12v-.12h10.77l.93,0c.94,0,1.77-.19,1.8-1.67,0-1.74-1.07-1.82-2.26-1.82Z"/></svg>