<svg id="Layer_1" data-name="Layer 1" xmlns="http://www.w3.org/2000/svg" viewBox="0 0 627.76 627.76"><defs><style>.cls-1{fill:#231f20;}.cls-2{fill:#be1e2d;}</style></defs><path class="cls-1" d="M313.88,25A289,289,0,0,1,426.32,580.07,289,289,0,0,1,201.44,47.69,287,287,0,0,1,313.88,25m0-25C140.53,0,0,140.53,0,313.88S140.53,627.76,313.88,627.76,627.76,487.23,627.76,313.88,487.23,0,313.88,0Z"/><path class="cls-2" d="M257.68,182c11.73,0,23.46-.19,35.18.08a19.92,19.92,0,0,0,11.5-3.34q64.69-40.28,129.48-80.38c12.69-7.86,21-7,32,3.25q56.62,52.86,113.27,105.7a9,9,0,0,1,3.2,7.37c-.11,15,0,30.11,0,45.16,0,1.54.52,3.57-1,4.39-2,1.05-3.08-1.11-4.25-2.21Q514.26,203.52,451.6,145c-7-6.49-4.73-5.95-12-1.43q-143.05,88.65-286,177.36c-.68.42-1.35.84-2,1.24-3.86,2.23-4.63,1.88-4.67-2.53-.08-10.15.72-20.36-.25-30.41-.94-9.66,2.37-15.08,10.89-19.73,14.85-8.09,28.88-17.66,43.35-26.47a6.47,6.47,0,0,0,3.54-6.45c-.19-12.83-.1-25.67-.07-38.51,0-10.15,5.77-16,15.82-16C232.64,182,245.16,182,257.68,182Z"/><path class="cls-2" d="M425.19,300.5v148c-8.3-4.73-16.17-9.2-24-13.7-3.43-2-6.82-4-10.28-5.92a10.72,10.72,0,0,0-11.27,0q-17.25,10-34.51,19.93c-4.44,2.54-6.34,6.35-6.3,11.38.07,7.92-.08,15.84.07,23.76.05,2.65-.69,3.54-3.44,3.49-9.19-.16-18.38-.22-27.57,0-3.37.09-4.15-.93-4.13-4.2.12-31.21,0-62.43.07-93.64,0-48.48.13-97,0-145.44,0-5.18,1.6-8.34,6.13-11.12,34.4-21.07,68.64-42.41,102.92-63.69,2.88-1.79,5.65-3.65,9.19-1.59s3.45,5.37,3.45,8.75v62.22c-4.49-1.14-7.72-3.95-11.39-5.86-4.36-2.28-5-2-5,3.09,0,9.19,0,18.38,0,27.57-.06,8.49-4,12.37-12.59,12.45q-11.42.09-22.82,0c-8-.08-12.24-4.35-12.28-12.4-.05-9.35,0-18.69,0-28,0-4.82-.53-5.07-4.8-2.64-3.85,2.19-7.65,4.47-11.52,6.64a11.57,11.57,0,0,0-6.26,10.91c.05,13.3.06,26.61.17,39.92a10.69,10.69,0,0,0,5.71,9.73c11.67,6.67,23.36,13.31,35,20.06,4.36,2.54,8.38,1.95,12.51-.48C402.94,313.39,413.75,307.15,425.19,300.5ZM408.94,436.58V312.83c-5.21,3-10.1,5.54-14.64,8.56-6,4-11.51,4.26-17.57.13-4.63-3.16-9.71-5.63-15.08-8.69V436.56c5.79-3.32,11.19-6.19,16.34-9.43s9.67-3.06,14.64,0S403,433.17,408.94,436.58Z"/><path class="cls-2" d="M500.91,202.25c-5.26-.22-6.11,2.86-6.57,6.76-.79,6.76-1.89,13.48-2.84,20.21-.3,2.11-.49,4.06,2.3,4.9s1.8,3.39,1.81,5.27c.06,27.41.14,54.82-.07,82.23,0,4.24,1.06,5.31,5.23,5.16,9.08-.34,9.1-.1,9.1-9.16V240.15c0-2.8-.66-5.79,3.46-6.64,1.76-.36,1.37-2.23,1.17-3.64-.76-5.31-1.54-10.61-2.51-17.24l5.84,5.46c10.76,10.06,21.49,20.15,32.33,30.13a9.39,9.39,0,0,1,3.28,7.47q-.09,73.92,0,147.82c0,3-.69,4.15-3.89,4a122.69,122.69,0,0,0-14.73,0c-3.55.23-4.09-1.2-4.06-4.35.15-17-.12-33.91.19-50.86.08-4.56-1.42-5.39-5.56-5.32-15.52.26-31,.25-46.57.13-3.13,0-4,.88-3.93,4,.19,17.11,0,34.22.31,51.33.09,4.35-1.25,5.21-5.3,5.11-11.4-.29-22.82-.2-34.22,0-3,0-4-.64-4-3.88q.13-120,0-240c0-6.79,4.5-8.88,9-11.34,4.18-2.27,7.15.3,10,3q23.91,22.42,47.87,44.8Zm2,142.38c9.35,0,18.69.06,28,0,5.08-.05,6.24-1.6,6.22-7.75,0-5.59-1.36-7.29-6.23-7.3q-28-.06-56.08.06c-5,0-6.22,1.69-6.21,7.77,0,5.74,1.2,7.19,6.22,7.22C484.23,344.67,493.58,344.63,502.92,344.63Z"/><path class="cls-2" d="M294.52,310.48c-7.78-1-14.42.66-18.48,8.17-2.09-1-.49-2.77-.94-4.65-3.83,3.72-5.28,1.43-7.15-1.88s-5-6.09-9.53-5.45c.05-.12.1-.23.16-.35l-.43.21.38.06c3.73,9-3.07,15.33-5.69,22.81-.3-5.7,1.33-11.58-2.63-17.33a35.67,35.67,0,0,1-4.65,11.55c-1.62-4.39-3.62-8.21-7.36-10.81-3.91-2.72-8.13-3.27-13.13-2,4.13,5.45.73,10.11-1.51,14.84-3,6.28-7,12.06-9.24,18.69-2.48,7.27-3.92,14.66-2.54,22.38.76,4.23-.17,8.41-.3,12.57-.64,19.95-.23,39.93-.28,59.9,0,4.42,2.51,5.75,6.34,5.86,7.78.23,15.45,1,22.83,3.79,13.15,5,17.77,12.52,16.06,26.28-3.22,25.93-6.56,51.84-8.69,77.88a40.37,40.37,0,0,0,.1,10.42c.37,2.08-.28,2.78-2.43,2.78-22.34-.06-44.69-.1-67,0-3.09,0-2.74-1.69-2.74-3.62q0-15.21,0-30.43,0-104.37-.1-208.73c0-5.06,1.6-8.06,5.94-10.73,34.51-21.21,68.88-42.67,103.29-64,6-3.71,8.77-3.26,11.76,1.76a1.72,1.72,0,0,0,.54,1.91v58Z"/><path class="cls-2" d="M275.2,333c2.39-6.68,4.92-12.33,11.76-15.54-1.28,8.69,2.38,14.78,7.79,20a7.69,7.69,0,0,1,2.61,6.19q-.21,14.25,0,28.52c.05,2.89-.83,3.79-3.76,3.78q-36.36-.12-72.72.06c-2.77,0-3.83-.93-4.42-3.6-3.38-15.14,2.68-27,13.13-37.06,3.85-3.73,6.66-7.57,6.1-13.8,6.27,4.26,4.84,10.14,4.78,15.62,1.66.67,2-1.32,3.46-1.54,1.64,4.72,4.37,8.79,9.09,11.16,1.34.68,3,1.5,2.68-1.14-1-8.64,4.61-14.84,7.86-21.92.83-1.8,1.87-1.09,3-.39C270.19,325.52,272.74,328.72,275.2,333Z"/><path class="cls-2" d="M246.87,177.41c-9.34,0-18.68.06-28,0-9-.07-14.52-5.39-14.95-14.29a72.42,72.42,0,0,1,0-8.07c.5-8.11,6.38-13.77,14.57-13.81q28.26-.12,56.51,0c8.57,0,14.56,6.06,14.86,14.61.07,2.21.05,4.43,0,6.65-.2,8.93-6,14.83-14.94,14.91C265.55,177.48,256.21,177.41,246.87,177.41Z"/><path class="cls-2" d="M297.33,507.16c0,18.2-.24,36.41.12,54.6.13,6.76-4.33,4-7.29,4.43-4.3.69-2.93-2.47-2.88-4.56.32-13.67-2-27.11-3.51-40.6-1.85-16.34-4.2-32.61-6.12-48.93-1.5-12.77,7.11-20.1,17-23.65,3.48-1.24,2.59,1.52,2.59,3.16q.06,27.78,0,55.55Z"/><path class="cls-2" d="M256.63,417.39c12.19,0,24.39.13,36.57-.09,3.43-.06,4.2,1,4.17,4.27-.11,10.18,0,10.18-10.15,10.18-22.32,0-44.65-.09-67,.1-3.81,0-4.74-1.09-4.65-4.77.24-9.56.06-9.56,9.68-9.56h31.35Z"/><path class="cls-2" d="M510.9,382.86c0,7.13-.11,14.26.06,21.39.06,2.54-.75,3.13-3.2,3.22C495,407.93,495,408,495,395.29c0-10.93-.05-21.86,0-32.79,0-6,2.06-8.05,7.93-8.06s7.93,1.9,8,8C511,369.23,510.9,376.05,510.9,382.86Z"/><path class="cls-2" d="M514.18,382.36c0-7,0-13.93,0-20.9,0-4.32,2.48-7.21,6-6.95,3.92.29,5.95,2.68,6,6.61,0,14.41,0,28.82.1,43.23,0,2.6-1,3.08-3.33,3.14-8.79.2-8.79.29-8.79-8.51Z"/><path class="cls-2" d="M491.6,382.37c0,7.12-.14,14.24.06,21.36.08,2.8-.51,3.79-3.57,3.77-8.46-.06-8.45.11-8.46-8.37,0-12.5-.12-25,0-37.5,0-5.43,3.81-8.31,8.26-6.59,2.94,1.14,3.78,3.48,3.75,6.44-.07,7,0,13.92,0,20.89Z"/><path class="cls-2" d="M385,487.39c-6.64,0-13.29-.2-19.93.08-3.46.15-4-1.34-3.63-4.18.75-5.83,4.78-9.94,10.71-10.08,8.86-.21,17.72-.11,26.58,0a10.28,10.28,0,0,1,9,5.27c1.55,2.55,2.24,5.65,1.05,8.15-.86,1.82-3.77.66-5.75.7C397,487.46,391,487.39,385,487.39Z"/><path class="cls-2" d="M255.77,385.65c-12.18,0-24.36,0-36.54,0-1.49,0-3.64.93-3.62-2.14s2-2.31,3.62-2.31q37.26-.09,74.51-.1c1.65,0,3.61-.5,3.64,2.34s-2.1,2.22-3.65,2.23C281.08,385.68,268.42,385.65,255.77,385.65Z"/><path class="cls-2" d="M425,292c.28,2.16-1,2.64-2.09,3.27-11.69,6.88-23.42,13.73-35.09,20.66-1.83,1.09-3.35,1.09-4.41-.75-.94-1.64-.27-2.93,1.39-3.9q18-10.48,36-21C423.42,288.66,424.4,290.25,425,292Z"/><path class="cls-2" d="M294.52,310.48l2.57-.12V329A11,11,0,0,1,295.48,314C297.29,311.63,296.09,311.29,294.52,310.48Z"/><path class="cls-1" d="M297.09,252.4a1.72,1.72,0,0,1-.54-1.91C297,251.05,297.43,251.62,297.09,252.4Z"/><path class="cls-1" d="M258.53,306.59l-.38-.06.43-.21c-.06.12-.11.23-.16.35Z"/><path class="cls-2" d="M403.16,374.45q0,18,0,36.07c0,5.47-2.9,9-7.38,9.18-4.76.18-8.06-3.42-8.07-9q0-36.32,0-72.63c0-5.63,2.83-8.74,7.67-8.79s7.74,3.06,7.76,8.65C403.2,350.08,403.16,362.26,403.16,374.45Z"/><path class="cls-2" d="M514.26,341.53c-5.53,0-11.06,0-16.59,0-2,0-4.39.47-4.36-2.78,0-2.94,2.2-2.57,4.06-2.57,11.06,0,22.13,0,33.19,0,2,0,4-.14,3.92,2.73s-2.25,2.46-4.1,2.47H514.26Z"/></svg>