<svg id="Layer_1" data-name="Layer 1" xmlns="http://www.w3.org/2000/svg" viewBox="0 0 500 500"><defs><style>.cls-1{fill:#fff;}.cls-2{fill:#231f20;}</style></defs><circle class="cls-1" cx="250" cy="250" r="200"/><path class="cls-2" d="M188.5,307.6a12.73,12.73,0,0,1,5.46,1.28l15.88,7.38c11.7,5.44,23.8,11.06,35.67,16.64,7.5,3.52,10.65,11.05,7.49,17.9a12.39,12.39,0,0,1-11.65,7.44,16.77,16.77,0,0,1-7.1-1.66c-8.2-3.83-16.21-7.6-24.69-11.59l-10.88-5.12-5.2-2.44-1.7,5.49c-1.9,6.12.15,10.71,5.92,13.29,7,3.11,14,6.52,20.79,9.82q4.35,2.12,8.72,4.21a33.7,33.7,0,0,0,14.58,3.55c11.33,0,20.78-6.81,25.94-18.7.09-.2.15-.34,1-.83l21.39-12.47c14.52-8.47,29.53-17.23,44.33-25.79,5.2-3,10-4.48,14.81-4.48a10.18,10.18,0,0,1,8.85,4.85,10.4,10.4,0,0,1,.4,10.29,27.52,27.52,0,0,1-8.29,9.51l-5.77,4.48c-28,21.73-56.95,44.2-86.48,64.79a16.83,16.83,0,0,1-9.89,3.48,20.24,20.24,0,0,1-7.62-1.67C227.34,402,214,396.78,201,391.77c-7.88-3.06-16-6.21-24-9.36a30.32,30.32,0,0,0-11.27-2.11h-.31l-8.07,0h-5.23c-3.73,0-7.74,0-11.71.08h0v-.12c.12-19.94.12-41.07,0-64.57,0-.16,0-.29,0-.4l.44-.09c14.95-2.32,29.48-4.74,45.56-7.44a12.7,12.7,0,0,1,2.11-.18m0-5a17.51,17.51,0,0,0-2.94.25c-15.15,2.54-30.31,5.07-45.5,7.43-3.4.53-4.7,2-4.68,5.45q.15,32.25,0,64.52c0,3.75,1.35,5.15,4.88,5.15h.24c3.87-.07,7.74-.08,11.62-.08h5.23q4.07,0,8.11,0h.27a25.18,25.18,0,0,1,9.44,1.77c21.12,8.31,42.37,16.31,63.41,24.82a25.35,25.35,0,0,0,9.49,2,21.83,21.83,0,0,0,12.75-4.38c31.63-22.06,62-45.79,92.45-69.41A33,33,0,0,0,363,328.88a15.35,15.35,0,0,0-13.73-22.36h0c-6.26,0-12,2.07-17.3,5.15Q299,330.72,266.2,349.94a6.62,6.62,0,0,0-3.06,3.16c-4.45,10.24-12.18,15.69-21.35,15.69a28.89,28.89,0,0,1-12.43-3.06c-9.86-4.72-19.64-9.63-29.62-14.09-3.38-1.51-4.38-3.38-3.18-7.24,12.06,5.67,23.8,11.21,35.57,16.71a21.86,21.86,0,0,0,9.22,2.13,17.47,17.47,0,0,0,16.19-10.35c4.31-9.35.16-19.79-9.9-24.52-17.17-8.06-34.38-16-51.57-24a17.73,17.73,0,0,0-7.57-1.75Z"/><path class="cls-2" d="M250,115.48c.14,0,1,.09,3.19,2q29.78,24.86,59.51,49.74l29.83,24.94q11.64,9.75,23.31,19.45c1.59,1.32,1.48,2.2,1.17,3.2s-.64,1.35-2,1.55l-.29,0c-.4,0-1.11-.14-2.57-1.37Q334,191.36,305.71,167.77q-6.51-5.45-13-10.86c-12.16-10.14-24.73-20.63-37-31a8.92,8.92,0,0,0-5.68-2.37,9.1,9.1,0,0,0-5.88,2.54c-23.41,19.61-47.24,39.52-70.28,58.78l-35.31,29.51-.33.28a6.82,6.82,0,0,1-2.52,1.67h-.4c-1.48,0-1.81-.5-2.12-1.21-.63-1.45-.46-2.23.69-3.21,5.56-4.72,11.26-9.49,16.77-14.1l2.94-2.45,2.8-2.34c6.6-5.53,13.43-11.24,20.18-16.8a10.4,10.4,0,0,0,4.12-9.26c-.27-5.57-.22-11.33-.17-16.9,0-2.05,0-4.09,0-6.14a3.32,3.32,0,0,1,0-.35h8.09c1.66,0,3,0,4.28,0l.88,0c0,.27,0,.62.05,1.07,0,1.14,0,2.29,0,3.73v13.3l8.2-6.84,10.16-8.47,23.44-19.56,8.76-7.33,2.41-2c2.26-1.89,3.06-2,3.2-2m0-5c-1.95,0-3.9,1.06-6.41,3.15L232.44,123l-33.6,28c0-2.85,0-4.64,0-6.42-.07-4.71-1.25-6-5.86-6l-4.35,0-6.7,0h-1c-3.57,0-5.36,1.79-5.37,5.35,0,7.77-.23,15.55.15,23.3a5.46,5.46,0,0,1-2.31,5.15q-11.55,9.53-23,19.16-9.89,8.26-19.74,16.58a7.21,7.21,0,0,0-2,9,6.77,6.77,0,0,0,6.7,4.22l.73,0c2.36-.16,4-1.67,5.73-3.1q52.8-44.15,105.59-88.3a4.45,4.45,0,0,1,2.67-1.37,3.93,3.93,0,0,1,2.45,1.18c16.6,14.07,33.35,28,50.06,41.92q28.25,23.59,56.47,47.21a9,9,0,0,0,5.78,2.53,7.37,7.37,0,0,0,1-.08,6.9,6.9,0,0,0,6-5c1.05-3.42,0-6.24-2.74-8.5q-11.67-9.7-23.31-19.44Q301.08,151,256.41,113.61c-2.51-2.09-4.46-3.13-6.4-3.13Z"/><path class="cls-2" d="M250.09,137.43a6.63,6.63,0,0,0-4.17,1.88q-39.34,33-78.85,65.89a7.05,7.05,0,0,0-2.69,6.09c.11,11.1.05,22.2.05,33.31s0,22.48,0,33.72c0,2.66-.06,4.53,3.41,4.53h.38c3.36-.12,4.47-.85,4.44-4.4-.17-21.09-.05-42.19-.13-63.28,0-2.52.52-4.35,2.61-6.08q36.19-30,72.16-60.27a4.62,4.62,0,0,1,2.83-1.38,4.81,4.81,0,0,1,2.92,1.48q36.3,30.53,72.76,60.86a7,7,0,0,1,2.71,6c-.11,20.95,0,41.9-.12,62.86,0,2.64.28,4.15,3.06,4.15l.68,0c2.73-.2,4.56,0,4.52-3.87-.2-22.2-.12-44.4-.06-66.61a8.09,8.09,0,0,0-3.12-6.82q-39.66-33-79.16-66.17a6.68,6.68,0,0,0-4.19-1.9Z"/><path class="cls-2" d="M243.14,206.25c-.65,0-1.41.27-2,.27h0c-6.6-.06-13.2-.07-19.8-.07l-14.73,0c-8.18,0-11.94,3.79-11.95,12q0,25.8,0,51.6c0,9.23,3.6,12.87,12.76,12.88h60.32l15.71,0q5.25,0,10.49,0c6.71-.07,11.21-3.87,11.24-9.69.09-19,.05-38,0-57,0-4.38-2.42-7.23-6.29-8.94a11.6,11.6,0,0,0-4.8-.84c-1.26,0-2.53.09-3.78.09h-.46c-.31,0-.72-.08-1.1-.08-.6,0-1.12.19-1,1.16.13,1.24-.08,3,1.79,3.31a10,10,0,0,0,1.65.11c.63,0,1.25,0,1.88,0h.21c5.85.07,7.7,1.88,7.7,7.7q0,26,0,52c0,5.66-1.84,7.52-7.39,7.52l-19,0h-68c-5.93,0-7.6-1.65-7.61-7.7q-.06-25.8,0-51.6c0-6.28,1.68-7.93,7.89-7.94l17.13,0q8.49,0,17,.07h.09c2.22,0,3.34-.77,3.32-3,0-1.44-.61-1.78-1.34-1.78Z"/><path class="cls-2" d="M306.87,314.23l-38.7,22.51a29,29,0,0,0-1.06-2.91q11.4-5.64,22.83-11.24l11.83-5.83,3.9-1.94,1.2-.59m10-8.69a16.5,16.5,0,0,0-7.25,1.77c-3.36,1.62-6.69,3.32-10,5q-18.4,9.06-36.83,18.13c-1.09.54-3,.67-1.62,2.77,2.16,3.26,2.86,7.06,3.77,11.26l61.59-35.83a18.16,18.16,0,0,0-9.62-3.07Z"/><path class="cls-2" d="M270.92,185.6a2.47,2.47,0,0,0-1.34.43,6.32,6.32,0,0,1-3.43,1.09,6.81,6.81,0,0,1-3.57-1.12.22.22,0,0,0-.12,0c-1.41,0-11.38,5.85-11.24,6.67.63,3.84-3.59,4.79-4.36,7.45s2.36,5.6,0,8.63c-.62.83,5.69,11.42,6.77,11.69.14,0,.29,0,.42.05,3.58,1.1,6.69,4.12,10.56,4.12a7.8,7.8,0,0,0,3.2-.7l.1,0c.27,0,.68.36,1,.48a.42.42,0,0,0,.17,0c1.77,0,11.58-5,11.92-6.07a1.18,1.18,0,0,0,0-.42,5.84,5.84,0,0,1,3.35-5.75c.88-.48,1.75-1.5,1.27-2.38-1.68-3.08-1.74-6,.54-9.48-4.1-2-4.63-6.24-6.54-9.67-.09-.17-.51-.22-.78-.22a7.06,7.06,0,0,1-6.42-3.82,1.81,1.81,0,0,0-1.6-1Zm-4.74,33.47h-.06a14,14,0,0,1-14-13.6c-.15-7.45,6.41-14,14.05-14h0a13.8,13.8,0,1,1,0,27.6Z"/><path class="cls-2" d="M216.3,250.5c-1.94,0-3.94.11-3.93,2.63,0,2.29,2,2.54,3.94,2.54h0l35,0h32.36c1.87,0,3.82,0,3.92-2.46s-1.65-2.69-3.42-2.69H232.82q-8.08,0-16.19,0Z"/><path class="cls-2" d="M267.72,260.58H216.59c-2.08,0-4.23.3-4.25,2.79s1.86,2.56,3.65,2.56h52c1.81,0,3.75-.09,3.8-2.42.07-2.52-2-2.94-4.08-2.94Z"/><path class="cls-2" d="M277.72,229.45c.08.18.15.37.22.55-.5.12-1,.26-1.46.42a12.38,12.38,0,0,0,1.24-1m.85-7.41a2.69,2.69,0,0,0-2.15,1.28c-1.6,2.33-3.27,3.86-5.53,3.86a8.31,8.31,0,0,1-4.18-1.39c2.14,5.27,3.85,9.52,6,14.69,2.17-4.47,5.32-5.9,9.12-5.9a20.88,20.88,0,0,1,3.44.32c-1.52-3.92-2.85-7.22-4.09-10.56-.59-1.61-1.58-2.3-2.56-2.3Z"/><path class="cls-2" d="M254.44,229.31a9.44,9.44,0,0,0,1.1.95c-.44-.15-.88-.27-1.33-.38.07-.19.15-.38.23-.57m-.73-7.31c-.76,0-1.51.47-2.12,1.64a40.31,40.31,0,0,0-4.1,11.49,12.52,12.52,0,0,1,3.61-.59c3.55,0,6.35,2,8.75,5.74l5.77-14.87a8.76,8.76,0,0,1-4.58,1.72c-1.71,0-3.07-1-4.31-2.92-.76-1.19-1.9-2.21-3-2.21Z"/></svg>