<svg xmlns="http://www.w3.org/2000/svg" xmlns:xlink="http://www.w3.org/1999/xlink" viewBox="0 0 1048.01 477.11"><defs><style>.cls-1{isolation:isolate;}.cls-2{fill:#dee9f7;}.cls-3{fill:#27aae1;}.cls-4{fill:#2b488c;}.cls-5{fill:#c0d1ec;}.cls-6{fill:#9ab0db;}.cls-7{fill:url(#New_Gradient_Swatch_copy_36);}.cls-8{fill:#e6e7e7;}.cls-27,.cls-31,.cls-35,.cls-8{mix-blend-mode:multiply;}.cls-9{fill:#f0e7f2;}.cls-10{fill:#d0b4d6;}.cls-11{fill:url(#linear-gradient);}.cls-12,.cls-13,.cls-17,.cls-19,.cls-21,.cls-22,.cls-24,.cls-32,.cls-33,.cls-34,.cls-39{opacity:0.5;}.cls-12{fill:url(#linear-gradient-2);}.cls-13{fill:url(#New_Gradient_Swatch_copy_36-2);}.cls-14{fill:url(#linear-gradient-3);}.cls-15{fill:url(#linear-gradient-4);}.cls-16{fill:url(#linear-gradient-5);}.cls-17{fill:url(#linear-gradient-6);}.cls-18{fill:url(#linear-gradient-7);}.cls-19{fill:url(#New_Gradient_Swatch_copy_36-3);}.cls-20{fill:url(#linear-gradient-8);}.cls-21{fill:url(#New_Gradient_Swatch_copy_36-4);}.cls-22{fill:url(#New_Gradient_Swatch_copy_36-5);}.cls-23{fill:url(#linear-gradient-9);}.cls-24{fill:url(#New_Gradient_Swatch_copy_36-6);}.cls-25{fill:url(#New_Gradient_Swatch_copy_35);}.cls-26{fill:url(#linear-gradient-10);}.cls-27{fill:url(#linear-gradient-11);}.cls-28{fill:#7f8092;}.cls-29,.cls-30{fill:#fff;}.cls-29,.cls-40{opacity:0.15;}.cls-30{opacity:0.3;}.cls-31{fill:url(#White_Black_2);}.cls-32,.cls-33,.cls-34{mix-blend-mode:color-dodge;}.cls-32{fill:url(#radial-gradient);}.cls-33{fill:url(#radial-gradient-2);}.cls-34{fill:url(#radial-gradient-3);}.cls-35{fill:url(#White_Black_2-2);}.cls-36{fill:#6b3c17;}.cls-37,.cls-38,.cls-39{fill:#f7aa90;}.cls-37{opacity:0.1;}.cls-38{opacity:0.2;}</style><linearGradient id="New_Gradient_Swatch_copy_36" x1="561.71" y1="351.63" x2="708.25" y2="278.71" gradientUnits="userSpaceOnUse"><stop offset="0.1" stop-color="#482d84"/><stop offset="1" stop-color="#72479c"/></linearGradient><linearGradient id="linear-gradient" x1="342.65" y1="332.91" x2="432.54" y2="312.76" gradientUnits="userSpaceOnUse"><stop offset="0.04" stop-color="#148cbd"/><stop offset="0.25" stop-color="#2397c3"/><stop offset="0.66" stop-color="#4cb3d3"/><stop offset="1" stop-color="#71cde1"/></linearGradient><linearGradient id="linear-gradient-2" x1="416.19" y1="268.76" x2="377.61" y2="317.52" xlink:href="#linear-gradient"/><linearGradient id="New_Gradient_Swatch_copy_36-2" x1="342.65" y1="332.91" x2="432.54" y2="312.76" xlink:href="#New_Gradient_Swatch_copy_36"/><linearGradient id="linear-gradient-3" x1="373.58" y1="360.93" x2="463.47" y2="340.78" xlink:href="#linear-gradient"/><linearGradient id="linear-gradient-4" x1="384.74" y1="309.38" x2="426.71" y2="362.75" xlink:href="#linear-gradient"/><linearGradient id="linear-gradient-5" x1="424.35" y1="379.37" x2="514.24" y2="359.22" xlink:href="#linear-gradient"/><linearGradient id="linear-gradient-6" x1="497.24" y1="287.81" x2="451.39" y2="379.76" xlink:href="#linear-gradient"/><linearGradient id="linear-gradient-7" x1="384.16" y1="297.97" x2="452.42" y2="282.67" xlink:href="#linear-gradient"/><linearGradient id="New_Gradient_Swatch_copy_36-3" x1="424.35" y1="379.37" x2="514.24" y2="359.22" xlink:href="#New_Gradient_Swatch_copy_36"/><linearGradient id="linear-gradient-8" x1="391.11" y1="291.02" x2="428.23" y2="278.41" xlink:href="#linear-gradient"/><linearGradient id="New_Gradient_Swatch_copy_36-4" x1="384.16" y1="297.97" x2="452.42" y2="282.67" xlink:href="#New_Gradient_Swatch_copy_36"/><linearGradient id="New_Gradient_Swatch_copy_36-5" x1="373.58" y1="360.93" x2="463.47" y2="340.78" xlink:href="#New_Gradient_Swatch_copy_36"/><linearGradient id="linear-gradient-9" x1="515.99" y1="307.73" x2="560.43" y2="294.43" xlink:href="#linear-gradient"/><linearGradient id="New_Gradient_Swatch_copy_36-6" x1="515.99" y1="307.73" x2="560.43" y2="294.43" xlink:href="#New_Gradient_Swatch_copy_36"/><linearGradient id="New_Gradient_Swatch_copy_35" x1="463.11" y1="283.74" x2="495.63" y2="427.61" gradientUnits="userSpaceOnUse"><stop offset="0" stop-color="#9e7ab6"/><stop offset="0.14" stop-color="#a481ba"/><stop offset="0.33" stop-color="#b393c4"/><stop offset="0.56" stop-color="#cdb1d4"/><stop offset="0.58" stop-color="#d0b4d6"/><stop offset="0.76" stop-color="#dac4df"/><stop offset="1" stop-color="#eadeed"/></linearGradient><linearGradient id="linear-gradient-10" x1="532.48" y1="353.67" x2="511.01" y2="366.78" gradientUnits="userSpaceOnUse"><stop offset="0.02" stop-color="#482d84"/><stop offset="0.29" stop-color="#3e1f5e"/><stop offset="1" stop-color="#1b154e"/><stop offset="1" stop-color="#1a144c"/></linearGradient><linearGradient id="linear-gradient-11" x1="483.4" y1="291.88" x2="456.47" y2="270.53" gradientUnits="userSpaceOnUse"><stop offset="0" stop-color="#fff"/><stop offset="1" stop-color="#bdbec0"/></linearGradient><linearGradient id="White_Black_2" x1="514.82" y1="266.7" x2="576.17" y2="-2.86" gradientUnits="userSpaceOnUse"><stop offset="0" stop-color="#fff"/><stop offset="1"/></linearGradient><radialGradient id="radial-gradient" cx="768.64" cy="131.9" r="150.76" gradientUnits="userSpaceOnUse"><stop offset="0" stop-color="#982b74"/><stop offset="0.04" stop-color="#8b276a"/><stop offset="0.19" stop-color="#611c4a"/><stop offset="0.35" stop-color="#3e1230"/><stop offset="0.51" stop-color="#240b1b"/><stop offset="0.67" stop-color="#10050d"/><stop offset="0.83" stop-color="#050204"/><stop offset="1" stop-color="#010101"/></radialGradient><radialGradient id="radial-gradient-2" cx="424.07" cy="2.88" r="158.97" xlink:href="#radial-gradient"/><radialGradient id="radial-gradient-3" cx="519.26" cy="65.03" r="126.7" xlink:href="#radial-gradient"/><linearGradient id="White_Black_2-2" x1="558.19" y1="294.45" x2="276.07" y2="459.74" xlink:href="#White_Black_2"/></defs><g class="cls-1"><g id="Layer_1" data-name="Layer 1"><path class="cls-2" d="M1006.18,477.08c-60,0-979.72.07-979.72,0-33.69-34.16-43.61-115.7,29.35-194.45,26.73-28.84-44.18-84.16,1.85-172.89C75.15,76,145,18.06,329.4,63,407.8,82.16,474.32,51.62,489.05,40.6a164,164,0,0,1,27.11-16.32C617.64-24.82,793,6.45,869.48,65.47c10.85,8.37,60.16,51.65,21.29,111.14-24.54,37.56,78.28,73.43,114.81,116.32C1098.47,402,1007,475.66,1006.18,477.08Z"/><path class="cls-3" d="M722.94,347.29c45.6-96.48-9.63-218.26-123.35-272h0c52,24.58,46.73,145.76-10.69,274.24C627.83,344.74,703.34,343.3,722.94,347.29Z"/><path class="cls-4" d="M719.41,352.72a1.51,1.51,0,0,1-.65-.15,1.52,1.52,0,0,1-.73-2c.19-.41,1.13-2.52,1.9-4.25.5-1.11.92-2.06,1-2.33C764,249.61,709,130.29,598.32,78a1.52,1.52,0,0,1,1.31-2.75C654.14,101,697,143.18,720.42,194s24.59,104.6,3.32,151.2l-1,2.3c-.78,1.75-1.73,3.89-1.93,4.3A1.51,1.51,0,0,1,719.41,352.72Z"/><path class="cls-3" d="M599.59,75.3C485.88,21.56,356.73,56.21,311.14,152.7c21.09,20.31,57.8,56.79,83.37,105C457.31,131.74,547.57,50.72,599.59,75.3Z"/><path class="cls-4" d="M310.6,159.63a1.49,1.49,0,0,1-.65-.14,1.54,1.54,0,0,1-.73-2c.38-.78,2.93-6.18,3.31-7,22.56-45.86,64.77-78.91,118.86-93.07s113.78-7.78,168.18,17.93a1.52,1.52,0,0,1-1.3,2.75C487.88,25.94,360.91,59,315.26,151.85c-.38.77-2.92,6.13-3.29,6.91A1.51,1.51,0,0,1,310.6,159.63Z"/><path class="cls-3" d="M599.59,75.3h0c-52-24.58-142.28,56.44-205.08,182.38,32.78,4.47,166.53,68.84,194.39,91.86C646.32,221.06,651.61,99.88,599.59,75.3Z"/><path class="cls-4" d="M585.65,356a1.59,1.59,0,0,1-.62-.14,1.52,1.52,0,0,1-.76-2c57.37-128.34,63.58-251.88,13.84-275.39S456.83,138.15,394.1,264a1.53,1.53,0,0,1-2.73-1.36C421.85,201.49,460,148.37,498.74,113,538.29,77,574,63.7,599.41,75.68s37.82,48,35.05,101.48c-2.71,52.38-19.55,115.56-47.42,177.9A1.51,1.51,0,0,1,585.65,356Z"/><polygon class="cls-4" points="433.62 196.99 556.38 268.41 626.96 278.49 504.12 208.48 433.62 196.99"/><polygon class="cls-5" points="556.34 268.41 556.34 388.88 569.02 381.72 569.04 379.06 614.15 352.36 616.9 353.38 626.96 347.42 626.96 278.49 556.34 268.41"/><polygon class="cls-6" points="556.38 268.41 556.38 388.88 433.62 317.42 433.62 196.99 556.38 268.41"/><polygon class="cls-6" points="566.13 319.91 619.85 287.64 619.85 351.64 616.9 353.38 614.15 352.36 569.04 379.06 569.02 381.72 566.13 383.43 566.13 319.91"/><polygon class="cls-7" points="614.15 352.36 614.15 294.46 569.04 321.56 569.04 379.06 614.15 352.36"/><polygon class="cls-8" points="614.15 298.87 614.15 294.46 569.04 321.56 569.04 325.57 614.15 298.87"/><polygon class="cls-4" points="614.15 299.72 614.15 297.37 569.04 324.47 569.04 326.42 614.15 299.72"/><polygon class="cls-4" points="614.15 304.28 614.15 301.94 569.04 329.03 569.04 330.98 614.15 304.28"/><polygon class="cls-4" points="614.15 308.85 614.15 306.5 569.04 333.6 569.04 335.55 614.15 308.85"/><polygon class="cls-4" points="614.15 313.41 614.15 311.07 569.04 338.17 569.04 340.11 614.15 313.41"/><polygon class="cls-4" points="614.15 317.98 614.15 315.63 569.04 342.73 569.04 344.68 614.15 317.98"/><polygon class="cls-4" points="614.15 322.54 614.15 320.2 569.04 347.3 569.04 349.24 614.15 322.54"/><polygon class="cls-4" points="614.15 327.11 614.15 324.76 569.04 351.86 569.04 353.81 614.15 327.11"/><polygon class="cls-4" points="614.15 331.68 614.15 329.33 569.04 356.43 569.04 358.38 614.15 331.68"/><polygon class="cls-4" points="614.15 336.24 614.15 333.89 569.04 360.99 569.04 362.94 614.15 336.24"/><polygon class="cls-4" points="614.15 340.81 614.15 338.46 569.04 365.56 569.04 367.51 614.15 340.81"/><polygon class="cls-4" points="614.15 345.37 614.15 343.03 569.04 370.12 569.04 372.07 614.15 345.37"/><polygon class="cls-4" points="614.15 349.94 614.15 347.59 569.04 374.69 569.04 376.64 614.15 349.94"/><polygon class="cls-6" points="488.69 339.8 488.69 416.52 363.09 344.83 363.09 267.68 488.69 339.8"/><polygon class="cls-4" points="488.69 340.53 547.6 239.22 422 167.53 363.09 268.41 488.69 340.53"/><polygon class="cls-9" points="371.88 349.51 371.88 282.29 398.7 298.01 398.7 365.11 371.88 349.51"/><polygon class="cls-10" points="395.79 299.68 395.79 360.05 374.79 347.83 374.79 287.37 395.79 299.68"/><polygon class="cls-5" points="488.69 416.52 488.69 340.53 547.35 238.45 547.35 383.69 488.69 416.52"/><polygon class="cls-5" points="491.6 244.8 437.33 276.54 437.33 397.9 446.17 392.72 446.17 315.94 491.6 244.8"/><polygon class="cls-11" points="377.46 346.5 395.79 357.17 395.79 299.68 377.46 288.94 377.46 346.5"/><polygon class="cls-12" points="377.46 346.5 395.79 299.68 377.46 288.94 377.46 346.5"/><path class="cls-13" d="M377.46,288.94V346.5l18.33,10.67V299.68Zm16.87,65.69-15.41-9V291.48l15.41,9Z"/><polygon class="cls-6" points="437.33 276.54 437.33 397.9 395.12 373.34 395.12 251.79 437.33 276.54"/><polygon class="cls-9" points="402.81 377.53 402.81 310.31 429.63 326.04 429.63 393.14 402.81 377.53"/><polygon class="cls-10" points="426.72 327.7 426.72 388.07 405.72 375.86 405.72 315.39 426.72 327.7"/><polygon class="cls-9" points="453.58 395.97 453.58 328.75 480.4 344.47 480.4 411.57 453.58 395.97"/><polygon class="cls-10" points="477.49 346.14 477.49 406.51 456.49 394.3 456.49 333.83 477.49 346.14"/><polygon class="cls-9" points="402.81 301.48 402.81 265.19 429.63 280.91 429.63 317.08 402.81 301.48"/><polygon class="cls-10" points="426.72 282.58 426.72 312.02 405.72 299.8 405.72 270.27 426.72 282.58"/><polygon class="cls-14" points="408.39 374.52 426.72 385.19 426.72 327.7 408.39 316.96 408.39 374.52"/><polygon class="cls-15" points="408.39 374.52 426.72 327.7 408.39 316.96 408.39 374.52"/><polygon class="cls-16" points="459.16 392.96 477.49 403.63 477.49 346.14 459.16 335.4 459.16 392.96"/><polygon class="cls-17" points="459.16 392.96 477.49 346.14 459.16 335.4 459.16 392.96"/><polygon class="cls-18" points="408.39 298.47 426.72 309.13 426.72 282.58 408.39 271.83 408.39 298.47"/><path class="cls-19" d="M459.16,335.4V393l18.33,10.67V346.14ZM476,401.09l-15.41-9V337.94L476,347Z"/><polygon class="cls-20" points="408.39 298.47 426.72 282.58 408.39 271.83 408.39 298.47"/><path class="cls-21" d="M408.39,271.83v26.64l18.33,10.66V282.58Zm16.88,34.77-15.42-9V274.37l15.42,9Z"/><path class="cls-22" d="M408.39,317v57.56l18.33,10.67V327.7Zm16.88,65.7-15.42-9V319.5l15.42,9Z"/><polygon class="cls-6" points="504.43 332.47 509.04 329.82 536.07 314.1 536.07 274.85 504.43 332.47"/><polygon class="cls-9" points="512.16 324.64 533.16 312.42 533.16 286.53 512.16 324.64"/><polygon class="cls-6" points="504.91 340.46 536.07 322.63 536.07 389.85 504.91 407.56 504.91 340.46"/><polygon class="cls-9" points="507.83 342.13 507.83 402.5 533.16 388.17 533.16 327.71 507.83 342.13"/><polygon class="cls-4" points="530.74 386.84 530.74 329.13 507.83 342.13 507.83 399.75 530.74 386.84"/><path class="cls-8" d="M507.83,342.13v57.62l22.91-12.91V329.13ZM529.28,386l-20,11.27V343l20-11.34Z"/><polygon class="cls-23" points="530.74 290.93 514.39 320.6 530.74 311.09 530.74 290.93"/><path class="cls-24" d="M514.39,320.6l16.35-9.51V290.93Zm14.89-10.35L518.2,316.7l11.08-20.11Z"/><polygon class="cls-4" points="437.33 276.54 491.6 244.8 449.38 220.24 395.12 251.79 437.33 276.54"/><polygon class="cls-6" points="497.98 418.45 497.98 421.99 556.42 388.83 556.42 385.29 497.98 418.45"/><polygon class="cls-25" points="498 418.45 498 421.99 488.68 416.52 488.68 413 498 418.45"/><polygon class="cls-5" points="488.68 413 498 418.45 556.42 385.29 547.33 380.01 488.68 413"/><path class="cls-26" d="M513.11,365.54a3.29,3.29,0,0,1-1.49,2.58c-.83.48-1.5.1-1.5-.85a3.28,3.28,0,0,1,1.5-2.58C512.44,364.21,513.11,364.59,513.11,365.54Z"/><polygon class="cls-27" points="446.17 315.94 491.6 244.8 458.94 323.25 446.17 315.94"/><polygon class="cls-6" points="488.68 413 556.42 385.29 547.33 380.01 488.68 413"/><polygon class="cls-9" points="614.15 294.46 614.15 352.36 616.9 353.38 616.9 292.98 614.15 294.46"/><rect class="cls-28" x="309.29" y="271.62" width="387.61" height="11.01" transform="translate(34.29 608.98) rotate(-64.14)"/><path class="cls-28" d="M565.14,155a5.5,5.5,0,0,1-5-7.89L602,60A5.51,5.51,0,1,1,612,64.72l-41.86,87.13A5.49,5.49,0,0,1,565.14,155Z"/><rect class="cls-29" x="307.52" y="274.57" width="387.61" height="3.93" transform="translate(33.91 607.17) rotate(-64.16)"/><rect class="cls-30" x="308.7" y="275.95" width="384.46" height="0.79" transform="translate(33.8 606.62) rotate(-64.15)"/><path class="cls-29" d="M564,150.45a2,2,0,0,1-.85-.19,2,2,0,0,1-.92-2.63L604.05,60.5a2,2,0,0,1,3.55,1.71l-41.86,87.12A2,2,0,0,1,564,150.45Z"/><path class="cls-30" d="M563.57,148.68a.32.32,0,0,1-.16,0,.4.4,0,0,1-.19-.53L605.08,61a.4.4,0,0,1,.36-.23.47.47,0,0,1,.16,0,.4.4,0,0,1,.19.53l-41.86,87.13A.4.4,0,0,1,563.57,148.68Z"/><rect class="cls-29" x="313.68" y="278.83" width="384.46" height="0.79" transform="translate(34.02 612.73) rotate(-64.15)"/><path class="cls-29" d="M568.56,151.56a.47.47,0,0,1-.17,0,.41.41,0,0,1-.19-.53l41.86-87.13a.4.4,0,0,1,.36-.22.35.35,0,0,1,.17,0,.39.39,0,0,1,.18.52l-41.86,87.13A.37.37,0,0,1,568.56,151.56Z"/><path class="cls-31" d="M599.59,75.3C485.88,21.56,356.73,56.21,311.14,152.7a559,559,0,0,1,41.17,43.43,167.26,167.26,0,0,1,66.54,22.1c49.3-2,152.9,43.89,178.93,84.55,69.37-12,141.35,2.46,130,26.57,6.22-13.15,9.78-29,11-46.56C742.21,201.81,689,117.54,599.59,75.3Z"/><path class="cls-4" d="M630.07,241.41a1.06,1.06,0,0,1-.25,0,1.57,1.57,0,0,1-1.26-1.79,16.16,16.16,0,0,1,.84-2.32c.25-.61.63-1.55.69-1.77,13.18-84.25,1.6-141.68-31.8-157.46s-84.86,11.6-141.47,75c-.14.19-.72,1.19-1.1,1.85a17.06,17.06,0,0,1-1.45,2.33,1.52,1.52,0,0,1-2.28-2c.15-.19.72-1.18,1.09-1.84a17.44,17.44,0,0,1,1.47-2.35C512.12,86.55,565,59,599.59,75.3s46.91,75,33.48,160.78a14.61,14.61,0,0,1-.84,2.34c-.25.61-.62,1.54-.68,1.76A1.47,1.47,0,0,1,630.07,241.41Z"/><path class="cls-3" d="M722.94,347.29c45.6-96.48-9.63-218.26-123.35-272h0c35.95,17,46.06,78.8,32.81,162.19C696.65,279.88,734.34,323.18,722.94,347.29Z"/><path class="cls-32" d="M726.77,288c-19.72-25.5-50.88-49.32-72.62-64.26,5.78-41.25,5.72-76.16.05-103.71C706.4,165.18,734,228.47,726.77,288Z"/><path class="cls-3" d="M599.59,75.3C485.88,21.56,356.73,56.21,311.14,152.7c11.4-24.12,80.37-36.08,142.32.23C509.47,89.75,563.65,58.31,599.59,75.3Z"/><path class="cls-33" d="M450.08,127c-24.9-12.33-52.55-19-79.1-19-4.55,0-9,.19-13.26.56,32.52-31,79.23-49.05,131.45-49.05a232.66,232.66,0,0,1,39.32,3.4C499.81,78,472.28,103.05,450.08,127Z"/><path class="cls-3" d="M599.59,75.3h0c-35.94-17-90.12,14.45-146.13,77.63,49.31-2,152.91,43.9,178.94,84.56C645.65,154.1,635.54,92.28,599.59,75.3Z"/><path class="cls-34" d="M573.62,187.43c-24-19.61-62.79-36.81-92.89-43,24.42-24,79.16-67.38,95.64-67.38a22.91,22.91,0,0,1,10,2.12C602.39,86.75,587.38,139.69,573.62,187.43Z"/><path class="cls-35" d="M378.1,470.38l4.87,2.84a28.43,28.43,0,0,0,28.38.19l81.48-54L536.44,235.9l-18.55-10.77-41,189.69Z"/><path class="cls-36" d="M460.12,385.27l0,0c.68-1.42-2.18-4.22-6.39-6.26s-8.19-2.55-8.87-1.14c0,0,0,0,0,.05l-.19-.09-33.9,70a20.27,20.27,0,1,1-36.49-17.68l7.57-15.62-.21-.1h0c.68-1.42-2.18-4.22-6.39-6.26s-8.19-2.55-8.87-1.14c0,0,0,0,0,0l-.11-.06-7.57,15.62a37.58,37.58,0,1,0,67.63,32.78l33.9-70Z"/><path class="cls-37" d="M389.77,471.46a33.4,33.4,0,0,1-13.81-3,32.9,32.9,0,0,1-17.43-19,35.15,35.15,0,0,1,1.38-27.15l6.14-12.67a4.72,4.72,0,1,1,8.49,4.12l-6.26,12.92a25,25,0,0,0-1.91,17.27,24.28,24.28,0,0,0,17.38,17.32,23.19,23.19,0,0,0,6,.79,22.31,22.31,0,0,0,3.17-.22,24.12,24.12,0,0,0,18.68-13.48l32.88-67.84a4.75,4.75,0,0,1,4.24-2.66,4.61,4.61,0,0,1,2.06.48,4.72,4.72,0,0,1,2.19,6.3l-32.87,67.84a33.76,33.76,0,0,1-30.3,19Z"/><path class="cls-38" d="M389.77,469.1a31.09,31.09,0,0,1-12.84-2.78c-16.12-7.28-22.61-27.08-14.9-43l6.14-12.67a2.38,2.38,0,0,1,3.16-1.1h0a2.37,2.37,0,0,1,1.09,3.16l-6.26,12.92a27.42,27.42,0,0,0-2.07,18.91,26.6,26.6,0,0,0,19,19,25.45,25.45,0,0,0,10.09.63,26.61,26.61,0,0,0,20.48-14.79l32.87-67.84a2.36,2.36,0,0,1,3.15-1.09h0a2.37,2.37,0,0,1,1.1,3.15l-32.88,67.84a31.38,31.38,0,0,1-28.17,17.66Z"/><path class="cls-39" d="M389.18,467.33A29.46,29.46,0,0,1,377,464.69a29,29,0,0,1-15.35-16.77,31.21,31.21,0,0,1,1.22-24.1L369,411.15a.79.79,0,0,1,.71-.45.81.81,0,0,1,.34.08.79.79,0,0,1,.37,1.05l-6.27,12.93a28.91,28.91,0,0,0-2.17,20,28.17,28.17,0,0,0,20.15,20.1,26.76,26.76,0,0,0,7,.93,27,27,0,0,0,3.72-.26,28,28,0,0,0,21.67-15.66L447.4,382a.78.78,0,0,1,.7-.44.85.85,0,0,1,.35.08.78.78,0,0,1,.36,1.05l-32.87,67.84a29.82,29.82,0,0,1-26.76,16.77Z"/><g class="cls-40"><path class="cls-39" d="M377.06,414.69l-6.14,12.67c-1.31,2.71-1.63,6.78-1.56,10.66a30.44,30.44,0,0,1,2.86-9.72l6.26-12.93a.79.79,0,0,0-.37-1.05.77.77,0,0,0-.34-.08A.79.79,0,0,0,377.06,414.69Z"/><path class="cls-39" d="M456.51,385.21a.81.81,0,0,0-.34-.08.79.79,0,0,0-.71.44l-32.87,67.84a28.14,28.14,0,0,1-6.27,8.47,37.14,37.14,0,0,1-8,6.81A29.49,29.49,0,0,0,424,454.1l32.87-67.84A.78.78,0,0,0,456.51,385.21Z"/></g></g></g></svg>