<svg xmlns="http://www.w3.org/2000/svg" xmlns:xlink="http://www.w3.org/1999/xlink" viewBox="0 0 4281.57 844.98"><defs><style>.cls-1{isolation:isolate;}.cls-2{fill:#dee9f7;}.cls-3{fill:url(#radial-gradient);}.cls-4{fill:url(#New_Gradient_Swatch_copy_43);}.cls-5{fill:url(#radial-gradient-2);}.cls-6{fill:url(#New_Gradient_Swatch_copy_43-2);}.cls-7{fill:url(#radial-gradient-3);}.cls-8{fill:url(#New_Gradient_Swatch_copy_43-3);}.cls-9{fill:#2b488c;}.cls-10{fill:#c0d1ec;}.cls-11{fill:#9ab0db;}.cls-12{fill:url(#New_Gradient_Swatch_copy_36);}.cls-13{fill:#e6e7e7;}.cls-13,.cls-32,.cls-36,.cls-44,.cls-73,.cls-74,.cls-82{mix-blend-mode:multiply;}.cls-14{fill:#f0e7f2;}.cls-15{fill:#d0b4d6;}.cls-16{fill:url(#linear-gradient);}.cls-17,.cls-18,.cls-22,.cls-24,.cls-26,.cls-27,.cls-29,.cls-39,.cls-41,.cls-43,.cls-48,.cls-58,.cls-59,.cls-63,.cls-65,.cls-67,.cls-68,.cls-70,.cls-77,.cls-79,.cls-81{opacity:0.5;}.cls-17{fill:url(#linear-gradient-2);}.cls-18{fill:url(#New_Gradient_Swatch_copy_36-2);}.cls-19{fill:url(#linear-gradient-3);}.cls-20{fill:url(#linear-gradient-4);}.cls-21{fill:url(#linear-gradient-5);}.cls-22{fill:url(#linear-gradient-6);}.cls-23{fill:url(#linear-gradient-7);}.cls-24{fill:url(#New_Gradient_Swatch_copy_36-3);}.cls-25{fill:url(#linear-gradient-8);}.cls-26{fill:url(#New_Gradient_Swatch_copy_36-4);}.cls-27{fill:url(#New_Gradient_Swatch_copy_36-5);}.cls-28{fill:url(#linear-gradient-9);}.cls-29{fill:url(#New_Gradient_Swatch_copy_36-6);}.cls-30{fill:url(#New_Gradient_Swatch_copy_35);}.cls-31{fill:url(#linear-gradient-10);}.cls-32{fill:url(#linear-gradient-11);}.cls-33{fill:#7f8092;}.cls-34,.cls-35{fill:#fff;}.cls-34,.cls-49{opacity:0.15;}.cls-35{opacity:0.3;}.cls-36{fill:url(#White_Black_2);}.cls-37{fill:url(#New_Gradient_Swatch_copy_43-4);}.cls-38{fill:url(#radial-gradient-4);}.cls-39,.cls-41,.cls-43,.cls-77,.cls-79,.cls-81{mix-blend-mode:color-dodge;}.cls-39{fill:url(#radial-gradient-5);}.cls-40{fill:url(#radial-gradient-6);}.cls-41{fill:url(#radial-gradient-7);}.cls-42{fill:url(#radial-gradient-8);}.cls-43{fill:url(#radial-gradient-9);}.cls-44{fill:url(#White_Black_2-2);}.cls-45{fill:#6b3c17;}.cls-46,.cls-47,.cls-48{fill:#f7aa90;}.cls-46{opacity:0.1;}.cls-47{opacity:0.2;}.cls-50{fill:url(#radial-gradient-10);}.cls-51{fill:url(#New_Gradient_Swatch_copy_43-5);}.cls-52{fill:url(#radial-gradient-11);}.cls-53{fill:url(#New_Gradient_Swatch_copy_43-6);}.cls-54{fill:url(#radial-gradient-12);}.cls-55{fill:url(#New_Gradient_Swatch_copy_43-7);}.cls-56{fill:url(#New_Gradient_Swatch_copy_36-7);}.cls-57{fill:url(#linear-gradient-12);}.cls-58{fill:url(#linear-gradient-13);}.cls-59{fill:url(#New_Gradient_Swatch_copy_36-8);}.cls-60{fill:url(#linear-gradient-14);}.cls-61{fill:url(#linear-gradient-15);}.cls-62{fill:url(#linear-gradient-16);}.cls-63{fill:url(#linear-gradient-17);}.cls-64{fill:url(#linear-gradient-18);}.cls-65{fill:url(#New_Gradient_Swatch_copy_36-9);}.cls-66{fill:url(#linear-gradient-19);}.cls-67{fill:url(#New_Gradient_Swatch_copy_36-10);}.cls-68{fill:url(#New_Gradient_Swatch_copy_36-11);}.cls-69{fill:url(#linear-gradient-20);}.cls-70{fill:url(#New_Gradient_Swatch_copy_36-12);}.cls-71{fill:url(#New_Gradient_Swatch_copy_35-2);}.cls-72{fill:url(#linear-gradient-21);}.cls-73{fill:url(#linear-gradient-22);}.cls-74{fill:url(#White_Black_2-3);}.cls-75{fill:url(#New_Gradient_Swatch_copy_43-8);}.cls-76{fill:url(#radial-gradient-13);}.cls-77{fill:url(#radial-gradient-14);}.cls-78{fill:url(#radial-gradient-15);}.cls-79{fill:url(#radial-gradient-16);}.cls-80{fill:url(#radial-gradient-17);}.cls-81{fill:url(#radial-gradient-18);}.cls-82{fill:url(#White_Black_2-4);}.cls-83{fill:#243962;}.cls-84{fill:none;}</style><radialGradient id="radial-gradient" cx="3935.33" cy="817.66" r="448.74" gradientUnits="userSpaceOnUse"><stop offset="0" stop-color="#e06eaa"/><stop offset="0.41" stop-color="#943895"/><stop offset="0.62" stop-color="#853f98"/><stop offset="0.82" stop-color="#72479c"/><stop offset="1" stop-color="#654da0"/></radialGradient><linearGradient id="New_Gradient_Swatch_copy_43" x1="3790.1" y1="555.68" x2="3944.64" y2="555.68" gradientUnits="userSpaceOnUse"><stop offset="0" stop-color="#25144d"/><stop offset="0.63" stop-color="#321f5f"/><stop offset="1" stop-color="#3b266c"/></linearGradient><radialGradient id="radial-gradient-2" cx="3210.94" cy="511.63" r="508.76" xlink:href="#radial-gradient"/><linearGradient id="New_Gradient_Swatch_copy_43-2" x1="3474.99" y1="436.51" x2="3793.36" y2="436.51" xlink:href="#New_Gradient_Swatch_copy_43"/><radialGradient id="radial-gradient-3" cx="3584.6" cy="826.83" r="471.11" xlink:href="#radial-gradient"/><linearGradient id="New_Gradient_Swatch_copy_43-3" x1="3564.74" y1="555.43" x2="3830.96" y2="555.43" xlink:href="#New_Gradient_Swatch_copy_43"/><linearGradient id="New_Gradient_Swatch_copy_36" x1="3751.04" y1="706.18" x2="3911.18" y2="626.49" gradientUnits="userSpaceOnUse"><stop offset="0.1" stop-color="#482d84"/><stop offset="1" stop-color="#72479c"/></linearGradient><linearGradient id="linear-gradient" x1="3511.67" y1="685.72" x2="3609.89" y2="663.7" gradientUnits="userSpaceOnUse"><stop offset="0.04" stop-color="#148cbd"/><stop offset="0.25" stop-color="#2397c3"/><stop offset="0.66" stop-color="#4cb3d3"/><stop offset="1" stop-color="#71cde1"/></linearGradient><linearGradient id="linear-gradient-2" x1="3592.03" y1="615.62" x2="3549.88" y2="668.91" xlink:href="#linear-gradient"/><linearGradient id="New_Gradient_Swatch_copy_36-2" x1="3511.67" y1="685.72" x2="3609.89" y2="663.7" xlink:href="#New_Gradient_Swatch_copy_36"/><linearGradient id="linear-gradient-3" x1="3545.47" y1="716.34" x2="3643.69" y2="694.32" xlink:href="#linear-gradient"/><linearGradient id="linear-gradient-4" x1="3557.66" y1="660.01" x2="3603.53" y2="718.33" xlink:href="#linear-gradient"/><linearGradient id="linear-gradient-5" x1="3600.94" y1="736.49" x2="3699.17" y2="714.47" xlink:href="#linear-gradient"/><linearGradient id="linear-gradient-6" x1="3680.6" y1="636.44" x2="3630.49" y2="736.92" xlink:href="#linear-gradient"/><linearGradient id="linear-gradient-7" x1="3557.03" y1="647.54" x2="3631.63" y2="630.82" xlink:href="#linear-gradient"/><linearGradient id="New_Gradient_Swatch_copy_36-3" x1="3600.94" y1="736.49" x2="3699.17" y2="714.47" xlink:href="#New_Gradient_Swatch_copy_36"/><linearGradient id="linear-gradient-8" x1="3564.62" y1="639.95" x2="3605.18" y2="626.17" xlink:href="#linear-gradient"/><linearGradient id="New_Gradient_Swatch_copy_36-4" x1="3557.03" y1="647.54" x2="3631.63" y2="630.82" xlink:href="#New_Gradient_Swatch_copy_36"/><linearGradient id="New_Gradient_Swatch_copy_36-5" x1="3545.47" y1="716.34" x2="3643.69" y2="694.32" xlink:href="#New_Gradient_Swatch_copy_36"/><linearGradient id="linear-gradient-9" x1="3701.09" y1="658.21" x2="3749.64" y2="643.67" xlink:href="#linear-gradient"/><linearGradient id="New_Gradient_Swatch_copy_36-6" x1="3701.09" y1="658.21" x2="3749.64" y2="643.67" xlink:href="#New_Gradient_Swatch_copy_36"/><linearGradient id="New_Gradient_Swatch_copy_35" x1="3643.31" y1="631.99" x2="3678.83" y2="789.2" gradientUnits="userSpaceOnUse"><stop offset="0" stop-color="#9e7ab6"/><stop offset="0.14" stop-color="#a481ba"/><stop offset="0.33" stop-color="#b393c4"/><stop offset="0.56" stop-color="#cdb1d4"/><stop offset="0.58" stop-color="#d0b4d6"/><stop offset="0.76" stop-color="#dac4df"/><stop offset="1" stop-color="#eadeed"/></linearGradient><linearGradient id="linear-gradient-10" x1="3719.1" y1="708.41" x2="3695.64" y2="722.73" gradientUnits="userSpaceOnUse"><stop offset="0.02" stop-color="#482d84"/><stop offset="0.29" stop-color="#3e1f5e"/><stop offset="1" stop-color="#1b154e"/><stop offset="1" stop-color="#1a144c"/></linearGradient><linearGradient id="linear-gradient-11" x1="3665.47" y1="640.88" x2="3636.04" y2="617.55" gradientUnits="userSpaceOnUse"><stop offset="0" stop-color="#fff"/><stop offset="1" stop-color="#bdbec0"/></linearGradient><linearGradient id="White_Black_2" x1="3699.81" y1="613.37" x2="3766.85" y2="318.81" gradientUnits="userSpaceOnUse"><stop offset="0" stop-color="#fff"/><stop offset="1"/></linearGradient><linearGradient id="New_Gradient_Swatch_copy_43-4" x1="3630.74" y1="492.46" x2="3834.85" y2="492.46" xlink:href="#New_Gradient_Swatch_copy_43"/><radialGradient id="radial-gradient-4" cx="3691.19" cy="594.15" r="350.19" xlink:href="#radial-gradient"/><radialGradient id="radial-gradient-5" cx="3977.16" cy="466.07" r="164.74" gradientUnits="userSpaceOnUse"><stop offset="0" stop-color="#982b74"/><stop offset="0.04" stop-color="#8b276a"/><stop offset="0.19" stop-color="#611c4a"/><stop offset="0.35" stop-color="#3e1230"/><stop offset="0.51" stop-color="#240b1b"/><stop offset="0.67" stop-color="#10050d"/><stop offset="0.83" stop-color="#050204"/><stop offset="1" stop-color="#010101"/></radialGradient><radialGradient id="radial-gradient-6" cx="3725.58" cy="293.86" r="297.92" xlink:href="#radial-gradient"/><radialGradient id="radial-gradient-7" cx="3600.64" cy="325.09" r="173.71" xlink:href="#radial-gradient-5"/><radialGradient id="radial-gradient-8" cx="6307.85" cy="2964.39" r="306.09" gradientTransform="matrix(0.9, 0.43, -0.43, 0.9, -657.46, -5036.97)" xlink:href="#radial-gradient"/><radialGradient id="radial-gradient-9" cx="3704.66" cy="393" r="138.45" xlink:href="#radial-gradient-5"/><linearGradient id="White_Black_2-2" x1="3747.2" y1="643.69" x2="3438.91" y2="824.31" xlink:href="#White_Black_2"/><radialGradient id="radial-gradient-10" cx="797.2" cy="817.66" r="448.74" gradientTransform="matrix(-1, 0, 0, 1, 1143.44, 0)" xlink:href="#radial-gradient"/><linearGradient id="New_Gradient_Swatch_copy_43-5" x1="651.98" y1="555.68" x2="806.51" y2="555.68" gradientTransform="matrix(-1, 0, 0, 1, 1143.44, 0)" xlink:href="#New_Gradient_Swatch_copy_43"/><radialGradient id="radial-gradient-11" cx="72.82" cy="511.63" r="508.76" gradientTransform="matrix(-1, 0, 0, 1, 1143.44, 0)" xlink:href="#radial-gradient"/><linearGradient id="New_Gradient_Swatch_copy_43-6" x1="336.86" y1="436.51" x2="655.24" y2="436.51" gradientTransform="matrix(-1, 0, 0, 1, 1143.44, 0)" xlink:href="#New_Gradient_Swatch_copy_43"/><radialGradient id="radial-gradient-12" cx="446.47" cy="826.83" r="471.11" gradientTransform="matrix(-1, 0, 0, 1, 1143.44, 0)" xlink:href="#radial-gradient"/><linearGradient id="New_Gradient_Swatch_copy_43-7" x1="426.61" y1="555.43" x2="692.83" y2="555.43" gradientTransform="matrix(-1, 0, 0, 1, 1143.44, 0)" xlink:href="#New_Gradient_Swatch_copy_43"/><linearGradient id="New_Gradient_Swatch_copy_36-7" x1="612.92" y1="706.18" x2="773.05" y2="626.49" gradientTransform="matrix(-1, 0, 0, 1, 1143.44, 0)" xlink:href="#New_Gradient_Swatch_copy_36"/><linearGradient id="linear-gradient-12" x1="373.54" y1="685.72" x2="471.77" y2="663.7" gradientTransform="matrix(-1, 0, 0, 1, 1143.44, 0)" xlink:href="#linear-gradient"/><linearGradient id="linear-gradient-13" x1="453.9" y1="615.62" x2="411.75" y2="668.91" gradientTransform="matrix(-1, 0, 0, 1, 1143.44, 0)" xlink:href="#linear-gradient"/><linearGradient id="New_Gradient_Swatch_copy_36-8" x1="373.54" y1="685.72" x2="471.77" y2="663.7" gradientTransform="matrix(-1, 0, 0, 1, 1143.44, 0)" xlink:href="#New_Gradient_Swatch_copy_36"/><linearGradient id="linear-gradient-14" x1="407.35" y1="716.34" x2="505.57" y2="694.32" gradientTransform="matrix(-1, 0, 0, 1, 1143.44, 0)" xlink:href="#linear-gradient"/><linearGradient id="linear-gradient-15" x1="419.54" y1="660.01" x2="465.4" y2="718.33" gradientTransform="matrix(-1, 0, 0, 1, 1143.44, 0)" xlink:href="#linear-gradient"/><linearGradient id="linear-gradient-16" x1="462.82" y1="736.49" x2="561.04" y2="714.47" gradientTransform="matrix(-1, 0, 0, 1, 1143.44, 0)" xlink:href="#linear-gradient"/><linearGradient id="linear-gradient-17" x1="542.48" y1="636.44" x2="492.37" y2="736.92" gradientTransform="matrix(-1, 0, 0, 1, 1143.44, 0)" xlink:href="#linear-gradient"/><linearGradient id="linear-gradient-18" x1="418.9" y1="647.54" x2="493.5" y2="630.82" gradientTransform="matrix(-1, 0, 0, 1, 1143.44, 0)" xlink:href="#linear-gradient"/><linearGradient id="New_Gradient_Swatch_copy_36-9" x1="462.82" y1="736.49" x2="561.04" y2="714.47" gradientTransform="matrix(-1, 0, 0, 1, 1143.44, 0)" xlink:href="#New_Gradient_Swatch_copy_36"/><linearGradient id="linear-gradient-19" x1="426.5" y1="639.95" x2="467.06" y2="626.17" gradientTransform="matrix(-1, 0, 0, 1, 1143.44, 0)" xlink:href="#linear-gradient"/><linearGradient id="New_Gradient_Swatch_copy_36-10" x1="418.9" y1="647.54" x2="493.5" y2="630.82" gradientTransform="matrix(-1, 0, 0, 1, 1143.44, 0)" xlink:href="#New_Gradient_Swatch_copy_36"/><linearGradient id="New_Gradient_Swatch_copy_36-11" x1="407.35" y1="716.34" x2="505.57" y2="694.32" gradientTransform="matrix(-1, 0, 0, 1, 1143.44, 0)" xlink:href="#New_Gradient_Swatch_copy_36"/><linearGradient id="linear-gradient-20" x1="562.96" y1="658.21" x2="611.52" y2="643.67" gradientTransform="matrix(-1, 0, 0, 1, 1143.44, 0)" xlink:href="#linear-gradient"/><linearGradient id="New_Gradient_Swatch_copy_36-12" x1="562.96" y1="658.21" x2="611.52" y2="643.67" gradientTransform="matrix(-1, 0, 0, 1, 1143.44, 0)" xlink:href="#New_Gradient_Swatch_copy_36"/><linearGradient id="New_Gradient_Swatch_copy_35-2" x1="505.18" y1="631.99" x2="540.71" y2="789.2" gradientTransform="matrix(-1, 0, 0, 1, 1143.44, 0)" xlink:href="#New_Gradient_Swatch_copy_35"/><linearGradient id="linear-gradient-21" x1="580.98" y1="708.41" x2="557.52" y2="722.73" gradientTransform="matrix(-1, 0, 0, 1, 1143.44, 0)" xlink:href="#linear-gradient-10"/><linearGradient id="linear-gradient-22" x1="527.35" y1="640.88" x2="497.92" y2="617.55" gradientTransform="matrix(-1, 0, 0, 1, 1143.44, 0)" xlink:href="#linear-gradient-11"/><linearGradient id="White_Black_2-3" x1="561.68" y1="613.37" x2="628.72" y2="318.81" gradientTransform="matrix(-1, 0, 0, 1, 1143.44, 0)" xlink:href="#White_Black_2"/><linearGradient id="New_Gradient_Swatch_copy_43-8" x1="492.61" y1="492.46" x2="696.73" y2="492.46" gradientTransform="matrix(-1, 0, 0, 1, 1143.44, 0)" xlink:href="#New_Gradient_Swatch_copy_43"/><radialGradient id="radial-gradient-13" cx="553.07" cy="594.15" r="350.19" gradientTransform="matrix(-1, 0, 0, 1, 1143.44, 0)" xlink:href="#radial-gradient"/><radialGradient id="radial-gradient-14" cx="839.04" cy="466.07" r="164.74" gradientTransform="matrix(-1, 0, 0, 1, 1143.44, 0)" xlink:href="#radial-gradient-5"/><radialGradient id="radial-gradient-15" cx="587.45" cy="293.86" r="297.92" gradientTransform="matrix(-1, 0, 0, 1, 1143.44, 0)" xlink:href="#radial-gradient"/><radialGradient id="radial-gradient-16" cx="462.52" cy="325.09" r="173.71" gradientTransform="matrix(-1, 0, 0, 1, 1143.44, 0)" xlink:href="#radial-gradient-5"/><radialGradient id="radial-gradient-17" cx="3470.38" cy="4305.13" r="306.09" gradientTransform="matrix(-0.9, 0.43, 0.43, 0.9, 1800.9, -5036.97)" xlink:href="#radial-gradient"/><radialGradient id="radial-gradient-18" cx="566.53" cy="393" r="138.45" gradientTransform="matrix(-1, 0, 0, 1, 1143.44, 0)" xlink:href="#radial-gradient-5"/><linearGradient id="White_Black_2-4" x1="609.08" y1="643.69" x2="300.79" y2="824.31" gradientTransform="matrix(-1, 0, 0, 1, 1143.44, 0)" xlink:href="#White_Black_2"/></defs><g class="cls-1"><g id="Layer_2" data-name="Layer 2"><g id="Layer_1-2" data-name="Layer 1"><path class="cls-2" d="M4236.74,843.27c-65.54,0-1070.58.07-1070.58,0-36.81-37.33-47.66-126.44,32.07-212.49,29.21-31.52-48.27-92,2-188.92,19.12-36.85,95.46-100.19,296.94-51,85.67,20.9,158.36-12.47,174.46-24.52a178.59,178.59,0,0,1,29.63-17.83c110.88-53.65,302.46-19.48,386.08,45,11.85,9.14,65.73,56.44,23.26,121.44C4083.8,556,4196.15,595.17,4236.07,642,4337.58,761.2,4237.66,841.72,4236.74,843.27Z"/><path class="cls-3" d="M3927.23,701.44c49.82-105.43-10.53-238.5-134.79-297.22h0c56.85,26.86,51.07,159.28-11.69,299.68C3823.3,698.65,3905.81,697.07,3927.23,701.44Z"/><path class="cls-4" d="M3923.37,707.37a1.63,1.63,0,0,1-.71-.16,1.66,1.66,0,0,1-.8-2.21c.21-.45,1.24-2.75,2.08-4.64.54-1.22,1-2.26,1.14-2.55,47.05-103.11-13.07-233.5-134-290.66a1.66,1.66,0,1,1,1.42-3c59.56,28.14,106.44,74.25,132,129.83s26.87,114.29,3.63,165.21l-1.12,2.52c-.86,1.92-1.9,4.25-2.11,4.7A1.66,1.66,0,0,1,3923.37,707.37Z"/><path class="cls-5" d="M3792.44,404.22c-124.26-58.72-265.38-20.85-315.2,84.58,23.05,22.19,63.16,62.06,91.1,114.72C3637,465.9,3735.6,377.36,3792.44,404.22Z"/><path class="cls-6" d="M3476.65,496.38a1.63,1.63,0,0,1-.71-.16,1.66,1.66,0,0,1-.79-2.22c.4-.85,3.19-6.75,3.61-7.6,24.64-50.11,70.77-86.23,129.88-101.7s124.33-8.5,183.77,19.59a1.66,1.66,0,0,1-1.42,3c-120.63-57-259.36-20.86-309.25,80.58-.42.85-3.19,6.7-3.59,7.55A1.66,1.66,0,0,1,3476.65,496.38Z"/><path class="cls-7" d="M3792.44,404.22h0c-56.84-26.86-155.47,61.68-224.1,199.3,35.82,4.89,182,75.21,212.41,100.38C3843.51,563.5,3849.29,431.08,3792.44,404.22Z"/><path class="cls-8" d="M3777.21,710.92a1.64,1.64,0,0,1-.68-.15,1.67,1.67,0,0,1-.84-2.19c62.69-140.25,69.48-275.25,15.13-300.93s-154.38,65.25-222.93,202.73a1.67,1.67,0,0,1-3-1.49c33.3-66.77,75-124.82,117.32-163.44,43.22-39.42,82.28-53.91,110-40.81s41.32,52.48,38.3,110.89c-3,57.23-21.36,126.27-51.81,194.4A1.67,1.67,0,0,1,3777.21,710.92Z"/><polygon class="cls-9" points="3611.08 537.2 3745.22 615.24 3822.34 626.25 3688.12 549.75 3611.08 537.2"/><polygon class="cls-10" points="3745.18 615.24 3745.18 746.89 3759.03 739.05 3759.06 736.16 3808.35 706.98 3811.35 708.09 3822.34 701.58 3822.34 626.25 3745.18 615.24"/><polygon class="cls-11" points="3745.22 615.24 3745.22 746.89 3611.08 668.79 3611.08 537.2 3745.22 615.24"/><polygon class="cls-11" points="3755.88 671.52 3814.58 636.25 3814.58 706.18 3811.35 708.09 3808.35 706.98 3759.06 736.16 3759.03 739.05 3755.88 740.92 3755.88 671.52"/><polygon class="cls-12" points="3808.35 706.98 3808.35 643.71 3759.06 673.32 3759.06 736.16 3808.35 706.98"/><polygon class="cls-13" points="3808.35 648.52 3808.35 643.71 3759.06 673.32 3759.06 677.7 3808.35 648.52"/><polygon class="cls-9" points="3808.35 649.45 3808.35 646.89 3759.06 676.5 3759.06 678.63 3808.35 649.45"/><polygon class="cls-9" points="3808.35 654.44 3808.35 651.88 3759.06 681.49 3759.06 683.62 3808.35 654.44"/><polygon class="cls-9" points="3808.35 659.43 3808.35 656.87 3759.06 686.48 3759.06 688.61 3808.35 659.43"/><polygon class="cls-9" points="3808.35 664.42 3808.35 661.85 3759.06 691.47 3759.06 693.59 3808.35 664.42"/><polygon class="cls-9" points="3808.35 669.41 3808.35 666.84 3759.06 696.45 3759.06 698.58 3808.35 669.41"/><polygon class="cls-9" points="3808.35 674.4 3808.35 671.83 3759.06 701.44 3759.06 703.57 3808.35 674.4"/><polygon class="cls-9" points="3808.35 679.38 3808.35 676.82 3759.06 706.43 3759.06 708.56 3808.35 679.38"/><polygon class="cls-9" points="3808.35 684.37 3808.35 681.81 3759.06 711.42 3759.06 713.55 3808.35 684.37"/><polygon class="cls-9" points="3808.35 689.36 3808.35 686.8 3759.06 716.41 3759.06 718.54 3808.35 689.36"/><polygon class="cls-9" points="3808.35 694.35 3808.35 691.79 3759.06 721.4 3759.06 723.53 3808.35 694.35"/><polygon class="cls-9" points="3808.35 699.34 3808.35 696.78 3759.06 726.39 3759.06 728.52 3808.35 699.34"/><polygon class="cls-9" points="3808.35 704.33 3808.35 701.76 3759.06 731.38 3759.06 733.5 3808.35 704.33"/><polygon class="cls-11" points="3671.26 693.26 3671.26 777.09 3534.01 698.75 3534.01 614.45 3671.26 693.26"/><polygon class="cls-9" points="3671.26 694.05 3735.63 583.34 3598.38 505 3534.01 615.24 3671.26 694.05"/><polygon class="cls-14" points="3543.61 703.86 3543.61 630.41 3572.92 647.59 3572.92 720.91 3543.61 703.86"/><polygon class="cls-15" points="3569.74 649.41 3569.74 715.38 3546.79 702.03 3546.79 635.96 3569.74 649.41"/><polygon class="cls-10" points="3671.26 777.09 3671.26 694.05 3735.35 582.5 3735.35 741.22 3671.26 777.09"/><polygon class="cls-10" points="3674.43 589.44 3615.13 624.12 3615.13 756.74 3624.79 751.08 3624.79 667.18 3674.43 589.44"/><polygon class="cls-16" points="3549.71 700.57 3569.74 712.23 3569.74 649.41 3549.71 637.67 3549.71 700.57"/><polygon class="cls-17" points="3549.71 700.57 3569.74 649.41 3549.71 637.67 3549.71 700.57"/><path class="cls-18" d="M3549.71,637.67v62.9l20,11.66V649.41Zm18.44,71.79-16.85-9.8V640.45l16.85,9.87Z"/><polygon class="cls-11" points="3615.13 624.12 3615.13 756.74 3569 729.9 3569 597.08 3615.13 624.12"/><polygon class="cls-14" points="3577.41 734.48 3577.41 661.03 3606.72 678.21 3606.72 751.53 3577.41 734.48"/><polygon class="cls-15" points="3603.54 680.03 3603.54 746 3580.59 732.65 3580.59 666.58 3603.54 680.03"/><polygon class="cls-14" points="3632.89 754.63 3632.89 681.18 3662.2 698.36 3662.2 771.68 3632.89 754.63"/><polygon class="cls-15" points="3659.01 700.18 3659.01 766.15 3636.07 752.8 3636.07 686.73 3659.01 700.18"/><polygon class="cls-14" points="3577.41 651.38 3577.41 611.72 3606.72 628.9 3606.72 668.43 3577.41 651.38"/><polygon class="cls-15" points="3603.54 630.72 3603.54 662.89 3580.59 649.54 3580.59 617.27 3603.54 630.72"/><polygon class="cls-19" points="3583.51 731.19 3603.54 742.85 3603.54 680.03 3583.51 668.29 3583.51 731.19"/><polygon class="cls-20" points="3583.51 731.19 3603.54 680.03 3583.51 668.29 3583.51 731.19"/><polygon class="cls-21" points="3638.99 751.34 3659.01 763 3659.01 700.18 3638.99 688.44 3638.99 751.34"/><polygon class="cls-22" points="3638.99 751.34 3659.01 700.18 3638.99 688.44 3638.99 751.34"/><polygon class="cls-23" points="3583.51 648.09 3603.54 659.74 3603.54 630.72 3583.51 618.98 3583.51 648.09"/><path class="cls-24" d="M3639,688.44v62.9L3659,763V700.18Zm18.44,71.79-16.84-9.8V691.22l16.84,9.87Z"/><polygon class="cls-25" points="3583.51 648.09 3603.54 630.72 3583.51 618.98 3583.51 648.09"/><path class="cls-26" d="M3583.51,619v29.11l20,11.65v-29ZM3602,657l-16.85-9.8V621.76l16.85,9.87Z"/><path class="cls-27" d="M3583.51,668.29v62.9l20,11.66V680ZM3602,740.08l-16.85-9.8V671.07l16.85,9.87Z"/><polygon class="cls-11" points="3688.45 685.24 3693.49 682.35 3723.03 665.16 3723.03 622.28 3688.45 685.24"/><polygon class="cls-14" points="3696.9 676.68 3719.85 663.33 3719.85 635.04 3696.9 676.68"/><polygon class="cls-11" points="3688.98 693.97 3723.03 674.49 3723.03 747.94 3688.98 767.29 3688.98 693.97"/><polygon class="cls-14" points="3692.16 695.79 3692.16 761.76 3719.85 746.11 3719.85 680.04 3692.16 695.79"/><polygon class="cls-9" points="3717.2 744.65 3717.2 681.59 3692.16 695.79 3692.16 758.76 3717.2 744.65"/><path class="cls-13" d="M3692.16,695.79v63l25-14.11V681.59Zm23.45,47.93L3693.76,756V696.72l21.85-12.4Z"/><polygon class="cls-28" points="3717.2 639.85 3699.34 672.27 3717.2 661.88 3717.2 639.85"/><path class="cls-29" d="M3699.34,672.27l17.86-10.39v-22ZM3715.61,661l-12.11,7,12.11-22Z"/><polygon class="cls-9" points="3615.13 624.12 3674.43 589.44 3628.3 562.6 3569 597.08 3615.13 624.12"/><polygon class="cls-11" points="3681.41 779.2 3681.41 783.07 3745.27 746.83 3745.27 742.96 3681.41 779.2"/><polygon class="cls-30" points="3681.43 779.2 3681.43 783.07 3671.24 777.09 3671.24 773.24 3681.43 779.2"/><polygon class="cls-10" points="3671.24 773.24 3681.43 779.2 3745.27 742.96 3735.33 737.19 3671.24 773.24"/><path class="cls-31" d="M3697.94,721.38a3.6,3.6,0,0,1-1.63,2.82c-.91.52-1.64.1-1.64-.93a3.58,3.58,0,0,1,1.64-2.82C3697.21,719.92,3697.94,720.34,3697.94,721.38Z"/><polygon class="cls-32" points="3624.79 667.18 3674.43 589.44 3638.74 675.17 3624.79 667.18"/><polygon class="cls-11" points="3671.24 773.24 3745.27 742.96 3735.33 737.19 3671.24 773.24"/><polygon class="cls-14" points="3808.35 643.71 3808.35 706.98 3811.35 708.09 3811.35 642.09 3808.35 643.71"/><rect class="cls-33" x="3475.21" y="618.75" width="423.55" height="12.03" transform="translate(1516.76 3670.15) rotate(-64.14)"/><path class="cls-33" d="M3754.8,491.29a6,6,0,0,1-5.42-8.63l45.74-95.21a6,6,0,0,1,10.85,5.22l-45.74,95.2A6,6,0,0,1,3754.8,491.29Z"/><rect class="cls-34" x="3473.28" y="621.97" width="423.55" height="4.3" transform="translate(1516.98 3668.56) rotate(-64.16)"/><rect class="cls-35" x="3474.57" y="623.48" width="420.11" height="0.86" transform="translate(1516.39 3667.67) rotate(-64.15)"/><path class="cls-34" d="M3753.51,486.34a2.21,2.21,0,0,1-.93-.21,2.14,2.14,0,0,1-1-2.87l45.74-95.21a2.15,2.15,0,0,1,3.87,1.87l-45.74,95.2A2.15,2.15,0,0,1,3753.51,486.34Z"/><path class="cls-35" d="M3753.08,484.41a.58.58,0,0,1-.18,0,.43.43,0,0,1-.2-.58l45.74-95.21a.41.41,0,0,1,.39-.24.39.39,0,0,1,.18,0,.44.44,0,0,1,.2.58l-45.74,95.2A.44.44,0,0,1,3753.08,484.41Z"/><rect class="cls-34" x="3480.01" y="626.63" width="420.11" height="0.86" transform="translate(1516.62 3674.34) rotate(-64.15)"/><path class="cls-34" d="M3758.53,487.56a.41.41,0,0,1-.19,0,.44.44,0,0,1-.2-.58l45.74-95.2a.44.44,0,0,1,.39-.25.53.53,0,0,1,.18,0,.44.44,0,0,1,.21.58l-45.74,95.21A.43.43,0,0,1,3758.53,487.56Z"/><path class="cls-36" d="M3792.44,404.22c-124.26-58.72-265.38-20.85-315.2,84.58a613.81,613.81,0,0,1,45,47.45,183.08,183.08,0,0,1,72.7,24.15c53.88-2.19,167.09,48,195.54,92.4,75.8-13.09,154.44,2.69,142,29,6.79-14.38,10.68-31.65,12.06-50.88C3948.28,542.46,3890.11,450.38,3792.44,404.22Z"/><path class="cls-37" d="M3825.75,585.74l-.28,0a1.71,1.71,0,0,1-1.37-2,14.32,14.32,0,0,1,.92-2.53c.27-.68.68-1.7.74-1.94,14.41-92.06,1.75-154.82-34.74-172.06s-92.73,12.68-154.59,82c-.16.2-.79,1.29-1.2,2a18.11,18.11,0,0,1-1.59,2.55,1.65,1.65,0,0,1-2.34.15,1.67,1.67,0,0,1-.15-2.35c.16-.2.78-1.29,1.2-2A19,19,0,0,1,3634,487c62.91-70.46,120.68-100.62,158.49-82.76s51.26,82,36.59,175.69a15.74,15.74,0,0,1-.93,2.56c-.27.67-.67,1.68-.74,1.92A1.6,1.6,0,0,1,3825.75,585.74Z"/><path class="cls-38" d="M3927.23,701.44c49.82-105.43-10.53-238.5-134.79-297.22h0c39.28,18.56,50.32,86.11,35.85,177.23C3898.5,627.78,3939.68,675.09,3927.23,701.44Z"/><path class="cls-39" d="M3931.41,636.6c-21.54-27.87-55.6-53.89-79.35-70.22,6.31-45.07,6.24-83.22.05-113.33C3909.15,502.44,3939.27,571.6,3931.41,636.6Z"/><path class="cls-40" d="M3792.44,404.22c-124.26-58.72-265.38-20.85-315.2,84.58,12.45-26.35,87.82-39.43,155.52.25C3694,420,3753.16,385.66,3792.44,404.22Z"/><path class="cls-41" d="M3629.06,460.66c-27.21-13.47-57.42-20.8-86.43-20.8-5,0-9.82.21-14.49.62,35.53-33.92,86.58-53.59,143.64-53.59a254,254,0,0,1,43,3.71C3683.4,407.14,3653.32,434.55,3629.06,460.66Z"/><path class="cls-42" d="M3792.44,404.22h0c-39.28-18.56-98.48,15.8-159.68,84.83,53.88-2.19,167.08,48,195.53,92.4C3842.76,490.33,3831.72,422.78,3792.44,404.22Z"/><path class="cls-43" d="M3764.06,526.75c-26.27-21.43-68.61-40.22-101.5-46.95,26.68-26.27,86.49-73.63,104.5-73.63a25.2,25.2,0,0,1,11,2.31C3795.49,416.73,3779.1,474.59,3764.06,526.75Z"/><path class="cls-44" d="M3550.41,835.94l5.32,3.11a31.06,31.06,0,0,0,31,.2l89-59,47.65-200.56-20.26-11.78-44.84,207.29Z"/><path class="cls-45" d="M3640,742.94s0,0,0,0c.75-1.54-2.37-4.6-7-6.83s-8.94-2.79-9.69-1.25c0,0,0,0,0,0l-.21-.1-37,76.45a22.15,22.15,0,0,1-39.87-19.32l8.27-17.07-.23-.1,0,0c.74-1.54-2.38-4.61-7-6.84s-8.94-2.79-9.69-1.24v0l-.13-.06-8.27,17.06a41.07,41.07,0,0,0,73.91,35.82l37-76.45Z"/><path class="cls-46" d="M3563.16,837.12a36.41,36.41,0,0,1-15.09-3.27,36,36,0,0,1-19-20.77,38.43,38.43,0,0,1,1.5-29.67l6.71-13.85a5.19,5.19,0,0,1,4.64-2.91,5,5,0,0,1,2.25.52,5.14,5.14,0,0,1,2.39,6.89l-6.84,14.12a27.31,27.31,0,0,0-2.09,18.87,26.53,26.53,0,0,0,19,18.92,25,25,0,0,0,10,.63A26.42,26.42,0,0,0,3587,811.87l35.92-74.13a5.16,5.16,0,0,1,9.28,4.5l-35.92,74.13a36.86,36.86,0,0,1-33.11,20.75Z"/><path class="cls-47" d="M3563.16,834.54a34,34,0,0,1-14-3c-17.61-8-24.7-29.58-16.28-47l6.71-13.85a2.58,2.58,0,0,1,3.45-1.19h0a2.57,2.57,0,0,1,1.19,3.44l-6.84,14.13a29.94,29.94,0,0,0-2.26,20.66,29,29,0,0,0,20.81,20.74,27.5,27.5,0,0,0,11,.69A29.05,29.05,0,0,0,3589.31,813l35.92-74.12a2.58,2.58,0,0,1,3.44-1.2h0a2.59,2.59,0,0,1,1.2,3.45L3594,815.24a34.3,34.3,0,0,1-30.79,19.3Z"/><path class="cls-48" d="M3562.51,832.61a32.27,32.27,0,0,1-13.32-2.89,31.74,31.74,0,0,1-16.77-18.32,34.13,34.13,0,0,1,1.33-26.33l6.72-13.85a.85.85,0,0,1,.77-.49.81.81,0,0,1,.37.09.86.86,0,0,1,.4,1.15l-6.84,14.12a31.57,31.57,0,0,0-2.37,21.85,30.74,30.74,0,0,0,22,22,29.43,29.43,0,0,0,7.65,1,29,29,0,0,0,4.06-.28,30.63,30.63,0,0,0,23.68-17.11l35.92-74.13a.84.84,0,0,1,.77-.48,1,1,0,0,1,.38.08.87.87,0,0,1,.4,1.15l-35.93,74.13a32.58,32.58,0,0,1-29.24,18.33Z"/><g class="cls-49"><path class="cls-48" d="M3549.28,775.08l-6.72,13.85c-1.43,3-1.78,7.41-1.7,11.65A33.15,33.15,0,0,1,3544,790l6.84-14.13a.85.85,0,0,0-.4-1.14.78.78,0,0,0-.37-.09A.86.86,0,0,0,3549.28,775.08Z"/><path class="cls-48" d="M3636.09,742.87a.84.84,0,0,0-.37-.09.85.85,0,0,0-.78.49L3599,817.4a30.76,30.76,0,0,1-6.84,9.25,40.49,40.49,0,0,1-8.79,7.45,32.21,32.21,0,0,0,17.18-16L3636.49,744A.87.87,0,0,0,3636.09,742.87Z"/></g><path class="cls-2" d="M44.83,843.27c65.54,0,1070.57.07,1070.57,0,36.82-37.33,47.66-126.44-32.07-212.49-29.2-31.52,48.28-92-2-188.92-19.11-36.85-95.46-100.19-296.93-51C698.71,411.72,626,378.35,609.92,366.3a179,179,0,0,0-29.63-17.83c-110.88-53.65-302.46-19.48-386.08,45-11.85,9.14-65.74,56.44-23.27,121.44C197.76,556,85.41,595.17,45.49,642-56,761.2,43.91,841.72,44.83,843.27Z"/><path class="cls-50" d="M354.34,701.44C304.52,596,364.86,462.94,489.12,404.22h0c-56.84,26.86-51.06,159.28,11.69,299.68C458.27,698.65,375.76,697.07,354.34,701.44Z"/><path class="cls-51" d="M358.2,707.37a1.63,1.63,0,0,0,.71-.16,1.66,1.66,0,0,0,.79-2.21c-.21-.45-1.23-2.75-2.07-4.64-.55-1.22-1-2.26-1.14-2.55-47.06-103.11,13.07-233.5,134-290.66a1.66,1.66,0,1,0-1.42-3c-59.57,28.14-106.44,74.25-132,129.83s-26.86,114.29-3.63,165.21l1.13,2.52c.85,1.92,1.89,4.25,2.11,4.7A1.66,1.66,0,0,0,358.2,707.37Z"/><path class="cls-52" d="M489.12,404.22c124.27-58.72,265.39-20.85,315.21,84.58-23.05,22.19-63.16,62.06-91.11,114.72C644.6,465.9,546,377.36,489.12,404.22Z"/><path class="cls-53" d="M804.92,496.38a1.63,1.63,0,0,0,.71-.16,1.67,1.67,0,0,0,.79-2.22c-.41-.85-3.2-6.75-3.61-7.6C778.16,436.29,732,400.17,672.93,384.7s-124.33-8.5-183.77,19.59a1.66,1.66,0,1,0,1.42,3c120.62-57,259.36-20.86,309.24,80.58.42.85,3.19,6.7,3.59,7.55A1.69,1.69,0,0,0,804.92,496.38Z"/><path class="cls-54" d="M489.12,404.22h0C546,377.36,644.6,465.9,713.22,603.52c-35.82,4.89-182,75.21-212.41,100.38C438.06,563.5,432.28,431.08,489.12,404.22Z"/><path class="cls-55" d="M504.36,710.92a1.63,1.63,0,0,0,.67-.15,1.65,1.65,0,0,0,.84-2.19c-62.69-140.25-69.47-275.25-15.13-300.93S645.12,472.9,713.68,610.38a1.66,1.66,0,1,0,3-1.49c-33.29-66.77-75-124.82-117.32-163.44-43.21-39.42-82.28-53.91-110-40.81S448,457.12,451,515.53c3,57.23,21.37,126.27,51.82,194.4A1.66,1.66,0,0,0,504.36,710.92Z"/><polygon class="cls-9" points="670.49 537.2 536.35 615.24 459.23 626.25 593.45 549.75 670.49 537.2"/><polygon class="cls-10" points="536.39 615.24 536.39 746.89 522.53 739.05 522.51 736.16 473.22 706.98 470.22 708.09 459.23 701.58 459.23 626.25 536.39 615.24"/><polygon class="cls-11" points="536.35 615.24 536.35 746.89 670.49 668.79 670.49 537.2 536.35 615.24"/><polygon class="cls-11" points="525.69 671.52 466.99 636.25 466.99 706.18 470.22 708.09 473.22 706.98 522.51 736.16 522.53 739.05 525.69 740.92 525.69 671.52"/><polygon class="cls-56" points="473.22 706.98 473.22 643.71 522.51 673.32 522.51 736.16 473.22 706.98"/><polygon class="cls-13" points="473.22 648.52 473.22 643.71 522.51 673.32 522.51 677.7 473.22 648.52"/><polygon class="cls-9" points="473.22 649.45 473.22 646.89 522.51 676.5 522.51 678.63 473.22 649.45"/><polygon class="cls-9" points="473.22 654.44 473.22 651.88 522.51 681.49 522.51 683.62 473.22 654.44"/><polygon class="cls-9" points="473.22 659.43 473.22 656.87 522.51 686.48 522.51 688.61 473.22 659.43"/><polygon class="cls-9" points="473.22 664.42 473.22 661.85 522.51 691.47 522.51 693.59 473.22 664.42"/><polygon class="cls-9" points="473.22 669.41 473.22 666.84 522.51 696.45 522.51 698.58 473.22 669.41"/><polygon class="cls-9" points="473.22 674.4 473.22 671.83 522.51 701.44 522.51 703.57 473.22 674.4"/><polygon class="cls-9" points="473.22 679.38 473.22 676.82 522.51 706.43 522.51 708.56 473.22 679.38"/><polygon class="cls-9" points="473.22 684.37 473.22 681.81 522.51 711.42 522.51 713.55 473.22 684.37"/><polygon class="cls-9" points="473.22 689.36 473.22 686.8 522.51 716.41 522.51 718.54 473.22 689.36"/><polygon class="cls-9" points="473.22 694.35 473.22 691.79 522.51 721.4 522.51 723.53 473.22 694.35"/><polygon class="cls-9" points="473.22 699.34 473.22 696.78 522.51 726.39 522.51 728.52 473.22 699.34"/><polygon class="cls-9" points="473.22 704.33 473.22 701.76 522.51 731.38 522.51 733.5 473.22 704.33"/><polygon class="cls-11" points="610.31 693.26 610.31 777.09 747.56 698.75 747.56 614.45 610.31 693.26"/><polygon class="cls-9" points="610.31 694.05 545.94 583.34 683.19 505 747.56 615.24 610.31 694.05"/><polygon class="cls-14" points="737.95 703.86 737.95 630.41 708.64 647.59 708.64 720.91 737.95 703.86"/><polygon class="cls-15" points="711.83 649.41 711.83 715.38 734.77 702.03 734.77 635.96 711.83 649.41"/><polygon class="cls-10" points="610.31 777.09 610.31 694.05 546.22 582.5 546.22 741.22 610.31 777.09"/><polygon class="cls-10" points="607.14 589.44 666.43 624.12 666.43 756.74 656.78 751.08 656.78 667.18 607.14 589.44"/><polygon class="cls-57" points="731.86 700.57 711.83 712.23 711.83 649.41 731.86 637.67 731.86 700.57"/><polygon class="cls-58" points="731.86 700.57 711.83 649.41 731.86 637.67 731.86 700.57"/><path class="cls-59" d="M711.83,649.41v62.82l20-11.66v-62.9Zm1.59.91,16.85-9.87v59.21l-16.85,9.8Z"/><polygon class="cls-11" points="666.43 624.12 666.43 756.74 712.56 729.9 712.56 597.08 666.43 624.12"/><polygon class="cls-14" points="704.15 734.48 704.15 661.03 674.84 678.21 674.84 751.53 704.15 734.48"/><polygon class="cls-15" points="678.02 680.03 678.02 746 700.97 732.65 700.97 666.58 678.02 680.03"/><polygon class="cls-14" points="648.68 754.63 648.68 681.18 619.37 698.36 619.37 771.68 648.68 754.63"/><polygon class="cls-15" points="622.55 700.18 622.55 766.15 645.5 752.8 645.5 686.73 622.55 700.18"/><polygon class="cls-14" points="704.15 651.38 704.15 611.72 674.84 628.9 674.84 668.43 704.15 651.38"/><polygon class="cls-15" points="678.02 630.72 678.02 662.89 700.97 649.54 700.97 617.27 678.02 630.72"/><polygon class="cls-60" points="698.06 731.19 678.03 742.85 678.03 680.03 698.06 668.29 698.06 731.19"/><polygon class="cls-61" points="698.06 731.19 678.03 680.03 698.06 668.29 698.06 731.19"/><polygon class="cls-62" points="642.58 751.34 622.55 763 622.55 700.18 642.58 688.44 642.58 751.34"/><polygon class="cls-63" points="642.58 751.34 622.55 700.18 642.58 688.44 642.58 751.34"/><polygon class="cls-64" points="698.06 648.09 678.03 659.74 678.03 630.72 698.06 618.98 698.06 648.09"/><path class="cls-65" d="M622.55,700.18V763l20-11.66v-62.9Zm1.59.91L641,691.22v59.21l-16.85,9.8Z"/><polygon class="cls-66" points="698.06 648.09 678.03 630.72 698.06 618.98 698.06 648.09"/><path class="cls-67" d="M678,630.72v29l20-11.65V619Zm1.59.91,16.84-9.87v25.41L679.62,657Z"/><path class="cls-68" d="M678,680v62.82l20-11.66v-62.9Zm1.59.91,16.84-9.87v59.21l-16.84,9.8Z"/><polygon class="cls-11" points="593.11 685.24 588.08 682.35 558.53 665.16 558.53 622.28 593.11 685.24"/><polygon class="cls-14" points="584.66 676.68 561.72 663.33 561.72 635.04 584.66 676.68"/><polygon class="cls-11" points="592.58 693.97 558.53 674.49 558.53 747.94 592.58 767.29 592.58 693.97"/><polygon class="cls-14" points="589.4 695.79 589.4 761.76 561.72 746.11 561.72 680.04 589.4 695.79"/><polygon class="cls-9" points="564.37 744.65 564.37 681.59 589.4 695.79 589.4 758.76 564.37 744.65"/><path class="cls-13" d="M564.37,681.59v63.06l25,14.11v-63Zm1.59,2.73,21.85,12.4V756L566,743.72Z"/><polygon class="cls-69" points="564.37 639.85 582.23 672.27 564.37 661.88 564.37 639.85"/><path class="cls-70" d="M564.37,639.85v22l17.86,10.39ZM566,646l12.11,22L566,661Z"/><polygon class="cls-9" points="666.43 624.12 607.14 589.44 653.27 562.6 712.56 597.08 666.43 624.12"/><polygon class="cls-11" points="600.16 779.2 600.16 783.07 536.3 746.83 536.3 742.96 600.16 779.2"/><polygon class="cls-71" points="600.14 779.2 600.14 783.07 610.33 777.09 610.33 773.24 600.14 779.2"/><polygon class="cls-10" points="610.33 773.24 600.14 779.2 536.3 742.96 546.24 737.19 610.33 773.24"/><path class="cls-72" d="M583.62,721.38a3.61,3.61,0,0,0,1.64,2.82c.9.52,1.64.1,1.64-.93a3.61,3.61,0,0,0-1.64-2.82C584.36,719.92,583.62,720.34,583.62,721.38Z"/><polygon class="cls-73" points="656.78 667.18 607.14 589.44 642.82 675.17 656.78 667.18"/><polygon class="cls-11" points="610.33 773.24 536.3 742.96 546.24 737.19 610.33 773.24"/><polygon class="cls-14" points="473.22 643.71 473.22 706.98 470.22 708.09 470.22 642.09 473.22 643.71"/><rect class="cls-33" x="588.56" y="412.99" width="12.03" height="423.55" transform="translate(-212.95 321.86) rotate(-25.86)"/><path class="cls-33" d="M526.77,491.29a6,6,0,0,0,5.42-8.63l-45.74-95.21a6,6,0,0,0-10.85,5.22l45.74,95.2A6,6,0,0,0,526.77,491.29Z"/><rect class="cls-34" x="594.36" y="412.35" width="4.3" height="423.55" transform="translate(-212.41 322.45) rotate(-25.84)"/><rect class="cls-35" x="596.51" y="413.85" width="0.86" height="420.11" transform="translate(-212.32 322.76) rotate(-25.85)"/><path class="cls-34" d="M528.05,486.34a2.15,2.15,0,0,0,1.94-3.08l-45.74-95.21a2.15,2.15,0,0,0-3.88,1.87l45.74,95.2A2.15,2.15,0,0,0,528.05,486.34Z"/><path class="cls-35" d="M528.48,484.41a.58.58,0,0,0,.19,0,.45.45,0,0,0,.2-.58l-45.74-95.21a.43.43,0,0,0-.39-.24.37.37,0,0,0-.18,0,.44.44,0,0,0-.21.58l45.74,95.2A.44.44,0,0,0,528.48,484.41Z"/><rect class="cls-34" x="591.07" y="417" width="0.86" height="420.11" transform="translate(-214.24 320.7) rotate(-25.85)"/><path class="cls-34" d="M523,487.56a.39.39,0,0,0,.18,0,.44.44,0,0,0,.21-.58l-45.74-95.2a.44.44,0,0,0-.39-.25.58.58,0,0,0-.19,0,.45.45,0,0,0-.2.58l45.74,95.21A.43.43,0,0,0,523,487.56Z"/><path class="cls-74" d="M489.12,404.22c124.27-58.72,265.39-20.85,315.21,84.58a613.66,613.66,0,0,0-45,47.45,183.08,183.08,0,0,0-72.7,24.15c-53.88-2.19-167.08,48-195.53,92.4-75.8-13.09-154.45,2.69-142,29-6.8-14.38-10.69-31.65-12.06-50.88C333.29,542.46,391.45,450.38,489.12,404.22Z"/><path class="cls-75" d="M455.82,585.74l.28,0a1.71,1.71,0,0,0,1.37-2,16.56,16.56,0,0,0-.92-2.53c-.27-.68-.68-1.7-.75-1.94-14.4-92.06-1.75-154.82,34.74-172.06s92.74,12.68,154.6,82c.16.2.78,1.29,1.2,2a19.65,19.65,0,0,0,1.58,2.55,1.66,1.66,0,1,0,2.49-2.2c-.16-.2-.78-1.29-1.19-2a20.1,20.1,0,0,0-1.6-2.58c-62.91-70.46-120.68-100.62-158.5-82.76s-51.25,82-36.58,175.69a16.23,16.23,0,0,0,.92,2.56c.27.67.68,1.68.75,1.92A1.6,1.6,0,0,0,455.82,585.74Z"/><path class="cls-76" d="M354.34,701.44C304.52,596,364.86,462.94,489.12,404.22h0c-39.27,18.56-50.32,86.11-35.84,177.23C383.06,627.78,341.88,675.09,354.34,701.44Z"/><path class="cls-77" d="M350.15,636.6c21.55-27.87,55.6-53.89,79.36-70.22-6.32-45.07-6.25-83.22-.05-113.33C372.41,502.44,342.3,571.6,350.15,636.6Z"/><path class="cls-78" d="M489.12,404.22c124.27-58.72,265.39-20.85,315.21,84.58-12.46-26.35-87.82-39.43-155.52.25C587.6,420,528.4,385.66,489.12,404.22Z"/><path class="cls-79" d="M652.5,460.66c27.21-13.47,57.42-20.8,86.44-20.8,5,0,9.81.21,14.49.62-35.53-33.92-86.58-53.59-143.64-53.59a254.07,254.07,0,0,0-43,3.71C598.17,407.14,628.24,434.55,652.5,460.66Z"/><path class="cls-80" d="M489.12,404.22h0c39.28-18.56,98.48,15.8,159.69,84.83-53.88-2.19-167.09,48-195.53,92.4C438.8,490.33,449.85,422.78,489.12,404.22Z"/><path class="cls-81" d="M517.5,526.75c26.28-21.43,68.61-40.22,101.51-46.95-26.68-26.27-86.5-73.63-104.51-73.63a25.2,25.2,0,0,0-11,2.31C486.07,416.73,502.47,474.59,517.5,526.75Z"/><path class="cls-82" d="M731.16,835.94l-5.32,3.11a31.06,31.06,0,0,1-31,.2l-89.05-59L558.14,579.72l20.26-11.78,44.84,207.29Z"/><path class="cls-45" d="M641.54,742.94l0,0c-.75-1.54,2.38-4.6,7-6.83s8.95-2.79,9.7-1.25a.07.07,0,0,0,0,0l.2-.1,37.05,76.45a22.15,22.15,0,0,0,39.87-19.32L727,774.83l.22-.1v0c-.75-1.54,2.38-4.61,7-6.84s8.95-2.79,9.7-1.24v0l.13-.06,8.27,17.06a41.07,41.07,0,0,1-73.91,35.82l-37-76.45Z"/><path class="cls-46" d="M718.41,837.12a36.41,36.41,0,0,0,15.09-3.27,36,36,0,0,0,19-20.77A38.39,38.39,0,0,0,751,783.41l-6.71-13.85a5.18,5.18,0,0,0-4.64-2.91,5.16,5.16,0,0,0-4.87,3.47,5.13,5.13,0,0,0,.23,3.94l6.85,14.12A27.36,27.36,0,0,1,744,807.05,26.51,26.51,0,0,1,725,826a25,25,0,0,1-10,.63,26.4,26.4,0,0,1-20.41-14.73l-35.92-74.13a5.21,5.21,0,0,0-4.64-2.91,5.16,5.16,0,0,0-4.64,7.41l35.92,74.13a36.86,36.86,0,0,0,33.11,20.75Z"/><path class="cls-47" d="M718.41,834.54a34.06,34.06,0,0,0,14-3c17.61-8,24.7-29.58,16.27-47L742,770.68a2.56,2.56,0,0,0-3.44-1.19h0a2.58,2.58,0,0,0-1.2,3.44l6.85,14.13a29.88,29.88,0,0,1,2.25,20.66,29,29,0,0,1-20.8,20.74,27.55,27.55,0,0,1-11,.69A29.05,29.05,0,0,1,692.26,813l-35.92-74.12a2.59,2.59,0,0,0-3.45-1.2h0a2.58,2.58,0,0,0-1.19,3.45l35.92,74.12a34.28,34.28,0,0,0,30.79,19.3Z"/><path class="cls-48" d="M719.06,832.61a32.23,32.23,0,0,0,13.31-2.89,31.7,31.7,0,0,0,16.77-18.32,34.08,34.08,0,0,0-1.33-26.33l-6.71-13.85a.85.85,0,0,0-1.15-.4.87.87,0,0,0-.4,1.15l6.85,14.12a31.57,31.57,0,0,1,2.37,21.85,30.78,30.78,0,0,1-22,22,29.49,29.49,0,0,1-7.65,1,28.85,28.85,0,0,1-4.06-.28,30.63,30.63,0,0,1-23.68-17.11L655.44,739.4a.86.86,0,0,0-.78-.48,1,1,0,0,0-.37.08.86.86,0,0,0-.4,1.15l35.92,74.13a32.6,32.6,0,0,0,29.25,18.33Z"/><g class="cls-49"><path class="cls-48" d="M732.29,775.08,739,788.93c1.43,3,1.78,7.41,1.71,11.65A33.41,33.41,0,0,0,737.59,790l-6.85-14.13a.86.86,0,0,1,.4-1.14.84.84,0,0,1,.37-.09A.86.86,0,0,1,732.29,775.08Z"/><path class="cls-48" d="M645.48,742.87a.81.81,0,0,1,.37-.09.85.85,0,0,1,.77.49l35.93,74.13a30.76,30.76,0,0,0,6.84,9.25,40.67,40.67,0,0,0,8.78,7.45,32.19,32.19,0,0,1-17.17-16L645.08,744A.86.86,0,0,1,645.48,742.87Z"/></g><rect class="cls-83" x="0.84" y="843.3" width="4280.72" height="1.68" rx="0.84"/><rect class="cls-84" width="4281.57" height="843.3"/></g></g></g></svg>