<svg id="Layer_1" data-name="Layer 1" xmlns="http://www.w3.org/2000/svg" viewBox="0 0 500 500"><defs><style>.cls-1{fill:#fff;}.cls-2{fill:#231f20;}</style></defs><circle class="cls-1" cx="250" cy="250" r="200"/><path class="cls-2" d="M421.66,205c4.83,12.62,10.64,38.82,10,59.83-.69,24.23-5.59,46.74-14.56,66.9-9.09,20.41-22.6,38.95-40.15,55.11a169.35,169.35,0,0,1-55.47,34.35,167.18,167.18,0,0,1-58.89,10.6,173.75,173.75,0,0,1-53.5-8.51l2-1,1.51-.77,1.9-1-.3-2.12q-.48-3.27-1-6.52c-.71-4.62-1.45-9.4-2-14.08-2.53-23.44-4.65-44.32-6.5-63.86a15.56,15.56,0,0,1,.91-5.19c.15-.49.29-1,.42-1.48.9-3.41,1.9-7.11,3-11,2,5,6.14,8.05,11.26,8.05a15.1,15.1,0,0,0,6.55-1.6,29.54,29.54,0,0,0,6.36-4.55c1.07-.92,2.08-1.79,3.15-2.56.76-.54,2.34-1.67,2.94-1.67,10.93.12,21.65.46,31.85,1a5.75,5.75,0,0,1,1.57,1.68,38.46,38.46,0,0,1,2,4,29.38,29.38,0,0,0,3.85,6.71c3,3.65,6.72,5.58,10.69,5.58s7.7-1.9,10.87-5.49a38.68,38.68,0,0,0,2.93-3.85c.43,1.59.87,3.15,1.37,4.72,6.82,21.25,20.35,38,40.22,49.85a7.31,7.31,0,0,1,2.89,3.71c1.16,4,2,8.12,2.95,12.52.38,1.85.78,3.77,1.22,5.75l1,4.64,3.75-2.92c1.67-1.3,3.35-2.58,5-3.81,3.64-2.77,7.08-5.39,10.43-8.27a161.43,161.43,0,0,0,32.61-37.94,19.8,19.8,0,0,0,2.49-7.78v4.27l5.69-11.46A167.15,167.15,0,0,0,428.7,284a172.46,172.46,0,0,0-5.32-69.16c-.89-3.19-2.56-4.91-5-5.13a9.64,9.64,0,0,0,3.27-4.74m-107.19,24.2.26.4.41.62.4.62.46.71a22.12,22.12,0,0,0-4.22,1.45,2.69,2.69,0,0,1,1-1.3,5.16,5.16,0,0,0,1.72-2.5m-117,151.94,0,.19-.42.26.39-.45m-37.26,13,2.5,2.39c7.33,7,28.79,19,37.64,21l4.42,1-.15-.88a22.83,22.83,0,0,0,1.56,2.07c.41.51.81,1,1.11,1.45l1.21,1.8q-2.68-.88-5.32-1.86a150.84,150.84,0,0,1-44.94-25.86l1.1-.66.87-.51m260.19-198a53.25,53.25,0,0,0-1.13,5.71c-.35,3.73-2.08,5.83-5.77,7.19-14.7,5.46-29.23,11.37-43.93,16.83a8.23,8.23,0,0,1-2.78.44,10.19,10.19,0,0,1-4.09-.82A115.29,115.29,0,0,1,346,216.62,16.21,16.21,0,0,0,327,215.8c-5.92,3.38-13.6,4.24-15.45,12.55a2.32,2.32,0,0,1-.79,1c-2.93,2.54-2.28,5.2-.8,7.58,2.57-1,4.76-2.25,7.09-2.61,3.61-.56,7.37-.21,11-.78a13.56,13.56,0,0,1,2.15-.18c4.5,0,7.86,2.41,11.15,5.47a17,17,0,0,0,5.43,3.28c4.72,1.81,12.29,4.25,12.29,4.25s14.23,6.76,23.73,17.19c8.85,10.92,12.64,23.64,13.57,37.43.11,1.61.38,4,1.43,4.64,8.08,5.25,8.47,13.11,7.81,21.41-.43,5.4-.78,10.82-1.47,16.19a17.74,17.74,0,0,1-2.12,6.93,158.13,158.13,0,0,1-32,37.24c-4.82,4.13-10,7.84-15.3,12-1.49-6.77-2.54-12.71-4.22-18.47a10.33,10.33,0,0,0-4.24-5.45c-18.95-11.28-32.13-27.13-38.89-48.19-1.14-3.54-2-7.18-3-11.08-2.26,3.29-4,6.48-6.37,9.14-2.62,3-5.63,4.48-8.62,4.48s-5.89-1.49-8.38-4.5-3.55-7-5.59-10.31c-.82-1.35-2.45-3-3.8-3.1q-16-.85-32.15-1h0c-1.57,0-3.3,1.25-4.71,2.25-3.08,2.2-5.71,5.22-9,6.83a12.18,12.18,0,0,1-5.25,1.3c-4.56,0-8.13-3.24-9.26-8.83-.66-3.21-.59-6.57-.85-9.87-2.71,7.88-4.95,15.85-7.06,23.85-.67,2.54-1.65,5.22-1.41,7.73q3,32,6.49,63.89c.75,6.93,2,13.81,3,20.71l-1.51.77c-1.2-1.79-3.1-3.45-3.48-5.4-2.11-10.78-3.86-21.64-5.69-32.47-.45-2.62-.75-5.26-1.21-8.54-4.84,8-8.63,11.05-13.76,11.05a26.6,26.6,0,0,1-8.73-2,3.16,3.16,0,0,0-1.09-.17,3.58,3.58,0,0,0-1.74.41c-7.05,4.07-14,8.27-20.92,12.36,27,24.48,67.08,39.92,109.5,39.92,39.66,0,81.39-13.51,116.4-45.74,36.1-33.25,54.27-75,55.67-124.13.76-26.6-8.51-62.47-14.33-68.78Zm-53.84,35.49c2.86,0,5.92-1.26,11.73-3.6,12.37-5,24.86-9.7,37.23-14.71a6.82,6.82,0,0,1,2.38-.6c1.29,0,2,.86,2.62,2.95a168.53,168.53,0,0,1,5.24,68,164.1,164.1,0,0,1-15.66,51.85c0-6.2.24-12.73-.07-19.24-.24-4.86-2.71-8.84-6.22-12.28a8.48,8.48,0,0,1-2.53-4.74c-2-22.2-10.86-40.48-30.54-52.12-6.36-3.76-13.62-6-20.46-9-1.85-.8-4.11-1.32-5.38-2.7a20.26,20.26,0,0,0-15.67-6.95,28.6,28.6,0,0,0-3.86.27c-2.4.32-4.86.3-7.29.43l-.81-1.24a41.56,41.56,0,0,1,4.16-4.13c1.14-.86,2.83-1,4-1.79a16.58,16.58,0,0,1,9.82-3.45c4.31,0,8.5,1.87,12.67,4.74a68.08,68.08,0,0,0,6.21,3.3c6.28,3.42,9.23,5,12.44,5ZM185.14,389a19.73,19.73,0,0,0,10.77-3.15c1.73,9.84,3.4,19.28,5.09,28.83-8.3-1.92-29.29-13.65-36.24-20.29,3.49-2.19,6.86-4.39,10.32-6.42a2.59,2.59,0,0,1,1.31-.29,4.28,4.28,0,0,1,1.16.16,27.65,27.65,0,0,0,7.59,1.16Z"/><path class="cls-2" d="M376.16,127.15a13.08,13.08,0,0,1,2.64.25c7.26,1.47,14.35,3.52,20.94,5.52a6.78,6.78,0,0,1,3.36,2.38c4.89,7.53,9.84,15.58,15.14,24.6a5.06,5.06,0,0,1,.48,3.15c-3,12.93-6,25.53-9.13,37.45a3.87,3.87,0,0,1-1.69,1.87c-10.51,4.41-24.41,10.18-38.66,15.62a5.54,5.54,0,0,1-1.87.28,8,8,0,0,1-3.14-.62c-4.23-1.93-8.49-4.09-12.6-6.17-3.73-1.88-7.58-3.83-11.45-5.64a10.54,10.54,0,0,0-4.36-.88,11.51,11.51,0,0,0-3.92.65c-4.12,1.52-8.06,3.24-12.23,5.06l-.6.26a8.17,8.17,0,0,1,3.24-1.93c6-2.52,12.21-5,18.17-7.47l6.94-2.83.09,0a4,4,0,0,0,2.46-1.43c.81-1.07,1.57-2.16,2.29-3.23.26-.37.51-.74.77-1.1l2.54-3.66-4.35-1c-.39-.09-.88-.26-1.4-.44a11.19,11.19,0,0,0-3.69-.83,5.18,5.18,0,0,0-1.87.33c-5.89,2.24-11.75,4.73-17.43,7.14l-5.71,2.42a8.92,8.92,0,0,1-.33-3.83c.31-1.12,1.62-2.4,4.67-4.58,7.65-5.48,11.65-12.29,11.87-20.24.08-2.83-.93-6.76-3.34-8.7-1.05-.83-1.13-1.09-.77-2.53l.12-.43a9.13,9.13,0,0,0,.43-3.08c-.47-7.1,2.59-10.92,11.29-14.07,5.11-1.86,10.09-4.17,14.91-6.4,3.71-1.73,7.56-3.51,11.38-5a13.25,13.25,0,0,1,4.81-.85m18.52,49.65c8.41,0,15-6.52,15.41-15.15A16,16,0,0,0,405.91,150a15.36,15.36,0,0,0-10.83-4.91h-.51a15.94,15.94,0,0,0-15.9,15.26,15.68,15.68,0,0,0,15.12,16.39l.89,0m-18.52-52.65a16.34,16.34,0,0,0-5.93,1.06c-8.84,3.55-17.26,8.17-26.2,11.41-8.37,3-13.89,7.43-13.25,17.09a9.05,9.05,0,0,1-.46,2.58c-.57,2.25-.41,3.84,1.79,5.6,1.5,1.2,2.29,4.15,2.23,6.28-.23,7.8-4.61,13.57-10.63,17.88-7.27,5.2-6.74,6.71-4.7,14.89.93-.36,1.86-.68,2.77-1.06,7.83-3.29,15.61-6.72,23.54-9.73a2.16,2.16,0,0,1,.81-.14c1.33,0,3,.87,4.43,1.19-1,1.42-1.93,2.86-3,4.23-.22.29-.81.29-1.21.46-8.41,3.44-16.83,6.84-25.21,10.34-5.1,2.13-6.26,4.22-5.17,9.31,5.87-2.51,11.32-5,16.94-7.11a8.63,8.63,0,0,1,2.89-.47,7.47,7.47,0,0,1,3.09.6c8.1,3.78,15.95,8.11,24.07,11.82a11,11,0,0,0,4.39.89,8.32,8.32,0,0,0,2.94-.48c13-5,25.91-10.26,38.75-15.66a6.69,6.69,0,0,0,3.44-3.87q4.85-18.7,9.15-37.54a8,8,0,0,0-.82-5.33c-4.9-8.35-9.94-16.61-15.21-24.72a9.72,9.72,0,0,0-5-3.62c-7-2.12-14.05-4.14-21.21-5.59a16.34,16.34,0,0,0-3.24-.31Zm18.52,49.65-.73,0a12.64,12.64,0,0,1-12.28-13.31,13,13,0,0,1,12.9-12.35H395a12.57,12.57,0,0,1,12.11,13.4c-.31,7.06-5.64,12.28-12.41,12.28Z"/><path class="cls-2" d="M334.53,245.88a6.2,6.2,0,0,1,1.91.41c4.78,1.64,9.65,3.23,14.37,4.77l6,1.95.43.14c9.37,4.47,17.75,15,17.83,15.09a66.57,66.57,0,0,1,13.35,36.2,5.79,5.79,0,0,1-1.11,3.43c-9.49,12.29-22.26,19.56-39,22.21a5.5,5.5,0,0,1-.94.08c-.73,0-1.36,0-2.49-2.08-6.81-12.48-10.05-26.88-10.2-45.31l-6-.46c-2.93,18-1.14,34.15,5.49,49.31a9.17,9.17,0,0,1,.27,5.38c-1.46,5.72-1.51,10.84-.14,15.45-20.93-17.79-27.63-40.55-19.91-67.68a20,20,0,0,0,1.09-7l.31-.56q2.39-4.2,4.78-8.36c4-6.93,8.07-14.09,11.95-21.2,1-1.76,1.6-1.76,2-1.76m0-3c-1.89,0-3.38,1-4.66,3.32-5.39,9.87-11.06,19.59-16.71,29.52l-1.82-1.09c1.93,3,1.05,6.15.15,9.32-8.34,29.3-.42,54,23.37,72.85,3.78,3,7.72,5.81,11.58,8.71a13.68,13.68,0,0,0-3.57-4.62c-6.54-6.58-7.78-14.35-5.54-23.15a12.1,12.1,0,0,0-.44-7.32c-6.72-15.38-7.93-31.28-5.26-47.62.14,16.33,2.6,32.1,10.56,46.71,1.34,2.45,2.75,3.65,5.13,3.65a8.83,8.83,0,0,0,1.4-.12c16.61-2.62,30.57-9.9,40.95-23.34a8.76,8.76,0,0,0,1.73-5.47,69.28,69.28,0,0,0-14-37.81c-.7-.92-9.72-12-19.83-16.39l.13.13c-6.78-2.23-13.57-4.39-20.32-6.71a9.11,9.11,0,0,0-2.88-.57Zm-23.41,31.43-.09.14.31.18a3.62,3.62,0,0,0-.22-.32Z"/><path class="cls-2" d="M189.85,280.74c-.64,2.81-1.27,5.6-1.91,8.39-2.48,10.89-4.82,21.18-7.06,31.73-2.88,13.56-6.55,29.21-13.7,43.44l-1.41,2.8,2.87,1.28.59.27.8.36,2.65,1.18,1.27-2.61,7-14.33,2.4-4.95a21.93,21.93,0,0,1-3,17.35c-7.4,12-19.07,19.15-36.72,22.59a6.35,6.35,0,0,1-1.16.09c-.56,0-1.17,0-1.81-.09l-.65-.05c-5.45-.36-8.05-1-9.29-2.29-1.38-1.45-1.9-4.71-2.29-9.51-1.68-20.56,3.74-38.74,16.58-55.57,4.46-5.85,8.82-11.91,13-17.77,2.45-3.41,5-6.94,7.5-10.37a4.88,4.88,0,0,1,1.68-1.63c7.12-3.3,14.14-6.46,21.56-9.8l1.13-.51m4.25-5.21c-9.55,4.32-18.91,8.5-28.2,12.8a8.1,8.1,0,0,0-2.84,2.57c-6.85,9.35-13.46,18.89-20.49,28.1-13,17.09-18.94,36.09-17.18,57.64,1,11.6,2.57,13.76,14.37,14.55.88.05,1.78.14,2.66.14a9.15,9.15,0,0,0,1.74-.15c15.91-3.1,29.86-9.67,38.69-23.95,5.06-8.18,5.54-17.07.81-26.52-4.38,9-8.4,17.29-12.41,25.56l-1.39-.63c7-14,10.73-29,13.95-44.15s6.78-30.34,10.29-46Z"/><path class="cls-2" d="M311.05,176.07c.33,1.16.7,2.28,1.05,3.38a22.94,22.94,0,0,1,1.59,7.19,7.69,7.69,0,0,0-5.91-2.38,20.47,20.47,0,0,0-3.73.42l-2.58.47.12,2.61c.22,5.05,3.22,8.32,7.63,8.32a10.55,10.55,0,0,0,3.14-.51l-.38,3c-.5,3.89-1,7.85-1.54,11.82l-1.07-.89a14.44,14.44,0,0,0-1.89-1.32l.8.14v-9l-1.2-.89a9.15,9.15,0,0,0-5.56-2.08c-3.11,0-5.39,1.87-7.4,3.52l-.94.76-5.29,4.18,5.83,1a16.81,16.81,0,0,0-6.42,2.36l-7.63,5,8.83.53-.07,1.69,0,.83-.12,2.86,2.85.25,13.32,1.18,3,.26.23-3,.09-1.23v-.15l.12-1.52,1.89.11c-.37,2.73-.76,5.47-1.17,8.18a6.1,6.1,0,0,1-.69,1.67,20,20,0,0,0-8.06-1.71,25.67,25.67,0,0,0-9.91,2.19c-4.13,1.73-7.19,2.53-9.6,2.53-4,0-7.21-2.25-11.91-8.32-.3-.38-.61-.76-.91-1.15l-.41-.5L265.71,216l-.19.09.66-.54-6.47-1.16a10.3,10.3,0,0,1-7.66-6.61,9.51,9.51,0,0,1,.86-9.16,8.34,8.34,0,0,1,3.26-.5h.07a15.82,15.82,0,0,1,3.55.64c.67.17,1.36.35,2.07.5l3,.62.52-3.07c.12-.73.3-1.49.48-2.3a20.09,20.09,0,0,0,.76-6.45,3.79,3.79,0,0,1,.93-2.84,2.11,2.11,0,0,1,1.51-.77,1.79,1.79,0,0,1,.54.09,35,35,0,0,0,7.06,1.34l-1.28.93,3.88,2.34c.57.34,1.1.62,1.57.86a6.94,6.94,0,0,1,1.4.85,7.1,7.1,0,0,0,5.34,2.57,10.77,10.77,0,0,0,4.62-1.33,6.29,6.29,0,0,1,2-.75h0l3.73.17-.63-3.67c0-.13,0-.41,0-.64a5,5,0,0,0-1.66-4l-.48-.33q2.82-1.08,5.89-2.55c2.72-1.3,5.59-2.45,8.63-3.66l1.34-.54m-50.52,44,.39,1.08c.47,1.29.92,2.63,1.35,3.93a60.49,60.49,0,0,0,4.05,10.08c1.59,2.94,5.56,4.87,8.66,5.27a26.83,26.83,0,0,0,3.19.19,59.94,59.94,0,0,0,7.9-.7l.6-.08a20.16,20.16,0,0,1,2.78-.23c2.19,0,2.91.21,5,5,2.75,6.35.33,11.4-3.38,17.85-.12.2-.29.45-.48.71a7.72,7.72,0,0,0-1.58,3.5c-.41,3.59-1.78,4.63-6.07,4.63l-1.44,0q-1.11-.06-2.31-.06c-2.84,0-5.67.23-8.57.49a10.18,10.18,0,0,0-3.64,1.09,4.17,4.17,0,0,0-2.43-1.76c-3.42-.87-4.87-2.88-5.34-7.43-.1-1-.29-1.95-.46-2.86-.08-.38-.15-.76-.22-1.14l-.43-2.44h-.51c.21-4.17.41-8.82.53-13.6.09-4-.1-7.94-.28-11.79-.13-2.77-.27-5.63-.29-8.41a10,10,0,0,1,1.09-1.66l.19-.24a6.65,6.65,0,0,1,1.09-.89l.64-.47M313.2,172c-4.93,2-9.27,3.62-13.41,5.6-6.58,3.15-13.21,5.43-20.2,5.43a31.55,31.55,0,0,1-9.1-1.34,4.89,4.89,0,0,0-1.39-.21c-3.25,0-5.76,3.41-5.43,6.89.24,2.6-.76,5.31-1.21,8-2.07-.43-4.15-1.2-6.22-1.2h-.11c-1.89,0-4.59.33-5.53,1.57-5.47,7.23-.73,19,8.59,20.66a16,16,0,0,0-2.79,2.32c-.82,1.08-1.89,2.41-1.88,3.62,0,6.74.73,13.48.57,20.21-.13,5.54-.39,11.09-.68,16.63h1.14c.22,1.26.52,2.52.65,3.79.5,4.88,2.23,8.67,7.59,10,1,.25,1.39,2.36,2.33,3.37s2.24,2.46,3.5,2.62h.3c1.32,0,2.75-1,4.12-1.46-.22-.45-.45-.9-.68-1.35-.32.53-.58,1.46-1,1.52a19,19,0,0,1-2.92.26,10.47,10.47,0,0,1-1.68-.12c-.34-.06-.87-2.36-.53-2.64a7.1,7.1,0,0,1,3.61-1.46c2.75-.25,5.53-.48,8.3-.48.72,0,1.45,0,2.17,0,.53,0,1.06,0,1.58,0,4.74,0,8.36-1.31,9-7.28.13-1.07,1.09-2.05,1.67-3.06,3.69-6.4,7-12.65,3.55-20.54-2.16-5-3.59-6.79-7.73-6.79a24.83,24.83,0,0,0-3.18.25,61.3,61.3,0,0,1-8.1.76,21.75,21.75,0,0,1-2.81-.17c-2.32-.3-5.38-1.82-6.41-3.72-2.3-4.23-3.54-9-5.21-13.61l1.08-.48c.43.54.87,1.08,1.29,1.62,5.06,6.53,9,9.48,14.28,9.48,3,0,6.44-1,10.76-2.76a22.72,22.72,0,0,1,8.75-2,17.45,17.45,0,0,1,9.28,2.73c.92-1.91,2.17-3.5,2.44-5.25,1.42-9.5,2.61-19,3.84-28.56.15-1.15-.33-2.51.12-3.48,3.14-6.74-1.22-12.3-2.38-19.54Zm-25.59,18.46a4.14,4.14,0,0,1-3.12-1.59c-.84-.92-2.18-1.38-3.64-2.26a13.89,13.89,0,0,1,7.89-2.43,8.66,8.66,0,0,1,5.13,1.41c.56.43.38,1.84.54,2.79h-.16c-2.25,0-4.38,2.08-6.64,2.08Zm21.61,2.66c-2.74,0-4.48-1.92-4.64-5.45a18.61,18.61,0,0,1,3.2-.37c2.47,0,4.47,1,5.17,4.88a9.13,9.13,0,0,1-3.73.94Zm-3.94,11.64L295,203c2.16-1.71,4.07-3.64,6.48-3.64a6.26,6.26,0,0,1,3.76,1.48v3.9Zm2.18,7.05-18.52-1.09a15.27,15.27,0,0,1,8.23-2.16,16.55,16.55,0,0,1,10.29,3.25Zm-2.74,5.71-13.33-1.18c0-.27,0-.55,0-.83l13.39.62c0,.47-.07.93-.1,1.39Zm-50.51,42.64c0,1.15,0,2.3,0,3.45.07-1.15.13-2.3.19-3.44Zm0,3.45c-.21,3.91-.43,7.82-.63,11.73a24.86,24.86,0,0,0,.58-3.89c.08-2.61.07-5.23.05-7.84Zm-.63,11.73c-.07.36-.14.71-.2,1.07l.14.12.06-1.19Z"/><path class="cls-2" d="M394.76,317l.13.33a28.18,28.18,0,0,1,2.11,7.35c.89,11.23-2.69,18.66-11.26,23.4-9.57,5.3-19,10.23-29.39,12.32a2.29,2.29,0,0,1-.56.05,4.08,4.08,0,0,1-2-.5c-5.26-3.42-8.31-12-6.42-18a1.15,1.15,0,0,1,.18-.24c19.08-2.2,33.19-13.52,46.84-24.47l.37-.29m1.46-4.81c-1.44,1-1.92,1.34-2.37,1.7-14.11,11.29-28.05,22.9-47.09,24.94a3.57,3.57,0,0,0-2.23,2.2c-2.33,7.25,1.16,17.23,7.62,21.44a7,7,0,0,0,3.64,1,5.28,5.28,0,0,0,1.15-.11c10.91-2.2,20.59-7.29,30.26-12.63,10.64-5.89,13.67-15.2,12.79-26.26-.31-4-2.37-7.88-3.77-12.26Z"/><path class="cls-2" d="M325.27,240.15c-8.06,11.67-13.54,22.4-17.1,33.38l.05,0c-.76,2.41-1.54,4.82-2.32,7.23-1.87,5.8-3.8,11.79-5.46,17.78a89.61,89.61,0,0,0-1.92,9.46l0,0-2.28-2.31L293.55,303l-2.7-2.74-2,3.29c-.26.43-.61.91-1,1.4s-.69,1-1,1.47a73.9,73.9,0,0,1,1.92-8.19c1.54-5.2,3.49-10.42,5.38-15.48,1.11-3,2.26-6.07,3.33-9.14A43.92,43.92,0,0,0,298.9,268c.07-.34.14-.7.22-1.05a4.42,4.42,0,0,0,2.13-2.56A27.94,27.94,0,0,1,307.92,253a45,45,0,0,0,5.82-8.54c1.68-3,3.54-4.25,6.41-4.25l.65,0c.47,0,1,0,1.47,0,1,0,2-.06,3-.14M285.94,313a13.47,13.47,0,0,0,1.92,2.68,14.49,14.49,0,0,1,.95,1.17l2,3,2.56-2.56,2.42-2.43,1.84-1.84c-.06.29-.11.57-.17.86a12.84,12.84,0,0,1-1.17,3.63c-2,3.51-4.11,3.91-5.51,3.91a7.83,7.83,0,0,1-1.15-.09,5.26,5.26,0,0,1-4-5.63c.07-.91.15-1.8.24-2.69m45.58-76.42c-3.67.26-6.53.72-9.25.72-.43,0-.86,0-1.29,0l-.83,0c-4.25,0-7,2.07-9,5.78a42.08,42.08,0,0,1-5.42,8,31.13,31.13,0,0,0-7.33,12.58c-.21.74-1.58,1.16-1.88,1.36a77.91,77.91,0,0,1-1.84,7.7c-2.87,8.27-6.28,16.38-8.76,24.76a87.52,87.52,0,0,0-3.18,18.06,8.25,8.25,0,0,0,6.49,8.82,10.19,10.19,0,0,0,1.62.13c3.66,0,6.26-2.18,8.12-5.42a15.29,15.29,0,0,0,1.5-4.53c1-5,1.53-10.17,2.89-15.09,2.34-8.42,5.17-16.71,7.79-25.05l-.09.15c4.37-13.51,11.43-25.63,20.49-37.89Zm-40.23,78.58c-1.05-1.54-3-3.15-2.92-4.6.15-1.88,2-3.63,3.05-5.43l4.92,5-5,5.07Z"/><path class="cls-2" d="M282.55,147.32a11.45,11.45,0,0,1,2.9.62c3.78,1.15,10.78,6.11,15.48,10.65-10.42,1.46-21,3.95-30.11,10.67-6.55,4.83-12.95,10-19.15,15.07-2,1.63-4,3.3-6.1,4.95A34.26,34.26,0,0,1,248.14,168c3.85-8,10.77-14,20-17.32a80.94,80.94,0,0,1,12.28-3l1.74-.33a2,2,0,0,1,.37,0m0-3a5.77,5.77,0,0,0-.94.08,95.29,95.29,0,0,0-14.47,3.46c-20.74,7.53-29.32,27.16-23.39,46.6.51-.36,1-.66,1.39-1,9.14-7.28,18.06-14.86,27.46-21.79,10-7.34,21.89-9.38,34.35-10.81-4-5.68-15-14.08-20.63-15.79a13.36,13.36,0,0,0-3.77-.75Z"/><path class="cls-2" d="M244.86,270.61a13.91,13.91,0,0,0,7,8.4c5.08,4.51,11.29,4.81,16.79,5.08l1.14.06c.44,0,.9,0,1.37,0,1.73,0,3.45-.15,5.11-.3.93-.08,1.89-.17,2.83-.23l4.4-.27-.45,1.47c-1.65,5.41-3.37,11-5.23,16.47a4,4,0,0,1-1,1.31c-8.15.14-16.29.15-23.19.15H239c.07-.53.14-1.06.2-1.58.57-4.54,1.1-8.82,1.7-13.17a9.13,9.13,0,0,1,.4-1.4,11.88,11.88,0,0,0,.7-3.06,7.16,7.16,0,0,0-.24-2.16,4.58,4.58,0,0,0,2.58-3.18c.4-2.08-.83-3.82-2.13-5.11a2.82,2.82,0,0,1,.09-.3,28.31,28.31,0,0,1,2.61-2.2m1.68-5a65.85,65.85,0,0,0-6.56,5.2c-.77.77-1.21,3.27-.7,3.71,4.55,3.89.5,4.33-1.27,5.1.4,1.48,1,2.63.94,3.74-.08,1.43-.87,2.8-1.07,4.23-.82,6-1.54,12-2.33,18.16h18.06c8.06,0,15.87,0,23.67-.16,1.17,0,2.88-1.95,3.35-3.33,2.52-7.4,4.73-14.9,7-22.18l-10.82-2.06,2.09,2.61c-2.69.16-5.24.52-7.76.52-.4,0-.81,0-1.21,0-5.79-.3-11.75-.3-16.4-4.66-5-2.26-6-7-7-10.86Zm6.85,10.74.13.12h0l-.14-.13Z"/><path class="cls-2" d="M218.48,213.77a4,4,0,0,1,1.69.38c6,3.5,8.91,6.2,8.42,11.2a4.1,4.1,0,0,1-.32,1.09.37.37,0,0,1-.06-.1c-1.13-6.71-5.66-9.8-9.66-12.52l-.07,0m-9.07,2,2.09,1.75c.12.1.23.21.34.32a6.68,6.68,0,0,0,2.13,1.52c5.36,2.17,7.07,6.72,8.2,13.83a4,4,0,0,1-.31.77c-.41-.31-.8-.62-1.16-.95a2.4,2.4,0,0,1-.19-.69c-1.26-8.57-6.89-12.81-13.3-15.86l2.2-.69M199.23,219l.87.77c.42.37.73.67,1,.94a5.53,5.53,0,0,0,2.14,1.5c6.58,2.3,9.08,8.14,11.25,14.46a4.84,4.84,0,0,1-.08.49,7,7,0,0,1-1-.55,8.24,8.24,0,0,1-.65-1.44l-.1-.24c-3.62-9.25-11.81-11.71-19-13.88l-.71-.21,1.37-.4c1.63-.46,3.3-.94,5-1.44m-13.65,4,3.3,2.63.3.28a6.25,6.25,0,0,0,2.07,1.4c5.56,2.12,5.76,6.45,5.58,13.33a4.67,4.67,0,0,1-.41.58c-.55-.39-1.07-.79-1.55-1.2a4.37,4.37,0,0,1,0-.56c.18-8.17-4.78-11.38-9-12.64l-3.64-1.1c.06-.32.13-.64.19-1a3,3,0,0,1,1.19-1.11l2-.65m-3.65,4.77.09,2.06a1.54,1.54,0,0,1-.05.66h0a1.45,1.45,0,0,1-.36.24c.1-1,.2-2,.32-3m36.08-17a13.88,13.88,0,0,0-3.16.38c-5.34,1.3-10.53,3.18-15.81,4.77-5.46,1.64-11,3.07-16.39,4.91a5.46,5.46,0,0,0-3.14,3.26c-.76,3.49-.9,7.11-1.42,11.84,3-2.56,7.13-1.77,6.93-6.22,5.14,1.55,6.93,5,6.83,9.71a3.65,3.65,0,0,0,.64,2.5,46,46,0,0,0,4.51,3.41c1-1.48,2.78-2.94,2.82-4.44.18-6.57.35-13.37-7.51-16.37a6.76,6.76,0,0,1-1.56-1.21c7.65,2.36,15.72,4.07,19.1,12.7a6.66,6.66,0,0,0,1.75,3,26,26,0,0,0,4.76,2.15c.37-1.81,1.51-3.88,1-5.38-2.38-7-5.31-13.69-13.13-16.41-.5-.18-.88-.74-2.14-1.86,8,3.3,14.23,6.86,15.46,15.26a4.21,4.21,0,0,0,1,2.39,51.3,51.3,0,0,0,4.32,3.25c.8-1.87,2.51-3.89,2.24-5.59-1-6.69-2.74-13.26-10-16.22a7.6,7.6,0,0,1-1.68-1.36l.87-.75c4.45,3.36,9.86,5.66,11,12.42.28,1.69,2.48,3.06,3.81,4.58.87-1.94,2.31-3.83,2.5-5.83.72-7.34-4.58-11-9.89-14.08a7.37,7.37,0,0,0-3.67-.81Z"/><path class="cls-2" d="M315.37,165.12h.36c-2.31,1-4.59,2.06-6.83,3.09-9.79,4.5-19,8.75-29.45,9.64-.47,0-.95.05-1.47.05a37.06,37.06,0,0,1-3.84-.25c7.36-6.41,24.28-12.53,41.23-12.53m0-3c-19.94,0-42.21,8.5-47.06,17.92,3.43.27,6.6.86,9.67.86.58,0,1.15,0,1.72-.07,17.46-1.48,31.68-11.91,48.53-17.34a56.29,56.29,0,0,0-12.86-1.37Z"/><path class="cls-2" d="M383.64,361.65a39.27,39.27,0,0,1-11.26,16.63c-.69.63-1.4,1.29-2.1,2a19.41,19.41,0,0,1-2.38,2.11,18.08,18.08,0,0,1-1.86-2.26,84.62,84.62,0,0,1-5.41-8.85l-.47-.83c9.31-.89,16.92-4.5,23.48-8.76m5.58-7.65c-9.68,7.35-19.67,13.62-33.47,13.62h-.64c3.27,5.55,5.52,10.17,8.52,14.25,1.81,2.47,2.94,3.63,4.18,3.63s2.49-1.08,4.57-3.11c1.88-1.84,3.93-3.52,5.67-5.48,5.77-6.56,9-14.4,11.17-22.91Z"/><path class="cls-2" d="M246,218.33a23,23,0,0,1,2.29,3.77c.87,2,1.15,3.35.85,4.12s-1.42,1.55-3.33,2.37c-3.85,1.66-7.83,3.35-11.92,5a9.69,9.69,0,0,0,3.63-5c1-4.1,3.83-6.43,7.41-9.37l1.07-.88m.58-4.48c-4.89,4.54-10.36,7.35-12,14-.56,2.32-3.75,4-5.74,6-.39.39-.74.82-1.16,1.17-2.25,1.88-4.51,3.77-6.79,5.62-.67.54-1.43,1-2.15,1.44A268.91,268.91,0,0,0,247,231.35c5.38-2.32,6.44-5,4-10.45-1-2.35-2.75-4.4-4.46-7.05Z"/><path class="cls-2" d="M191.79,333.63a20.75,20.75,0,0,1,4.78,12.48,34.21,34.21,0,0,1-2.24,13.69c.18-1.18.34-2.37.45-3.57a39.34,39.34,0,0,0-2.27-17.17c-1-2.62-1.2-4.2-.72-5.43m-.22-4.47c-3.66,3.17-3.64,6.36-1.86,11A35.85,35.85,0,0,1,191.79,356c-.69,7.3-3,14.45-4.41,21,12.8-14.26,17.68-36.09,4.19-47.81Z"/><path class="cls-2" d="M391.78,154.77a3.3,3.3,0,0,1,1.41.34,42.09,42.09,0,0,1,3.57,4.45c1,1.3,1.94,2.65,3.06,3.93.79.92.94,1.09-.14,2.17l-1.71-2.1-5.47-6.7-.1-.13L391,155l.57-.24h.2m0-3a3.55,3.55,0,0,0-1.22.19,9.19,9.19,0,0,0-6.12,8.52c.27,5,2.23,8.17,6.39,9.75a11.14,11.14,0,0,0,4,.78,9.57,9.57,0,0,0,6.86-3.08c2.07-2,2.54-4,.43-6.4-2.38-2.75-4.26-6-6.79-8.56a5.43,5.43,0,0,0-3.51-1.2Zm3.23,13.7c-4.4,0-5.52-1.6-4.94-6.85l5.57,6.84Z"/><path class="cls-2" d="M205,238l1.52,2.06c.93,1.28,1.88,2.59,2.89,3.87l-1.35.54-4.4,1.76a11.42,11.42,0,0,0,1.53-6.4c0-.64-.11-1.25-.19-1.83m44.72,1.19a2.88,2.88,0,0,1,0,1.23c-.14.34-1.24,1-3.27,1.89-4.45,2-9.05,4-14.05,6.15a8.37,8.37,0,0,0-3.3,2.34,18.08,18.08,0,0,0-9.9,2.92v-1.43l-4.69,3.2L212.36,257l-3.81,2.59a7.7,7.7,0,0,0-1.35-.12,7.13,7.13,0,0,0-5.13,2.19q-.18.18-.33.36l-1.78.65c-.94.34-1.77.62-2.54.88a42.09,42.09,0,0,0-4.28,1.64c-2.27,1.06-4.54,2.19-6.73,3.28-3.31,1.64-6.74,3.34-10.15,4.83-3.8,1.66-7.72,3.25-11.52,4.79-5.81,2.37-11.83,4.81-17.63,7.56a12.23,12.23,0,0,1-5.19,1.4,8.4,8.4,0,0,1-4.35-1.29,58.2,58.2,0,0,1,6.28-2.54,11.47,11.47,0,0,0,2.39-1.06l0,.08,3-1.25,55-22.87,45.49-18.91m-63,2c.11.4.2.79.29,1.18a10.68,10.68,0,0,0,7,7.83c-4.76,2-9.58,4.06-14.24,6.05s-9.39,4-14.09,6c-4.95,2.07-10.22,4.26-15.6,6.17a9.72,9.72,0,0,0-3.47,2l-1.88.78c-1.68.69-3.37,1.36-5.05,2-3.95,1.58-8,3.21-12,5.08a8.37,8.37,0,0,1-3.53,1,3.93,3.93,0,0,1-1.54-.31l2.3-3.62c3.28-5.17,6.67-10.5,10.44-15.37.84-1.09,3.73-2.08,6.57-2.26h.18a13.48,13.48,0,0,1,4.33,1.3c1,.4,2.12.86,3.32,1.25l2.85.93.93-2.85c1-3.12,3.56-5.73,6.49-8.15a7.88,7.88,0,0,0,3.71,2.19,6.11,6.11,0,0,0,1.28.13,9.15,9.15,0,0,0,6.51-3.22,11.64,11.64,0,0,0,2.81-5.19l.25,0c2-.29,4.16-.59,6.26-1.1a61.24,61.24,0,0,0,5.87-1.85m52.38,15.89a67.81,67.81,0,0,0-2.43,7.25c-2.2,8.45-4.35,17.55-7,29.51a48.3,48.3,0,0,0-.78,5.43c-.07.64-.14,1.27-.21,1.88L227.42,300l-3-2.68-2.58-2.3-1.91,2.88c-.21.3-.5.66-.8,1l-.09.1c1-6.2,2.18-12.55,3.57-18.83a95.08,95.08,0,0,1,4.7-14l.52-1.33a14.11,14.11,0,0,1,1.77-2.86c.43-.61.88-1.22,1.3-1.88l1.46-.55,6.82-2.53m-94.22,39.59-1.19,1.73-3.66,5.35,1.29-2.34L143,298.5l-1.72-.76a15.37,15.37,0,0,0,3.28-.95l.42-.15m72.86,10a14.85,14.85,0,0,0,1.55,1.75,10.56,10.56,0,0,1,.84.89l2,2.5a9,9,0,0,1-1.91.22,6.79,6.79,0,0,1-1.05-.08c-1.37-.25-1.94-2-1.7-3.53l.27-1.75m9.54.3a9,9,0,0,1-2.45,3.7,7.11,7.11,0,0,1-2.53,1.1l2.26-2.17.34-.34,2.38-2.29M357.6,122.07a33.72,33.72,0,0,0-8,1c-7.76,3.88-15,7.33-22.1,11.18a8.3,8.3,0,0,0-3.67,4.73c-1.27,5.08-1.95,10.32-2.89,15.61a21.43,21.43,0,0,1-3.31.28,12.67,12.67,0,0,1-9.27-3.77c-6.83-6.53-14.34-12.65-24.18-13.39-.87-.07-1.75-.1-2.63-.1a50.29,50.29,0,0,0-13.74,2.12c-17.71,5.14-30.12,15.72-32.67,35-1.34,10.14,0,20.19,2.35,30.12a5.89,5.89,0,0,1-.6,4.27,3.36,3.36,0,0,1-2.73,1.65,5.54,5.54,0,0,1-3.29-1.48c-3.5-2.83-6.79-6.37-11.53-6.37a10.17,10.17,0,0,0-2.38.29c-12.75,3-25.82,5-37.73,10.94-5.53,2.77-8,7.49-8.6,13.43-.16,1.6-.11,3.24-.42,4.82-.75,3.78-3.59,6.36-7,6.36a7,7,0,0,1-1.84-.25,17.8,17.8,0,0,0-4.45-.7c-2.84,0-5.2,1.18-7,4.68-.56,1.11-2.77,1.89-4.24,1.94-7.27.23-13.9,1.62-18.45,8q-10.92,15.45-21.88,30.87a6.8,6.8,0,0,0-.47,1.77l33.84,14.8-21.42,38.94s-.25,4.78,2,18.14a88.92,88.92,0,0,1,12.4-35.17c6.59-10.59,13.85-20.75,21.28-31.77-3.43,1.43-6.2,2.69-9,3.72a12.33,12.33,0,0,1-3.71,1,2.21,2.21,0,0,1-.87-.15c-9.16-3.75-18.2-7.79-27.64-11.9,7.23-10.08,13.64-19.95,21.13-28.93,2-2.4,6.47-4.24,9.89-4.24a7.63,7.63,0,0,1,1.46.13,13.59,13.59,0,0,0,2.55.27c3.5,0,5.4-1.82,7.37-4.78a4,4,0,0,1,3.44-2.15,9,9,0,0,1,4.57,1.76c-5.05,3.79-9.72,7.42-11.43,12.63-3.28-1.07-6-2.7-8.58-2.7h-.37c-3,.2-7.07,1.25-8.75,3.42-5.34,6.89-9.78,14.48-14.48,21.65a8.22,8.22,0,0,0,5.65,2.49A11.32,11.32,0,0,0,129,281c5.49-2.61,11.21-4.72,16.87-7.06,1.11,3.5.37,5.3-3,6.37-4,1.27-7.74,3.26-12.2,5.2a49.32,49.32,0,0,1,4.57,2.32,11.71,11.71,0,0,0,6.61,2.17,15,15,0,0,0,6.48-1.69c9.5-4.5,19.42-8.11,29.06-12.31,5.75-2.5,11.28-5.48,17-8.15,1.81-.85,3.76-1.39,6.56-2.41-1.56,5.58,3.13,11.58-3.77,15.2h.07c3.95,0,7.47-5.05,8.26-13.45-1.28,1.7-2.55,3.4-3.86,5.13-.05-6.31,2.35-9.9,5.52-9.9a5.07,5.07,0,0,1,1.88.39l7.16-4.88v8.9c.45-8.76,4.69-13,13.83-13.09a22.15,22.15,0,0,1-1.29,4c-1.14,2.06-2.91,3.83-3.76,6-2,5.16-4.17,10.36-5.36,15.74-2.08,9.4-3.62,18.92-5.1,28.44-.48,3.11,1,6.37,4.13,6.94a9.06,9.06,0,0,0,1.59.13,11.3,11.3,0,0,0,6.43-2c2.08-1.58,3.46-4.63,4.21-7.3,1-3.64.92-7.58,1.74-11.29,2.18-9.83,4.44-19.66,7-29.4,1.09-4.22,2.93-8.25,4.71-13.13l-13.05,4.84c-1.18-3-.07-4.54,2.32-5.56q7.09-3,14.11-6.17c5.52-2.5,5.9-3.43,4.21-10L148.11,278.19c-1.24-3.79-.33-5.79,3-7,5.31-1.89,10.54-4,15.75-6.22,9.49-4,18.92-8.1,28.41-12.07,6.67-2.79,13.39-5.44,20.39-8.27-1.48-.84-2.76-1.19-3.44-2-2.28-2.82-4.27-5.88-6.56-8.69a3.89,3.89,0,0,0-2.77-1.18h0c-.4,0-1.08,1.55-1.11,2.41,0,1.6.39,3.21.47,4.82.2,3.93-2.09,7.23-5.16,7.54a5.07,5.07,0,0,1-.55,0c-3,0-5.72-2.44-6.52-5.89-.32-1.36-.69-2.7-1.13-4.39-3.12,1-5.85,2.14-8.68,2.83s-5.71,1-8.58,1.43a.09.09,0,0,1,0,0c0,.05,0,.11.06.15l-.05,0c.28,3.53-3.32,7.81-6.55,7.81a3.23,3.23,0,0,1-.69-.07c-1-.2-2.58-1.49-2.49-2a4.81,4.81,0,0,1,2.11-3.23,60.56,60.56,0,0,1,7.62-2.48,1,1,0,0,1,0-.17c-.19-.44-.49-1-.4-1.1,4.13-3,4-7.52,4.31-11.89.3-4.54,1.87-8.45,6.38-10.17,5.14-2,10.4-3.62,15.68-5.18s10.92-2.85,16.34-4.42a16.57,16.57,0,0,1,4.57-.77,8.41,8.41,0,0,1,6.38,2.8c1.2,1.26,2.94,2,4.11,3.31a5.64,5.64,0,0,0,4.29,2.13,9.94,9.94,0,0,0,4.34-1.29c4.65-2.34,5.73-5.58,4.95-10.68-1.32-8.66-2.74-17.44-2.66-26.15.1-11.49,5.08-21.39,15.2-27.25S273.16,142,280.33,142c8.1,0,15.26,3.89,23.64,11.94,5.46,5.25,11.17,6.09,17.53,6.09q1.71,0,3.48-.06c.65-3.35,1.86-6.52,1.77-9.65-.27-9,4.31-13.49,12.28-16.59s15.15-7.4,22.91-11.28a24,24,0,0,0-4.34-.38ZM222.54,307.43c-1-1.23-2.79-2.49-2.74-3.67.06-1.45,1.67-2.84,2.61-4.25l4.34,3.86c-1.88,1.81-3.05,2.93-4.21,4.06Z"/><path class="cls-2" d="M216.24,266.85a34.61,34.61,0,0,0,0,3.53v-3.53Z"/><path class="cls-2" d="M171.62,241.57a1,1,0,0,0,0,.17l.05,0s0-.1-.06-.15Z"/></svg>