<svg id="Layer_1" data-name="Layer 1" xmlns="http://www.w3.org/2000/svg" viewBox="0 0 627.76 627.76"><defs><style>.cls-1{fill:#be1e2d;}.cls-2{fill:#231f20;}</style></defs><path class="cls-1" d="M485.06,308.23s-11.89-3.83-19.29-6.67a26.63,26.63,0,0,1-8.52-5.14c-5.95-5.55-12.06-9.72-20.87-8.31-5.66.9-11.55.34-17.22,1.23-3.66.57-7.09,2.55-11.14,4.1-2.31-3.74-3.34-7.92,1.26-11.9a3.6,3.6,0,0,0,1.24-1.64c2.91-13,15-14.4,24.26-19.7,10.63-6.06,19.68-5.43,29.7,1.29,8.17,5.48,17.22,9.77,26.22,13.86a15.61,15.61,0,0,0,10.78.59c23.07-8.56,45.87-17.84,68.94-26.4,5.8-2.15,8.52-5.43,9.06-11.3a85.44,85.44,0,0,1,1.77-8.94c9.14,9.9,23.69,66.18,22.5,107.93C601.56,414.38,573,479.87,516.38,532c-113.7,104.69-272.47,83.48-354.53,9.14,10.82-6.43,21.78-13,32.84-19.41a6,6,0,0,1,4.43-.37c16.33,5.9,24,4.42,35.3-14.27.72,5.15,1.2,9.3,1.9,13.41,2.87,17,5.62,34,8.92,51,.6,3.07,3.59,5.67,5.48,8.48l2.36-1.21c-1.57-10.83-3.47-21.63-4.64-32.5Q243,496.16,238.24,446c-.37-3.94,1.17-8.15,2.22-12.12,3.32-12.56,6.83-25.07,11.08-37.44.41,5.17.31,10.45,1.34,15.5,2.42,11.92,11.9,17.05,22.77,11.81,5.23-2.52,9.35-7.27,14.19-10.72,2.22-1.59,5-3.55,7.44-3.53q25.25.28,50.46,1.6c2.11.11,4.67,2.75,6,4.87,3.19,5.24,4.93,11.56,8.76,16.18,7.88,9.49,18.49,9.31,26.69,0,3.69-4.18,6.45-9.18,10-14.34,1.66,6.11,3,11.82,4.76,17.39,10.61,33,31.31,57.92,61,75.63a16.18,16.18,0,0,1,6.66,8.54c2.64,9,4.28,18.37,6.62,29,8.34-6.49,16.45-12.33,24-18.81a248.09,248.09,0,0,0,50.23-58.44c1.93-3.14,2.85-7.16,3.32-10.88,1.08-8.43,1.64-16.92,2.31-25.4,1-13,.42-25.37-12.26-33.61-1.65-1.07-2.07-4.75-2.24-7.27-1.47-21.65-7.42-41.62-21.3-58.75C507.38,318.83,485.06,308.23,485.06,308.23ZM565.1,448a257.71,257.71,0,0,0,24.57-81.38c4.74-36.17,1.56-71.63-8.21-106.67-1.38-4.91-3.36-5.5-7.86-3.68-19.41,7.85-39,15.25-58.43,23.08s-19.29,7.93-37.93-2.2c-3.24-1.76-6.74-3.11-9.75-5.19-11.41-7.84-22.92-10.9-35.28-2-1.83,1.31-4.49,1.47-6.27,2.81-2.42,1.84-4.37,4.3-6.53,6.49l1.27,1.94c3.82-.21,7.67-.17,11.44-.67,12-1.62,22.23,1.29,30.65,10.48,2,2.17,5.54,3,8.45,4.24,10.72,4.66,22.12,8.16,32.11,14.07,30.87,18.26,44.78,46.94,47.92,81.79.24,2.61,2,5.53,4,7.43,5.5,5.4,9.38,11.65,9.75,19.29C565.47,428,565.1,438.26,565.1,448ZM229,527c-9.43,5.92-19,5.93-28.81,3.11a5.48,5.48,0,0,0-3.88.2c-5.43,3.2-10.72,6.64-16.2,10.08C191,550.85,224,569.25,237,572.26,234.33,557.27,231.71,542.46,229,527Z"/><path class="cls-1" d="M417.44,259.79c-1.7-8,.12-11.25,8.11-14.6,13.15-5.5,26.37-10.83,39.57-16.23.64-.26,1.56-.26,1.91-.72,1.64-2.15,3.13-4.41,4.67-6.63-2.77-.63-6-2.51-8.22-1.67-12.45,4.74-24.66,10.12-37,15.28-1.42.59-2.88,1.11-4.35,1.67-3.19-12.84-4-15.22,7.38-23.38,9.44-6.75,16.33-15.82,16.68-28.06.09-3.34-1.15-8-3.5-9.84-3.44-2.76-3.7-5.26-2.81-8.8a13.71,13.71,0,0,0,.72-4.05c-1-15.16,7.66-22,20.81-26.82,14-5.09,27.24-12.34,41.11-17.9A26.6,26.6,0,0,1,517,116.86c11.23,2.28,22.31,5.44,33.29,8.77a15.27,15.27,0,0,1,7.86,5.68C566.38,144,574.29,157,582,170.1a12.56,12.56,0,0,1,1.28,8.38q-6.78,29.55-14.36,58.9a10.47,10.47,0,0,1-5.39,6.09c-20.16,8.47-40.39,16.78-60.81,24.57-3.32,1.27-8.2.86-11.5-.65-12.76-5.82-25.07-12.62-37.79-18.55a13.48,13.48,0,0,0-9.37-.2C435.21,251.88,426.65,255.86,417.44,259.79Zm143-84.77c.5-11.39-7.89-20.67-19-21a20.35,20.35,0,0,0-20.9,19.38c-.35,11.41,7.82,20.26,19.28,20.89C551,194.87,559.92,186.5,560.42,175Z"/><path class="cls-1" d="M513.88,339.66c13.35,17.56,20.34,37.48,21.91,59.32a13.72,13.72,0,0,1-2.72,8.59c-16.29,21.1-38.18,32.52-64.25,36.64-5.12.81-7.78-1-10.25-5.54C446.07,415.73,442.2,391,442,365.35c-4.18,25.66-2.28,50.6,8.27,74.74a19,19,0,0,1,.68,11.49c-3.52,13.8-1.56,26,8.71,36.34,2.08,2.1,4.32,4,5.6,7.24-6.07-4.55-12.24-9-18.19-13.66-37.33-29.55-49.76-68.35-36.67-114.34,1.47-5.15,2.89-10.21-.57-15.13l-.15.22,3.35,2c8.86-15.58,17.75-30.84,26.21-46.33,2.94-5.38,6.55-6.14,11.85-4.32,10.58,3.65,21.25,7,31.88,10.54l-.2-.21C498.62,320.84,512.78,338.21,513.88,339.66Z"/><path class="cls-1" d="M209.76,456.25c7.43,14.83,6.67,28.77-1.27,41.61-13.85,22.41-35.75,32.73-60.72,37.59a27.46,27.46,0,0,1-6.9,0c-18.53-1.23-21.07-4.62-22.56-22.84-2.76-33.81,6.52-63.63,27-90.44,11-14.46,21.39-29.43,32.15-44.1a12.56,12.56,0,0,1,4.45-4.05c14.59-6.75,29.27-13.31,44.26-20.08-5.51,24.51-11.07,48.26-16.14,72.12s-10.87,47.35-21.91,69.3l2.19,1C196.59,483.38,202.89,470.41,209.76,456.25Z"/><path class="cls-1" d="M319.42,355.46c.86-17.26,2-34.51,2.45-51.78.25-10.56-.82-21.14-.9-31.71,0-1.91,1.67-4,2.95-5.7,1-1.32,2.6-2.2,4.38-3.64-14.62-2.61-22.07-21.07-13.47-32.42,1.48-2,5.7-2.42,8.67-2.46,3.3-.05,6.62,1.19,9.93,1.86.71-4.18,2.29-8.44,1.91-12.52-.59-6.22,4.61-12.29,10.7-10.48,16.4,4.89,31.29.62,46-6.41,6.5-3.11,13.3-5.59,21-8.8,1.83,11.36,8.67,20.09,3.74,30.67-.71,1.52.05,3.66-.18,5.46-1.93,15-3.8,29.92-6,44.83-.41,2.74-2.38,5.24-3.82,8.23-9.67-5.9-18.92-5.12-28.3-1.2-18.66,7.78-26.81,5.55-39.3-10.55-.66-.86-1.35-1.69-2-2.54l-1.69.75c2.63,7.18,4.57,14.72,8.18,21.36,1.62,3,6.42,5.37,10.05,5.84,5.59.71,11.46-.17,17.14-.93,10.53-1.4,13,.73,17.11,10.27,5.36,12.37.23,22.18-5.56,32.23-.92,1.59-2.43,3.12-2.62,4.8C378.53,351,371.68,352.41,363,352a118.69,118.69,0,0,0-16.42.67A11.06,11.06,0,0,0,341,355c-.55.43.28,4,.83,4.13a23.37,23.37,0,0,0,7.22-.21c.62-.1,1-1.55,1.53-2.38l1.08,2.11c-2.33.84-4.75,2.53-6.94,2.27-2-.24-3.94-2.41-5.5-4.1s-2.11-4.91-3.66-5.3c-8.41-2.13-11.12-8.07-11.91-15.74-.21-2-.68-4-1-5.94l-2.1,0c0,5.9.12,11.81-.06,17.71a61.48,61.48,0,0,1-1.22,7.79ZM362.3,214.34c2.28,1.38,4.39,2.1,5.71,3.54,5.61,6.15,10.38-1,15.58-.77-.26-1.5,0-3.71-.86-4.37C378.05,209.22,368.34,210,362.3,214.34Zm50.37,8.74c-1.55-8.57-7.1-8.18-13.13-7.09C399.89,223.75,405.09,226.54,412.67,223.08Zm-12,19.74v-6.13c-6.95-5.21-11.1-.53-16.06,3.39Zm3.43,11.07c-7.23-6-21.12-6.9-29.07-1.72Zm-4.31,8.95.17-2.17-21-1-.06,1.31Z"/><path class="cls-1" d="M543.36,411.53c2.2,6.87,5.42,12.94,5.92,19.24,1.37,17.35-3.38,32-20.08,41.21-15.17,8.39-30.37,16.37-47.49,19.83a11.11,11.11,0,0,1-7.51-1.37c-10.14-6.61-15.63-22.27-12-33.64.46-1.43,2.2-3.32,3.51-3.47,29.88-3.2,51.76-21.41,73.9-39.14C540.34,413.63,541.1,413.14,543.36,411.53Z"/><path class="cls-1" d="M409.81,352c-4.12,13.09-8.56,26.1-12.23,39.32-2.14,7.72-3,15.79-4.53,23.68a23.83,23.83,0,0,1-2.37,7.11c-3.33,5.81-8.16,9.44-15.28,8.3-5.63-.91-10.74-6.71-10.19-13.85a137.43,137.43,0,0,1,5-28.34c3.89-13.15,9.24-25.87,13.74-38.85,1.34-3.86,1.94-8,2.9-12.09.46-.32,2.61-1,2.94-2.13a48.82,48.82,0,0,1,11.51-19.75,66.14,66.14,0,0,0,8.51-12.53c3.45-6.19,8.05-9.47,15.47-9,4.9.29,9.86-.59,16.54-1.07-14.22,19.24-25.3,38.26-32.16,59.46ZM386.6,408.17l-7.71-7.79c-1.72,2.84-4.56,5.58-4.79,8.53-.18,2.27,2.93,4.8,4.58,7.22Z"/><path class="cls-1" d="M403.25,174c-19.54,2.25-38.25,5.44-53.89,17-14.76,10.87-28.76,22.77-43.1,34.2-.67.53-1.39,1-2.18,1.56-9.32-30.5,4.15-61.32,36.7-73.13,7.27-2.64,15.07-4,22.71-5.42,2.32-.45,5,.32,7.4,1C379.69,151.88,396.94,165.07,403.25,174Z"/><path class="cls-1" d="M319.21,355.27c7.32,7,16.76,7,25.93,7.5,4.56.24,9.17-.47,14.08-.77l-3.28-4.1,17,3.23c-3.54,11.42-7,23.2-11,34.82-.74,2.16-3.42,5.19-5.25,5.22-21.13.37-42.26.24-65.49.24,1.23-9.73,2.36-19.12,3.65-28.5.31-2.25,1.55-4.4,1.69-6.64.1-1.75-.86-3.55-1.49-5.87,2.78-1.21,9.13-1.9,2-8-.8-.68-.11-4.61,1.1-5.81,3.13-3.13,6.94-5.59,10.3-8.17,1.58,6,3.15,13.51,11,17.06Z"/><path class="cls-1" d="M211.9,282c.32,7-6.15,5.74-10.87,9.77.81-7.43,1-13.11,2.23-18.59.44-2,2.87-4.42,4.92-5.11,8.47-2.89,17.15-5.14,25.73-7.72,8.27-2.48,16.43-5.44,24.81-7.48,3.38-.82,7.93-1,10.72.67,8.33,4.88,16.65,10.58,15.52,22.1-.31,3.15-2.57,6.11-3.93,9.16-2.08-2.38-5.54-4.54-6-7.19-1.74-10.61-10.22-14.22-17.22-19.49l-1.35,1.17a11.66,11.66,0,0,0,2.63,2.14c11.45,4.65,14.11,15,15.76,25.46.42,2.67-2.26,5.82-3.52,8.76a77.44,77.44,0,0,1-6.78-5.1,6.61,6.61,0,0,1-1.64-3.75c-1.92-13.19-11.63-18.77-24.25-23.94,2,1.75,2.56,2.63,3.36,2.91,12.26,4.27,16.87,14.82,20.6,25.75.81,2.37-1,5.62-1.56,8.46-2.51-1.09-5.26-1.84-7.46-3.38-1.36-.95-2.08-3-2.75-4.71-5.31-13.55-18-16.22-30-19.93a10.64,10.64,0,0,0,2.45,1.9c12.33,4.7,12.06,15.38,11.78,25.68-.07,2.37-2.88,4.66-4.43,7a70.69,70.69,0,0,1-7.08-5.36c-.84-.79-1-2.59-1-3.92C222.78,289.84,220,284.45,211.9,282Z"/><path class="cls-1" d="M436.65,178.11c-26.44,8.52-48.76,24.9-76.15,27.22-5.67.48-11.49-.75-17.88-1.24C351.94,186,402.26,170,436.65,178.11Z"/><path class="cls-1" d="M478.84,498.47c22.19.3,38.11-9.65,53.53-21.37-3.44,13.36-8.48,25.66-17.53,35.95-2.72,3.08-5.94,5.72-8.9,8.6-6.66,6.51-8.16,6.78-13.73-.82C487.51,514.43,484,507.18,478.84,498.47Z"/><path class="cls-1" d="M308.43,257.14c2.68,4.16,5.38,7.38,7,11.06,3.77,8.56,2.11,12.77-6.34,16.41-14.46,6.23-29,12.21-44.32,16.85,1.13-.75,2.33-1.41,3.38-2.26,3.58-2.9,7.12-5.86,10.66-8.82.65-.55,1.21-1.22,1.82-1.83,3.12-3.1,8.13-5.74,9-9.39C292.18,268.68,300.76,264.28,308.43,257.14Z"/><path class="cls-1" d="M215.61,513.14c2.28-10.31,5.84-21.53,6.92-33a56.53,56.53,0,0,0-3.27-24.81c-2.8-7.25-2.83-12.27,2.91-17.24C243.35,456.51,235.7,490.76,215.61,513.14Z"/><path class="cls-1" d="M524.87,173.39A14.45,14.45,0,0,1,534.48,160a8.45,8.45,0,0,1,7.42,1.6c4,4.06,6.92,9.11,10.66,13.42,3.31,3.82,2.57,6.85-.68,10.06-4.92,4.85-10.57,6-17,3.59S525.3,181.25,524.87,173.39Zm17.58,7.81-8.74-10.73C532.76,179.09,534.72,181.44,542.45,181.2Z"/><path class="cls-1" d="M470.19,114.67c-12.18,6.09-23.59,11.52-34.67,17.55a13,13,0,0,0-5.77,7.42c-2,8-3.06,16.2-4.53,24.51-7.64,1.17-13.85.15-19.75-5.48-10.72-10.24-22.5-19.86-38-21-8.46-.64-17.47.79-25.69,3.17-27.79,8.07-47.27,24.67-51.27,55-2.1,15.92,0,31.68,3.68,47.27.5,2.09.25,5.05-.93,6.69-2.68,3.74-6,3.1-9.45.28-6.37-5.15-12.31-11.8-21.84-9.54-20,4.75-40.52,7.81-59.2,17.16-8.68,4.35-12.58,11.76-13.51,21.07-.25,2.53-.17,5.1-.65,7.57-1.38,7-7.32,11.36-13.86,9.6-7.63-2-13.8-1.92-17.94,6.24-.88,1.74-4.34,3-6.65,3-11.41.37-21.82,2.54-28.95,12.61Q104.1,342,86.91,366.23c-.36.51-.35,1.28-.73,2.78l53.1,23.23-33.61,61.11s-.39,7.5,3.19,28.48c2.81-20.13,9.08-38.56,19.45-55.21s21.75-32.55,33.4-49.85c-5.39,2.24-9.73,4.21-14.2,5.84-2.3.83-5.28,2.14-7.19,1.36-14.38-5.88-28.57-12.23-43.38-18.67,11.34-15.83,21.41-31.32,33.17-45.4,3.61-4.34,12.34-7.52,17.81-6.46,8.19,1.59,11.8-1.42,15.57-7.08,3.07-4.61,6.95-4.18,12.57-.61-7.92,5.95-15.26,11.64-17.94,19.82-5.4-1.75-9.82-4.48-14.05-4.21-4.77.3-11.1,2-13.74,5.36-8.37,10.82-15.34,22.72-22.71,34,5.57,5.1,10.62,4.64,16.43,1.87,8.6-4.1,17.59-7.42,26.48-11.09,1.73,5.5.57,8.32-4.67,10-6.25,2-12.14,5.11-19.14,8.16,3.15,1.59,5.29,2.41,7.17,3.65,6.74,4.46,13,4.33,20.54.75,14.9-7.07,30.47-12.73,45.61-19.32,9-3.93,17.71-8.6,26.61-12.79,2.84-1.33,5.9-2.19,10.3-3.79-2.44,8.76,4.91,18.18-5.91,23.85,6.23.09,11.82-7.84,13.07-21.1L238.05,349c-.09-11.8,5.25-17.54,11.61-14.93l11.23-7.66v14c.71-13.76,7.37-20.4,21.71-20.54-.69,2.25-1,4.47-2,6.32-1.78,3.23-4.57,6-5.89,9.38-3.18,8.1-6.54,16.25-8.41,24.7-3.27,14.75-5.69,29.7-8,44.64-.75,4.88,1.62,10,6.49,10.89a17.74,17.74,0,0,0,12.57-2.89c3.28-2.48,5.43-7.27,6.62-11.46,1.61-5.7,1.44-11.89,2.73-17.71,3.41-15.44,7-30.85,10.93-46.15,1.72-6.62,4.61-12.94,7.41-20.6l-20.49,7.6c-1.86-4.78-.11-7.13,3.64-8.73q11.13-4.72,22.15-9.69c8.65-3.91,9.26-5.38,6.59-15.7L154,358.13c-1.95-6-.52-9.1,4.74-11,8.34-3,16.55-6.35,24.72-9.77,14.89-6.24,29.69-12.71,44.59-18.95,10.46-4.38,21-8.52,32-13-2.32-1.33-4.33-1.89-5.39-3.2-3.59-4.43-6.71-9.22-10.3-13.64a6.13,6.13,0,0,0-4.41-1.85c-.64,0-1.71,2.44-1.74,3.79-.07,2.51.61,5,.73,7.55.32,6.18-3.28,11.35-8.1,11.85-5,.52-9.75-3.46-11.1-9.2-.5-2.13-1.08-4.24-1.76-6.9-4.9,1.63-9.18,3.36-13.62,4.45s-9,1.53-13.47,2.25c0,0,0,0,0,.06s.07.18.1.25l-.09,0c.48,5.94-6,13.22-11.35,12.15-1.55-.31-4.06-2.34-3.91-3.19.32-1.88,1.69-4.32,3.31-5.07,3.77-1.75,7.93-2.65,11.95-3.89,0-.09,0-.19,0-.28-.29-.68-.77-1.62-.63-1.72,6.48-4.71,6.3-11.79,6.76-18.65.47-7.13,2.94-13.27,10-16,8.07-3.08,16.34-5.67,24.62-8.13,8.48-2.51,17.14-4.47,25.64-6.93,6.36-1.85,12.14-2.1,17.18,3.19,1.89,2,4.62,3.16,6.45,5.18,4.24,4.67,8.66,3.8,13.56,1.33,7.3-3.68,9-8.75,7.76-16.76-2.07-13.6-4.3-27.37-4.18-41.05.16-18,8-33.56,23.87-42.76,33.92-19.65,51.9-19.06,76.67,4.75,10.11,9.73,20.75,9.82,33,9.47,1-5.26,2.92-10.23,2.78-15.14-.43-14.07,6.77-21.19,19.28-26,12.28-4.78,23.77-11.61,35.95-17.71C480.17,112,470.19,114.67,470.19,114.67ZM270.78,404c-1.54-1.93-4.37-3.9-4.29-5.76.09-2.28,2.61-4.45,4.08-6.67,1.89,1.67,3.77,3.35,6.81,6.06Z"/><path class="cls-2" d="M260.89,345.86v-5.53C260.81,342.06,260.8,343.9,260.89,345.86Z"/><path class="cls-2" d="M191,300.89c0-.07-.07-.16-.1-.25,0,.09,0,.19,0,.28Z"/><path class="cls-2" d="M313.88,25A289,289,0,0,1,426.32,580.07,289,289,0,0,1,201.44,47.69,287,287,0,0,1,313.88,25m0-25C140.53,0,0,140.53,0,313.88S140.53,627.76,313.88,627.76,627.76,487.23,627.76,313.88,487.23,0,313.88,0Z"/></svg>