<svg xmlns="http://www.w3.org/2000/svg" xmlns:xlink="http://www.w3.org/1999/xlink" viewBox="0 0 1048.01 615.36"><defs><style>.cls-1{mask:url(#mask);filter:url(#luminosity-noclip-2);}.cls-2{mix-blend-mode:multiply;fill:url(#linear-gradient);}.cls-3{fill:#dbe8f7;}.cls-4{fill:#27aae1;}.cls-5{fill:#c3d0eb;}.cls-6{fill:#a0aed9;}.cls-7{fill:url(#linear-gradient-2);}.cls-8{fill:#231f20;}.cls-9{fill:url(#linear-gradient-3);}.cls-10{fill:url(#linear-gradient-4);}.cls-11{fill:url(#linear-gradient-5);}.cls-12{fill:url(#linear-gradient-6);}.cls-13{fill:url(#linear-gradient-7);}.cls-14{mask:url(#mask-2);}.cls-15{fill:url(#linear-gradient-8);}.cls-16{fill:url(#linear-gradient-9);}.cls-17{opacity:0.5;}.cls-18{fill:#f8971d;}.cls-19{fill:#58595b;}.cls-20{fill:#febe10;}.cls-21{fill:#333132;}.cls-22{fill:#faab77;}.cls-23{fill:#751113;}.cls-24{fill:#254790;}.cls-25{fill:#2b3a68;}.cls-26{fill:#f79351;}.cls-27{fill:#1e3966;}.cls-28{fill:#be1e2d;}.cls-29{fill:#d63044;}.cls-30{fill:#2e3652;}.cls-31{filter:url(#luminosity-noclip);}</style><filter id="luminosity-noclip" x="499.32" y="-9846.77" width="35.79" height="32766" filterUnits="userSpaceOnUse" color-interpolation-filters="sRGB"><feFlood flood-color="#fff" result="bg"/><feBlend in="SourceGraphic" in2="bg"/></filter><mask id="mask" x="499.32" y="-9846.77" width="35.79" height="32766" maskUnits="userSpaceOnUse"><g class="cls-31"/></mask><linearGradient id="linear-gradient" x1="-9693.61" y1="5331.38" x2="-9693.61" y2="5283.93" gradientTransform="matrix(-0.99, 0.13, 0.13, 0.99, -9740.15, -3550.67)" gradientUnits="userSpaceOnUse"><stop offset="0.61"/><stop offset="0.75" stop-color="#020202"/><stop offset="0.81" stop-color="#090909"/><stop offset="0.84" stop-color="#141414"/><stop offset="0.87" stop-color="#252525"/><stop offset="0.9" stop-color="#3b3b3b"/><stop offset="0.92" stop-color="#575757"/><stop offset="0.94" stop-color="#777"/><stop offset="0.96" stop-color="#9d9d9d"/><stop offset="0.98" stop-color="#c8c8c8"/><stop offset="1" stop-color="#f6f6f6"/><stop offset="1" stop-color="#fff"/></linearGradient><linearGradient id="linear-gradient-2" x1="-9743.87" y1="5290.49" x2="-9716.33" y2="5290.49" gradientTransform="matrix(-0.99, 0.13, 0.13, 0.99, -9740.15, -3550.67)" gradientUnits="userSpaceOnUse"><stop offset="0" stop-color="#231f20"/><stop offset="0.18" stop-color="#393839"/><stop offset="0.45" stop-color="#58595b"/><stop offset="1" stop-color="#231f20"/></linearGradient><linearGradient id="linear-gradient-3" x1="-9724.02" y1="5294.52" x2="-9724.02" y2="5286.12" gradientTransform="matrix(-0.99, 0.13, 0.13, 0.99, -9740.15, -3550.67)" gradientUnits="userSpaceOnUse"><stop offset="0" stop-color="#414042"/><stop offset="0.52" stop-color="#58595b"/><stop offset="1" stop-color="#333132"/></linearGradient><linearGradient id="linear-gradient-4" x1="-9720.19" y1="5296.8" x2="-9720.19" y2="5283.92" gradientTransform="matrix(-0.99, 0.13, 0.13, 0.99, -9740.15, -3550.67)" gradientUnits="userSpaceOnUse"><stop offset="0" stop-color="#231f20"/><stop offset="1" stop-color="#414042"/></linearGradient><linearGradient id="linear-gradient-5" x1="-9711.12" y1="5298.23" x2="-9711.12" y2="5282.41" gradientTransform="matrix(-0.99, 0, 0, 1, -9120.98, -4885.2)" xlink:href="#linear-gradient-3"/><linearGradient id="linear-gradient-6" x1="-9695.1" y1="5316.36" x2="-9695.1" y2="5300.43" xlink:href="#linear-gradient-4"/><linearGradient id="linear-gradient-7" x1="-9692.81" y1="5333" x2="-9692.81" y2="5282.3" gradientTransform="matrix(-0.99, 0.13, 0.13, 0.99, -9740.15, -3550.67)" gradientUnits="userSpaceOnUse"><stop offset="0" stop-color="#f7941d"/><stop offset="0.44" stop-color="#fbb20f"/><stop offset="1" stop-color="#ffd400"/></linearGradient><filter id="luminosity-noclip-2" x="499.32" y="398.3" width="35.79" height="51.38" filterUnits="userSpaceOnUse" color-interpolation-filters="sRGB"><feFlood flood-color="#fff" result="bg"/><feBlend in="SourceGraphic" in2="bg"/></filter><mask id="mask-2" x="499.32" y="398.3" width="35.79" height="51.38" maskUnits="userSpaceOnUse"><g class="cls-1"><path class="cls-2" d="M501.09,407.42a8.34,8.34,0,0,1,6.81-5.78l25.49-3.34,1.73,12.86c-.78.1-1.55.21-1.54.22.34,2.38-.36,4-2.6,4.28-6.06.81-14.35,1.88-14.44,1.89l-.58.07-.4.45c-.15.16-3.62,4.08-5,12.53l0,.15v.15s.2,12.36.27,17.21c0,.25-1,1.16-3.35,1.47s-4.24-.29-4.38-.86v-.05C503,448.42,496.21,423.91,501.09,407.42Z"/></g></mask><linearGradient id="linear-gradient-8" x1="-9693.61" y1="5331.38" x2="-9693.61" y2="5283.93" gradientTransform="matrix(-0.99, 0.13, 0.13, 0.99, -9740.15, -3550.67)" gradientUnits="userSpaceOnUse"><stop offset="0.61" stop-color="#fff"/><stop offset="0.94" stop-color="#fff"/><stop offset="1" stop-color="#fff"/></linearGradient><linearGradient id="linear-gradient-9" x1="-9677.54" y1="5328.45" x2="-9677.54" y2="5289.66" xlink:href="#linear-gradient-4"/></defs><g id="Layer_2" data-name="Layer 2"><g id="Layer_1-2" data-name="Layer 1"><path class="cls-3" d="M1027.33,615.05l-390.95-.12-603.21-.18S-37.18,496.48,27,336.67c41.86-104.17,126.48-181,271.74-134,29.93,9.68,76.73,3.5,136.91-36.48q4.59-3,9.11-6.36c1.65-1.21,3.29-2.43,4.92-3.7a239.41,239.41,0,0,0,55.46-60.39,186.93,186.93,0,0,1,31.75-37.46A198,198,0,0,1,560.8,39.74q8.07-5.34,16.65-9.92A238.39,238.39,0,0,1,626,10.47c1.66-.46,3.32-.91,5-1.34q5.84-1.52,11.76-2.76c2.72-.58,5.44-1.11,8.18-1.61,3.35-.61,6.74-1.16,10.13-1.64h0Q675,1.11,689.2.4c1.79-.09,3.59-.17,5.39-.23,1.15,0,2.3-.07,3.45-.09Q703.32,0,708.63,0c88.25.9,180.59,37.55,236.81,103.52,28.31,33.22,47.47,73.87,52.33,121.14a244.59,244.59,0,0,1-.71,55q-.1.89-.21,1.74c-.12.93-.25,1.87-.38,2.8q-.74,5.29-1.7,10.67c-1.42,7.95-2.39,16.3-5.41,24.29C926.83,484.46,1106.9,469.79,1027.33,615.05Z"/><path class="cls-4" d="M697.27.38v615H444V160.11q2.48-1.81,4.92-3.7A239.93,239.93,0,0,0,504.4,96a186.66,186.66,0,0,1,31.74-37.46A198.38,198.38,0,0,1,560,40q8.07-5.32,16.64-9.91a238.71,238.71,0,0,1,48.57-19.35c1.66-.47,3.32-.91,5-1.35,3.89-1,7.81-1.92,11.77-2.76,2.71-.58,5.44-1.11,8.18-1.61,3.35-.6,6.73-1.16,10.13-1.64h0C669.57,2.09,679,1.18,688.43.7c1.8-.09,3.6-.16,5.4-.22Z"/><path class="cls-5" d="M698,.08l-3.45.09V615.05H449.7V156.1c-1.63,1.27-3.27,2.49-4.92,3.7q-4.51,3.31-9.11,6.36V615.05h273V0Q703.32,0,698,.08Z"/><path class="cls-5" d="M577.45,29.82V615.05H560.8V39.74Q568.87,34.4,577.45,29.82Z"/><path class="cls-6" d="M569.77,333.69h-1.34a1.67,1.67,0,0,1-1.66-1.64l-.59-19.12a1.68,1.68,0,0,1,1.66-1.75h2.57a1.68,1.68,0,0,1,1.66,1.75l-.64,19.13A1.67,1.67,0,0,1,569.77,333.69Z"/><path class="cls-7" d="M563.21,399.62s1.86.73,1.9,1-1.59,1.32-1.59,1.32l-25.39,3.42-.32-2.35Z"/><path class="cls-8" d="M563,402.05a3.09,3.09,0,0,0-1.61-1.11,1.19,1.19,0,0,1-.77-1l.68-.09a6.35,6.35,0,0,0,1.27.79c.82.41,1,.89,1,1.3Z"/><path class="cls-8" d="M559.31,402.54a3.07,3.07,0,0,0-1.6-1.11,1.16,1.16,0,0,1-.77-1l.68-.09a5.8,5.8,0,0,0,1.27.79c.82.42,1,.89,1,1.31Z"/><path class="cls-8" d="M555.66,403a3.07,3.07,0,0,0-1.6-1.11,1.19,1.19,0,0,1-.78-1l.69-.1a6.16,6.16,0,0,0,1.27.8c.82.41,1,.88,1,1.3Z"/><path class="cls-8" d="M552,403.52a3.07,3.07,0,0,0-1.6-1.11,1.19,1.19,0,0,1-.78-1l.68-.09a7.21,7.21,0,0,0,1.28.79c.82.41,1,.89,1,1.3Z"/><path class="cls-8" d="M548.36,404a3.09,3.09,0,0,0-1.61-1.1,1.22,1.22,0,0,1-.77-1l.68-.09a7.43,7.43,0,0,0,1.27.79c.82.41,1,.89,1,1.3Z"/><path class="cls-8" d="M544.71,404.5a3.14,3.14,0,0,0-1.61-1.1,1.22,1.22,0,0,1-.77-1l.68-.09a7.43,7.43,0,0,0,1.27.79c.82.41,1,.89,1,1.3Z"/><polygon class="cls-9" points="542.72 407.64 547.98 406.93 549.19 404.89 548.52 400.4 546.86 398.61 541.6 399.31 542.72 407.64"/><polygon class="cls-10" points="542.16 397.02 543 396.91 543.04 396.9 543.97 397.36 543.18 398.06 544.13 398.52 543.34 399.22 544.28 399.69 543.49 400.39 544.44 400.85 543.65 401.55 544.6 402.02 543.81 402.72 544.75 403.19 543.97 403.89 544.91 404.35 544.12 405.05 545.07 405.52 544.28 406.22 545.22 406.69 544.44 407.39 545.38 407.85 544.59 408.55 545.54 409.02 544.84 409.64 544.71 409.65 544.72 409.67 539.62 410.35 537.91 397.59 542.16 397.02"/><rect class="cls-11" x="526.74" y="396.83" width="12.13" height="15.82" transform="translate(-49.21 74.66) rotate(-7.66)"/><path class="cls-12" d="M527.48,417.74a3.31,3.31,0,0,1-3,4.52c-4.38.59-6.32,3.32-6,5.45s-.4,5.29-6.47,6.11C511.94,433.82,504.82,411.81,527.48,417.74Z"/><path class="cls-13" d="M499.68,406.94a10,10,0,0,1,8.14-6.93l25.26-3.3,2.12,15.78c-.28,1.26.44,4.18-3.87,4.76-6.14.82-14.45,1.89-14.45,1.89s-3.27,3.63-4.62,11.71c0,0,.2,12.37.28,17.22.05,3.44-10,4.6-10.91,1C501.63,449.09,494.6,424.08,499.68,406.94Z"/><g class="cls-14"><path class="cls-15" d="M501.09,407.42a8.34,8.34,0,0,1,6.81-5.78l25.49-3.34,1.73,12.86c-.78.1-1.55.21-1.54.22.34,2.38-.36,4-2.6,4.28-6.06.81-14.35,1.88-14.44,1.89l-.58.07-.4.45c-.15.16-3.62,4.08-5,12.53l0,.15v.15s.2,12.36.27,17.21c0,.25-1,1.16-3.35,1.47s-4.24-.29-4.38-.86v-.05C503,448.42,496.21,423.91,501.09,407.42Z"/></g><path class="cls-16" d="M504.77,417.18c-1.4,6.17-4,18-1.52,22.94,1.81,3.63.34,5.9-2,7.34-1.39-5.6-5.51-24.51-2-38.87C501.09,409.44,505.91,412.17,504.77,417.18Z"/><g class="cls-17"><path class="cls-18" d="M508,404.88a.7.7,0,0,0,.78.61l21.55-2.9a.71.71,0,0,0,.6-.79h0a.7.7,0,0,0-.79-.61l-21.54,2.9a.69.69,0,0,0-.6.79Z"/><path class="cls-18" d="M508.37,407.46a.71.71,0,0,0,.79.6l21.55-2.9a.69.69,0,0,0,.59-.79h0a.68.68,0,0,0-.78-.6L509,406.66a.72.72,0,0,0-.6.8Z"/><path class="cls-18" d="M508.72,410a.7.7,0,0,0,.79.6l21.54-2.9a.7.7,0,0,0,.6-.79h0a.7.7,0,0,0-.79-.6l-21.54,2.9a.7.7,0,0,0-.6.79Z"/><path class="cls-18" d="M509.06,412.6a.71.71,0,0,0,.79.6l21.55-2.9a.7.7,0,0,0,.6-.79h0a.71.71,0,0,0-.79-.6l-21.55,2.9a.7.7,0,0,0-.6.79Z"/></g><path class="cls-19" d="M439.77,443c-.79.83-8.45,7.83-8.45,7.83l.64.69s8-7.39,8.46-7.81c.89-.72,1.51-1,2.09-1.54l2.58-2.37-1-1.13-2.57,2.37C440.89,441.61,440.56,442.2,439.77,443Z"/><path class="cls-20" d="M424.26,454.13c-.9.78-5.62,5.27-5.62,5.27a1.46,1.46,0,0,0-.51,1.48,5.4,5.4,0,0,0,1,1.85h0a5.37,5.37,0,0,0,1.76,1.17,1.48,1.48,0,0,0,1.53-.39s4.84-4.35,5.69-5.18a8.07,8.07,0,0,0,1.65-2.58,3.59,3.59,0,0,1,2.29-1.55c.36.07.91-.33,1.29-.8.55-.67-.27-2-.8-2.69a1.54,1.54,0,0,0-.17-.19h0l-.18-.19c-.6-.58-1.9-1.5-2.61-1-.49.33-1,.86-.9,1.22A3.63,3.63,0,0,1,427,452.7,8.1,8.1,0,0,0,424.26,454.13Z"/><path class="cls-21" d="M426.5,455.1a1.15,1.15,0,0,1,1.62.06h0a1.14,1.14,0,0,1-.07,1.62l-6.54,6a1.14,1.14,0,0,1-1.62-.07h0a1.14,1.14,0,0,1,.07-1.62Z"/><path class="cls-21" d="M429.9,450.48l1.11-1a1.46,1.46,0,0,0-1.42-.14c-.48.33-.94.87-.9,1.22a1.1,1.1,0,0,1,0,.15A1.16,1.16,0,0,0,429.9,450.48Z"/><path class="cls-21" d="M419.22,460.33l6.54-6a1.16,1.16,0,0,0,.3-1.24,5.64,5.64,0,0,0-1.8,1.07c-.9.78-5.63,5.26-5.63,5.26a1.54,1.54,0,0,0-.56,1.18A1.14,1.14,0,0,0,419.22,460.33Z"/><path class="cls-21" d="M430.64,451.27a1.15,1.15,0,1,0,1.55,1.69l1.13-1a5.56,5.56,0,0,0-.76-1.22,1.54,1.54,0,0,0-.17-.19l-.18-.19-.28-.25Z"/><path class="cls-22" d="M416.65,446.56s11.38,1.65,14,4.62,4.29,5.28,2.64,6.6-26.73-5.12-26.73-5.12Z"/><path class="cls-23" d="M389.26,406.31l30.68,39.26s-2.63,5.28-11.21,6.27S382,447.22,382,445.57,389.26,406.31,389.26,406.31Z"/><path class="cls-24" d="M486.38,491.36c-8.92,10.28-27.74,16.93-64.05,18.61q-4.38.21-8.8.34t-9.11.2c-9.86.14-19.68,0-29-.29-9.07-.31-17.71-.81-25.54-1.46-15.31-1.27-27.54-3.13-33.85-5.25a12.21,12.21,0,0,1-4-2,7.05,7.05,0,0,1-1.57-2c-2.29-4.25-1.09-11.21,1.67-18.88,4-11.17,11.44-23.83,16.42-31.75,1-1.59,1.89-3,2.65-4.13,1.52-2.32,2.47-3.69,2.47-3.69s17,1.58,40.18,4.59c4.73.61,9.73,1.29,14.9,2,49.93,7.06,99.67,19.75,99.62,36.59C488.32,486.82,488.48,488.93,486.38,491.36Z"/><path class="cls-25" d="M424.56,509.77c-3,.09-17.1.7-20.14.74-9.86.14-19.68,0-29-.29l-8.8-35.46C380.19,493.75,420.19,508.54,424.56,509.77Z"/><path class="cls-25" d="M395.16,612.74h48.39c-.76-1.84-2.6-4.24-7.09-5-7.63-1.34-20.86-5.46-19.16-16.46s-16.85-12.59-16.85-12.59S392.73,608.5,395.16,612.74Z"/><path class="cls-24" d="M487.17,489.53s-60,94.46-65,105.68c0,0-20.42,1.9-25.34-12.69,0,0,35.69-99.68,51.38-107.89S487.17,489.53,487.17,489.53Z"/><path class="cls-22" d="M366.09,290.68s20.68,28.29,39.1,29.81c0,0-2.35-10.65-7.79-17.37,1.46-2.36,2.73-4.52,3.82-6.44a109.34,109.34,0,0,0,5.23-10.25L398,271.1l-1.75-8.25a55.45,55.45,0,0,1-5,10.39A39.29,39.29,0,0,1,366.09,290.68Z"/><path class="cls-26" d="M390.43,273.09s-3,14.18,10.79,23.59a109.34,109.34,0,0,0,5.23-10.25L398,271.1C391.2,270.09,390.43,273.09,390.43,273.09Z"/><path class="cls-22" d="M409,295s-25.94-14.13-16.89-30.14,11.79-28.62,28.73-20.28,16.68,16.25,15,22.33S416,298.24,409,295Z"/><path class="cls-8" d="M392.23,233c-.14-.4-.64-.87-2-1.46a5.78,5.78,0,0,1,2.76.25c1-1.77,3.28-4.72,6.78-4.3a4.37,4.37,0,0,0-3.07,2.18c5.18-2.42,14.16-2.17,35.37,8,28,13.46,11.2,28.54,6.61,29.33s-11.64-9-18.81-11.09-12.44,7.57-15.34,8.06-1-1.63-3.65-4.33-5,2.56-5.43,6.41-6.6,6.76-6.6,6.76l-2.56-6.56c-2.56-6.56,1.2-28.72,4.9-32.32Z"/><path class="cls-27" d="M237.39,581.86S231.36,591,230,594s1.35,9.28,5.48,10.23c3.65.84,4.2,7.31,4.2,7.31H222a4.66,4.66,0,0,1-4.28-2.62c-2.49-5.49-3.07-12.62-3.57-15-1-5-3.14-9.23-2.22-14.35s9.63-8,25.51-8C254.84,571.6,237.39,581.86,237.39,581.86Z"/><path class="cls-28" d="M289.38,471.47c13.34,14.13,111.27-15.1,103.06-22.55-2.09-1.89-1.37-4.17-2.22-7.22-4.06-14.45,4-39.19,7.49-48.78.81-2.22,1.37-3.62,1.48-3.91a167.68,167.68,0,0,0,7.54-27.27c3.23-17.28,3.17-33.35-1.24-43.19a.91.91,0,0,0-.07-.14C387.07,313.05,377,286.06,377,286.06s-58.11,16.51-79.2,99.43c0,0-1.09,5.29-2.44,13.22h0c-.4,2.44-.84,5.13-1.27,8-2.25,14.75-3.56,33.68-4.9,47.76L289,456C288.33,462,287.17,469.12,289.38,471.47Z"/><path class="cls-24" d="M366.5,457.45s-9.76,1.29-29.45,2.73c-20.41,1.52-42,4.73-45.55,11.59-1.16,2.27-.35,8,1.92,16,5,17.54,17.23,45.79,31.15,70.84-35.76,2.07-84.42,10-84.42,10a21.43,21.43,0,0,0-4.63,19.54c2.55,0,10.23,1.1,20.7,2.79,38,6.11,84.17,18.67,112.83,18.67,6.27,0,11-4.45,12.87-10.27h0C393.7,563.4,366.5,457.45,366.5,457.45Z"/><path class="cls-25" d="M293.42,490.38c19.75-.62,69.26-24.93,68.45-25.13a238.12,238.12,0,0,0-24.82-4.82c-20.41,1.64-42,5.14-45.55,12.6C290.34,475.5,291.15,481.74,293.42,490.38Z"/><path class="cls-23" d="M356.82,342.73s1.15,89.81,33.4,99c-4.06-14.45,4-39.19,7.49-48.78C389.4,369.83,374.1,346.52,356.82,342.73Z"/><path class="cls-24" d="M367.23,290.1s24.84,5.17,27.26,26.94c1.77,15.85-15.56,51.75-15.56,51.75l-3.31-3.3s15.22-44.32,12.88-51.86c-3-9.67-17.28-24.14-30.42-18.36Z"/><path class="cls-24" d="M289.38,471.47c13.34,14.13,113.38-14.79,105.17-22.24a15.51,15.51,0,0,1-4.33-7.53c-4.06-14.45,4-39.19,7.49-48.78.81-2.22,1.37-3.62,1.48-3.91l-5.06-5-18.51-18.48a91,91,0,0,1-15.82,13.26,114.33,114.33,0,0,1-64.47,20h0c-.4,2.44-.84,5.13-1.27,8-2.25,14.75-3.56,33.68-4.9,47.76L289,456C288.33,462,287.17,469.12,289.38,471.47Z"/><path class="cls-25" d="M359.8,378.75c3.7,26.11,12,57.71,30.42,62.95-4.06-14.45,4-39.19,7.49-48.78-1.08-3-2.27-6-3.58-8.95l-18.51-18.48A91,91,0,0,1,359.8,378.75Z"/><path class="cls-22" d="M511,437.82c-6,0-17.3-5.51-18.32-5.61-8.61-.83-.31-9.31-.31-9.31s13.54-3,15.82-2.8a24.2,24.2,0,0,1,3.3.64L510,424.21s9.43,1.43,9.55,4.06S514,437.82,511,437.82Z"/><path class="cls-29" d="M495,427.1c2.08-6-.81-7.87-.81-7.87s-59.13-28.05-64-31.13-37.34-62.29-37.34-62.29-12.05-24.21-27.4-23.73c-13.34.43-20.75,8.74-24.86,17.46a27.94,27.94,0,0,0,5.06,31.07c17.7,18.74,53.26,55.84,62.47,61.47,20.5,12.53,81.94,22.67,81.94,22.67A20,20,0,0,0,495,427.1Z"/><circle class="cls-6" cx="569.13" cy="396.71" r="4.18"/><rect class="cls-6" x="567.14" y="397.17" width="3.97" height="13.18" rx="1.98"/><rect class="cls-30" x="2.63" y="613.7" width="1042.75" height="1.65" rx="0.83"/></g></g></svg>