<svg xmlns="http://www.w3.org/2000/svg" viewBox="0 0 1005.56 383.41"><defs><style>.cls-1{fill:#231f20;}.cls-2{fill:#be1e2d;}.cls-3{fill:none;}</style></defs><g id="Layer_2" data-name="Layer 2"><g id="Layer_1-2" data-name="Layer 1"><path class="cls-1" d="M373.22,247.52c-2.71-6.27-5.42-12.53-8.37-19.33-2.33,5.18-4.42,9.95-6.64,14.67-.72,1.53-.84,4.21-2.59,4.18-1.92,0-1.85-2.81-2.55-4.38-3.34-7.48-6.5-15-9.7-22.58-.72-1.71-1.27-3.39-3.73-3.12-1.25.13-2-.66-1.83-2.08A1.87,1.87,0,0,1,340,213c2.54,0,5.08,0,7.61,0,1.08,0,1.94.26,2.18,1.44s.13,2.34-1.28,2.53c-2,.27-1.54,1.3-1,2.51q3.46,8.16,6.88,16.32c.28.69.52,1.43,1.4,1.41s.79-1,1-1.6c1.56-3.52,3.15-7,4.66-10.58,1.62-3.76-.07-7.14-4-8-1.07-.23-1.82-.53-1.81-1.79s.38-2.18,1.8-2.2c2.78,0,5.56,0,8.34-.05a1.65,1.65,0,0,1,1.81,1.41c.2,1,.22,2-.93,2.44-1,.38-1.85.77-1.32,2,2.63,6.28,5.28,12.55,8.32,19.76,3.07-7.17,5.73-13.34,8.35-19.52.53-1.26.09-2-1.31-2.33s-1-1.48-.86-2.42.95-1.33,1.84-1.35c2.66,0,5.32,0,8,0a1.82,1.82,0,0,1,2.09,1.93c.09,1.38-.53,2.21-1.84,2.07-2.54-.29-3.23,1.31-4,3.23-3.81,9.08-7.75,18.11-11.64,27.16Z"/><path class="cls-1" d="M447.84,147.08c-3,3.85-6,7.72-9.1,11.56-3.61,4.55-2.69,5.09-6.8-.12a105.36,105.36,0,0,0-10.12-11.75c0,5.58,0,11.16,0,16.73,0,1.38,1.3,1.14,2.18,1.36,1.22.3,1.34,1.26,1.32,2.26,0,1.23-.8,1.66-1.91,1.66-2.66,0-5.32,0-8,0-1.26,0-2.19-.42-2.16-1.83,0-1.15.4-2.28,1.85-2.16,2.69.21,2.45-1.55,2.44-3.3,0-6.41,0-12.81,0-19.21,0-1.83.09-3.41-2.5-3.23-1.39.09-1.82-1-1.83-2.21,0-1.43,1-1.74,2.19-1.84a5.29,5.29,0,0,1,5.31,2.23c4.15,5.63,8.6,11,12.79,16.64,1.48,2,2.33,1.81,3.72,0,4.19-5.61,8.61-11,12.76-16.67,1.45-2,3.19-2.28,5.34-2.16,1.31.06,2.11.48,2.06,1.89,0,1.16-.28,2.29-1.78,2.17-2.4-.19-2.37,1.31-2.36,3,0,6.64,0,13.29,0,19.93,0,1.58,0,3,2.21,2.8,1.71-.12,2,1.09,1.9,2.4-.07,1.5-1.16,1.61-2.33,1.61-2.42,0-4.84,0-7.25,0-1.17,0-2.28,0-2.26-1.59,0-1.05-.14-2.33,1.46-2.43,1.11-.07,1.92-.48,1.92-1.68,0-5.27,0-10.53,0-15.79Z"/><path class="cls-1" d="M341.62,152.13c0-2.9,0-5.8,0-8.7,0-2,.81-4.52-2.77-4.6-1.07,0-1.13-1.44-1-2.41s1-1.35,1.86-1.36c2.78-.05,5.56-.07,8.35,0a1.66,1.66,0,0,1,1.81,1.82,2.21,2.21,0,0,1-1.47,2.23c-2.28.94-3.3,5-2.42,8.82.63,2.75,2.85,1.68,4.45,1.74,3.62.15,7.26,0,10.88.06,2,0,2.94-.67,2.79-2.75a46.25,46.25,0,0,1,0-4.71c0-1.64.16-3.22-2.25-3.19-1.52,0-1.61-1.22-1.62-2.33,0-1.47,1-1.74,2.21-1.73,2.54,0,5.08,0,7.62,0,1.29,0,2.11.43,2.05,1.88-.05,1.16-.19,2.28-1.73,2.18-2.28-.14-2.08,1.38-2.08,2.87q0,10,0,19.94c0,1.51-.16,3,2.08,2.91,1.84-.07,1.71,1.34,1.7,2.54s-1,1.47-2,1.46q-4,0-8,0c-1.17,0-1.84-.51-1.82-1.72,0-1,.11-2.24,1.31-2.22,2.9,0,2.52-1.89,2.53-3.7.06-7.26.07-7.26-7.31-7.26h-3.63c-7.15,0-8.85,2.23-7.2,9.26.34,1.44,1.24,1.52,2.37,1.66,1.44.17,1.6,1.34,1.51,2.45s-1,1.54-2.06,1.54c-2.54,0-5.08,0-7.62,0-1.14,0-2.26-.14-2.3-1.66,0-1.19.25-2.32,1.67-2.31,2.2,0,2.15-1.38,2.14-2.91C341.6,158.65,341.62,155.39,341.62,152.13Z"/><path class="cls-1" d="M412.39,227.94h1.09c8.31,0,8.28,0,7.66-8.34-.11-1.5-.37-2.59-2.18-2.62-1.43,0-1.78-.94-1.68-2.23s1-1.77,2.22-1.76c2.54,0,5.08,0,7.62,0,1.3,0,2,.53,2.09,1.92s-.49,2.14-1.84,2.08c-2.05-.09-2,1.26-2,2.63,0,6.88,0,13.77,0,20.65,0,1.6.14,2.87,2.26,2.83,1.51,0,1.61,1.14,1.52,2.33s-.88,1.61-2,1.61c-2.66,0-5.32,0-8,0a1.67,1.67,0,0,1-1.92-1.69c-.08-1,0-2.19,1.23-2.23,3.06-.09,2.57-2.23,2.59-4.12.05-7.1.05-7.1-7-7.09h-3.62c-7.58,0-9,1.79-7.42,9.26.23,1.07.67,1.82,1.85,1.82,1.64,0,2.06.95,1.91,2.38-.17,1.7-1.37,1.69-2.65,1.67-2.42,0-4.84,0-7.25,0-1.1,0-1.9-.34-2-1.6s-.16-2.37,1.44-2.36c2.36,0,2.34-1.49,2.33-3.16,0-6.65,0-13.29,0-19.93,0-1.73-.1-3.14-2.4-3.07-1.32,0-1.47-1-1.43-2s.47-1.88,1.7-1.89c2.78,0,5.56,0,8.34,0a1.67,1.67,0,0,1,1.89,1.72c.08,1,0,2.22-1.25,2.21-2.56,0-2.51,1.56-2.55,3.37-.18,7.66-.2,7.66,7.56,7.66Z"/><path class="cls-1" d="M391.42,189.88v-8.33c0-1.91.07-3.65-1.46-5.35-1.26-1.39-1-3.43,1.58-3.45,4-.05,8-.42,11.91.63s6.94,3.25,7.65,7.31-.61,7.69-4.62,9.72c-1.86.94-1.9,2.16-1,3.8,1,1.92,2,3.88,2.82,5.87.72,1.68,1.59,2.92,3.72,2.62,1.55-.21,2.12.65,2.11,2.17s-.85,1.72-2.08,1.87c-3.44.41-6-.19-7.22-4.08-1-3.08-2.67-5.92-4.06-8.86-.66-1.4-1.54-2.45-3.33-2.16-2,.34-1.42,1.94-1.49,3.14-.1,1.45.08,2.91-.05,4.35-.22,2.44.23,4.06,3.24,3.57,1.52-.25,2.17.53,2.17,2.08s-.63,2-2,1.95c-2.66,0-5.33,0-8,0-2,0-2.54-1.72-1.72-2.65,3.29-3.71,1.22-8,1.8-12A14.4,14.4,0,0,0,391.42,189.88Zm4.36-7.8c0,5.59,0,5.59,3.32,5.58,5,0,7.87-2,7.84-5.48,0-3.27-3.19-5.22-8-5.38S396.43,180.31,395.78,182.08Z"/><path class="cls-1" d="M472.57,168.8c-3.15,0-6.29,0-9.44,0-.94,0-2.06.22-2.36-1.08-.26-1.1-.29-2.49.93-2.78,1.94-.46,1.64-1.77,1.64-3.06q0-9.78,0-19.58c0-1.37.44-2.85-1.7-3.39-1.15-.29-1.1-1.74-.83-2.83s1.16-1,2-1c6.42,0,12.83,0,19.25,0,1.44,0,2.49.45,2.3,2-.23,1.91,1.09,4.26-1.24,5.6-.83.47-2.35.2-2.49-.79-.47-3.49-3-2.7-5.13-2.74q-1.45,0-2.91,0c-5.84.08-5-.53-5,5,0,6.17-.83,5.54,5.63,5.59q3.45,0,6.9,0c1.37,0,2.37.32,2.45,1.94.09,1.84-1,2.25-2.53,2.25-3.15,0-6.3.07-9.44,0-2-.06-3,.44-3.08,2.78-.27,8.14-.36,8.17,7.8,8.1,2.54,0,5.7,1.16,6.37-3.12.14-.92,1.9-.8,2.55-.22,1.81,1.61.76,3.86.84,5.82.07,1.78-1.52,1.55-2.69,1.57C479.11,168.83,475.84,168.81,472.57,168.8Z"/><path class="cls-1" d="M513.27,206.73h-9.8c-1,0-2,0-2.27-1.24s-.21-2.42,1.11-2.71c2-.42,1.61-1.81,1.62-3.08,0-6.52,0-13,0-19.56,0-1.33.16-2.64-1.54-3.26a2.09,2.09,0,0,1-1.19-2.72c.32-1.31,1.31-1.49,2.52-1.49q9.43.06,18.86,0c1.48,0,2.53.57,2.35,2-.23,1.83,1,4.05-.89,5.43a2.19,2.19,0,0,1-2.95-.55c-.61-.89,0-2.63-1.87-2.62-3.38,0-6.76,0-10.14.15-.82,0-.86,1-1,1.71-1.31,7.79-.47,8.79,7.39,8.79,1.58,0,3.15,0,4.72,0s3,0,3,2.14-1.49,1.88-2.81,1.9c-3,0-6.05.12-9.06,0-2.25-.11-3.2.49-3.26,3-.19,8.12-.29,8.17,7.8,8.08,2.48,0,5.68,1.31,6.35-3.06.17-1.1,2.19-.87,2.84-.21,1.62,1.63.62,3.86.71,5.83s-1.58,1.48-2.68,1.5C519.79,206.78,516.53,206.74,513.27,206.73Z"/><path class="cls-1" d="M373.74,172.68h9.44c1.42,0,2.5.62,2.38,2.09-.15,1.8,1.1,4-1,5.31-.94.58-2.59.53-2.82-.65-.65-3.28-3-2.42-5.07-2.5-.72,0-1.45,0-2.18,0-5.85,0-5.85,0-5.84,5.89,0,4.77,0,4.77,4.68,4.78,2.66,0,5.32,0,8,0,1.44,0,2.29.39,2.32,2s-.85,2.05-2.28,2c-3.27,0-6.54.08-9.8,0-2-.07-2.76.68-2.93,2.68-.71,8.4-.76,8.4,7.58,8.4,1,0,1.94,0,2.91,0,1.62.05,3.19.19,3.14-2.25,0-1.22,1-1.42,2.1-1.42,1.25,0,1.61.71,1.83,1.79,1,4.85.11,5.91-4.9,5.92-5.57,0-11.14,0-16.7,0-1.05,0-2.4.3-2.72-1.13-.26-1.14-.42-2.53,1.28-2.9s1.26-1.57,1.26-2.6c0-6.77,0-13.54,0-20.32,0-1.2.16-2.42-1.44-2.92-1.31-.41-1.36-1.59-1.16-2.71.25-1.42,1.37-1.46,2.51-1.45,3.15,0,6.3,0,9.45,0Z"/><path class="cls-1" d="M460.85,247c-3.38,0-6.77,0-10.15,0s-4.56-1.86-2.58-4.78c1.76-2.59,3.84-5,5.79-7.41q6.07-7.65,12.17-15.29c.44-.56,1.14-1.11.9-1.86-.35-1.12-1.43-.62-2.18-.63-4.59,0-9.19,0-13.78,0-1,0-2.48.3-2.69-1.14s-.8-3,.52-4.06a2.49,2.49,0,0,1,3.34.25c1.53,1.52,3.43.84,5.16.89,4.23.1,8.47,0,12.7,0,1.17,0,2.58-.33,3.16,1.1a4,4,0,0,1-.83,4.07q-4.14,5.26-8.31,10.5c-3,3.78-6,7.54-9,11.33-.55.71-1.57,1.42-.9,2.49.52.83,1.53.51,2.33.51,3.62,0,7.26-.13,10.88.07,2.63.14,3.49-1,3.28-3.39a19.57,19.57,0,0,1,0-2.54c0-1.28.66-2,2-2s2.13.52,2.14,1.9q0,4,0,8c0,1.83-1.24,2.07-2.72,2.06-3.75,0-7.5,0-11.25,0Z"/><path class="cls-1" d="M410.17,152.12a17.65,17.65,0,0,1-17.46,17.21,17.39,17.39,0,0,1-17.39-17.54,17.57,17.57,0,0,1,17.37-17.27A17.82,17.82,0,0,1,410.17,152.12Zm-17.34-13.38a13.23,13.23,0,0,0-.43,26.45,13.23,13.23,0,1,0,.43-26.45Z"/><path class="cls-1" d="M434.86,208c-4.21-9.73-8.1-18.66-11.9-27.62-.79-1.86-1.34-3.62-3.91-3.46-1.41.08-1.76-1-1.71-2.26a1.82,1.82,0,0,1,2.09-1.94c2.42,0,4.84,0,7.26,0,1.14,0,2.28,0,2.47,1.5.15,1.11.18,2.29-1.25,2.62-1.85.44-1.46,1.57-1,2.76,2.23,5.21,4.46,10.42,6.73,15.61.26.6.44,1.51,1.36,1.46s1.09-.88,1.35-1.5c2.24-5.21,4.44-10.43,6.65-15.64.47-1.1.6-2-.67-2.76a2.2,2.2,0,0,1-.81-2.88c.5-1.28,1.66-1.19,2.77-1.18q3.45,0,6.9,0c1.3,0,2.05.49,2.11,1.88s-.43,2.51-2,2.33c-2.67-.31-3.5,1.34-4.36,3.39-3.32,8-6.76,16-10.19,24C436.38,205.22,435.82,206.14,434.86,208Z"/><path class="cls-1" d="M348.6,207a16,16,0,0,1-8.21-2.46c-2.68-1.58-2.79-4-2.56-6.59.12-1.31,1-1.51,2-1.56a1.78,1.78,0,0,1,2.05,1.53,7,7,0,0,0,10,4.48c3.94-1.83,4.27-7.18.57-9.83a19.69,19.69,0,0,0-6-2.41c-5.38-1.62-8-5.33-7.13-10.13s4.6-7.62,10-7.47a14.66,14.66,0,0,1,6.57,1.79c1.69.9,1.85,2.35,1.82,4a1.79,1.79,0,0,1-1.69,2c-1.67.24-2-1-2.82-2.08-1.41-1.92-3.77-1.79-6-1.29-2.35.53-3.37,2.17-3.59,4.42s1,3.69,2.93,4.51,4.12,1.38,6.11,2.21c5.14,2.14,7.54,6.45,6.5,11.48C358.23,204.2,354.08,207.12,348.6,207Z"/><path class="cls-2" d="M313,191.69q0-26.48,0-53c0-1,0-1.93.11-2.89a1.36,1.36,0,0,1,1.46-1.3,1.24,1.24,0,0,1,1.39,1.31c.09,1,.12,1.93.12,2.9q0,53,0,105.94c0,.84,0,1.69-.07,2.53a1.26,1.26,0,0,1-1.44,1.27,1.33,1.33,0,0,1-1.46-1.28c-.09-1.09-.1-2.18-.1-3.26Q313,217.81,313,191.69Z"/><path class="cls-1" d="M489.33,207a17.6,17.6,0,0,1-16.59-10.9,17.37,17.37,0,0,1,4.09-18.68c5.43-5.09,11.74-6.29,18.76-3.81,3,1,2.58,3.4,2.22,5.7-.13.89-1,.94-1.71,1s-1.85,0-2-1c-.59-3.06-3.08-2.77-5.1-2.74a12.36,12.36,0,0,0-11.87,8c-2.15,5.07-1.51,10,2.19,14.17s8.65,5.21,13.87,3.66c2-.58,3.27-.84,4,1.28.75,2.32-1.59,2-2.62,2.58A11.55,11.55,0,0,1,489.33,207Z"/><path class="cls-1" d="M462.3,206.72c-1.21,0-2.42,0-3.62,0s-2.14-.36-2.19-1.79c0-1.2.21-2.28,1.69-2.23,1.94.06,2.08-1.1,2.08-2.57q0-10.14,0-20.27c0-1.59-.18-2.83-2.21-3-1.3-.11-1.74-1.19-1.58-2.41a1.93,1.93,0,0,1,2.27-1.79c2.53.05,5.07,0,7.6,0,1.25,0,2.11.44,2.19,1.84.07,1.22-.26,2.29-1.64,2.33-2,.06-2.26,1.24-2.25,2.88.05,6.76,0,13.51,0,20.27,0,1.34-.18,2.77,1.9,2.69,1.6-.07,2,.88,2,2.33s-1.14,1.65-2.26,1.68C465,206.75,463.63,206.72,462.3,206.72Z"/><path class="cls-1" d="M438.24,247h-4a1.75,1.75,0,0,1-1.92-1.73c-.14-1.08.13-2.1,1.33-2.17,2.48-.14,2.47-1.79,2.46-3.56q0-9.62,0-19.22c0-1.75.1-3.43-2.48-3.46-1.15,0-1.47-1.08-1.32-2.18a1.76,1.76,0,0,1,1.92-1.73c2.78,0,5.57,0,8.35,0,1.18,0,1.67.74,1.76,1.87s-.34,2-1.5,2c-2.4-.09-2.36,1.44-2.36,3.09,0,6.65,0,13.29,0,19.94,0,1.38-.33,3.08,2,3.1a1.72,1.72,0,0,1,1.89,2.08c-.09,1.63-1.14,1.95-2.49,1.93S439.45,247.05,438.24,247Z"/><path class="cls-1" d="M225.25,172.33c-13.43,0-26.87,0-40.31,0-2.26,0-3.79.2-3.5,3,.18,1.75-.65,3.26-2.6,3.19s-2.69-1.59-2.5-3.33c.3-2.66-1.11-3-3.25-2.91-3.27.11-6.54,0-9.81,0-1.46,0-3,.13-3.65-1.63s.6-2.86,1.91-3.86q22.14-17,44.26-34c5.47-4.19,11-8.29,16.39-12.56,2.16-1.71,3.9-1.79,6.12,0,6.64,5.23,13.42,10.29,20.15,15.41.85.65,1.68,1.8,2.76,1.5,1.35-.38.83-1.84.84-2.84,0-2.7,1.52-3.56,4-3.53,3.88,0,7.75.09,11.62,0,2.89-.07,4.2,1.07,4.13,4.07-.12,5.08.1,10.16-.06,15.24a5.88,5.88,0,0,0,2.65,5.48c5,3.64,9.79,7.49,14.68,11.24,1.3,1,2.54,2,1.82,3.87s-2.19,1.64-3.65,1.65a83.1,83.1,0,0,1-9.07-.06c-3.38-.36-4,1-3.95,4.07.16,11.6-.06,23.22.09,34.82,0,3.44-1,4.72-4.57,4.68-11.5-.14-23,.07-34.5,0-2.7,0-3.59.78-3.58,3.46,0,4.66-.5,4.94-5.36,5.06-1.44,0-3.3-.75-4.15,1.23-.91,2.13,1,3,2.1,4.13,3.28,3.37,3.31,3.93-.05,7.34-2.46,2.49-5,4.85-7.44,7.41-2.08,2.22-3.82,1.9-5.87,0-1.31-1.23-2.28-3.74-4.49-2.92-2.49.91-1.51,3.54-1.57,5.47-.08,3-1.21,4.4-4.4,4.24-4-.2-8,0-12-.06-1.75,0-3.27-.51-3.26-2.53s1.43-2.59,3.22-2.58c2.79,0,5.57-.12,8.35,0,2,.08,2.79-.52,2.87-2.63.18-4.68,3.14-7.49,7.84-7.88,2.18-.18,3.25,1.46,4.44,2.73,1.39,1.47,2.51,1.63,3.82,0a12.82,12.82,0,0,1,2.06-2c2.26-1.78,2.72-3.47.16-5.45-1.85-1.43-2.82-3.08-1.36-5.61,1.56-2.68,1.65-6.69,6.35-5.89,3.05.53,3.94-1,3.54-3.71-.35-2.36,1.55-6.23-3.47-5.64-3.57.42-4.77-1.77-5.93-4.53s-1.92-5.2,1-7.29c2.26-1.6,2.06-3.2,0-4.85a16.65,16.65,0,0,1-2.33-2.27c-1.31-1.56-2.4-1.48-3.84,0-1.61,1.63-3,3.81-6.11,2.21s-7.14-2.2-6.26-7.28c.35-2-.78-2.89-2.77-2.67-2.69.29-5.85-1.19-7.61,2.42-.59,1.19-2.17,1.12-3.18.15-1.62-1.56-1-3.65-.84-5.51s1.74-2.21,3.22-2.24c4.35-.08,8.71-.07,13.07,0,2.19,0,3.32,1.19,3.34,3.4,0,1,0,1.93.06,2.9.05,1.18-.19,2.49,1.23,3.13,1.61.73,2.43-.51,3.38-1.4,4.44-4.15,4.43-4.15,8.91.17,1.48,1.43,3,2.81,4.44,4.28a3.54,3.54,0,0,0,3.68.87c1.66-.44,1.1-1.93,1.14-3.05.07-2.54.07-5.08,0-7.62s1-3.7,3.72-3.67q13.62.18,27.24.09c2.56,0,3.46,1.26,3.5,3.53,0,2.78.13,5.57,0,8.35-.11,3.29,2.28,2.3,4,2.52,2.15.27,3-.49,3-2.78-.14-4.47-.16-9,0-13.42.1-2.54-1-3-3.23-3-13.55.07-27.11,0-40.67,0Zm-39.6-5.5h79.23c-13.22-10.08-25.68-19.55-38.12-29.07a2,2,0,0,0-2.85,0C211.44,147.27,199,156.74,185.65,166.83Zm94.86,0c-1.1-1-1.76-1.6-2.49-2.16-16.49-12.62-33-25.17-49.42-37.89-2.5-1.93-4.14-1.83-6.56,0-15.56,12-31.25,23.89-46.86,35.86-1.56,1.2-3.46,2.09-4.72,4.35,3.56.22,6.39.34,9.34-2,13.59-10.64,27.39-21,41.12-31.48,4.36-3.32,4.41-3.33,8.68-.07,13.44,10.25,26.94,20.41,40.24,30.83A11.81,11.81,0,0,0,280.51,166.84Zm-35.73,24.67h0c3,0,6.05-.1,9.07,0,2.27.1,3.48-.58,3.19-3.05a10.2,10.2,0,0,1,0-2.53c.37-2.92-.66-4.14-3.8-4-4.94.23-9.91,0-14.87.06-5.84,0-5.84,0-5.74,6a4.33,4.33,0,0,1,0,.72c-.22,2,.67,2.86,2.71,2.81C238.49,191.45,241.63,191.51,244.78,191.51Zm24.4,12a27.15,27.15,0,0,1,0-3.61c.42-3-.94-3.63-3.7-3.59s-3.75.68-3.53,3.48,0,5.79,0,8.68c0,1.15.21,2.09,1.57,2.47,3.9,1.08,5.57-.13,5.58-4.17C269.18,205.64,269.17,204.56,269.18,203.47Zm-2.46-60.88c-.41-2.07.62-4.33-.66-6.32-.37-.58-7.75-.77-8.14-.17a6.47,6.47,0,0,0-.28,6.23c.57,1.28,2.17,2.19,3.46,3,1.64,1.12,3.24,3.82,4.91,3S266.38,144.61,266.72,142.59Zm-14.43,60.95c0,1.69.05,3.38,0,5.06s.65,2.37,2.36,2.35,2.4-.77,2.39-2.41c0-3.26-.08-6.51,0-9.76.06-2-.9-2.4-2.65-2.43-1.91,0-2.19,1-2.12,2.49S252.29,202,252.29,203.54Zm-5-.12c0-1.55-.08-3.12,0-4.67.13-2-.91-2.43-2.64-2.42s-2.3.73-2.25,2.41c.09,3.23.08,6.48,0,9.71,0,1.6.47,2.51,2.22,2.51s2.74-.57,2.66-2.5C247.24,206.79,247.3,205.1,247.3,203.42Zm-9.91.32c0-1.68-.08-3.37,0-5.05s-.55-2.4-2.29-2.33c-1.54.06-2.53.35-2.49,2.21.08,3.25.05,6.5,0,9.75,0,1.81.75,2.63,2.58,2.65s2.24-1,2.19-2.53S237.39,205.31,237.39,203.74Zm-9.6-3.17c-.38-1.18.74-3-.73-3.55-1.25-.5-1.77,1.34-2.7,2-.39.28-.68.69-1,1-1.19,1-2,2.25-1,3.75s2.65,1.18,4,.8C228.47,204,227.5,202,227.79,200.57Z"/><path class="cls-1" d="M192.19,193.63c2.68.12,4.31.19,5.92,1,7.09,3.39,7.58,5.8,2.17,11.19q-1.78,1.78-3.56,3.62c-1.2,1.23-.85,2.29.29,3.39s2.14.8,3.12-.18c2.05-2,4.12-4.07,6.15-6.14,1.69-1.73,3.24-1.61,5,0,5.71,5.2,6.15,12.7.92,18.3-2.23,2.38-4.51,4.72-6.91,6.93-5.22,4.83-12.1,4.82-17.31,0-2.92-2.71-5.74-5.53-8.51-8.4-1.29-1.34-2.22-1.37-3.55,0-7.92,8-16,15.85-23.83,23.89-3.18,3.24-3.06,7.08-.1,10a7.13,7.13,0,0,0,10.12-.16c6.13-5.83,12.14-11.8,18.2-17.71.78-.76,1.56-1.52,2.38-2.23,1.15-1,2.38-1.23,3.53,0,1,1.06.73,2.23.07,3.33a6.11,6.11,0,0,1-1,1c-6.6,6.55-13.13,13.17-19.81,19.63a12.5,12.5,0,0,1-13.83,2.29,13.34,13.34,0,0,1-7.24-12c.19-3.19,1.89-5.68,4-7.86,5.18-5.24,10.45-10.4,15.64-15.64.8-.81,2.36-1.48,1.85-2.81-.45-1.17-2-.65-3-.55-3.76.36-5-1.36-4.76-4.92a89.88,89.88,0,0,0,0-10.51c-.18-3.26,1.27-4.4,4.3-4.16.85.06,1.7,0,2.55,0a2.62,2.62,0,0,0,2.63-1.52c.7-1.34-.33-2-1-2.82a29.35,29.35,0,0,0-2.28-2.32c-1.56-1.55-1.7-3.13-.11-4.73q4.74-4.76,9.49-9.47c.17-.17.39-.29.58-.45,2-1.65,3.55-.22,4.58,1.19,1.78,2.46,6.06,3.43,5,7.58-.35,1.36-1.82,1.95-3.26,1a13.5,13.5,0,0,1-2.46-2.12c-1.5-1.75-2.88-2-4.39,0a7.44,7.44,0,0,1-1.54,1.53c-2.64,1.9-2.93,3.74-.14,5.82a3.89,3.89,0,0,1,1.16,5.46c-1.35,2.46-1.36,6.18-5.73,5.86-1.39-.1-3.66-.95-4,1.18a16.27,16.27,0,0,0,.18,7.53c.23.8,1.19.64,1.9.69,1.44.09,2.9.08,4.32.31,2.65.43,4.86-1.33,4.32-3.87-1.06-5,.68-9,4.17-12.43,2.16-2.12,4.23-4.32,6.44-6.38S190,193.45,192.19,193.63Zm18.45,22.47c0-1.62-.07-3.44-1.62-4.16s-2.13,1.17-3.07,2a35.2,35.2,0,0,0-4.13,4.06c-2.3,2.73-4.25,2.78-6.83.13-8.06-8.24-7.61-6.12-.16-14,1-1.08,3.48-1.9,2.35-3.85s-3.41-1.51-5.35-1.34a6.67,6.67,0,0,0-4,2.26c-2.17,2.1-4.37,4.18-6.44,6.38-3.09,3.31-3.13,7.08,0,10.33,3.26,3.41,6.68,6.66,10,10a7.39,7.39,0,0,0,5.23,2.16C201.16,230.19,210.64,220.73,210.64,216.1Z"/><path class="cls-1" d="M225.17,262.08c-14.4,0-28.79,0-43.18,0-2.13,0-5.42.68-5.43-2.56S179.8,257,182,257c15.6-.07,31.2-.16,46.81,0,2.95,0,3.75-.93,3.69-3.72-.15-7,0-14-.07-21,0-3,1.09-4.39,4.27-4.33,6.89.14,13.79,0,20.68,0,4.21,0,4.69.47,4.73,4.87.06,6.89.15,13.78,0,20.66-.05,2.71.94,3.46,3.59,3.51,2.81.06,3.48-1,3.45-3.56-.1-9.06,0-18.12,0-27.18,0-.61,0-1.21,0-1.82-.06-1.82.24-3.63,2.44-3.71s2.62,1.7,2.62,3.54c0,2.78,0,5.56,0,8.34,0,8,0,15.95,0,23.92,0,5.26-.39,5.62-5.51,5.62H225.17Zm12.33-17.36c0,3.15.06,6.29,0,9.43-.06,2,.66,2.87,2.73,2.83,4.72-.08,9.44,0,14.16,0,.85,0,2,.13,2.25-.77a15.24,15.24,0,0,0,.15-7.87c-.39-1.82-2.49-.86-3.83-1-1.6-.12-3-.42-3.07-2.31s1.42-2.58,3.15-2.69a7.93,7.93,0,0,1,1.09,0c2.15.2,3.17-.66,2.94-2.92a27.82,27.82,0,0,1,0-4c.08-1.64-.51-2.5-2.26-2.49-5,0-9.92,0-14.89,0-2,0-2.46.93-2.41,2.7C237.56,238.67,237.5,241.7,237.5,244.72Z"/><path class="cls-1" d="M182,229.81a5,5,0,0,1-1.59,2.75c-6.87,6.77-13.69,13.58-20.57,20.33-1.24,1.22-2.63,3-4.56,1s-.36-3.34.91-4.61q10.35-10.38,20.81-20.67c.9-.89,1.94-2,3.47-1.16A2.77,2.77,0,0,1,182,229.81Z"/><path class="cls-1" d="M225.65,147.88c7,0,7,0,7,7.19,0,7.44,0,7.44-7.22,7.44-7.57,0-7.57,0-7.57-7.42C217.91,147.88,217.91,147.88,225.65,147.88Zm-.5,9.62c1.6.07,2.6-.38,2.64-2.18s-.69-2.35-2.33-2.42-2.48.4-2.47,2.19C223,156.68,223.41,157.68,225.15,157.5Z"/><rect class="cls-3" width="1005.56" height="383.41"/></g></g></svg>