<svg xmlns="http://www.w3.org/2000/svg" viewBox="0 0 4281.57 843.3"><defs><style>.cls-1{fill:#dee9f7;}.cls-2{fill:#98b1dc;}.cls-3{fill:#d46928;}.cls-4{fill:#f0a350;}.cls-5{fill:#d76927;opacity:0.4;}.cls-6{fill:#243962;}.cls-7{fill:#faa31c;}.cls-8{fill:#2e3b65;}.cls-9{fill:#447bbf;}.cls-10{fill:#ee9960;}.cls-11{fill:#fab17e;}.cls-12{fill:#be1e2d;}.cls-13{fill:#751113;}.cls-14{fill:#2b488c;}.cls-15{fill:#d63044;}.cls-16{fill:#e27f2b;}.cls-17{fill:#d9935c;}.cls-18{fill:#973334;}.cls-19{fill:#5074b9;}.cls-20{fill:none;}</style></defs><g id="Layer_2" data-name="Layer 2"><g id="Layer_1-2" data-name="Layer 1"><path class="cls-1" d="M4212.62,842.31S4350.75,694,4236,533.45C4134.16,391,4015.44,400.73,3928.33,458.54c-37.09,24.63-144,3-235.09-141.92-124.15-197.68-554.48-77.78-476,226.35,38,147.18-115.56,152.53-37.33,299.65Z"/><path class="cls-2" d="M3904.32,265.81H3879.2l-.14-47.41-53.69.16v0l-16.11.06h-.11l0,15.13.11.09.08,31.94H3593.1V842h311.22v.21h42.3V265.81ZM3600.15,689.13v1h0Zm297.12,72.44-82.12.25v0l-24.86.1h-.17l.06,23.36.17.13.12,49.18H3600.15V705.9h297.12Zm-230.78-71.46.29.07h-.29Zm230.78.07h-29L3868,570.3l-82.85.26v0l-24.86.1h-.17l.06,23.36.14.11.15,96h24.9v.06h-77.5l-.2-73.87-82.86.26v0l-24.68.09V561.46h297.12Zm0-144.44h-84.65l-.23-73.87-82.85.26v0l-24.86.1h-.17l.06,23.36.17.13.12,50H3600.15V417h297.12Zm0-144.44H3600.15V272.58h297.12Z"/><rect class="cls-3" x="3555.94" y="720.16" width="114.36" height="128.94" transform="translate(2817.36 4395.31) rotate(-89.82)"/><polygon class="cls-4" points="3716.46 727.85 3613.23 727.45 3612.95 841.81 3716.18 842.21 3716.46 727.85"/><polygon class="cls-5" points="3612.95 727.43 3716.44 727.83 3716.35 764.19 3612.66 841.79 3612.95 727.43"/><rect class="cls-3" x="3474.68" y="763.71" width="73.48" height="82.85" transform="translate(2695.45 4314.05) rotate(-89.82)"/><polygon class="cls-4" points="3577.82 768.65 3511.49 768.39 3511.3 841.87 3577.63 842.13 3577.82 768.65"/><polygon class="cls-5" points="3511.49 768.39 3577.99 768.65 3577.93 792.01 3511.3 841.87 3511.49 768.39"/><path class="cls-6" d="M3818.36,802.9a42.09,42.09,0,0,0-2.36-10.82c-.23-.64-.48-1.27-.74-1.89-.19-.45-.39-.9-.6-1.34s-.48-1-.73-1.48-.57-1.06-.87-1.57a33.86,33.86,0,0,0-5.15-6.77l0,0c-.69-.69-1.4-1.35-2.14-2-.58-.48-1.17-.93-1.77-1.36a27.87,27.87,0,0,0-2.68-1.68c-.34-.19-.69-.37-1-.54a24.47,24.47,0,0,0-9.37-2.53c-.5,0-1-.05-1.5-.05h-13.54c-16.08,0-29.11,16-29.11,35.66s13,35.66,29.11,35.66h13.54c.51,0,1,0,1.5-.05a24.65,24.65,0,0,0,9.37-2.53c.35-.18.7-.36,1-.55a26,26,0,0,0,2.68-1.68q.9-.63,1.77-1.35c.74-.62,1.45-1.27,2.14-2l0,0a34.08,34.08,0,0,0,5.15-6.76c.3-.52.59-1,.87-1.57s.5-1,.73-1.48.41-.89.6-1.35c.26-.62.51-1.25.74-1.89a42,42,0,0,0,2.36-10.82c.1-1.2.15-2.41.15-3.64S3818.46,804.1,3818.36,802.9Z"/><path class="cls-7" d="M3532.61,471.41h-6.83a2.58,2.58,0,0,0-1.16-3.32,2.6,2.6,0,0,0-3.23,1.72,3.11,3.11,0,0,0-.22,1.6h-6.67a.82.82,0,0,0-.62.28l-2.2,2.55a.81.81,0,0,0,.61,1.34h18.11a.8.8,0,0,0,.61-.28l2.21-2.55A.81.81,0,0,0,3532.61,471.41Zm-8.34-.43a.78.78,0,1,1-.36-1.15A.87.87,0,0,1,3524.27,471Z"/><path class="cls-8" d="M3403.12,286.42l-22,17.22c-1,1.61,1.17,1.7.21,3.68-8.93,18.34-2.94,37.94,4.62,36,4.85-1.27,6.22,7,6.22,7l47.11-38.13S3422,276.34,3403.12,286.42Z"/><path class="cls-9" d="M3419.52,826.5l-10,3.73S3366.05,770,3360.7,716.91a80.34,80.34,0,0,1,1.43-27.11s-.43-2.43-1.17-6.72c-.34-2-.77-4.41-1.25-7.17-1.41-8.1-3.36-19.18-5.58-31.79-5.12-29-11.74-66.13-16.89-93.41l2.7-.86,29.17-9.42,6-19.14,21.72-5.72s4.86,9.49,9.19,54.33c.8,5.88,1.53,12.37,2.08,19.4a384.11,384.11,0,0,1-2.07,78.55q-1.48,11.7-3.81,24.11c-1.15,6.06-1.32,14.32-.84,23.81C3403.6,759.12,3419.52,826.5,3419.52,826.5Z"/><path class="cls-6" d="M3408.13,589.3,3361,683.08c-.34-2-.77-4.41-1.25-7.17-1.41-8.1-3.36-19.18-5.58-31.79-5.12-29-11.74-66.13-16.89-93.41l2.7-.86,29.17-9.42,6-19.14,21.72-5.72s4.86,9.49,9.19,54.33C3406.85,575.78,3407.58,582.27,3408.13,589.3Z"/><path class="cls-9" d="M3387.38,527.6l-1.09-9.36c-18.3,4.86-67.18-13.58-67.18-13.58s-17.72,15.58-15.39,52.92c1.13,18.23,3.21,95.68,5.37,118.6.79,8.31,1.47,14.22,1.75,16.58v0a3.36,3.36,0,0,1-.53,2,107.22,107.22,0,0,0-8,16.82c-21.27,56.67,3.27,126.47,3.27,126.47l6.37-2.57s14-77.67,25.32-112c1.92-5.82,3.77-10.4,5.46-13.13,4.94-8,9.52-21,13.67-36.45,7.86-29.26,14.18-67.32,18.39-96.7C3375.38,577.29,3387.38,527.6,3387.38,527.6Z"/><path class="cls-10" d="M3531.51,515.64c-3.94,3.48-14.39-8.48-15.83-10.07a1.33,1.33,0,0,0-.15-.23l3.18-8.86s13.7-.53,16,1.74S3535.82,511.93,3531.51,515.64Z"/><path class="cls-10" d="M3518.71,496.48l-1.37,9.16s-.6,0-1.66-.07c-3.33-.23-11.44-.68-20.6-1.67-13.78-1.36-30.14-3.79-36.65-7.8-9.92-6.05-26.2-24.61-36.8-43.16a12.46,12.46,0,0,1-.76-1.36c-5.53-9.85-9.39-19.62-9.69-27.42a39.23,39.23,0,0,1,1.28-12.42,31.64,31.64,0,0,1,5.61-11.2,5.36,5.36,0,0,1,1.06-1.29,26,26,0,0,1,7.19-6.13c1.82-.76,3.79.15,5.83,2.34v.08a34.51,34.51,0,0,1,5.23,7.72c.07.08.15.15.15.23.38.68.76,1.44,1.21,2.27a1.78,1.78,0,0,1,.3.53q1.26,2.61,2.5,5.45c9.32,20.3,19.24,51,27.49,60.21,3.56,3.93,19.84,11.66,32.79,17.41C3511.14,493.45,3518.71,496.48,3518.71,496.48Z"/><path class="cls-11" d="M3422.33,414a57.11,57.11,0,0,1-21.07,4.94c-31.45,1.72-38.59-25.85-39.89-44.15a26.46,26.46,0,0,1,10.79-1.37c2.23.13,4.56.36,6.48.59,3.85-2,10.76-11.77,14.75-28.1l1.36.63,22.69,10.67s-2.41,7.38-4.19,14.45c-1.39,5.53-2.38,10.87-1.55,12.37l2.86,1.18v0A155.81,155.81,0,0,1,3422.33,414Z"/><path class="cls-12" d="M3430.19,434.66c-.23.63-.49,1.24-.78,1.87-8,17.15-22.71,88.22-22.71,88.22,2.1,12.78-96-2.51-96.28-14.14-3.45-12.34,12.27-32.16,21.13-42.1a28.34,28.34,0,0,0,7-15.73c1.74-16.49,1.08-31.95,1.23-41.35h0c1.73-1.28,3.4-2.47,5-3.59a44,44,0,0,0,6.05-5,9.12,9.12,0,0,0,2.9-5.71,30.79,30.79,0,0,0-.12-4.79c-.08-.76-.17-1.52-.29-2.28a64.62,64.62,0,0,0-4.56-15.22c8.44-3.41,23.45-1.38,23.45-1.38s0,.84,0,2.2c0,5.48,0,19.56,1.76,22.22,2.2,3.32,42.4,17.85,44.52,13.35s-3.63-25.17-3.84-25.95v0c13.46,5.29,18.27,9.72,18.27,9.72C3424.72,400.21,3436.47,418,3430.19,434.66Z"/><path class="cls-10" d="M3417.44,357.23s-2.41,7.38-4.19,14.45C3400,368,3396,354,3394.75,346.56Z"/><path class="cls-11" d="M3420.24,365s-31.74-7.34-26.86-27,4.07-33.91,24.53-30.05,22.53,12.34,22.5,19.31S3428.62,366.45,3420.24,365Z"/><path class="cls-8" d="M3442.2,316.09c-3.41-7.14-7.43-6.76-9.94-5.49-14.91-13.8-37.51-6.87-37.51-6.87-5.63,13.6-9.86,23.5-9.86,23.5s4.87,5,19,4.88c4.31,0,8.65-2,12.6-4.74A76.07,76.07,0,0,1,3400,339.71c17.69-3.39,29.55-23.87,30.77-26,1.5,2.21,4.36,6.92,4.61,10.9.32,5.41-1.54,15.9,1.56,16.3C3436.89,340.87,3447.32,326.79,3442.2,316.09Z"/><path class="cls-12" d="M3432.84,395s7.64,13.33,8.78,16.76c0,0-9.91-.38-13.91,7.24C3427.71,419,3426.75,396.75,3432.84,395Z"/><path class="cls-13" d="M3380.28,500.87c-19.35-.2-35.74-20.3-45.76-36.36a27.91,27.91,0,0,0,4-11.73c1.74-16.49,1.08-31.95,1.23-41.35h0c1.73-1.28,3.4-2.47,5-3.59a44,44,0,0,0,6.05-5C3366.63,429.61,3406.52,501.15,3380.28,500.87Z"/><path class="cls-6" d="M3342.62,843.3h-50.4s-1.21-7.68,1.43-13.51c2.52-5.59,6.47-8.13,5.52-14.9,3.21,3.3,8.43,7,15.71,6,.9,1.45,5.76,9.19,8.75,11.34C3326.92,834.6,3341.61,833.76,3342.62,843.3Z"/><path class="cls-6" d="M3450.83,843.3h-50.4s-1.88-8,1.43-13.51c2.93-4.84,1.8-7.6-.36-11.6a19.55,19.55,0,0,0,8.48,1.6,17.71,17.71,0,0,0,7.5-2.64c2.17,2.48,11.46,13,14.36,15.09C3435.13,834.6,3449.82,833.76,3450.83,843.3Z"/><polygon class="cls-6" points="3497.69 473.27 3448.65 537.06 3449.38 537.95 3499.11 474.04 3497.69 473.27"/><polygon class="cls-14" points="3499.02 474.16 3548.78 474.16 3496.69 537.95 3449.38 537.95 3499.02 474.16"/><path class="cls-11" d="M3488.78,512.87c-.14-2.54-3.48-2.42-6-2.43-4.17,0-10.75-.31-14.55-1.77,0,0,12.15-.17,9.57-4-.47-.7-6.51-.17-13.26-.17-2.76,0-9.6,3.79-9.25,4-4.88-.65-9.33-1.6-10.76-1.91h0c-3.34-1.82-7.35-4-11.59-6.44-10.22-5.75-22-12.79-30-18.62-4.62-3.33-8.1-6.29-9.31-8.41a105.07,105.07,0,0,1-6.36-14.76c-1.21-3.34-2.5-7-3.79-10.83-2.27-6.36-4.54-13.26-6.89-20.15-4.24-12.57-8.78-25.21-13.1-35-2.8-6.14-5.53-11.21-8.1-14.31-2-2.5-4-3.79-5.91-3.49-.3.08-.53.15-.76.23,0,0-10.9,3-11,25a33.74,33.74,0,0,0,.07,3.86,82,82,0,0,0,2.05,13.71,206.71,206.71,0,0,0,8.63,28.77c1.06,2.73,2.12,5.53,3.26,8.33,8.18,20.3,18.7,39.23,27.56,45.66a7.76,7.76,0,0,0,1.06.76,79.1,79.1,0,0,0,15.45,6.89c8.93,3,19.54,5.76,29,8h.08c5.53,1.21,10.6,2.35,14.84,3.18,0,0,.7.17,1.93.42l.57.11a170.58,170.58,0,0,1,20.07,6.14,20.07,20.07,0,0,0,22.56-4.85C3487.09,518.38,3488.91,515.19,3488.78,512.87Z"/><path class="cls-15" d="M3363.44,392.39c-14.57-4-25.82,7.36-25.82,7.36.18-21.92,11.1-24.92,11.1-24.92C3353.11,373,3362.39,377.92,3363.44,392.39Z"/><path class="cls-7" d="M3423,275.39a39.74,39.74,0,0,0-18.5-.26c-.51.12-1,.26-1.51.41h0c-19.71,5.9-24.68,28.74-24.68,28.74a59.67,59.67,0,0,0-.61,8.58c.21,2.6,19,9.29,21.83,6s8.35-5.5,8.35-5.5l20.52,8.73c4.36,1.83,18.45,3.76,18.45,3.76C3447.33,324.57,3459.62,283.77,3423,275.39Z"/><path class="cls-16" d="M3459.88,327.47a70.62,70.62,0,0,0-11.59-7.64s-7.47,1.68-19.62-.33c-1.76-8.69-8.15-30.73-24.15-44.37l-.14-.12c-.63.29-.93.34-1.37.53h0l-.44.22c13.51,10.14,19.13,34,20.79,42.68a93.73,93.73,0,0,1-15.46-5.12s14.32,15.24,51,16.88A1.55,1.55,0,0,0,3459.88,327.47Z"/><polygon class="cls-6" points="3497.69 473.27 3547.74 473.27 3548.78 474.16 3499.02 474.16 3497.69 473.27"/><path class="cls-14" d="M3874.93,774.05h-90.12a3.39,3.39,0,0,1,0-6.77h90.12a3.39,3.39,0,0,1,0,6.77Z"/><path class="cls-14" d="M3875.82,669.78h-91.91a3.39,3.39,0,0,1,0-6.77h91.91a3.39,3.39,0,0,1,0,6.77Z"/><path class="cls-12" d="M3932.75,514.44c5.45,1.26,30.09,1.56,47.39-2.33a51.89,51.89,0,0,0,9.63-3c3.26-1.44,5.72-3.17,7-5.26,2-3.26,5.53-14.41,9.74-29,11.59-40.28,27.89-106.85,27.89-106.85s-32.74,6.68-39.67,12.39-13,96.19-19.56,98.63c-1,.36-2.62,1.12-4.74,2.17l-.31.15c-1.27.62-2.69,1.34-4.23,2.14-13.52,6.94-35.89,19.46-38.21,22.24C3924.6,509.35,3924.8,512.61,3932.75,514.44Z"/><path class="cls-12" d="M3995.57,419.48a26,26,0,0,1,.43-4.63c4.21-23.17,37.71-46.89,38.37-46.89v.48c0,3.54,5.58,10.08,14.17,10.64,10.2.67,22.79-5.15,22.79-11,.06,0,5.73.76,7.65,1,8.17.93,24.48,5.34,31.47,10.62,6.65,5-2.74,36.67-8.56,59.09-2.46,9.48-4.28,17.31-4,20.77.15,1.7,1.67,24.7,3,45.51,1.12,17.17,2.14,32.84,2.17,33.82.07,1.95-9.62,8.78-25.9,13.94a128.54,128.54,0,0,1-12.92,3.36,137.57,137.57,0,0,1-28.09,2.78c-3.36,0-6.55-.18-9.55-.48C4003.4,556.17,3995.43,529.67,3995.57,419.48Z"/><path class="cls-17" d="M4071.33,367.78a196,196,0,0,0-1.17-28.81l-35.91,5.87s0,11,.12,23.12c0,0-1,11.28,12.92,12.93S4071.71,376.49,4071.33,367.78Z"/><path class="cls-6" d="M4041.29,843.3c4.51-2.78,1.86-23.38,1.86-23.38s-21.15-16.78-24-3.86-20,18.79-29.71,20.41c-6.73,1.12-9.21,4.6-9.85,6.8Z"/><path class="cls-13" d="M4074.18,489.17c0,34.44,16.69,25.16,26.77,15.86-1.36-20.81-2.31-94.52-2.31-94.52S4074.18,439.85,4074.18,489.17Z"/><path class="cls-13" d="M3965.86,483.44c.67,4.83,8.3,18.89,14.28,28.67a51.89,51.89,0,0,0,9.63-3c3.26-1.44,5.72-3.17,7-5.26,2-3.26,5.53-14.41,9.74-29-3.11-18-6.07-35.77-6.07-35.77l-.92-11.92c0,.92-14,53.29-20.28,54.52-3.81.74-6.51-.16-8.81-.49l-.31.15C3968.82,481.92,3967.4,482.64,3965.86,483.44Z"/><path class="cls-6" d="M4106.09,843.3c4.52-2.78,1.87-23.38,1.87-23.38s-21.15-16.78-24-3.86-20,18.79-29.71,20.41c-6.73,1.12-9.18,4.6-9.81,6.8Z"/><path class="cls-6" d="M4074.75,328.61s24-37.8-22.06-40.3c0,0-17.26,2-21.17-1.87,0,0-13.4,20.35-.89,42.17S4074.75,328.61,4074.75,328.61Z"/><path class="cls-17" d="M4035.32,348.34c3.49,2.74,13.72,5.47,16.68,5.79,0,0,15.17-3.39,17.93-5.05,4.27-2.59,4-7.83,4.21-15.11.26-8.63,1.13-15.4.17-20.37-1.14-6-4.92-9.33-15.47-10.25-19.38-1.69-27.46,3.17-27.79,9.66-.09,1.75-.17,3.41-.23,5C4030.05,338.26,4031.65,345.45,4035.32,348.34Z"/><path class="cls-6" d="M4030.65,324.64c.18,11.74,3.35,18.69,5.64,19.57a49,49,0,0,0,9,2.4c1.09.13,2.14.09,2.13-.53,0-1.85-2.51-4.13-.67-5.77s12.27-2.3,13.11,1.45c.41,1.83-2.93,5.06-.65,5.13.7-.11,1.38-.25,2-.42a30.06,30.06,0,0,0,8-3.51c4.27-2.59,4-6.56,4.94-13.79.61-4.68.61-2.14,0,4.8-.64,7.26.61,11.92-4.21,15.11-2.69,1.78-18.16,8.73-18.16,8.73.23-3.68-13-6.73-16.45-9.47C4032.08,345.79,4030.45,339.9,4030.65,324.64Z"/><path class="cls-9" d="M4103.12,538.85c.07,1.95-9.63,8.78-25.91,13.94-1.31.42-2.67.82-4.06,1.21a.08.08,0,0,0,0,0c-1.51,17.82-5.63,43-9.33,67.29h0c-1,6.29-1.89,12.53-2.75,18.56-2.26,16-4,30.52-4.14,41V681c-.08,4.8,4,16.79,4.28,19.56.19,1.69.34,3.48.45,5.36a216.68,216.68,0,0,1-.34,25.83c-2.66,41.31-13.57,94.16-17.47,96.41-7.74,4.47-21.82,0-29-1.06a5.91,5.91,0,0,1-5.19-6c3.5-68.55-6.54-164-14-222.7-.2-1.53-.39-3-.58-4.5-.9-6.92-1.49-13.39-1.87-19.21-.34-5.11-.5-9.75-.58-13.78,0-1.25,0-2.45,0-3.58,0-3.67,2.9-27.72,3-137.91h0a4.65,4.65,0,0,1,4.64-4.63h67.38a11.68,11.68,0,0,1,11.67,11.84,187.72,187.72,0,0,0,2,31.34c2.49,15.3,7.82,29.59,18.81,33l0,0c0,.12.35.79.83,1.9v0c.11,2.76.22,5.58.35,8.45,0,.57.05,1.16.08,1.74,0,.34,0,.67.05,1,0,.58.05,1.16.08,1.75l.15,2.92c0,.77.09,1.55.13,2.32q.12,2.24.27,4.53c0,.48.05,1,.09,1.46.13,2,.26,4,.42,6,0,.62.09,1.24.14,1.86,0,.3,0,.6.06.9.06.79.13,1.58.19,2.37s.14,1.68.22,2.53C4103.44,533.93,4103,536.68,4103.12,538.85Z"/><path class="cls-6" d="M4061.28,731.76c-2.66,41.31-13.57,94.16-17.47,96.41-7.74,4.47-21.82,0-29-1.06a5.91,5.91,0,0,1-5.19-6c3.5-68.55-6.54-164-14-222.7-.2-1.53-.39-3-.58-4.5-.9-6.92-1.49-13.39-1.87-19.21,3.57-23.27,23.72-24.52,42,23.62C4032.88,614.33,4061.89,722.3,4061.28,731.76Z"/><path class="cls-9" d="M4103.87,679c.56,4.78,6.15,16.13,6.82,18.84,9.23,37.15,4.13,125.24-.45,128.77-7.09,5.45-21.64,2.86-28.87,2.76a5.91,5.91,0,0,1-5.92-5.22c-5.68-70.19-29.22-166.6-44.36-223.31-7.62-28.57-8.7-49.57-8.7-49.57s70.75-43.35,78.4-19.67C4107.56,552.51,4099.61,642.29,4103.87,679Z"/><path class="cls-7" d="M4031.82,277.74a21.07,21.07,0,0,1,1.55-1.59,27.37,27.37,0,0,1,8.43-5.48c12.33-5.15,22.56-.4,29,4.46.63.48,1.22,1,1.77,1.43a38.06,38.06,0,0,1,5.42,5.59s6,8.18,5.79,25.4l-61.71.66S4021.12,289.61,4031.82,277.74Z"/><path class="cls-16" d="M4066.42,307.73l-3.39,0c-.07-1,.1-23.38,8.45-32.07a12.11,12.11,0,0,1,1.05.86C4064.6,284.22,4066.4,307.5,4066.42,307.73Z"/><path class="cls-16" d="M4039.6,308c-.7-13.71-5.95-28.12-7.37-30.69a14.14,14.14,0,0,1,1.14-1.19c1,1.69,9,16.61,9.88,31.84l40.49-.44s-20.52,4.61-32.9,4.76-28.81-4.1-28.81-4.1Z"/><path class="cls-9" d="M4081.41,369.37s-20.85,24.29-22.07,45.48l10.62.56s2.68-23.6,18.37-44.59c0,0-2.46-.6-3.27-.76C4084,369.84,4081.41,369.37,4081.41,369.37Z"/><path class="cls-9" d="M4029.43,369a106.17,106.17,0,0,0-16.54,46.28l-10.72-.19c.88-16.66,11.35-35,17.12-43.66C4019.29,371.46,4026.71,369.58,4029.43,369Z"/><path class="cls-15" d="M4098.1,499.76c-.53,24.87,2.57,74.4,2.57,74.4h14.68c6.93-34.85,9.37-57.27,9.37-69.5q0-3.62,0-6.72c-.09-10.45-.37-16.51-.37-16.51,2.75-63.27-9.89-97.11-13.86-101.77s-22.13-8.84-22.13-8.84-6,17.48-8.44,31.54,19.23,73.14,18.34,93.34C4098.17,497,4098.13,498.31,4098.1,499.76Z"/><path class="cls-17" d="M4100.67,574.16s-3.1-49.53-2.57-74.4a51.83,51.83,0,0,1,26.59-1.82q0,3.1,0,6.72c0,12.23-2.44,34.65-9.37,69.5,3,12.83,2.85,26.69-2.45,29.14s-22.82-6.73-22.62-10.8S4100.67,574.16,4100.67,574.16Z"/><path class="cls-17" d="M3899.91,516.89c1.43-5.24,2.49-8.15,6.1-10.7,5.25-3.7,11.48-2.7,16.12-1.88a17.85,17.85,0,0,0,8.83-1.17c8.22-5.48,28.85-16.78,39.13-21.84,7,4.07,15.63,12.11,19.68,27.81-15.82,7-50.43,6.85-57,5.33,0,0-6.1,4.44-10.75,4.84a15.91,15.91,0,0,1-6-1,8.23,8.23,0,0,0-9.11,2.9,6.82,6.82,0,0,1-5.89,2.78C3899.07,523.91,3899,520.19,3899.91,516.89Z"/><path class="cls-14" d="M3880.65,830.62H3771.34c-1.87,0-6.06-1.51-6.06-3.38s14.06-3.39,15.93-3.39h92.67V537.23A21.24,21.24,0,0,1,3895.1,516h23.69a3.39,3.39,0,0,1,0,6.77H3895.1a14.47,14.47,0,0,0-14.45,14.45Z"/><path class="cls-14" d="M3785.86,830.62h-79.29a3.39,3.39,0,1,1,0-6.77h72.52V537.23A21.24,21.24,0,0,1,3800.31,516H3824a3.39,3.39,0,0,1,0,6.77h-23.69a14.47,14.47,0,0,0-14.45,14.45Z"/><path class="cls-14" d="M3875.08,566h-90.43a3.39,3.39,0,0,1,0-6.77h90.43a3.39,3.39,0,0,1,0,6.77Z"/><path class="cls-18" d="M3924.35,525H3895.1a5.64,5.64,0,1,1,0-11.28h29.25a5.64,5.64,0,1,1,0,11.28Z"/><path class="cls-14" d="M3895.1,516a21.25,21.25,0,0,0-21,18.13H3881a14.49,14.49,0,0,1,14.12-11.36,3.39,3.39,0,0,0,0-6.77Z"/><path class="cls-18" d="M3829.56,525h-29.25a5.64,5.64,0,1,1,0-11.28h29.25a5.64,5.64,0,1,1,0,11.28Z"/><path class="cls-14" d="M3800.31,516a21.27,21.27,0,0,0-21,18.13h6.88a14.49,14.49,0,0,1,14.12-11.36,3.39,3.39,0,0,0,0-6.77Z"/><polygon class="cls-3" points="3764.45 723.75 3877.12 721.76 3877.43 823.85 3764.76 823.85 3764.45 723.75"/><polygon class="cls-4" points="3730.65 723.92 3820.85 723.57 3821.1 823.91 3730.9 823.85 3730.65 723.92"/><polygon class="cls-5" points="3820.85 723.57 3730.65 723.92 3730.73 755.54 3821.1 823.91 3820.85 723.57"/><path class="cls-6" d="M3888.24,770.89H3874.7c-16.08,0-29.11,16-29.11,35.66s13,35.66,29.11,35.66h13.54c16.08,0,29.12-16,29.12-35.66S3904.32,770.89,3888.24,770.89Z"/><ellipse class="cls-14" cx="3888.24" cy="806.55" rx="29.11" ry="35.66"/><path class="cls-19" d="M3906.67,806.55c0,12.46-8.25,22.57-18.43,22.57s-18.42-10.11-18.42-22.57,8.25-22.57,18.42-22.57S3906.67,794.08,3906.67,806.55Z"/><polygon class="cls-3" points="3784.7 609.32 3914.35 608.92 3913.99 723.28 3785.05 723.67 3784.7 609.32"/><polygon class="cls-4" points="3746.01 609.51 3849.24 609.12 3849.52 723.48 3746.29 723.87 3746.01 609.51"/><polygon class="cls-5" points="3849.24 609.12 3746.01 609.51 3746.1 646.08 3849.52 723.48 3849.24 609.12"/><path class="cls-17" d="M3932.75,514.44s-11,7.48-13.89,5.64,2-6-2.63-7.53S3932.75,514.44,3932.75,514.44Z"/><path class="cls-1" d="M68.94,842.31S-69.18,694,45.58,533.45C147.41,391,266.13,400.73,353.23,458.54c37.1,24.63,144.06,3,235.09-141.92,124.15-197.68,554.49-77.78,476,226.35-38,147.18,115.56,152.53,37.33,299.65Z"/><path class="cls-2" d="M334.94,265.81v576.4h42.3V842H688.46V265.81H472.19l.08-31.94.11-.09,0-15.13h-.12l-16.1-.06v0l-53.69-.16-.15,47.41H334.94ZM681.41,690.18h0v0ZM384.29,705.9H681.41V834.62H491.09l.12-49.18.18-.13.05-23.36h-.17l-24.86-.1v0l-82.12-.25Zm230.79-15.72h-.29l.29-.07ZM384.29,561.46H681.41v55.23l-24.68-.09v0l-82.85-.26-.2,73.87H496.17v-.06h24.91l.14-96,.15-.11.06-23.36h-.17l-24.86-.1v0l-82.86-.26-.22,119.88h-29Zm0-144.44H681.41V545.74H576.7l.13-50,.17-.13.06-23.36h-.18l-24.85-.1v0l-82.86-.26-.23,73.87H384.29Zm0-144.44H681.41V401.3H384.29Z"/><rect class="cls-3" x="603.97" y="727.45" width="128.94" height="114.36" transform="translate(-2.42 2.06) rotate(-0.18)"/><polygon class="cls-4" points="565.11 727.85 668.34 727.45 668.62 841.81 565.39 842.21 565.11 727.85"/><polygon class="cls-5" points="668.62 727.43 565.13 727.83 565.21 764.19 668.9 841.79 668.62 727.43"/><rect class="cls-3" x="728.72" y="768.39" width="82.85" height="73.48" transform="translate(-2.48 2.38) rotate(-0.18)"/><polygon class="cls-4" points="703.75 768.65 770.08 768.39 770.26 841.87 703.93 842.13 703.75 768.65"/><polygon class="cls-5" points="770.08 768.39 703.58 768.65 703.64 792.01 770.26 841.87 770.08 768.39"/><path class="cls-6" d="M463.21,802.9a42.08,42.08,0,0,1,2.35-10.82c.23-.64.48-1.27.74-1.89l.6-1.34c.24-.5.48-1,.73-1.48s.57-1.06.87-1.57a34.62,34.62,0,0,1,5.15-6.77l0,0c.69-.69,1.41-1.35,2.15-2,.57-.48,1.16-.93,1.77-1.36a27.73,27.73,0,0,1,2.67-1.68c.35-.19.69-.37,1-.54a24.47,24.47,0,0,1,9.37-2.53c.5,0,1-.05,1.5-.05h13.54c16.08,0,29.12,16,29.12,35.66s-13,35.66-29.12,35.66H492.17c-.5,0-1,0-1.5-.05a24.65,24.65,0,0,1-9.37-2.53l-1-.55a25.9,25.9,0,0,1-2.67-1.68q-.91-.63-1.77-1.35c-.74-.62-1.46-1.27-2.15-2l0,0a34.85,34.85,0,0,1-5.15-6.76c-.3-.52-.59-1-.87-1.57s-.49-1-.73-1.48l-.6-1.35c-.26-.62-.51-1.25-.74-1.89a42,42,0,0,1-2.35-10.82c-.1-1.2-.15-2.41-.15-3.64S463.11,804.1,463.21,802.9Z"/><path class="cls-7" d="M748.35,472.75l2.2,2.55a.82.82,0,0,0,.62.28h18.11a.81.81,0,0,0,.61-1.34l-2.21-2.55a.78.78,0,0,0-.61-.28H760.4a3.33,3.33,0,0,0-.22-1.6,2.61,2.61,0,0,0-3.23-1.72,2.57,2.57,0,0,0-1.16,3.32H749A.81.81,0,0,0,748.35,472.75Zm9.31-2.92a.86.86,0,0,1,1.06.57.85.85,0,0,1-.37,1.14.94.94,0,0,1-.69-1.71Z"/><path class="cls-8" d="M878.45,286.42l22,17.22c1,1.61-1.18,1.7-.21,3.68,8.93,18.34,2.94,37.94-4.62,36-4.85-1.27-6.22,7-6.22,7l-47.11-38.13S859.57,276.34,878.45,286.42Z"/><path class="cls-9" d="M862.05,826.5l10,3.73S915.52,770,920.87,716.91a80.59,80.59,0,0,0-1.43-27.11s.42-2.43,1.17-6.72c.34-2,.76-4.41,1.25-7.17,1.41-8.1,3.35-19.18,5.58-31.79,5.11-29,11.74-66.13,16.88-93.41l-2.69-.86-29.18-9.42-6-19.14-21.72-5.72s-4.85,9.49-9.19,54.33c-.8,5.88-1.53,12.37-2.07,19.4a384,384,0,0,0,2.06,78.55q1.5,11.7,3.82,24.11c1.14,6.06,1.31,14.32.83,23.81C878,759.12,862.05,826.5,862.05,826.5Z"/><path class="cls-6" d="M873.44,589.3l47.17,93.78c.34-2,.76-4.41,1.25-7.17,1.41-8.1,3.35-19.18,5.58-31.79,5.11-29,11.74-66.13,16.88-93.41l-2.69-.86-29.18-9.42-6-19.14-21.72-5.72s-4.85,9.49-9.19,54.33C874.71,575.78,874,582.27,873.44,589.3Z"/><path class="cls-9" d="M894.19,527.6l1.09-9.36c18.29,4.86,67.17-13.58,67.17-13.58s17.73,15.58,15.4,52.92c-1.14,18.23-3.21,95.68-5.38,118.6-.78,8.31-1.47,14.22-1.75,16.58v0a3.22,3.22,0,0,0,.53,2,108.12,108.12,0,0,1,8,16.82C1000.51,768.3,976,838.1,976,838.1l-6.37-2.57s-14-77.67-25.31-112c-1.93-5.82-3.77-10.4-5.47-13.13-4.93-8-9.51-21-13.67-36.45-7.85-29.26-14.17-67.32-18.38-96.7C906.19,577.29,894.19,527.6,894.19,527.6Z"/><path class="cls-10" d="M750.06,515.64c3.94,3.48,14.39-8.48,15.83-10.07a.87.87,0,0,1,.15-.23l-3.18-8.86s-13.71-.53-16,1.74S745.74,511.93,750.06,515.64Z"/><path class="cls-10" d="M762.86,496.48l1.36,9.16s.61,0,1.67-.07c3.33-.23,11.43-.68,20.59-1.67,13.79-1.36,30.14-3.79,36.66-7.8,9.92-6.05,26.2-24.61,36.8-43.16a14.39,14.39,0,0,0,.76-1.36c5.52-9.85,9.39-19.62,9.69-27.42a38.92,38.92,0,0,0-1.29-12.42,31.8,31.8,0,0,0-5.6-11.2,5.87,5.87,0,0,0-1.06-1.29,26.06,26.06,0,0,0-7.2-6.13c-1.81-.76-3.78.15-5.83,2.34v.08a34.85,34.85,0,0,0-5.22,7.72c-.08.08-.15.15-.15.23-.38.68-.76,1.44-1.22,2.27a2,2,0,0,0-.3.53q-1.24,2.61-2.5,5.45c-9.31,20.3-19.23,51-27.49,60.21-3.55,3.93-19.84,11.66-32.78,17.41C770.43,493.45,762.86,496.48,762.86,496.48Z"/><path class="cls-11" d="M859.24,414A57.06,57.06,0,0,0,880.31,419c31.45,1.72,38.59-25.85,39.89-44.15a26.5,26.5,0,0,0-10.79-1.37c-2.23.13-4.56.36-6.48.59-3.85-2-10.76-11.77-14.76-28.1l-1.35.63-22.7,10.67s2.41,7.38,4.19,14.45c1.39,5.53,2.39,10.87,1.56,12.37L867,385.23v0A155.81,155.81,0,0,0,859.24,414Z"/><path class="cls-12" d="M851.37,434.66c.24.63.5,1.24.79,1.87,8,17.15,22.71,88.22,22.71,88.22-2.1,12.78,96-2.51,96.27-14.14,3.46-12.34-12.26-32.16-21.12-42.1a28.85,28.85,0,0,1-3-4,27.91,27.91,0,0,1-4-11.73c-1.74-16.49-1.07-31.95-1.22-41.35h0c-1.73-1.28-3.41-2.47-5-3.59a44.46,44.46,0,0,1-6-5,9.12,9.12,0,0,1-2.9-5.71,29.6,29.6,0,0,1,.12-4.79c.07-.76.17-1.52.28-2.28a65.16,65.16,0,0,1,4.56-15.22c-8.44-3.41-23.44-1.38-23.44-1.38s0,.84,0,2.2c.05,5.48,0,19.56-1.76,22.22-2.19,3.32-42.39,17.85-44.52,13.35S866.79,386,867,385.26v0c-13.47,5.29-18.28,9.72-18.28,9.72C856.84,400.21,845.1,418,851.37,434.66Z"/><path class="cls-10" d="M864.12,357.23s2.42,7.38,4.19,14.45c13.27-3.7,17.3-17.64,18.51-25.12Z"/><path class="cls-11" d="M861.33,365s31.74-7.34,26.86-27S884.12,304.1,863.65,308s-22.53,12.34-22.5,19.31S853,366.45,861.33,365Z"/><path class="cls-8" d="M839.37,316.09c3.41-7.14,7.42-6.76,9.94-5.49,14.91-13.8,37.51-6.87,37.51-6.87,5.63,13.6,9.86,23.5,9.86,23.5s-4.88,5-19,4.88c-4.32,0-8.66-2-12.61-4.74a76.07,76.07,0,0,0,16.55,12.34c-17.69-3.39-29.55-23.87-30.76-26-1.5,2.21-4.37,6.92-4.61,10.9-.33,5.41,1.53,15.9-1.56,16.3C844.68,340.87,834.25,326.79,839.37,316.09Z"/><path class="cls-12" d="M848.73,395s-7.64,13.33-8.79,16.76c0,0,9.91-.38,13.92,7.24C853.86,419,854.81,396.75,848.73,395Z"/><path class="cls-13" d="M901.29,500.87c19.35-.2,35.74-20.3,45.75-36.36a27.91,27.91,0,0,1-4-11.73c-1.74-16.49-1.07-31.95-1.22-41.35h0c-1.73-1.28-3.41-2.47-5-3.59a44.46,44.46,0,0,1-6-5C914.94,429.61,875.05,501.15,901.29,500.87Z"/><path class="cls-6" d="M938.94,843.3h50.4s1.21-7.68-1.42-13.51c-2.52-5.59-6.48-8.13-5.53-14.9-3.2,3.3-8.42,7-15.71,6-.89,1.45-5.76,9.19-8.74,11.34C954.64,834.6,940,833.76,938.94,843.3Z"/><path class="cls-6" d="M830.73,843.3h50.4s1.89-8-1.42-13.51c-2.93-4.84-1.81-7.6.36-11.6a19.59,19.59,0,0,1-8.49,1.6,17.67,17.67,0,0,1-7.49-2.64c-2.17,2.48-11.46,13-14.36,15.09C846.43,834.6,831.75,833.76,830.73,843.3Z"/><polygon class="cls-6" points="783.88 473.27 832.91 537.06 832.19 537.95 782.45 474.04 783.88 473.27"/><polygon class="cls-14" points="782.55 474.16 732.78 474.16 784.88 537.95 832.19 537.95 782.55 474.16"/><path class="cls-11" d="M792.78,512.87c.14-2.54,3.49-2.42,6-2.43,4.17,0,10.75-.31,14.56-1.77,0,0-12.16-.17-9.57-4,.47-.7,6.51-.17,13.25-.17,2.77,0,9.61,3.79,9.25,4,4.89-.65,9.33-1.6,10.77-1.91h0c3.33-1.82,7.34-4,11.58-6.44,10.23-5.75,22-12.79,30-18.62,4.62-3.33,8.11-6.29,9.32-8.41a105.07,105.07,0,0,0,6.36-14.76c1.21-3.34,2.5-7,3.78-10.83,2.28-6.36,4.55-13.26,6.89-20.15,4.25-12.57,8.79-25.21,13.1-35,2.81-6.14,5.53-11.21,8.11-14.31,2-2.5,4-3.79,5.9-3.49.31.08.53.15.76.23,0,0,10.91,3,11.06,25a33.83,33.83,0,0,1-.08,3.86,81.82,81.82,0,0,1-2,13.71,206.84,206.84,0,0,1-8.64,28.77c-1.06,2.73-2.12,5.53-3.25,8.33-8.18,20.3-18.71,39.23-27.57,45.66a7.19,7.19,0,0,1-1.06.76,79.26,79.26,0,0,1-15.44,6.89c-8.94,3-19.54,5.76-29,8h-.07c-5.53,1.21-10.6,2.35-14.84,3.18,0,0-.7.17-1.94.42l-.56.11a170,170,0,0,0-20.07,6.14,20.08,20.08,0,0,1-22.57-4.85C794.48,518.38,792.66,515.19,792.78,512.87Z"/><path class="cls-15" d="M918.12,392.39c14.58-4,25.83,7.36,25.83,7.36-.19-21.92-11.1-24.92-11.1-24.92C928.46,373,919.17,377.92,918.12,392.39Z"/><path class="cls-7" d="M858.55,275.39a39.69,39.69,0,0,1,18.49-.26c.51.12,1,.26,1.52.41h0c19.72,5.9,24.68,28.74,24.68,28.74a59.23,59.23,0,0,1,.62,8.58c-.21,2.6-19,9.29-21.84,6s-8.35-5.5-8.35-5.5l-20.52,8.73c-4.35,1.83-18.45,3.76-18.45,3.76C834.24,324.57,822,283.77,858.55,275.39Z"/><path class="cls-16" d="M821.69,327.47a70.86,70.86,0,0,1,11.58-7.64s7.48,1.68,19.62-.33c1.76-8.69,8.16-30.73,24.15-44.37l.14-.12c.64.29.94.34,1.38.53h0l.45.22c-13.52,10.14-19.13,34-20.79,42.68a93.64,93.64,0,0,0,15.45-5.12s-14.31,15.24-51,16.88A1.55,1.55,0,0,1,821.69,327.47Z"/><polygon class="cls-6" points="783.88 473.27 733.83 473.27 732.78 474.16 782.55 474.16 783.88 473.27"/><path class="cls-14" d="M406.64,774.05h90.12a3.39,3.39,0,0,0,0-6.77H406.64a3.39,3.39,0,0,0,0,6.77Z"/><path class="cls-14" d="M405.74,669.78h91.91a3.39,3.39,0,0,0,0-6.77H405.74a3.39,3.39,0,0,0,0,6.77Z"/><path class="cls-12" d="M348.82,514.44c-5.45,1.26-30.09,1.56-47.4-2.33a51.78,51.78,0,0,1-9.62-3c-3.26-1.44-5.72-3.17-7-5.26-2-3.26-5.54-14.41-9.74-29C263.5,434.53,247.2,368,247.2,368s32.73,6.68,39.66,12.39,13.05,96.19,19.57,98.63c1,.36,2.61,1.12,4.73,2.17l.32.15c1.26.62,2.69,1.34,4.23,2.14,13.51,6.94,35.88,19.46,38.2,22.24C357,509.35,356.77,512.61,348.82,514.44Z"/><path class="cls-12" d="M254.91,558.45c-3,.3-6.19.47-9.55.48a137.67,137.67,0,0,1-28.1-2.78,127.63,127.63,0,0,1-12.91-3.36c-16.28-5.16-26-12-25.9-13.94,0-1,1-16.65,2.17-33.82,1.35-20.81,2.88-43.81,3-45.51.3-3.46-1.51-11.29-4-20.77-5.81-22.42-15.2-54.07-8.56-59.09,7-5.28,23.3-9.69,31.48-10.62,1.92-.22,7.59-1,7.65-1,0,5.87,12.58,11.69,22.78,11,8.6-.56,14.18-7.1,14.18-10.64V368c.66,0,34.15,23.72,38.37,46.89a26,26,0,0,1,.43,4.63C286.13,529.67,278.17,556.17,254.91,558.45Z"/><path class="cls-17" d="M210.23,367.78A198.83,198.83,0,0,1,211.4,339l35.91,5.87s0,11-.11,23.12c0,0,1,11.28-12.92,12.93S209.86,376.49,210.23,367.78Z"/><path class="cls-6" d="M240.28,843.3c-4.52-2.78-1.86-23.38-1.86-23.38s21.15-16.78,24-3.86,20,18.79,29.71,20.41c6.72,1.12,9.21,4.6,9.84,6.8Z"/><path class="cls-13" d="M207.38,489.17c0,34.44-16.69,25.16-26.76,15.86,1.35-20.81,2.31-94.52,2.31-94.52S207.38,439.85,207.38,489.17Z"/><path class="cls-13" d="M315.71,483.44c-.67,4.83-8.3,18.89-14.29,28.67a51.78,51.78,0,0,1-9.62-3c-3.26-1.44-5.72-3.17-7-5.26-2-3.26-5.54-14.41-9.74-29,3.11-18,6.07-35.77,6.07-35.77l.91-11.92c0,.92,14,53.29,20.28,54.52,3.81.74,6.52-.16,8.81-.49l.32.15C312.74,481.92,314.17,482.64,315.71,483.44Z"/><path class="cls-6" d="M175.47,843.3c-4.51-2.78-1.86-23.38-1.86-23.38s21.15-16.78,24-3.86,20,18.79,29.71,20.41c6.73,1.12,9.17,4.6,9.81,6.8Z"/><path class="cls-6" d="M206.81,328.61s-24-37.8,22.06-40.3c0,0,17.27,2,21.18-1.87,0,0,13.39,20.35.88,42.17S206.81,328.61,206.81,328.61Z"/><path class="cls-17" d="M246.25,348.34c-3.49,2.74-13.72,5.47-16.68,5.79,0,0-15.17-3.39-17.93-5.05-4.27-2.59-4-7.83-4.22-15.11-.26-8.63-1.13-15.4-.16-20.37,1.14-6,4.91-9.33,15.47-10.25,19.38-1.69,27.45,3.17,27.79,9.66.09,1.75.17,3.41.23,5C251.52,338.26,249.92,345.45,246.25,348.34Z"/><path class="cls-6" d="M250.92,324.64c-.19,11.74-3.35,18.69-5.65,19.57a49,49,0,0,1-9,2.4c-1.09.13-2.13.09-2.12-.53,0-1.85,2.51-4.13.67-5.77s-12.28-2.3-13.11,1.45c-.41,1.83,2.93,5.06.64,5.13-.69-.11-1.37-.25-2-.42a30.33,30.33,0,0,1-8-3.51c-4.27-2.59-4-6.56-4.94-13.79-.61-4.68-.61-2.14,0,4.8.65,7.26-.61,11.92,4.22,15.11,2.69,1.78,18.15,8.73,18.15,8.73-.22-3.68,13-6.73,16.46-9.47C249.49,345.79,251.11,339.9,250.92,324.64Z"/><path class="cls-9" d="M178.45,538.85c-.08,1.95,9.62,8.78,25.9,13.94,1.31.42,2.67.82,4.07,1.21,0,0,0,0,0,0,1.52,17.82,5.63,43,9.34,67.29h0c1,6.29,1.89,12.53,2.75,18.56,2.26,16,4,30.52,4.13,41V681c.08,4.8-4,16.79-4.28,19.56-.18,1.69-.34,3.48-.45,5.36a218.81,218.81,0,0,0,.34,25.83c2.66,41.31,13.58,94.16,17.47,96.41,7.74,4.47,21.83,0,29-1.06a5.91,5.91,0,0,0,5.18-6c-3.5-68.55,6.55-164,14.06-222.7.19-1.53.39-3,.58-4.5.9-6.92,1.49-13.39,1.86-19.21.35-5.11.51-9.75.58-13.78,0-1.25,0-2.45,0-3.58,0-3.67-2.9-27.72-3-137.91h0a4.65,4.65,0,0,0-4.63-4.63H214a11.67,11.67,0,0,0-11.67,11.84,187.83,187.83,0,0,1-2,31.34c-2.48,15.3-7.81,29.59-18.8,33l0,0c-.05.12-.35.79-.83,1.9v0c-.1,2.76-.22,5.58-.34,8.45,0,.57-.05,1.16-.08,1.74,0,.34,0,.67,0,1l-.09,1.75c0,1-.09,1.94-.15,2.92l-.12,2.32q-.12,2.24-.27,4.53l-.09,1.46c-.13,2-.27,4-.42,6,0,.62-.09,1.24-.14,1.86,0,.3,0,.6-.07.9-.06.79-.12,1.58-.19,2.37s-.14,1.68-.21,2.53C178.13,533.93,178.53,536.68,178.45,538.85Z"/><path class="cls-6" d="M220.28,731.76c2.66,41.31,13.58,94.16,17.47,96.41,7.74,4.47,21.83,0,29-1.06a5.91,5.91,0,0,0,5.18-6c-3.5-68.55,6.55-164,14.06-222.7.19-1.53.39-3,.58-4.5.9-6.92,1.49-13.39,1.86-19.21-3.57-23.27-23.72-24.52-42,23.62C248.69,614.33,219.68,722.3,220.28,731.76Z"/><path class="cls-9" d="M177.69,679c-.55,4.78-6.14,16.13-6.81,18.84-9.24,37.15-4.14,125.24.44,128.77,7.09,5.45,21.65,2.86,28.88,2.76a5.91,5.91,0,0,0,5.92-5.22c5.68-70.19,29.22-166.6,44.36-223.31,7.62-28.57,8.7-49.57,8.7-49.57s-70.75-43.35-78.4-19.67C174,552.51,182,642.29,177.69,679Z"/><path class="cls-7" d="M249.75,277.74c-.49-.55-1-1.08-1.55-1.59a27.37,27.37,0,0,0-8.43-5.48c-12.34-5.15-22.57-.4-29,4.46-.63.48-1.22,1-1.77,1.43a37.41,37.41,0,0,0-5.42,5.59s-6,8.18-5.79,25.4l61.71.66S260.44,289.61,249.75,277.74Z"/><path class="cls-16" d="M215.15,307.73l3.39,0c.07-1-.1-23.38-8.45-32.07a12.11,12.11,0,0,0-1.05.86C217,284.22,215.16,307.5,215.15,307.73Z"/><path class="cls-16" d="M242,308c.71-13.71,6-28.12,7.38-30.69a15.93,15.93,0,0,0-1.14-1.19c-1,1.69-9,16.61-9.89,31.84l-40.48-.44s20.51,4.61,32.89,4.76,28.82-4.1,28.82-4.1Z"/><path class="cls-9" d="M200.15,369.37s20.85,24.29,22.08,45.48l-10.63.56s-2.67-23.6-18.36-44.59c0,0,2.45-.6,3.27-.76C197.6,369.84,200.15,369.37,200.15,369.37Z"/><path class="cls-9" d="M252.14,369a106.33,106.33,0,0,1,16.54,46.28l10.72-.19c-.88-16.66-11.35-35-17.13-43.66C262.27,371.46,254.85,369.58,252.14,369Z"/><path class="cls-15" d="M183.47,499.76c.52,24.87-2.58,74.4-2.58,74.4H166.22c-6.93-34.85-9.37-57.27-9.37-69.5q0-3.62,0-6.72c.09-10.45.37-16.51.37-16.51-2.75-63.27,9.89-97.11,13.85-101.77s22.13-8.84,22.13-8.84,6,17.48,8.45,31.54-19.24,73.14-18.34,93.34C183.39,497,183.43,498.31,183.47,499.76Z"/><path class="cls-17" d="M180.89,574.16s3.1-49.53,2.58-74.4a51.84,51.84,0,0,0-26.59-1.82q0,3.1,0,6.72c0,12.23,2.44,34.65,9.37,69.5-3.06,12.83-2.86,26.69,2.44,29.14s22.83-6.73,22.62-10.8S180.89,574.16,180.89,574.16Z"/><path class="cls-17" d="M381.65,516.89c-1.43-5.24-2.49-8.15-6.1-10.7-5.25-3.7-11.48-2.7-16.12-1.88a17.81,17.81,0,0,1-8.82-1.17c-8.22-5.48-28.86-16.78-39.13-21.84-7,4.07-15.63,12.11-19.68,27.81,15.81,7,50.43,6.85,57,5.33,0,0,6.1,4.44,10.74,4.84a15.92,15.92,0,0,0,6.05-1,8.21,8.21,0,0,1,9.1,2.9,6.84,6.84,0,0,0,5.9,2.78C382.5,523.91,382.55,520.19,381.65,516.89Z"/><path class="cls-14" d="M400.92,830.62H510.23c1.87,0,6-1.51,6-3.38s-14.06-3.39-15.93-3.39H407.69V537.23A21.24,21.24,0,0,0,386.47,516H362.78a3.39,3.39,0,1,0,0,6.77h23.69a14.47,14.47,0,0,1,14.45,14.45Z"/><path class="cls-14" d="M495.71,830.62H575a3.39,3.39,0,0,0,0-6.77H502.48V537.23A21.24,21.24,0,0,0,481.26,516H457.57a3.39,3.39,0,1,0,0,6.77h23.69a14.47,14.47,0,0,1,14.45,14.45Z"/><path class="cls-14" d="M406.48,566h90.44a3.39,3.39,0,0,0,0-6.77H406.48a3.39,3.39,0,0,0,0,6.77Z"/><path class="cls-18" d="M357.21,525h29.26a5.64,5.64,0,0,0,0-11.28H357.21a5.64,5.64,0,0,0,0,11.28Z"/><path class="cls-14" d="M386.47,516a21.25,21.25,0,0,1,21,18.13h-6.88a14.47,14.47,0,0,0-14.11-11.36,3.39,3.39,0,1,1,0-6.77Z"/><path class="cls-18" d="M452,525h29.26a5.64,5.64,0,0,0,0-11.28H452A5.64,5.64,0,0,0,452,525Z"/><path class="cls-14" d="M481.26,516a21.25,21.25,0,0,1,21,18.13h-6.88a14.47,14.47,0,0,0-14.11-11.36,3.39,3.39,0,1,1,0-6.77Z"/><polygon class="cls-3" points="517.11 723.75 404.45 721.76 404.13 823.85 516.8 823.85 517.11 723.75"/><polygon class="cls-4" points="550.92 723.92 460.71 723.57 460.47 823.91 550.67 823.85 550.92 723.92"/><polygon class="cls-5" points="460.71 723.57 550.92 723.92 550.84 755.54 460.47 823.91 460.71 723.57"/><path class="cls-6" d="M393.32,770.89h13.54c16.08,0,29.12,16,29.12,35.66s-13,35.66-29.12,35.66H393.32c-16.08,0-29.11-16-29.11-35.66S377.24,770.89,393.32,770.89Z"/><ellipse class="cls-14" cx="393.32" cy="806.55" rx="29.11" ry="35.66"/><path class="cls-19" d="M374.9,806.55c0,12.46,8.25,22.57,18.42,22.57s18.43-10.11,18.43-22.57S403.5,784,393.32,784,374.9,794.08,374.9,806.55Z"/><polygon class="cls-3" points="496.87 609.32 367.22 608.92 367.57 723.28 496.52 723.67 496.87 609.32"/><polygon class="cls-4" points="535.56 609.51 432.33 609.12 432.05 723.48 535.28 723.87 535.56 609.51"/><polygon class="cls-5" points="432.33 609.12 535.56 609.51 535.47 646.08 432.05 723.48 432.33 609.12"/><path class="cls-17" d="M348.82,514.44s11,7.48,13.88,5.64-2-6,2.64-7.53S348.82,514.44,348.82,514.44Z"/><rect class="cls-6" x="0.84" y="841.61" width="4280.72" height="1.68" rx="0.84"/><rect class="cls-20" width="4281.57" height="843.3"/></g></g></svg>