<svg id="Layer_1" data-name="Layer 1" xmlns="http://www.w3.org/2000/svg" viewBox="0 0 1048.01 477.11"><defs><style>.cls-1{fill:#dee9f7;}.cls-2{fill:#c0d1ec;}.cls-3{fill:#9fb6df;}.cls-4{fill:#447bbf;}.cls-5{fill:#be1e2d;}.cls-6{fill:#fff;}.cls-7{fill:#b2c1e3;}.cls-8{fill:#9ab0db;}.cls-9{fill:#fab17e;}.cls-10{fill:#751113;}.cls-11{fill:#35498c;}.cls-12{fill:#7988c3;}.cls-13{fill:#a8c3e6;}.cls-14{fill:#2e3b65;}.cls-15{fill:#ee985e;}.cls-16{fill:#231f20;}.cls-17{fill:#d63044;}.cls-18{fill:#919bce;}.cls-19{fill:#243962;}</style></defs><path class="cls-1" d="M41.83,477.08c60,0,979.72.07,979.72,0,33.69-34.16,43.62-115.7-29.35-194.45-26.73-28.84,44.18-84.16-1.85-172.89C972.86,76,903,18.06,718.61,63,640.22,82.16,573.69,51.62,559,40.6a163.58,163.58,0,0,0-27.11-16.32C430.38-24.82,255.05,6.45,178.53,65.47c-10.85,8.37-60.16,51.65-21.29,111.14C181.78,214.17,79,250,42.43,292.93-50.46,402,41,475.66,41.83,477.08Z"/><path class="cls-2" d="M846.09,220.92v.61c0,11.72,9.93,21.25,22.13,21.25h66.31a13.11,13.11,0,0,1,13.36,12.82v2a13.12,13.12,0,0,1-13.36,12.83H861.32a2.69,2.69,0,0,0-2.69,2.69,5.7,5.7,0,0,0,5.72,5.72h70.18c12.2,0,22.13-9.52,22.13-21.24v-2c0-11.71-9.93-21.24-22.13-21.24H868.22a13.13,13.13,0,0,1-13.36-12.83v-.61a13.13,13.13,0,0,1,13.36-12.83h67.54c12.2,0,22.13-9.53,22.13-21.25V184c0-11.72-9.93-21.25-22.13-21.25H868.22a12.84,12.84,0,1,1,0-25.66h133.16c-.8-2.76-1.7-5.57-2.72-8.41H868.22c-12.2,0-22.13,9.53-22.13,21.24s9.93,21.25,22.13,21.25h67.54A13.11,13.11,0,0,1,949.12,184v2.84a13.11,13.11,0,0,1-13.36,12.83H868.22C856,199.67,846.09,209.2,846.09,220.92Z"/><rect class="cls-3" x="334.77" y="131.2" width="113.36" height="2.55" transform="translate(782.9 264.94) rotate(-180)"/><path class="cls-3" d="M449.44,132.1a2.69,2.69,0,1,0-2.69,2.69A2.68,2.68,0,0,0,449.44,132.1Z"/><path class="cls-3" d="M338.24,132.1a2.69,2.69,0,1,0-2.69,2.69A2.69,2.69,0,0,0,338.24,132.1Z"/><path class="cls-4" d="M345.78,131.27v87.64c8.71,1.49,31.42.22,44.37,1.7s42.33-.51,42.33-.51V131.67a2.64,2.64,0,0,0-2.63-2.63l-81.72-.12A2.35,2.35,0,0,0,345.78,131.27Z"/><path class="cls-5" d="M345.78,184.78v34.13c8.71,1.49,31.42.22,44.37,1.7s42.33-.51,42.33-.51V187.25c-.2-1.17-.32-1.85-.32-1.85a297.47,297.47,0,0,1-35.64.4C379.83,184.75,359.79,187.47,345.78,184.78Z"/><path class="cls-6" d="M416.58,204.84c7.09,0,15.39-.34,15.85-.36l-.09-2.12c-.15,0-15.31.63-22.18.21l-1.61-.1c-8.32-.51-25.64-1.59-32.87-.38-7.43,1.24-30.37-.28-30.6-.3l-.15,2.12c1,.07,23.43,1.55,31.1.27,7-1.16,24.79-.06,32.38.41l1.63.1C411.83,204.8,414.13,204.84,416.58,204.84Z"/><path class="cls-6" d="M416.58,209.51c7.09,0,15.39-.34,15.85-.36l-.09-2.12c-.15,0-15.31.63-22.18.21l-1.61-.1c-8.32-.51-25.64-1.59-32.87-.38-7.43,1.24-30.37-.28-30.6-.3l-.15,2.12c1,.07,23.42,1.55,31.1.27,7-1.16,24.79-.06,32.38.41l1.63.1C411.83,209.47,414.13,209.51,416.58,209.51Z"/><rect class="cls-3" x="480.58" y="108.16" width="105.04" height="133.77" transform="translate(1066.19 350.08) rotate(-180)"/><rect class="cls-2" x="484.83" y="112.34" width="96.52" height="125.91" transform="translate(1066.19 350.6) rotate(-180)"/><rect class="cls-2" x="781.2" y="316.31" width="129.79" height="159.77" transform="translate(1692.19 792.38) rotate(-180)"/><rect class="cls-7" x="781.2" y="340.13" width="129.79" height="2.17" transform="translate(1692.19 682.43) rotate(-180)"/><path class="cls-7" d="M872.58,319.58h34.5V338h-34.5Zm34.07.43H873v17.57h33.63Z"/><path class="cls-7" d="M853.82,328.8a6.19,6.19,0,1,0-6.19,6.18A6.19,6.19,0,0,0,853.82,328.8Z"/><path class="cls-7" d="M837.11,328.8a5,5,0,1,0-5,5A5,5,0,0,0,837.11,328.8Z"/><rect class="cls-7" x="791.51" y="322.87" width="27.63" height="11.85" transform="translate(1610.65 657.59) rotate(-180)"/><circle class="cls-7" cx="847.63" cy="401.67" r="48.09"/><circle class="cls-8" cx="847.63" cy="401.67" r="38.67" transform="translate(404.62 1228.45) rotate(-87.17)"/><rect class="cls-7" x="803.77" y="395.17" width="14.3" height="16.9" rx="4.7" transform="translate(1621.83 807.24) rotate(180)"/><rect class="cls-2" x="455.42" y="314.14" width="144.1" height="161.66" transform="translate(1054.95 789.95) rotate(-180)"/><rect class="cls-7" x="455.42" y="363.74" width="144.1" height="1.91" transform="translate(1054.95 729.38) rotate(-180)"/><rect class="cls-7" x="513.41" y="319.67" width="26.13" height="3.2" rx="1.05" transform="translate(1052.95 642.54) rotate(-180)"/><rect class="cls-7" x="455.42" y="422.4" width="144.1" height="1.91" transform="translate(1054.95 846.72) rotate(-180)"/><rect class="cls-7" x="513.41" y="369.6" width="26.13" height="3.2" rx="1.05" transform="translate(1052.95 742.41) rotate(180)"/><rect class="cls-7" x="513.41" y="430.89" width="26.13" height="3.2" rx="1.05" transform="translate(1052.95 864.98) rotate(-180)"/><rect class="cls-8" x="447.47" y="305.71" width="161.03" height="10.59" transform="translate(1055.97 622.02) rotate(-180)"/><path class="cls-8" d="M535,282.63h0a3.23,3.23,0,0,0,3.22-3.22V250.13a3.23,3.23,0,0,0-3.22-3.22h0a3.22,3.22,0,0,0-3.21,3.22v29.28A3.22,3.22,0,0,0,535,282.63Z"/><path class="cls-9" d="M552.1,266.64s-7.78-2.93-10.4-1.15.81,7.3,2.89,7.66,8.14-.54,8.14-.54Z"/><path class="cls-10" d="M550.85,270.36c-1.23-3.33-.2-5-.2-5s28.63-5.55,31.3-7.32,26.82-35.27,26.82-35.27l38,3.53s-47.35,39.77-54.2,44.14c-11.31,7.21-38.67,3.1-38.67,3.1A5,5,0,0,1,550.85,270.36Z"/><rect class="cls-11" x="542.94" y="260.34" width="3.44" height="18.23" transform="translate(-46.99 408.09) rotate(-39.51)"/><path class="cls-11" d="M537.26,256.36v0c.74,1.16,1,2.65.06,3.64-1.28,1.32-2.82.81-4-.57,0,0-.29-.35-.29-.36-.4-.48-1.45.57-1.38,1.19a5,5,0,1,0,6.89-5.11C537.91,254.88,536.86,255.74,537.26,256.36Z"/><path class="cls-11" d="M551.83,283.06h0c-.74-1.17-1-2.66-.06-3.65,1.29-1.32,2.82-.81,4,.57l.29.36c.4.48,1.45-.57,1.38-1.19a5,5,0,1,0-6.89,5.11C551.19,284.55,552.23,283.68,551.83,283.06Z"/><path class="cls-9" d="M541.7,265.49s4.52-.13,4.67,2.11.5,5.68-1.78,5.55S535.94,267.87,541.7,265.49Z"/><path class="cls-12" d="M525.87,269.94s-28.56-26-39.61-11.43c-2.89,3.8,3.38,8.31,7.88,9C502.19,268.76,515.51,264.6,525.87,269.94Z"/><path class="cls-2" d="M480.06,282.63c0,9.89,10.7,18.53,26.56,23.11h52.15c15.87-4.58,26.56-13.22,26.56-23.11Z"/><path class="cls-13" d="M477.46,282.63H587.93a2.32,2.32,0,0,0,2.32-2.32h0a2.33,2.33,0,0,0-2.32-2.32H477.46a2.33,2.33,0,0,0-2.31,2.32h0A2.32,2.32,0,0,0,477.46,282.63Z"/><path class="cls-12" d="M513.89,287.28S512,298.06,517.23,301s9.42-3.3,4.81-6.11S515.58,292.19,513.89,287.28Z"/><path class="cls-12" d="M513.5,278S499,279.93,493.26,290.8s-10.24,26.14,1.43,28.48,17.07-3.61,13.45-17.3C503,282.63,513.5,278,513.5,278Z"/><path class="cls-14" d="M722.14,452.1s5.11,4.74,4.11,8.11-5.61,5.61-6.23,9.72-3.12,6.36-5.36,6.36H704s-1.65-2.89,2.34-3.77,5.5-5.7,5.25-10.19a80.67,80.67,0,0,1,.37-10.48l8.48-2Z"/><path class="cls-14" d="M659.41,464.21s1.19,10.79-1,11.91h-29s0-3.43,4.56-4.18,12.72-3.49,14.09-9.6S659.41,464.21,659.41,464.21Z"/><path class="cls-4" d="M635.16,311s1.51,18.9,3.29,41.62c2.42,30.87,5.33,68.79,5.62,76,.5,12.48,2.5,32.43,2.5,32.43s4.73,4.74,14.21,2.74c0,0,8.45-28.48,10.86-58.62l.12-1.49c2.24-30.67,5.73-95.27,5.73-95.27Z"/><path class="cls-14" d="M635.16,311s1.51,18.9,3.29,41.62l33.19,52.52.12-1.49c2.24-30.67,5.73-95.27,5.73-95.27Z"/><path class="cls-4" d="M642.08,313.2s1.4,3.52,3.78,9.33c5.55,13.56,16.4,39.6,27.15,62.67,5,10.7,9.94,20.75,14.33,28.64C705.3,446,710.92,455,710.92,455l.69-.29c1.86-.78,7-3.06,9.38-5.16a3.8,3.8,0,0,0,1.15-1.47s-6.87-62.11-18.9-77.25c-6.79-8.56-14.77-34.24-15.15-43.21-.16-4-.66-9.63-1.16-14.73-.44-4.61-.9-8.75-1.13-10.75l-.14-1.28-31.53,8.94Z"/><path class="cls-14" d="M648.5,322A127.15,127.15,0,0,0,677,317.72c4.86-1.19,8.08-3.69,9.95-4.84-.44-4.61-.9-8.75-1.13-10.75l-12.68,6.48Z"/><path class="cls-9" d="M630.05,205.42S618.9,225,608,227.58a32.72,32.72,0,0,1,2.09-9,4,4,0,0,0-.62-4c-.44-.54-.85-1.06-1.23-1.55a67,67,0,0,1-4-5.66l3.7-9.94,2.51-6.74a32,32,0,0,0,3.92,5.65C621.47,204.49,630.05,205.42,630.05,205.42Z"/><path class="cls-15" d="M614.33,196.29s1.33,9.82-6.08,16.69a67,67,0,0,1-4-5.66l3.7-9.94A20.9,20.9,0,0,1,614.33,196.29Z"/><path class="cls-9" d="M601.27,208.77s16.65-6.49,12.45-16.8-4.89-18.09-15.69-14.38-11.26,8.48-10.7,12.26S596.83,210.19,601.27,208.77Z"/><path class="cls-5" d="M610.79,252.41a102.42,102.42,0,0,0,7,15.64c.55,1,1.08,2,1.58,3,.34.65.67,1.3,1,1.94a103.61,103.61,0,0,1,10.09,31.21c.23,1.6.41,3.12.53,4.55.55,6.12,57.77-13.8,55.93-22.36-1.22-5.64-2.88-11.56-4.44-16.61-2.27-7.39-4.3-12.9-4.3-12.9-10.7-25.48-25.89-39.19-37.73-46.43-2.14-1.31-4.17-2.42-6-3.33a51.09,51.09,0,0,0-12.08-4.41s-2.45,12.24-13,17.09c0,0-1.64,6.65-1.64,6.67C605.91,232.73,607.31,242.36,610.79,252.41Z"/><path class="cls-16" d="M616.11,172.83c.11-.23.45-.48,1.28-.73a3.55,3.55,0,0,0-1.68-.07c-.47-1.14-1.6-3.08-3.73-3.09a2.6,2.6,0,0,1,1.67,1.54c-2.92-1.85-8.33-2.39-21.85,2.11-17.81,5.93-8.91,16.27-6.21,17.1s7.67-4.49,12.14-5.22,6.89,5.5,8.59,6,.73-.9,2.52-2.32,2.81,1.92,2.77,4.26,3.44,4.57,3.44,4.57l2-3.74c2-3.75,1.48-17.33-.46-19.78Z"/><path class="cls-10" d="M646.07,243.11s-1.92,14.51-8.4,25.48-9.34-6.1-9.34-6.1Z"/><path class="cls-4" d="M620.31,273a103.61,103.61,0,0,1,10.09,31.21c.23,1.6.41,3.12.53,4.55a71.72,71.72,0,0,1,0,13.19c-.59,6.68,49.62-6.22,56.33-15.88,3.7-5.32-.94-23.57-4.85-36.28-.65.16-31.78,7.57-53.32-11.69Z"/><path class="cls-14" d="M616.5,238.48l3.1-6.18c0-.11-.34-10.92,6.15-17.26,3.49-3.43,8.42-5,14.64-4.62-2.14-1.31-4.17-2.42-6-3.33a19.74,19.74,0,0,0-11.13,5.39C615.59,220,616.48,238,616.5,238.48Z"/><path class="cls-9" d="M573.68,281.07s-9.77-1.75-11.39-1.56-7.19,2.84-7.25,3.3.24.83,1.22.85,4.2-.55,4-.15-9.42,2.68-9.43,4.56,5.25,5.12,9.58,5.15,12.56-5.38,13.29-5.48C579.86,286.91,573.68,281.07,573.68,281.07Z"/><path class="cls-17" d="M571.85,285.05c-.19-1.92,1.83-4,1.83-4s29-8,31.38-10.39,13.51-41,13.51-41,3.83-15.6,12.78-17.32c7.78-1.49,13.16,2.36,16.68,6.87a16.6,16.6,0,0,1,1.13,18.67c-7.82,13.16-23.58,39.3-28.18,43.77-10.25,9.93-47.26,7.88-47.26,7.88S572.23,288.92,571.85,285.05Z"/><path class="cls-18" d="M385.53,475.8s6.15-9.73,23.61-7.68,29.91,11.44,71.56,1,37.9,8.32,61.62,4.27,34.14,2.45,34.14,2.45Z"/><rect class="cls-19" y="475.43" width="1048.01" height="1.68" rx="0.84"/></svg>