<svg id="Layer_1" data-name="Layer 1" xmlns="http://www.w3.org/2000/svg" viewBox="0 0 1048.01 477.11"><defs><style>.cls-1{fill:#dee9f7;}.cls-2{fill:#b1c6e6;}.cls-3{fill:#fab17e;}.cls-4{fill:#751113;}.cls-5{fill:#183660;}.cls-6{fill:#243962;}.cls-7{fill:#447bbf;}.cls-8{fill:#be1e2d;}.cls-9{fill:#f9a56c;}.cls-10{fill:#231f20;}.cls-11{fill:#d63044;}.cls-12{fill:#2b4f97;}.cls-13{opacity:0.5;}.cls-14{fill:#fff;}.cls-15{fill:#9fb6df;}.cls-16{fill:#d6e3f4;}.cls-17{fill:#b2c1e3;}.cls-18{fill:#84a4d5;}.cls-19{fill:#9ab0db;}.cls-20{fill:#c0d1ec;}</style></defs><path class="cls-1" d="M1006.18,477.08c-60,0-979.72.07-979.72,0-33.69-34.16-43.61-115.7,29.35-194.45,26.73-28.84-44.18-84.16,1.85-172.89C75.15,76,145,18.06,329.4,63,407.8,82.16,474.32,51.62,489.05,40.6a164,164,0,0,1,27.11-16.32C617.64-24.82,793,6.45,869.48,65.47c10.85,8.37,60.16,51.65,21.29,111.14-24.54,37.56,78.28,73.43,114.81,116.32C1098.47,402,1007,475.66,1006.18,477.08Z"/><rect class="cls-2" x="544.67" y="210.49" width="2.95" height="15.61" transform="translate(1022.68 563.03) rotate(-165.9)"/><path class="cls-2" d="M547,205.45h0a2.52,2.52,0,0,0,1.3,2.84c1.48.56,2.48-.4,2.85-1.89,0,0,.09-.38.1-.38.12-.52,1.33-.1,1.5.41a4.25,4.25,0,1,1-7.21-1.43C546,204.54,547.13,204.82,547,205.45Z"/><path class="cls-2" d="M545.59,231.45h0a2.52,2.52,0,0,0-1.3-2.84c-1.48-.55-2.48.41-2.85,1.89l-.1.39c-.12.52-1.33.09-1.5-.41a4.24,4.24,0,1,1,7.21,1.42C546.64,232.37,545.51,232.08,545.59,231.45Z"/><path class="cls-3" d="M539.11,163.13a51.91,51.91,0,0,1-3.42-4.88c-1.35-2.28-9.62-7.08-10.21-3-.54,3.71,2.14,2.6,3.11,5.53s2.17,4.19,8.25,6.87Z"/><path class="cls-4" d="M537.13,164.58c1.82-2.71,2.36-2.85,2.36-2.85s30,11.48,32.85,12.44S618,177.54,618,177.54l12.91,27.24s-57-12.48-64.22-15.05c-11.9-4.24-31-20.84-31-20.84A8.72,8.72,0,0,1,537.13,164.58Z"/><path class="cls-5" d="M611.64,419.22s-.66,10.1-2.61,12.47H579c.19-1,1-3.49,4.8-4.12,4.75-.8,12.71-4,15.59-10C602.37,411.2,611.64,419.22,611.64,419.22Z"/><path class="cls-5" d="M665.11,415.06s1.89,15.32-.68,15.55c-.35,0-12.4,0-15.67.48-5.35.77-14.27.1-14.27.1a1.37,1.37,0,0,1-1.29-2,5.72,5.72,0,0,1,4.09-2.52c4.74-.87,12.63-4.21,15.4-10.29C655.6,410,665.11,415.06,665.11,415.06Z"/><path class="cls-6" d="M597.49,284.79s7.57,25.39,29.24,69.49a311.25,311.25,0,0,1,15,35.33c.41,1.19.79,2.33,1.15,3.43.58,1.77,1.09,3.44,1.55,5,.35,1.2.66,2.33.95,3.4,2.85,10.61,2.79,15.43,2.79,15.43a27.53,27.53,0,0,0,10.8,1.22c3-.29,9.57-3,9.57-3s-.71-7.11-2.14-17.17c-.16-1.1-.33-2.24-.5-3.41-.24-1.57-.49-3.2-.75-4.86-.18-1.12-.37-2.25-.56-3.4-2.52-15-6.26-32.36-11.24-43.2-10.25-22.25-12.33-83.16-12.33-83.16Z"/><path class="cls-7" d="M585.4,271.83a630.62,630.62,0,0,0,6.44,78.71c2.45,16.68,3.77,30,4.44,40.39.08,1.22.15,2.39.21,3.52.1,1.82.18,3.54.24,5.15,0,1.21.09,2.37.11,3.47a129.17,129.17,0,0,1-.31,16.25,8.11,8.11,0,0,0,1.32.58h0a25.91,25.91,0,0,0,8.71,1.29,21.94,21.94,0,0,0,4.95-.56,15.54,15.54,0,0,0,3.66-1.29s1.14-6.44,2.44-15.76c.16-1.12.31-2.28.47-3.48.22-1.58.42-3.22.64-4.92.13-1.14.27-2.29.41-3.46,1.71-14.82,3-32.43,1.61-44.32a52.82,52.82,0,0,1-.34-6.29h0c0-10.71,2.26-25.13,5-38.57l0-.11c2.82-13.83,6.12-26.61,7.9-33.23.81-3,1.3-4.72,1.3-4.72l-1.5-.05h0l-11.86-.37-32.33-1-2-.07-1.61-.05S585.3,266.14,585.4,271.83Z"/><path class="cls-3" d="M618.86,170.91l-8,5.69-11.58-2.34c.16-1,.93-5.21,1.62-9,.05-.22.09-.45.13-.67.59-3.23,1.11-6,1.11-6l10.81-5.17,4-1.93c0,.07-.31,3.59-.35,4.1A32,32,0,0,0,618.86,170.91Z"/><path class="cls-4" d="M600.08,168c.26-.11,15.75-4.49,17.43-4s2.68,3.66,2.68,3.66l-23.92,6.54S596.85,169.34,600.08,168Z"/><path class="cls-8" d="M641.8,267.79c-2.62,11.49-57.37-24.58-56.64-31.59l.24-2.32c1-9.77,2-19.32,2-25.56a84.87,84.87,0,0,1,1.87-16c1-4.64,2.12-8.85,3.14-12.13a13.22,13.22,0,0,1,3.82-5.94,13.85,13.85,0,0,1,4.37-2.67,12.79,12.79,0,0,1,1.36-.46c6.59-1.83,15.72-4.11,18.19-3.41,6.7,1.89,11.68,13.21,15.21,27.63C642,222.38,643.52,260.3,641.8,267.79Z"/><path class="cls-9" d="M615.81,155.73c-2.38,4.36-11.23,8.13-14.92,9.52.05-.22.09-.45.13-.67.59-3.23,1.11-6,1.11-6l10.81-5.17C615.33,153.36,616.78,153.94,615.81,155.73Z"/><path class="cls-3" d="M596.87,158s19.51,5.84,23.11-5.87,8.55-18.85-3.75-23.07-16.11-.45-18.3,3.18S591.89,156.14,596.87,158Z"/><path class="cls-10" d="M598.69,131.07s1.25,13.63,4.18,13,5.6-1,5.17,3.08-4.5,8.85,4.55,9.58,22.07-21.68,19.58-25.92C625,118.61,588.32,116.15,598.69,131.07Z"/><path class="cls-4" d="M586.81,262.93c5.42,1.88-.1-5.17,0-6.64.42-6.46-2.22-14.63-1.41-22.41l33.11-19S626.37,262.63,586.81,262.93Z"/><path class="cls-7" d="M641.8,267.79c-14.13,25.14-16.39,34.74-16.39,34.74-12.3-1.34-33.39-24.56-40.07-30.75,0,0-.91-28.57-.18-35.58l10.22-.28s18.47,4.49,23.26-1.61,2.72-36,2.72-36l14-2.92C642,222.38,645.6,261,641.8,267.79Z"/><path class="cls-3" d="M557.92,219.61s-6.73-4.37-8-4.75-5.46-.79-5.66-.48-.76,1.29,0,1.62,1.64.21,1.36.44-3-1-3.65.32-1.2,6,2,7.35,11.2.14,11.77.3C560.6,225.77,557.92,219.61,557.92,219.61Z"/><path class="cls-11" d="M557.85,218.43s32.85,5.36,35.76,4c4.64-2.17-1.8-34.15-1.8-34.15s-.28-7.25,8.54-9c7.67-1.48,15.07,4,15.07,4s6.72,5.77,5.86,12.18c-1.9,14.2-4.87,43.08-14.76,47.51-12.77,5.71-49.71-15.84-49.71-15.84a6,6,0,0,1-1.06-4.13A9.43,9.43,0,0,1,557.85,218.43Z"/><path class="cls-12" d="M624.08,197.72l-2.72.57s-5.76-23.9-25.09-24a13.85,13.85,0,0,1,4.37-2.67C607.72,173.43,620,179.24,624.08,197.72Z"/><g class="cls-13"><path class="cls-14" d="M641.76,389.61c.41,1.19.79,2.33,1.15,3.43a80.7,80.7,0,0,0,19.25-2.57c1.09-.27,2.11-.55,3-.81-.18-1.12-.37-2.25-.56-3.4A79,79,0,0,1,641.76,389.61Z"/></g><g class="cls-13"><path class="cls-14" d="M644.46,398c.35,1.2.66,2.33.95,3.4a83.25,83.25,0,0,0,17.49-2.54c1.31-.33,2.48-.66,3.53-1-.16-1.1-.33-2.24-.5-3.41A82.26,82.26,0,0,1,644.46,398Z"/></g><path class="cls-3" d="M538.3,162.07a22.11,22.11,0,0,0-1.17-4.47c-.8-1.88-1.81-4.27-2-3s.58,3.33,0,4.34S538.3,162.07,538.3,162.07Z"/><path class="cls-14" d="M596.28,390.93c.08,1.22.15,2.39.21,3.52a82.27,82.27,0,0,0,18.19,1c1.51-.08,2.87-.18,4.05-.28.13-1.14.27-2.29.41-3.46A82.4,82.4,0,0,1,596.28,390.93Z"/><path class="cls-14" d="M596.73,399.6c0,1.21.09,2.37.11,3.47a83.28,83.28,0,0,0,16.78.77c1.49-.07,2.83-.17,4-.26.16-1.12.31-2.28.47-3.48A84.74,84.74,0,0,1,596.73,399.6Z"/><path class="cls-15" d="M574.1,126.26S547,148.1,544.29,146.72,541,141.9,541,141.9c-5.66,1.09-10.36,8.4-12.47,12.23-.77,1.4-1.19,2.34-1.19,2.34a4,4,0,0,1-4-1.28c3-11.2,15.1-24.69,27.55-29.27S572.77,125.17,574.1,126.26Z"/><path class="cls-16" d="M576.72,128.89c2.29,4.85-3.49,12.38-12.91,16.81s-18.9,4.09-21.18-.76,3.5-12.38,12.91-16.81S574.44,124,576.72,128.89Z"/><path class="cls-15" d="M561.5,136.94c.13.27-.25.72-.83,1s-1.17.29-1.3,0,.25-.71.84-1S561.38,136.67,561.5,136.94Z"/><path class="cls-15" d="M554.28,140.34c.13.27-.24.71-.83,1s-1.17.28-1.3,0,.25-.71.84-1S554.16,140.07,554.28,140.34Z"/><path class="cls-15" d="M565.11,135.25c.13.26-.25.71-.84,1s-1.16.29-1.29,0,.25-.71.84-1S565,135,565.11,135.25Z"/><path class="cls-15" d="M568.72,133.55c.13.27-.25.71-.84,1s-1.17.28-1.29,0,.25-.71.83-1S568.59,133.28,568.72,133.55Z"/><path class="cls-15" d="M573.39,131.35c.13.27-.24.71-.83,1s-1.17.28-1.3,0,.25-.71.84-1S573.27,131.08,573.39,131.35Z"/><path class="cls-15" d="M557.89,138.64c.13.27-.24.71-.83,1s-1.17.28-1.3,0,.25-.72.84-1S557.77,138.37,557.89,138.64Z"/><path class="cls-15" d="M549.85,142.43c.13.27-.25.71-.84,1s-1.16.28-1.29,0,.25-.71.84-1S549.72,142.16,549.85,142.43Z"/><path class="cls-15" d="M560.48,134.77c.13.27-.25.71-.84,1s-1.16.29-1.29,0,.25-.72.84-1S560.35,134.5,560.48,134.77Z"/><path class="cls-15" d="M553.26,138.17c.13.27-.24.71-.83,1s-1.17.28-1.3,0,.25-.71.84-1S553.14,137.9,553.26,138.17Z"/><path class="cls-15" d="M549.51,139.56c.13.27-.25.71-.84,1s-1.16.28-1.29,0,.25-.71.83-1S549.38,139.29,549.51,139.56Z"/><path class="cls-15" d="M570.52,129.67c.12.27-.25.71-.84,1s-1.17.29-1.29,0,.24-.72.83-1S570.39,129.4,570.52,129.67Z"/><path class="cls-15" d="M551.92,136.15c.13.27-.24.72-.83,1s-1.17.29-1.3,0,.25-.71.84-1S551.8,135.89,551.92,136.15Z"/><path class="cls-15" d="M564.09,133.07c.13.27-.25.72-.84,1s-1.17.29-1.29,0,.25-.71.83-1S564,132.81,564.09,133.07Z"/><path class="cls-15" d="M567.7,131.38c.12.27-.25.71-.84,1s-1.17.29-1.29,0,.24-.71.83-1S567.57,131.11,567.7,131.38Z"/><path class="cls-15" d="M556.87,136.47c.13.27-.25.71-.83,1s-1.17.28-1.3,0,.25-.71.84-1S556.74,136.2,556.87,136.47Z"/><path class="cls-15" d="M562.41,138.88c.13.27-.24.71-.83,1s-1.17.28-1.3,0,.25-.71.84-1S562.29,138.61,562.41,138.88Z"/><path class="cls-15" d="M555.2,142.28c.12.26-.25.71-.84,1s-1.17.29-1.3,0,.25-.71.84-1S555.07,142,555.2,142.28Z"/><path class="cls-15" d="M552.68,144.65c.13.27-.25.71-.84,1s-1.17.28-1.29,0,.25-.71.83-1S552.55,144.38,552.68,144.65Z"/><path class="cls-15" d="M566,137.18c.13.27-.25.71-.83,1s-1.17.28-1.3,0,.25-.71.84-1S565.89,136.91,566,137.18Z"/><path class="cls-15" d="M569.63,135.48c.13.27-.25.71-.84,1s-1.17.28-1.29,0,.25-.71.83-1S569.5,135.21,569.63,135.48Z"/><path class="cls-15" d="M572.59,134.09c.13.27-.24.71-.83,1s-1.17.28-1.3,0,.25-.71.84-1S572.47,133.82,572.59,134.09Z"/><path class="cls-15" d="M570.65,137.65c.13.27-.25.71-.83,1s-1.17.29-1.3,0,.25-.72.84-1S570.52,137.38,570.65,137.65Z"/><path class="cls-15" d="M558.8,140.58c.13.27-.24.71-.83,1s-1.17.28-1.3,0,.25-.71.84-1S558.68,140.31,558.8,140.58Z"/><path class="cls-15" d="M563.43,141.05c.13.27-.24.71-.83,1s-1.17.28-1.3,0,.25-.71.84-1S563.31,140.78,563.43,141.05Z"/><path class="cls-15" d="M558.39,130.32c.12.27-.25.71-.84,1s-1.17.28-1.3,0,.25-.72.84-1S558.26,130.05,558.39,130.32Z"/><path class="cls-15" d="M564.5,143.31c.12.27-.25.71-.84,1s-1.17.28-1.29,0,.24-.71.83-1S564.37,143,564.5,143.31Z"/><path class="cls-15" d="M567,139.35c.13.27-.24.71-.83,1s-1.17.28-1.3,0,.25-.71.84-1S566.92,139.08,567,139.35Z"/><path class="cls-15" d="M559.83,142.75c.12.27-.25.71-.84,1s-1.17.28-1.3,0,.25-.71.84-1S559.7,142.48,559.83,142.75Z"/><path class="cls-15" d="M556.56,144.29c.12.27-.25.71-.84,1s-1.17.28-1.3,0,.25-.71.84-1S556.43,144,556.56,144.29Z"/><path class="cls-15" d="M559.46,132.61c.13.27-.25.71-.84,1s-1.16.28-1.29,0,.25-.71.84-1S559.33,132.34,559.46,132.61Z"/><path class="cls-15" d="M563.07,130.91c.13.27-.25.71-.84,1s-1.17.28-1.29,0,.25-.71.83-1S562.94,130.64,563.07,130.91Z"/><path class="cls-15" d="M562.22,129.11c.13.27-.24.71-.83,1s-1.17.28-1.3,0,.25-.71.84-1S562.1,128.84,562.22,129.11Z"/><path class="cls-15" d="M567.88,141.12c.12.27-.25.72-.84,1s-1.17.29-1.29,0,.24-.71.83-1S567.75,140.86,567.88,141.12Z"/><path class="cls-15" d="M561,144.36c.13.26-.25.71-.83,1s-1.17.29-1.3,0,.25-.71.84-1S560.89,144.09,561,144.36Z"/><path class="cls-15" d="M555,132.51c.12.27-.25.71-.84,1s-1.17.28-1.29,0,.24-.71.83-1S554.88,132.24,555,132.51Z"/><path class="cls-15" d="M566.68,129.21c.12.27-.25.71-.84,1s-1.17.28-1.29,0,.24-.71.83-1S566.55,128.94,566.68,129.21Z"/><path class="cls-15" d="M555.85,134.31c.13.26-.25.71-.83,1s-1.17.29-1.3,0,.25-.71.84-1S555.73,134,555.85,134.31Z"/><path class="cls-17" d="M495.67,115.09h1.92a1.76,1.76,0,0,1,1.76,1.76V430.51a0,0,0,0,1,0,0h-5.59a0,0,0,0,1,0,0V117A1.92,1.92,0,0,1,495.67,115.09Z"/><path class="cls-15" d="M499.5,239.19l-.32-3.82a16.45,16.45,0,0,0,9.09-3c8.81-6.09,14.09-21.07,15.25-43.33a208.25,208.25,0,0,0-1-32.59l6.27-.29c.32,2.55,7.59,62.59-15.78,78.74A24.7,24.7,0,0,1,499.5,239.19Z"/><path class="cls-17" d="M551.05,303.23h-50.5a4,4,0,0,1-4-4h0a4,4,0,0,1,4-4h50.5a4,4,0,0,1,4,4h0A4,4,0,0,1,551.05,303.23Z"/><path class="cls-17" d="M532.45,160.17H497.12a3.38,3.38,0,0,1-3.37-3.37h0a3.39,3.39,0,0,1,3.37-3.38h35.33a3.39,3.39,0,0,1,3.37,3.38h0A3.38,3.38,0,0,1,532.45,160.17Z"/><polygon class="cls-8" points="549.1 243.94 546.03 287.14 533.48 287.14 530.98 243.94 549.1 243.94"/><rect class="cls-14" x="533.48" y="287.14" width="12.55" height="8.08"/><rect class="cls-4" x="530.98" y="241.24" width="18.12" height="2.69"/><path class="cls-14" d="M545.06,258.71a2.65,2.65,0,1,0-2.65,2.65A2.65,2.65,0,0,0,545.06,258.71Z"/><path class="cls-14" d="M541.52,265.14a3.28,3.28,0,1,0-3.27,3.28A3.27,3.27,0,0,0,541.52,265.14Z"/><path class="cls-14" d="M538.49,259.7a1.66,1.66,0,1,0-1.66,1.66A1.65,1.65,0,0,0,538.49,259.7Z"/><path class="cls-4" d="M537.92,259.13a.58.58,0,1,0-.58.57A.58.58,0,0,0,537.92,259.13Z"/><path class="cls-4" d="M537.8,266.4a1,1,0,1,0-1,1A1,1,0,0,0,537.8,266.4Z"/><path class="cls-4" d="M544.45,259.56a1.12,1.12,0,1,0-1.12,1.11A1.12,1.12,0,0,0,544.45,259.56Z"/><polygon class="cls-8" points="526.24 256.62 523.17 287.14 510.62 287.14 508.12 256.62 526.24 256.62"/><rect class="cls-14" x="510.62" y="287.14" width="12.55" height="8.08"/><rect class="cls-4" x="508.12" y="254.71" width="18.12" height="1.9"/><path class="cls-14" d="M522.2,264.89a2.65,2.65,0,1,0-2.65,2.65A2.65,2.65,0,0,0,522.2,264.89Z"/><path class="cls-14" d="M518.67,271.32a3.28,3.28,0,1,0-3.28,3.28A3.28,3.28,0,0,0,518.67,271.32Z"/><path class="cls-14" d="M515.63,265.88a1.66,1.66,0,1,0-1.66,1.66A1.66,1.66,0,0,0,515.63,265.88Z"/><path class="cls-4" d="M515.06,265.31a.58.58,0,0,0-1.15,0,.58.58,0,0,0,1.15,0Z"/><path class="cls-4" d="M514.94,272.58a1,1,0,1,0-1,1A1,1,0,0,0,514.94,272.58Z"/><path class="cls-4" d="M521.59,265.74a1.12,1.12,0,1,0-1.12,1.11A1.12,1.12,0,0,0,521.59,265.74Z"/><path class="cls-18" d="M541,141.9c-5.66,1.09-10.36,8.4-12.47,12.23.26-4.76,9.27-15.61,11.69-14.75S541,141.9,541,141.9Z"/><polygon class="cls-19" points="532.32 459.22 523.5 475.8 518.96 475.8 522.48 459.22 532.32 459.22"/><polygon class="cls-19" points="720.33 459.22 729.14 475.8 733.69 475.8 730.17 459.22 720.33 459.22"/><path class="cls-20" d="M815.69,342.86l-22,60.12a93.6,93.6,0,0,1-87.91,61.47H547.56a72,72,0,0,1-70.38-56.75l-8.74-40.29a529.25,529.25,0,0,0,66.68,5.93C667.84,377.37,815.69,342.86,815.69,342.86Z"/><path class="cls-17" d="M626.54,464.45h-79a72,72,0,0,1-70.38-56.75l-8.74-40.29a529.25,529.25,0,0,0,66.68,5.93C534.18,388.13,535.38,452.64,626.54,464.45Z"/><path class="cls-19" d="M572.91,376.15c-18.32,0-34.79-.55-48.47-1.26-38.43-2-63.84-5.7-64.09-5.74a3.65,3.65,0,0,1,1.06-7.23c.25,0,25.4,3.7,63.51,5.68,35.13,1.82,88.79,2.54,144.89-4.38s94.66-13.79,117.07-18.34c24.27-4.92,35.41-8.24,35.52-8.27a3.65,3.65,0,1,1,2.11,7c-.46.14-11.45,3.43-36,8.41-22.56,4.57-61.3,11.49-117.82,18.47A807.56,807.56,0,0,1,572.91,376.15Z"/><path class="cls-20" d="M201.92,220.92v.61c0,11.72-9.93,21.25-22.13,21.25H113.48c-7.36,0-13.36,5.75-13.36,12.82v2a13.13,13.13,0,0,0,13.36,12.83h73.21a2.69,2.69,0,0,1,2.7,2.69,5.72,5.72,0,0,1-5.73,5.72H113.48c-12.2,0-22.13-9.52-22.13-21.24v-2c0-11.71,9.93-21.24,22.13-21.24h66.31a13.12,13.12,0,0,0,13.36-12.83v-.61a13.12,13.12,0,0,0-13.36-12.83H112.25c-12.2,0-22.13-9.53-22.13-21.25V184c0-11.72,9.93-21.25,22.13-21.25h67.54a12.84,12.84,0,1,0,0-25.66H46.63c.8-2.76,1.7-5.57,2.72-8.41H179.79c12.2,0,22.13,9.53,22.13,21.24s-9.93,21.25-22.13,21.25H112.25A13.11,13.11,0,0,0,98.89,184v2.84a13.11,13.11,0,0,0,13.36,12.83h67.54C192,199.67,201.92,209.2,201.92,220.92Z"/><rect class="cls-20" x="157.94" y="316.31" width="129.79" height="159.77"/><rect class="cls-17" x="157.94" y="340.13" width="129.79" height="2.17"/><path class="cls-17" d="M196.34,338H161.85V319.58h34.49Zm-34.06-.44h33.63V320H162.28Z"/><path class="cls-17" d="M215.11,328.8A6.19,6.19,0,1,1,221.3,335,6.19,6.19,0,0,1,215.11,328.8Z"/><path class="cls-17" d="M231.82,328.8a5,5,0,1,1,5,5A5,5,0,0,1,231.82,328.8Z"/><rect class="cls-17" x="249.79" y="322.87" width="27.63" height="11.85"/><circle class="cls-17" cx="221.3" cy="401.67" r="48.09"/><circle class="cls-19" cx="221.3" cy="401.67" r="38.67" transform="matrix(1, -0.05, 0.05, 1, -19.55, 11.41)"/><rect class="cls-17" x="250.86" y="395.17" width="14.3" height="16.9" rx="4.7"/><rect class="cls-6" y="475.43" width="1048.01" height="1.68" rx="0.84"/></svg>