<svg xmlns="http://www.w3.org/2000/svg" viewBox="0 0 4281.57 843.3"><defs><style>.cls-1{fill:#dbe8f7;}.cls-2{fill:#eaf3fb;}.cls-3{fill:#c3d0eb;}.cls-4{fill:#a0aed9;}.cls-5{fill:#d1e3f5;}.cls-6{fill:#751113;}.cls-7{fill:#be1e2d;}.cls-8{fill:#d63044;}.cls-9{fill:#fee1c9;}.cls-10{fill:#234f9d;}.cls-11{fill:#accbeb;}.cls-12{fill:#fff;}.cls-13{fill:#93c5ea;}.cls-14{fill:#faab77;}.cls-15{fill:#1a3763;}.cls-16{fill:#1e3966;}.cls-17{fill:#447bbf;}.cls-18{fill:#f89e63;}.cls-19{fill:#231f20;}.cls-20{fill:#f79134;}.cls-21{fill:#254790;}.cls-22{fill:#2b3a68;}.cls-23{fill:#f79351;}.cls-24{fill:#8096cc;}.cls-25{fill:#243962;}.cls-26{fill:none;}</style></defs><g id="Layer_2" data-name="Layer 2"><g id="Layer_1-2" data-name="Layer 1"><path class="cls-1" d="M4260.88,843.3l-391-.12L3266.72,843s-70.35-118.28-6.14-278.08c41.85-104.17,126.47-181,271.74-134,29.92,9.68,76.72,3.5,136.9-36.48q4.59-3,9.12-6.36c1.64-1.21,3.29-2.44,4.92-3.7A240,240,0,0,0,3738.72,324a186.56,186.56,0,0,1,31.74-37.46,197.29,197.29,0,0,1,23.9-18.51q8.05-5.34,16.64-9.92a238.39,238.39,0,0,1,48.56-19.35q2.49-.69,5-1.34,5.83-1.51,11.77-2.77c2.71-.57,5.43-1.11,8.18-1.6,3.35-.61,6.73-1.16,10.12-1.65h0c9.25-1.33,18.64-2.23,28.11-2.71,1.8-.09,3.59-.17,5.4-.23,1.15,0,2.29-.07,3.44-.09,3.52-.08,7.06-.1,10.59-.06,88.26.89,180.59,37.54,236.82,103.52,28.3,33.22,47.46,73.87,52.33,121.14a245.77,245.77,0,0,1-.71,55c-.07.59-.14,1.16-.22,1.74-.12.93-.25,1.87-.38,2.8q-.72,5.29-1.7,10.67c-1.42,8-2.39,16.3-5.41,24.28C4160.38,712.71,4340.45,698,4260.88,843.3Z"/><rect class="cls-2" x="3675.03" y="636.23" width="32.2" height="185.71" rx="6.77"/><rect class="cls-2" x="3718.92" y="636.23" width="32.2" height="185.71" rx="6.77"/><rect class="cls-2" x="3762.8" y="636.23" width="32.2" height="185.71" rx="6.77"/><rect class="cls-2" x="3806.69" y="636.23" width="32.2" height="185.71" rx="6.77"/><rect class="cls-2" x="3850.57" y="636.23" width="32.2" height="185.71" rx="6.77"/><rect class="cls-2" x="3894.46" y="636.23" width="32.2" height="185.71" rx="6.77"/><path class="cls-2" d="M3931.59,228.33v371.3H3678.34V388.05c1.64-1.21,3.29-2.44,4.92-3.7A240,240,0,0,0,3738.72,324a186.56,186.56,0,0,1,31.74-37.46,197.29,197.29,0,0,1,23.9-18.51q8.05-5.34,16.64-9.92a238.39,238.39,0,0,1,48.56-19.35q2.49-.69,5-1.34,5.83-1.51,11.77-2.77c2.71-.57,5.43-1.11,8.18-1.6,3.35-.61,6.73-1.16,10.12-1.65h0c9.25-1.33,18.64-2.23,28.11-2.71,1.8-.09,3.59-.17,5.4-.23C3929.3,228.39,3930.44,228.35,3931.59,228.33Z"/><path class="cls-3" d="M3931.59,228.33c-1.15,0-2.29.06-3.44.09V593.68H3683.26V384.35c-1.63,1.26-3.28,2.49-4.92,3.7q-4.53,3.31-9.12,6.36V608.69h273V228.27C3938.65,228.23,3935.11,228.25,3931.59,228.33Z"/><path class="cls-3" d="M3660.8,595.54h290.89a5.71,5.71,0,0,1,5.71,5.71v8.2a0,0,0,0,1,0,0H3654.95a0,0,0,0,1,0,0v-8.06a5.85,5.85,0,0,1,5.85-5.85Z"/><path class="cls-3" d="M3811,258.07V598.33h-16.64V268Q3802.42,262.65,3811,258.07Z"/><path class="cls-4" d="M3805.4,426.74h-1.33a1.69,1.69,0,0,1-1.67-1.64l-.59-19.13a1.68,1.68,0,0,1,1.67-1.74H3806a1.69,1.69,0,0,1,1.67,1.75l-.64,19.12A1.68,1.68,0,0,1,3805.4,426.74Z"/><polygon class="cls-5" points="3906.33 419.26 3928.22 422.24 3905.5 593.79 3883.61 590.8 3906.33 419.26"/><polygon class="cls-6" points="3905.91 590.76 3905.5 593.79 3883.61 590.81 3884.01 587.77 3905.91 590.76"/><polygon class="cls-6" points="3928.42 420.73 3928.02 423.76 3906.13 420.78 3906.53 417.74 3928.42 420.73"/><path class="cls-7" d="M3896,581.6a4,4,0,0,1-3.4-4.53,4,4,0,0,1,4.46-3.46,4,4,0,0,1,3.41,4.53A4,4,0,0,1,3896,581.6Z"/><path class="cls-7" d="M3914.61,440.9a4,4,0,0,1-3.41-4.53,4,4,0,1,1,3.41,4.53Z"/><path class="cls-7" d="M3896.38,494.38a11,11,0,0,1,7.28,11.84,10.84,10.84,0,0,1-10.1,9.46Z"/><rect class="cls-6" x="3760.39" y="583.52" width="71.5" height="10.26" rx="2.16"/><rect class="cls-7" x="3704.84" y="527.77" width="82.16" height="66" rx="13.88" transform="translate(7491.84 1121.54) rotate(-180)"/><path class="cls-7" d="M3769,528.06s-17-10.84-33.31-11c-10.61-.08-22.7,10.5-23.43,10.61-1.84.29,6.15.39,6.15.39s12-7.07,17.35-7.24c6.49-.2,23,7.82,23,7.82Z"/><rect class="cls-8" x="3696.85" y="527.77" width="82.16" height="66" rx="13.88" transform="translate(7475.86 1121.54) rotate(-180)"/><path class="cls-2" d="M3987.81,703h-91.53V697.3h91.53a17.51,17.51,0,0,0,17.49-17.49V235.63H4011V679.81A23.26,23.26,0,0,1,3987.81,703Z"/><rect class="cls-2" x="3958.04" y="699.64" width="5.74" height="139.54"/><polygon class="cls-4" points="3944.29 839.18 3846.2 839.18 3842.53 757.7 3947.61 757.7 3944.29 839.18"/><rect class="cls-3" x="3838.96" y="757.24" width="110.67" height="3.61" rx="0.76"/><rect class="cls-3" x="3853.49" y="785.06" width="82.94" height="22.36"/><polygon class="cls-8" points="4003.36 839.18 3919.01 839.18 3915.86 736.03 4006.23 736.03 4003.36 839.18"/><rect class="cls-7" x="3912.78" y="733.31" width="95.17" height="7.92"/><rect class="cls-9" x="3925.28" y="770.67" width="71.33" height="28.3"/><path class="cls-8" d="M3583.56,831.78l85.65-15.57v24.18h-86.06S3584,831.37,3583.56,831.78Z"/><rect class="cls-7" x="3669.21" y="816.21" width="58.19" height="24.18"/><rect class="cls-10" x="4018.31" y="473.01" width="7.45" height="29.19" rx="3.67" transform="translate(103.25 1516.01) rotate(-21.62)"/><rect class="cls-10" x="3997.95" y="463.86" width="35.03" height="14.29" rx="4.04" transform="translate(108.9 1512.43) rotate(-21.62)"/><rect class="cls-11" x="3994.65" y="453.73" width="35.02" height="17.9" transform="translate(7912.6 -585.24) rotate(158.38)"/><path class="cls-12" d="M3994.36,464.93s3.5,1.13,7.59-1.71,2.17-5.09,7.09-4.34,9.18-1.42,9.93-3.42,8.6-1.58,8.6-1.58l-2.42-6-32.57,12.9Z"/><path class="cls-13" d="M4027,497.48a1,1,0,1,1-1.79.71,1,1,0,0,1,1.79-.71Z"/><path class="cls-14" d="M4013.32,402.79s-5.44-11.3-9.85-14.81-16.2-2.65-16.65-1.75c-1.4,2.78,9.45,7.11,10.71,9.66s-4,2.29,0,6.72c3.38,3.74,11.45,7.31,11.45,7.31Z"/><path class="cls-6" d="M4008.62,401.5c2.86-4.45,3.72-4.68,3.72-4.68s47.3,18.87,51.81,20.44,72,5.54,72,5.54l20.37,44.77s-89.94-20.51-101.3-24.73c-18.78-7-48.89-34.25-48.89-34.25A14.72,14.72,0,0,1,4008.62,401.5Z"/><path class="cls-15" d="M4126.14,820.08s-1,16.61-4.12,20.51h-47.45c.3-1.65,1.65-5.74,7.58-6.78,7.5-1.3,20-6.57,24.58-16.48C4111.51,806.91,4126.14,820.08,4126.14,820.08Z"/><path class="cls-15" d="M4210.34,817.77s2.95,21.56-1.11,21.94c-.54,0-18,0-24.89,0-8.54-.05-22.16,0-22.16,0a2.23,2.23,0,0,1-2-3.35,9,9,0,0,1,6.44-4.14c7.47-1.44,19.93-6.93,24.29-16.91C4195.49,804.85,4210.34,817.77,4210.34,817.77Z"/><path class="cls-16" d="M4103.83,599.1s11.93,41.74,46.12,114.24,36.83,105.53,36.83,105.53l23.56-1.1s-2.22-86.29-18.37-122.88-19.44-136.7-19.44-136.7Z"/><path class="cls-17" d="M4084.67,563.18s-1,64.64,10.24,144,7.39,113.07,7.39,113.07l26.79.89s16-79.4,11.42-119.13,21.92-136.32,21.92-136.32Z"/><path class="cls-14" d="M4137.53,411.9l-12.64,9.36-18.26-3.85c.26-1.66,1.46-8.56,2.56-14.81.07-.37.13-.74.2-1.1l1.75-9.89,17-8.5,6.36-3.17c0,.11-.49,5.91-.56,6.75C4132.8,401.7,4137.53,411.9,4137.53,411.9Z"/><path class="cls-6" d="M4107.91,407.18c.4-.17,24.84-7.38,27.5-6.5s4.22,6,4.22,6l-37.73,10.75S4102.81,409.33,4107.91,407.18Z"/><path class="cls-7" d="M4173.72,571.16c-4.14,18.89-90.5-40.4-89.35-51.93.12-1.27.25-2.55.38-3.81,1.59-16.06,3.12-31.77,3.23-42a143.7,143.7,0,0,1,2.94-26.25c1.5-7.63,3.34-14.55,4.95-19.94a22,22,0,0,1,12.92-14.16,18.74,18.74,0,0,1,2.14-.75c10.41-3,24.8-6.75,28.7-5.61,10.57,3.11,18.42,21.71,24,45.43C4174,496.51,4176.42,558.84,4173.72,571.16Z"/><path class="cls-18" d="M4132.71,387c-3.74,7.16-17.7,13.36-23.52,15.64.07-.37.13-.74.2-1.1l1.75-9.89,17-8.5C4132,383.05,4134.26,384,4132.71,387Z"/><path class="cls-14" d="M4102.85,390.61s30.77,9.6,36.45-9.65,13.48-31-5.92-37.92-25.41-.73-28.87,5.23S4095,387.62,4102.85,390.61Z"/><path class="cls-19" d="M4105.72,346.42s2,22.4,6.59,21.43,8.84-1.69,8.16,5.06-7.1,14.55,7.18,15.75,34.8-35.63,30.88-42.61C4147.21,325.94,4089.36,321.88,4105.72,346.42Z"/><path class="cls-6" d="M4087,563.18c8.56,3.09-.14-8.5,0-10.92.67-10.62-3.5-24-2.22-36.84L4137,484.19S4149.38,562.68,4087,563.18Z"/><path class="cls-17" d="M4173.72,571.16c-22.3,41.33-25.85,57.11-25.85,57.11-19.41-2.21-52.67-40.37-63.22-50.56,0,0-1.43-47-.28-58.48l16.12-.47s29.14,7.39,36.69-2.63,4.29-59.22,4.29-59.22l22.14-4.79C4174,496.51,4179.7,560.06,4173.72,571.16Z"/><path class="cls-14" d="M4041.4,492s-10.62-7.18-12.63-7.81-3.19-3.74-3.54-4.24c-1.21-1.74-1.79,1.37-1.25,2.52.62,1.34,1.53,3.25-1.42,2.82-.56-.08-5.38-.19-6.38,2s-1.88,9.79,3.21,12.09,17.66.22,18.57.49C4045.64,502.08,4041.4,492,4041.4,492Z"/><path class="cls-8" d="M4041.3,490s51.81,8.8,56.4,6.57c7.33-3.57-2.84-56.14-2.84-56.14s-.44-11.91,13.48-14.72c12.09-2.44,23.76,6.62,23.76,6.62s10.61,9.49,9.25,20c-3,23.35-7.68,70.82-23.29,78.1-20.14,9.39-78.41-26-78.41-26a10.16,10.16,0,0,1-1.66-6.79C4038.23,493.76,4041.3,490,4041.3,490Z"/><path class="cls-17" d="M4145.76,456l-4.29.93s-9.08-39.28-39.57-39.47a21.82,21.82,0,0,1,6.89-4.39C4120,416,4139.37,425.59,4145.76,456Z"/><path class="cls-10" d="M4009.29,391.44l-18,10.69a3.46,3.46,0,0,1-4.75-1.1l0-.09a3.46,3.46,0,0,1,1.3-4.69l18-10.69a3.45,3.45,0,0,1,4.74,1.1l.05.09A3.44,3.44,0,0,1,4009.29,391.44Z"/><path class="cls-10" d="M3990.12,426.53l-24.3-40.9a5.44,5.44,0,0,1,1.88-7.42l2.47-1.46a5.42,5.42,0,0,1,7.41,1.89l24.3,40.9A5.43,5.43,0,0,1,4000,427l-2.47,1.46A5.43,5.43,0,0,1,3990.12,426.53Z"/><polygon class="cls-11" points="3998.77 427.68 3984.03 436.44 3954.2 386.24 3957.23 384.44 3968.93 377.48 3998.77 427.68"/><path class="cls-12" d="M3988.22,433.76l-4.19,2.68-29.83-50.2,3-1.8c1.76,1.26,9.58,7.25,10.17,13.77.67,7.35,9.68,12.27,9.93,16.15s0,9.51,4.76,11.14S3988.22,433.76,3988.22,433.76Z"/><path class="cls-13" d="M4007.14,387.67a.91.91,0,0,1,1.26.32.92.92,0,1,1-1.58.94A.92.92,0,0,1,4007.14,387.67Z"/><path class="cls-14" d="M4001.54,399.51c-.05-.05-2.39-2.87-4.7-5.6-1.69-2-2.74-4.62-3.48-5.39-1.75-1.84-3.23,2.3-.65,7.52a27.4,27.4,0,0,0,7.68,9C4001.8,406,4001.54,399.51,4001.54,399.51Z"/><path class="cls-3" d="M3601.55,661.81a1.41,1.41,0,0,1-.73-1.86l6.25-14.29a2.23,2.23,0,0,0-1.15-2.94L3574.46,629a5.06,5.06,0,0,1-2.6-6.65l4.71-10.77a5.05,5.05,0,0,1,6.65-2.6l13.06,5.71a1.41,1.41,0,0,1-1.13,2.58l-13.06-5.71a2.23,2.23,0,0,0-2.94,1.15l-4.71,10.76a2.25,2.25,0,0,0,1.15,3l31.46,13.76a5,5,0,0,1,2.6,6.65l-6.25,14.29A1.41,1.41,0,0,1,3601.55,661.81Z"/><rect class="cls-20" x="3592.42" y="652.08" width="22.5" height="8.24" rx="2.38" transform="translate(1558.11 3694.74) rotate(-66.37)"/><path class="cls-3" d="M3650.42,633.85,3646,644a5.2,5.2,0,0,1-6.85,2.68l-52.35-22.9a5.2,5.2,0,0,1-2.68-6.85l4.42-10.11a5.21,5.21,0,0,1,6.86-2.69l52.34,22.9A5.21,5.21,0,0,1,3650.42,633.85Z"/><path class="cls-2" d="M3650.42,633.85l-1.53,3.48A5.2,5.2,0,0,1,3642,640l-52.35-22.9a5.2,5.2,0,0,1-2.68-6.85l1.52-3.48a5.21,5.21,0,0,1,6.86-2.69l52.34,22.9A5.21,5.21,0,0,1,3650.42,633.85Z"/><path class="cls-14" d="M3507.38,674.81s11.38,1.65,14,4.62,4.29,5.28,2.64,6.6-26.73-5.12-26.73-5.12Z"/><path class="cls-6" d="M3480,634.56l30.69,39.26s-2.64,5.28-11.22,6.27-26.73-4.62-26.73-6.27S3480,634.56,3480,634.56Z"/><path class="cls-21" d="M3577.11,719.61c-8.92,10.28-27.74,16.93-64.05,18.61q-4.38.21-8.79.34-4.56.13-9.12.2c-9.86.13-19.68,0-29-.29-9.07-.31-17.71-.81-25.54-1.46-15.31-1.27-27.54-3.13-33.85-5.25a12.21,12.21,0,0,1-4-2,7.05,7.05,0,0,1-1.57-2c-2.29-4.25-1.09-11.21,1.67-18.88,4-11.17,11.44-23.83,16.42-31.76,1-1.58,1.9-3,2.65-4.12,1.52-2.33,2.47-3.69,2.47-3.69s17,1.58,40.18,4.59c4.73.61,9.74,1.29,14.9,2,49.93,7.06,99.67,19.75,99.62,36.58C3579.05,715.07,3579.22,717.18,3577.11,719.61Z"/><path class="cls-22" d="M3515.29,738c-3,.09-17.1.7-20.14.74-9.86.13-19.68,0-29-.29l-8.8-35.46C3470.92,722,3510.92,736.79,3515.29,738Z"/><path class="cls-22" d="M3485.89,841h48.39c-.76-1.84-2.6-4.24-7.09-5-7.63-1.34-20.86-5.46-19.16-16.46,1.72-11.16-16.85-12.59-16.85-12.59S3483.46,836.75,3485.89,841Z"/><path class="cls-21" d="M3577.9,717.78s-60,94.45-65,105.68c0,0-20.43,1.9-25.35-12.69,0,0,35.69-99.68,51.38-107.89S3577.9,717.78,3577.9,717.78Z"/><path class="cls-14" d="M3456.82,518.93s20.68,28.29,39.1,29.81c0,0-2.35-10.65-7.79-17.37,1.46-2.36,2.73-4.52,3.82-6.44a106.27,106.27,0,0,0,5.23-10.25l-8.48-15.33L3487,491.1a55.75,55.75,0,0,1-5,10.39A39.29,39.29,0,0,1,3456.82,518.93Z"/><path class="cls-23" d="M3481.16,501.34s-3,14.17,10.79,23.59a106.27,106.27,0,0,0,5.23-10.25l-8.48-15.33C3481.93,498.34,3481.16,501.34,3481.16,501.34Z"/><path class="cls-14" d="M3499.76,523.23s-25.94-14.13-16.89-30.14,11.79-28.63,28.73-20.28,16.68,16.25,15,22.33S3506.74,526.49,3499.76,523.23Z"/><path class="cls-19" d="M3483,461.2c-.14-.4-.64-.87-1.95-1.46a5.68,5.68,0,0,1,2.77.25c1-1.77,3.27-4.72,6.77-4.3a4.37,4.37,0,0,0-3.07,2.18c5.18-2.42,14.16-2.17,35.37,8,28,13.45,11.2,28.54,6.61,29.33s-11.63-9-18.81-11.09-12.44,7.57-15.34,8.06-1-1.63-3.65-4.33-5,2.56-5.43,6.41-6.6,6.76-6.6,6.76l-2.56-6.56c-2.56-6.56,1.2-28.72,4.9-32.32Z"/><path class="cls-16" d="M3328.12,810.11s-6,9.16-7.43,12.12,1.35,9.28,5.48,10.23c3.65.84,4.2,7.31,4.2,7.31h-17.69a4.66,4.66,0,0,1-4.28-2.62c-2.49-5.49-3.06-12.62-3.57-15-1-5-3.14-9.23-2.22-14.35s9.63-8,25.51-8C3345.57,799.85,3328.12,810.11,3328.12,810.11Z"/><path class="cls-7" d="M3380.12,699.72c13.33,14.13,111.26-15.1,103.05-22.55-2.09-1.89-1.37-4.17-2.22-7.22-4.06-14.45,4-39.19,7.49-48.78.81-2.22,1.37-3.62,1.48-3.91a167.68,167.68,0,0,0,7.54-27.27c3.23-17.28,3.17-33.35-1.24-43.2,0,0,0-.09-.07-.13-18.35-5.36-28.45-32.35-28.45-32.35s-58.11,16.5-79.2,99.43c0,0-1.09,5.29-2.44,13.22h0c-.41,2.44-.85,5.12-1.28,8-2.25,14.75-3.56,33.67-4.9,47.76q-.08.74-.15,1.5C3379.06,690.28,3377.9,697.37,3380.12,699.72Z"/><path class="cls-21" d="M3457.23,685.7s-9.76,1.28-29.45,2.73c-20.41,1.52-42,4.73-45.55,11.59-1.16,2.27-.35,8,1.93,16,5,17.54,17.22,45.79,31.14,70.84-35.76,2.07-84.42,10-84.42,10a21.43,21.43,0,0,0-4.63,19.54c2.55,0,10.23,1.1,20.7,2.79,38,6.11,84.17,18.67,112.84,18.67,6.26,0,10.95-4.45,12.86-10.27h0C3484.43,791.65,3457.23,685.7,3457.23,685.7Z"/><path class="cls-22" d="M3384.16,718.63c19.74-.62,69.25-24.93,68.44-25.13a241,241,0,0,0-24.82-4.83c-20.41,1.65-42,5.15-45.55,12.6C3381.07,703.75,3381.88,710,3384.16,718.63Z"/><path class="cls-6" d="M3447.55,571s1.15,89.82,33.4,99c-4.06-14.45,4-39.19,7.49-48.78C3480.13,598.07,3464.83,574.77,3447.55,571Z"/><path class="cls-21" d="M3458,518.35s24.84,5.17,27.26,26.94c1.77,15.85-15.56,51.75-15.56,51.75l-3.3-3.3s15.21-44.32,12.87-51.86c-3-9.67-17.28-24.14-30.42-18.36Z"/><path class="cls-21" d="M3380.12,699.72c13.33,14.13,113.37-14.79,105.16-22.24A15.58,15.58,0,0,1,3481,670c-4.06-14.45,4-39.19,7.49-48.78.81-2.22,1.37-3.62,1.48-3.91l-5.06-5-18.51-18.48A91,91,0,0,1,3450.53,607a114.33,114.33,0,0,1-64.47,20h0c-.41,2.44-.85,5.12-1.28,8-2.25,14.75-3.56,33.67-4.9,47.76q-.08.74-.15,1.5C3379.06,690.28,3377.9,697.37,3380.12,699.72Z"/><path class="cls-22" d="M3450.53,607c3.7,26.11,12,57.71,30.42,63-4.06-14.45,4-39.19,7.49-48.78-1.08-3-2.27-6-3.58-8.95l-18.51-18.48A91,91,0,0,1,3450.53,607Z"/><path class="cls-14" d="M3601.73,666.07c-6,0-17.3-5.52-18.32-5.61-8.61-.83-.31-9.31-.31-9.31s13.54-3,15.82-2.8a25.51,25.51,0,0,1,3.3.63l-1.45,3.48s9.43,1.43,9.55,4.06S3604.7,666.07,3601.73,666.07Z"/><path class="cls-8" d="M3585.76,655.35c2.08-6-.81-7.88-.81-7.88s-59.13-28-64-31.12-37.34-62.3-37.34-62.3-12-24.2-27.4-23.72c-13.33.43-20.75,8.74-24.86,17.46a27.94,27.94,0,0,0,5.06,31.07c17.7,18.74,53.26,55.83,62.47,61.47,20.5,12.53,81.94,22.67,81.94,22.67A20,20,0,0,0,3585.76,655.35Z"/><path class="cls-24" d="M3862.39,799.77c-4.95,22.19-21.77,39.93-37.57,39.62s-24.62-18.56-19.67-40.75,21.76-39.93,37.57-39.62S3867.33,777.58,3862.39,799.77Z"/><path class="cls-3" d="M3858.83,799c-4.94,22.19-21.76,39.93-37.57,39.62s-24.61-18.56-19.66-40.75,21.76-39.93,37.57-39.62S3863.78,776.76,3858.83,799Z"/><path class="cls-24" d="M3822.79,832.76h-.36a16.17,16.17,0,0,1-12.72-6.47c-5.18-6.6-6.78-17.27-4.26-28.56,4.23-19,18.71-34.27,32.27-34a16.2,16.2,0,0,1,12.73,6.47c5.18,6.6,6.77,17.28,4.26,28.56C3850.51,817.61,3836.25,832.76,3822.79,832.76Zm14.58-68.61c-13.28,0-27.37,15-31.52,33.66-2.49,11.17-.93,21.72,4.18,28.22a15.77,15.77,0,0,0,12.41,6.31h.35c13.28,0,27.36-15,31.52-33.67,2.49-11.16.92-21.71-4.18-28.21a15.8,15.8,0,0,0-12.42-6.32Z"/><path class="cls-1" d="M20.69,843.3l390.94-.12,603.21-.18s70.35-118.28,6.15-278.08c-41.86-104.17-126.47-181-271.74-134-29.92,9.68-76.73,3.5-136.91-36.48q-4.58-3-9.11-6.36-2.47-1.82-4.92-3.7A239.58,239.58,0,0,1,542.85,324a187.21,187.21,0,0,0-31.74-37.46A198.07,198.07,0,0,0,487.21,268q-8.07-5.34-16.64-9.92A238.71,238.71,0,0,0,422,238.72q-2.49-.69-5-1.34-5.83-1.51-11.77-2.77c-2.71-.57-5.44-1.11-8.18-1.6q-5-.91-10.13-1.65h0c-9.25-1.33-18.64-2.23-28.11-2.71-1.8-.09-3.6-.17-5.4-.23l-3.44-.09q-5.3-.12-10.6-.06c-88.25.89-180.58,37.54-236.81,103.52C74.26,365,55.1,405.66,50.24,452.93A244.59,244.59,0,0,0,51,508c.07.59.14,1.16.22,1.74.11.93.24,1.87.38,2.8q.72,5.29,1.69,10.67c1.43,8,2.39,16.3,5.42,24.28C121.18,712.71-58.89,698,20.69,843.3Z"/><rect class="cls-2" x="574.34" y="636.23" width="32.2" height="185.71" rx="6.77" transform="translate(1180.87 1458.18) rotate(-180)"/><rect class="cls-2" x="530.45" y="636.23" width="32.2" height="185.71" rx="6.77" transform="translate(1093.1 1458.18) rotate(-180)"/><rect class="cls-2" x="486.56" y="636.23" width="32.2" height="185.71" rx="6.77" transform="translate(1005.33 1458.18) rotate(-180)"/><rect class="cls-2" x="442.68" y="636.23" width="32.2" height="185.71" rx="6.77" transform="translate(917.56 1458.18) rotate(-180)"/><rect class="cls-2" x="398.79" y="636.23" width="32.2" height="185.71" rx="6.77" transform="translate(829.78 1458.18) rotate(180)"/><rect class="cls-2" x="354.91" y="636.23" width="32.2" height="185.71" rx="6.77" transform="translate(742.01 1458.18) rotate(-180)"/><path class="cls-2" d="M350,228.33v371.3H603.23V388.05q-2.47-1.82-4.92-3.7A239.58,239.58,0,0,1,542.85,324a187.21,187.21,0,0,0-31.74-37.46A198.07,198.07,0,0,0,487.21,268q-8.07-5.34-16.64-9.92A238.71,238.71,0,0,0,422,238.72q-2.49-.69-5-1.34-5.83-1.51-11.77-2.77c-2.71-.57-5.44-1.11-8.18-1.6q-5-.91-10.13-1.65h0c-9.25-1.33-18.64-2.23-28.11-2.71-1.8-.09-3.6-.17-5.4-.23Z"/><path class="cls-3" d="M339.38,228.27V608.69h273V394.41q-4.58-3-9.11-6.36-2.47-1.82-4.92-3.7V593.68H353.42V228.42l-3.44-.09Q344.68,228.21,339.38,228.27Z"/><path class="cls-3" d="M324.17,595.54H626.62a0,0,0,0,1,0,0v8.2a5.71,5.71,0,0,1-5.71,5.71H330a5.85,5.85,0,0,1-5.85-5.85v-8.06A0,0,0,0,1,324.17,595.54Z" transform="translate(950.79 1204.99) rotate(-180)"/><path class="cls-3" d="M470.57,258.07V598.33h16.64V268Q479.14,262.65,470.57,258.07Z"/><path class="cls-4" d="M476.16,426.74h1.34a1.67,1.67,0,0,0,1.66-1.64l.59-19.13a1.67,1.67,0,0,0-1.66-1.74h-2.57a1.68,1.68,0,0,0-1.66,1.75l.64,19.12A1.67,1.67,0,0,0,476.16,426.74Z"/><polygon class="cls-5" points="375.24 419.26 353.34 422.24 376.06 593.79 397.95 590.8 375.24 419.26"/><polygon class="cls-6" points="375.66 590.76 376.06 593.79 397.95 590.81 397.55 587.77 375.66 590.76"/><polygon class="cls-6" points="353.14 420.73 353.55 423.76 375.44 420.78 375.04 417.74 353.14 420.73"/><path class="cls-7" d="M385.59,581.6a4,4,0,0,0,3.41-4.53,4,4,0,0,0-4.47-3.46,4,4,0,0,0-3.41,4.53A4,4,0,0,0,385.59,581.6Z"/><path class="cls-7" d="M367,440.9a4,4,0,0,0,3.41-4.53,4,4,0,0,0-4.47-3.46,4,4,0,0,0-3.41,4.53A4,4,0,0,0,367,440.9Z"/><path class="cls-7" d="M385.18,494.38a11,11,0,0,0-7.27,11.84,10.83,10.83,0,0,0,10.1,9.46Z"/><rect class="cls-6" x="449.68" y="583.52" width="71.5" height="10.26" rx="2.16" transform="translate(970.86 1177.3) rotate(180)"/><rect class="cls-7" x="494.57" y="527.77" width="82.16" height="66" rx="13.88"/><path class="cls-7" d="M512.54,528.06s17-10.84,33.31-11c10.61-.08,22.7,10.5,23.42,10.61,1.85.29-6.14.39-6.14.39s-12-7.07-17.35-7.24c-6.49-.2-23,7.82-23,7.82Z"/><rect class="cls-8" x="502.56" y="527.77" width="82.16" height="66" rx="13.88"/><path class="cls-2" d="M293.76,703h91.53V697.3H293.76a17.5,17.5,0,0,1-17.49-17.49V235.63h-5.74V679.81A23.26,23.26,0,0,0,293.76,703Z"/><rect class="cls-2" x="317.79" y="699.64" width="5.74" height="139.54"/><polygon class="cls-4" points="337.28 839.18 435.37 839.18 439.03 757.7 333.95 757.7 337.28 839.18"/><rect class="cls-3" x="331.94" y="757.24" width="110.67" height="3.61" rx="0.76" transform="translate(774.55 1518.09) rotate(-180)"/><rect class="cls-3" x="345.13" y="785.06" width="82.94" height="22.36" transform="translate(773.21 1592.48) rotate(-180)"/><polygon class="cls-8" points="278.2 839.18 362.56 839.18 365.71 736.03 275.34 736.03 278.2 839.18"/><rect class="cls-7" x="273.61" y="733.31" width="95.17" height="7.92" transform="translate(642.39 1474.55) rotate(-180)"/><rect class="cls-9" x="284.95" y="770.67" width="71.33" height="28.3" transform="translate(641.24 1569.64) rotate(-180)"/><path class="cls-8" d="M698,831.78l-85.65-15.57v24.18h86.06S697.6,831.37,698,831.78Z"/><rect class="cls-7" x="554.16" y="816.21" width="58.19" height="24.18" transform="translate(1166.51 1656.6) rotate(-180)"/><rect class="cls-10" x="244.93" y="483.88" width="29.19" height="7.45" rx="3.67" transform="translate(-289.39 549.25) rotate(-68.38)"/><rect class="cls-10" x="258.96" y="453.49" width="14.29" height="35.03" rx="4.04" transform="translate(-269.8 544.87) rotate(-68.38)"/><rect class="cls-11" x="251.89" y="453.73" width="35.02" height="17.9" transform="translate(189.4 -66.71) rotate(21.62)"/><path class="cls-12" d="M287.21,464.93s-3.51,1.13-7.59-1.71-2.17-5.09-7.1-4.34-9.18-1.42-9.93-3.42-8.59-1.58-8.59-1.58l2.42-6L289,460.81Z"/><path class="cls-13" d="M254.58,497.48a1,1,0,1,0,1.25-.54A1,1,0,0,0,254.58,497.48Z"/><path class="cls-14" d="M268.24,402.79s5.44-11.3,9.86-14.81,16.2-2.65,16.65-1.75c1.4,2.78-9.46,7.11-10.71,9.66s3.95,2.29-.05,6.72c-3.37,3.74-11.45,7.31-11.45,7.31Z"/><path class="cls-6" d="M272.94,401.5c-2.86-4.45-3.71-4.68-3.71-4.68s-47.3,18.87-51.82,20.44-72,5.54-72,5.54L125,467.57s89.94-20.51,101.3-24.73c18.77-7,48.88-34.25,48.88-34.25A14.72,14.72,0,0,0,272.94,401.5Z"/><path class="cls-15" d="M155.43,820.08s1,16.61,4.11,20.51H207c-.3-1.65-1.64-5.74-7.57-6.78-7.5-1.3-20-6.57-24.59-16.48C170.05,806.91,155.43,820.08,155.43,820.08Z"/><path class="cls-15" d="M71.23,817.77s-3,21.56,1.1,21.94c.54,0,18,0,24.9,0,8.53-.05,22.16,0,22.16,0a2.23,2.23,0,0,0,2-3.35,9,9,0,0,0-6.45-4.14c-7.47-1.44-19.92-6.93-24.29-16.91C86.08,804.85,71.23,817.77,71.23,817.77Z"/><path class="cls-16" d="M177.74,599.1s-11.93,41.74-46.12,114.24S94.78,818.87,94.78,818.87l-23.55-1.1s2.21-86.29,18.36-122.88S109,558.19,109,558.19Z"/><path class="cls-17" d="M196.89,563.18s1,64.64-10.23,144-7.39,113.07-7.39,113.07l-26.79.89s-16-79.4-11.42-119.13S119.14,565.7,119.14,565.7Z"/><path class="cls-14" d="M144,411.9l12.63,9.36,18.26-3.85c-.25-1.66-1.46-8.56-2.55-14.81-.07-.37-.14-.74-.2-1.1l-1.75-9.89-17.06-8.5L147,379.94c0,.11.5,5.91.56,6.75C148.77,401.7,144,411.9,144,411.9Z"/><path class="cls-6" d="M173.65,407.18c-.4-.17-24.84-7.38-27.49-6.5s-4.23,6-4.23,6l37.73,10.75S178.76,409.33,173.65,407.18Z"/><path class="cls-7" d="M107.85,571.16c4.13,18.89,90.5-40.4,89.35-51.93-.13-1.27-.26-2.55-.38-3.81-1.6-16.06-3.12-31.77-3.23-42a144.59,144.59,0,0,0-2.94-26.25c-1.5-7.63-3.35-14.55-5-19.94a21.93,21.93,0,0,0-6-9.77,21.6,21.6,0,0,0-6.89-4.39,17.48,17.48,0,0,0-2.14-.75c-10.4-3-24.79-6.75-28.7-5.61-10.57,3.11-18.42,21.71-24,45.43C107.55,496.51,105.15,558.84,107.85,571.16Z"/><path class="cls-18" d="M148.85,387c3.75,7.16,17.7,13.36,23.53,15.64-.07-.37-.14-.74-.2-1.1l-1.75-9.89-17.06-8.5C149.6,383.05,147.31,384,148.85,387Z"/><path class="cls-14" d="M178.72,390.61S148,400.21,142.27,381s-13.48-31,5.92-37.92,25.41-.73,28.87,5.23S186.57,387.62,178.72,390.61Z"/><path class="cls-19" d="M175.85,346.42s-2,22.4-6.6,21.43-8.83-1.69-8.15,5.06,7.1,14.55-7.18,15.75S119.11,353,123,346.05C134.35,325.94,192.21,321.88,175.85,346.42Z"/><path class="cls-6" d="M194.59,563.18c-8.55,3.09.15-8.5,0-10.92-.66-10.62,3.5-24,2.23-36.84l-52.24-31.23S132.19,562.68,194.59,563.18Z"/><path class="cls-17" d="M107.85,571.16c22.3,41.33,25.85,57.11,25.85,57.11,19.41-2.21,52.66-40.37,63.21-50.56,0,0,1.44-47,.29-58.48l-16.12-.47s-29.14,7.39-36.7-2.63-4.28-59.22-4.28-59.22L118,452.12C107.55,496.51,101.86,560.06,107.85,571.16Z"/><path class="cls-14" d="M240.17,492s10.61-7.18,12.63-7.81,3.19-3.74,3.53-4.24c1.21-1.74,1.8,1.37,1.26,2.52-.63,1.34-1.54,3.25,1.41,2.82.57-.08,5.39-.19,6.39,2s1.88,9.79-3.21,12.09-17.66.22-18.57.49C235.92,502.08,240.17,492,240.17,492Z"/><path class="cls-8" d="M240.26,490s-51.8,8.8-56.4,6.57c-7.32-3.57,2.85-56.14,2.85-56.14s.43-11.91-13.48-14.72c-12.09-2.44-23.76,6.62-23.76,6.62s-10.61,9.49-9.26,20c3,23.35,7.68,70.82,23.3,78.1,20.13,9.39,78.41-26,78.41-26a10.16,10.16,0,0,0,1.66-6.79C243.34,493.76,240.26,490,240.26,490Z"/><path class="cls-17" d="M135.8,456l4.3.93s9.07-39.28,39.56-39.47a21.6,21.6,0,0,0-6.89-4.39C161.6,416,142.2,425.59,135.8,456Z"/><path class="cls-10" d="M272.27,391.44l18,10.69A3.46,3.46,0,0,0,295,401l.05-.09a3.45,3.45,0,0,0-1.3-4.69l-18-10.69a3.46,3.46,0,0,0-4.75,1.1l0,.09A3.45,3.45,0,0,0,272.27,391.44Z"/><path class="cls-10" d="M291.44,426.53l24.31-40.9a5.43,5.43,0,0,0-1.89-7.42l-2.46-1.46a5.42,5.42,0,0,0-7.41,1.89l-24.31,40.9a5.42,5.42,0,0,0,1.89,7.41l2.46,1.46A5.43,5.43,0,0,0,291.44,426.53Z"/><polygon class="cls-11" points="282.8 427.68 297.54 436.44 327.37 386.24 324.33 384.44 312.63 377.48 282.8 427.68"/><path class="cls-12" d="M293.34,433.76l4.2,2.68,29.83-50.2-3-1.8c-1.75,1.26-9.57,7.25-10.17,13.77-.66,7.35-9.68,12.27-9.93,16.15s0,9.51-4.75,11.14S293.34,433.76,293.34,433.76Z"/><path class="cls-13" d="M274.43,387.67a.93.93,0,1,0,.32,1.26A.93.93,0,0,0,274.43,387.67Z"/><path class="cls-14" d="M280,399.51c.06-.05,2.4-2.87,4.7-5.6,1.7-2,2.75-4.62,3.49-5.39,1.75-1.84,3.23,2.3.65,7.52a27.4,27.4,0,0,1-7.68,9C279.76,406,280,399.51,280,399.51Z"/><path class="cls-3" d="M680,661.81a1.4,1.4,0,0,0,.72-1.86l-6.25-14.29a2.24,2.24,0,0,1,1.16-2.94L707.1,629a5.05,5.05,0,0,0,2.6-6.65L705,611.54a5.06,5.06,0,0,0-6.66-2.6l-13.05,5.71a1.41,1.41,0,1,0,1.13,2.58l13.05-5.71a2.25,2.25,0,0,1,2.95,1.15l4.71,10.76a2.25,2.25,0,0,1-1.16,3l-31.45,13.76a5.06,5.06,0,0,0-2.61,6.65l6.26,14.29A1.41,1.41,0,0,0,680,661.81Z"/><rect class="cls-20" x="673.78" y="644.96" width="8.24" height="22.5" rx="2.38" transform="translate(-206.18 326.72) rotate(-23.63)"/><path class="cls-3" d="M631.15,633.85,635.57,644a5.21,5.21,0,0,0,6.86,2.68l52.34-22.9a5.2,5.2,0,0,0,2.69-6.85L693,606.78a5.2,5.2,0,0,0-6.85-2.69L633.83,627A5.21,5.21,0,0,0,631.15,633.85Z"/><path class="cls-2" d="M631.15,633.85l1.52,3.48a5.21,5.21,0,0,0,6.86,2.68l52.34-22.9a5.21,5.21,0,0,0,2.69-6.85L693,606.78a5.2,5.2,0,0,0-6.85-2.69L633.83,627A5.21,5.21,0,0,0,631.15,633.85Z"/><path class="cls-14" d="M774.19,674.81s-11.38,1.65-14,4.62-4.29,5.28-2.64,6.6,26.72-5.12,26.72-5.12Z"/><path class="cls-6" d="M801.57,634.56l-30.68,39.26s2.64,5.28,11.22,6.27,26.72-4.62,26.72-6.27S801.57,634.56,801.57,634.56Z"/><path class="cls-21" d="M704.45,719.61c8.93,10.28,27.75,16.93,64.06,18.61,2.91.14,5.85.25,8.79.34s6.07.16,9.11.2c9.87.13,19.69,0,29.05-.29,9.07-.31,17.71-.81,25.54-1.46,15.31-1.27,27.53-3.13,33.85-5.25a12,12,0,0,0,4-2,6.88,6.88,0,0,0,1.57-2c2.3-4.25,1.1-11.21-1.67-18.88-4-11.17-11.44-23.83-16.42-31.76-1-1.58-1.89-3-2.65-4.12-1.52-2.33-2.46-3.69-2.46-3.69s-17,1.58-40.18,4.59c-4.74.61-9.74,1.29-14.91,2-49.92,7.06-99.67,19.75-99.62,36.58C702.52,715.07,702.35,717.18,704.45,719.61Z"/><path class="cls-22" d="M766.27,738c3,.09,17.1.7,20.14.74,9.87.13,19.69,0,29.05-.29L824.25,703C810.65,722,770.65,736.79,766.27,738Z"/><path class="cls-22" d="M795.68,841h-48.4c.76-1.84,2.61-4.24,7.1-5,7.62-1.34,20.86-5.46,19.16-16.46-1.72-11.16,16.84-12.59,16.84-12.59S798.11,836.75,795.68,841Z"/><path class="cls-21" d="M703.67,717.78s60,94.45,65,105.68c0,0,20.43,1.9,25.34-12.69,0,0-35.69-99.68-51.37-107.89S703.67,717.78,703.67,717.78Z"/><path class="cls-14" d="M824.74,518.93s-20.67,28.29-39.1,29.81c0,0,2.36-10.65,7.79-17.37-1.46-2.36-2.73-4.52-3.82-6.44a107.27,107.27,0,0,1-5.22-10.25l8.47-15.33,1.75-8.25a55.76,55.76,0,0,0,5,10.39A39.26,39.26,0,0,0,824.74,518.93Z"/><path class="cls-23" d="M800.4,501.34s3,14.17-10.79,23.59a107.27,107.27,0,0,1-5.22-10.25l8.47-15.33C799.64,498.34,800.4,501.34,800.4,501.34Z"/><path class="cls-14" d="M781.81,523.23s25.93-14.13,16.88-30.14S786.9,464.46,770,472.81s-16.68,16.25-15,22.33S774.83,526.49,781.81,523.23Z"/><path class="cls-19" d="M798.6,461.2c.15-.4.65-.87,1.95-1.46a5.64,5.64,0,0,0-2.76.25c-1-1.77-3.27-4.72-6.77-4.3a4.34,4.34,0,0,1,3.06,2.18c-5.17-2.42-14.16-2.17-35.37,8-28,13.45-11.2,28.54-6.6,29.33s11.63-9,18.8-11.09,12.45,7.57,15.35,8.06,1-1.63,3.64-4.33,5,2.56,5.44,6.41,6.59,6.76,6.59,6.76l2.56-6.56c2.57-6.56-1.19-28.72-4.9-32.32Z"/><path class="cls-16" d="M953.44,810.11s6,9.16,7.44,12.12-1.35,9.28-5.49,10.23c-3.65.84-4.19,7.31-4.19,7.31h17.68a4.67,4.67,0,0,0,4.29-2.62c2.49-5.49,3.06-12.62,3.56-15,1.06-5,3.15-9.23,2.22-14.35s-9.63-8-25.51-8C936,799.85,953.44,810.11,953.44,810.11Z"/><path class="cls-7" d="M901.45,699.72c-13.34,14.13-111.26-15.1-103.06-22.55,2.09-1.89,1.38-4.17,2.23-7.22,4.06-14.45-4-39.19-7.5-48.78-.81-2.22-1.37-3.62-1.47-3.91A168.74,168.74,0,0,1,784.1,590c-3.23-17.28-3.17-33.35,1.25-43.2,0,0,0-.09.07-.13,18.34-5.36,28.44-32.35,28.44-32.35s58.12,16.5,79.21,99.43c0,0,1.09,5.29,2.43,13.22h0c.41,2.44.84,5.12,1.28,8,2.25,14.75,3.56,33.67,4.89,47.76.06.49.1,1,.15,1.5C902.5,690.28,903.67,697.37,901.45,699.72Z"/><path class="cls-21" d="M824.34,685.7s9.76,1.28,29.45,2.73c20.4,1.52,42,4.73,45.54,11.59,1.17,2.27.36,8-1.92,16-5,17.54-17.23,45.79-31.15,70.84,35.77,2.07,84.43,10,84.43,10a21.41,21.41,0,0,1,4.62,19.54c-2.55,0-10.22,1.1-20.7,2.79-38,6.11-84.17,18.67-112.83,18.67-6.27,0-11-4.45-12.87-10.27h0C797.14,791.65,824.34,685.7,824.34,685.7Z"/><path class="cls-22" d="M897.41,718.63C877.67,718,828.15,693.7,829,693.5a241.17,241.17,0,0,1,24.83-4.83c20.4,1.65,42,5.15,45.54,12.6C900.5,703.75,899.69,710,897.41,718.63Z"/><path class="cls-6" d="M834,571s-1.15,89.82-33.4,99c4.06-14.45-4-39.19-7.5-48.78C801.43,598.07,816.74,574.77,834,571Z"/><path class="cls-21" d="M823.61,518.35s-24.84,5.17-27.27,26.94C794.58,561.14,811.91,597,811.91,597l3.3-3.3S800,549.42,802.34,541.88c3-9.67,17.28-24.14,30.41-18.36Z"/><path class="cls-21" d="M901.45,699.72c-13.34,14.13-113.37-14.79-105.17-22.24a15.52,15.52,0,0,0,4.34-7.53c4.06-14.45-4-39.19-7.5-48.78-.81-2.22-1.37-3.62-1.47-3.91l5.05-5,18.51-18.48A91.38,91.38,0,0,0,831,607a114.29,114.29,0,0,0,64.46,20h0c.41,2.44.84,5.12,1.28,8,2.25,14.75,3.56,33.67,4.89,47.76.06.49.1,1,.15,1.5C902.5,690.28,903.67,697.37,901.45,699.72Z"/><path class="cls-22" d="M831,607c-3.71,26.11-12,57.71-30.42,63,4.06-14.45-4-39.19-7.5-48.78,1.08-3,2.28-6,3.58-8.95l18.51-18.48A91.38,91.38,0,0,0,831,607Z"/><path class="cls-14" d="M679.83,666.07c6,0,17.31-5.52,18.32-5.61,8.62-.83.31-9.31.31-9.31s-13.54-3-15.81-2.8a25.92,25.92,0,0,0-3.31.63l1.46,3.48s-9.44,1.43-9.56,4.06S676.86,666.07,679.83,666.07Z"/><path class="cls-8" d="M695.8,655.35c-2.07-6,.82-7.88.82-7.88s59.13-28,64-31.12,37.35-62.3,37.35-62.3,12.05-24.2,27.39-23.72c13.34.43,20.75,8.74,24.86,17.46a27.93,27.93,0,0,1-5,31.07c-17.71,18.74-53.26,55.83-62.47,61.47C762.15,652.86,700.72,663,700.72,663A20,20,0,0,1,695.8,655.35Z"/><path class="cls-24" d="M419.18,799.77c4.94,22.19,21.76,39.93,37.57,39.62s24.61-18.56,19.67-40.75S454.65,758.71,438.85,759,414.24,777.58,419.18,799.77Z"/><path class="cls-3" d="M422.73,799c4.94,22.19,21.76,39.93,37.57,39.62S484.91,820,480,797.82s-21.76-39.93-37.57-39.62S417.79,776.76,422.73,799Z"/><path class="cls-24" d="M426.86,798.77c-2.52-11.28-.92-22,4.26-28.56a16.2,16.2,0,0,1,12.72-6.47c13.57-.29,28.05,15,32.28,34,2.51,11.29.92,22-4.26,28.56a16.17,16.17,0,0,1-12.73,6.47h-.35C445.32,832.76,431.05,817.61,426.86,798.77Zm17-34.62a15.78,15.78,0,0,0-12.41,6.32c-5.11,6.5-6.67,17-4.18,28.21,4.15,18.67,18.24,33.67,31.52,33.67h.34A15.77,15.77,0,0,0,471.53,826c5.11-6.5,6.68-17,4.19-28.22-4.16-18.66-18.24-33.66-31.52-33.66Z"/><rect class="cls-25" x="0.84" y="841.61" width="4280.72" height="1.68" rx="0.84"/><rect class="cls-26" width="4281.57" height="843.3"/></g></g></svg>