<svg id="Layer_1" data-name="Layer 1" xmlns="http://www.w3.org/2000/svg" viewBox="0 0 500 500"><defs><style>.cls-1{fill:#fff;}.cls-2{fill:#231f20;}</style></defs><circle class="cls-1" cx="250" cy="250" r="200"/><path class="cls-2" d="M328.73,215.22a5.91,5.91,0,0,1,5,2.63c1.8,2.64,1.65,6.39-.3,7.72-7.46,5.07-7.77,12.42-8,17.78a25.25,25.25,0,0,1-.7,6,6.62,6.62,0,0,0-.22,2.88l-1.17.35-.64.1-1,.18a10.28,10.28,0,0,0,2.09-5.69c.16-1.63.46-3.3.78-5.07,1.11-6.13,2.36-13.08-2.1-20.57a2.2,2.2,0,0,1,0-1.69,7.19,7.19,0,0,1,3.68-4.08,6.29,6.29,0,0,1,2.64-.58m-68.55,23.44c1.25,0,5.36.33,5.9,4.59,1.06,8.24,6.44,12.91,10.77,16.67a39.8,39.8,0,0,1,4.9,4.76,6.26,6.26,0,0,0,4.94,2.51,7.13,7.13,0,0,0,5.39-2.88l.15-.18c7.18-5.59,14.38-8.3,22-8.3h.21a12.57,12.57,0,0,0,2.34-.21,7.41,7.41,0,0,0-1.3,2.54,7,7,0,0,0,2.53,7.92l4.07,6.05c2.48,3.69,5.79,5.56,9.83,5.56a22.22,22.22,0,0,0,4.35-.53l6.84-1.38-3.51-6a13.71,13.71,0,0,0-1.7-2.36,6.66,6.66,0,0,0,1.58-2.87,6.45,6.45,0,0,0,.23-1.74,36.13,36.13,0,0,1,9.1,9.31c.74,1.08,3,4.37,7,4.37a10,10,0,0,0,5.51-2c1-.68,2.09-1.31,3.23-2,4.51-2.64,10.11-5.94,12.65-13.4.41-1.2,2.21-1.73,3.81-1.73a7.63,7.63,0,0,1,3.33.75c2.46,1.21,3.82,5,2.85,7.9a6.34,6.34,0,0,1-5.42,4,3.46,3.46,0,0,1-.92-.13,16.91,16.91,0,0,0-4.71-.7c-5.58,0-9.64,3-12.9,5.37a23.06,23.06,0,0,1-4.78,3c-2.11.83-5.19,3.65-3.35,9,1,2.88.82,6.18.64,9.68,0,.75-.08,1.49-.11,2.24-.29,7.62,4.8,9.57,7.86,10.05l4.67.72c4.45.68,9.05,1.37,13.46,2.29a10.63,10.63,0,0,0,2.16.22,12.74,12.74,0,0,0,5.55-1.45l.82-.37a8.21,8.21,0,0,1,3.15-.68,5.65,5.65,0,0,1,5.24,3.4,6.08,6.08,0,0,1-5.4,9,6,6,0,0,1-5.23-3c-2.25-3.82-5.06-5.76-9.73-6.68l-.35-.07c-6.87-1.35-11.41-2.25-15.26-2.25-9.29,0-13.1,5-21.44,16.07l-.16.19c-3.75,4.78-.41,8.31.29,9a25.47,25.47,0,0,1,3.23,4.1c2.46,3.59,5.52,8,11.72,9.78a5.37,5.37,0,0,1,3.27,2.61,6,6,0,0,1,.54,4.55,6.1,6.1,0,0,1-6,4.75,8,8,0,0,1-1.66-.18,6,6,0,0,1-3.82-2.84,5,5,0,0,1-.52-4.11c2.1-6.7-1.54-10.65-3.71-13a13.51,13.51,0,0,1-1.5-1.8c-1.16-2-4.26-7.17-10.65-7.18a14.62,14.62,0,0,0-5.71,1.28,20.84,20.84,0,0,1-8.27,1.5,40.39,40.39,0,0,1-6.76-.63,14,14,0,0,0-2.47-.23c-4.31,0-7.22,2.39-8.64,7.1a52.68,52.68,0,0,1-1.93,5.05c-.33.78-.66,1.57-1,2.36l-.31.78c-2.19,5.43-4.91,12.19,1.1,20.32a5,5,0,0,1,.61,4.25,10.3,10.3,0,0,1-5.21,6.47,9.33,9.33,0,0,1-4.1.95,9.23,9.23,0,0,1-8.29-5.05,9.64,9.64,0,0,1-.45-7.59,6.85,6.85,0,0,1,3.69-4.09c5.87-2.47,8-6.69,9.82-10.42l.43-.85c3.3-6.56,6-13.56,3.8-20.29-1.54-4.59-5.26-8.36-11-11.21a3.46,3.46,0,0,1-1.19-1.41,22.77,22.77,0,0,0-2.32-4.3c5.69,5.64,11.73,8.27,18.94,8.27.67,0,1.37,0,2.08-.07l.83-.05,5,2.16a23.19,23.19,0,0,0,9.41,2.29,18.19,18.19,0,0,0,10-3.17l9.05-5.8L329,315.92a28.89,28.89,0,0,0-8.76-1.54h0a6.91,6.91,0,0,0,.81-4c-.09-1.15-.9-6.88-8.25-6.88-.37,0-.75,0-1.12,0h-.88l-1,0a8.77,8.77,0,0,0-6.5,2.26,6.57,6.57,0,0,0-1.82,3.69c-4-2.16-8.7-3.24-14.56-3.38l-11-.27.12-.13a7.75,7.75,0,0,0,1.7-6.16c-.7-9.32.85-17.09,4.74-23.74,3.15-5.38-.65-9.23-1.89-10.49l-.15-.15-1.21-1.24c-2.62-2.67-5.33-5.42-7.88-8.19a14.2,14.2,0,0,0-11-5.14h-.77c-3.7,0-5.54-2.85-5.72-5.68a6.13,6.13,0,0,1,5.05-6.19,10.13,10.13,0,0,1,1.33-.09m-14.74,64a3.79,3.79,0,0,1,2.68,1A17.9,17.9,0,0,0,261,308.58a50.1,50.1,0,0,0,5.47-.39,39.78,39.78,0,0,1,4.31-.33,7.06,7.06,0,0,0,4.5-1.5l4.83,5.09a15.55,15.55,0,0,0-9.3-3,19.13,19.13,0,0,0-4.32.51h-3c-4.21,0-10.56,0-15.74,5.77a2.82,2.82,0,0,1-2,.59,7.38,7.38,0,0,1-5.15-2.16,6.14,6.14,0,0,1,.06-8.21,6.67,6.67,0,0,1,4.74-2.3m83.29-92.41a11.42,11.42,0,0,0-4.7,1c-4.87,2.21-8.55,8.46-5.91,12.89,4.64,7.77,1.38,15.05.64,22.6-.28,2.92-1.21,4.1-4.33,4.1h-.21c-9.53,0-17.79,3.66-25.22,9.49-.67.52-1.42,1.87-2.31,1.87a1.38,1.38,0,0,1-1-.64c-5-6.2-13.4-9.57-14.61-18.93-.72-5.63-5.31-9-10.86-9a15.51,15.51,0,0,0-2,.14,11.1,11.1,0,0,0-9.34,11.47c.38,5.82,4.69,10.35,10.71,10.35h.77c3.27,0,5.31,1.32,7.35,3.53,3,3.25,6.1,6.38,9.19,9.54,1.29,1.32,2.56,2.46,1.29,4.62-4.82,8.24-6.11,17.25-5.4,26.64.11,1.47.15,2.9-1.94,2.92-3.25,0-6.53.72-9.75.72a13,13,0,0,1-9.49-3.56,8.76,8.76,0,0,0-6.1-2.39,11.62,11.62,0,0,0-8.47,4,11.11,11.11,0,0,0-.1,14.83,12.34,12.34,0,0,0,8.92,3.87,7.53,7.53,0,0,0,5.72-2.25c3.42-3.81,7.27-4.11,12.06-4.11h3.57a14.15,14.15,0,0,1,3.7-.51c4.46,0,8.42,2.44,10.85,8.26a8.32,8.32,0,0,0,3.59,4c12.55,6.17,9.9,15,5,24.77-1.9,3.77-3.21,7-7.72,8.91-6.88,2.9-9.16,11.85-5.76,18.55a14.32,14.32,0,0,0,19,6.32c6.67-3.24,10.79-12.3,6.43-18.18-4.57-6.19-2.33-10.86-.17-16.28,1-2.6,2.24-5.15,3-7.81.72-2.4,1.63-3.55,3.86-3.55a9,9,0,0,1,1.62.16,46.12,46.12,0,0,0,7.61.7,26,26,0,0,0,10.22-1.89,9.75,9.75,0,0,1,3.76-.89c2.86,0,4.68,1.91,6.36,4.73,2,3.36,6.46,5.25,4.73,10.77-1.88,6,2.32,12.09,8.06,13.33a13.44,13.44,0,0,0,2.71.29,11.06,11.06,0,0,0,10.81-8.37,10.75,10.75,0,0,0-7.27-13.35c-6.84-1.92-8.47-8.62-12.88-12.73-1-.91-.2-1.64.44-2.49,8-10.57,10.67-14.08,17.46-14.08,3.42,0,7.9.9,14.64,2.23,3.05.6,4.78,1.57,6.38,4.3a11,11,0,0,0,9.55,5.51,11.09,11.09,0,0,0,9.89-16.21,10.64,10.64,0,0,0-9.73-6.2,13.16,13.16,0,0,0-5.07,1.07c-1.5.62-2.77,1.43-4.45,1.43a5.29,5.29,0,0,1-1.15-.12c-6.07-1.26-12.23-2.08-18.36-3-2.87-.45-3.75-2-3.64-4.92.17-4.57.75-9.23-.8-13.74-.33-.94-.63-2.27.44-2.69,5.49-2.15,9.43-8,15.86-8a11.94,11.94,0,0,1,3.31.5,8.39,8.39,0,0,0,2.32.33A11.28,11.28,0,0,0,392,267.6c1.77-5.32-.67-11.66-5.39-14a12.64,12.64,0,0,0-5.53-1.26c-3.79,0-7.38,1.69-8.54,5.12-2.47,7.25-8.62,9.29-13.93,12.84a5.26,5.26,0,0,1-2.73,1.13c-1,0-1.88-.66-2.91-2.18a42.18,42.18,0,0,0-20.58-16c-1.32-.5-3.34-.92-2.87-2.47,2.15-7-1.28-15.71,6.73-21.14,4.5-3.06,4.82-10,1.63-14.67a11,11,0,0,0-9.11-4.82Zm1.12,55.18a15.71,15.71,0,0,1-6.67-2c-1.54-.73-3.57-1.66-2.92-3.83s2.89-1.71,4.46-2.18c3.52.79,7.27.9,9.55,4.21a1.88,1.88,0,0,1-.88,3,7.88,7.88,0,0,1-3.54.82Zm2,7.29c-2.12,0-3.94-.77-5.68-3.35a18.69,18.69,0,0,1,3.59-.45c2.27,0,4,.82,5.45,3.37a17.67,17.67,0,0,1-3.36.43Zm-21,35.88c.57,0,1.21,0,1.83,0,1.6,0,3.11.28,3.27,2.26.18,2.37-2.7,2.33-4.61,2.69-2.12-.32-5.05,0-5.09-2.87,0-1.82,1.79-2.06,3.4-2.06l.93,0Zm-8,10.17c-5.86,0-11-2.1-16.21-7.62,8.23.2,13.69,2.35,18,7.56q-.89.06-1.74.06Zm17.29,4.33a18.64,18.64,0,0,1-7.42-1.88,16.83,16.83,0,0,1,7.44-1.81,24.7,24.7,0,0,1,7.28,1.31,13.2,13.2,0,0,1-7.3,2.38Z"/><path class="cls-2" d="M164.57,146l.67,0c3.63.21,7.35.32,11.06.32s7.47-.11,11.21-.32l.61,0h.09c0,.27,0,.63,0,1.09-.25,7-.17,14.19-.1,21.08,0,1.48,0,3,0,4.44,0,.14,0,.53-.08.82-.2,1.79-.68,6,3.18,8.42A6.92,6.92,0,0,0,195,183a9,9,0,0,0,5.78-2.52c.2-.16.46-.38.56-.45l6.3-4c11.94-7.62,24.28-15.51,36.27-23.54a9.1,9.1,0,0,1,5-1.92,9.33,9.33,0,0,1,4.89,1.85c18.34,12,37.1,24.11,55.23,35.77l12.55,8.08a27.81,27.81,0,0,0-7.44,3.31c-.45-.35-.95-.75-1.53-1.12l-1.69-1.07c-17.57-11.22-35.74-22.82-53.44-34.47a15.11,15.11,0,0,0-8.32-2.92,14.19,14.19,0,0,0-7.84,2.64c-32.78,21.38-65,42-92.13,59.32-4.78,3-6.9,6.89-6.88,12.47.15,53.56.14,98.16,0,140.37,0,2.71.3,6.14,2.8,8.65s5.74,2.74,8,2.74l.83,0c4.14-.13,8.54-.19,13.83-.19,4.11,0,8.3,0,12.35.08l3.58,0a22,22,0,0,0-1.66,4.44H168l-10.28,0c-7.47,0-13.21,0-18.62-.11-1.69,0-2.55,0-2.54-4.42.08-31.74.07-64,.06-95.2V230.32l-7.71,4.94c-2.47,1.59-4.88,3.11-7.21,4.57-5.41,3.4-10.51,6.61-15.45,10.14-.4.29-.73.5-1,.65-.13-.2-.28-.46-.46-.78-1.14-2.1-2.15-3.67-3-4.94l-.38-.6c1-.72,2.51-1.68,4-2.67l1.26-.82,11-7.14c13.12-8.51,26.68-17.31,40.08-25.86a13,13,0,0,0,6.55-12.05c-.08-7.44-.07-15-.06-22.35,0-8.47,0-17.24-.12-25.88a14.87,14.87,0,0,1,0-1.5h.27m0-5c-4.4,0-5.38,2.09-5.31,6.59.27,16.07,0,32.14.19,48.21,0,3.67-1.22,5.84-4.25,7.77-17.1,10.91-34.09,22-51.11,33-11.75,7.62-9.2,5.44-3.65,15.62,1.41,2.58,2.72,3.75,4.34,3.75,1.23,0,2.64-.68,4.4-1.94,6.92-4.95,14.26-9.3,22.46-14.57v21.76q0,62.38-.06,124.75c0,5.4,1.53,9.35,7.47,9.43,6.23.09,12.46.11,18.69.11l20.58,0h4.16c2,0,3.65-.32,4.05-2.58.74-4.24,3.13-7.64,5.85-10.94a5.79,5.79,0,0,0-3.5-1c-.89,0-1.75.12-2.59.12h-.06c-6.19-.05-12.38-.13-18.56-.13-4.66,0-9.32.05-14,.19l-.68,0c-4.4,0-5.82-1.52-5.81-6.37q.28-70.2,0-140.41c0-3.92,1.31-6.16,4.57-8.24Q198,196.64,244,166.78a9.44,9.44,0,0,1,5.11-1.82,10.25,10.25,0,0,1,5.57,2.09c18.28,12,36.74,23.81,55.19,35.58,1.29.83,2.61,2.4,4.21,2.4a2.88,2.88,0,0,0,1.66-.58,23.93,23.93,0,0,1,14.19-4.32,38.5,38.5,0,0,1,6.75.64,14.23,14.23,0,0,0-3.29-2.85c-25.65-16.55-51.38-33-76.89-49.72a12.25,12.25,0,0,0-15.38.09c-14,9.4-28.26,18.42-42.47,27.51-1.13.72-2.32,2.18-3.65,2.18a2,2,0,0,1-1.05-.32c-1.61-1-.75-3.34-.76-5.06-.08-8.44-.25-16.88,0-25.31.15-4.27-.86-6.26-5.08-6.26l-.9,0c-3.63.2-7.27.31-10.92.31s-7.18-.1-10.76-.32l-1,0Z"/><path class="cls-2" d="M245.6,330.19c.61,0,.72,0,1.06.74s.45,1-.73,1.91c-.28.22-.56.42-.85.63l-1,.73a16.17,16.17,0,0,0-.16-3,1.83,1.83,0,0,1,0-.68,2.15,2.15,0,0,1,.64-.2,5.92,5.92,0,0,1,1-.1m-35.51,3.95a2.87,2.87,0,0,1,.53.07c1.3.31,1.27.87,1.24,1.4,0,.38-.07.8-.12,1.25-.07.7-.16,1.49-.18,2.34-.62-.72-1.32-1.49-2.08-2.31s-.73-1.3-.41-1.89c.47-.86.82-.86,1-.86m26.84,13.08a9.83,9.83,0,0,0,.07,2.23,20.76,20.76,0,0,0-3.84-.88l-.12,0a21.28,21.28,0,0,0,3.29-1.05l.6-.28m-21.28,1.53a5,5,0,0,0,2.38.58h.21c.69,0,1.46,0,2.42,0h3.84c1,0,2.05,0,3.12-.06a6.37,6.37,0,0,0-3.3,7.59c1.58,6,7.44,6.61,9.94,6.88l.64.08a11.25,11.25,0,0,0,1.27.08,7.36,7.36,0,0,0,7-4.47c.53,1.73,1.93,5.5,6.08,6.19a20.29,20.29,0,0,0-5,4.24,15.8,15.8,0,0,0-3.83,12.92,2.56,2.56,0,0,0,0,.27,7.44,7.44,0,0,0-2.84-.55,10.78,10.78,0,0,0-5.51,1.84c-.28.17-.7.42-.85.48a7.53,7.53,0,0,0-4,3.24c-1.69-2.95-5.41-4.82-9.9-4.82a13.05,13.05,0,0,0-4.88.88,14.82,14.82,0,0,0-2-9.07,12.68,12.68,0,0,1-.68-2.14c-.47-1.8-1.35-5.13-4-7.37a8.31,8.31,0,0,0,4.09-5.12,16.26,16.26,0,0,1,1.67-3.2c2.25-3.55,3.6-6.13,4-8.44m51.39,13a3.4,3.4,0,0,1,.61.06c.81.13,1,.22,1,1.29s-.23,1.18-.92,1.25h-.17a10.17,10.17,0,0,1-2.61-.66l-.37-.12-.53-.17a13.92,13.92,0,0,0,1.46-1.07,2.14,2.14,0,0,1,1.51-.59m-84.19.33a.68.68,0,0,1,.24.14A15.33,15.33,0,0,0,186,363.9a14.77,14.77,0,0,0-3.16,1.54l0,0a2.72,2.72,0,0,1-1-1c-.43-.61-.53-.89.11-1.63a2.69,2.69,0,0,1,1-.82m22.32,31a17.5,17.5,0,0,0-.63,2.19c-.3,1.4-.6,1.4-1.25,1.4a5,5,0,0,1-.64,0,2.46,2.46,0,0,1-.83-.23h0a2,2,0,0,1-.15-.72c-.08-1.17-.1-1.35,1.58-1.88a19.31,19.31,0,0,0,1.92-.72m46.1.76,1.24.41c1.62.49,2,.82,2,.89.57,2,0,2.16-.85,2.41a3.73,3.73,0,0,1-.95.15l-.27,0a2.57,2.57,0,0,1-.21-.69,14.51,14.51,0,0,0-1-3.15M228.6,406.37a19.36,19.36,0,0,0,1.55,3,1.7,1.7,0,0,1,.17.33,3.62,3.62,0,0,1-1,1.06,1.73,1.73,0,0,1-.74.43,1.47,1.47,0,0,1-.57-.35,3.34,3.34,0,0,1-1-1.17,2.11,2.11,0,0,1,.36-.84,16.51,16.51,0,0,0,1.23-2.45m17-81.18a11.44,11.44,0,0,0-1.89.17c-3.63.64-5.2,3.25-4.72,6.54.71,4.81-1.84,9.83-4.6,11-3,1.25-6.4,1.41-9.89,1.41l-3.84,0c-.88,0-1.76,0-2.63.05h0c-.26,0-.51-1.38-.86-2.07-1.07-2.1-.44-4.19-.32-6.37a6.11,6.11,0,0,0-5.07-6.54,7.3,7.3,0,0,0-1.69-.21,6,6,0,0,0-5.4,3.46c-1.52,2.76-1,5.39,1.13,7.71,6.33,6.77,6.31,6.83,1.64,14.2a20.41,20.41,0,0,0-2.18,4.26c-.46,1.33-1.17,2.44-2.36,2.44a2,2,0,0,1-.57-.08c-5.34-1.4-11.24.83-16.26-2.94a5.3,5.3,0,0,0-3.2-1.13,6.58,6.58,0,0,0-4.85,2.55,5.93,5.93,0,0,0-.4,7.78,6.55,6.55,0,0,0,5.15,3.09,4.92,4.92,0,0,0,2.72-.84,10.56,10.56,0,0,1,6-1.61c1.88,0,3.77.27,5.66.27.36,0,.73,0,1.09,0l.75,0c6.2,0,5.31,5.7,7.12,9.12,3,5.63,1.48,9.79-4.42,11.66-3.73,1.19-5.32,3.33-5.06,7,.23,3.22,2.08,5.11,5.3,5.54a10.07,10.07,0,0,0,1.31.09c3.31,0,5.39-1.91,6.14-5.34a16.16,16.16,0,0,1,3.2-6.35c.9-1.19,2.82-1.76,4.79-1.76,2.63,0,5.34,1,5.81,2.92,1.2,4.92,2.89,10.13-.13,15.09-2.09,3.42-1,6.17,1.74,8.46a5.89,5.89,0,0,0,3.77,1.5,6.22,6.22,0,0,0,3.92-1.56c2.55-2.1,3.82-4.82,1.84-7.94-2.14-3.39-2.47-7.11-2.68-11.21.77-1.78-1.88-4.74,1.4-6,1.46-.57,3-2,4.55-2a2.8,2.8,0,0,1,1.94.82c3,2.75,6.86,4.87,7.73,9.59.6,3.26,2.72,4.81,5.4,4.81a8.67,8.67,0,0,0,2.31-.34c4.19-1.19,5.44-4.56,4.3-8.58-.71-2.53-2.93-3.57-5.35-4.31-4-1.22-8-3.88-8.61-7.54-1.24-7.39,6.38-14.21,14-14.21a11.8,11.8,0,0,1,3.71.59,14.7,14.7,0,0,0,4.55,1l.66,0c3.67-.36,5.35-2.88,5.43-6.11a5.82,5.82,0,0,0-5.19-6.34,8,8,0,0,0-1.44-.13,7.15,7.15,0,0,0-4.74,1.77c-2.34,2-5.07,2.24-7.81,2.24-1,0-2.07,0-3.08,0h-.74c-3.11,0-2.28-4.2-4.17-5.87-.43-.38-.52-1.19-1-1.49-6.22-4.19-3.14-8.54-.39-13,1-1.63,2.5-2.44,3.89-3.54,2.6-2.06,3.7-4.63,2.17-7.93a5.72,5.72,0,0,0-5.6-3.64Zm-9.43,33.68a4.91,4.91,0,0,1-.67-.05c-2.48-.3-5.58-.35-6.34-3.26-.45-1.7.9-2.13,2.22-2.13a6.59,6.59,0,0,1,1,.08c2.47.38,5,.9,6.37,3.45a2.42,2.42,0,0,1-2.6,1.91Z"/><path class="cls-2" d="M234.57,251l0,.06c3,11,10.69,18,22.36,20.33,1.78.35,3.06,1,3.5,1.7s.4,2.16-.12,3.92a53.76,53.76,0,0,0-2.14,9.45,28.25,28.25,0,0,0-13.43-3.53,25.55,25.55,0,0,0-23.32,15.39c-2.82,6.22-3.3,12.55-1.47,18.11a21.33,21.33,0,0,0-8.59-2.12v-8.11c0-18.09,0-36.78,0-55.19,3.8.06,7.62.1,11.38.1,3.95,0,7.94,0,11.85-.11m.18-5h-.24q-5.89.1-11.79.11T211,246h-.28c-3,0-4.43.95-4.41,4.38.11,21.67.06,43.35,0,65,0,2.18.27,3.89,3,3.89h.75c9.07,0,14.2,5.36,17.54,15.1,1.57-6.2,2.81-10.23-.65-15-4.09-5.65-3.94-12.57-1-19a20.41,20.41,0,0,1,18.76-12.46,23.25,23.25,0,0,1,11.67,3.27,9,9,0,0,0,4,1.52c1.72,0,2.42-1.61,2.66-4.93a45.5,45.5,0,0,1,2-9.36c1.89-6.35-.42-10.61-7.21-11.95-9.61-1.89-16-7.29-18.49-16.72-.77-2.84-2-3.77-4.67-3.77Z"/><path class="cls-2" d="M330.31,374.25a11.12,11.12,0,0,0,2.52,3,18.62,18.62,0,0,0,3.92,2.79,11.89,11.89,0,0,0-1.42,3.94,13.87,13.87,0,0,0-.11,4.74,12.48,12.48,0,0,0-4.51,1.12,12.73,12.73,0,0,0-3,1.82,7.74,7.74,0,0,0-2.66-1.77,7.55,7.55,0,0,0-2.84-.61,8.61,8.61,0,0,0-.71-2.6,8.71,8.71,0,0,0-2.14-3,16.77,16.77,0,0,0,2.27-4.21,11.73,11.73,0,0,0,.75-3.18c.25,0,.5,0,.77,0a10.85,10.85,0,0,0,1.77-.15,14.93,14.93,0,0,0,5.43-1.93M326,403.47h0m8.41-42.75a2.87,2.87,0,0,0-.75.1,3.51,3.51,0,0,0-2.9,3.41c-.13,4.39-2.73,6.36-6.69,7a5.37,5.37,0,0,1-.95.08c-3.27,0-4.21-3.22-5.44-5.35s-2.06-4-4.46-4a5.22,5.22,0,0,0-.67,0,3.71,3.71,0,0,0-3.14,3.27c-.38,2.67,1.71,3.49,3.54,4.85,2.31,1.72,5.62,3.27,4,7.57-1,2.67-2.23,4.32-4,4.32a4.72,4.72,0,0,1-2.43-.84,9.42,9.42,0,0,0-1.59-.15,3.21,3.21,0,0,0-3.19,1.81,3.85,3.85,0,0,0,.2,4,3.12,3.12,0,0,0,2.78,1.6,6.13,6.13,0,0,0,2-.4,12.77,12.77,0,0,1,3.8-1.15,2.54,2.54,0,0,1,2.41,1.82c1.33,3.05-1.84,4.46-3.5,6.3-.35.38-1.13.34-1.65.61a3.73,3.73,0,0,0-2.14,4.46,3.16,3.16,0,0,0,2.81,2.73,8.53,8.53,0,0,0,1.11.08,3.4,3.4,0,0,0,3.42-2.09,16.9,16.9,0,0,1,2-3.66c.89-1.08,1.65-2.83,3.18-2.83a2.49,2.49,0,0,1,1,.22c2.49,1.05,1.25,3.43,1.26,5.3,0,.54-.49,1.07-.68,1.64-.61,1.85-.58,3.61,1.22,4.81a4.57,4.57,0,0,0,2.49.88,3.44,3.44,0,0,0,2-.67c1.83-1.27,1.89-3.09,1.34-4.83-.93-2.92-2.18-5.38,2-7.21a7.31,7.31,0,0,1,2.89-.7c2.31,0,3.6,1.75,5.13,4.05,1.12,1.69,2.5,2.51,3.79,2.51a3.68,3.68,0,0,0,3.27-2.49c1.53-3.41-.7-4.74-3.39-5.67-3.51-1.22-4.86-3.25-4.14-7.26.64-3.56,2.75-4.33,5.33-4.33h.62c.3,0,.58,0,.86,0,2.05,0,3.65-.42,4.52-2.64.69-1.77-.08-3.16-1.38-4.22a3.6,3.6,0,0,0-2.33-1,5.68,5.68,0,0,0-3.52,1.78,5.13,5.13,0,0,1-3.38,1.55c-1.61,0-3.11-1.06-4.83-2.58-3.35-2.95-1.08-4.22.72-6.11a3.7,3.7,0,0,0,.38-4.93,3.49,3.49,0,0,0-2.84-1.77Z"/><path class="cls-2" d="M354.24,217.38l7.37,4.76c7.93,5.12,16,10.36,24.18,15.56a25.55,25.55,0,0,0-4-.32,27.58,27.58,0,0,0-7.31,1c-.3-.16-.81-.53-1.18-.79l-.8-.56a10.1,10.1,0,0,0-5.61-2.18,6,6,0,0,0-4.31,1.77c-1.85,1.86-2.1,4.47-2.11,6.33a7.66,7.66,0,0,0-1.51-.66c-4.44-1.43-4.81-3.36-4.33-10.38.1-1.47.2-3,.18-4.52v-.14a76.35,76.35,0,0,0-.55-9.89m-8.33-10.93a2.81,2.81,0,0,0-1.46.47c5.2,6,5.25,13.06,5.34,20.56.09,7.08-3,16.18,7.62,19.59,2.14.68,3.35,4.15,5.53,4.15a2.56,2.56,0,0,0,1.13-.29c2.78-1.39,1.39-5.13,1.38-7.82,0-2.36.51-3.24,1.42-3.24a5.93,5.93,0,0,1,2.79,1.31c1.47,1,2.87,2.26,4.74,2.26a4.28,4.28,0,0,0,1.24-.18,22.7,22.7,0,0,1,6.13-.88,20.78,20.78,0,0,1,14,5.64,3.64,3.64,0,0,0,2.22,1.14c.87,0,1.59-.67,2.5-1.83,2.39-3,2.07-4.89-1.3-7-17.08-10.83-34-21.87-51-32.81a4.11,4.11,0,0,0-2.21-1Z"/><path class="cls-2" d="M267.94,329.25c.3,0,.76,0,1.71,1.29a68.52,68.52,0,0,0,8.32,9l.17.17-.13.43c-.39,1.19-.81,2.49-1.16,3.42-1-.29-2.29-.74-3.19-1.05a19.35,19.35,0,0,0-6.35-1.08,20.14,20.14,0,0,0-2.88.21,18.68,18.68,0,0,0,2.3-12.22l.67-.11a3.74,3.74,0,0,1,.54-.05m-3.43-5c-2.45,0-3.8.93-2.89,5,1.25,5.61-1,10.59-5.23,14.59-1.33,1.26-3.85,2.19-1.85,4.72a2.43,2.43,0,0,0,1.92,1.12c1.16,0,2.28-1,3.36-1.49a18.57,18.57,0,0,1,7.49-1.77,14.26,14.26,0,0,1,4.71.8c2.88,1,4.74,1.61,6.06,1.61,2.35,0,3-1.95,4.69-7.16.8-2.46.5-4-1.38-5.79a62.76,62.76,0,0,1-7.73-8.33c-1.61-2.17-3.39-3.3-5.72-3.3a8.26,8.26,0,0,0-1.36.12,20,20,0,0,0-2.07-.14Z"/><path class="cls-2" d="M364,373.65a1.86,1.86,0,0,0-2,2c0,4.61-2.26,8.23-4.61,12-1.52,2.46-.16,6.28,2.08,7.23a3.78,3.78,0,0,0,1.42.3c2.23,0,3.88-2.35,4.35-4.79s.1-5.15.1-7.74h.13c0-2.19.06-4.38,0-6.56,0-.89.35-2.21-1-2.41a2.25,2.25,0,0,0-.44,0Z"/><path class="cls-2" d="M260.9,378.62a21.68,21.68,0,0,0-3.53.33c4.62,3.23,9.59,5.26,10.57,9.83,1.18,5.53,4,6.74,7.36,6.74,2,0,4.1-.41,6.22-.61a30.92,30.92,0,0,1-14.13-13.1c-1.36-2.32-3.59-3.19-6.49-3.19Z"/></svg>