<svg id="Layer_1" data-name="Layer 1" xmlns="http://www.w3.org/2000/svg" viewBox="0 0 500 500"><defs><style>.cls-1{fill:#fff;}.cls-2{fill:#0084ff;}</style></defs><circle class="cls-1" cx="250" cy="250" r="200"/><path class="cls-2" d="M328.73,214.22a7,7,0,0,1,5.8,3.07c2.12,3.12,1.85,7.46-.57,9.11-7,4.78-7.33,11.55-7.56,17a26.05,26.05,0,0,1-.75,6.28,5.11,5.11,0,0,0,.27,3.9l-.32-.07-1-.23-1,.3c-.13,0-.49.09-.76.13-1.56.24-5.22.79-6.39,4.74-1,3.27.32,5.95,3.86,8l-.74.15,3.35,5c2.31,3.44,5.26,5.12,9,5.12a21.22,21.22,0,0,0,4.15-.51l5.47-1.11-2.8-4.82a12,12,0,0,0-2.27-2.89,5.93,5.93,0,0,0,2.05-3.09,5.7,5.7,0,0,0-.25-3.64,37.3,37.3,0,0,1,11.37,10.9c.66,1,2.67,3.93,6.22,3.93a9.11,9.11,0,0,0,5-1.81c1-.69,2.12-1.33,3.28-2,4.58-2.7,9.79-5.75,12.2-12.86.61-1.78,2.94-2.41,4.76-2.41a8.72,8.72,0,0,1,3.77.85c2.92,1.43,4.49,5.7,3.35,9.12A7.3,7.3,0,0,1,381.8,271a4.35,4.35,0,0,1-1.2-.17,15.65,15.65,0,0,0-4.43-.66c-5.25,0-9,2.75-12.31,5.18a24.14,24.14,0,0,1-5,3.1c-.48.19-4.72,2-2.76,7.73,1.05,3.06.87,6.46.69,10.05,0,.75-.08,1.49-.11,2.23-.25,6.5,3.68,8.5,7,9l4.67.72c4.46.68,9.08,1.38,13.51,2.3a10,10,0,0,0,2,.2,11.6,11.6,0,0,0,5.13-1.36c.28-.13.56-.26.86-.38a9.21,9.21,0,0,1,3.53-.76,6.61,6.61,0,0,1,6.14,4,7.09,7.09,0,0,1-6.3,10.45,7,7,0,0,1-6.1-3.53,12.14,12.14,0,0,0-9.06-6.21l-.34-.07c-6.81-1.34-11.32-2.23-15.07-2.23-8.8,0-12.51,4.91-20.65,15.67l-.16.21c-3.13,4-.65,6.84.19,7.62a25.29,25.29,0,0,1,3.36,4.27c2.37,3.45,5.32,7.74,11.17,9.38a6.44,6.44,0,0,1,3.88,3.08,7.34,7.34,0,0,1-6.35,10.79,8.65,8.65,0,0,1-1.87-.21,7,7,0,0,1-4.47-3.3,6,6,0,0,1-.61-4.92c1.92-6.14-1.47-9.83-3.49-12a13.6,13.6,0,0,1-1.63-2c-1.08-1.83-4-6.69-9.79-6.69a13.57,13.57,0,0,0-5.32,1.21,22.09,22.09,0,0,1-8.66,1.57,40.37,40.37,0,0,1-6.93-.65,13.93,13.93,0,0,0-2.3-.21c-5.76,0-7.21,4.81-7.69,6.39a52.64,52.64,0,0,1-2,5.15c-.32.78-.65,1.56-1,2.34l-.32.78c-2.09,5.21-4.69,11.68,1,19.36a6,6,0,0,1,.77,5.07,11.36,11.36,0,0,1-5.74,7.14,10.33,10.33,0,0,1-13.72-4.54,10.69,10.69,0,0,1-.5-8.39,7.87,7.87,0,0,1,4.24-4.67c5.53-2.33,7.54-6.38,9.32-9.94l.42-.86c3.21-6.37,5.89-13.14,3.75-19.52-1.47-4.39-4.92-7.87-10.53-10.63a4.42,4.42,0,0,1-1.67-1.92c-2.89-6.92-8.05-10.72-14.54-10.72a18.19,18.19,0,0,0-4.2.51h-3.07c-5.35,0-10.52.41-15,5.44a3.81,3.81,0,0,1-2.74.92,8.37,8.37,0,0,1-5.91-2.5,7.13,7.13,0,0,1,.08-9.53,7.53,7.53,0,0,1,5.48-2.64,4.77,4.77,0,0,1,3.37,1.31A16.92,16.92,0,0,0,261,307.58a48.6,48.6,0,0,0,5.36-.39c1.55-.16,3-.32,4.42-.33a5.87,5.87,0,0,0,4.45-1.82,6.88,6.88,0,0,0,1.45-5.4c-.73-9.54.87-17.49,4.87-24.32,2.76-4.72-.51-8-1.75-9.29l-.15-.15-1.21-1.24c-2.62-2.67-5.33-5.43-7.89-8.21a13.28,13.28,0,0,0-10.29-4.82h-.77A6.68,6.68,0,0,1,252.8,245a7.09,7.09,0,0,1,5.91-7.25,10.48,10.48,0,0,1,1.47-.1c3,0,6.38,1.43,6.9,5.47,1,7.85,6,12.2,10.42,16a40.5,40.5,0,0,1,5,4.9,5.29,5.29,0,0,0,4.16,2.13,6.22,6.22,0,0,0,4.63-2.54l.23-.25c7.39-5.77,14.8-8.57,22.67-8.57h.21c5,0,7.81-2.6,8.31-7.72.17-1.67.47-3.36.8-5.15,1.07-6,2.29-12.71-2-19.88a3,3,0,0,1-.11-2.5,8.28,8.28,0,0,1,4.23-4.69,7.27,7.27,0,0,1,3.05-.67m-17.81,90.35h-.2l-1,0a7.87,7.87,0,0,0-5.79,2,5.69,5.69,0,0,0-1.61,4.16c0,.2,0,.38,0,.56-4.09-2.65-9.11-4-15.53-4.11l-9.62-.24,6.62,7c5.74,6.05,11.81,8.87,19.11,8.87.65,0,1.33,0,2-.07l1.08-.07,5.19,2.26a22.13,22.13,0,0,0,9,2.21,17.19,17.19,0,0,0,9.46-3l7.24-4.64-8.21-2.55a28.22,28.22,0,0,0-8.47-1.49,20,20,0,0,0-2.32.13,5.76,5.76,0,0,0,2.09-5c-.1-1.39-.94-6-7.25-6-.36,0-.73,0-1.09,0h-.74m-2.34,12.59c.42.07.86.13,1.32.17l.92.1.43.07-.19.09-1.52.73-1-1.16m20.15-106.94a11.42,11.42,0,0,0-4.7,1c-4.87,2.21-8.55,8.46-5.91,12.89,4.64,7.77,1.38,15.05.64,22.6-.28,2.92-1.21,4.1-4.33,4.1h-.21c-9.53,0-17.79,3.66-25.22,9.49-.67.52-1.42,1.87-2.31,1.87a1.38,1.38,0,0,1-1-.64c-5-6.2-13.4-9.57-14.61-18.93-.72-5.63-5.31-9-10.86-9a15.51,15.51,0,0,0-2,.14,11.1,11.1,0,0,0-9.34,11.47c.38,5.82,4.69,10.35,10.71,10.35h.77c3.27,0,5.31,1.32,7.35,3.53,3,3.25,6.1,6.38,9.19,9.54,1.29,1.32,2.56,2.46,1.29,4.62-4.82,8.24-6.11,17.25-5.4,26.64.11,1.47.15,2.9-1.94,2.92-3.25,0-6.53.72-9.75.72a13,13,0,0,1-9.49-3.56,8.76,8.76,0,0,0-6.1-2.39,11.62,11.62,0,0,0-8.47,4,11.11,11.11,0,0,0-.1,14.83,12.34,12.34,0,0,0,8.92,3.87,7.53,7.53,0,0,0,5.72-2.25c3.42-3.81,7.27-4.11,12.06-4.11h3.57a14.15,14.15,0,0,1,3.7-.51c4.46,0,8.42,2.44,10.85,8.26a8.32,8.32,0,0,0,3.59,4c12.55,6.17,9.9,15,5,24.77-1.9,3.77-3.21,7-7.72,8.91-6.88,2.9-9.16,11.85-5.76,18.55a14.32,14.32,0,0,0,19,6.32c6.67-3.24,10.79-12.3,6.43-18.18-4.57-6.19-2.33-10.86-.17-16.28,1-2.6,2.24-5.15,3-7.81.72-2.4,1.63-3.55,3.86-3.55a9,9,0,0,1,1.62.16,46.12,46.12,0,0,0,7.61.7,26,26,0,0,0,10.22-1.89,9.75,9.75,0,0,1,3.76-.89c2.86,0,4.68,1.91,6.36,4.73,2,3.36,6.46,5.25,4.73,10.77-1.88,6,2.32,12.09,8.06,13.33a13.44,13.44,0,0,0,2.71.29,11.06,11.06,0,0,0,10.81-8.37,10.75,10.75,0,0,0-7.27-13.35c-6.84-1.92-8.47-8.62-12.88-12.73-1-.91-.2-1.64.44-2.49,8-10.57,10.67-14.08,17.46-14.08,3.42,0,7.9.9,14.64,2.23,3.05.6,4.78,1.57,6.38,4.3a11,11,0,0,0,9.55,5.51,11.09,11.09,0,0,0,9.89-16.21,10.64,10.64,0,0,0-9.73-6.2,13.16,13.16,0,0,0-5.07,1.07c-1.5.62-2.77,1.43-4.45,1.43a5.29,5.29,0,0,1-1.15-.12c-6.07-1.26-12.23-2.08-18.36-3-2.87-.45-3.75-2-3.64-4.92.17-4.57.75-9.23-.8-13.74-.33-.94-.63-2.27.44-2.69,5.49-2.15,9.43-8,15.86-8a11.94,11.94,0,0,1,3.31.5,8.39,8.39,0,0,0,2.32.33A11.28,11.28,0,0,0,392,267.6c1.77-5.32-.67-11.66-5.39-14a12.64,12.64,0,0,0-5.53-1.26c-3.79,0-7.38,1.69-8.54,5.12-2.47,7.25-8.62,9.29-13.93,12.84a5.26,5.26,0,0,1-2.73,1.13c-1,0-1.88-.66-2.91-2.18a42.18,42.18,0,0,0-20.58-16c-1.32-.5-3.34-.92-2.87-2.47,2.15-7-1.28-15.71,6.73-21.14,4.5-3.06,4.82-10,1.63-14.67a11,11,0,0,0-9.11-4.82Zm1.12,55.18a15.71,15.71,0,0,1-6.67-2c-1.54-.73-3.57-1.66-2.92-3.83s2.89-1.71,4.46-2.18c3.52.79,7.27.9,9.55,4.21a1.88,1.88,0,0,1-.88,3,7.88,7.88,0,0,1-3.54.82Zm2,7.29c-2.12,0-3.94-.77-5.68-3.35a18.69,18.69,0,0,1,3.59-.45c2.27,0,4,.82,5.45,3.37a17.67,17.67,0,0,1-3.36.43Zm-21,35.88c.57,0,1.21,0,1.83,0,1.6,0,3.11.28,3.27,2.26.18,2.37-2.7,2.33-4.61,2.69-2.12-.32-5.05,0-5.09-2.87,0-1.82,1.79-2.06,3.4-2.06l.93,0Zm-8,10.17c-5.86,0-11-2.1-16.21-7.62,8.23.2,13.69,2.35,18,7.56q-.89.06-1.74.06Zm17.29,4.33a18.64,18.64,0,0,1-7.42-1.88,16.83,16.83,0,0,1,7.44-1.81,24.7,24.7,0,0,1,7.28,1.31,13.2,13.2,0,0,1-7.3,2.38Z"/><path class="cls-2" d="M164.57,145l.73,0c3.61.21,7.31.32,11,.32s7.43-.11,11.15-.32l.67,0a6.22,6.22,0,0,1,1,.07,9,9,0,0,1,.1,2.05c-.25,7-.17,14.16-.1,21,0,1.47,0,3,0,4.43a8.47,8.47,0,0,1-.09.94c-.19,1.74-.6,5.37,2.72,7.47A6,6,0,0,0,195,182a8.08,8.08,0,0,0,5.15-2.29,6,6,0,0,1,.66-.52l6.29-4c11.93-7.62,24.27-15.49,36.25-23.53a8.34,8.34,0,0,1,11-.06c18.34,12,37.09,24.1,55.22,35.76L324,196.66a27,27,0,0,0-10,4.11l-.54-.42a15.61,15.61,0,0,0-1.47-1.09l-1.67-1.07c-17.59-11.22-35.77-22.82-53.47-34.48a14.22,14.22,0,0,0-7.77-2.75,13.13,13.13,0,0,0-7.29,2.47c-32.79,21.39-65,42-92.15,59.33-4.45,2.84-6.43,6.43-6.41,11.63.15,53.56.14,98.17,0,140.38,0,2.51.27,5.69,2.51,7.93s5.21,2.45,7.3,2.45l.8,0c4.15-.13,8.55-.19,13.86-.19,4.11,0,8.31,0,12.36.08l5.24,0a22.09,22.09,0,0,0-2.54,6.43H168l-10.28,0c-7.47,0-13.22,0-18.63-.11-2,0-3.54-.05-3.53-5.42.08-31.74.07-64,.06-95.21V232.15l-6.17,4c-2.47,1.59-4.88,3.1-7.22,4.57-5.39,3.39-10.49,6.59-15.4,10.1A10.11,10.11,0,0,1,105,251.9a8.41,8.41,0,0,1-1-1.58c-1.13-2.07-2.12-3.63-2.91-4.88-.29-.45-.62-1-.88-1.4,1-.78,2.89-2,4.84-3.25l1.27-.82,11-7.13c13.12-8.52,26.69-17.32,40.09-25.87,4.27-2.73,6.16-6.19,6.09-11.2-.08-7.44-.07-15-.06-22.36,0-8.47,0-17.23-.12-25.86a9.38,9.38,0,0,1,.18-2.43,5.34,5.34,0,0,1,1.13-.1m0-4c-4.4,0-5.38,2.09-5.31,6.59.27,16.07,0,32.14.19,48.21,0,3.67-1.22,5.84-4.25,7.77-17.1,10.91-34.09,22-51.11,33-11.75,7.62-9.2,5.44-3.65,15.62,1.41,2.58,2.72,3.75,4.34,3.75,1.23,0,2.64-.68,4.4-1.94,6.92-4.95,14.26-9.3,22.46-14.57v21.76q0,62.38-.06,124.75c0,5.4,1.53,9.35,7.47,9.43,6.23.09,12.46.11,18.69.11,6.86,0,13.71,0,20.57,0h4.17c2,0,3.65-.32,4.05-2.58.74-4.24,3.13-7.64,5.85-10.94a5.81,5.81,0,0,0-3.5-1c-.89,0-1.75.12-2.59.12h-.06c-6.19-.05-12.38-.13-18.56-.13-4.66,0-9.32.05-14,.19l-.68,0c-4.4,0-5.82-1.52-5.81-6.37q.28-70.2,0-140.41c0-3.92,1.31-6.16,4.57-8.24Q198,196.64,244,166.78a9.44,9.44,0,0,1,5.11-1.82,10.25,10.25,0,0,1,5.57,2.09c18.28,12,36.74,23.81,55.19,35.58,1.29.83,2.61,2.4,4.21,2.4a2.88,2.88,0,0,0,1.66-.58,23.93,23.93,0,0,1,14.19-4.32,38.5,38.5,0,0,1,6.75.64,14.23,14.23,0,0,0-3.29-2.85c-25.65-16.55-51.38-33-76.89-49.72a12.25,12.25,0,0,0-15.38.09c-14,9.4-28.26,18.42-42.47,27.51-1.13.72-2.32,2.18-3.65,2.18a2,2,0,0,1-1.05-.32c-1.61-1-.75-3.34-.76-5.06-.08-8.44-.25-16.88,0-25.31.15-4.27-.86-6.26-5.08-6.26l-.9,0c-3.63.2-7.27.31-10.92.31s-7.18-.1-10.76-.32l-1,0Z"/><path class="cls-2" d="M245.6,329.19a1.79,1.79,0,0,1,2,1.32c.49,1.05.66,1.78-1,3.11-.29.23-.58.44-.88.66a16.5,16.5,0,0,0-2.89,2.5,16,16,0,0,0,.17-5.47c-.22-1.46.27-1.8,1.45-2a8,8,0,0,1,1.2-.11m-35.51,3.95a3.61,3.61,0,0,1,.76.1c1.87.45,2.06,1.53,2,2.43,0,.4-.07.84-.12,1.3a13.18,13.18,0,0,0,.3,5.73,44.69,44.69,0,0,0-4.29-5.13c-1.18-1.26-1.11-2-.55-3.05.75-1.38,1.55-1.38,1.89-1.38m28.25,11.91a9.42,9.42,0,0,0,.16,6.15,16.09,16.09,0,0,0-5.49-1.65,11.38,11.38,0,0,0-1.63-.12,6.19,6.19,0,0,0-5.22,2.25,5.53,5.53,0,0,0-.87,4.9c1.4,5.3,6.58,5.87,9.08,6.14l.65.07a9.27,9.27,0,0,0,1.15.08,6.4,6.4,0,0,0,6.47-4.91l.31-1.18a5.38,5.38,0,0,0,.75.91,11.33,11.33,0,0,1,.36,1.08c.48,1.62,1.76,5.93,6.61,5.93h.74l1.45,0h.64a19.51,19.51,0,0,0-8.47,5.76,14.84,14.84,0,0,0-3.62,12.11,11.05,11.05,0,0,0,.89,2.77l0,0a6.86,6.86,0,0,0-4.63-1.85,9.71,9.71,0,0,0-5,1.7,8.48,8.48,0,0,1-1,.55,6,6,0,0,0-4.19,5.8l0-.17c-.09-.39-.19-.79-.29-1.18-.87-3.56-4.77-6-9.69-6A10.93,10.93,0,0,0,211,386c.83-2.2,1.22-5.76-1.32-10.55a12.66,12.66,0,0,1-.77-2.35c-.57-2.19-1.61-6.16-5.37-8,1.54-.17,4.13-1.1,5.5-5.11a16.88,16.88,0,0,1,1.77-3.4c2.9-4.57,4.25-7.36,3.87-10.08a3.87,3.87,0,0,0,3.33,1.75h.17c.71,0,1.49,0,2.46,0h3.84c3.54,0,7.64-.13,11.44-1.72a9,9,0,0,0,2.4-1.53M267,360.72a4.24,4.24,0,0,1,.77.07c1.21.2,1.9.64,1.86,2.31-.05,1.89-.82,2.12-1.82,2.22h-.27a10.36,10.36,0,0,1-2.92-.71l-.37-.12a16.08,16.08,0,0,0-3.32-.71,12.5,12.5,0,0,0,3.91-2.25,3.14,3.14,0,0,1,2.16-.82m-84.15.34a1.3,1.3,0,0,1,.8.33,15.09,15.09,0,0,0,6.12,2.71,13.88,13.88,0,0,0-6.47,2.18,1,1,0,0,1-.55.2,2.86,2.86,0,0,1-1.89-1.4,2,2,0,0,1,.17-2.86,2.78,2.78,0,0,1,1.82-1.16m24.48,29.62a17,17,0,0,0-1.85,4.79c-.48,2.19-1.41,2.19-2.23,2.19a7.43,7.43,0,0,1-.78-.05c-1.46-.2-1.75-.66-1.84-1.87-.1-1.48,0-2.16,2.28-2.9a15.69,15.69,0,0,0,4.42-2.16M249,391.73a22.47,22.47,0,0,0,3.84,1.55c2.44.75,2.59,1.28,2.67,1.57.84,3-.53,3.37-1.54,3.65a4.33,4.33,0,0,1-1.22.19c-.58,0-1.19,0-1.47-1.53a13.47,13.47,0,0,0-2.28-5.43M228.55,402.9a19,19,0,0,0,2.44,5.92c.41.64.79,1.24-1,2.71a2.47,2.47,0,0,1-1.38.65,2.18,2.18,0,0,1-1.21-.58c-1.92-1.6-1.51-2.28-.89-3.3a15.22,15.22,0,0,0,2-5.4m17-77.71a11.44,11.44,0,0,0-1.89.17c-3.63.64-5.2,3.25-4.72,6.54.71,4.81-1.84,9.83-4.6,11-3,1.25-6.4,1.41-9.89,1.41l-3.84,0c-.88,0-1.76,0-2.63.05h0c-.26,0-.51-1.38-.86-2.07-1.07-2.1-.44-4.19-.32-6.37a6.11,6.11,0,0,0-5.07-6.54,7.3,7.3,0,0,0-1.69-.21,6,6,0,0,0-5.4,3.46c-1.52,2.76-1,5.39,1.13,7.71,6.33,6.77,6.31,6.83,1.64,14.2a20.41,20.41,0,0,0-2.18,4.26c-.46,1.33-1.17,2.44-2.36,2.44a2,2,0,0,1-.57-.08c-5.34-1.4-11.24.83-16.26-2.94a5.3,5.3,0,0,0-3.2-1.13,6.58,6.58,0,0,0-4.85,2.55,5.93,5.93,0,0,0-.4,7.78,6.55,6.55,0,0,0,5.15,3.09,4.92,4.92,0,0,0,2.72-.84,10.56,10.56,0,0,1,6-1.61c1.88,0,3.77.27,5.66.27.36,0,.73,0,1.09,0l.75,0c6.2,0,5.31,5.7,7.12,9.12,3,5.63,1.48,9.79-4.42,11.66-3.73,1.19-5.32,3.33-5.06,7,.23,3.22,2.08,5.11,5.3,5.54a10.07,10.07,0,0,0,1.31.09c3.31,0,5.39-1.91,6.14-5.34a16.16,16.16,0,0,1,3.2-6.35c.9-1.19,2.82-1.76,4.79-1.76,2.63,0,5.34,1,5.81,2.92,1.2,4.92,2.89,10.13-.13,15.09-2.09,3.42-1,6.17,1.74,8.46a5.89,5.89,0,0,0,3.77,1.5,6.22,6.22,0,0,0,3.92-1.56c2.55-2.1,3.82-4.82,1.84-7.94-2.14-3.39-2.47-7.11-2.68-11.21.77-1.78-1.88-4.74,1.4-6,1.46-.57,3-2,4.55-2a2.8,2.8,0,0,1,1.94.82c3,2.75,6.86,4.87,7.73,9.59.6,3.26,2.72,4.81,5.4,4.81a8.67,8.67,0,0,0,2.31-.34c4.19-1.19,5.44-4.56,4.3-8.58-.71-2.53-2.93-3.57-5.35-4.31-4-1.22-8-3.88-8.61-7.54-1.24-7.39,6.38-14.21,14-14.21a11.8,11.8,0,0,1,3.71.59,14.7,14.7,0,0,0,4.55,1l.66,0c3.67-.36,5.35-2.88,5.43-6.11a5.82,5.82,0,0,0-5.19-6.34,8,8,0,0,0-1.44-.13,7.15,7.15,0,0,0-4.74,1.77c-2.34,2-5.07,2.24-7.81,2.24-1,0-2.07,0-3.08,0h-.74c-3.11,0-2.28-4.2-4.17-5.87-.43-.38-.52-1.19-1-1.49-6.22-4.19-3.14-8.54-.39-13,1-1.63,2.5-2.44,3.89-3.54,2.6-2.06,3.7-4.63,2.17-7.93a5.72,5.72,0,0,0-5.6-3.64Zm-9.43,33.68a4.91,4.91,0,0,1-.67-.05c-2.48-.3-5.58-.35-6.34-3.26-.45-1.7.9-2.13,2.22-2.13a6.59,6.59,0,0,1,1,.08c2.47.38,5,.9,6.37,3.45a2.41,2.41,0,0,1-2.6,1.91Z"/><path class="cls-2" d="M234.75,250c.25,0,.42,0,.55,0s.15.4.26.78c2.85,10.61,10.31,17.39,21.58,19.61,1.48.29,3.4.9,4.16,2.16s.42,3.27,0,4.72a49.31,49.31,0,0,0-2.18,10.2c0,.22,0,.42-.05.59l-.62-.34a27.42,27.42,0,0,0-13.67-3.81,24.54,24.54,0,0,0-22.41,14.81c-3.2,7-3.27,14.21-.29,20.15a19.64,19.64,0,0,0-11.68-3.6v-9.1c0-18.3,0-37.21,0-55.83V250H211c3.92.07,7.88.11,11.76.11s7.95,0,11.87-.11h.16m0-4h-.24q-5.89.1-11.79.11T211,246h-.28c-3,0-4.43.95-4.41,4.38.11,21.67.06,43.35,0,65,0,2.18.27,3.89,3,3.89h.75c9.07,0,14.2,5.36,17.54,15.1,1.57-6.2,2.81-10.23-.65-15-4.09-5.65-3.94-12.57-1-19a20.41,20.41,0,0,1,18.76-12.46,23.25,23.25,0,0,1,11.67,3.27,9,9,0,0,0,4,1.52c1.72,0,2.42-1.61,2.66-4.93a45.5,45.5,0,0,1,2-9.36c1.89-6.35-.42-10.61-7.21-11.95-9.61-1.89-16-7.29-18.49-16.72-.77-2.84-2-3.77-4.67-3.77Z"/><path class="cls-2" d="M330.76,372.77a9.1,9.1,0,0,0,2.74,3.76,15.1,15.1,0,0,0,4.78,3.11,10.18,10.18,0,0,0-2,4.55,11.68,11.68,0,0,0,.2,5.6,9.17,9.17,0,0,0-.92,0,11.16,11.16,0,0,0-4.48,1,10.12,10.12,0,0,0-3.54,2.39,6.37,6.37,0,0,0-2.95-2.34,6.62,6.62,0,0,0-2.55-.53,5.9,5.9,0,0,0-.86.06,7.3,7.3,0,0,0-.67-3.26,7.14,7.14,0,0,0-2.69-3.26,13.75,13.75,0,0,0,2.8-4.72,9.78,9.78,0,0,0,.7-4,8.91,8.91,0,0,0,1.76.17,9.77,9.77,0,0,0,1.6-.13,13.38,13.38,0,0,0,6.05-2.43m3.64-12a2.87,2.87,0,0,0-.75.1,3.51,3.51,0,0,0-2.9,3.41c-.13,4.39-2.73,6.36-6.69,7a5.37,5.37,0,0,1-.95.08c-3.27,0-4.21-3.22-5.44-5.35s-2.06-4-4.46-4a5.22,5.22,0,0,0-.67,0,3.71,3.71,0,0,0-3.14,3.27c-.38,2.67,1.71,3.49,3.54,4.85,2.31,1.72,5.62,3.27,4,7.57-1,2.67-2.23,4.32-4,4.32a4.72,4.72,0,0,1-2.43-.84,9.42,9.42,0,0,0-1.59-.15,3.21,3.21,0,0,0-3.19,1.81,3.85,3.85,0,0,0,.2,4,3.12,3.12,0,0,0,2.78,1.6,6.13,6.13,0,0,0,2-.4,12.77,12.77,0,0,1,3.8-1.15,2.54,2.54,0,0,1,2.41,1.82c1.33,3.05-1.84,4.46-3.5,6.3-.35.38-1.13.34-1.65.61a3.73,3.73,0,0,0-2.14,4.46,3.16,3.16,0,0,0,2.81,2.73,8.53,8.53,0,0,0,1.11.08,3.4,3.4,0,0,0,3.42-2.09,16.9,16.9,0,0,1,2-3.66c.89-1.08,1.65-2.83,3.18-2.83a2.49,2.49,0,0,1,1,.22c2.49,1.05,1.25,3.43,1.26,5.3,0,.54-.49,1.07-.68,1.64-.61,1.85-.58,3.61,1.22,4.81a4.57,4.57,0,0,0,2.49.88,3.44,3.44,0,0,0,2-.67c1.83-1.27,1.89-3.09,1.34-4.83-.93-2.92-2.18-5.38,2-7.21a7.31,7.31,0,0,1,2.89-.7c2.31,0,3.6,1.75,5.13,4.05,1.12,1.69,2.5,2.51,3.79,2.51a3.68,3.68,0,0,0,3.27-2.49c1.53-3.41-.7-4.74-3.39-5.67-3.51-1.22-4.86-3.25-4.14-7.26.64-3.56,2.75-4.33,5.33-4.33h.62c.3,0,.58,0,.86,0,2.05,0,3.65-.42,4.52-2.64.69-1.77-.08-3.16-1.38-4.22a3.6,3.6,0,0,0-2.33-1,5.68,5.68,0,0,0-3.52,1.78,5.13,5.13,0,0,1-3.38,1.55c-1.61,0-3.11-1.06-4.83-2.58-3.35-2.95-1.08-4.22.72-6.11a3.7,3.7,0,0,0,.38-4.93,3.49,3.49,0,0,0-2.84-1.77Z"/><path class="cls-2" d="M352.85,215.29l9.3,6c11.41,7.36,23.2,15,34.87,22.38a7,7,0,0,1,.76.53l-.12.18a24.48,24.48,0,0,0-15.89-6,27,27,0,0,0-7.22,1l-.15,0a6.43,6.43,0,0,1-1.7-1l-.78-.56a9.27,9.27,0,0,0-5.05-2,5.06,5.06,0,0,0-3.6,1.48c-1.62,1.63-1.83,3.94-1.82,5.78a17.37,17.37,0,0,0,.13,1.93,7.83,7.83,0,0,0-2.95-1.8c-5.2-1.67-5.5-4.3-5-11.4.1-1.45.2-3,.18-4.43v-.14a61.23,61.23,0,0,0-.94-12m-6.94-8.84a2.81,2.81,0,0,0-1.46.47c5.2,6,5.25,13.06,5.34,20.56.09,7.08-3,16.18,7.62,19.59,2.14.68,3.35,4.15,5.53,4.15a2.56,2.56,0,0,0,1.13-.29c2.78-1.39,1.39-5.13,1.38-7.82,0-2.36.51-3.24,1.42-3.24a5.93,5.93,0,0,1,2.79,1.31c1.47,1,2.87,2.26,4.74,2.26a4.28,4.28,0,0,0,1.24-.18,22.7,22.7,0,0,1,6.13-.88,20.78,20.78,0,0,1,14,5.64,3.64,3.64,0,0,0,2.22,1.14c.87,0,1.59-.67,2.5-1.83,2.39-3,2.07-4.89-1.3-7-17.08-10.83-34-21.87-51-32.81a4.11,4.11,0,0,0-2.21-1Z"/><path class="cls-2" d="M267.94,328.25c.5,0,1.26,0,2.51,1.69a67.77,67.77,0,0,0,8.2,8.86,2.62,2.62,0,0,1,.53.6h0a2.82,2.82,0,0,1-.22,1c-.54,1.67-1.1,3.38-1.51,4.3-1.05-.23-2.85-.85-4.12-1.3a18.43,18.43,0,0,0-6-1,19.44,19.44,0,0,0-5,.66,18.09,18.09,0,0,0,3.19-14.7s0-.07,0-.1l.63.07.56.06.55-.09a3.6,3.6,0,0,1,.7-.07m-3.43-4c-2.45,0-3.8.93-2.89,5,1.25,5.61-1,10.59-5.23,14.59-1.33,1.26-3.85,2.19-1.85,4.72a2.43,2.43,0,0,0,1.92,1.12c1.16,0,2.28-1,3.36-1.49a18.57,18.57,0,0,1,7.49-1.77,14.26,14.26,0,0,1,4.71.8c2.88,1,4.74,1.61,6.06,1.61,2.35,0,3-1.95,4.69-7.16.8-2.46.5-4-1.38-5.79a62.76,62.76,0,0,1-7.73-8.33c-1.61-2.17-3.39-3.3-5.72-3.3a8.26,8.26,0,0,0-1.36.12,20,20,0,0,0-2.07-.14Z"/><path class="cls-2" d="M361.45,388.72a6.6,6.6,0,0,1-.12.92,3.78,3.78,0,0,1-.42,1.16,1.55,1.55,0,0,1-.1-1c.21-.35.43-.69.64-1M364,373.65a1.86,1.86,0,0,0-2,2c0,4.61-2.26,8.23-4.61,12-1.52,2.46-.16,6.28,2.08,7.23a3.78,3.78,0,0,0,1.42.3c2.23,0,3.88-2.35,4.35-4.79s.1-5.15.1-7.74h.13c0-2.19.06-4.38,0-6.56,0-.89.35-2.21-1-2.41a2.25,2.25,0,0,0-.44,0Z"/><path class="cls-2" d="M260.9,378.62a21.68,21.68,0,0,0-3.53.33c4.62,3.23,9.59,5.26,10.57,9.83,1.18,5.53,4,6.74,7.36,6.74,2,0,4.1-.41,6.22-.61a30.92,30.92,0,0,1-14.13-13.1c-1.36-2.32-3.59-3.19-6.49-3.19Z"/></svg>