<svg id="Layer_1" data-name="Layer 1" xmlns="http://www.w3.org/2000/svg" viewBox="0 0 1048.01 615.36"><defs><style>.cls-1{fill:#dbe8f7;}.cls-2{fill:#eaf3fb;}.cls-3{fill:#c3d0eb;}.cls-4{fill:#a0aed9;}.cls-5{fill:#d1e3f5;}.cls-6{fill:#751113;}.cls-7{fill:#be1e2d;}.cls-8{fill:#d63044;}.cls-9{fill:#fee1c9;}.cls-10{fill:#234f9d;}.cls-11{fill:#accbeb;}.cls-12{fill:#fff;}.cls-13{fill:#93c5ea;}.cls-14{fill:#faab77;}.cls-15{fill:#1a3763;}.cls-16{fill:#1e3966;}.cls-17{fill:#447bbf;}.cls-18{fill:#f89e63;}.cls-19{fill:#231f20;}.cls-20{fill:#f79134;}.cls-21{fill:#254790;}.cls-22{fill:#2b3a68;}.cls-23{fill:#f79351;}.cls-24{fill:#8096cc;}.cls-25{fill:#243962;}</style></defs><path class="cls-1" d="M1027.33,615.36l-390.95-.13-603.21-.18S-37.18,496.78,27,337C68.88,232.81,153.5,156,298.76,203c29.93,9.68,76.73,3.5,136.91-36.49q4.59-3,9.11-6.35,2.48-1.81,4.92-3.7A239.75,239.75,0,0,0,505.16,96a186.37,186.37,0,0,1,31.75-37.46A199.07,199.07,0,0,1,560.8,40q8.07-5.32,16.65-9.91A238.39,238.39,0,0,1,626,10.78c1.66-.47,3.32-.91,5-1.35,3.89-1,7.81-1.92,11.76-2.76,2.72-.58,5.44-1.11,8.18-1.61,3.35-.6,6.74-1.16,10.13-1.64h0Q675,1.42,689.2.7c1.79-.09,3.59-.16,5.39-.22L698,.38q5.28-.1,10.59-.06c88.25.9,180.59,37.55,236.81,103.53,28.31,33.22,47.47,73.87,52.33,121.13a244.68,244.68,0,0,1-.71,55l-.21,1.73c-.12.93-.25,1.87-.38,2.81q-.74,5.28-1.7,10.66c-1.42,8-2.39,16.31-5.41,24.29C926.83,484.77,1106.9,470.1,1027.33,615.36Z"/><rect class="cls-2" x="441.48" y="408.29" width="32.2" height="185.71" rx="6.77"/><rect class="cls-2" x="485.36" y="408.29" width="32.2" height="185.71" rx="6.77"/><rect class="cls-2" x="529.25" y="408.29" width="32.2" height="185.71" rx="6.77"/><rect class="cls-2" x="573.13" y="408.29" width="32.2" height="185.71" rx="6.77"/><rect class="cls-2" x="617.02" y="408.29" width="32.2" height="185.71" rx="6.77"/><rect class="cls-2" x="660.91" y="408.29" width="32.2" height="185.71" rx="6.77"/><path class="cls-2" d="M698,.38v371.3H444.78V160.11q2.48-1.81,4.92-3.7A239.75,239.75,0,0,0,505.16,96a186.37,186.37,0,0,1,31.75-37.46A199.07,199.07,0,0,1,560.8,40q8.07-5.32,16.65-9.91A238.39,238.39,0,0,1,626,10.78c1.66-.47,3.32-.91,5-1.35,3.89-1,7.81-1.92,11.76-2.76,2.72-.58,5.44-1.11,8.18-1.61,3.35-.6,6.74-1.16,10.13-1.64h0Q675,1.42,689.2.7c1.79-.09,3.59-.16,5.39-.22Z"/><path class="cls-3" d="M698,.38l-3.45.1V365.74H449.7V156.41q-2.44,1.89-4.92,3.7-4.51,3.3-9.11,6.35V380.74h273V.32Q703.32.27,698,.38Z"/><path class="cls-3" d="M427.25,367.59H718.13a5.71,5.71,0,0,1,5.71,5.71v8.2a0,0,0,0,1,0,0H421.39a0,0,0,0,1,0,0v-8.06A5.85,5.85,0,0,1,427.25,367.59Z"/><path class="cls-3" d="M577.45,30.13V370.39H560.8V40Q568.87,34.72,577.45,30.13Z"/><path class="cls-4" d="M571.85,198.79h-1.34a1.67,1.67,0,0,1-1.66-1.63L568.26,178a1.67,1.67,0,0,1,1.66-1.74h2.57a1.67,1.67,0,0,1,1.66,1.75l-.63,19.12A1.68,1.68,0,0,1,571.85,198.79Z"/><polygon class="cls-5" points="672.78 191.31 694.67 194.3 671.95 365.85 650.06 362.86 672.78 191.31"/><polygon class="cls-6" points="672.35 362.81 671.95 365.85 650.06 362.86 650.46 359.83 672.35 362.81"/><polygon class="cls-6" points="694.87 192.78 694.47 195.82 672.58 192.83 672.98 189.8 694.87 192.78"/><path class="cls-7" d="M662.42,353.66a4,4,0,0,1-3.41-4.53,4,4,0,1,1,3.41,4.53Z"/><path class="cls-7" d="M681.05,213a4,4,0,0,1-3.4-4.54,4,4,0,1,1,3.4,4.54Z"/><path class="cls-7" d="M662.83,266.44a11,11,0,0,1-2.82,21.3Z"/><rect class="cls-6" x="526.83" y="355.58" width="71.5" height="10.26" rx="2.16"/><rect class="cls-7" x="471.29" y="299.83" width="82.16" height="66" rx="13.88" transform="translate(1024.73 665.65) rotate(-180)"/><path class="cls-7" d="M535.47,300.12s-17-10.85-33.31-11c-10.6-.07-22.69,10.5-23.42,10.62-1.84.29,6.15.38,6.15.38s12-7.07,17.35-7.23c6.48-.2,23,7.81,23,7.81Z"/><rect class="cls-8" x="463.3" y="299.83" width="82.16" height="66" rx="13.88" transform="translate(1008.76 665.65) rotate(-180)"/><path class="cls-2" d="M754.25,475.1H662.72v-5.74h91.53a17.52,17.52,0,0,0,17.5-17.49V7.68h5.73V451.87A23.26,23.26,0,0,1,754.25,475.1Z"/><rect class="cls-2" x="724.48" y="471.7" width="5.74" height="139.54"/><polygon class="cls-4" points="710.73 611.24 612.65 611.24 608.98 529.75 714.06 529.75 710.73 611.24"/><rect class="cls-3" x="605.4" y="529.3" width="110.67" height="3.61" rx="0.76"/><rect class="cls-3" x="619.94" y="557.12" width="82.94" height="22.36"/><polygon class="cls-8" points="769.81 611.24 685.46 611.24 682.31 508.08 772.67 508.08 769.81 611.24"/><rect class="cls-7" x="679.23" y="505.37" width="95.17" height="7.92"/><rect class="cls-9" x="691.73" y="542.73" width="71.33" height="28.3"/><path class="cls-8" d="M350,603.84l85.65-15.57v24.18H349.6S350.42,603.43,350,603.84Z"/><rect class="cls-7" x="435.66" y="588.27" width="58.19" height="24.18"/><rect class="cls-10" x="784.76" y="245.07" width="7.45" height="29.19" rx="3.67" transform="translate(-40.2 308.74) rotate(-21.62)"/><rect class="cls-10" x="764.39" y="235.92" width="35.03" height="14.29" rx="4.04" transform="translate(-34.55 305.15) rotate(-21.62)"/><rect class="cls-11" x="761.1" y="225.79" width="35.02" height="17.9" transform="translate(1588.94 166.13) rotate(158.38)"/><path class="cls-12" d="M760.8,237s3.51,1.13,7.6-1.71,2.17-5.09,7.09-4.34,9.18-1.42,9.93-3.42,8.6-1.59,8.6-1.59l-2.43-6L759,232.87Z"/><path class="cls-13" d="M793.43,269.53a1,1,0,1,1-1.79.71,1,1,0,0,1,1.79-.71Z"/><path class="cls-14" d="M779.77,174.85s-5.44-11.3-9.86-14.81-16.19-2.65-16.64-1.75c-1.41,2.77,9.45,7.1,10.7,9.65s-4,2.3,0,6.73c3.37,3.74,11.45,7.31,11.45,7.31Z"/><path class="cls-6" d="M775.07,173.56c2.86-4.45,3.71-4.69,3.71-4.69s47.31,18.87,51.82,20.45,72,5.54,72,5.54L923,239.63S833,219.12,821.67,214.9c-18.77-7-48.88-34.25-48.88-34.25A14.69,14.69,0,0,1,775.07,173.56Z"/><path class="cls-15" d="M892.58,592.14s-1,16.6-4.11,20.51H841c.3-1.66,1.64-5.75,7.58-6.78,7.49-1.31,20-6.57,24.58-16.48C878,579,892.58,592.14,892.58,592.14Z"/><path class="cls-15" d="M976.78,589.82s3,21.57-1.1,21.94c-.54,0-18,0-24.9,0-8.53,0-22.16.06-22.16.06a2.24,2.24,0,0,1-2-3.36,9,9,0,0,1,6.45-4.13c7.47-1.44,19.92-6.93,24.29-16.92C961.93,576.91,976.78,589.82,976.78,589.82Z"/><path class="cls-16" d="M870.27,371.15S882.2,412.9,916.4,485.4s36.83,105.53,36.83,105.53l23.55-1.11S974.57,503.53,958.42,467,939,330.25,939,330.25Z"/><path class="cls-17" d="M851.12,335.23s-1,64.65,10.23,144,7.4,113.06,7.4,113.06l26.78.89s16-79.4,11.42-119.13,21.92-136.32,21.92-136.32Z"/><path class="cls-14" d="M904,184l-12.64,9.36-18.26-3.85c.25-1.66,1.46-8.57,2.56-14.82.06-.37.13-.73.19-1.09l1.75-9.89,17.06-8.5L901,152c0,.11-.5,5.9-.56,6.75C899.24,173.76,904,184,904,184Z"/><path class="cls-6" d="M874.36,179.24c.4-.17,24.84-7.38,27.49-6.51s4.23,6,4.23,6l-37.73,10.74S869.25,181.39,874.36,179.24Z"/><path class="cls-7" d="M940.17,343.21c-4.14,18.9-90.51-40.39-89.36-51.93.13-1.26.26-2.54.38-3.81,1.6-16.05,3.13-31.76,3.23-42a144.68,144.68,0,0,1,3-26.25c1.49-7.62,3.34-14.55,4.94-19.94a22.05,22.05,0,0,1,12.93-14.16,22.57,22.57,0,0,1,2.14-.75c10.4-3,24.79-6.75,28.7-5.61,10.57,3.11,18.42,21.71,24,45.43C940.46,268.57,942.87,330.9,940.17,343.21Z"/><path class="cls-18" d="M899.16,159c-3.75,7.17-17.7,13.37-23.52,15.64.06-.37.13-.73.19-1.09l1.75-9.89,17.06-8.5C898.41,155.11,900.7,156.06,899.16,159Z"/><path class="cls-14" d="M869.3,162.67s30.76,9.6,36.45-9.66,13.48-31-5.93-37.92-25.4-.73-28.86,5.24S861.44,159.68,869.3,162.67Z"/><path class="cls-19" d="M872.16,118.48s2,22.4,6.6,21.43,8.84-1.7,8.16,5.06-7.11,14.55,7.17,15.74,34.81-35.63,30.89-42.6C913.66,98,855.81,93.93,872.16,118.48Z"/><path class="cls-6" d="M853.42,335.23c8.55,3.09-.15-8.5,0-10.91.66-10.63-3.5-24.06-2.23-36.85l52.24-31.22S915.83,334.74,853.42,335.23Z"/><path class="cls-17" d="M940.17,343.21c-22.3,41.33-25.86,57.11-25.86,57.11-19.4-2.21-52.66-40.36-63.21-50.55,0,0-1.44-46.95-.29-58.49l16.13-.46s29.14,7.38,36.69-2.64S907.91,229,907.91,229l22.15-4.79C940.46,268.57,946.15,332.12,940.17,343.21Z"/><path class="cls-14" d="M807.85,264s-10.62-7.18-12.63-7.8-3.2-3.75-3.54-4.24c-1.21-1.74-1.8,1.37-1.26,2.52.63,1.34,1.54,3.25-1.41,2.82-.57-.08-5.38-.2-6.38,2s-1.89,9.79,3.21,12.09,17.66.22,18.56.48C812.09,274.14,807.85,264,807.85,264Z"/><path class="cls-8" d="M807.75,262.07s51.81,8.81,56.4,6.57c7.33-3.56-2.85-56.13-2.85-56.13s-.43-11.91,13.48-14.72c12.1-2.44,23.76,6.61,23.76,6.61s10.61,9.5,9.26,20c-3,23.34-7.68,70.82-23.29,78.1-20.14,9.38-78.41-26-78.41-26a10.22,10.22,0,0,1-1.67-6.79C804.68,265.82,807.75,262.07,807.75,262.07Z"/><path class="cls-17" d="M912.21,228l-4.3.93s-9.07-39.28-39.56-39.47a22,22,0,0,1,6.89-4.39C886.41,188.1,905.81,197.65,912.21,228Z"/><path class="cls-10" d="M775.74,163.5l-18,10.69a3.46,3.46,0,0,1-4.75-1.11l0-.08a3.46,3.46,0,0,1,1.3-4.7l18-10.68a3.45,3.45,0,0,1,4.75,1.1l0,.08A3.46,3.46,0,0,1,775.74,163.5Z"/><path class="cls-10" d="M756.57,198.58l-24.31-40.9a5.42,5.42,0,0,1,1.89-7.41l2.46-1.46a5.44,5.44,0,0,1,7.42,1.88l24.3,40.9a5.43,5.43,0,0,1-1.89,7.42L764,200.47A5.42,5.42,0,0,1,756.57,198.58Z"/><polygon class="cls-11" points="765.21 199.74 750.47 208.5 720.64 158.3 723.68 156.49 735.38 149.54 765.21 199.74"/><path class="cls-12" d="M754.67,205.82l-4.2,2.68-29.82-50.2,3-1.81c1.75,1.27,9.57,7.26,10.17,13.78.66,7.34,9.68,12.27,9.93,16.15s0,9.51,4.75,11.14S754.67,205.82,754.67,205.82Z"/><path class="cls-13" d="M773.59,159.73a.92.92,0,1,1,.94,1.58.92.92,0,1,1-.94-1.58Z"/><path class="cls-14" d="M768,171.56c-.06-.05-2.4-2.87-4.7-5.6-1.7-2-2.75-4.61-3.49-5.39-1.74-1.83-3.23,2.3-.64,7.53a27.39,27.39,0,0,0,7.67,9C768.25,178.08,768,171.56,768,171.56Z"/><path class="cls-3" d="M368,433.86a1.4,1.4,0,0,1-.72-1.85l6.25-14.29a2.25,2.25,0,0,0-1.15-3L340.91,401a5,5,0,0,1-2.6-6.65L343,383.6a5,5,0,0,1,6.65-2.6l13.05,5.71a1.41,1.41,0,1,1-1.12,2.58l-13.06-5.72a2.24,2.24,0,0,0-2.94,1.16l-4.71,10.76a2.23,2.23,0,0,0,1.15,2.94l31.46,13.76a5.07,5.07,0,0,1,2.6,6.66l-6.25,14.29A1.4,1.4,0,0,1,368,433.86Z"/><rect class="cls-20" x="358.87" y="424.14" width="22.5" height="8.24" rx="2.38" transform="translate(-170.59 595.7) rotate(-66.37)"/><path class="cls-3" d="M416.86,405.9,412.44,416a5.21,5.21,0,0,1-6.86,2.68l-52.34-22.9a5.2,5.2,0,0,1-2.68-6.85L355,378.83a5.2,5.2,0,0,1,6.85-2.68l52.35,22.9A5.2,5.2,0,0,1,416.86,405.9Z"/><path class="cls-2" d="M383.26,360.34h3.8a5.2,5.2,0,0,1,5.2,5.2v57.14a5.2,5.2,0,0,1-5.2,5.2h-3.8a5.2,5.2,0,0,1-5.2-5.2V365.54A5.21,5.21,0,0,1,383.26,360.34Z" transform="translate(-130.29 589.01) rotate(-66.37)"/><path class="cls-14" d="M273.82,446.87s11.39,1.65,14,4.62,4.29,5.27,2.64,6.59S263.76,453,263.76,453Z"/><path class="cls-6" d="M246.44,406.62l30.68,39.26s-2.64,5.28-11.22,6.26-26.72-4.61-26.72-6.26S246.44,406.62,246.44,406.62Z"/><path class="cls-21" d="M343.56,491.66c-8.92,10.28-27.74,16.93-64.05,18.62-2.92.13-5.85.25-8.8.34s-6.07.15-9.11.19c-9.87.14-19.69,0-29-.29-9.07-.31-17.72-.81-25.54-1.46-15.32-1.27-27.54-3.12-33.85-5.25a11.92,11.92,0,0,1-4-2,6.71,6.71,0,0,1-1.57-2c-2.29-4.25-1.09-11.21,1.67-18.89,4-11.16,11.44-23.83,16.42-31.75,1-1.58,1.89-3,2.65-4.12,1.52-2.33,2.46-3.69,2.46-3.69S207.75,443,231,446c4.74.61,9.74,1.29,14.91,2,49.92,7.06,99.67,19.75,99.62,36.59C345.49,487.13,345.66,489.24,343.56,491.66Z"/><path class="cls-22" d="M281.74,510.07c-3,.1-17.1.7-20.14.74-9.87.14-19.69,0-29-.29l-8.8-35.45C237.37,494.05,277.37,508.85,281.74,510.07Z"/><path class="cls-22" d="M252.33,613.05h48.4c-.76-1.85-2.61-4.25-7.1-5-7.62-1.34-20.85-5.46-19.16-16.47S257.63,579,257.63,579,249.9,608.8,252.33,613.05Z"/><path class="cls-21" d="M344.34,489.84s-60,94.45-65,105.68c0,0-20.43,1.9-25.34-12.7,0,0,35.69-99.67,51.37-107.89S344.34,489.84,344.34,489.84Z"/><path class="cls-14" d="M223.27,291s20.67,28.3,39.1,29.81c0,0-2.35-10.65-7.79-17.36,1.46-2.36,2.73-4.52,3.82-6.44a110.88,110.88,0,0,0,5.23-10.25l-8.48-15.34-1.75-8.24a55.75,55.75,0,0,1-5,10.39A39.25,39.25,0,0,1,223.27,291Z"/><path class="cls-23" d="M247.61,273.39s-3,14.18,10.79,23.6a110.88,110.88,0,0,0,5.23-10.25l-8.48-15.34C248.38,270.4,247.61,273.39,247.61,273.39Z"/><path class="cls-14" d="M266.2,295.29s-25.93-14.13-16.88-30.15,11.79-28.62,28.73-20.28,16.68,16.26,15,22.34S273.18,298.55,266.2,295.29Z"/><path class="cls-19" d="M249.41,233.26c-.14-.4-.65-.88-1.95-1.46a5.7,5.7,0,0,1,2.76.24c1-1.77,3.28-4.71,6.77-4.29a4.3,4.3,0,0,0-3.06,2.18c5.17-2.43,14.16-2.17,35.37,8,27.95,13.46,11.2,28.55,6.6,29.34s-11.63-9-18.8-11.1-12.44,7.58-15.35,8.07-1-1.63-3.64-4.33-5,2.55-5.44,6.4-6.59,6.77-6.59,6.77l-2.56-6.56c-2.56-6.57,1.19-28.72,4.9-32.33C248.75,233.91,249.08,233.58,249.41,233.26Z"/><path class="cls-16" d="M94.57,582.17s-6,9.15-7.44,12.12,1.35,9.28,5.49,10.23c3.65.84,4.19,7.31,4.19,7.31H79.13a4.66,4.66,0,0,1-4.28-2.62c-2.5-5.49-3.07-12.63-3.57-15-1-5-3.14-9.23-2.22-14.34s9.63-8.05,25.51-8C112,571.91,94.57,582.17,94.57,582.17Z"/><path class="cls-7" d="M146.56,471.78c13.34,14.13,111.27-15.11,103.06-22.56-2.09-1.89-1.37-4.16-2.22-7.21-4.07-14.46,4-39.19,7.49-48.78.81-2.22,1.37-3.63,1.47-3.91A168.57,168.57,0,0,0,263.91,362c3.23-17.28,3.17-33.34-1.25-43.19,0-.05,0-.1-.06-.13-18.35-5.37-28.45-32.35-28.45-32.35S176,302.87,154.94,385.8c0,0-1.09,5.28-2.43,13.22h0c-.4,2.43-.84,5.12-1.27,8-2.26,14.76-3.56,33.68-4.9,47.77-.05.49-.1,1-.15,1.49C145.51,462.34,144.35,469.43,146.56,471.78Z"/><path class="cls-21" d="M223.68,457.75s-9.77,1.29-29.46,2.74c-20.4,1.51-42,4.73-45.54,11.58-1.16,2.27-.35,8,1.92,15.95,5,17.55,17.23,45.8,31.15,70.84-35.77,2.07-84.43,10-84.43,10a21.39,21.39,0,0,0-4.62,19.53c2.55,0,10.23,1.11,20.7,2.8,37.95,6.11,84.17,18.67,112.83,18.67,6.27,0,11-4.45,12.87-10.27h0C250.87,563.71,223.68,457.75,223.68,457.75Z"/><path class="cls-22" d="M150.6,490.69c19.74-.63,69.26-24.94,68.45-25.13a235.92,235.92,0,0,0-24.83-4.83c-20.4,1.65-42,5.14-45.54,12.6C147.52,475.8,148.33,482.05,150.6,490.69Z"/><path class="cls-6" d="M214,343s1.14,89.82,33.4,99c-4.07-14.46,4-39.19,7.49-48.78C246.58,370.13,231.27,346.83,214,343Z"/><path class="cls-21" d="M224.4,290.41s24.84,5.17,27.27,26.93c1.77,15.86-15.57,51.76-15.57,51.76l-3.3-3.3s15.22-44.33,12.88-51.87c-3-9.67-17.29-24.13-30.42-18.35Z"/><path class="cls-21" d="M146.56,471.78c13.34,14.13,113.38-14.8,105.17-22.25A15.47,15.47,0,0,1,247.4,442c-4.07-14.46,4-39.19,7.49-48.78.81-2.22,1.37-3.63,1.47-3.91l-5.05-5.05L232.8,365.8A91.24,91.24,0,0,1,217,379.05a114.35,114.35,0,0,1-64.47,20h0c-.4,2.43-.84,5.12-1.27,8-2.26,14.76-3.56,33.68-4.9,47.77-.05.49-.1,1-.15,1.49C145.51,462.34,144.35,469.43,146.56,471.78Z"/><path class="cls-22" d="M217,379.05c3.7,26.11,12,57.72,30.42,63-4.07-14.46,4-39.19,7.49-48.78-1.08-3-2.27-6-3.58-9L232.8,365.8A91.24,91.24,0,0,1,217,379.05Z"/><path class="cls-14" d="M368.18,438.12c-6,0-17.31-5.51-18.32-5.61-8.62-.83-.31-9.3-.31-9.3s13.54-3,15.81-2.8a23.71,23.71,0,0,1,3.31.63l-1.46,3.47s9.44,1.44,9.56,4.06S371.15,438.12,368.18,438.12Z"/><path class="cls-8" d="M352.21,427.4c2.07-6-.82-7.87-.82-7.87s-59.13-28-64-31.13-37.34-62.29-37.34-62.29S238,301.9,222.69,302.39c-13.34.42-20.75,8.74-24.86,17.45a27.94,27.94,0,0,0,5,31.07c17.71,18.74,53.26,55.84,62.48,61.47,20.5,12.54,81.94,22.67,81.94,22.67A19.94,19.94,0,0,0,352.21,427.4Z"/><path class="cls-24" d="M628.83,571.82c-4.94,22.2-21.76,39.93-37.57,39.62s-24.61-18.55-19.67-40.75,21.77-39.93,37.57-39.61S633.78,549.63,628.83,571.82Z"/><path class="cls-3" d="M625.28,571c-4.94,22.2-21.76,39.94-37.57,39.62S563.1,592.07,568,569.87s21.77-39.93,37.57-39.61S630.22,548.81,625.28,571Z"/><path class="cls-24" d="M589.23,604.81h-.35a16.17,16.17,0,0,1-12.72-6.47c-5.19-6.6-6.78-17.28-4.27-28.56,4.24-19,18.71-34.27,32.28-34a16.14,16.14,0,0,1,12.72,6.47c5.19,6.59,6.78,17.27,4.27,28.56C617,589.67,602.69,604.81,589.23,604.81Zm14.59-68.61c-13.28,0-27.37,15-31.53,33.66-2.48,11.17-.92,21.72,4.19,28.22a15.78,15.78,0,0,0,12.41,6.32h.35c13.27,0,27.36-15,31.52-33.66,2.48-11.17.92-21.72-4.19-28.22a15.77,15.77,0,0,0-12.41-6.31Z"/><rect class="cls-25" y="613.67" width="1048.01" height="1.68" rx="0.84"/></svg>