<svg id="Layer_1" data-name="Layer 1" xmlns="http://www.w3.org/2000/svg" viewBox="0 0 500 500"><defs><style>.cls-1{fill:#fff;}.cls-2{fill:#231f20;}</style></defs><circle class="cls-1" cx="250" cy="250" r="200"/><path class="cls-2" d="M282.72,179.37c1.29,0,2.91,1,4.84,2.94,14,14.27,28.59,28.43,42.69,42.12q6.48,6.3,13,12.6c.46.45.94.9,1.43,1.36a21.08,21.08,0,0,1,3.85,4.24c.33.61.36.78-.07,1.44-.74,1.15-3.76,2.28-6.19,3.2-1.57.59-3.19,1.2-4.73,1.95l-.74.18-1.6.41-3.09.85-.52,3.17c-.83,5.16-1.71,10.42-2.56,15.52-2.14,12.89-4.36,26.22-6.19,39.46-.34,2.51-.85,4.11-1.51,4.75s-2.81.93-4.38.93h-.23c-14.18-.13-29.58-.19-48.47-.19q-16.17,0-32.36,0t-32.33,0h-1.35c-1,0-2-.06-3.14-.15l1-9.8.55-5.2h-.13a13.94,13.94,0,0,0,2.16-7.9,44.88,44.88,0,0,1,.83-6.86c.2-1.1.39-2.24.56-3.4.76-5.32,1.37-9.52-1.29-12.7a8,8,0,0,0-3-2.22,27,27,0,0,0,4.64-2.74c1-.65,1.87-1.27,2.79-1.79l5.86-3.28-4.82-4.67c-.87-.84-1.42-1.41-1.83-1.83a8.8,8.8,0,0,0-2.42-1.95,42.92,42.92,0,0,0-4.68-1.91,21.31,21.31,0,0,1-4.4-1.92c-.44-1.16-.07-2.5,5.52-6.42,2.61-1.83,5.05-3.83,7.41-5.76,1-.83,2-1.66,3.05-2.47l2.48-2-.72-3.08-.29-1.27a44.12,44.12,0,0,0,20.8-9.1c6.33-4.89,12.81-9.82,19.07-14.58,8.31-6.32,16.9-12.85,25.27-19.4,2.26-1.77,4-2.62,5.27-2.62M272.85,236l-2.21-.54a46,46,0,0,0-10.89-1.58c-5,0-8.94,1.49-11.66,4.42-3.66,3.95-4.94,10.16-4.17,20.11l.25,3.2c-3,3.79-3.54,9.14-3.84,12.39-.34,3.78,2.29,8.18,4.14,10.21a7.31,7.31,0,0,0,5.38,2.73h0a20,20,0,0,1,3,.42A27.26,27.26,0,0,0,258,288a10.84,10.84,0,0,0,6.85-2.22l3.14.57a57,57,0,0,0,10,1.08c5.52,0,9.52-1.47,12.24-4.5,4.36-4.85,4.19-12.67,3.45-19.69l-.24-2.22c3.82-3.61,4.08-9.62,4.28-14.47.16-3.77-2.66-7.75-4.17-9.33a7.38,7.38,0,0,0-5.31-2.61h-.34a19.27,19.27,0,0,1-3-.4,27.42,27.42,0,0,0-5-.59,10.77,10.77,0,0,0-7,2.38m9.87-61.64c-2.67,0-5.34,1.33-8.35,3.68-14.66,11.46-29.59,22.59-44.32,34a38.85,38.85,0,0,1-24.17,8.56c-16.3.2-32.6,1.3-48.9,2,0,.74,0,1.47,0,2.2h50.12c.21.89.41,1.78.62,2.67-3.4,2.7-6.68,5.57-10.22,8.05-4.59,3.22-9.69,7.13-7.12,12.8,1.4,3.07,7.4,4.05,11.3,6,.47.23.8.74,3,2.9-3.42,1.91-6.11,4.61-9,4.83-12.11.9-24.27,1-36.41,1.5-14.66.55-29.32,1.15-44,1.72,24.83,2.68,49.63,3.61,74.43,4.49,10.39.37,10.72.7,9.31,10.56-.52,3.63-1.4,7.27-1.44,10.91-.08,6.36-3.33,7.88-9.15,8-13.14.19-26.27,1-39.4,1.61v.37l46,2.7c-.55,5.22-1,9.59-1.56,14.89,3.66.26,6.15.58,8.65.58h1.35c21.57,0,43.13-.08,64.69-.08q24.21,0,48.42.19h.28c7.53,0,9.88-2.94,10.85-10,2.53-18.41,5.79-36.72,8.73-54.86a22.61,22.61,0,0,0,3.13-.88c4.48-2.2,10.65-3.34,13-6.95,3.55-5.45-2-9.58-5.91-13.35-18.6-18.14-37.37-36.11-55.58-54.64-3-3.08-5.71-4.44-8.4-4.44Zm1,84.84a86.68,86.68,0,0,1-12-1.28c.69-5.12.7-10,2.09-14.43,1.22-3.89,3.5-4.87,6.09-4.87s5.55,1,8,1h.34c1.51,0,4.58,4.44,4.49,6.73-.41,9.63-1.57,12.86-9.06,12.86ZM259,259.12A64.11,64.11,0,0,1,248.9,258c-1-13.44,1.79-19.14,10.85-19.14a41.79,41.79,0,0,1,9.7,1.43c.5,14.08-1.19,18.8-10.42,18.8ZM249.85,282c-1.59,0-4.76-5-4.54-7.49.8-8.72,2.86-12.26,9.33-12.26a50.24,50.24,0,0,1,11.63,2c-.67,4.58-.81,9.42-2.17,13.88C262.9,282,260.61,283,258,283s-5.66-1.06-8.13-1.06h0Zm28.16.49a52.54,52.54,0,0,1-9.12-1c.2-15.28.39-18.8,7.59-18.8,2.85,0,6.78.55,12.25,1.14,1.42,13.47-1,18.66-10.72,18.66Z"/><path class="cls-2" d="M347.08,279.49,345.15,291l-2.4,14.25-.87,5.18,5.22.62,38.55,4.56c-.13,1.7-.33,3.39-.58,5.07-.07.48-.19,1-.32,1.6-.18.79-.38,1.68-.51,2.65a61.7,61.7,0,0,0-.37,6.88c-.05,2.25-.12,5.89-.59,7.26a12.9,12.9,0,0,1-5.27.79c-1.52,0-3.13-.09-4.83-.19s-3.6-.21-5.4-.21l-1.11,0c-4.06-9-9.52-17.64-19.88-17.64A23.54,23.54,0,0,0,340,322.9c-5.57,1.66-10,5.45-14.27,9.12-1.8,1.55-3.51,3-5.23,4.26-.7.51-1.35,1.05-2,1.57a19.47,19.47,0,0,1-1.78,1.4c-8.92.18-17.69.2-24.37.2l-11.25,0h-7.75A37.83,37.83,0,0,0,267,328.79c14.72,0,29.46.13,43.86.21l10.85.06h.3c6.72,0,13.11-1.51,14.3-12.46,1-9.46,2.72-18.79,4.51-28.67.51-2.75,1-5.57,1.52-8.43h4.72m-113,49.29q-.95.68-1.92,1.44c-.49-.5-1-1-1.51-1.43h3.43m-38.13.28a35,35,0,0,0-6.5,7.69,16.38,16.38,0,0,1,0-2.78c0-.75.06-1.6.06-2.54v-2.28l2.56,0,3.91-.05m162.93-54.61c-6.74,0-13.61.06-20.73.06-2.43,14.34-5.31,27.87-6.79,41.55-.74,6.82-3.35,8-9.33,8h-.27c-24.87-.13-49.75-.3-74.63-.3q-27.57,0-55.16.35c-27.62.39-55.22,2.34-82.84,3.59,12.43,1.92,24.85,1.69,37.26,2,12.63.3,25.25,1.13,38.09,1.74,0,2.58-.28,4.55.08,6.39a47,47,0,0,0,2.17,6.41c2.15-1.22,5.23-1.89,6.3-3.73,4.86-8.44,12.69-13.45,20.68-13.45,6.31,0,12.72,3.13,17.85,10.17,7.87-7,14.79-10.48,20.69-10.48,7.65,0,13.59,5.88,17.66,17.68,7.46,0,15,0,22.46,0,8.28,0,16.58,0,24.87-.21,2.08-.05,4.17-2.47,6.17-3.91,6-4.33,11.34-10.66,18-12.64a18.71,18.71,0,0,1,5.38-.88c7.06,0,11.47,5.54,16.54,17.49,1,.05,1.95.15,2.94.15h.39l1.12,0c3.32,0,6.9.4,10.23.4s6.15-.37,8.4-1.83c3.31-2.13,2-11.38,2.79-17.45.18-1.4.61-2.76.82-4.16,2.2-14.6,0-28.74-5.27-42.35-.8-2.06-4.32-4.26-6.65-4.33-6.36-.2-12.73-.26-19.22-.26Zm28.26,36.27-39.46-4.67c1.56-9.26,2.9-17.21,4.41-26.19,4.23,0,8.37-.05,12.48-.05,3.76,0,7.48,0,11.19.22a6.21,6.21,0,0,1,4.44,3.59c2.41,8.24,4.32,16.63,6.94,27.1Z"/><path class="cls-2" d="M201.36,345.31a12.09,12.09,0,0,0-.55,2.06,6.63,6.63,0,0,0,1.81,5.49c0,.05,3.63,4.27,7.2,4.87a10.35,10.35,0,0,1-1.12.09h-.31a7.94,7.94,0,0,1-7.92-8.18,11.09,11.09,0,0,1,.89-4.34M213.49,332h-.26c-9.4.11-17.85,8.56-17.76,17.75a12.91,12.91,0,0,0,12.92,13.13h.49c9.27-.32,17.67-8.92,17.63-18.06,0-8.09-4.84-12.82-13-12.81Zm-2.86,20.85c-.89,0-5.11-3.36-4.89-4.58a9,9,0,0,1,1.14-2.94,5.76,5.76,0,0,1,5-2.9,5.34,5.34,0,0,1,4.47,2.34c.38.56.55,1,.43,1.37-1,2.68-3.56,5.08-6.06,6.68a.2.2,0,0,1-.11,0Z"/><path class="cls-2" d="M345.48,337.12a7.23,7.23,0,0,1,4.64,1.92c1.21,1.28,1.76,3.38,1.66,6.24a11.59,11.59,0,0,1-.85,3.85,11.47,11.47,0,0,0,.31-2.63,10.4,10.4,0,0,0-4.92-8.91,8.85,8.85,0,0,0-.84-.47m-8.84,2.14c-.43.38-.81.75-1.12,1.07a10.86,10.86,0,0,0-3.06,8.16,10.46,10.46,0,0,0,3.79,7.49,6.77,6.77,0,0,0,4.31,1.68l.44,0a9.65,9.65,0,0,1-1.77.17h-.43c-5-.24-8.07-3.56-7.9-8.65a12.6,12.6,0,0,1,5.74-9.89m7.21-7.23c-9.42,0-17.63,7.7-17.94,17-.27,7.79,4.91,13.44,12.65,13.81.22,0,.44,0,.67,0,8.76,0,17.21-8.26,17.55-17.35.31-8.47-4.09-13.2-12.46-13.42Zm-3.29,20.63a2,2,0,0,1-1.15-.56,5.65,5.65,0,0,1-.31-8.28,10,10,0,0,1,3.19-2.36.64.64,0,0,1,.28,0,2.31,2.31,0,0,1,1.11.42,5.69,5.69,0,0,1-.15,9.6,8.63,8.63,0,0,1-2.8,1.21l-.17,0Z"/><path class="cls-2" d="M252.22,337.12a7.51,7.51,0,0,1,4.54,1.93,8.14,8.14,0,0,1,1.92,5.78,10.62,10.62,0,0,1-.26,2.24,7.66,7.66,0,0,0,0-.83,10.1,10.1,0,0,0-4.28-7.92,14.15,14.15,0,0,0-1.93-1.2m-8.85,2.22c-.68.64-1.27,1.27-1.77,1.84a10.28,10.28,0,0,0-2.45,8.42,10,10,0,0,0,4.74,7,7.74,7.74,0,0,0,3.21,1.1,11.5,11.5,0,0,1-1.18.08h-.08a7.78,7.78,0,0,1-8.22-8.16,12.66,12.66,0,0,1,5.75-10.31m7.37-7.3h-.32c-9.59.15-17.85,8.34-17.8,17.63,0,7.67,5.55,13.14,13.22,13.14H246c9.18-.07,17.67-8.68,17.72-17.95,0-8-4.88-12.82-12.94-12.82Zm-3.05,20.71a2.61,2.61,0,0,1-1.25-.42,5.17,5.17,0,0,1-1.09-7.84,14.43,14.43,0,0,1,3.54-3.07.54.54,0,0,1,.29-.07,4.6,4.6,0,0,1,2.08,1,5.24,5.24,0,0,1,.27,8.29,9.17,9.17,0,0,1-3.55,2,1.36,1.36,0,0,1-.29,0Z"/></svg>