<svg id="Layer_1" data-name="Layer 1" xmlns="http://www.w3.org/2000/svg" viewBox="0 0 1048.01 576.14"><defs><style>.cls-1{fill:#dee9f7;}.cls-2{fill:#98b1dc;}.cls-3{fill:#d46928;}.cls-4{fill:#f0a350;}.cls-5{fill:#d76927;opacity:0.4;}.cls-6{fill:#243962;}.cls-7{fill:#faa31c;}.cls-8{fill:#2e3b65;}.cls-9{fill:#447bbf;}.cls-10{fill:#ee9960;}.cls-11{fill:#fab17e;}.cls-12{fill:#be1e2d;}.cls-13{fill:#751113;}.cls-14{fill:#2b488c;}.cls-15{fill:#d63044;}.cls-16{fill:#e27f2b;}.cls-17{fill:#d9935c;}.cls-18{fill:#973334;}.cls-19{fill:#5074b9;}</style></defs><path class="cls-1" d="M979.76,575.22s127.64-137,21.58-285.42C907.24,158.15,797.53,167.15,717,220.57c-34.29,22.76-133.13,2.81-217.26-131.15C385.05-93.26-12.63,17.54,59.88,298.59c35.09,136-106.8,141-34.5,276.92Z"/><path class="cls-2" d="M694.85,42.46H671.63L671.5-1.35l-49.62.15v0L607-1.12h-.1l0,14,.1.07.07,29.52H407.24V574.94H694.85v.19h39.09V42.46ZM413.76,433.66v1h0Zm274.57,66.95-75.89.23v0l-23,.09h-.16l.05,21.59.16.12.11,45.44H413.76V449.16H688.33Zm-213.27-66,.27.06h-.27Zm213.27.06H661.51l-.21-110.78-76.57.24v0l-23,.09h-.16l0,21.59.14.1.14,88.68h23v.05H513.32l-.19-68.26-76.57.24v0l-22.8.08v-51H688.33Zm0-133.48H610.1l-.21-68.26-76.56.24v0l-23,.08h-.16l.06,21.6.16.11.11,46.2H413.76V182.2H688.33Zm0-133.48H413.76V48.72H688.33Z"/><rect class="cls-3" x="372.9" y="462.34" width="105.68" height="119.16" transform="translate(-97.49 946.05) rotate(-89.82)"/><polygon class="cls-4" points="521.24 469.44 425.84 469.08 425.58 574.76 520.97 575.13 521.24 469.44"/><polygon class="cls-5" points="425.58 469.06 521.22 469.43 521.14 503.03 425.32 574.74 425.58 469.06"/><rect class="cls-3" x="297.8" y="502.58" width="67.91" height="76.57" transform="translate(-210.13 870.95) rotate(-89.82)"/><polygon class="cls-4" points="393.11 507.15 331.81 506.91 331.65 574.82 392.94 575.05 393.11 507.15"/><polygon class="cls-5" points="331.81 506.91 393.27 507.15 393.22 528.74 331.65 574.82 331.81 506.91"/><path class="cls-6" d="M615.4,538.8a38.53,38.53,0,0,0-2.17-10c-.22-.59-.45-1.18-.69-1.75-.17-.42-.36-.83-.55-1.24s-.44-.92-.68-1.37-.52-1-.8-1.45a31.4,31.4,0,0,0-4.76-6.26h0a26,26,0,0,0-2-1.82c-.53-.44-1.08-.86-1.64-1.25a24.42,24.42,0,0,0-2.47-1.56c-.32-.17-.63-.34-1-.5a22.73,22.73,0,0,0-8.66-2.34c-.46,0-.92,0-1.38,0H576.12c-14.86,0-26.9,14.75-26.9,32.95s12,33,26.9,33h12.52c.46,0,.92,0,1.38,0a22.73,22.73,0,0,0,8.66-2.34c.33-.16.64-.32,1-.5a24.33,24.33,0,0,0,2.47-1.55c.56-.4,1.11-.81,1.64-1.26a25.87,25.87,0,0,0,2-1.81l0,0a31.62,31.62,0,0,0,4.76-6.25c.28-.48.55-1,.8-1.45s.46-.91.68-1.37.38-.82.55-1.24c.24-.58.47-1.16.69-1.75a38.52,38.52,0,0,0,2.17-10c.09-1.11.14-2.23.14-3.37S615.49,539.91,615.4,538.8Z"/><path class="cls-7" d="M351.33,232.46H345a2.37,2.37,0,0,0-1.07-3.07,2.4,2.4,0,0,0-3,1.59,3,3,0,0,0-.21,1.48H334.6a.77.77,0,0,0-.57.26l-2,2.36a.75.75,0,0,0,.57,1.24h16.73a.77.77,0,0,0,.57-.26l2-2.36A.75.75,0,0,0,351.33,232.46Zm-7.7-.4a.8.8,0,0,1-1,.53.81.81,0,0,1-.34-1.06.79.79,0,0,1,1-.52A.78.78,0,0,1,343.63,232.06Z"/><path class="cls-8" d="M231.67,61.51,211.36,77.43c-1,1.48,1.08,1.56.19,3.4-8.25,16.94-2.71,35.05,4.27,33.22,4.48-1.17,5.75,6.48,5.75,6.48l43.54-35.25S249.12,52.2,231.67,61.51Z"/><path class="cls-9" d="M246.82,560.61l-9.24,3.44s-40.17-55.7-45.11-104.71a74.29,74.29,0,0,1,1.32-25.06l-1.08-6.21c-.32-1.85-.71-4.07-1.16-6.62-1.3-7.49-3.1-17.72-5.15-29.38-4.73-26.82-10.85-61.11-15.61-86.32l2.49-.8,27-8.7,5.58-17.7,20.07-5.28s4.48,8.77,8.49,50.21c.74,5.44,1.42,11.43,1.92,17.93A354.76,354.76,0,0,1,234.39,414q-1.38,10.8-3.52,22.28c-1.06,5.6-1.22,13.23-.77,22C232.12,498.34,246.82,560.61,246.82,560.61Z"/><path class="cls-6" d="M236.3,341.41l-43.59,86.66c-.32-1.85-.71-4.07-1.16-6.62-1.3-7.49-3.1-17.72-5.15-29.38-4.73-26.82-10.85-61.11-15.61-86.32l2.49-.8,27-8.7,5.58-17.7,20.07-5.28s4.48,8.77,8.49,50.21C235.12,328.92,235.8,334.91,236.3,341.41Z"/><path class="cls-9" d="M217.12,284.39l-1-8.65C199.21,280.23,154,263.19,154,263.19s-16.38,14.4-14.23,48.91c1.05,16.84,3,88.42,5,109.6.72,7.67,1.36,13.14,1.62,15.32v0a3,3,0,0,1-.49,1.87,99.45,99.45,0,0,0-7.39,15.55c-19.66,52.37,3,116.87,3,116.87l5.88-2.37s12.91-71.78,23.39-103.49a62.11,62.11,0,0,1,5.06-12.13c4.55-7.36,8.79-19.39,12.63-33.69,7.26-27,13.1-62.21,17-89.36C206,330.31,217.12,284.39,217.12,284.39Z"/><path class="cls-10" d="M350.32,273.34c-3.64,3.22-13.3-7.84-14.63-9.31a.87.87,0,0,0-.14-.21l2.94-8.19s12.67-.49,14.76,1.61S354.3,269.91,350.32,273.34Z"/><path class="cls-10" d="M338.49,255.63l-1.26,8.47s-.56,0-1.54-.07c-3.08-.21-10.57-.63-19-1.54-12.74-1.26-27.86-3.5-33.87-7.21-9.17-5.6-24.22-22.74-34-39.89a9.91,9.91,0,0,1-.7-1.26c-5.11-9.09-8.68-18.12-9-25.33a36.19,36.19,0,0,1,1.19-11.48A29.31,29.31,0,0,1,245.49,167a5.22,5.22,0,0,1,1-1.19,24.06,24.06,0,0,1,6.64-5.67c1.68-.7,3.5.14,5.39,2.17v.07a32.11,32.11,0,0,1,4.83,7.14c.07.07.14.14.14.21.35.63.7,1.33,1.12,2.1a1.75,1.75,0,0,1,.28.49q1.15,2.4,2.31,5c8.61,18.76,17.78,47.17,25.4,55.64,3.29,3.64,18.34,10.77,30.3,16.09C331.49,252.83,338.49,255.63,338.49,255.63Z"/><path class="cls-11" d="M249.42,179.43A52.63,52.63,0,0,1,230,184c-29.06,1.59-35.66-23.89-36.86-40.8a24.38,24.38,0,0,1,10-1.26c2.06.11,4.21.32,6,.54,3.55-1.85,9.94-10.88,13.63-26l1.25.58,21,9.86s-2.23,6.83-3.88,13.36c-1.28,5.11-2.2,10-1.43,11.43,1.65.67,2.64,1.09,2.64,1.09a.08.08,0,0,0,0,0A143.79,143.79,0,0,1,249.42,179.43Z"/><path class="cls-12" d="M256.69,198.5c-.22.58-.46,1.15-.72,1.73-7.36,15.85-21,81.53-21,81.53,1.94,11.8-88.74-2.32-89-13.07-3.2-11.4,11.33-29.72,19.52-38.91A26,26,0,0,0,172,215.24c1.61-15.24,1-29.52,1.14-38.2h0c1.6-1.19,3.14-2.28,4.59-3.33a40.64,40.64,0,0,0,5.58-4.63A8.43,8.43,0,0,0,186,163.8a27.29,27.29,0,0,0-.11-4.42c-.07-.7-.16-1.41-.26-2.11a60.06,60.06,0,0,0-4.22-14.06c7.8-3.16,21.67-1.28,21.67-1.28s0,.77,0,2c0,5.07,0,18.07,1.62,20.54,2,3.06,39.18,16.49,41.15,12.33s-3.36-23.26-3.56-24a.08.08,0,0,1,0,0c12.44,4.89,16.89,9,16.89,9C251.63,166.67,262.49,183.12,256.69,198.5Z"/><path class="cls-10" d="M244.91,127s-2.23,6.82-3.87,13.35c-12.26-3.42-16-16.3-17.11-23.21Z"/><path class="cls-11" d="M247.49,134.17s-29.33-6.79-24.82-25,3.76-31.33,22.67-27.77,20.82,11.41,20.8,17.85S255.23,135.46,247.49,134.17Z"/><path class="cls-8" d="M267.79,88.93c-3.16-6.6-6.87-6.25-9.19-5.08-13.78-12.75-34.67-6.34-34.67-6.34-5.2,12.57-9.11,21.71-9.11,21.71s4.51,4.62,17.57,4.51c4,0,8-1.86,11.65-4.38a70.12,70.12,0,0,1-15.29,11.4c16.34-3.12,27.3-22,28.43-24.06,1.38,2,4,6.4,4.25,10.07.31,5-1.41,14.7,1.45,15.07C262.88,111.83,272.52,98.82,267.79,88.93Z"/><path class="cls-12" d="M259.13,161.8s7.07,12.32,8.12,15.49c0,0-9.16-.35-12.85,6.7C254.4,184,253.51,163.47,259.13,161.8Z"/><path class="cls-13" d="M210.56,259.69c-17.88-.19-33-18.76-42.28-33.6A25.75,25.75,0,0,0,172,215.24c1.61-15.24,1-29.52,1.14-38.2h0c1.6-1.19,3.14-2.28,4.59-3.33a40.64,40.64,0,0,0,5.58-4.63C198,193.83,234.81,259.94,210.56,259.69Z"/><path class="cls-6" d="M175.76,576.14H129.19s-1.12-7.1,1.31-12.49c2.34-5.16,6-7.51,5.11-13.77,3,3,7.79,6.46,14.52,5.56.82,1.34,5.32,8.49,8.08,10.47C161.25,568.1,174.83,567.32,175.76,576.14Z"/><path class="cls-6" d="M275.76,576.14H229.19s-1.74-7.43,1.32-12.49c2.7-4.47,1.67-7-.34-10.72a18,18,0,0,0,7.85,1.48,16.33,16.33,0,0,0,6.92-2.44c2,2.29,10.59,12,13.27,13.94C261.26,568.1,274.83,567.32,275.76,576.14Z"/><polygon class="cls-6" points="319.07 234.18 273.75 293.13 274.42 293.95 320.38 234.89 319.07 234.18"/><polygon class="cls-14" points="320.29 235 366.28 235 318.14 293.95 274.42 293.95 320.29 235"/><path class="cls-11" d="M310.83,270.78c-.12-2.35-3.22-2.24-5.57-2.25-3.85,0-9.93-.28-13.45-1.63,0,0,11.23-.16,8.85-3.71-.44-.65-6-.16-12.25-.16-2.56,0-8.88,3.51-8.55,3.67-4.52-.6-8.62-1.47-9.95-1.76h0c-3.08-1.68-6.79-3.71-10.71-5.95a315.84,315.84,0,0,1-27.71-17.21c-4.27-3.08-7.49-5.81-8.61-7.77A96.4,96.4,0,0,1,217,220.36c-1.12-3.08-2.31-6.44-3.49-10-2.1-5.87-4.2-12.24-6.37-18.61-3.92-11.62-8.12-23.3-12.11-32.33-2.59-5.67-5.11-10.36-7.49-13.23-1.89-2.31-3.71-3.5-5.46-3.22-.28.07-.49.14-.7.21,0,0-10.07,2.8-10.21,23.1a31,31,0,0,0,.07,3.57,75.24,75.24,0,0,0,1.89,12.66,192.72,192.72,0,0,0,8,26.6c1,2.51,2,5.1,3,7.69,7.56,18.76,17.29,36.25,25.48,42.2a8.49,8.49,0,0,0,1,.7,73.31,73.31,0,0,0,14.27,6.37c8.26,2.8,18.06,5.32,26.8,7.42h.07c5.11,1.12,9.8,2.17,13.72,2.94,0,0,.64.16,1.79.38l.52.11a153.52,153.52,0,0,1,18.54,5.66,18.57,18.57,0,0,0,20.86-4.47C309.27,275.87,311,272.92,310.83,270.78Z"/><path class="cls-15" d="M195,159.44c-13.48-3.72-23.87,6.8-23.87,6.8.17-20.26,10.26-23,10.26-23C185.45,141.53,194,146.06,195,159.44Z"/><path class="cls-7" d="M250.06,51.32A36.69,36.69,0,0,0,233,51.07c-.47.12-.94.25-1.4.39h0C213.34,56.91,208.75,78,208.75,78a54.48,54.48,0,0,0-.56,7.93c.19,2.4,17.55,8.59,20.18,5.51s7.71-5.09,7.71-5.09,17.77,7.57,19,8.07c4,1.7,17.05,3.48,17.05,3.48C272.52,96.76,283.88,59.06,250.06,51.32Z"/><path class="cls-16" d="M284.12,99.45a64.86,64.86,0,0,0-10.7-7.07s-6.91,1.55-18.13-.3c-1.63-8-7.54-28.4-22.32-41a.69.69,0,0,1-.13-.11c-.59.27-.87.32-1.27.5h0a3.74,3.74,0,0,0-.41.2c12.49,9.37,17.68,31.4,19.22,39.44a85.94,85.94,0,0,1-14.29-4.74s13.23,14.09,47.11,15.61A1.43,1.43,0,0,0,284.12,99.45Z"/><polygon class="cls-6" points="319.07 234.18 365.31 234.18 366.28 235 320.29 235 319.07 234.18"/><path class="cls-14" d="M667.68,512.14H584.4a3.13,3.13,0,0,1,0-6.26h83.28a3.13,3.13,0,0,1,0,6.26Z"/><path class="cls-14" d="M668.51,415.78H583.57a3.13,3.13,0,0,1,0-6.25h84.94a3.13,3.13,0,0,1,0,6.25Z"/><path class="cls-12" d="M721.11,272.23c5,1.16,27.81,1.44,43.8-2.15a48.46,48.46,0,0,0,8.9-2.78c3-1.32,5.28-2.93,6.44-4.86,1.81-3,5.12-13.32,9-26.83C800,198.38,815,136.86,815,136.86s-30.26,6.18-36.66,11.45-12.06,88.89-18.08,91.15c-.89.33-2.42,1-4.38,2l-.29.14c-1.17.58-2.48,1.25-3.91,2-12.49,6.42-33.16,18-35.3,20.55C713.58,267.52,713.77,270.54,721.11,272.23Z"/><path class="cls-12" d="M779.17,184.47a23.93,23.93,0,0,1,.4-4.28c3.89-21.4,34.85-43.33,35.46-43.33v.45c0,3.27,5.16,9.31,13.11,9.83,9.42.62,21.05-4.76,21.05-10.19.06,0,5.3.71,7.07.91,7.55.86,22.63,4.94,29.09,9.82,6.14,4.64-2.54,33.89-7.91,54.6-2.28,8.76-4,16-3.68,19.2.13,1.56,1.54,22.82,2.8,42,1,15.87,2,30.35,2,31.26.07,1.8-8.89,8.11-23.94,12.88a115.17,115.17,0,0,1-11.93,3.1,126.27,126.27,0,0,1-26,2.57q-4.66,0-8.83-.44C786.4,310.79,779,286.3,779.17,184.47Z"/><path class="cls-17" d="M849.18,136.7a180.15,180.15,0,0,0-1.08-26.63l-33.18,5.42s0,10.14.11,21.37c0,0-.91,10.43,11.93,11.95S849.53,144.75,849.18,136.7Z"/><path class="cls-6" d="M821.42,576.14c4.17-2.57,1.72-21.6,1.72-21.6S803.6,539,801,551s-18.45,17.37-27.45,18.86c-6.22,1-8.52,4.25-9.1,6.29Z"/><path class="cls-13" d="M851.82,248.88c0,31.83,15.42,23.25,24.74,14.65-1.26-19.23-2.14-87.35-2.14-87.35S851.82,203.3,851.82,248.88Z"/><path class="cls-13" d="M751.71,243.58c.62,4.46,7.67,17.46,13.2,26.5a48.46,48.46,0,0,0,8.9-2.78c3-1.32,5.28-2.93,6.44-4.86,1.81-3,5.12-13.32,9-26.83-2.87-16.64-5.61-33.06-5.61-33.06l-.85-11c0,.85-12.89,49.25-18.74,50.38-3.52.69-6-.14-8.14-.45l-.29.14C754.45,242.18,753.14,242.85,751.71,243.58Z"/><path class="cls-6" d="M881.31,576.14c4.17-2.57,1.72-21.6,1.72-21.6S863.48,539,860.85,551s-18.45,17.37-27.45,18.86c-6.22,1-8.48,4.25-9.07,6.29Z"/><path class="cls-6" d="M852.34,100.5S874.5,65.57,832,63.26c0,0-16,1.88-19.57-1.74,0,0-12.38,18.81-.82,39S852.34,100.5,852.34,100.5Z"/><path class="cls-17" d="M815.9,118.73c3.23,2.53,12.68,5,15.42,5.35,0,0,14-3.13,16.57-4.66,3.94-2.4,3.69-7.24,3.89-14,.24-8,1.05-14.23.16-18.83-1.06-5.49-4.55-8.62-14.3-9.47-17.91-1.55-25.37,2.93-25.68,8.94-.09,1.61-.16,3.15-.21,4.6C811,109.42,812.51,116.06,815.9,118.73Z"/><path class="cls-6" d="M811.58,96.83c.18,10.85,3.1,17.27,5.22,18.08a45.07,45.07,0,0,0,8.31,2.22c1,.12,2,.08,2-.49,0-1.71-2.31-3.82-.62-5.33s11.35-2.13,12.12,1.34c.38,1.69-2.71,4.68-.59,4.74.64-.1,1.27-.23,1.87-.38a27.77,27.77,0,0,0,7.37-3.26c3.94-2.39,3.69-6.06,4.56-12.74.57-4.32.57-2,0,4.44-.59,6.71.57,11-3.9,14-2.48,1.64-16.77,8.06-16.77,8.06.21-3.4-12-6.22-15.21-8.75C812.91,116.38,811.41,110.93,811.58,96.83Z"/><path class="cls-9" d="M878.56,294.79c.07,1.8-8.89,8.11-23.94,12.88-1.21.39-2.47.76-3.76,1.12a0,0,0,0,0,0,0c-1.4,16.46-5.2,39.73-8.63,62.18h0c-.89,5.82-1.74,11.59-2.54,17.16-2.09,14.76-3.65,28.21-3.82,37.88v.11c-.07,4.44,3.67,15.52,3.95,18.08.18,1.56.32,3.22.42,4.95a200.23,200.23,0,0,1-.31,23.87c-2.46,38.17-12.55,87-16.15,89.09-7.15,4.14-20.17,0-26.78-1a5.47,5.47,0,0,1-4.79-5.5c3.23-63.35-6-151.58-13-205.81-.18-1.41-.36-2.8-.54-4.16-.83-6.39-1.38-12.37-1.72-17.75-.32-4.72-.47-9-.54-12.73,0-1.16,0-2.26,0-3.31,0-3.4,2.68-25.62,2.81-127.45h0a4.29,4.29,0,0,1,4.28-4.28h62.27a10.79,10.79,0,0,1,10.78,10.94,173.93,173.93,0,0,0,1.87,29c2.3,14.14,7.22,27.35,17.38,30.52l0,0c.05.11.33.73.77,1.76h0q.13,3.84.32,7.81c0,.53,0,1.07.07,1.61,0,.31,0,.63,0,.94,0,.54,0,1.08.08,1.62,0,.9.08,1.79.13,2.7l.12,2.15c.08,1.37.16,2.77.25,4.18,0,.45,0,.89.08,1.35.12,1.82.25,3.67.39,5.53,0,.57.08,1.14.13,1.72l.06.83c.06.72.11,1.45.18,2.19s.13,1.55.19,2.34C878.85,290.24,878.48,292.78,878.56,294.79Z"/><path class="cls-6" d="M839.9,473.06c-2.46,38.17-12.55,87-16.15,89.09-7.15,4.14-20.17,0-26.78-1a5.47,5.47,0,0,1-4.79-5.5c3.23-63.35-6-151.58-13-205.81-.18-1.41-.36-2.8-.54-4.16-.83-6.39-1.38-12.37-1.72-17.75,3.3-21.5,21.92-22.66,38.81,21.83C813.65,364.54,840.46,464.32,839.9,473.06Z"/><path class="cls-9" d="M879.26,424.26c.51,4.41,5.67,14.9,6.29,17.4,8.54,34.34,3.82,115.75-.41,119-6.55,5-20,2.65-26.68,2.56a5.46,5.46,0,0,1-5.47-4.83c-5.25-64.86-27-153.95-41-206.36-7-26.4-8-45.81-8-45.81S869.33,266.16,876.4,288C882.66,307.41,875.31,390.38,879.26,424.26Z"/><path class="cls-7" d="M812.67,53.49c.45-.51.93-1,1.43-1.48A25.52,25.52,0,0,1,821.89,47c11.4-4.75,20.85-.37,26.76,4.13.58.44,1.13.88,1.64,1.32a34.59,34.59,0,0,1,5,5.17s5.53,7.55,5.35,23.47l-57,.61S802.78,64.45,812.67,53.49Z"/><path class="cls-16" d="M844.65,81.2l-3.14,0c-.06-.91.09-21.61,7.81-29.64a11.83,11.83,0,0,1,1,.8C843,59.48,844.63,81,844.65,81.2Z"/><path class="cls-16" d="M819.86,81.48c-.65-12.68-5.5-26-6.81-28.36A13.68,13.68,0,0,1,814.1,52c.91,1.57,8.35,15.36,9.13,29.43l37.42-.4s-19,4.25-30.4,4.39-26.63-3.78-26.63-3.78Z"/><path class="cls-9" d="M858.5,138.16s-19.27,22.45-20.4,42l9.82.52a94.37,94.37,0,0,1,17-41.21s-2.27-.55-3-.7Z"/><path class="cls-9" d="M810.46,137.85a98.19,98.19,0,0,0-15.28,42.77l-9.91-.17c.81-15.4,10.48-32.33,15.82-40.36C801.09,140.09,808,138.36,810.46,137.85Z"/><path class="cls-15" d="M873.92,258.66c-.48,23,2.38,68.75,2.38,68.75h13.56c6.4-32.2,8.66-52.92,8.66-64.22q0-3.35,0-6.21c-.08-9.65-.34-15.26-.34-15.26,2.54-58.47-9.14-89.74-12.8-94s-20.46-8.18-20.46-8.18-5.54,16.16-7.8,29.15,17.78,67.6,16.95,86.26C874,256.07,874,257.33,873.92,258.66Z"/><path class="cls-17" d="M876.3,327.41s-2.86-45.77-2.38-68.75A48,48,0,0,1,898.49,257q0,2.86,0,6.21c0,11.3-2.26,32-8.66,64.22,2.83,11.87,2.64,24.67-2.26,26.93s-21.09-6.21-20.9-10S876.3,327.41,876.3,327.41Z"/><path class="cls-17" d="M690.77,274.49c1.32-4.84,2.3-7.53,5.64-9.89,4.85-3.42,10.61-2.49,14.9-1.74a16.44,16.44,0,0,0,8.15-1.07c7.6-5.07,26.67-15.51,36.16-20.19,6.48,3.76,14.45,11.19,18.19,25.7-14.62,6.45-46.6,6.34-52.7,4.93,0,0-5.63,4.1-9.92,4.48a14.81,14.81,0,0,1-5.59-1,7.6,7.6,0,0,0-8.42,2.68,6.29,6.29,0,0,1-5.44,2.57C690,281,689.94,277.54,690.77,274.49Z"/><path class="cls-14" d="M673,564.42H572c-1.73,0-5.59-1.4-5.59-3.13s13-3.13,14.72-3.13h85.63V293.29a19.64,19.64,0,0,1,19.61-19.61h21.89a3.13,3.13,0,0,1,0,6.26H686.32A13.37,13.37,0,0,0,673,293.29Z"/><path class="cls-14" d="M585.37,564.42H512.1a3.13,3.13,0,0,1,0-6.26h67V293.29a19.64,19.64,0,0,1,19.61-19.61h21.9a3.13,3.13,0,0,1,0,6.26h-21.9a13.37,13.37,0,0,0-13.35,13.35Z"/><path class="cls-14" d="M667.83,319.84H584.25a3.13,3.13,0,0,1,0-6.25h83.58a3.13,3.13,0,0,1,0,6.25Z"/><path class="cls-18" d="M713.36,282h-27a5.22,5.22,0,0,1,0-10.43h27a5.22,5.22,0,0,1,0,10.43Z"/><path class="cls-14" d="M686.32,273.68a19.64,19.64,0,0,0-19.4,16.76h6.36a13.37,13.37,0,0,1,13-10.5,3.13,3.13,0,0,0,0-6.26Z"/><path class="cls-18" d="M625.76,282h-27a5.22,5.22,0,0,1,0-10.43h27a5.22,5.22,0,1,1,0,10.43Z"/><path class="cls-14" d="M598.72,273.68a19.64,19.64,0,0,0-19.4,16.76h6.36a13.37,13.37,0,0,1,13-10.5,3.13,3.13,0,0,0,0-6.26Z"/><polygon class="cls-3" points="565.59 465.65 669.71 463.82 670 558.16 565.88 558.16 565.59 465.65"/><polygon class="cls-4" points="534.35 465.81 617.71 465.49 617.94 558.22 534.58 558.16 534.35 465.81"/><polygon class="cls-5" points="617.71 465.49 534.35 465.81 534.42 495.04 617.94 558.22 617.71 465.49"/><path class="cls-6" d="M680,509.22H667.47c-14.86,0-26.9,14.75-26.9,32.95s12,33,26.9,33H680c14.86,0,26.9-14.76,26.9-33S694.85,509.22,680,509.22Z"/><ellipse class="cls-14" cx="679.99" cy="542.17" rx="26.9" ry="32.95"/><path class="cls-19" d="M697,542.17c0,11.52-7.63,20.86-17,20.86s-17-9.34-17-20.86,7.62-20.85,17-20.85S697,530.65,697,542.17Z"/><polygon class="cls-3" points="584.3 359.91 704.11 359.54 703.78 465.22 584.62 465.59 584.3 359.91"/><polygon class="cls-4" points="548.54 360.09 643.94 359.72 644.2 465.4 548.8 465.77 548.54 360.09"/><polygon class="cls-5" points="643.94 359.72 548.54 360.09 548.63 393.88 644.2 465.4 643.94 359.72"/><path class="cls-17" d="M721.11,272.23s-10.14,6.91-12.83,5.21,1.88-5.56-2.43-7S721.11,272.23,721.11,272.23Z"/><rect class="cls-6" y="574.45" width="1048.01" height="1.68" rx="0.84"/></svg>