<svg id="Layer_1" data-name="Layer 1" xmlns="http://www.w3.org/2000/svg" viewBox="0 0 627.76 627.76"><defs><style>.cls-1{fill:#231f20;}.cls-2{fill:#be1e2d;}</style></defs><path class="cls-1" d="M313.88,25A289,289,0,0,1,426.32,580.07,289,289,0,0,1,201.44,47.69,287,287,0,0,1,313.88,25m0-25C140.53,0,0,140.53,0,313.88S140.53,627.76,313.88,627.76,627.76,487.23,627.76,313.88,487.23,0,313.88,0Z"/><path class="cls-2" d="M225.24,421.85c.87-8.33,1.59-15.19,2.45-23.38l-72.21-4.24v-.58c20.61-.9,41.22-2.22,61.85-2.53,9.13-.13,14.23-2.51,14.34-12.5.07-5.72,1.45-11.42,2.27-17.13,2.22-15.46,1.7-16-14.61-16.57-38.92-1.38-77.84-2.83-116.82-7q34.52-1.35,69-2.7c19.06-.72,38.14-.94,57.14-2.36,4.52-.34,8.75-4.58,14.11-7.58-3.48-3.38-4-4.18-4.74-4.55-6.12-3.09-15.54-4.62-17.73-9.45-4-8.9,4-15,11.17-20.08,5.56-3.9,10.71-8.4,16-12.63l-1-4.2H167.91c0-1.15,0-2.3,0-3.45,25.58-1.13,51.16-2.86,76.75-3.18,14.54-.18,26.7-4.75,37.94-13.43,23.11-17.86,46.54-35.32,69.55-53.3,9.49-7.42,16.85-8.42,26.29,1.18,28.57,29.08,58,57.29,87.23,85.76,6.07,5.92,14.83,12.39,9.27,20.94-3.68,5.67-13.35,7.46-20.38,10.91a35,35,0,0,1-4.92,1.39c-4.61,28.46-9.73,57.2-13.71,86.1-1.54,11.21-5.29,15.79-17.46,15.68-59.88-.56-119.76-.17-179.64-.18C234.9,422.75,231,422.24,225.24,421.85ZM344.4,298.69c-26.3-6.47-34.36.48-32.24,27.8C340.71,331.27,345.41,327.22,344.4,298.69ZM348,326.32c28.94,4.45,32.11,2.83,33-18.18.15-3.6-4.73-10.64-7.09-10.55-7.76.28-18.7-6.44-22.63,6.08C349.07,310.64,349.05,318.29,348,326.32Zm-8.55,9.82c-25.12-6.45-31.09-3.7-32.9,16.13-.35,3.89,4.63,11.76,7.13,11.75,7.65,0,18.54,6.48,22.36-6.11C338.14,350.91,338.36,343.33,339.42,336.14Zm4.11,27.09c27.19,4.93,34-1.1,31.13-27.73C344.38,332.24,344,329.76,343.53,363.23Z"/><path class="cls-2" d="M452.22,352.35c21.95,0,42.34-.35,62.71.31,3.65.12,9.18,3.57,10.43,6.8,8.28,21.36,11.72,43.54,8.26,66.46-.33,2.19-1,4.34-1.28,6.53-1.25,9.52.82,24-4.37,27.39-7.63,4.94-20.41,1.94-31,2.27-1.76.05-3.53-.15-5.23-.23-9.79-23.11-18-30.95-34.4-26.07-10.46,3.11-18.87,13-28.25,19.83-3.13,2.27-6.41,6.07-9.69,6.14-24.81.51-49.64.28-74.27.28-11.31-32.8-31.84-36.46-60.18-11.29-18.25-25.06-46.81-18.56-60.48,5.14-1.67,2.89-6.51,3.95-9.89,5.85-1.17-3.34-2.72-6.61-3.4-10.05-.57-2.89-.12-6-.12-10-20.15-.95-40-2.25-59.79-2.72-19.47-.47-39-.11-58.46-3.13,43.33-2,86.65-5,130-5.63,67.89-1,135.8-.45,203.69-.07,9.68.05,13.89-1.7,15.07-12.56C443.9,396.08,448.41,374.85,452.22,352.35Zm15,49.5,61.92,7.33c-4.11-16.43-7.11-29.6-10.9-42.54-.71-2.43-4.47-5.51-7-5.63-12.21-.58-24.45-.26-37.16-.26C471.73,374.83,469.63,387.32,467.19,401.85Z"/><path class="cls-2" d="M256.17,442.49c13.1-.16,20.8,7.27,20.85,20.11.05,14.34-13.12,27.83-27.68,28.34-11.67.41-20.91-8.64-21-20.59C228.16,455.92,241.42,442.67,256.17,442.49Zm4.93,20c-3.62-5.31-11.71-4.7-14.89.89a14.27,14.27,0,0,0-1.8,4.6c-.35,2,7,7.72,7.85,7.15,3.94-2.52,8-6.28,9.51-10.49C262,464.13,261.69,463.41,261.1,462.53Z"/><path class="cls-2" d="M461.9,442.63c13.15.35,20,7.78,19.56,21.07-.54,14.62-14.48,27.88-28.6,27.2-12.14-.59-20.26-9.46-19.85-21.68C433.51,454.46,446.8,442.23,461.9,442.63Zm-1.24,30.44c5.51-3.43,5.76-11.64.24-15.07-.91-.56-1.65-.81-2.18-.58a15.73,15.73,0,0,0-5,3.71,8.87,8.87,0,0,0,.49,13,2.69,2.69,0,0,0,2.07.85A13.52,13.52,0,0,0,460.66,473.07Z"/><path class="cls-2" d="M314.54,442.64c12.95-.2,20.87,7.46,20.81,20.11-.08,14.56-13.4,28.06-27.81,28.17-12.12.1-20.87-8.51-20.94-20.61C286.52,455.72,299.49,442.87,314.54,442.64Zm1.74,29.26a8.22,8.22,0,0,0-.42-13c-1.73-1.23-3-1.93-3.72-1.54a22.57,22.57,0,0,0-5.56,4.82,8.13,8.13,0,0,0,1.71,12.31,3.36,3.36,0,0,0,2.42.61A14.35,14.35,0,0,0,316.28,471.9Z"/></svg>