<svg id="Layer_1" data-name="Layer 1" xmlns="http://www.w3.org/2000/svg" viewBox="0 0 500 500"><defs><style>.cls-1{fill:#fff;}.cls-2{fill:#0084ff;}</style></defs><circle class="cls-1" cx="250" cy="250" r="200"/><path class="cls-2" d="M188.5,306.6a13.72,13.72,0,0,1,5.88,1.37l15.88,7.39c11.7,5.43,23.8,11.05,35.68,16.63,8,3.77,11.37,11.85,8,19.22a13.52,13.52,0,0,1-12.56,8,17.7,17.7,0,0,1-7.53-1.76c-8.2-3.83-16.21-7.6-24.69-11.59l-10.87-5.11-4.16-1.95-1.36,4.38c-1.75,5.65,0,9.71,5.37,12.09,7,3.12,14,6.53,20.82,9.83l8.71,4.21a32.8,32.8,0,0,0,14.15,3.45c10.91,0,20-6.59,25-18.09.2-.46.44-.74,1.4-1.3l21.39-12.47c14.52-8.47,29.53-17.23,44.32-25.8,5.37-3.1,10.37-4.61,15.32-4.61a11.16,11.16,0,0,1,9.7,5.32,11.51,11.51,0,0,1,.45,11.26,28.91,28.91,0,0,1-8.58,9.86l-5.76,4.48c-28,21.73-57,44.21-86.52,64.82a17.83,17.83,0,0,1-10.47,3.66,21.31,21.31,0,0,1-8-1.74c-13.09-5.29-26.47-10.47-39.41-15.48-7.88-3.05-16-6.21-24-9.36a29.44,29.44,0,0,0-10.91-2h-.31l-8.07,0h-5.23c-3.73,0-7.73,0-11.69.08h-.17a5,5,0,0,1-.81,0,6.23,6.23,0,0,1-.07-1.08c.12-19.94.12-41,0-64.56a4.66,4.66,0,0,1,.11-1.17,4.56,4.56,0,0,1,1.19-.3c14.95-2.33,29.47-4.75,45.54-7.44a13.78,13.78,0,0,1,2.28-.2m0-4a17.51,17.51,0,0,0-2.94.25c-15.15,2.54-30.31,5.07-45.5,7.43-3.4.53-4.7,2-4.68,5.45q.15,32.25,0,64.52c0,3.75,1.35,5.15,4.88,5.15h.24c3.87-.07,7.74-.08,11.62-.08h5.23c2.7,0,5.41,0,8.11,0h.27a25.18,25.18,0,0,1,9.44,1.77c21.12,8.31,42.37,16.31,63.41,24.82a25.35,25.35,0,0,0,9.49,2,21.83,21.83,0,0,0,12.75-4.38c31.63-22.06,62-45.79,92.45-69.41A33,33,0,0,0,363,328.88a15.35,15.35,0,0,0-13.73-22.36h0c-6.26,0-12,2.07-17.3,5.15Q299,330.72,266.2,349.94a6.62,6.62,0,0,0-3.06,3.16c-4.45,10.24-12.18,15.69-21.35,15.69a28.89,28.89,0,0,1-12.43-3.06c-9.86-4.72-19.64-9.63-29.62-14.09-3.38-1.51-4.38-3.38-3.18-7.24,12.06,5.67,23.8,11.21,35.57,16.71a21.86,21.86,0,0,0,9.22,2.13,17.47,17.47,0,0,0,16.19-10.35c4.31-9.35.16-19.79-9.9-24.52-17.17-8.06-34.38-16-51.57-24a17.73,17.73,0,0,0-7.57-1.75Z"/><path class="cls-2" d="M250,114.48c.8,0,2.09.74,3.84,2.2l59.5,49.75,29.83,24.94q11.64,9.74,23.31,19.45c1.85,1.53,1.93,2.81,1.49,4.26a2.93,2.93,0,0,1-2.78,2.23,2.25,2.25,0,0,1-.44,0c-.91,0-1.87-.48-3.21-1.6q-28.23-23.62-56.48-47.21l-13-10.87c-12.16-10.14-24.74-20.62-37-31a7.81,7.81,0,0,0-5-2.13,8.17,8.17,0,0,0-5.23,2.31c-23.42,19.61-47.25,39.52-70.29,58.78l-35.31,29.51-.33.28c-1.36,1.14-2.23,1.84-3.09,1.9h-.47c-1.86,0-2.56-.72-3-1.81a3.28,3.28,0,0,1,1-4.37c5.56-4.73,11.27-9.5,16.78-14.11l2.94-2.45,2.8-2.34c6.6-5.53,13.43-11.24,20.18-16.8a9.36,9.36,0,0,0,3.76-8.44c-.27-5.6-.22-11.37-.17-17,0-2,0-4.09,0-6.13a3.62,3.62,0,0,1,.16-1.18,2.78,2.78,0,0,1,1.23-.18h7.72c1.66,0,3,0,4.29,0a10,10,0,0,1,1.76.15,11.37,11.37,0,0,1,.16,1.95c0,1.15,0,2.3,0,3.74v11.16l6.56-5.47,10.16-8.47L235,126l8.76-7.32,2.41-2c1.76-1.47,3.05-2.22,3.84-2.22m0-4c-1.95,0-3.9,1.06-6.41,3.15L232.44,123l-33.6,28c0-2.85,0-4.64,0-6.42-.07-4.71-1.25-6-5.86-6l-4.35,0-6.7,0h-1c-3.57,0-5.36,1.79-5.37,5.35,0,7.77-.23,15.55.15,23.3a5.46,5.46,0,0,1-2.31,5.15q-11.55,9.53-23,19.16-9.89,8.26-19.74,16.58a7.21,7.21,0,0,0-2,9,6.77,6.77,0,0,0,6.7,4.22l.73,0c2.36-.16,4-1.67,5.73-3.1q52.8-44.15,105.59-88.3a4.45,4.45,0,0,1,2.67-1.37,3.93,3.93,0,0,1,2.45,1.18c16.6,14.07,33.35,28,50.06,41.92q28.25,23.59,56.47,47.21a9,9,0,0,0,5.78,2.53,7.37,7.37,0,0,0,1-.08,6.9,6.9,0,0,0,6-5c1.05-3.42,0-6.24-2.74-8.5q-11.67-9.7-23.31-19.44Q301.08,151,256.41,113.61c-2.51-2.09-4.46-3.13-6.4-3.13Z"/><path class="cls-2" d="M250.09,141.43a3.66,3.66,0,0,1,1.61,1c23.82,20,49.72,41.66,79.18,66.18a4.08,4.08,0,0,1,1.68,3.73V214c-.07,21.24-.13,43.19.06,64.8l-.2,0h-.06v-.08c.05-10.51.06-21.19.06-31.51s0-20.91.06-31.36a10.86,10.86,0,0,0-4.16-9.11c-23.82-19.83-48.29-40.3-72.73-60.85a7.45,7.45,0,0,0-10.91-.09C223.76,163.42,201.52,182,172.54,206a11,11,0,0,0-4,9.16c0,8.44,0,17,0,25.33,0,12.44,0,25.31.1,38v.34h-.23v-.48c.06-8.23.05-16.59.05-24.68,0-3,0-6,0-9.07s0-5.92,0-8.88c0-8,0-16.3-.06-24.47a3.1,3.1,0,0,1,1.25-3c28.24-23.5,54-45.05,78.87-65.9a3.45,3.45,0,0,1,1.59-.95m0-4a6.63,6.63,0,0,0-4.17,1.88q-39.34,33-78.85,65.89a7.05,7.05,0,0,0-2.69,6.09c.11,11.1.05,22.2.05,33.31s0,22.48,0,33.72c0,2.66-.06,4.53,3.41,4.53h.38c3.36-.12,4.47-.85,4.44-4.4-.17-21.09-.05-42.19-.13-63.28,0-2.52.52-4.35,2.61-6.08q36.19-30,72.16-60.27a4.62,4.62,0,0,1,2.83-1.38,4.81,4.81,0,0,1,2.92,1.48q36.3,30.53,72.76,60.86a7,7,0,0,1,2.71,6c-.11,20.95,0,41.9-.12,62.86,0,2.64.28,4.15,3.06,4.15l.68,0c2.73-.2,4.56,0,4.52-3.87-.2-22.2-.12-44.4-.06-66.61a8.09,8.09,0,0,0-3.12-6.82q-39.66-33-79.16-66.17a6.68,6.68,0,0,0-4.19-1.9Z"/><path class="cls-2" d="M243.14,206.25c-.65,0-1.41.27-2,.27h0c-6.6-.06-13.2-.07-19.8-.07l-14.73,0c-8.18,0-11.94,3.79-11.95,12q0,25.8,0,51.6c0,9.23,3.6,12.87,12.76,12.88h60.32l15.71,0q5.25,0,10.49,0c6.71-.07,11.21-3.87,11.24-9.69.09-19,.05-38,0-57,0-4.38-2.42-7.23-6.29-8.94a11.6,11.6,0,0,0-4.8-.84c-1.26,0-2.53.09-3.78.09h-.46c-.31,0-.72-.08-1.1-.08-.6,0-1.12.19-1,1.16.13,1.24-.08,3,1.79,3.31a10,10,0,0,0,1.65.11c.63,0,1.25,0,1.88,0h.21c5.85.07,7.7,1.88,7.7,7.7q0,26,0,52c0,5.66-1.84,7.52-7.39,7.52l-19,0h-68c-5.93,0-7.6-1.65-7.61-7.7q-.06-25.8,0-51.6c0-6.28,1.68-7.93,7.89-7.94l17.13,0q8.49,0,17,.07h.08c2.23,0,3.35-.77,3.33-3,0-1.44-.61-1.78-1.34-1.78Z"/><path class="cls-2" d="M316.85,309.54h.07l-49.36,28.71a27.22,27.22,0,0,0-1.76-4.89q11.83-5.85,23.69-11.67l11.84-5.82,3.9-1.94c2-1,4.07-2,6.1-3a12.56,12.56,0,0,1,5.52-1.38m0-4a16.5,16.5,0,0,0-7.25,1.77c-3.36,1.62-6.69,3.32-10,5q-18.4,9.06-36.83,18.13c-1.09.54-3,.67-1.62,2.77,2.16,3.26,2.86,7.06,3.77,11.26l61.59-35.83a18.16,18.16,0,0,0-9.62-3.07Z"/><path class="cls-2" d="M270.92,185.6a2.47,2.47,0,0,0-1.34.43,6.32,6.32,0,0,1-3.43,1.09,6.81,6.81,0,0,1-3.57-1.12.22.22,0,0,0-.12,0c-1.41,0-11.38,5.85-11.24,6.67.63,3.84-3.59,4.79-4.36,7.45s2.36,5.6,0,8.63c-.62.83,5.69,11.42,6.77,11.69.14,0,.29,0,.42.05,3.58,1.1,6.69,4.12,10.56,4.12a7.8,7.8,0,0,0,3.2-.7l.1,0c.27,0,.68.36,1,.48a.42.42,0,0,0,.17,0c1.77,0,11.58-5,11.92-6.07a1.18,1.18,0,0,0,0-.42,5.84,5.84,0,0,1,3.35-5.75c.88-.48,1.75-1.5,1.27-2.38-1.68-3.08-1.74-6,.54-9.48-4.1-2-4.63-6.24-6.54-9.67-.09-.17-.51-.22-.78-.22a7.06,7.06,0,0,1-6.42-3.82,1.81,1.81,0,0,0-1.6-1Zm-4.74,33.47h-.06a14,14,0,0,1-14-13.6c-.15-7.45,6.41-14,14.05-14h0a13.8,13.8,0,1,1,0,27.6Z"/><path class="cls-2" d="M216.3,250.5c-1.94,0-3.94.11-3.93,2.63,0,2.29,2,2.54,3.94,2.54h0l35,0h32.38c1.87,0,3.82,0,3.92-2.46s-1.65-2.69-3.42-2.69H232.82q-8.08,0-16.19,0Z"/><path class="cls-2" d="M267.72,260.58H216.59c-2.08,0-4.23.3-4.25,2.79s1.86,2.56,3.65,2.56h52c1.81,0,3.75-.09,3.8-2.42.07-2.52-2-2.94-4.08-2.94Z"/><path class="cls-2" d="M278.11,227.66c.39,1,.79,2.05,1.2,3.1a12.83,12.83,0,0,0-5.42,2.09l-.79-1.95a10.24,10.24,0,0,0,5-3.24m.46-5.62a2.69,2.69,0,0,0-2.15,1.28c-1.6,2.33-3.27,3.86-5.53,3.86a8.31,8.31,0,0,1-4.18-1.39c2.14,5.27,3.85,9.52,6,14.69,2.17-4.47,5.32-5.9,9.12-5.9a20.88,20.88,0,0,1,3.44.32c-1.52-3.92-2.85-7.22-4.09-10.56-.59-1.61-1.58-2.3-2.56-2.3Z"/><path class="cls-2" d="M254.15,227.49a9,9,0,0,0,5,3.44l-.76,1.95a12.45,12.45,0,0,0-5.59-2.23c.38-1,.81-2.09,1.31-3.16m-.44-5.49c-.76,0-1.51.47-2.12,1.64a40.31,40.31,0,0,0-4.1,11.49,12.52,12.52,0,0,1,3.61-.59c3.55,0,6.35,2,8.75,5.74l5.77-14.87a8.76,8.76,0,0,1-4.58,1.72c-1.71,0-3.07-1-4.31-2.92-.76-1.19-1.9-2.21-3-2.21Z"/></svg>