<svg id="Layer_1" data-name="Layer 1" xmlns="http://www.w3.org/2000/svg" viewBox="0 0 500 500"><defs><style>.cls-1{fill:#fff;}.cls-2{fill:#0084ff;}</style></defs><circle class="cls-1" cx="250" cy="250" r="200"/><path class="cls-2" d="M245.13,162,274.9,192c-.35.4-.69.77-1,1.13-1.95,2-3.95,4-5.89,5.89l-1.38,1.37-12.11-12.24-17.59-17.79q1.81-1.81,3.59-3.62l4.65-4.67m-44.44,14.46,6.08,6.17,20.41,20.72,3.19,3.23,2.8-3.57a13,13,0,0,0,1.46-14.47c-.34-.68-.7-1.36-1.1-2l5.14,5.19,12.47,12.56c-1.62-.89-3.31-1.73-5-2.52a9.67,9.67,0,0,0-4-.87,11.71,11.71,0,0,0-7.43,2.86l-3.42,2.8,3.13,3.12,37.13,37,11.12,11.09,2.79,2.79,2.83-2.76,45.52-44.45,0,0L289,259.76l-2.76,2.86,2.85,2.78,3.77,3.69c3.16,3.08,6.26,6.1,9.35,9.13.53.52,1.06,1.07,1.62,1.65a42.33,42.33,0,0,0,3.91,3.73,12.4,12.4,0,0,0,3.7,1.92l.22,2.43c0,.14,0,.27,0,.41a8,8,0,0,0,.47,2.77,6,6,0,0,0,1.93,2.51l.17.15,1,1,37.59,37.59.26.27a11.31,11.31,0,0,0,1.93,1.67l-2.59,2.24L352,337c-1.57-1.66-3.2-3.25-4.8-4.81-1-.94-2-1.9-2.9-2.86-9.65-9.72-19.52-19.54-29.06-29L308.87,294c-1.35-1.34-1.31-1.55-1.26-1.84.46-2.67-1.47-4.85-2.08-5.45-24.29-24.31-49-49-72.91-72.86l-.7-.69a4.32,4.32,0,0,0-1.22-.87l-.39-.21-2.71-1.48-2.12,2.25-1.1,1.17c-.81.86-1.65,1.76-2.5,2.65l-49.14,51.47a4,4,0,0,0-2.64-1h-.78l-.71.28-.25.1a9.3,9.3,0,0,0-3.52,2.11c-25.07,25.92-45.94,47.56-65.67,68.1a7.22,7.22,0,0,0-1.75,3.87,4.8,4.8,0,0,1-.13.56l-.48,1.55a7.44,7.44,0,0,0-5.78-4,21,21,0,0,1,2.21-2.54c22.3-21.5,45.06-43.27,67.07-64.33l14-13.37q16.8-16.06,33.61-32.12l14.2-13.58,1.47-1.39.67-.64,3-2.83L224.31,206,218,199.72l-20.21-20.13,0,0,2.92-3.08m159,20.24c.05,3.27-.78,6.81-2.34,8.31a10.45,10.45,0,0,1-2.52.65h-.05c-1.45.26-2.89.48-4.4.69l1.6-4.29.39-1a7.29,7.29,0,0,0,1.45.15c1.6,0,4.39-.61,5.87-4.49m-22,9.29,4.71,1.71a16.3,16.3,0,0,0-3.23,1.43c-.45.24-.87.47-1.29.67l-.33.15-.2-.2,0,0,.28-2.75.1-1m28.15,130.3,2.71,1.91-9.09,8.94h0a36.36,36.36,0,0,0-2.09-3.55l.31-.13A7.79,7.79,0,0,0,360,342c2-1.87,3.88-3.72,5.74-5.68M270.44,141a23.71,23.71,0,0,1-4.13,3c-2.12,1-4.57,1.23-6.65,2.26a75.65,75.65,0,0,0-10.29,6c-2.48,1.79-4.45,4.3-6.64,6.49-5.81,5.83-11.56,11.73-17.47,17.46-1.9,1.85-1.9,3.13-.22,5.17a49.31,49.31,0,0,1,6,9,8.94,8.94,0,0,1-1,10.21l-29.39-29.84-8.48,8.93,29.33,29.22-2.15,2q-23.91,22.86-47.82,45.7Q131,295.44,90.46,334.33a32.49,32.49,0,0,0-6,8.54c-1.61,3.1-.51,6.13,2,8.5a7.56,7.56,0,0,0,5.18,2.2,7.71,7.71,0,0,0,3.53-.9,29.19,29.19,0,0,0,7.1-5.07c5.16-5.08,10.07-10.43,15.08-15.67L224.77,219.45c1.25-1.31,2.49-2.64,3.62-3.84a4.49,4.49,0,0,1,.7.39q36.82,36.76,73.61,73.56a2.82,2.82,0,0,1,1,1.94c-.41,2.39.88,3.86,2.38,5.36,11.8,11.75,23.63,23.48,35.36,35.31,5.21,5.25,10.94,10.06,14.42,16.83a28.94,28.94,0,0,0,3.16,4.18l15.7-15.45c-2.58-1.82-5.12-3.63-7.67-5.42a2.74,2.74,0,0,0-1.55-.59,2.43,2.43,0,0,0-1.76.95c-2.06,2.23-4.25,4.34-6.44,6.44a7.82,7.82,0,0,1-1.86,1l-.31-.5,9.17-7.95-1.06-1.45a3.83,3.83,0,0,0-.46-.72q-23-23-45.94-45.93a8.62,8.62,0,0,0-2.57-1.23c-1.33-.6-2.86-.93-3.94-1.82-1.89-1.53-3.5-3.42-5.25-5.13-4.32-4.23-8.65-8.45-13.13-12.82l45.4-47.05,50,50.29,2.21-2.41L339.5,213.45c1.62-.76,2.95-1.71,4.41-2,3.82-.75,7.71-1.12,11.54-1.82,1.59-.29,3.47-.63,4.56-1.65,4.27-4,4.91-14.83,1.31-19.45a9.26,9.26,0,0,0-2.5-1.56c-1,2.81-2,5.26-2.73,7.77-.49,1.66-1.14,2.47-2.31,2.47a5.22,5.22,0,0,1-1.95-.5c-5.29-2.23-10.72-4.1-16.67-6.34-.56,5.68-1.09,11-1.63,16.29l-1.09.24-24.58-25.6c-2.36,1.43-3.16,2.55-1.27,4.38,2.31,2.23,4.33,4.65,6.89,6.75,6.38,5.27,12,11.49,18,17.5l-46.1,45c-16.16-16.13-32.16-32.08-48.24-48.12a7.88,7.88,0,0,1,4.89-2,5.61,5.61,0,0,1,2.37.52,63.13,63.13,0,0,1,11.07,6.33,5.45,5.45,0,0,0,3,1.33,3.86,3.86,0,0,0,2.7-1.51c5.07-5.32,10.37-10.42,15.52-15.66,2-2,3.67-4.46,5.87-6.25,6-4.93,10.46-10.77,12.12-18.54a23.17,23.17,0,0,1,2-4.49,4.92,4.92,0,0,0-2.73-.91c-2.66,0-4.77,2.61-7.37,3.81.7-3.38,2.2-5.6,5.84-6a7,7,0,0,0-6.92-4.55,13.53,13.53,0,0,0-2.14.18l1-1.81-1.87-.55v-6.13l-9,4.76-.29-.6,4.12-5-.5-.36-4.43,1.68c1.65-6,1.05-8.3-2-10.1ZM279,190.44,246.86,158.1c3.39-6,9-8.42,16-8.6,2.31-.06,4.61-.76,7.47-1.27-.94,1.72-2,3.64-2.94,5.34v7.48c3.87-1.67,7.47-3.23,11.71-5.08v6.78l7.81-1.32.39.79c-3.51,3.45-4.25,7.5-3.08,12.12L291,171c-1.3,9-6.46,14.35-12,19.41ZM261.08,208.6l-32.53-32.77,4.07-4.13,32.56,32.91-4.1,4ZM346.59,205l-10.2-3.7,2.89-7.5,10.07,3.79c-1,2.59-1.81,4.83-2.76,7.41ZM101.11,343.41c.3-1,.32-2.2.94-2.85q32.78-34.11,65.66-68.1a6.81,6.81,0,0,1,2.38-1.27h0c.13,0,.53.69.89,1.17-.64.75-1.18,1.43-1.78,2l-47.53,49.25c-6,6.2-11.94,12.42-18,18.57a8.45,8.45,0,0,1-2.59,1.19Zm257.05-12.16a1.54,1.54,0,0,1-.7-.15,8.49,8.49,0,0,1-1.75-1.54L317.11,291c-.41-.41-1-.77-1.19-1.27a8.05,8.05,0,0,1-.23-2.1c.43,0,.89-.07,1.33-.07a2.76,2.76,0,0,1,.77.1c.51.16.89.74,1.3,1.16q19.31,19.29,38.6,38.59c.74.74,1.41,1.56,2.16,2.4-.33.56-.48,1.15-.83,1.3a2.17,2.17,0,0,1-.86.18ZM91,350.19c-1.34-1.74-2.76-2.79-2.65-3.65a3.88,3.88,0,0,1,2.42-2.78h.11A3.65,3.65,0,0,1,93.41,346c.07,1.08-1.21,2.24-2.4,4.16Z"/><path class="cls-2" d="M280.57,350.74c-.67,1.2-1.34,2.37-2.05,3.49a13.36,13.36,0,0,0-2,5.46c0-.27,0-.54,0-.81-.07-2.15-.13-4.37-.41-6.61a11.63,11.63,0,0,0-.26-1.38c.61,0,1.23,0,1.8-.06.88-.05,1.83-.08,3-.09m-3.89,12.65a13.17,13.17,0,0,0,1.9,4.46c.77,1.19,1.51,2.43,2.24,3.68-4.08,1.78-5.48,6.21-6.24,8.6-3.6,11.36-10.69,21.15-22.29,30.81a75.55,75.55,0,0,0-11.39,11.74,25.46,25.46,0,0,0-5.18,12.53c-.27-1-.52-2-.76-3.07a10.4,10.4,0,0,1,.69-3.18l0-.16A11,11,0,0,0,232.83,417a8.7,8.7,0,0,1-1.31-1.74c3.69-4.18,1.47-8.64.29-10.82,5.23-1.79,9.4-5.08,13.19-8.08.88-.7,1.79-1.42,2.69-2.1,2.62-2,5.43-3.71,8.41-5.54,1.52-.93,3.09-1.89,4.63-2.89l1.57-1a59.5,59.5,0,0,0,6.06-4.21c5.78-4.77,8.58-10.57,8.32-17.25m-5.94-20.33s0,0,0,0c-.19,1.36-.4,2.79-.6,4.22.69,1.87,1.7,3.61,1.93,5.45.42,3.39.32,6.84.55,10.25.42,6.14-2.31,10.81-6.84,14.54a77.32,77.32,0,0,1-7.26,4.95c-4.43,2.88-9.09,5.42-13.28,8.6-6,4.58-11.51,10-19.83,10.65a19.61,19.61,0,0,1,1.89,2.75c1.29,2.94,4.2,5.85.24,9a2.71,2.71,0,0,0-.18,2.48,13.89,13.89,0,0,0,2.6,3.82,7.13,7.13,0,0,1,1.89,7.77c-.55,1.74-1.2,3.76-.82,5.42a96.27,96.27,0,0,0,4.11,13.42c.4,1,2.44,2,3.76,2h.18c2.08-.16,1.45-2,1.12-3.49-1.62-7.16-.67-14,3.83-19.82A73.21,73.21,0,0,1,254.85,414c10.69-8.9,19.3-19.31,23.54-32.67,1.27-4,2.67-6.58,6.37-6.58a10.08,10.08,0,0,1,1.95.2h0c.08,0,.21-.27.43-.54-1.7-2.88-3.35-5.87-5.2-8.74a7.92,7.92,0,0,1,0-9.32c1.89-3,3.5-6.18,5.4-9.57-2.23,0-4.27-.05-6.23-.05-1.26,0-2.48,0-3.7.09-.54,0-1.07.06-1.58.06-2.37,0-4.33-.55-4.88-3.73,0-.06-.14-.1-.18-.1Z"/><path class="cls-2" d="M153.27,337.76a7.16,7.16,0,0,0,.8,3.58c1.93,3.41,4,6.83,5.92,10.13.56.93,1.11,1.87,1.67,2.81.4.68.8,1.35,1.19,2,1.48,2.5,3,5.09,4.59,7.61a5.44,5.44,0,0,0,1.84,1.75c-3.54,6.28-7.06,12.47-10.66,18.77-.23.41-.63,1.1-2.8,1.12l-3.64,0c-3.38,0-6.89.06-10.32.06-3.62,0-6.79,0-9.7-.12a3.83,3.83,0,0,1-2-.77,42.8,42.8,0,0,1-3-4.53h4.36c2.94,0,6,0,9-.06,6.8-.07,11.23-4.5,11.27-11.27,0-5.62,0-10.22,0-14.47-.09-6.86-4.44-11.15-11.36-11.18h-2.55c-2.87,0-5.73,0-8.6,0H127a48.4,48.4,0,0,1,3-4.77,4.24,4.24,0,0,1,1.89-.55c5.48-.17,11.08-.18,16.5-.2l4.89,0m3-4h-.08c-8.13.08-16.27,0-24.39.24-1.69.06-4,.82-4.9,2.06-2.42,3.24-4.24,6.93-6.78,11.28h4.16c4.54,0,9.09-.07,13.63-.07h2.53c4.74,0,7.31,2.55,7.38,7.23s.06,9.6,0,14.4c0,4.62-2.65,7.24-7.32,7.29-5.48.07-11,.05-16.45.1-1,0-2,.16-3.62.3,2.36,3.92,4.17,7.52,6.59,10.65a7.32,7.32,0,0,0,5,2.32c3.27.09,6.54.12,9.81.12,4.66,0,9.33-.06,14-.1,2.55,0,4.88-.73,6.25-3.14q6.26-11,12.45-22a6.09,6.09,0,0,0-.23-6.43q-6.12-10.36-12.19-20.76a6.42,6.42,0,0,0-5.9-3.53Zm16.47,29h0a3.24,3.24,0,0,1-1.86-.93c-2-3.13-3.83-6.34-5.72-9.54-2.53-4.28-5.1-8.54-7.55-12.87a7,7,0,0,1-.31-2.57c.8.45,1.93.69,2.35,1.37,4.4,7.25,8.7,14.57,13,21.87.3.5.55,1,.9,1.69-.27.34-.62,1-.81,1Z"/><path class="cls-2" d="M319.36,336.83h0c2.15,0,4.09,0,5.93.05a3.8,3.8,0,0,1,1.84.59,48.74,48.74,0,0,1,3.17,4.77H319.21c-1.19,0-2.16,0-3,.08-6.14.36-10.34,4.65-10.45,10.67-.1,5.26-.07,10.57.09,15.77.19,6.18,4.51,10.37,10.77,10.42,2.68,0,5.36,0,8.09,0h5.84c-.11.21-.23.41-.34.61-1.24,2.22-2.3,4.14-2.84,4.51s-2.86.29-4,.29h-4.17l-3.49,0c-3.8,0-7.7,0-11.59.11a5.19,5.19,0,0,0-.65-1.93c-4.52-7.76-9.06-15.36-13.31-22.48a9.78,9.78,0,0,0-1.55-1.89l-.34-.35-.44-.5c3.38-5.81,6.81-11.87,10.45-18.49a3.33,3.33,0,0,1,3.36-2.1c2.68,0,5.37,0,8.05-.07,3.2,0,6.5-.08,9.74-.08m0-4c-5.94,0-11.87.13-17.81.15a7.27,7.27,0,0,0-6.84,4.17q-5.46,9.92-11.15,19.68a7.64,7.64,0,0,0,.12,8.54c3.84,6.37,7.65,12.76,11.3,19.24a7.27,7.27,0,0,0,6.85,4.15h.27c5.69-.14,11.37-.14,17-.17h4.15c7.34,0,6.69-.45,11.86-9.53.63-1.1,1.06-2.31,1.77-3.89H324.66c-2.72,0-5.39,0-8.06,0-4,0-6.68-2.51-6.8-6.54-.16-5.19-.18-10.39-.09-15.58.08-4,2.63-6.51,6.68-6.75.94-.06,1.88-.07,2.82-.07l3.25,0h13.82l.49-.94A114.65,114.65,0,0,0,330.25,335a7,7,0,0,0-4.89-2.08c-2,0-4-.05-6-.05ZM300,387.11c-.71-.32-1.74-.44-2.07-1q-6.9-11.42-13.59-22.95c-.33-.57,0-1.49,0-2.26l.89-.19a11.06,11.06,0,0,1,1.43,1.64c4.46,7.46,8.92,14.92,13.29,22.43.34.59.07,1.53.09,2.31Z"/><path class="cls-2" d="M182.57,351.57a19.57,19.57,0,0,0,4.15,9.72c2.91,3.57,6.42,5.38,10.45,5.38a14.15,14.15,0,0,0,1.93-.14c.45-.07.88-.15,1.3-.25,0,.22.11.45.17.67l-5.39,0c-4.82,0-10,0-15.65.11a12,12,0,0,0-.81-12.47c-.63-1-1.23-2-1.84-3h5.69m60.52,0a20.75,20.75,0,0,0,4.11,1.62,12.11,12.11,0,0,0,1.1,9.84,47.47,47.47,0,0,0-6.22,1.37,11.31,11.31,0,0,0,1.47-4.57,22.71,22.71,0,0,0,0-3.87c-.06-.89-.16-1.74-.26-2.57-.08-.62-.15-1.23-.2-1.82m-20.18,18.07a10.94,10.94,0,0,0,4,2,4.37,4.37,0,0,0,.52.12,56.16,56.16,0,0,0-8.89,8.25l-.28.3c-.17,0-.45-.11-.88-.24-3.14-.93-6.33-1.74-9.49-2.49h.48l.78-2.25.5-.34a14.09,14.09,0,0,0,3.1.37,11.67,11.67,0,0,0,9-4.23,13.61,13.61,0,0,0,1.11-1.45m16.81-26.75c-.3,2.69-.7,4.82-.72,6.94s.4,4.28.57,6.43a20.49,20.49,0,0,1,0,3.23c-.38,4.37-5.51,8.44-10,8.44a6.88,6.88,0,0,1-1.64-.2c-3.36-.86-5.59-4-6-8.53-.26-2.71-.46-5.42-.68-8.13a22.74,22.74,0,0,0-.08,7.45c.49,3.64.14,7.07-2.36,9.94a7.72,7.72,0,0,1-6,2.86,9.85,9.85,0,0,1-2.51-.35c-3.2-.83-5.49-2.73-6.08-6.06s-.82-6.62-1.2-9.94a6.07,6.07,0,0,0-.47,2.95c.4,3.09-1.36,4.24-4,4.62a10.92,10.92,0,0,1-1.37.1c-3,0-5.39-1.51-7.34-3.9a16.77,16.77,0,0,1-3.51-11.2H170c1.93,3.3,3.56,6.29,5.4,9.16a8.12,8.12,0,0,1,0,9.58c-1.85,2.91-3.42,6-5.37,9.47h31.48l-4.78,3.27c6.57,1.59,13.17,2.93,19.59,4.85a8.35,8.35,0,0,0,2.29.44,3.88,3.88,0,0,0,3-1.7c8.33-9.51,18.67-15.32,31.53-16.07a8.08,8.08,0,0,0,1.93-.75c-4-4.92-7-9.72-1.28-15.38-5.62-.84-10.81-1.86-14.05-7.52Zm-45.19,30.65q-8.55,0-17.09-.05c-.66,0-1.32-.77-2-1.17.65-.45,1.29-1.27,1.95-1.28,5.92-.08,11.85-.14,17.77-.14q4,0,8,0c.9,0,1.8,1,2.7,1.56l-.35,1Z"/><path class="cls-2" d="M207,147.78a51.11,51.11,0,0,0-9.46,7.55c-3.06,3-3.42,6.73-1,10.1l0,0-.26.25c-3.15,2.83-6.07,5.84-8.89,8.76a8.14,8.14,0,0,0-4.22-1.25,8.29,8.29,0,0,0-6.47,3.45c-.29.36-.6.71-.92,1.06l-.05,0-6.36-6.8c10.43-9.52,21.46-18.83,35.8-22.7.6-.16,1.2-.3,1.79-.4m3.1-4.26a22.57,22.57,0,0,0-5.93.8c-16.62,4.48-28.8,15.64-40.45,26.34l12.09,12.91c1.37-1.48,2.78-2.85,4-4.36a4.49,4.49,0,0,1,3.38-2,4.68,4.68,0,0,1,2.69,1,2.82,2.82,0,0,0,1.69.63,3.48,3.48,0,0,0,2.42-1.31c2.92-3,5.85-6.06,9-8.87,2-1.79,2.32-3.51.8-5.61-1.33-1.85-1-3.37.58-4.92a40.81,40.81,0,0,1,17.8-10.95c.86-.24,1.71-.55,3.21-1.05a27.78,27.78,0,0,0-11.28-2.64Z"/><path class="cls-2" d="M246.73,293.15c0,4.53,0,9,0,13.48-1.93,0-3.94.05-6,.05-1.7,0-3.49,0-5.33,0,0-1.34,0-2.67,0-4v-5.33c0-1.36,0-2.77,0-4.17l4.12,0c2.36,0,4.78,0,7.19,0m.85-4h-.1q-4,0-7.94.05l-5,0h-.06c-2.22,0-3.12,1.12-3.09,3.25,0,2.35,0,4.7,0,7.05h0c0,2.55.09,5.1,0,7.64-.11,2.39,1.08,3.49,3.28,3.52,2,0,4,.05,6.07.05q3.43,0,6.85-.07c1.84,0,3.18-.84,3.16-3,0-5.09,0-10.18,0-15.27,0-2.19-1-3.16-3.16-3.16Z"/><path class="cls-2" d="M211.92,293.17h11.32c0,2.44,0,4.87,0,7.31,0,2,0,4.08,0,6.12-2,0-4,.06-6,.06-1.77,0-3.56,0-5.35-.05,0-1,0-1.94,0-2.9h0v-6.3c0-1.42,0-2.83,0-4.25m12.38,13.42h0m-13.48-17.42a2.6,2.6,0,0,0-2.9,2.91c0,2.54,0,5.09,0,7.64h0c0,2.54,0,5.09,0,7.64,0,2.05.94,3.21,2.92,3.24q3.21.07,6.44.07,3.52,0,7.07-.08a2.69,2.69,0,0,0,2.92-3c0-5.19,0-10.38,0-15.57a2.56,2.56,0,0,0-2.89-2.88H210.82Z"/><path class="cls-2" d="M223.26,266.19h0m-11.37,1.07h6.87l4.52,0c0,1.28,0,2.55,0,3.83v3.06c0,.68,0,1.36,0,2,0,1.48,0,3,0,4.53l-6.44,0h-5c.09-4.51.06-9.06,0-13.47m12.32-4h-.07l-5.38,0-7.54,0h0c-2.32,0-3.33,1.16-3.31,3.46,0,4.79.08,9.59,0,14.38-.06,2.54,1.17,3.6,3.51,3.62,1.82,0,3.64,0,5.46,0,2.39,0,4.77,0,7.16,0s3.37-1.18,3.3-3.51,0-4.69,0-7c0-2.55,0-5.09,0-7.63,0-2.09-.83-3.28-3.07-3.28Z"/><path class="cls-2" d="M246.75,267.25c-.06,4.5-.06,9,0,13.47-1.42,0-2.91,0-4.42,0-2.18,0-4.45,0-6.94-.05.05-1.52,0-3,0-4.48,0-.69,0-1.38,0-2.07v-6.89h5c2.13,0,4.26,0,6.4,0m.77-4h-.05l-7.12,0c-1.94,0-3.87,0-5.8,0h-.05c-2.21,0-3.14,1.14-3.13,3.27,0,2.54,0,5.09,0,7.63,0,2.35.09,4.71,0,7.05s1.09,3.46,3.3,3.49q3.83.06,7.66.06c1.75,0,3.51,0,5.26,0,2.07,0,3.21-1.06,3.17-3.32q-.1-7.33,0-14.68c0-2.32-.91-3.46-3.23-3.46Z"/><path class="cls-2" d="M160.2,177l2,2c2.46,2.4,5,4.89,7.32,7.43-1.32,1.53-2.85,3-4.44,4.51l-.31.3c-1.9-1.85-3.81-3.76-5.66-5.61-1.26-1.26-2.52-2.53-3.8-3.79,1.21-1.18,2.4-2.38,3.6-3.58L160.2,177m0-4.42a3.58,3.58,0,0,0-2.49,1.24c-1.8,1.8-3.59,3.6-5.4,5.39s-1.76,3.53.05,5.32c3.34,3.29,6.62,6.65,10,9.92a11,11,0,0,0,2.31,1.33c.82-.28,1.51-.32,1.88-.68a74.08,74.08,0,0,0,6.92-7.15c.57-.71.17-3-.58-3.8-3.28-3.62-6.84-7-10.31-10.42a3.4,3.4,0,0,0-2.37-1.15Z"/><path class="cls-2" d="M398.88,265.39c-1.48,1.59-2.37,2.62-3.34,3.58-1.94,1.92-3.93,3.81-6.05,5.86l14.06,14.28c2.17,2.2,3.27,3.31,4.37,3.31s2.22-1.1,4.41-3.32c4.58-4.66,5.94-4,0-9.6-.29-.27-.54-.58-.81-.86l-12.67-13.25Zm.36,7.12c-.1-1.12-.19-2.24-.28-3.36,1,.37,2.28.48,3,1.16,3.75,3.57,7.41,7.25,11,11a7.37,7.37,0,0,1,1,2.51l-2.84.34c.39,2.5,0,3.6-1.41,3.6a7.24,7.24,0,0,1-2.22-.49c.1,1,.21,1.94.31,2.91-1-.3-2.31-.31-3-1q-5.54-5.2-10.78-10.74c-.73-.78-.91-2.09-1.34-3.16l3.26.14-.27-3.3,3.53.36Z"/><path class="cls-2" d="M230.36,332.24a4.17,4.17,0,0,0-1.63.33A17.91,17.91,0,0,1,221.4,334a43.81,43.81,0,0,1-7.28-.8,7.85,7.85,0,0,0-1.26-.11c-3.32,0-6,2.27-8.32,4.6a14.52,14.52,0,0,0-7.45-2.54,9.12,9.12,0,0,0-6.14,2.5,32.54,32.54,0,0,1,6.7-1c3.31,0,4.82,1.36,6.34,4.61,4.19-4.23,7.48-6.28,10.67-6.28,2.38,0,4.7,1.15,7.3,3.38a10.27,10.27,0,0,1,7.71-3.68,15.94,15.94,0,0,1,7.61,2.34c-1.57-2.67-4.37-4.83-6.92-4.83Z"/><path class="cls-2" d="M342.71,265l1.1,0c0,.59-.06,1.33-.12,2.11l-1.24.06c0-.63,0-1.42,0-2.19h.29m0-4c-.75,0-1.6,0-2.56,0-.39,0-.78.08-1.73.18v3.32c0,5.52,0,6.66,3.44,6.66.93,0,2.1-.08,3.58-.18s2-.64,2.12-2.09c.58-7,.62-7.93-4.85-7.93Z"/><path class="cls-2" d="M343.67,252.84c0,.63.05,1.29,0,1.81h-.3l-1,0V253c.42-.07.83-.14,1.24-.19m1.61-4.18h0a60.12,60.12,0,0,0-6.77,1c-.05,0,0,.36,0,.56v8a48.45,48.45,0,0,0,5,.38c4.34,0,4.61-1.74,4.13-7.95,0-.19.06-.49,0-.57-.72-.53-1.5-1.47-2.22-1.47Z"/><path class="cls-2" d="M186,397.52V419c2.27-1.76,1.81-3.87,1.43-5.94-.88-4.77.92-8.45,5.55-9.89a21.52,21.52,0,0,1,6.28-.88c.69,0,1.38,0,2.05.08,4.84.39,9.63,1.31,15.19,2.12a41.86,41.86,0,0,0-16.78-3.38c-.64,0-1.29,0-1.93,0s-1.26.05-1.88.05c-3.71,0-7.23-.63-9.91-3.72Z"/><path class="cls-2" d="M331.13,265c.65,0,1.1,0,1.42.09a19.09,19.09,0,0,1-.18,1.91h-1.23c0-.66,0-1.32,0-2m-.65-4c-.51,0-1,0-1.62,0-.39,0-.77.07-1.71.16,0,2.91-.06,5.62.05,8.33,0,.5.71,1.35,1.13,1.38,1.11.07,2.23.11,3.35.11s2.07,0,3.1-.11c.48,0,1.17-1,1.27-1.56,1.2-7,.56-8.33-5.57-8.33Z"/><path class="cls-2" d="M331.47,252.66h.65c0,.63,0,1.25,0,1.87h-1v-1.89h.35m0-4c-1.16,0-2.32,0-3.48.08-.31,0-.81.85-.82,1.31-.08,2.71,0,5.42,0,8.47,1.45,0,2.8,0,4.1,0,1.11,0,2.18,0,3.24-.11a2.25,2.25,0,0,0,1.54-1.55,58.45,58.45,0,0,0,0-6.75c0-.49-.46-1.37-.74-1.39q-1.92-.09-3.84-.09Z"/><path class="cls-2" d="M395.23,261.05a2.17,2.17,0,0,0-1.49.79c-3.1,3.12-6.3,6.15-9.53,9.28,1.42,2.39,2.19,3.48,3.09,3.48.72,0,1.54-.7,2.85-2,2.38-2.34,4.69-4.73,7.1-7,1.13-1.09,1.42-2,.13-3.17-.72-.65-1.36-1.36-2.15-1.36Z"/><path class="cls-2" d="M349.45,181.79c-4.79.15-9.82,4.27-10.85,8.71l6.75,2.57,4.1-11.28Z"/><path class="cls-2" d="M249.72,335.35l.24.3-.24-.3Zm.24.3a24.18,24.18,0,0,0,2.11,2.6,3.64,3.64,0,0,0,2,1.19h.09c2.6-.28,5.16-.85,7.76-1.31a8,8,0,0,0-2.69-.39c-1.28,0-2.61.17-3.9.17a6.33,6.33,0,0,1-5.38-2.26Z"/><path class="cls-2" d="M341.21,197.26h0m3.1-.5-4.17,4.53.64.64c3.59-1.29,5-3.15,3.53-5.17Z"/></svg>