<svg id="Layer_1" data-name="Layer 1" xmlns="http://www.w3.org/2000/svg" viewBox="0 0 500 500"><defs><style>.cls-1{fill:#fff;}.cls-2{fill:#0084ff;}</style></defs><circle class="cls-1" cx="250" cy="250" r="200"/><path class="cls-2" d="M245.13,163.44,273.52,192c-.13.14-.25.27-.38.39-1.94,2-3.94,4-5.88,5.89l-.66.66L255.19,187.4,238.3,170.33l2.89-2.92q2-2,3.94-4m-44.42,14.48,5.35,5.44,20.41,20.72,4,4,.41-.52,2.79,2.77,37.13,37,11.11,11.09,3.5,3.48,2.25-2.2-2.77,2.87,3.56,3.47,3.78,3.69,9.34,9.13,1.6,1.63a44.5,44.5,0,0,0,4,3.82,12.37,12.37,0,0,0,3.39,1.86l.17,1.8c0,.12,0,.24,0,.36a9.08,9.08,0,0,0,.54,3.09,7.14,7.14,0,0,0,2.21,2.92l.11.09,1,1,37.59,37.59.26.26c.29.3.64.66,1.05,1L352,335.64c-1.38-1.42-2.78-2.79-4.17-4.15-1-.93-2-1.9-2.89-2.84-9.65-9.73-19.52-19.55-29.06-29l-6.32-6.28a10.2,10.2,0,0,1-1-1.07c.48-3.1-1.69-5.55-2.37-6.23-24.29-24.3-49-49-72.92-72.86l-.69-.69a5.62,5.62,0,0,0-1.47-1.05l-.37-.19-2.86-1.57.74-.69L225,205.34,218.67,199l-19.52-19.44,1.56-1.65m36,13.19,1.28,1.3,8.24,8.3a10.61,10.61,0,0,0-4.13-.83,12.32,12.32,0,0,0-7.1,2.36,13.61,13.61,0,0,0,1.71-11.13m121.61,9.45a7.87,7.87,0,0,1-1.57,3.66,15,15,0,0,1-2.11.49h-.05c-.89.16-1.78.3-2.69.44l1-2.71.1-.28a7.31,7.31,0,0,0,.8.05,6.75,6.75,0,0,0,4.51-1.66m-19.8,6.84,1.07.39-.93.49-.24.13.1-1m-118.43,9.75-47.45,49.7a4.85,4.85,0,0,0-2.51-.67h-1l-.64.25,6.49-6.2q16.8-16.08,33.61-32.13l11.47-11m-76.9,73.52c-16.2,16.78-30.74,31.88-44.71,46.42a8.22,8.22,0,0,0-2,4.36v0a9,9,0,0,0-3.59-2.41c.36-.41.72-.8,1.09-1.15,16.32-15.74,32.89-31.62,49.23-47.26m222.74,47,1,.73-7.28,7.17q-.42-.75-.87-1.47a7.75,7.75,0,0,0,2-1.34c1.76-1.68,3.49-3.34,5.18-5.09M270.44,141a23.71,23.71,0,0,1-4.13,3c-2.12,1-4.57,1.23-6.65,2.26a75.65,75.65,0,0,0-10.29,6c-2.48,1.79-4.45,4.3-6.64,6.49-5.81,5.83-11.56,11.73-17.47,17.46-1.9,1.85-1.9,3.13-.22,5.17a49.31,49.31,0,0,1,6,9,8.94,8.94,0,0,1-1,10.21l-29.39-29.84-8.48,8.93,29.33,29.22-2.15,2q-23.91,22.86-47.82,45.7Q131,295.44,90.46,334.33a32.49,32.49,0,0,0-6,8.54c-1.61,3.1-.51,6.13,2,8.5a7.56,7.56,0,0,0,5.18,2.2,7.71,7.71,0,0,0,3.53-.9,29.19,29.19,0,0,0,7.1-5.07c5.16-5.08,10.07-10.43,15.08-15.67L224.77,219.45c1.25-1.31,2.49-2.64,3.62-3.84a4.49,4.49,0,0,1,.7.39q36.82,36.76,73.61,73.56a2.82,2.82,0,0,1,1,1.94c-.41,2.39.88,3.86,2.38,5.36,11.8,11.75,23.63,23.48,35.36,35.31,5.21,5.25,10.94,10.06,14.42,16.83a28.94,28.94,0,0,0,3.16,4.18l15.7-15.45c-2.58-1.82-5.12-3.63-7.67-5.42a2.74,2.74,0,0,0-1.55-.59,2.43,2.43,0,0,0-1.76.95c-2.06,2.23-4.25,4.34-6.44,6.44a7.82,7.82,0,0,1-1.86,1l-.31-.5,9.17-7.95-1.06-1.45a3.83,3.83,0,0,0-.46-.72q-23-23-45.94-45.93a8.62,8.62,0,0,0-2.57-1.23c-1.33-.6-2.86-.93-3.94-1.82-1.89-1.53-3.5-3.42-5.25-5.13-4.32-4.23-8.65-8.45-13.13-12.82l45.4-47.05,50,50.29,2.21-2.41L339.5,213.45c1.62-.76,2.95-1.71,4.41-2,3.82-.75,7.71-1.12,11.54-1.82,1.59-.29,3.47-.63,4.56-1.65,4.27-4,4.91-14.83,1.31-19.45a9.26,9.26,0,0,0-2.5-1.56c-1,2.81-2,5.26-2.73,7.77-.49,1.66-1.14,2.47-2.31,2.47a5.22,5.22,0,0,1-1.95-.5c-5.29-2.23-10.72-4.1-16.67-6.34-.56,5.68-1.09,11-1.63,16.29l-1.09.24-24.58-25.6c-2.36,1.43-3.16,2.55-1.27,4.38,2.31,2.23,4.33,4.65,6.89,6.75,6.38,5.27,12,11.49,18,17.5l-46.1,45c-16.16-16.13-32.16-32.08-48.24-48.12a7.88,7.88,0,0,1,4.89-2,5.61,5.61,0,0,1,2.37.52,63.13,63.13,0,0,1,11.07,6.33,5.45,5.45,0,0,0,3,1.33,3.86,3.86,0,0,0,2.7-1.51c5.07-5.32,10.37-10.42,15.52-15.66,2-2,3.67-4.46,5.87-6.25,6-4.93,10.46-10.77,12.12-18.54a23.17,23.17,0,0,1,2-4.49,4.92,4.92,0,0,0-2.73-.91c-2.66,0-4.77,2.61-7.37,3.81.7-3.38,2.2-5.6,5.84-6a7,7,0,0,0-6.92-4.55,13.53,13.53,0,0,0-2.14.18l1-1.81-1.87-.55v-6.13l-9,4.76-.29-.6,4.12-5-.5-.36-4.43,1.68c1.65-6,1.05-8.3-2-10.1ZM279,190.44,246.86,158.1c3.39-6,9-8.42,16-8.6,2.31-.06,4.61-.76,7.47-1.27-.94,1.72-2,3.64-2.94,5.34v7.48c3.87-1.67,7.47-3.23,11.71-5.08v6.78l7.81-1.32.39.79c-3.51,3.45-4.25,7.5-3.08,12.12L291,171c-1.3,9-6.46,14.35-12,19.41ZM261.08,208.6l-32.53-32.77,4.07-4.13,32.56,32.91-4.1,4ZM346.59,205l-10.2-3.7,2.89-7.5,10.07,3.79c-1,2.59-1.81,4.83-2.76,7.41ZM101.11,343.41c.3-1,.32-2.2.94-2.85q32.78-34.11,65.66-68.1a6.81,6.81,0,0,1,2.38-1.27h0c.13,0,.53.69.89,1.17-.64.75-1.18,1.43-1.78,2l-47.53,49.25c-6,6.2-11.94,12.42-18,18.57a8.45,8.45,0,0,1-2.59,1.19Zm257.05-12.16a1.54,1.54,0,0,1-.7-.15,8.49,8.49,0,0,1-1.75-1.54L317.11,291c-.41-.41-1-.77-1.19-1.27a8.05,8.05,0,0,1-.23-2.1c.43,0,.89-.07,1.33-.07a2.76,2.76,0,0,1,.77.1c.51.16.89.74,1.3,1.16q19.31,19.29,38.6,38.59c.74.74,1.41,1.56,2.16,2.4-.33.56-.48,1.15-.83,1.3a2.17,2.17,0,0,1-.86.18ZM91,350.19c-1.34-1.74-2.76-2.79-2.65-3.65a3.88,3.88,0,0,1,2.42-2.78h.11A3.65,3.65,0,0,1,93.41,346c.07,1.08-1.21,2.24-2.4,4.16Z"/><path class="cls-2" d="M278.84,351.77c-.38.66-.77,1.3-1.16,1.93-.14.22-.28.44-.4.66-.06-.73-.13-1.47-.22-2.22a2.7,2.7,0,0,0,0-.28l.64,0,1.18-.05m-1.44,16.07c.11.18.22.37.34.55.57.89,1.13,1.81,1.68,2.73-3.73,2.21-5.1,6.52-5.8,8.71-3.54,11.17-10.52,20.81-22,30.34a77.13,77.13,0,0,0-11.54,11.9,26.94,26.94,0,0,0-2.93,4.71,12,12,0,0,0-3.64-10.46,7,7,0,0,1-.78-.95c3-3.88,1.62-7.93.46-10.34,4.86-1.9,8.8-5,12.4-7.86.92-.73,1.79-1.41,2.67-2.08,2.58-2,5.38-3.67,8.34-5.49,1.52-.93,3.09-1.9,4.64-2.9l1.57-1a60.51,60.51,0,0,0,6.15-4.29c4.71-3.88,7.53-8.43,8.41-13.57m-6.66-24.78s0,0,0,0c-.19,1.36-.4,2.79-.6,4.22.69,1.87,1.7,3.61,1.93,5.45.42,3.39.32,6.84.55,10.25.42,6.14-2.31,10.81-6.84,14.54a77.32,77.32,0,0,1-7.26,4.95c-4.43,2.88-9.09,5.42-13.28,8.6-6,4.58-11.51,10-19.83,10.65a19.61,19.61,0,0,1,1.89,2.75c1.29,2.94,4.2,5.85.24,9a2.71,2.71,0,0,0-.18,2.48,13.89,13.89,0,0,0,2.6,3.82,7.13,7.13,0,0,1,1.89,7.77c-.55,1.74-1.2,3.76-.82,5.42a96.27,96.27,0,0,0,4.11,13.42c.4,1,2.44,2,3.76,2h.18c2.08-.16,1.45-2,1.12-3.49-1.62-7.16-.67-14,3.83-19.82A73.21,73.21,0,0,1,254.85,414c10.69-8.9,19.3-19.31,23.54-32.67,1.27-4,2.67-6.58,6.37-6.58a10.08,10.08,0,0,1,1.95.2h0c.08,0,.21-.27.43-.54-1.7-2.88-3.35-5.87-5.2-8.74a7.92,7.92,0,0,1,0-9.32c1.89-3,3.5-6.18,5.4-9.57-2.23,0-4.27-.05-6.23-.05-1.26,0-2.48,0-3.7.09-.54,0-1.07.06-1.58.06-2.37,0-4.33-.55-4.88-3.73,0-.06-.14-.1-.18-.1Z"/><path class="cls-2" d="M152.31,338.77a7.25,7.25,0,0,0,.89,3.06c1.93,3.43,4,6.84,5.93,10.15l1.67,2.81c.4.67.8,1.35,1.19,2,1.48,2.5,3,5.1,4.61,7.63A6.1,6.1,0,0,0,168,366c-3.42,6.08-6.9,12.18-10.21,18-.12.23-.34.61-1.94.62l-3.63,0c-3.39,0-6.89.06-10.32.06-3.61,0-6.77,0-9.67-.12a3,3,0,0,1-1.3-.47c-.67-.89-1.31-1.83-1.93-2.83h2.59c2.95,0,6,0,9-.06,7.4-.08,12.22-4.89,12.26-12.26,0-5.63,0-10.23,0-14.49-.1-7.47-4.83-12.13-12.35-12.17h-2.56c-2.87,0-5.73,0-8.6,0h-.56c.64-1.07,1.28-2.06,2-3a3.7,3.7,0,0,1,1.24-.31c5.47-.17,11.06-.18,16.47-.2h3.93m3.92-5h-.08c-8.13.08-16.27,0-24.39.24-1.69.06-4,.82-4.9,2.06-2.42,3.24-4.24,6.93-6.78,11.28h4.16c4.54,0,9.09-.07,13.63-.07h2.53c4.74,0,7.31,2.55,7.38,7.23s.06,9.6,0,14.4c0,4.62-2.65,7.24-7.32,7.29-5.48.07-11,.05-16.45.1-1,0-2,.16-3.62.3,2.36,3.92,4.17,7.52,6.59,10.65a7.32,7.32,0,0,0,5,2.32c3.27.09,6.54.12,9.81.12,4.66,0,9.33-.06,14-.1,2.55,0,4.88-.73,6.25-3.14q6.26-11,12.45-22a6.09,6.09,0,0,0-.23-6.43q-6.12-10.36-12.19-20.76a6.42,6.42,0,0,0-5.9-3.53Zm16.47,29h0a3.24,3.24,0,0,1-1.86-.93c-2-3.13-3.83-6.34-5.72-9.54-2.53-4.28-5.1-8.54-7.55-12.87a7,7,0,0,1-.31-2.57c.8.45,1.93.69,2.35,1.37,4.4,7.25,8.7,14.57,13,21.87.3.5.55,1,.9,1.69-.27.34-.62,1-.81,1Z"/><path class="cls-2" d="M319.36,337.83c2.15,0,4.08,0,5.91.05a3.23,3.23,0,0,1,1.17.33c.73,1,1.41,2,2.07,3h-9.3c-1.21,0-2.2,0-3.11.08-6.69.39-11.27,5.07-11.39,11.65-.1,5.28-.07,10.6.09,15.82.2,6.65,5,11.33,11.76,11.39,2.68,0,5.37,0,8.1,0h4.14a24.87,24.87,0,0,1-2,3.25,23.86,23.86,0,0,1-3.49.16h-4.18l-3.49,0c-3.53,0-7.15,0-10.77.09a5.86,5.86,0,0,0-.6-1.41c-4.52-7.77-9.24-15.68-13.32-22.49a10.41,10.41,0,0,0-1.68-2.08,3.57,3.57,0,0,1-.27-.28c3.27-5.62,6.58-11.49,10.1-17.88a2.34,2.34,0,0,1,2.48-1.58c2.69,0,5.38,0,8.06-.07,3.2,0,6.5-.08,9.73-.08h0m0-5c-5.94,0-11.87.13-17.81.15a7.27,7.27,0,0,0-6.84,4.17q-5.46,9.92-11.15,19.68a7.64,7.64,0,0,0,.12,8.54c3.84,6.37,7.65,12.76,11.3,19.24a7.27,7.27,0,0,0,6.85,4.15h.27c5.69-.14,11.37-.14,17-.17h4.15c7.34,0,6.69-.45,11.86-9.53.63-1.1,1.06-2.31,1.77-3.89H324.66c-2.72,0-5.39,0-8.06,0-4,0-6.68-2.51-6.8-6.54-.16-5.19-.18-10.39-.09-15.58.08-4,2.63-6.51,6.68-6.75.94-.06,1.88-.07,2.82-.07l3.25,0h13.82l.49-.94A114.65,114.65,0,0,0,330.25,335a7,7,0,0,0-4.89-2.08c-2,0-4-.05-6-.05ZM300,387.11c-.71-.32-1.74-.44-2.07-1q-6.9-11.42-13.59-22.95c-.33-.57,0-1.49,0-2.26l.89-.19a11.06,11.06,0,0,1,1.43,1.64c4.46,7.46,8.92,14.92,13.29,22.43.34.59.07,1.53.09,2.31Z"/><path class="cls-2" d="M181.72,352.57a20.32,20.32,0,0,0,4.23,9.35,16.33,16.33,0,0,0,4.66,4c-3,0-6.19,0-9.54.08a13,13,0,0,0-1.51-12c-.31-.47-.61-1-.91-1.45h3.07m62.55.68c.57.23,1.13.44,1.69.63a12.93,12.93,0,0,0,.88,8.4c-1,.18-2,.39-3,.63a11.65,11.65,0,0,0,.67-3,24.63,24.63,0,0,0,0-4c-.07-.91-.17-1.78-.27-2.62v-.05m-21.13,17.81a12.9,12.9,0,0,0,2.16,1.1,58.8,58.8,0,0,0-7.33,7l-.26-.07c-2.66-.8-5.35-1.5-8-2.15l.31-.89a15.1,15.1,0,0,0,2.8.28,12.65,12.65,0,0,0,9.77-4.58c.2-.23.4-.47.58-.71m16.58-28.14c-.3,2.69-.7,4.82-.72,6.94s.4,4.28.57,6.43a20.49,20.49,0,0,1,0,3.23c-.38,4.37-5.51,8.44-10,8.44a6.88,6.88,0,0,1-1.64-.2c-3.36-.86-5.59-4-6-8.53-.26-2.71-.46-5.42-.68-8.13a22.74,22.74,0,0,0-.08,7.45c.49,3.64.14,7.07-2.36,9.94a7.72,7.72,0,0,1-6,2.86,9.85,9.85,0,0,1-2.51-.35c-3.2-.83-5.49-2.73-6.08-6.06s-.82-6.62-1.2-9.94a6.07,6.07,0,0,0-.47,2.95c.4,3.09-1.36,4.24-4,4.62a10.92,10.92,0,0,1-1.37.1c-3,0-5.39-1.51-7.34-3.9a16.77,16.77,0,0,1-3.51-11.2H170c1.93,3.3,3.56,6.29,5.4,9.16a8.12,8.12,0,0,1,0,9.58c-1.85,2.91-3.42,6-5.37,9.47h31.48l-4.78,3.27c6.57,1.59,13.17,2.93,19.59,4.85a8.35,8.35,0,0,0,2.29.44,3.88,3.88,0,0,0,3-1.7c8.33-9.51,18.67-15.32,31.53-16.07a8.08,8.08,0,0,0,1.93-.75c-4-4.92-7-9.72-1.28-15.38-5.62-.84-10.81-1.86-14.05-7.52Zm-45.19,30.65q-8.55,0-17.09-.05c-.66,0-1.32-.77-2-1.17.65-.45,1.29-1.27,1.95-1.28,5.92-.08,11.85-.14,17.78-.14q4,0,8,0c.9,0,1.8,1,2.7,1.56l-.35,1Z"/><path class="cls-2" d="M201.59,150.35a58.09,58.09,0,0,0-4.77,4.27c-3.18,3.17-3.74,7.12-1.56,10.69-2.84,2.57-5.47,5.27-8,7.91a8.84,8.84,0,0,0-4-1c-1.87,0-4.65.66-7.24,3.82l-.18.2-5-5.31c9.16-8.31,18.82-16.37,30.77-20.58m8.5-6.83a22.57,22.57,0,0,0-5.93.8c-16.62,4.48-28.8,15.64-40.45,26.34l12.09,12.91c1.37-1.48,2.78-2.85,4-4.36a4.52,4.52,0,0,1,3.38-2,4.68,4.68,0,0,1,2.69,1,2.82,2.82,0,0,0,1.69.63,3.48,3.48,0,0,0,2.42-1.31c2.92-3,5.85-6.06,9-8.87,2-1.79,2.32-3.51.8-5.61-1.33-1.85-1-3.37.58-4.92a40.81,40.81,0,0,1,17.8-10.95c.86-.24,1.71-.55,3.21-1.05a27.78,27.78,0,0,0-11.28-2.64Z"/><path class="cls-2" d="M245.73,294.16c0,3.86,0,7.66,0,11.48-1.62,0-3.3,0-5,0l-4.31,0c0-1,0-2,0-3v-5.32c0-1,0-2.09,0-3.16h3.12l6.19,0m-9.37,13.28h0m11.22-18.3h-.1q-4,0-7.94.05l-5,0h-.06c-2.22,0-3.12,1.12-3.09,3.25,0,2.35,0,4.7,0,7.05h0c0,2.55.09,5.1,0,7.64-.11,2.39,1.08,3.49,3.28,3.52,2,0,4,.05,6.07.05q3.43,0,6.85-.07c1.84,0,3.18-.84,3.16-3,0-5.09,0-10.18,0-15.27,0-2.19-1-3.16-3.16-3.16Z"/><path class="cls-2" d="M212.91,294.17h9.34c0,2.1,0,4.21,0,6.31v5.14c-1.66,0-3.33,0-5,0l-4.34,0c0-.31,0-.62,0-.92h0v-7.3c0-1.08,0-2.16,0-3.25m-2.09-5a2.6,2.6,0,0,0-2.9,2.91c0,2.54,0,5.09,0,7.64h0c0,2.54,0,5.09,0,7.64,0,2.05.94,3.21,2.92,3.24q3.21.07,6.44.07,3.52,0,7.07-.08a2.69,2.69,0,0,0,2.92-3c0-5.19,0-10.38,0-15.57a2.56,2.56,0,0,0-2.89-2.88H210.82Z"/><path class="cls-2" d="M212.9,268.26h9.38c0,.94,0,1.88,0,2.82v3.06c0,.68,0,1.35,0,2,0,1.16,0,2.35,0,3.55h-9.37c.06-3.84,0-7.7,0-11.47m-1.67,11.45h0m13-16.46h-.07l-5.38,0-7.54,0h0c-2.32,0-3.33,1.16-3.31,3.46,0,4.79.08,9.59,0,14.38-.06,2.54,1.17,3.6,3.51,3.62,1.82,0,3.64,0,5.46,0,2.39,0,4.77,0,7.16,0s3.37-1.18,3.3-3.51,0-4.69,0-7c0-2.55,0-5.09,0-7.63,0-2.09-.83-3.28-3.07-3.28Z"/><path class="cls-2" d="M236.38,266.38h0m9.35,1.88c0,3.83,0,7.68,0,11.48h-3.41c-1.88,0-3.82,0-5.92,0,0-1.19,0-2.36,0-3.5,0-.69,0-1.37,0-2.06v-5.89h9.35m1.79-5h-.05l-7.12,0c-1.93,0-3.87,0-5.8,0h-.05c-2.21,0-3.14,1.14-3.13,3.27,0,2.54,0,5.09,0,7.63,0,2.35.09,4.71,0,7.05s1.09,3.46,3.3,3.49q3.83.06,7.66.06c1.75,0,3.51,0,5.26,0,2.07,0,3.21-1.06,3.17-3.32q-.1-7.33,0-14.68c0-2.32-.91-3.46-3.23-3.46Z"/><path class="cls-2" d="M160.2,178.44l1.33,1.3c2.33,2.29,4.55,4.46,6.67,6.73-1,1.14-2.19,2.26-3.4,3.41-1.66-1.63-3.33-3.3-5-4.93-1-1-2-2-3.08-3.08,1-1,1.92-1.91,2.87-2.87l.56-.56m-4.48,2.39h0m4.49-8.22a3.58,3.58,0,0,0-2.49,1.24c-1.8,1.8-3.59,3.6-5.4,5.39s-1.76,3.53.05,5.32c3.34,3.29,6.62,6.65,10,9.92a11,11,0,0,0,2.31,1.33c.82-.28,1.51-.32,1.88-.68a74.08,74.08,0,0,0,6.92-7.15c.57-.71.17-3-.58-3.8-3.28-3.62-6.84-7-10.31-10.42a3.4,3.4,0,0,0-2.37-1.15Z"/><path class="cls-2" d="M398.88,265.39c-1.48,1.59-2.37,2.62-3.34,3.58-1.94,1.92-3.93,3.81-6.05,5.86l14.06,14.28c2.17,2.2,3.27,3.31,4.37,3.31s2.22-1.1,4.41-3.32c4.58-4.66,5.94-4,0-9.6-.29-.27-.54-.58-.81-.86l-12.67-13.25Zm.36,7.12c-.1-1.12-.19-2.24-.28-3.36,1,.37,2.28.48,3,1.16,3.75,3.57,7.41,7.25,11,11a7.37,7.37,0,0,1,1,2.51l-2.84.34c.39,2.5,0,3.6-1.41,3.6a7.24,7.24,0,0,1-2.22-.49c.1,1,.21,1.94.31,2.91-1-.3-2.31-.31-3-1q-5.54-5.2-10.78-10.74c-.73-.78-.91-2.09-1.34-3.16l3.26.14-.27-3.3,3.53.36Z"/><path class="cls-2" d="M230.36,332.24a4.17,4.17,0,0,0-1.63.33A17.91,17.91,0,0,1,221.4,334a43.81,43.81,0,0,1-7.28-.8,7.85,7.85,0,0,0-1.26-.11c-3.32,0-6,2.27-8.32,4.6a14.52,14.52,0,0,0-7.45-2.54,9.12,9.12,0,0,0-6.14,2.5,32.54,32.54,0,0,1,6.7-1c3.31,0,4.82,1.36,6.34,4.61,4.19-4.23,7.48-6.28,10.67-6.28,2.38,0,4.7,1.15,7.3,3.38a10.27,10.27,0,0,1,7.71-3.68,15.94,15.94,0,0,1,7.61,2.34c-1.57-2.67-4.37-4.83-6.92-4.83Z"/><path class="cls-2" d="M342.71,261c-.75,0-1.6,0-2.56,0-.39,0-.78.08-1.73.18v3.32c0,5.52,0,6.66,3.44,6.66.93,0,2.1-.08,3.58-.18s2-.64,2.12-2.09c.58-7,.62-7.93-4.85-7.93Z"/><path class="cls-2" d="M345.28,248.66h0a60.12,60.12,0,0,0-6.77,1c-.05,0,0,.36,0,.56v8a48.45,48.45,0,0,0,5,.38c4.34,0,4.61-1.74,4.13-7.95,0-.19.06-.49,0-.57-.72-.53-1.5-1.47-2.22-1.47Z"/><path class="cls-2" d="M186,397.52V419c2.27-1.76,1.81-3.87,1.43-5.94-.88-4.77.92-8.45,5.55-9.89a21.52,21.52,0,0,1,6.28-.88c.69,0,1.38,0,2.05.08,4.84.39,9.63,1.31,15.19,2.12a41.86,41.86,0,0,0-16.78-3.38c-.64,0-1.29,0-1.93,0s-1.26.05-1.88.05c-3.71,0-7.23-.63-9.91-3.72Z"/><path class="cls-2" d="M330.48,261c-.51,0-1,0-1.62,0-.39,0-.77.07-1.71.16,0,2.91-.06,5.62.05,8.33,0,.5.71,1.35,1.13,1.38,1.11.07,2.23.11,3.35.11s2.07,0,3.1-.11c.48,0,1.17-1,1.27-1.56,1.2-7,.56-8.33-5.57-8.33Z"/><path class="cls-2" d="M331.47,248.66c-1.16,0-2.32,0-3.48.08-.31,0-.81.85-.82,1.31-.08,2.71,0,5.42,0,8.47,1.45,0,2.8,0,4.09,0,1.12,0,2.19,0,3.25-.11a2.25,2.25,0,0,0,1.54-1.55,58.45,58.45,0,0,0,0-6.75c0-.49-.46-1.37-.74-1.39q-1.92-.09-3.84-.09Z"/><path class="cls-2" d="M395.23,261.05a2.17,2.17,0,0,0-1.49.79c-3.1,3.12-6.3,6.15-9.53,9.28,1.42,2.39,2.19,3.48,3.09,3.48.72,0,1.54-.7,2.85-2,2.38-2.34,4.69-4.73,7.1-7,1.13-1.09,1.42-2,.13-3.17-.72-.65-1.36-1.36-2.15-1.36Z"/><path class="cls-2" d="M349.45,181.79c-4.79.15-9.82,4.27-10.85,8.71l6.75,2.57,4.1-11.28Z"/><path class="cls-2" d="M249.72,335.35l.24.3-.24-.3Zm.24.3a24.18,24.18,0,0,0,2.11,2.6,3.64,3.64,0,0,0,2,1.19h.09c2.6-.28,5.16-.85,7.76-1.31a8,8,0,0,0-2.69-.39c-1.28,0-2.61.17-3.9.17a6.33,6.33,0,0,1-5.38-2.26Z"/><path class="cls-2" d="M340.52,196.54h0m3.79.22-4.17,4.53.64.64c3.59-1.29,5-3.15,3.53-5.17Z"/></svg>