<svg xmlns="http://www.w3.org/2000/svg" viewBox="0 0 4281.57 1042.68"><defs><style>.cls-1{fill:#dee9f7;}.cls-2{fill:#c0d1ec;}.cls-3{fill:#9fb6df;}.cls-4{fill:#447bbf;}.cls-5{fill:#be1e2d;}.cls-6{fill:#fff;}.cls-7{fill:#b2c1e3;}.cls-8{fill:#9ab0db;}.cls-9{fill:#a8c3e6;}.cls-10{fill:#243962;}.cls-11{fill:#919bce;}.cls-12{fill:#35498c;}.cls-13{fill:#fab17e;}.cls-14{fill:#751113;}.cls-15{fill:#2b488c;}.cls-16{fill:#2e3b65;}.cls-17{fill:#ee985e;}.cls-18{fill:#d63044;}.cls-19{fill:none;}</style></defs><g id="Layer_2" data-name="Layer 2"><g id="Layer_1-2" data-name="Layer 1"><path class="cls-1" d="M2668.1,1041.82c-65.54,0-1070.58.08-1070.58,0-36.81-37.32-47.66-126.43,32.07-212.49,29.21-31.51-48.28-92,2-188.92,19.12-36.84,95.46-100.18,296.94-51,85.67,20.89,158.36-12.47,174.45-24.52A179.1,179.1,0,0,1,2132.64,547c110.88-53.65,302.46-19.48,386.08,45,11.85,9.14,65.73,56.44,23.26,121.44-26.82,41,85.53,80.25,125.45,127.12C2768.94,959.76,2669,1040.27,2668.1,1041.82Z"/><path class="cls-2" d="M1789.25,761.9v.67c0,12.8-10.85,23.22-24.18,23.22h-72.46c-8,0-14.6,6.28-14.6,14V802c0,7.73,6.55,14,14.6,14h80a3,3,0,0,1,3,3,6.25,6.25,0,0,1-1.84,4.42,6.19,6.19,0,0,1-4.42,1.83h-76.69c-13.33,0-24.18-10.41-24.18-23.21V799.8c0-12.79,10.85-23.21,24.18-23.21h72.46c8,0,14.6-6.29,14.6-14v-.67c0-7.73-6.55-14-14.6-14h-73.81c-13.33,0-24.17-10.41-24.17-23.21v-3.11c0-12.81,10.84-23.22,24.17-23.22h73.81c8,0,14.6-6.29,14.6-14s-6.55-14-14.6-14H1619.56q1.31-4.53,3-9.19h142.54c13.33,0,24.18,10.41,24.18,23.21s-10.85,23.22-24.18,23.22h-73.81c-8,0-14.6,6.29-14.6,14v3.11c0,7.73,6.56,14,14.6,14h73.81C1778.4,738.69,1789.25,749.1,1789.25,761.9Z"/><rect class="cls-3" x="2224.11" y="663.86" width="123.87" height="2.78"/><path class="cls-3" d="M2222.68,664.84a2.94,2.94,0,1,1,2.94,2.94A2.94,2.94,0,0,1,2222.68,664.84Z"/><path class="cls-3" d="M2344.2,664.84a2.94,2.94,0,1,1,2.94,2.94A2.94,2.94,0,0,1,2344.2,664.84Z"/><path class="cls-4" d="M2336,663.94v95.77c-9.51,1.63-34.33.23-48.47,1.86s-46.26-.56-46.26-.56V664.38a2.86,2.86,0,0,1,2.87-2.87l89.3-.14A2.56,2.56,0,0,1,2336,663.94Z"/><path class="cls-5" d="M2336,722.41v37.3c-9.51,1.63-34.33.23-48.47,1.86s-46.26-.56-46.26-.56v-35.9c.22-1.28.35-2,.35-2a324.3,324.3,0,0,0,38.95.44C2298.75,722.38,2320.65,725.35,2336,722.41Z"/><path class="cls-6" d="M2258.59,744.33c-7.75,0-16.81-.37-17.32-.39l.1-2.32c.16,0,16.73.69,24.23.23l1.77-.1c9.09-.57,28-1.74,35.91-.42,8.13,1.35,33.19-.31,33.45-.33l.15,2.32c-1,.07-25.59,1.69-34,.29-7.64-1.27-27.08-.06-35.38.45l-1.78.11C2263.79,744.29,2261.27,744.33,2258.59,744.33Z"/><path class="cls-6" d="M2258.59,749.44c-7.75,0-16.81-.38-17.32-.4l.1-2.32c.16,0,16.73.69,24.23.24l1.77-.11c9.09-.57,28-1.74,35.91-.42,8.13,1.35,33.19-.31,33.45-.32l.15,2.31c-1,.07-25.59,1.7-34,.3-7.64-1.28-27.08-.07-35.38.44l-1.78.11C2263.79,749.39,2261.27,749.44,2258.59,749.44Z"/><rect class="cls-3" x="2073.88" y="638.68" width="114.78" height="146.17"/><rect class="cls-2" x="2078.54" y="643.26" width="105.47" height="137.59"/><rect class="cls-2" x="1718.34" y="866.14" width="141.82" height="174.58"/><rect class="cls-7" x="1718.34" y="892.17" width="141.82" height="2.37"/><path class="cls-7" d="M1760.3,889.86h-37.69V869.71h37.69Zm-37.22-.48h36.75v-19.2h-36.75Z"/><path class="cls-7" d="M1780.81,879.78a6.76,6.76,0,1,1,6.76,6.76A6.76,6.76,0,0,1,1780.81,879.78Z"/><path class="cls-7" d="M1799.07,879.78a5.51,5.51,0,1,1,5.5,5.51A5.5,5.5,0,0,1,1799.07,879.78Z"/><rect class="cls-7" x="1818.7" y="873.31" width="30.19" height="12.95"/><circle class="cls-7" cx="1787.57" cy="959.42" r="52.55"/><circle class="cls-8" cx="1787.57" cy="959.42" r="42.25" transform="translate(-45.17 89.39) rotate(-2.83)"/><rect class="cls-7" x="1819.88" y="952.32" width="15.62" height="18.46" rx="4.7"/><rect class="cls-2" x="2058.68" y="863.77" width="157.47" height="176.65"/><rect class="cls-7" x="2058.68" y="917.96" width="157.47" height="2.09"/><rect class="cls-7" x="2124.23" y="869.81" width="28.56" height="3.5" rx="1.05"/><rect class="cls-7" x="2058.68" y="982.07" width="157.47" height="2.09"/><rect class="cls-7" x="2124.23" y="924.37" width="28.56" height="3.5" rx="1.05"/><rect class="cls-7" x="2124.23" y="991.34" width="28.56" height="3.5" rx="1.05"/><rect class="cls-8" x="2048.87" y="854.56" width="175.97" height="11.58"/><path class="cls-8" d="M2129.14,829.33h0a3.52,3.52,0,0,1-3.51-3.51v-32a3.52,3.52,0,0,1,3.51-3.51h0a3.52,3.52,0,0,1,3.52,3.51v32A3.52,3.52,0,0,1,2129.14,829.33Z"/><path class="cls-2" d="M2189.23,829.33c0,10.82-11.69,20.26-29,25.26h-57c-17.33-5-29-14.44-29-25.26Z"/><path class="cls-9" d="M2192.06,829.33H2071.35a2.53,2.53,0,0,1-2.53-2.53h0a2.54,2.54,0,0,1,2.53-2.53h120.71a2.54,2.54,0,0,1,2.54,2.53h0A2.54,2.54,0,0,1,2192.06,829.33Z"/><rect class="cls-10" x="0.84" y="1040.99" width="4280.72" height="1.68" rx="0.84"/><path class="cls-11" d="M1898.51,1041.86s-6.73-10.64-25.81-8.4-32.67,12.49-78.19,1-41.41,9.1-67.33,4.67-37.3,2.69-37.3,2.69Z"/><rect class="cls-12" x="1865.75" y="923.41" width="3.76" height="19.92" transform="translate(-167.09 1401.49) rotate(-39.51)"/><path class="cls-12" d="M1859.56,919.06v0c.8,1.27,1.1,2.9,0,4-1.39,1.45-3.07.89-4.31-.62,0,0-.32-.39-.33-.39-.43-.53-1.58.62-1.51,1.29a5.42,5.42,0,1,0,7.53-5.58C1860.26,917.44,1859.11,918.38,1859.56,919.06Z"/><path class="cls-12" d="M1875.47,948.23h0c-.8-1.27-1.1-2.91-.06-4,1.4-1.44,3.08-.88,4.32.63,0,0,.32.38.33.39.42.53,1.58-.62,1.5-1.3a5.41,5.41,0,1,0-7.53,5.59C1874.77,949.86,1875.91,948.91,1875.47,948.23Z"/><path class="cls-13" d="M1866.3,938.08c3.47.55,11.53-1.86,12.12-1.92,5-.48.18-5.4.18-5.4s-7.86-1.72-9.18-1.62a13.2,13.2,0,0,0-1.92.36l1.35,1.32s-6.55.69-6.62,2.21A5.08,5.08,0,0,0,1866.3,938.08Z"/><path class="cls-13" d="M1869.42,929.14l-5.57.67c0,1.47,4.28,1,4.49,1.71s1.2-1,1.2-1Z"/><path class="cls-13" d="M1921.35,929.58s-7.5.74-7,1.53,3.76,1.14,3.76,1.14l2.64-1.69Z"/><path class="cls-14" d="M1877.05,933.2c-1.2-3.49.48-4.57.48-4.57s34.32-16.28,37.13-18.07,21.67-36.16,21.67-36.16,7-14,15.91-13.77c7.74.25,12,5.07,14.43,10.13a16.23,16.23,0,0,1-2.94,18c-10.27,10.87-30.91,32.41-36.26,35.68-11.9,7.27-47.56,13.16-47.56,13.16A11.68,11.68,0,0,1,1877.05,933.2Z"/><path class="cls-15" d="M1882.08,970.5c5.17,6,16.1,9.82,37.18,10.8,1.69.08,3.39.15,5.1.2s3.52.09,5.29.11c5.73.08,11.43,0,16.86-.16,5.26-.18,10.28-.47,14.82-.85,8.89-.74,16-1.82,19.65-3.05a7.13,7.13,0,0,0,2.33-1.14,4,4,0,0,0,.91-1.18c1.33-2.47.63-6.51-1-11-2.34-6.48-6.64-13.83-9.53-18.43-.58-.92-1.1-1.72-1.54-2.4-.88-1.35-1.43-2.14-1.43-2.14s-9.84.92-23.32,2.67c-2.75.35-5.66.74-8.66,1.17-29,4.1-57.85,11.46-57.82,21.24C1881,967.86,1880.85,969.09,1882.08,970.5Z"/><path class="cls-16" d="M1918,981.18c1.76.06,9.92.41,11.69.43,5.73.08,11.43,0,16.86-.16l5.11-20.58C1943.72,971.88,1920.5,980.47,1918,981.18Z"/><path class="cls-16" d="M1935,1041h-28.1a5,5,0,0,1,4.13-2.92c4.42-.78,12.1-3.17,11.12-9.56s9.78-7.31,9.78-7.31S1936.44,1038.49,1935,1041Z"/><path class="cls-15" d="M1881.62,969.44s34.85,54.83,37.75,61.34c0,0,11.86,1.1,14.71-7.37,0,0-20.72-57.86-29.82-62.62S1881.62,969.44,1881.62,969.44Z"/><path class="cls-13" d="M1951.9,854s-12,16.42-22.7,17.3a32.9,32.9,0,0,1,2.49-6.86,7.22,7.22,0,0,0-.13-6.86.31.31,0,0,1,0-.1,62.27,62.27,0,0,1-3-5.94l4.92-8.91,1-4.78a32.51,32.51,0,0,0,2.89,6A22.8,22.8,0,0,0,1951.9,854Z"/><path class="cls-17" d="M1937.77,843.8a13.81,13.81,0,0,1-6.26,13.69,62.27,62.27,0,0,1-3-5.94l4.92-8.91C1937.33,842.06,1937.77,843.8,1937.77,843.8Z"/><path class="cls-13" d="M1927,856.51s15-8.2,9.8-17.5-6.85-16.61-16.68-11.77-9.68,9.44-8.68,13S1922.93,858.4,1927,856.51Z"/><path class="cls-15" d="M1936.73,820.5c.08-.23.37-.51,1.13-.85a3.37,3.37,0,0,0-1.61.15c-.58-1-1.9-2.74-3.93-2.5a2.54,2.54,0,0,1,1.78,1.27c-3-1.41-8.22-1.26-20.53,4.66-16.23,7.82-6.5,16.57-3.83,17s6.75-5.2,10.91-6.44,7.23,4.4,8.91,4.68.59-.94,2.12-2.51,2.9,1.48,3.15,3.72,2.94,4.09,2.94,4.09.89-.16,2.38-4-.7-16.68-2.85-18.77Z"/><path class="cls-10" d="M2026.61,1023s3.5,5.32,4.31,7-.78,5.39-3.18,5.94c-2.12.48-2.44,4.24-2.44,4.24h10.27a2.7,2.7,0,0,0,2.48-1.52c1.45-3.19,1.78-7.33,2.07-8.72.62-2.91,1.83-5.36,1.29-8.32s-5.59-4.67-14.8-4.64C2016.48,1017.08,2026.61,1023,2026.61,1023Z"/><path class="cls-5" d="M1996.43,959c-7.75,8.21-64.59-8.76-59.83-13.09,1.22-1.09.8-2.41,1.29-4.18,2.36-8.39-2.33-22.75-4.35-28.32-.47-1.29-.79-2.1-.85-2.27a97.81,97.81,0,0,1-4.38-15.83c-1.88-10-1.84-19.36.72-25.07,0,0,0-.06,0-.08,10.65-3.11,16.51-18.78,16.51-18.78s33.74,9.58,46,57.72c0,0,.63,3.06,1.41,7.67h0c.23,1.41.49,3,.74,4.64,1.31,8.56,2.06,19.54,2.84,27.72l.09.87C1997,953.48,1997.71,957.59,1996.43,959Z"/><path class="cls-4" d="M1951.66,950.81s5.67.75,17.1,1.59c11.84.88,24.4,2.75,26.44,6.73.67,1.31.2,4.65-1.12,9.25-2.92,10.19-10,26.59-18.08,41.13,20.76,1.2,49,5.78,49,5.78a12.42,12.42,0,0,1,2.68,11.34c-1.48,0-5.94.64-12,1.62-22,3.55-48.85,10.84-65.49,10.84-3.64,0-6.36-2.58-7.47-6h0C1935.88,1012.32,1951.66,950.81,1951.66,950.81Z"/><path class="cls-16" d="M1994.08,969.93c-11.46-.36-40.2-14.47-39.73-14.58a137.85,137.85,0,0,1,14.41-2.81c11.84,1,24.4,3,26.44,7.32C1995.87,961.29,1995.4,964.92,1994.08,969.93Z"/><path class="cls-4" d="M1951.24,853.68s-14.42,3-15.83,15.63c-1,9.2,6.28,30,6.28,30l4.68-1.91s-8.84-25.73-7.48-30.11c1.74-5.61,10-14,17.66-10.65Z"/><path class="cls-4" d="M1996.43,959c-7.75,8.21-65.81-8.58-61-12.91a8.93,8.93,0,0,0,2.51-4.36c2.36-8.39-2.33-22.75-4.35-28.32-.47-1.29-4.91-16.58-5-16.74l16.35-3.54s4.63,8,10.63,12A66.29,66.29,0,0,0,1993,916.72h0c.23,1.41.49,3,.74,4.64,1.31,8.56,2.06,19.54,2.84,27.72l.09.87C1997,953.48,1997.71,957.59,1996.43,959Z"/><path class="cls-13" d="M1932.45,928.92a30.94,30.94,0,0,1-5.37.7c-2.5.09-5.14-.38-6.34.12-2.53,1.06-10.55,6.57-6.68,8.93a8.92,8.92,0,0,0,10.51-.61c2.64-2.15,9.83-2.32,9.83-2.32Z"/><path class="cls-18" d="M1959.4,865.27c17.38,5,28,46.74,25.52,59.23s-51.52,13.14-51.52,13.14-2.76-2.16-3.09-4.39a10,10,0,0,1,0-4.15s31-8.42,31.75-12-14.94-22.58-14.71-32.88S1949.92,862.54,1959.4,865.27Z"/><rect class="cls-19" width="4281.57" height="1040.99"/></g></g></svg>