<svg id="Layer_1" data-name="Layer 1" xmlns="http://www.w3.org/2000/svg" viewBox="0 0 1048.01 477.11"><defs><style>.cls-1{fill:#dee9f7;}.cls-17,.cls-2{fill:#1d1d1b;}.cls-2{opacity:0.15;}.cls-3{fill:#3d3d3c;}.cls-4{fill:#242423;}.cls-5{fill:#417f7f;}.cls-6{fill:#669898;}.cls-7{fill:#d2996a;}.cls-13,.cls-8{fill:#fdd0aa;}.cls-9{fill:#447bbf;}.cls-10{fill:#fdc991;}.cls-11{fill:#751113;}.cls-12{fill:#aa3a3a;}.cls-13,.cls-14,.cls-16{opacity:0.5;}.cls-14,.cls-19{fill:#fff;}.cls-15{fill:#aa6d3a;}.cls-16{fill:#644f43;}.cls-17{opacity:0.1;}.cls-18{fill:#801718;}.cls-20{fill:#243962;}</style></defs><path class="cls-1" d="M1006.18,477.08c-60,0-979.72.07-979.72,0-33.69-34.16-43.61-115.7,29.35-194.45,26.73-28.84-44.18-84.16,1.85-172.89C75.15,76,145,18.06,329.4,63,407.8,82.16,474.32,51.62,489.05,40.6a164,164,0,0,1,27.11-16.32C617.64-24.82,793,6.45,869.48,65.47c10.85,8.37,60.16,51.65,21.29,111.14-24.54,37.56,78.28,73.43,114.81,116.32C1098.47,402,1007,475.66,1006.18,477.08Z"/><path class="cls-2" d="M506.85,347.59c-1.47-1.82-3.55-2.76-5.6-3.76-1.23-18.46-5.9-19.14-14.41-23.38-7-2.9-13.94-.55-23.84,2.28-4.64.55-6.79-2.28-9.52-3.9a5.14,5.14,0,0,0,.65-.75,2.94,2.94,0,0,0,.61-2.14,1.75,1.75,0,0,0-1.49-1.5,2.1,2.1,0,0,0-.66.09,3.8,3.8,0,0,0-1.65,1.05,1.63,1.63,0,0,0-1.49-1,1.71,1.71,0,0,0-1.3,1,5,5,0,0,0-.35,1.68l-.06.62c-8.46,1-16,4.84-16.16,6.38.8,6.86,7.83,5.29,11.91,6.69,9.9,3.41,10.16,8.87-1.8,16.35a3,3,0,0,0-.9.05l-3.58.61a2.7,2.7,0,0,0,1.29.91,18.19,18.19,0,0,0-2.14,1.44,6.48,6.48,0,0,0,2.31-.6,5.92,5.92,0,0,0-.78,1.29,15.67,15.67,0,0,0,2.91-.79c-.1.36-.46,1.34-.25,1.65a19.05,19.05,0,0,1,2.16-1.1,6.42,6.42,0,0,0,1.88-1.72l13.47-4.18,20.31,4.21-7.77-.22a5.72,5.72,0,0,0-3.58.86c.2.46,1.09-.07,1.43,0-1.25.11-1.45,1.16-1.52,2,.78-.21,1.13-.34,1.79-.54a2,2,0,0,0-.92,1.31,4.77,4.77,0,0,0,1.71-.23,1.7,1.7,0,0,0-.62.77,7.35,7.35,0,0,0,4.83-.1c5.5-1.71,11.57-.16,17.14-1.62.53-.14,1.14-.41,1.21-.95a.74.74,0,0,0,0-.26,14.56,14.56,0,0,0,7.54-2.95l.39.16a13.06,13.06,0,0,1,4.29,2.48,5.15,5.15,0,0,1-1.42,7.89c-3.4,2-7.1,1.26-18.5.17-4.44-.42-8.88-.95-13.34-1a90.64,90.64,0,0,0-13.16,1.07c-3,.41-6,.85-8.92,1.28,5.07-.47,10.15-1,15.25-1.25a66.86,66.86,0,0,1,6.79,0c2.23.14,4.45.39,6.66.71,17.52,2.48,19.44,3.11,23.12,2.55C508.11,360.33,510.79,352.47,506.85,347.59Zm-36.21,4.28c.22-.05.47-.1.76-.14A4.85,4.85,0,0,1,470.64,351.87Z"/><path class="cls-2" d="M475.66,462.62a17.55,17.55,0,0,0-5.23-7.19l6.28-7a55.65,55.65,0,0,1-4.33-5.61l-.81.12-4.7.71a12.19,12.19,0,0,1-4.8,11.23,11.3,11.3,0,0,0,3.56-6.19,13.18,13.18,0,0,0-.36-6.08l6-1.53a35,35,0,0,1-1.8-3.27c-.15,0-.28.07-.43.09a17,17,0,0,1-1.13-3.56,1.42,1.42,0,0,1-1.24-.32,1.56,1.56,0,0,1-.28-1.47,77,77,0,0,0-18.76-3,80,80,0,0,0-9.67.19c-2.67.23-5.31.66-7.95,1.11l2.35-.46a79.69,79.69,0,0,1,19.38-1.16,75.91,75.91,0,0,1,10.19,1.3c1.6.31,3.2.66,4.78,1.07a6.77,6.77,0,0,1,2.88-2.92,78,78,0,0,1-2.75-19,80.81,80.81,0,0,1,.34-9.71c.27-2.67.75-5.3,1.23-7.94-.12.79-.25,1.58-.37,2.37a79.14,79.14,0,0,0-.42,19.33,75.91,75.91,0,0,0,1.67,10c.36,1.55.77,3.09,1.22,4.62a1.56,1.56,0,0,1,1.48.26,1.46,1.46,0,0,1,.34,1.24,16.57,16.57,0,0,1,3.57,1.09c0,.15-.05.28-.07.43a35.93,35.93,0,0,1,3.24,1.74l.18-.78c.4-1.79.81-3.57,1.21-5.36a12.49,12.49,0,0,0,6.28.15,12,12,0,0,0,5.9-3.69,12.74,12.74,0,0,1-1.92,2.16,13.52,13.52,0,0,1-3.49,2.12,12.35,12.35,0,0,1-5.69.83l-.69,5.69a54.67,54.67,0,0,1,5.57,4.18l1.69-1.6,5.3-5a16.74,16.74,0,0,0,13.42,5.92,20.9,20.9,0,0,0,3.77-.63,20.9,20.9,0,0,1-3.75.9,16.25,16.25,0,0,1-5.56-.29,18.31,18.31,0,0,1-7.87-4l-5.52,6,1.16,1.1a34.68,34.68,0,0,1,2.63,2.89h0c.25.31.48.61.7.91l1.65-.86,6.48-3.39a17.63,17.63,0,0,0,5.67,6.85,16.74,16.74,0,0,0,5.56,2.51,19.94,19.94,0,0,0,3.85.45,17.49,17.49,0,0,1-8.94-1.87,18.4,18.4,0,0,1-6.65-6.11l-6.54,4c.1.18.21.35.3.53a1.14,1.14,0,0,1,.1.19,13.63,13.63,0,0,1,.62,1.29h0a8.37,8.37,0,0,1,.37,1.1,8,8,0,0,1,.22,1,6,6,0,0,1,0,1.46,5.2,5.2,0,0,1-.66,2.18,5.9,5.9,0,0,1-.91,1.21,6.09,6.09,0,0,1-1.32,1,5.25,5.25,0,0,1-.77.33,5.31,5.31,0,0,1-1.72.31,8.13,8.13,0,0,1-3.07-.59,12.25,12.25,0,0,1-1.3-.59l-.2-.1-.45-.25-.41.72q-1.64,2.81-3.25,5.62a18.3,18.3,0,0,1,6.28,6.48,17.4,17.4,0,0,1,2.12,8.88,19.76,19.76,0,0,0-.55-3.83,16.87,16.87,0,0,0-2.67-5.49,17.57,17.57,0,0,0-7-5.48l3.87-7.92a30.08,30.08,0,0,1-2.74-2.22h0c-.42-.38-.85-.78-1.29-1.21s-.7-.71-1-1.08l-1,1-4.67,4.51a18.45,18.45,0,0,1,4.27,7.95,17.37,17.37,0,0,1-.4,9.13,18.76,18.76,0,0,0,.52-4A17.48,17.48,0,0,0,475.66,462.62Z"/><path class="cls-2" d="M472.75,221.33l-5.78,6.6L463.65,225l-.06,0,3.25-3.71-6.33-5.55a.92.92,0,0,0-1.21,1.38l5,4.34L462,224.05a5.79,5.79,0,0,0-4.8.16l-1.59-1.4a3,3,0,0,0-3-.53l-3.13-2.75a.61.61,0,0,0-.86.06.61.61,0,0,0,.06.86l2.84,2.49c-.06.06-.15.09-.21.16l-1.17,1.34c-.08.09-.11.21-.18.3l-2.85-2.5a.61.61,0,0,0-.81.92l3.18,2.78a3,3,0,0,0,.94,2.77l1.59,1.4a5.82,5.82,0,0,0,.48,4.78l-2.29,2.61-5-4.34a.91.91,0,1,0-1.2,1.37l6.33,5.55,3.25-3.71s0,0,.05.06l3,2.64-5.78,6.6a.91.91,0,1,0,1.37,1.2l5.78-6.6,2.69,2.36a5,5,0,0,0,.81.46l-3.36,3.84,6.33,5.55a.92.92,0,0,0,1.29-.09.9.9,0,0,0-.09-1.28l-5-4.35,2.55-2.91a5.76,5.76,0,0,0,5.69-1.77l2.28-2.6a5.77,5.77,0,0,0,1-5.87l2.54-2.91,5,4.34a.91.91,0,1,0,1.2-1.37l-6.33-5.55L471.3,232a5,5,0,0,0-.57-.74l-2.38-2.09,5.78-6.6a.91.91,0,1,0-1.38-1.2Z"/><path class="cls-2" d="M338.43,383.31l-7.88-3.86,1.95-4s0-.05,0-.08l4.43,2.17,3.7-7.55a.91.91,0,0,0-1.64-.81l-2.9,5.92L333,373.61a5.83,5.83,0,0,0-1.4-4.6l.93-1.89a3,3,0,0,0-.26-3l1.84-3.74a.61.61,0,0,0-1.1-.53l-1.66,3.39c-.08,0-.12-.12-.2-.16l-1.61-.78a2.14,2.14,0,0,0-.34-.09l1.67-3.41a.61.61,0,1,0-1.09-.54l-1.86,3.8a3,3,0,0,0-2.43,1.62l-.93,1.9a5.83,5.83,0,0,0-4.49,1.71l-3.12-1.53,2.9-5.92a.91.91,0,0,0-1.64-.8l-3.71,7.56,4.44,2.17-.05.06-1.77,3.6-7.88-3.86a.91.91,0,0,0-.8,1.64l7.88,3.86-1.57,3.21a4.89,4.89,0,0,0-.24.91l-4.58-2.25-3.71,7.56a.91.91,0,1,0,1.64.8l2.9-5.92,3.47,1.7a5.81,5.81,0,0,0,3.2,5l3.1,1.52a5.77,5.77,0,0,0,5.93-.56l3.47,1.7-2.9,5.92a.91.91,0,1,0,1.64.8l3.71-7.55-4.58-2.25a5.75,5.75,0,0,0,.56-.74l1.4-2.85,7.88,3.86a.91.91,0,1,0,.8-1.64Z"/><path class="cls-2" d="M505.08,173.72c-.4-5.26-2.19-12.91-4.87-18h0l5.55.87,9.11-6.59a1.34,1.34,0,1,0-1.57-2.17l-8.22,5.94-6.85-1.06a7.05,7.05,0,0,0-1.12-1.13h0c.06-.5.09-1,.1-1.42a5.88,5.88,0,0,0,3-10.44l2.2-3.71L501,135.2l-2.2,3.71a5.87,5.87,0,0,0-7.7,7.67,10.07,10.07,0,0,0-1.2.77h0a7.32,7.32,0,0,0-1.52-.45l-4.22-5.49,1.27-10.07a1.34,1.34,0,1,0-2.65-.33l-1.41,11.15,3.41,4.45h0c-5.71.07-13.28,2.17-18.09,4.34-7.86,3.54-10.31,7.87-7.69,13.61a8.86,8.86,0,0,0,3.48,4.21,8.28,8.28,0,0,0,5.48.91h0l-2.43,4.06a1.33,1.33,0,0,0,.46,1.83h0a1.34,1.34,0,0,0,1.83-.47l3.79-6.32h0a25.8,25.8,0,0,0,2.66-1.06,43,43,0,0,0,5.6-3l0,0h0c-.23,2.44.27,4.32,1.58,5.09s3.19.32,5.22-1.05v0a48.27,48.27,0,0,0,0,6.37c.09,1,.19,1.95.34,2.85h0l-3.73,6.36a1.33,1.33,0,0,0,.47,1.82h0a1.34,1.34,0,0,0,1.83-.48l2.39-4.08h0a8.32,8.32,0,0,0,3.43,4.37,8.93,8.93,0,0,0,5.37,1C503.11,186.54,505.74,182.31,505.08,173.72Zm-41.24-7.25a6.27,6.27,0,0,1-2.41-3c-1.32-2.89-2-6.28,6.35-10.07,6.36-2.9,14.64-4.53,19.12-4l.32.42a29,29,0,0,0-3.62,4.83L474.16,153l-9.25,6.39a1.34,1.34,0,0,0-.34,1.86,1.29,1.29,0,0,0,.42.39,1.34,1.34,0,0,0,1.45,0l8.34-5.77,7.46,1.32a28.08,28.08,0,0,0-1.56,3.88l0,0c-.53.37-1.11.76-1.66,1.12h0l-7.65,2-1.49,2.48C467.24,167.34,465.26,167.31,463.84,166.47Zm32.81,17.85a6.34,6.34,0,0,1-3.83-.66c-1.41-.84-2.38-2.56-3-5.2l1.47-2.5-2-7.67h0c0-.67.11-1.36.18-2v0a29,29,0,0,0,2.66-3.24l4.73,5.92L495.9,179a1.32,1.32,0,0,0,.65,1.29,1.24,1.24,0,0,0,.54.18,1.34,1.34,0,0,0,1.47-1.19l1.18-11.18-6-7.49a28.81,28.81,0,0,0,2.51-5.49l.52.08c2.62,3.67,5.15,11.72,5.66,18.69C503.11,183.06,499.81,184.09,496.65,184.32Z"/><path class="cls-3" d="M379.44,171.23a1,1,0,0,1-.25,0,.84.84,0,0,1-.55-1c.5-1.59,1.09-3.19,1.75-4.76a.83.83,0,0,1,1.09-.44.82.82,0,0,1,.44,1.08c-.64,1.53-1.21,3.08-1.69,4.62A.83.83,0,0,1,379.44,171.23Z"/><path class="cls-3" d="M413.22,453.43a.85.85,0,0,1-.7-.38c-.92-1.43-1.78-2.9-2.55-4.37a.83.83,0,1,1,1.47-.77c.75,1.42,1.59,2.84,2.48,4.23a.83.83,0,0,1-.25,1.15A.85.85,0,0,1,413.22,453.43Z"/><path class="cls-4" d="M360.51,338.57q1.17,0,2.34-.06c17.85-.94,35.66-11.76,47.64-28.94,9.85-14.12,14.25-29.94,12.37-44.54l-3.32.42c1.77,13.78-2.42,28.77-11.8,42.21-11.39,16.33-28.24,26.62-45.07,27.51-18.94,1-37-11.22-41.21-27.82-4.55-18.13,7-35.89,14.31-44.86,2.15-2.65,5.45-6.12,9.08-5.74l.35-3.33c-5.28-.56-9.38,3.7-12,7-7.69,9.45-19.86,28.24-14.95,47.78C322.59,325.58,340.9,338.57,360.51,338.57Z"/><path class="cls-5" d="M411.08,262.14c5.54.17,9.45,1.64,11.62,4.37a8.15,8.15,0,0,1,1.68,6.28l-1.87-.36a6.22,6.22,0,0,0-1.32-4.76C419.38,265.41,416,264.2,411,264Z"/><path class="cls-6" d="M437.25,269.52l1.69-3.11L500,299.64a6.62,6.62,0,0,1,2.51,2.39l8.88,14.59-3,1.84-8.87-14.59a3.17,3.17,0,0,0-1.18-1.12Z"/><path class="cls-6" d="M426.31,275.06l-1.12-3.18-4.82.56a3.38,3.38,0,0,1-2.07-.4l-5.82-3.16a3.28,3.28,0,0,1-1.32-4.45l3.53-6.49-1.29-.71-3.77,6.92a4.66,4.66,0,0,0,1.87,6.32L418,274a5.92,5.92,0,0,0,2.53.73Z"/><rect class="cls-7" x="416.5" y="252.03" width="6.29" height="11.5" transform="translate(-7.35 503.18) rotate(-61.45)"/><path class="cls-7" d="M435.5,271.8a1.2,1.2,0,0,0,1.64-.48l3-5.58a1.22,1.22,0,0,0-.49-1.65l-1.27-.69-4.19,7.71Z"/><path class="cls-8" d="M431.28,277.13l2.78-5.1,4.19-7.71.18-.32a2.14,2.14,0,0,0-.86-2.9l-8.65-4.71a2.14,2.14,0,0,0-2.9.86l-.17.32-3,5.53-.1.17a2.13,2.13,0,0,0-.25,1.11l.38,9.42a2.13,2.13,0,0,0,1.11,1.79l4.4,2.39A2.14,2.14,0,0,0,431.28,277.13Z"/><polygon class="cls-5" points="508.18 318.21 511.31 316.33 516.02 320.92 510 324.52 508.18 318.21"/><path class="cls-9" d="M359.72,380.5a22.53,22.53,0,0,0,1,3.14c.15,1.82,1.42,3.17,3.35,4.06,3.13,1.48,7.95,1.77,12.41.92,5.08-1,9.66-3.46,10.65-7.47v0l.23-5.89.52-12.72.46-11.28,1.69-41.42c.29-2.66-27.51-13.76-27.84-13.35-2.39,7.95-3.6,12.09-1.87,19.6C356.93,335,357.56,371.78,359.72,380.5Z"/><path class="cls-4" d="M340.08,468.33l11.17,2,7.35,1.29,8.87,1.56,15.19-.25s1.46-5.93-1.81-8.83c-3.42-3-6.58-.77-10.72-2.83a13.88,13.88,0,0,1-4.6-3.56,14.22,14.22,0,0,0-2-2.06,13.78,13.78,0,0,0-4.08-2.37,19,19,0,0,0-6-1.21,42.41,42.41,0,0,0-7.62.52c-.88.15-3.48,2.65-5.16,12.74Z"/><polygon class="cls-4" points="344.45 457.11 352.67 458.26 357.93 459.01 362.45 459.65 363.49 455.61 365.34 448.39 366.9 442.29 363.01 441.05 354.31 438.24 350.3 436.94 348.24 444.06 345.76 452.56 344.45 457.11"/><path class="cls-9" d="M344.34,440c.07,1.27,1.58,2.75,3.89,4.08a31.25,31.25,0,0,0,5.77,2.61,34.44,34.44,0,0,0,6.89,1.62,19.76,19.76,0,0,0,4.45.1c3-.29,5.31-1.52,5.91-4.08l15.92-63.16v0l.13-.46a24.24,24.24,0,0,0,.1-5.43c-.54-8.1-4.26-17.94-10.34-19.9a6.28,6.28,0,0,0-1.25-.29l-.31-.06c-3.29-.44-6.2,1.93-8.55,5.53-3.65,5.56-6.06,14-6.83,19.27-.15.23-.25.46-.4.71C353.25,393,347.22,415.36,344.34,440Z"/><path class="cls-10" d="M414.69,212.09c-8.3,4.62-12-9.53-15.38-15.36l4.88-15.68L424.71,190Z"/><path class="cls-10" d="M429.29,199.43a4.82,4.82,0,0,1-4.51,1.7l-4-.77a11.88,11.88,0,0,1-4.06-2.17h0c-3.67-2.95-14.11-12.82-13.95-15.77.18-3.26-2.61-8.52-2.32-12.81,3.45-18.76,15-15.93,22-14.86a16.22,16.22,0,0,1,12.69,10.85,20.35,20.35,0,0,1,1,6.26,29.49,29.49,0,0,1-.18,3.8c-.62,1.16-1.27,2.11-1.27,2.11l.29,1,1.27,4.7a2,2,0,0,1-1.87,2.47l-1.87.22c-.22,1.26-.83,8.39-.83,8.39A9.93,9.93,0,0,1,429.29,199.43Z"/><path class="cls-4" d="M402.47,186.85c12.31,4.7,7.36-10.95,7.36-10.95s2.17,5,3,6.45c2.07.29,2.07.29,4,.43,3.17-15.91,1.15-23.58,18.25-17.17,13.75-3.42-6.19-12.26-14.23-13.4-9.45-1.33-18.47,2.66-20.71,11.94C398.81,169.55,397.8,172.52,402.47,186.85Z"/><rect class="cls-4" x="462.27" y="280.28" width="4.2" height="19.08" transform="translate(68.76 668.14) rotate(-75.69)"/><path class="cls-5" d="M371.79,237.35l13.62,52.82-10.76,5.9-22.2-48.47a13.85,13.85,0,0,1-.51-12.82c1.47-2.87,3.82-5.16,6.76-5.78l.22,0A10.86,10.86,0,0,1,371.79,237.35Z"/><path class="cls-5" d="M386.62,201.3l-32.46,30.33,12.14,20,35.54-32c4.73-3.86,10.6-13.47,5.37-19.43C407.21,200.13,398.54,190.43,386.62,201.3Z"/><path class="cls-9" d="M364,287.35c2.21,1.25,4.43,2.41,6.64,3.43a65.63,65.63,0,0,0,11.82,4.35c.32.1.62.17.94.25a45.79,45.79,0,0,0,11.68,1.29,42.14,42.14,0,0,0,10.41-1.4c.13-.26.27-.52.4-.81,1.83-3.75,4.2-10.54,6.53-17.74.57-1.69,1.1-3.41,1.64-5.12s1-3.22,1.47-4.77c1.06-3.42,2-6.63,2.81-9.37.1-.37.22-.72.32-1.06.5-1.67.92-3.13,1.22-4.28v0c.52-1.82.81-2.91.81-2.94.08-.35.15-.69.22-1,4.48-21.71-3.27-41.83-3.27-41.83l-1.56-.9,0-1.58a2.63,2.63,0,0,0,0-.48,8,8,0,0,0-3.38-6.13l-11.2-7.26L399,194.74c-.67.12-1.34.27-2,.42a22.6,22.6,0,0,0-4.93,1.91,27.92,27.92,0,0,0-8,6.37c-4.13,4.64-7.33,10.75-9.86,17.61-5.56,15.1-7.75,33.78-8.92,48.24-.25,3-.44,5.77-.62,8.33C364.41,281.52,364.2,284.82,364,287.35Z"/><path class="cls-9" d="M363.43,321.56c2.74,3.87,7.24,6.9,14.29,8.22l6.26-3.06h0l18.66-9.13,5.77-2.83-3-19.51-8.9-1.69-19.14-3.65L364,287.33s-.37.84-.91,2.28a58,58,0,0,0-3.44,15.93C359.31,311.08,360.11,316.92,363.43,321.56Z"/><rect class="cls-5" x="365.14" y="294.31" width="11.08" height="1.91" transform="translate(24.47 618.88) rotate(-81.61)"/><path class="cls-9" d="M371.54,304.94c0,.12,0,.27.07.4.2,1.24.57,2.93,1,5,1,4.13,2.39,9.72,4.12,16,.3,1.13.61,2.26,1,3.42.2.67.38,1.37.59,2.06.06.21.13.42.18.63,2.84,9.95,6.19,20.87,9.44,30,3.38,9.7,6.66,17.49,9,20.17.77,1.95,3,3,5.79,3.34a18.67,18.67,0,0,0,3.67,0c.52-.05,1-.12,1.6-.2,7.3-1.12,15.4-5.54,15.08-11.4a1.58,1.58,0,0,0,0-.32c-.84-11.08-3.87-23.95-7.83-37.62a0,0,0,0,1,0,0c-2.06-7.08-4.37-14.36-6.78-21.73-.32-1-.65-2-1-3l-1.71-6.22c-.25-1.36-4.45.35-8.41-2.35C387.19,296.32,371.51,304.57,371.54,304.94Z"/><path class="cls-4" d="M397.34,469.6v3.07h43.21s2.06-6.55-1.67-8.81c-5.46-3.31-12.87-1.39-18.33-6.11a13,13,0,0,0-2.36-1.65,15.08,15.08,0,0,0-7.5-2,23.91,23.91,0,0,0-4.28.38l-.72.14a44.78,44.78,0,0,0-5.49,1.52C399.34,456.45,397.24,459.36,397.34,469.6Z"/><polygon class="cls-4" points="399.7 460.87 406.31 460.65 406.57 460.63 408.97 460.55 417.86 460.28 418.19 456.1 418.56 451.18 419.23 442.41 402.54 440.06 402.06 440.01 401.95 439.98 401.95 440.01 401.94 440.15 401.94 440.21 400.77 451.04 400.2 456.18 399.7 460.87"/><path class="cls-9" d="M395.93,447.91c.37,1.26,2.21,2.33,4.84,3.13a32.13,32.13,0,0,0,4.63,1,34.89,34.89,0,0,0,3.84.34,25.75,25.75,0,0,0,9.32-1.17c2.73-1,4.55-2.68,4.55-5.24l.49-68.66a22.86,22.86,0,0,0-.54-3.15c-2-8.7-9.12-19.86-16.55-19.16l-.32,0c-4.3.4-6.83,5.36-8.17,11.28l-.15.74v0c-.08.41-.17.85-.25,1.27a59.59,59.59,0,0,0-.67,14.38c-1.51,5.57-2.44,13.4-2.81,22.44A280.62,280.62,0,0,0,395.93,447.91Z"/><path class="cls-4" d="M382,295c13.55,0,27.63-2.75,33.18-19.62,8-25.17,12.16-45.47,6.3-62.79-3.44-9.86-8.65-13-12.41-13.91-3.59-.85-9.33-.48-16.3,6.21l4.64,4.83c2.64-2.54,6.54-5.38,10.1-4.53,3,.73,5.73,4.13,7.63,9.58,5.28,15.56,1.29,34.66-6.33,58.55-3.7,11.24-11.52,15.33-28.83,15l-.13,6.69C380.57,295,381.29,295,382,295Z"/><path class="cls-11" d="M473.89,287.12c.62,2.55.95,2.91,3,4,3.47,1.9,4.61,2.43,8.37,4.26-2.08,1.28-3.07,3.15-5.48,3.51s-5-.31-7.42-1a29.6,29.6,0,0,1-7.9-3c-2.77-1.71-4.89-4.27-7-6.78a2.91,2.91,0,0,1-.81-1.51,2.57,2.57,0,0,1,.65-1.75c2.08-2.82,5.46-4.4,8.82-5.39a12.1,12.1,0,0,1,5.92-.57c4.5,1,8.05,5.5,12.41,7,.79.26,1.71.48,2.09,1.22a1.72,1.72,0,0,1-.54,2,3.09,3.09,0,0,1-2.14.56,13.37,13.37,0,0,1-4.49-1.6C477.94,287.45,475.4,286.6,473.89,287.12Z"/><path class="cls-9" d="M399.56,264.28l.09.71a4.14,4.14,0,0,0,.1.63,14.16,14.16,0,0,0,.62,2.15,13.81,13.81,0,0,0,9.82,8.25l2.21.7L441.51,286,461,292.24l2.88-11.94-19-10.06L422,258.18l-3.37-1.78-3-1.59a10.88,10.88,0,0,0-8.75-1,10.75,10.75,0,0,0-6.13,4.87l-.1.19A8.89,8.89,0,0,0,399.56,264.28Z"/><path class="cls-9" d="M394,221.58l5.7,44,23.3,1.78-5.3-47.54c-.37-6.1-4.75-16.47-12.65-15.7C405.08,204.17,392.15,205.56,394,221.58Z"/><path class="cls-11" d="M441.17,287.65l19.8,4.59c2.23-4,3.5-8,2.88-11.94l-19-10.38-.07.32L442,283.88l-.45,2.15Z"/><path class="cls-5" d="M436,182.92l-20.18,4.81c-1.56,8.89,1.78,13,16,17.49l7.54-10.34Z"/><polygon class="cls-12" points="432.41 204.48 434.74 205.22 439.77 198.57 438.69 195.87 432.41 204.48"/><polygon class="cls-4" points="401.96 159.64 416.49 188.95 420.88 187.73 404.4 156.63 401.96 159.64"/><path class="cls-4" d="M424.08,171.79v5.05l-25.33-3.64a18.26,18.26,0,0,1,.27-5Z"/><path class="cls-13" d="M432.51,183.88a6.4,6.4,0,0,1-3.21-.25l-.46-.15-.58-.19-1.67-.58a.27.27,0,0,1-.12-.06,3,3,0,0,1-1.93-3l.38-5.89a4.71,4.71,0,0,1,3.59-4.28,4.55,4.55,0,0,1,1.91,0,2,2,0,0,1,.42.08l.16.05c1.54.41,2.88.82,4.05,1.22a37.05,37.05,0,0,1,4.06,1.6l-.79,6.18a5.12,5.12,0,0,1-2.19,3.59l-1.07.71A6.34,6.34,0,0,1,432.51,183.88Z"/><path class="cls-4" d="M422.61,173.6a7,7,0,0,1,7-6.57,3.31,3.31,0,0,1,.45,0,7.54,7.54,0,0,1,1.41.23c2.28.62,4.64,1.3,6.57,2l.22.1c0,.27,0,.56,0,.83a1.88,1.88,0,0,0-.44-.24c-1.85-.66-4.17-1.32-6.53-2a6.66,6.66,0,0,0-1.25-.21,6.3,6.3,0,0,0-6.68,5.88l-.37,5.89a4.61,4.61,0,0,0,3.12,4.67l2.71.93a8.4,8.4,0,0,0,2.11.42,8.19,8.19,0,0,0,5.06-1.38h0a5,5,0,0,0,.54-.48l0,.94a.61.61,0,0,1-.15.13,9,9,0,0,1-5,1.53h-.55a9.52,9.52,0,0,1-2.29-.47l-2.72-.93a5.34,5.34,0,0,1-3.6-5.39Z"/><path class="cls-5" d="M436,184.18a5,5,0,0,0,.54-.48,5.86,5.86,0,0,0,1.89-3.69l.81-7.8a2.16,2.16,0,0,0-1-2,1.88,1.88,0,0,0-.44-.24c-1.85-.66-4.17-1.32-6.53-2a6.66,6.66,0,0,0-1.25-.21,6.3,6.3,0,0,0-6.68,5.88l-.37,5.89a4.61,4.61,0,0,0,3.12,4.67l2.71.93a8.4,8.4,0,0,0,2.11.42,8.19,8.19,0,0,0,5.06-1.38Zm.17-2-1.07.71a6.57,6.57,0,0,1-5.76.77l-.46-.15-.58-.19-1.67-.58a.27.27,0,0,1-.12-.06,3,3,0,0,1-1.93-3l.38-5.89a4.71,4.71,0,0,1,3.59-4.28,4.55,4.55,0,0,1,1.91,0,2,2,0,0,1,.42.08l.16.05c1.54.41,2.88.82,4.05,1.22a37.05,37.05,0,0,1,4.06,1.6l-.79,6.18A5.12,5.12,0,0,1,436.13,182.15Z"/><path class="cls-14" d="M430.42,170.15l-2.16,12.47-1.67-.52a.26.26,0,0,1-.12,0l2-11.86A5.1,5.1,0,0,1,430.42,170.15Z"/><path class="cls-14" d="M435.05,171.37l-2.54,11.78a7,7,0,0,1-3.21-.22l-.46-.14L431,170.27C432.54,170.65,433.88,171,435.05,171.37Z"/><path class="cls-10" d="M407.49,176.81c-.44,3,1.55,6.74,3.48,7s2.07-2.15,2.54-5.1c.31-2,1.22-4.66-.81-5.59C410.92,172.34,408.13,172.48,407.49,176.81Z"/><path class="cls-15" d="M423.27,192.91c4.48-2.26,9.57-1.26,11.34,2.25s-.43,8.2-4.91,10.47-9.56,1.26-11.34-2.25S418.79,195.18,423.27,192.91Zm.42.83c-4,2-6,6.17-4.5,9.22s6.07,3.87,10.09,1.84,6-6.17,4.5-9.22S427.71,191.71,423.69,193.74Z"/><rect class="cls-7" x="418.82" y="199.04" width="17.28" height="4.32" transform="translate(-44.79 214.65) rotate(-26.84)"/><path class="cls-7" d="M423.48,193.33c-4.26,2.15-6.36,6.56-4.7,9.84s6.46,4.2,10.71,2,6.37-6.56,4.71-9.84S427.74,191.17,423.48,193.33Z"/><path class="cls-8" d="M425.43,197.19c-4.26,2.15-6.36,6.56-4.7,9.84s6.46,4.2,10.72,2,6.36-6.56,4.7-9.84S429.69,195,425.43,197.19Z"/><path class="cls-15" d="M425.22,196.77c4.48-2.27,9.57-1.26,11.34,2.25s-.43,8.2-4.9,10.47-9.57,1.26-11.35-2.25S420.74,199,425.22,196.77Zm.42.83c-4,2-6,6.17-4.49,9.22s6.06,3.87,10.09,1.84,6-6.17,4.49-9.22S429.66,195.57,425.64,197.6Z"/><path class="cls-16" d="M422.64,206.06c-1.27-2.51.3-5.87,3.49-7.49a6.66,6.66,0,0,1,6.84.15,4,4,0,0,1,1.26,1.48c1.28,2.51-.29,5.87-3.49,7.49a6.64,6.64,0,0,1-6.83-.15A4.1,4.1,0,0,1,422.64,206.06Zm3.87-6.74c-2.78,1.41-4.18,4.26-3.12,6.37a3.26,3.26,0,0,0,1,1.18,5.91,5.91,0,0,0,6,.07c2.78-1.41,4.18-4.27,3.12-6.37a3.46,3.46,0,0,0-1-1.18A5.91,5.91,0,0,0,426.51,199.32Z"/><path class="cls-16" d="M425.51,204.61c-.65-1.29.13-3,1.75-3.82s3.46-.41,4.1.86-.13,3-1.74,3.82a3.32,3.32,0,0,1-3.44-.09A2.07,2.07,0,0,1,425.51,204.61Zm2.12-3.07c-1.2.6-1.81,1.81-1.37,2.69s1.83,1.08,3,.49,1.82-1.81,1.38-2.69a1.46,1.46,0,0,0-.41-.48A2.55,2.55,0,0,0,427.63,201.54Z"/><path class="cls-17" d="M382.37,295.42l1,0,22.49-.92c1.83-3.75,4.2-10.54,6.53-17.74L441.51,286l-.34,1.62,19.8,4.59-19-8.36L414,271.6l-2.54-1.12c-.44-1.36-.86-2.7-1.26-4.05q-1.9-6.3-3.36-12.61A188,188,0,0,1,402,208.55l-6.1,27.1-13.41,59.48Z"/><path class="cls-17" d="M359.63,305.54a54,54,0,0,0,13,4.81,49.62,49.62,0,0,0,17.42.35c4.57-.1,8.72,2.61,12.59,6.89,4.45,4.87,8.53,11.79,12.55,18.9-2.06-7.08-4.37-14.36-6.78-21.73l-3-19.51-8.9-1.69-19.14-3.65-14.36-.3A58,58,0,0,0,359.63,305.54Z"/><path class="cls-17" d="M363.43,321.56c2.74,3.87,7.24,6.9,14.29,8.22.2.67.38,1.37.59,2.06.06.21.13.42.18.63,2.84,9.95,6.19,20.87,9.44,30,3.38,9.7,6.66,17.49,9,20.17-1.51,5.57-2.44,13.4-2.81,22.44a280.62,280.62,0,0,0,1.79,42.78c.37,1.26,2.21,2.33,4.84,3.13l-.57,5.14c-.86.27-3,3.18-2.86,13.42v3.07h10.24l-1.27-12-.62-6L405.4,452a98.65,98.65,0,0,1-3.46-11.8c-4.07-18-2.65-36,4.47-54.16.9-2.38,1.94-4.77,3.06-7.15A82.5,82.5,0,0,1,398,366.28a73,73,0,0,1-14-39.56h0a31.56,31.56,0,0,1-7.21-.36A41.74,41.74,0,0,1,363.43,321.56Z"/><path class="cls-5" d="M332,286.79c0-.28.08-.56.14-.84l17.35-88.38a14.78,14.78,0,1,1,29,5.69l-17.35,88.38c-.06.28-.12.56-.19.83Z"/><rect class="cls-18" x="352.83" y="204.45" width="15.05" height="29.62" transform="translate(75.78 530.63) rotate(-78.89)"/><rect class="cls-7" x="330.14" y="235.51" width="48.25" height="29.62" transform="translate(40.39 549.72) rotate(-78.89)"/><rect class="cls-4" x="364.03" y="179.97" width="6.53" height="6.75" transform="translate(116.63 508.45) rotate(-78.89)"/><rect class="cls-18" x="344.07" y="274.12" width="4.65" height="32.55" rx="2.3" transform="translate(-5.29 574.36) rotate(-78.89)"/><rect class="cls-4" x="374.35" y="179.8" width="8.06" height="2.71" transform="translate(127.72 517.54) rotate(-78.89)"/><path class="cls-4" d="M379.1,177.49a6.48,6.48,0,1,1,7.61-5.11A6.48,6.48,0,0,1,379.1,177.49Zm2.27-11.58a5.32,5.32,0,1,0,4.2,6.25A5.32,5.32,0,0,0,381.37,165.91Z"/><path class="cls-12" d="M381,167.55h0a3.64,3.64,0,0,1,2.74,2.39,3.37,3.37,0,0,1,.18.87l-1.38.12a2.59,2.59,0,0,0-.11-.54,2.27,2.27,0,0,0-1.7-1.48h0Z"/><path class="cls-7" d="M384,170.8a3.63,3.63,0,1,1-2.92-3.24l-.27,1.36a2.25,2.25,0,1,0,1.81,2Z"/><path class="cls-5" d="M377.16,169.38a3.52,3.52,0,0,1,.45-.64,3.63,3.63,0,0,1,3.44-1.18l-.27,1.36a2.25,2.25,0,0,0-2.12.73,2.63,2.63,0,0,0-.28.4Z"/><path class="cls-4" d="M376.06,169.91a.36.36,0,0,1,.29.42.36.36,0,1,1-.71-.14A.36.36,0,0,1,376.06,169.91Z"/><path class="cls-4" d="M384.78,171.62a.36.36,0,0,1,.28.42.36.36,0,0,1-.42.29.36.36,0,1,1,.14-.71Z"/><path class="cls-4" d="M381.56,166.83a.36.36,0,1,1-.28-.42A.35.35,0,0,1,381.56,166.83Z"/><path class="cls-4" d="M379.85,175.54a.36.36,0,0,1-.71-.13.36.36,0,0,1,.43-.29A.36.36,0,0,1,379.85,175.54Z"/><path class="cls-4" d="M376.46,173.29a.38.38,0,0,1,.51.1.37.37,0,0,1-.61.41A.38.38,0,0,1,376.46,173.29Z"/><path class="cls-4" d="M383.84,168.34a.36.36,0,0,1,.5.1.37.37,0,0,1-.1.5.36.36,0,0,1-.5-.1A.35.35,0,0,1,383.84,168.34Z"/><path class="cls-4" d="M378.18,167.23a.37.37,0,0,1-.1.5.36.36,0,1,1,.1-.5Z"/><path class="cls-4" d="M383.13,174.6a.36.36,0,0,1-.6.41.36.36,0,1,1,.6-.41Z"/><path class="cls-4" d="M381.26,171.86a1.17,1.17,0,1,1-1.82-1.46,1.17,1.17,0,0,1,1.82,1.46Z"/><polygon class="cls-4" points="380.1 170.79 383.14 167.66 380.73 171.3 380.1 170.79"/><path class="cls-6" d="M352.43,290.79c0-.28.08-.56.13-.84l17.36-88.38a14.78,14.78,0,1,1,29,5.69l-17.36,88.39c-.05.28-.11.55-.18.82Z"/><rect class="cls-12" x="373.22" y="208.46" width="15.05" height="29.62" transform="translate(88.32 553.87) rotate(-78.89)"/><rect class="cls-8" x="350.53" y="239.51" width="48.25" height="29.62" transform="translate(52.92 572.96) rotate(-78.89)"/><rect class="cls-4" x="384.42" y="183.98" width="6.53" height="6.75" transform="translate(129.16 531.69) rotate(-78.89)"/><path class="cls-12" d="M352.62,294l27.43,5.38a2.3,2.3,0,0,0,2.7-1.81v-.05a2.3,2.3,0,0,0-1.82-2.7l-27.42-5.39a2.32,2.32,0,0,0-2.71,1.82v.05A2.3,2.3,0,0,0,352.62,294Z"/><rect class="cls-4" x="369.73" y="181.04" width="6.98" height="53.33" transform="translate(97.5 533.92) rotate(-78.89)"/><rect class="cls-4" x="355.14" y="255.36" width="6.98" height="53.33" transform="translate(12.8 579.6) rotate(-78.89)"/><polygon class="cls-4" points="385.04 297.19 381.12 296.42 399.19 204.36 403.59 203.09 385.04 297.19"/><rect class="cls-4" x="376.83" y="165.46" width="4.78" height="31.53" transform="translate(128.33 518.43) rotate(-78.89)"/><rect class="cls-4" x="393.08" y="182.41" width="7.74" height="4.6" transform="translate(139.23 538.64) rotate(-78.89)"/><rect class="cls-4" x="357.9" y="175.27" width="7.74" height="4.6" transform="translate(117.81 498.34) rotate(-78.89)"/><rect class="cls-4" x="372.95" y="246.54" width="1.77" height="18.06" transform="translate(51.03 573.17) rotate(-78.89)"/><rect class="cls-4" x="372.24" y="250.16" width="1.77" height="18.06" transform="translate(46.91 575.39) rotate(-78.89)"/><rect class="cls-4" x="370.53" y="254.59" width="1.77" height="16.02" transform="translate(42.17 576.47) rotate(-78.89)"/><rect class="cls-4" x="368.28" y="261.78" width="1.77" height="13.99" transform="translate(34.3 579.23) rotate(-78.89)"/><rect class="cls-4" x="369.57" y="263.75" width="1.77" height="18.06" transform="translate(31.42 583.74) rotate(-78.89)"/><path class="cls-19" d="M386.3,244.4a9.52,9.52,0,1,1-7.51-11.18A9.53,9.53,0,0,1,386.3,244.4Z"/><path class="cls-4" d="M376.72,241.61l-4.06-.8.59-3a.34.34,0,0,1,.39-.27.33.33,0,0,1,.26.4l-.46,2.35,3.41.67a.33.33,0,0,1,.26.39A.34.34,0,0,1,376.72,241.61Z"/><path class="cls-4" d="M371.6,247.93a.34.34,0,0,1-.27-.39l.6-3,4.06.8a.33.33,0,0,1-.13.65l-3.41-.67-.46,2.36A.33.33,0,0,1,371.6,247.93Z"/><path class="cls-4" d="M376,243.81l-5.16-1a.34.34,0,0,1-.26-.39.34.34,0,0,1,.39-.27l4.5.89.44-2.24a.34.34,0,0,1,.39-.27.33.33,0,0,1,.26.39Z"/><path class="cls-4" d="M379.89,249.56a.32.32,0,0,1-.26-.39l.46-2.36-3.41-.67a.33.33,0,1,1,.13-.65l4.06.8-.59,3A.32.32,0,0,1,379.89,249.56Z"/><path class="cls-4" d="M381.6,242.57l-4.06-.8a.33.33,0,0,1-.26-.39.34.34,0,0,1,.39-.27l3.41.67.46-2.36a.34.34,0,0,1,.39-.26.34.34,0,0,1,.27.39Z"/><path class="cls-4" d="M377.24,246.57a.34.34,0,0,1-.27-.39l.57-2.89,5.16,1a.33.33,0,0,1-.13.65l-4.5-.88-.44,2.24A.33.33,0,0,1,377.24,246.57Z"/><path class="cls-4" d="M378.22,239.62a.22.22,0,0,1-.17-.26l.52-2.67a.23.23,0,0,1,.26-.18.24.24,0,0,1,.18.27l-.53,2.66A.23.23,0,0,1,378.22,239.62Z"/><path class="cls-4" d="M376.93,239.37a.24.24,0,0,1-.17-.27l.52-2.66a.22.22,0,1,1,.44.08l-.52,2.67A.24.24,0,0,1,376.93,239.37Z"/><rect class="cls-4" x="375.49" y="238.46" width="3.98" height="2.86" rx="1.1" transform="translate(69.42 564.14) rotate(-78.9)"/><rect class="cls-4" x="372.94" y="240.63" width="7.7" height="5.53" rx="2.14" transform="translate(65.33 566.21) rotate(-78.89)"/><path class="cls-2" d="M592.66,445.84c2.58.39,3.93,0,16.22-1.79,1.55-.22,3.1-.4,4.67-.49a44.46,44.46,0,0,1,4.76,0c3.58.15,7.14.54,10.7.88-2.08-.3-4.17-.62-6.26-.9a63.36,63.36,0,0,0-9.23-.75c-3.13,0-6.25.39-9.36.69-8,.76-10.6,1.3-13-.12a3.61,3.61,0,0,1-1-5.53,9.06,9.06,0,0,1,3-1.74l.27-.12a10.16,10.16,0,0,0,5.29,2.07.59.59,0,0,0,0,.19c0,.38.47.56.84.66,3.91,1,8.17-.06,12,1.14a5.19,5.19,0,0,0,3.39.07,1.23,1.23,0,0,0-.44-.54,3.37,3.37,0,0,0,1.21.16,1.47,1.47,0,0,0-.65-.92c.46.14.71.23,1.25.38,0-.57-.19-1.3-1.06-1.38.24,0,.86.35,1,0a4,4,0,0,0-2.51-.61l-5.45.16,14.24-2.95,9.46,2.92a4.2,4.2,0,0,0,1.31,1.21,12.1,12.1,0,0,1,1.52.78c.15-.22-.11-.91-.18-1.17a10.07,10.07,0,0,0,2,.56,5,5,0,0,0-.55-.91,4.39,4.39,0,0,0,1.62.43,12.81,12.81,0,0,0-1.51-1,1.91,1.91,0,0,0,.91-.64l-2.51-.43a2.7,2.7,0,0,0-.63,0c-8.39-5.24-8.21-9.07-1.26-11.46,2.86-1,7.79.11,8.35-4.7-.1-1.08-5.4-3.77-11.34-4.47,0-.15,0-.29,0-.44a3.4,3.4,0,0,0-.24-1.18,1.2,1.2,0,0,0-.92-.71,1.12,1.12,0,0,0-1,.69,2.66,2.66,0,0,0-1.16-.74,1.46,1.46,0,0,0-.46-.06,1.21,1.21,0,0,0-1.05,1.05,2.12,2.12,0,0,0,.43,1.5,4.51,4.51,0,0,0,.45.53c-1.91,1.13-3.41,3.11-6.67,2.73-6.95-2-11.79-3.63-16.72-1.6-6,3-9.25,3.46-10.12,16.4a11,11,0,0,0-3.93,2.64A5.92,5.92,0,0,0,592.66,445.84Zm20.59-6.63a3.58,3.58,0,0,1,.53.1A4.51,4.51,0,0,1,613.25,439.21Z"/><path class="cls-2" d="M595.13,247l-7.43,8.49-4.28-3.74-.08-.05,4.18-4.77-8.14-7.14a1.19,1.19,0,0,0-1.66.11,1.17,1.17,0,0,0,.11,1.66l6.38,5.59-3,3.36a7.49,7.49,0,0,0-6.18.2l-2-1.8a3.89,3.89,0,0,0-3.84-.69l-4-3.52a.78.78,0,1,0-1,1.17l3.66,3.21a1.64,1.64,0,0,0-.26.2L566,251a3.61,3.61,0,0,0-.22.39l-3.68-3.22a.79.79,0,0,0-1.1.07.8.8,0,0,0,.07,1.11l4.09,3.58a3.85,3.85,0,0,0,1.21,3.56l2.05,1.79a7.46,7.46,0,0,0,.61,6.15l-2.94,3.37-6.38-5.59a1.18,1.18,0,0,0-1.55,1.77l8.15,7.13,4.18-4.77s0,.05.06.08l3.88,3.4L567,278.29a1.17,1.17,0,1,0,1.76,1.54l7.44-8.48,3.46,3a6.37,6.37,0,0,0,1,.6l-4.33,4.94,8.15,7.13a1.17,1.17,0,0,0,1.55-1.76l-6.38-5.59L583,276a7.45,7.45,0,0,0,7.33-2.28l2.93-3.34a7.46,7.46,0,0,0,1.29-7.56l3.28-3.74,6.38,5.58a1.17,1.17,0,0,0,1.54-1.76l-8.14-7.13-4.33,4.93a6.66,6.66,0,0,0-.73-.95L589.46,257l7.44-8.49a1.18,1.18,0,0,0-1.77-1.55Z"/><path class="cls-2" d="M549.14,421.67c-5.18-2.55-13.38-5.12-19.62-5.4h0l3.9-4.74-1.13-12.25a1.47,1.47,0,0,0-2.92.27l1,11.05-4.8,5.85a7.74,7.74,0,0,0-1.69.44h0a12.44,12.44,0,0,0-1.29-.89,6.42,6.42,0,0,0-8.13-8.66l-2.27-4.14-1.61.87,2.28,4.15a6.42,6.42,0,0,0,2.93,11.51c0,.5,0,1,.06,1.56h0a7.74,7.74,0,0,0-1.27,1.18l-7.52.91-8.77-6.79a1.47,1.47,0,0,0-1.79,2.32l9.72,7.52,6.09-.73h0c-3.12,5.41-5.35,13.71-6,19.45-1,9.36,1.68,14.08,8.53,14.8a9.7,9.7,0,0,0,5.91-.93,9.1,9.1,0,0,0,3.9-4.65v0l2.47,4.55a1.45,1.45,0,0,0,2,.59h0a1.47,1.47,0,0,0,.58-2l-3.85-7.09h0a28.79,28.79,0,0,0,.47-3.1,46.63,46.63,0,0,0,.25-7v0h0c2.17,1.57,4.21,2.15,5.67,1.35s2.08-2.83,1.92-5.51v0a52.71,52.71,0,0,0,6,3.53c1,.47,1.94.91,2.87,1.26h0L547,448a1.47,1.47,0,0,0,2,.57h0a1.47,1.47,0,0,0,.57-2l-2.51-4.53h0a9,9,0,0,0,6-.79,9.74,9.74,0,0,0,4-4.48C560.12,430.65,557.6,425.83,549.14,421.67Zm-29.76,34.8a6.88,6.88,0,0,1-4.2.58c-3.46-.37-7-1.62-5.95-11.58.8-7.6,3.87-16.31,6.87-20.22l.57-.07a32,32,0,0,0,2.54,6.09l-6.81,8,.87,12.26a1.46,1.46,0,0,0,1.57,1.35,1.35,1.35,0,0,0,.6-.17,1.46,1.46,0,0,0,.75-1.39l-.79-11.07,5.39-6.29a30.1,30.1,0,0,0,2.79,3.63v0c.06.71.1,1.46.13,2.19v0l-2.41,8.3,1.51,2.78C522.08,453.75,521,455.6,519.38,456.47Zm35-21a6.87,6.87,0,0,1-2.74,3.24c-1.58.86-3.74.82-6.55-.1l-1.54-2.77-8.3-2.43h0c-.6-.41-1.21-.86-1.77-1.29h0a30.66,30.66,0,0,0-1.57-4.31l8.2-1.17,8.91,6.62a1.46,1.46,0,0,0,1.58.1,1.41,1.41,0,0,0,.47-.41,1.45,1.45,0,0,0-.3-2l-9.88-7.33-10.37,1.47a32.4,32.4,0,0,0-3.78-5.41l.37-.45c4.9-.42,13.9,1.67,20.74,5.07C556.84,428.71,556,432.39,554.43,435.5Z"/><path class="cls-2" d="M587.86,149.34a28.69,28.69,0,0,0-15.22,2.59,20.4,20.4,0,0,0-6.31,4.41,25.36,25.36,0,0,0-4.94,8.47c-.28.69-.54,1.39-.81,2.09a35.13,35.13,0,0,1-3.7,7.81,14.52,14.52,0,0,1-7.06,5.29,5.07,5.07,0,1,0,3.32,9.58c.24-.08.47-.18.7-.28l.59,1.38a1,1,0,0,0,1.33.53,1,1,0,0,0,.56-.6,1,1,0,0,0,0-.73l-.59-1.38a24.47,24.47,0,0,0,3.72-2.21l1,1.68a1,1,0,0,0,1.38.38,1,1,0,0,0,.46-.55,1,1,0,0,0-.08-.83l-1.1-1.94a24.2,24.2,0,0,0,3.64-3.86l1.13,1.16a1,1,0,0,0,1.43,0,1,1,0,0,0,.25-.39,1,1,0,0,0-.23-1l-1.42-1.45a34.41,34.41,0,0,0,2.37-4.42l1.56.88a1,1,0,0,0,1.38-.38,1.3,1.3,0,0,0,.08-.17,1,1,0,0,0-.46-1.21l-1.76-1c.36-.88.7-1.77,1-2.64.25-.66.5-1.32.76-2,.09-.21.17-.39.25-.59l2.2,1.3a1,1,0,0,0,1.39-.36.66.66,0,0,0,.09-.19,1,1,0,0,0-.45-1.2l-2.4-1.42a11.14,11.14,0,0,1,1.8-2.77,7,7,0,0,1,.69-.63l1,1.6a1,1,0,0,0,1.39.33,1,1,0,0,0,.43-.53,1,1,0,0,0-.09-.86l-1-1.67c.28-.15.57-.31.89-.45a18.31,18.31,0,0,1,3.57-1.21l.47,1.83a1,1,0,0,0,1.94.08,1,1,0,0,0,0-.58l-.43-1.7a18.39,18.39,0,0,1,4-.1l.26,1.92a1,1,0,0,0,1.14.87,1,1,0,0,0,.87-1.14l-.24-1.76a5.07,5.07,0,0,0-.69-10Z"/><path class="cls-3" d="M673.64,225.55a.83.83,0,0,1-.83-.75c-.15-1.67-.33-3.32-.54-4.94a.83.83,0,0,1,.72-.93.84.84,0,0,1,.93.72c.21,1.64.39,3.31.55,5a.83.83,0,0,1-.75.91Z"/><path class="cls-3" d="M652.94,468.46a.83.83,0,0,1-.49-1.5c1.34-1,2.66-2,3.94-3a.83.83,0,1,1,1,1.3q-2,1.56-4,3A.82.82,0,0,1,652.94,468.46Z"/><path class="cls-7" d="M595.28,340.49l14.54-3.61,3.5-.87,9-2.24,5.24-3.91,5-3.75L675,294.47l3-2.22,1.13-.84,6-4.51,12-8.94,6.46-4.84L699,256.27l-3.71-13.59L692.62,233h-25.7c-2.14,2.59-4.27,5.15-6.4,7.65l-.71.85c-4.57,5.3-9.17,10.41-13.85,15.25-1.07,1.13-2.18,2.24-3.26,3.31a3.54,3.54,0,0,1-.52.51C630.53,272.18,618.5,282,605.86,289l-.55.29-1.82,1v0Z"/><path class="cls-9" d="M678.84,223.77l12.55,54.06,12.49.27-2.77-54.18a14.09,14.09,0,0,0-5.57-11.81c-2.68-1.9-5.88-2.86-8.82-2l-.21.07A11,11,0,0,0,678.84,223.77Z"/><path class="cls-9" d="M648.5,198.21l43.55,12.1L690.49,234l-47.13-12.19c-6.09-1.25-15.9-7.16-14-15C629.37,206.84,632.63,194,648.5,198.21Z"/><path class="cls-17" d="M703.62,261.68c.88-1.11-14.28-41-14.28-41l-32.43-14Z"/><path class="cls-9" d="M721.9,378.88a22.1,22.1,0,0,1-1.06,3.2c-.14,1.84-1.44,3.21-3.41,4.12-3.17,1.51-8.08,1.81-12.62.94-5.16-1-9.82-3.52-10.84-7.61v0l-.23-6-.53-12.94-.47-11.48L691,307c-.3-2.71,28-14,28.32-13.59,2.44,8.09,3.67,12.3,1.91,19.94C724.75,332.56,724.11,370,721.9,378.88Z"/><path class="cls-4" d="M741.89,468.25l-11.37,2-7.47,1.31-9,1.59-15.46-.26s-1.49-6,1.84-9,6.69-.78,10.9-2.88A14.12,14.12,0,0,0,716,457.4a15,15,0,0,1,6.23-4.51,19.33,19.33,0,0,1,6.14-1.23,43.79,43.79,0,0,1,7.75.53c.89.15,3.54,2.69,5.26,13Z"/><polygon class="cls-4" points="737.45 456.83 729.08 458 723.72 458.76 719.13 459.42 718.07 455.31 716.18 447.96 714.6 441.75 718.56 440.48 727.41 437.62 731.5 436.31 733.59 443.55 736.11 452.19 737.45 456.83"/><path class="cls-9" d="M737.55,439.4c-.06,1.29-1.61,2.8-4,4.15a31,31,0,0,1-5.86,2.65,34.28,34.28,0,0,1-7,1.65,20.52,20.52,0,0,1-4.53.11c-3.05-.3-5.4-1.55-6-4.15L694,379.53v0l-.13-.46a25.15,25.15,0,0,1-.1-5.53c.55-8.24,4.34-18.26,10.52-20.25a7.48,7.48,0,0,1,1.27-.29l.32-.07c3.35-.44,6.31,2,8.7,5.64,3.71,5.65,6.17,14.19,7,19.61.15.23.26.46.4.72C728.49,391.54,734.63,414.35,737.55,439.4Z"/><path class="cls-10" d="M628.24,221.15c9.67.26,6.38-14.26,6.66-21.09L623.12,188.2l-14.3,17.73Z"/><path class="cls-10" d="M609.12,216.59A4.89,4.89,0,0,0,614,216l3.28-2.59a12,12,0,0,0,2.64-3.87s0,0,0,0c1.93-4.38,6.71-18.19,5.17-20.78-1.69-2.86-1.65-8.92-3.93-12.65-11.94-15.31-21-7.34-26.8-3.08A16.51,16.51,0,0,0,588,188.78a21.22,21.22,0,0,0,2,6.14,32.09,32.09,0,0,0,2,3.34c1.1.75,2.13,1.3,2.13,1.3l.24,1.09,1.06,4.83a2.08,2.08,0,0,0,2.84,1.36l1.8-.68c.79,1,4.69,7.17,4.69,7.17A10.1,10.1,0,0,0,609.12,216.59Z"/><path class="cls-4" d="M627.4,192.63c-8.9,10-11.79-6.42-11.79-6.42s.4,5.55.32,7.24c-1.74,1.23-1.74,1.23-3.38,2.25C602.21,182.83,600.43,175,588,188.79c-14,3.38-.18-14,6.54-18.78,7.91-5.65,17.92-6.29,24.31,1C622.57,175.29,624.88,177.5,627.4,192.63Z"/><path class="cls-9" d="M716.38,280.38c-19.18,19.43-37.41,10.92-41,11.75-.23-.17-9.16-8.34-14.64-13.74-1.31-1.26-2.6-2.56-3.89-3.85s-2.42-2.43-3.57-3.61c-2.56-2.59-4.93-5-7-7.14-.26-.28-.53-.54-.78-.8-1.24-1.27-2.3-2.39-3.12-3.29v0c-1.33-1.4-2.1-2.25-2.11-2.28-.24-.28-.46-.55-.69-.84-14.26-17.47-16.73-39.27-16.73-39.27l1-1.55-.75-1.41a2.57,2.57,0,0,1-.2-.45,8.1,8.1,0,0,1,.17-7.12l6.69-11.82,4.47,3.2c.66-.21,1.33-.39,2-.56a23.31,23.31,0,0,1,5.36-.6,28.5,28.5,0,0,1,10.23,2c5.91,2.24,11.67,6.25,17.18,11.25,12.11,11,22.88,26.83,30.73,39.33,1.64,2.59,3.11,5,4.48,7.23C706.27,260.15,715,278.2,716.38,280.38Z"/><path class="cls-9" d="M672.33,312l5.89,2.89.42.2,13,6.34,5.6,2.73h0l6.37,3.11c7.17-1.35,11.74-4.42,14.54-8.37s3.84-8.7,3.91-13.45a26.84,26.84,0,0,0,0-2.84c-.36-6.71-3.53-16.67-4.69-19.89-.55-1.47-.93-2.33-.93-2.33l-12.5,6.32-12.65,2.42-6.82,1.29-5.31,1-3.46.67-.29,0-.35,2.35Z"/><path class="cls-9" d="M657.41,372.73c-.31,5.95,7.93,10.46,15.34,11.59.58.09,1.11.15,1.65.2a17.82,17.82,0,0,0,3.73,0c2.86-.29,5.1-1.4,5.9-3.4,2.4-2.73,5.73-10.63,9.17-20.51,3.31-9.35,6.71-20.47,9.61-30.57.05-.23.11-.45.18-.67l.6-2.09c.33-1.17.67-2.33,1-3.46,1.75-6.42,3.22-12.1,4.17-16.32.49-2.11.87-3.82,1.07-5.08,0-.13,0-.29.06-.4a21.37,21.37,0,0,0-5.75-2.64c-4.17-1.45-10-2.67-15.45-1.33a15.55,15.55,0,0,0-5,2.21c-4,2.76-8.3,1-8.57,2.4L673.33,309c-.33,1-.66,2-1,3-2.44,7.48-4.79,14.9-6.88,22.11h0a228.11,228.11,0,0,0-7.24,31.59c-.33,2.31-.58,4.53-.73,6.71a.39.39,0,0,0,0,.15A.38.38,0,0,0,657.41,372.73Z"/><path class="cls-4" d="M683.63,469.54v3.12h-44s-2.1-6.66,1.7-9c5.55-3.37,13.1-1.41,18.65-6.22a13.06,13.06,0,0,1,2.4-1.68,15.4,15.4,0,0,1,7.63-2,23.89,23.89,0,0,1,4.36.39c.24,0,.49.08.73.13a47.78,47.78,0,0,1,5.59,1.55C681.59,456.16,683.73,459.12,683.63,469.54Z"/><polygon class="cls-4" points="681.23 460.65 674.5 460.43 674.23 460.41 671.79 460.33 662.75 460.06 662.41 455.8 662.04 450.79 661.35 441.87 678.33 439.48 678.83 439.43 678.93 439.4 678.93 439.43 678.95 439.57 678.95 439.63 680.14 450.65 680.72 455.88 681.23 460.65"/><path class="cls-9" d="M685.06,447.47c-.37,1.28-2.25,2.37-4.92,3.18a33.39,33.39,0,0,1-4.72,1,36,36,0,0,1-3.9.34,25.92,25.92,0,0,1-9.48-1.19c-2.78-1-4.64-2.72-4.64-5.33l-.49-69.86a23.26,23.26,0,0,1,.54-3.2c2.06-8.86,9.29-20.22,16.85-19.5l.32,0c4.38.41,7,5.45,8.31,11.48.05.24.1.49.16.75h0c.08.43.17.87.25,1.3A60.69,60.69,0,0,1,684,381.1c1.54,5.67,2.49,13.64,2.86,22.84A284.24,284.24,0,0,1,685.06,447.47Z"/><path class="cls-5" d="M595.27,204.86l20.46-5.14c5.59,7.29,4.51,12.56-6.22,23.31l-11.67-5.78Z"/><polygon class="cls-12" points="608.68 222.62 606.92 224.38 599.25 220.75 598.96 217.8 608.68 222.62"/><polygon class="cls-4" points="615.06 167.84 615.74 201.11 611.21 202.08 611.44 166.27 615.06 167.84"/><path class="cls-4" d="M600.81,189.2l2.38,4.56,21.14-15.2a18.27,18.27,0,0,0-2.57-4.35Z"/><path class="cls-13" d="M598.9,204.07a6.52,6.52,0,0,0,2.78-1.73L602,202l.44-.44,1.23-1.3s.07-.07.08-.11a3,3,0,0,0,.32-3.62l-3.1-5.15a4.82,4.82,0,0,0-5.26-2.17,4.58,4.58,0,0,0-1.74.86,1.81,1.81,0,0,0-.34.28l-.12.11c-1.2,1.1-2.22,2.1-3.08,3a38,38,0,0,0-2.92,3.35l3.63,5.21a5.24,5.24,0,0,0,3.66,2.21l1.29.13A6.25,6.25,0,0,0,598.9,204.07Z"/><path class="cls-4" d="M603,190.15a7.14,7.14,0,0,0-9.4-2.64,3.61,3.61,0,0,0-.39.22,7.72,7.72,0,0,0-1.17.87c-1.76,1.63-3.58,3.35-5,4.87a1.73,1.73,0,0,0-.15.2l.41.74a2,2,0,0,1,.28-.44c1.36-1.46,3.14-3.14,5-4.83a6.57,6.57,0,0,1,1-.78,6.41,6.41,0,0,1,8.79,2.17l3.11,5.14a4.71,4.71,0,0,1-.62,5.68l-2,2.11a8.37,8.37,0,0,1-1.71,1.37,8.21,8.21,0,0,1-5.21,1.14h0c-.25,0-.48-.12-.72-.18l.43.86a.67.67,0,0,0,.19,0,9.21,9.21,0,0,0,5.21-1l.48-.27a9.28,9.28,0,0,0,1.85-1.5l2-2.12a5.44,5.44,0,0,0,.72-6.56Z"/><path class="cls-5" d="M587.37,196.7l4.4,6.64a6,6,0,0,0,3.44,2.44,1.14,1.14,0,0,1,.26.09.13.13,0,0,1,.09,0l.36.07a8.16,8.16,0,0,0,5.22-1.13,9.05,9.05,0,0,0,1.71-1.36l.64-.66,1.38-1.47a4.72,4.72,0,0,0,.62-5.68L604,193.19l-1.62-2.66a6.52,6.52,0,0,0-1.29-1.51,6.39,6.39,0,0,0-7.5-.66,6.16,6.16,0,0,0-1.05.77c-1.24,1.18-2.46,2.31-3.55,3.4-.51.49-1,1-1.42,1.44a2.2,2.2,0,0,0-.26.45A2.18,2.18,0,0,0,587.37,196.7Zm.16.11a31.12,31.12,0,0,1,2.17-2.57c.25-.27.49-.53.76-.8.86-.91,1.86-1.89,3.06-3a.69.69,0,0,0,.13-.11A2.37,2.37,0,0,1,594,190a4.37,4.37,0,0,1,1.75-.84,4.75,4.75,0,0,1,5.24,2.17l3.11,5.13a3,3,0,0,1-.31,3.62.2.2,0,0,1-.09.11l-1.24,1.31L602,202l-.33.35a6.82,6.82,0,0,1-2,1.42.06.06,0,0,0,0,0,6.28,6.28,0,0,1-.76.29,5,5,0,0,1-1.62.29,4.43,4.43,0,0,1-1.15,0l-1-.11-.31,0a5.12,5.12,0,0,1-3.66-2.2Z"/><path class="cls-14" d="M594.33,190.71l7.81,10.23,1.27-1.25.08-.1-7.42-9.75A5.17,5.17,0,0,0,594.33,190.71Z"/><path class="cls-14" d="M590.73,194l7.83,9.44a7.18,7.18,0,0,0,2.79-1.71l.35-.34-7.84-10.29C592.65,192.15,591.61,193.11,590.73,194Z"/><path class="cls-10" d="M618.15,185.93c1.79,2.46,1.77,6.81.16,8s-2.88-1-4.69-3.4c-1.19-1.62-3.28-3.64-1.89-5.43C613,183.51,615.54,182.32,618.15,185.93Z"/><path class="cls-15" d="M602.31,215.24a5.65,5.65,0,0,0,.47,2.18s0,0,0,.06a2.3,2.3,0,0,0,.25.56v0a6.37,6.37,0,0,0,.35.55,7.37,7.37,0,0,0,.85,1,8.39,8.39,0,0,0,.84.74,8.69,8.69,0,0,0,1.11.71,10.84,10.84,0,0,0,4,1.24,9.68,9.68,0,0,0,1.44.09,11,11,0,0,0,5.39-1.44,8.83,8.83,0,0,0,1.14-.78,5.35,5.35,0,0,0,.77-.73,5.67,5.67,0,0,0,.85-1.05,4.91,4.91,0,0,0,.33-.53,3.72,3.72,0,0,0,.24-.58.12.12,0,0,0,0-.09,4.87,4.87,0,0,0,.38-1.86,1.51,1.51,0,0,0,0-.31,6.18,6.18,0,0,0-1.65-4.06l-.53-.54a10.59,10.59,0,0,0-7.17-2.55h-.18a9.88,9.88,0,0,0-7.72,3.64A6.05,6.05,0,0,0,602.31,215.24Zm1,0a4.91,4.91,0,0,1,.86-2.86,8.88,8.88,0,0,1,7.37-3.56,7.38,7.38,0,0,1,1,.05h0a9,9,0,0,1,5.75,2.55,2,2,0,0,1,.33.38,5.17,5.17,0,0,1,1.22,2.8c0,.13,0,.28,0,.42v0a4,4,0,0,1-.12,1,2.05,2.05,0,0,1-.17.62,1.9,1.9,0,0,1-.23.56,5.56,5.56,0,0,1-1.19,1.68q-.27.27-.6.54a1,1,0,0,0-.2.15,8.6,8.6,0,0,1-3,1.42l0,0a9.93,9.93,0,0,1-2.69.37,5.43,5.43,0,0,1-.58,0,9.12,9.12,0,0,1-2.13-.29,9,9,0,0,1-3.06-1.37,1.6,1.6,0,0,1-.23-.16,4.36,4.36,0,0,1-.62-.53,5.71,5.71,0,0,1-1.22-1.62,2.31,2.31,0,0,1-.24-.56,2,2,0,0,1-.18-.64A3.81,3.81,0,0,1,603.27,215.24Z"/><rect class="cls-7" x="602.81" y="215.13" width="17.58" height="4.4" transform="translate(-2.6 7.46) rotate(-0.7)"/><path class="cls-7" d="M611.49,208.35c4.86-.06,8.83,2.93,8.87,6.67s-3.85,6.83-8.7,6.89-8.83-2.93-8.88-6.67S606.64,208.41,611.49,208.35Z"/><path class="cls-8" d="M611.54,212.75c4.86-.06,8.83,2.93,8.88,6.67s-3.86,6.83-8.71,6.89-8.83-2.93-8.87-6.67S606.69,212.81,611.54,212.75Z"/><path class="cls-15" d="M616.21,214.24l.51.27a8.72,8.72,0,0,1,.8.55l.71,0a7.72,7.72,0,0,0-1.29-.93c-.11-.07-.22-.11-.33-.18Zm-13.85,5.24v.16a6,6,0,0,0,.88,3c1.49,2.49,4.73,4.2,8.46,4.15,5.13-.06,9.24-3.37,9.19-7.37a5.76,5.76,0,0,0-.46-2.22s0-.06,0-.09a1.87,1.87,0,0,0-.26-.48,2.7,2.7,0,0,0-.34-.56,5.23,5.23,0,0,0-.86-1,7.1,7.1,0,0,0-1.73-1.31.54.54,0,0,0-.18-.11,11.33,11.33,0,0,0-11.55.53,6.72,6.72,0,0,0-1.24,1.07,5.64,5.64,0,0,0-.82,1,5.14,5.14,0,0,0-.35.55c-.09.18-.18.38-.25.56a.08.08,0,0,0,0,.07A5.83,5.83,0,0,0,602.36,219.48Zm.95.16a3.92,3.92,0,0,1,.11-1,2.08,2.08,0,0,1,.18-.62,1.71,1.71,0,0,1,.22-.55,6,6,0,0,1,1.82-2.24,4.49,4.49,0,0,1,.51-.38,9.83,9.83,0,0,1,5.4-1.6,10.23,10.23,0,0,1,4.66,1l.51.27a8.72,8.72,0,0,1,.8.55,6.42,6.42,0,0,1,1.86,2.18,2.68,2.68,0,0,1,.25.55,3.42,3.42,0,0,1,.18.6,3.91,3.91,0,0,1,.13,1v0c0,3.46-3.64,6.34-8.24,6.39a9.42,9.42,0,0,1-6.46-2.24s0,0,0,0a5.4,5.4,0,0,1-1.89-3.59A1.83,1.83,0,0,1,603.31,219.64Z"/><path class="cls-16" d="M605,219.61v.07a2.25,2.25,0,0,0,.09.67,2.91,2.91,0,0,0,.13.55v0a5.33,5.33,0,0,0,2.38,2.76,7.86,7.86,0,0,0,4.06,1,6.73,6.73,0,0,0,6.11-3.33,4.26,4.26,0,0,0,.4-1.22,3.49,3.49,0,0,0,0-.65v-.08a4.55,4.55,0,0,0,0-.52,4.89,4.89,0,0,0-2.2-3.3,5.36,5.36,0,0,0-.87-.51s0,0,0,0a8,8,0,0,0-3.51-.75,7.87,7.87,0,0,0-3.51.84,4.08,4.08,0,0,0-.8.49,5.44,5.44,0,0,0-1.8,2,4.15,4.15,0,0,0-.42,1.38A5.34,5.34,0,0,0,605,219.61Zm1,.78a1.94,1.94,0,0,1-.09-.64.3.3,0,0,1,0-.16,3.5,3.5,0,0,1,.36-1.53,4.67,4.67,0,0,1,1.86-1.91,7.31,7.31,0,0,1,6.29-.44,4.53,4.53,0,0,1,1.13.6,3.92,3.92,0,0,1,1.89,3.15v.15c0,.23,0,.45-.09.65a3,3,0,0,1-.25.69s0,0,0,.06a6,6,0,0,1-5.35,2.87,6.87,6.87,0,0,1-3.44-.83,4.9,4.9,0,0,1-1.73-1.51s0,0,0,0a2.92,2.92,0,0,1-.29-.46A2.71,2.71,0,0,1,606,220.39Z"/><path class="cls-16" d="M613.7,218.53a1.43,1.43,0,0,1,.4,1l.87,0a2.12,2.12,0,0,0-.74-1.6C614.06,218.1,613.88,218.3,613.7,218.53Zm-5.42,1a2.29,2.29,0,0,0,.67,1.55,3.09,3.09,0,0,0,.84.65h0a2.75,2.75,0,0,0,.66.26,4.16,4.16,0,0,0,1.18.18,3.9,3.9,0,0,0,1.86-.49,2.88,2.88,0,0,0,.83-.66l0,0a1.75,1.75,0,0,0,.35-.53,2.29,2.29,0,0,0,.25-1,2.12,2.12,0,0,0-.74-1.6v0a3.58,3.58,0,0,0-2.26-1,2.24,2.24,0,0,0-.38,0,2.66,2.66,0,0,0-.75.09A2.93,2.93,0,0,0,608.28,219.57Zm5.82-.07c0,1-1.13,1.82-2.44,1.84a1.87,1.87,0,0,1-.47,0,2,2,0,0,1-2-1.73v0a1.35,1.35,0,0,1,.13-.6,2.63,2.63,0,0,1,2.33-1.25,2.77,2.77,0,0,1,2.09.83A1.43,1.43,0,0,1,614.1,219.5Z"/><path class="cls-17" d="M718.14,318.9c-2.8,3.94-7.38,7-14.55,8.36-.2.69-.39,1.4-.59,2.1-.07.22-.14.42-.19.65-2.9,10.11-6.3,21.23-9.61,30.57-3.44,9.87-6.78,17.79-9.18,20.52,1.54,5.67,2.49,13.64,2.86,22.84a284.24,284.24,0,0,1-1.82,43.53c-.37,1.28-2.25,2.37-4.92,3.18l.58,5.23c.87.28,3,3.24,2.91,13.66v3.12H673.21l1.29-12.23.63-6.1.29-2.69a100.76,100.76,0,0,0,3.53-12c4.14-18.28,2.69-36.66-4.55-55.12-.92-2.42-2-4.85-3.12-7.27a83.82,83.82,0,0,0,11.65-12.84,74.3,74.3,0,0,0,14.27-40.26h0a32.15,32.15,0,0,0,7.34-.36A42.61,42.61,0,0,0,718.14,318.9Z"/><path class="cls-8" d="M607.16,288.27l3,20.79-2,20.26,2,9.34s-17.48,8.69-17.2,7.58,3.89-33,3.89-33L599,292.76Z"/><path class="cls-15" d="M593.51,342.37l2.28-19.49-6.7,10.82a68.33,68.33,0,0,0-9.72,27.39l-8.85,69.52C572.78,426.8,579.38,384.94,593.51,342.37Z"/><path class="cls-15" d="M570.29,444.74a2.28,2.28,0,0,1,.06,1.1.75.75,0,0,1-.84.55v-1.95h.84v1.39Z"/><path class="cls-15" d="M567.77,454.1a2.06,2.06,0,0,1,.06,1.1.75.75,0,0,1-.83.55V453.8h.83v1.39Z"/><path class="cls-15" d="M567.32,460a2.13,2.13,0,0,1,0,1.09.72.72,0,0,1-.83.55v-1.94h.83v1.39Z"/><path class="cls-15" d="M569.41,433.06c.18.56-.28,1.39-.78,1.09l0-1.61a.61.61,0,0,1,.08-.42c.19-.27.65-.11.78.19a1.46,1.46,0,0,1-.09,1Z"/><path class="cls-15" d="M557.43,463.47c.17.55-.29,1.39-.78,1.09,0-.54,0-1.08,0-1.61a.77.77,0,0,1,.08-.43c.19-.26.66-.1.78.2a1.37,1.37,0,0,1-.09.95Z"/><path class="cls-15" d="M566.9,441.31c.17.55-.29,1.39-.78,1.09,0-.54,0-1.08,0-1.61a.77.77,0,0,1,.08-.43c.19-.26.66-.1.78.2a1.37,1.37,0,0,1-.08.95Z"/><path class="cls-15" d="M567.8,448.88c.17.55-.29,1.38-.78,1.08l0-1.61a.67.67,0,0,1,.09-.42c.18-.27.65-.11.77.19a1.39,1.39,0,0,1-.08,1Z"/><path class="cls-15" d="M569,452c.18.56-.28,1.39-.78,1.09l0-1.61a.6.6,0,0,1,.08-.42c.19-.27.66-.11.78.19a1.4,1.4,0,0,1-.09,1Z"/><path class="cls-15" d="M571.68,462.36c.17.55-.29,1.38-.78,1.08,0-.54,0-1.07,0-1.61a.74.74,0,0,1,.08-.42c.19-.27.66-.11.78.19a1.4,1.4,0,0,1-.09,1Z"/><path class="cls-15" d="M564.46,453.09c.17.55-.29,1.39-.78,1.08,0-.53,0-1.07,0-1.61a.76.76,0,0,1,.08-.42c.19-.27.66-.11.78.2a1.37,1.37,0,0,1-.09,1Z"/><path class="cls-15" d="M562.09,458c.17.55-.29,1.39-.78,1.09,0-.54,0-1.08,0-1.61a.77.77,0,0,1,.08-.43c.19-.26.66-.1.78.2a1.37,1.37,0,0,1-.09.95Z"/><path class="cls-15" d="M573.36,434.18c.17.55-.29,1.39-.78,1.08l0-1.6a.77.77,0,0,1,.08-.43c.19-.26.66-.11.78.2a1.32,1.32,0,0,1-.09.95Z"/><path class="cls-15" d="M572.1,438.25c.17.55-.29,1.39-.78,1.08,0-.53,0-1.07,0-1.61a.68.68,0,0,1,.09-.42c.18-.27.65-.11.78.2a1.43,1.43,0,0,1-.09.95Z"/><path class="cls-15" d="M570.74,450c.17.55-.29,1.39-.78,1.09l0-1.61A.77.77,0,0,1,570,449c.19-.26.66-.1.78.2a1.37,1.37,0,0,1-.09.95Z"/><path class="cls-15" d="M569.87,456.85c.17.56-.29,1.39-.78,1.09,0-.54,0-1.07,0-1.61a.67.67,0,0,1,.09-.42c.18-.27.65-.11.78.19a1.46,1.46,0,0,1-.09,1Z"/><path class="cls-15" d="M568.24,444.41c.18.55-.28,1.39-.78,1.09l0-1.61a.63.63,0,0,1,.08-.43c.19-.26.65-.1.78.2a1.43,1.43,0,0,1-.09.95Z"/><path class="cls-15" d="M564.92,456.85c.17.56-.29,1.39-.79,1.09l0-1.61a.74.74,0,0,1,.08-.42c.19-.27.66-.11.78.19a1.4,1.4,0,0,1-.09,1Z"/><path class="cls-15" d="M569.87,439.36c.17.56-.29,1.39-.78,1.09,0-.54,0-1.07,0-1.61a.67.67,0,0,1,.09-.42c.18-.27.65-.11.78.19a1.46,1.46,0,0,1-.09,1Z"/><path class="cls-15" d="M565.37,448.88c.18.55-.28,1.38-.78,1.08l0-1.61a.61.61,0,0,1,.08-.42c.19-.27.66-.11.78.19a1.4,1.4,0,0,1-.09,1Z"/><path class="cls-15" d="M564.46,461.24c.17.55-.29,1.39-.78,1.08l0-1.61a.76.76,0,0,1,.08-.42c.19-.27.66-.11.78.2a1.37,1.37,0,0,1-.09.95Z"/><path class="cls-15" d="M560.21,462.36c.17.55-.29,1.38-.78,1.08,0-.54,0-1.07,0-1.61a.74.74,0,0,1,.08-.42c.19-.27.66-.11.78.19a1.4,1.4,0,0,1-.09,1Z"/><path class="cls-15" d="M573,429.5a1.26,1.26,0,0,1-.79,1.14,2.36,2.36,0,0,1,.52-2Z"/><path class="cls-15" d="M570.8,434.21v1.94c-.4.06-1-.18-.82-.55Z"/><path class="cls-15" d="M572.16,441.34v1.94c-.4.06-1-.18-.81-.55Z"/><path class="cls-15" d="M571.74,454.8v1.94c-.4.05-1-.19-.82-.56Z"/><polygon class="cls-15" points="577.74 472.66 568.34 462.39 552.76 467.52 543.88 466.4 535 469.73 522.24 470.57 516.41 473.14 577.74 472.66"/><path class="cls-17" d="M625.4,327.26l2.2,2.6,2.6,3c.15-.18.31-.33.44-.51,1.53-2,1.38-4,2-6.26L675,294.47,672.33,312c-2.44,7.48-4.79,14.9-6.88,22.11h0a228.11,228.11,0,0,0-7.24,31.59l1.07,1.25c0-.14.11-.25.15-.38,6.55-16.36,12.32-36.12,19.23-51.48,3.06-6.78,6.35-12.68,10-17.05a26.39,26.39,0,0,1,5.71-5.31,17.11,17.11,0,0,1,2.66-1.49l-5.81-2.11-6.09-2.22-5.57-2-4.71-16.32-14.34-27.95L656,231.8l-4-7.72-12.43,13L646,256.71l2,6.39,1.2,3.69,1.49,4.66,2,6.11-11.81,21.53-7.52,13.7-2.73,5-.45.8Z"/><path class="cls-9" d="M651.35,220l16.42,41.7-20.22,11.56L629.16,229.6c-2.53-5.68-3.46-17.09,4-20.11C633.19,209.49,645.51,204.66,651.35,220Z"/><path class="cls-19" d="M613.15,301.49a13.81,13.81,0,1,0,7.27-18.12A13.8,13.8,0,0,0,613.15,301.49Z"/><path class="cls-4" d="M625.89,294.62l5.52-2.36-1.75-4.09a.48.48,0,0,0-.63-.25.47.47,0,0,0-.25.63l1.37,3.2-4.64,2a.48.48,0,0,0-.25.63A.47.47,0,0,0,625.89,294.62Z"/><path class="cls-4" d="M635.07,302.05a.49.49,0,0,0,.26-.64l-1.75-4.09-5.52,2.36a.49.49,0,0,0-.26.64.48.48,0,0,0,.63.25l4.64-2,1.37,3.2A.48.48,0,0,0,635.07,302.05Z"/><path class="cls-4" d="M627.6,297.53l7-3a.47.47,0,0,0,.25-.63.48.48,0,0,0-.63-.26l-6.11,2.62-1.31-3.05a.48.48,0,1,0-.88.38Z"/><path class="cls-4" d="M623.8,306.87a.49.49,0,0,0,.26-.64l-1.37-3.2,4.63-2a.48.48,0,0,0,.25-.64.47.47,0,0,0-.63-.25l-5.52,2.36,1.75,4.09A.48.48,0,0,0,623.8,306.87Z"/><path class="cls-4" d="M619.26,297.46l5.52-2.36a.48.48,0,0,0-.38-.89l-4.64,2L618.39,293a.48.48,0,0,0-.63-.25.47.47,0,0,0-.25.63Z"/><path class="cls-4" d="M626.66,301.82a.48.48,0,0,0,.26-.63l-1.69-3.93-7,3a.48.48,0,0,0,.38.89l6.12-2.62,1.3,3.05A.47.47,0,0,0,626.66,301.82Z"/><path class="cls-4" d="M623.16,292.26a.32.32,0,0,0,.17-.42l-1.55-3.63a.32.32,0,1,0-.59.26l1.55,3.62A.32.32,0,0,0,623.16,292.26Z"/><path class="cls-4" d="M624.91,291.51a.32.32,0,0,0,.17-.42l-1.55-3.63a.32.32,0,1,0-.59.26l1.55,3.62A.32.32,0,0,0,624.91,291.51Z"/><rect class="cls-4" x="622.22" y="289.53" width="4.15" height="5.78" rx="1.6" transform="translate(-64.69 268.99) rotate(-23.15)"/><rect class="cls-4" x="622.32" y="291.6" width="8.02" height="11.17" rx="3.1" transform="translate(-66.41 270.3) rotate(-23.16)"/><path class="cls-11" d="M610.22,332.19a1.77,1.77,0,0,0,1.66,1.33,3.07,3.07,0,0,0,2.09-.86,13,13,0,0,0,2.68-4c.78-1.42,2.34-3.67,3.87-4.15a8.42,8.42,0,0,1,.31,7c-1.65,3.66-4.4,2.37-7.51,4.57,2.49-.24,7.44,2.82,9.62,1.62s5.5-2.91,7.26-4.75c.15-.18.31-.33.44-.51,1.53-2,1.38-4,2-6.26.11-.36.22-.71.35-1.07a19.17,19.17,0,0,0,1.11-4.35v0c.25-1.78.33-3.6.42-5.4a3,3,0,0,0-.24-1.73,1.86,1.86,0,0,0-.93-.75,5.45,5.45,0,0,0-.69-.27,14.72,14.72,0,0,0-8.08.22c-.82.23-1.6.49-2.38.78a12.3,12.3,0,0,0-5.17,3.15c-3.06,3.53-3.2,9.39-5.84,13.26C610.7,330.62,610.08,331.37,610.22,332.19Z"/><path class="cls-9" d="M667.11,260.5l.36.62a6.45,6.45,0,0,1,.3.58,13.42,13.42,0,0,1-2.16,14.84l-1.37,1.92-18,25.34-12.06,16.94-9.63-8,9.35-19.8,11.21-23.75,1.66-3.5,1.48-3.14a11.05,11.05,0,0,1,6.53-6.14,10.92,10.92,0,0,1,8,.22l.19.09A9.08,9.08,0,0,1,667.11,260.5Z"/><path class="cls-11" d="M647.49,304.92l-13.32,15.82c-4.26-1.9-7.71-4.35-9.63-8l9.11-20,.24.22,10.66,9.35,1.68,1.47Z"/><rect class="cls-20" y="475.43" width="1048.01" height="1.68" rx="0.84"/></svg>