<svg id="Layer_1" data-name="Layer 1" xmlns="http://www.w3.org/2000/svg" viewBox="0 0 627.76 627.76"><defs><style>.cls-1{fill:#231f20;}.cls-2{fill:#be1e2d;}</style></defs><path class="cls-1" d="M313.88,25A289,289,0,0,1,426.32,580.07,289,289,0,0,1,201.44,47.69,287,287,0,0,1,313.88,25m0-25C140.53,0,0,140.53,0,313.88S140.53,627.76,313.88,627.76,627.76,487.23,627.76,313.88,487.23,0,313.88,0Z"/><path class="cls-2" d="M415.81,275.37c-21.83,31.24-18.75,63.31-2.71,95.51,10.39,20.88,24.88,38.77,41.9,54.65,9.3,8.67,18.35,17.55,26.35,27.49,2.21,2.76,2.52,4.87-.21,6.93-13.53,10.21-20.87,24.9-28.89,39.17-3.83,6.82-9.16,11.93-15.86,16.65-6.48,4.58-14.36,8.1-18.91,15.72-3.5,5.85-9.49,8-16.8,7-15.14-2.1-28.89,7.27-34,21.72-1.37,3.92-5.55,6.35-7.91,10-1.47,2.3-5.2.4-7.87.25-8.06-.45-16.11-1.55-24.17-1.71-4.47-.09-5.48-2.28-5.58-5.84a11.3,11.3,0,0,1,.49-4.11c4.63-12.33,3.19-24.29-1.52-36.28-1.13-2.87-.94-6.38-.84-9.58,1.2-39.07-.49-78-3.78-117-1.93-22.87,4-44.86,10-66.7.65-2.36,1.89-3.06,4.29-3.46,14.57-2.46,23.89-11,28.33-25.05.54-1.72.61-3.68,3.1-3.95,20.11-2.14,36.76-12.58,53.69-22.37A7.59,7.59,0,0,0,415.81,275.37Zm-66.6,77.57c4.7,32.64,4.85,65.54,7.4,98.21,2.55,32.9-2.22,66.08,5.18,98.66C360.24,484,363.51,418,349.21,352.94Zm.93-7,1.74.31q1.5-9.14,3-18.27C351.45,333.62,350.46,339.72,350.14,345.93Z"/><path class="cls-2" d="M554.94,455.83c-1.31,7.58-3.62,15.32-8.4,22-10.2,14.21-19.45,29.94-33.87,39.75-14.09,9.59-25.27,22.17-38.82,32.09a41.31,41.31,0,0,1-6.52,3.84c-9.54,4.55-13.63,3.2-19.38-5.74-4.48-7-8-14.58-13.61-20.8-3.39-3.77-.48-6.87,2-7.89,13.53-5.52,18.64-18,24.79-29.4a85.3,85.3,0,0,1,19.48-24.87c7.85-6.76,8-9.21,4.27-18.65-10.24-26.05-27.78-47.72-42.58-71-9.29-14.62-16.49-29.87-18.44-47.19C422.07,311.8,425,296.62,435,283.46c9.5-12.54,19.85-13.58,32-3.7,8.4,6.8,14.08,15.79,19.61,24.86,21.57,35.36,36.16,74,53,111.63,4,8.82,7.86,17.66,11.86,26.46A39.92,39.92,0,0,1,554.94,455.83Z"/><path class="cls-2" d="M282.24,194.6c6.07-16,14.78-28.29,28.6-35.94a84.8,84.8,0,0,1,50.1-10.12c16.4,1.61,27,12.05,34.57,25.77C405,191.46,408.76,210,408,229.54c-.17,4.16-.34,8.31-.29,12.46.11,9.47,2.73,17.74,11.58,22.59.16,2.31-1.65,3-2.78,3.78-15.56,11.27-32,20.77-51,25-4.68,1-5.94-.41-7.42-4.81-2.33-7-2.19-13,.84-19.72,2.69-5.94.86-12.28-1.1-18.23q-4.64-14.07-9.65-28c-6.75-18.81-20.39-28.86-40.48-29.89C299.66,192.27,291.6,191.22,282.24,194.6Z"/><path class="cls-2" d="M315.63,357.78c-5.5,22.08-2.6,43.05-1.49,64q1.41,26.64,2.37,53.31c.36,10-7.4,17-17.31,15.45-14.79-2.28-29.45-5.66-44.3-7.2-10.49-1.09-19.48-6.61-29.81-7.94-3.8-.48-3.69-5.12-2.53-8,3.73-9.39,5-19.11,5.44-29.1.29-6.87,4.64-9.62,11.61-9.19,11,.67,22,.77,33,.9,3.4,0,4.32-2.72,3.74-5.39-1.93-8.92,2.65-14.94,7.59-21.72,8.22-11.28,17.37-22.29,21.18-36.17C306.52,361.56,311,360.73,315.63,357.78Z"/><path class="cls-2" d="M148,421.08c-15.37,3.14-32.39,3.76-49.34,5.15-6.21.51-12.39,1.49-18.6,1.77-5.78.25-11.92.54-13.41-7.42-.58-3.12-3.23-1.73-5.1-1.92-2.28-.24-5,1.11-5.45-3.18-.49-4.48,2.46-4.06,5-4.75,1.76-.48,4.39.6,4.67-2.7.59-7.12,6.06-8,11.48-8.46,13.79-1.16,27.61-2.07,41.41-3.11,14.5-1.09,29-2.09,43.47-3.36,10.43-.92,18.44,8.18,13.79,17.48-1.8,3.59-6,8.48-11.35,9.29C159.59,420.63,154.6,422,148,421.08Z"/><path class="cls-2" d="M489.53,303.68c36.12-4.56,52.15,11.88,55.75,37.63a115.14,115.14,0,0,1,1.48,20c-.74,20.47-.29,40.94,0,61.6C527.75,383.33,513,341.77,489.53,303.68Z"/><path class="cls-2" d="M478.28,444.1c-20.69-20.33-42.56-39.59-57.24-65.24-12.25-21.41-20.71-43.72-17.17-69C406.09,294,414.07,281,425,269.65a5,5,0,0,1,5.51-1.48c4.46,1.1,9,1.67,14.48,2.61-16,9.56-22.34,24.48-24.29,41.42-1.93,16.65,1.76,32.57,9.26,47.49,9.75,19.4,23.17,36.52,34.53,54.92,5.66,9.18,12.06,17.94,15.34,28.41Z"/><path class="cls-2" d="M139.19,433.81c-1.81-8.14,2.14-9.77,8.29-9.34,1.43,2.13-2.9,3.1-.75,5.47.4,0,1.21.19,1.58-.13,9.73-8.32,26.06-10.42,37-4.42,9.93,5.44,20.65,4.51,31.13,3.7,6-.47,8.35,1.71,8.42,6.87.13,10.42-1,20.76-5.38,30.37-3.71,8.11-8.23,8.91-13.77,2.65a4.26,4.26,0,0,0-5.52-1.19c-1.46.65-2.68,1.82-4.12,2.5-4.66,2.19-10,3.72-14.69,3-6-.91-3.67-7.79-5-12-2.11-6.55-3.24-13.4-5.07-20-2.23-8.11-7.46-10-13.75-4.69-3.84,3.27-7.79,3.64-12.19,2.68-3.23-.7-5.57-2-1.44-5.06,1.15-.85,3.31-1.93,1.92-3.64-1.52-1.89-2.66.52-3.89,1.21A30.3,30.3,0,0,0,139.19,433.81Z"/><path class="cls-2" d="M283.2,249.37l-4,2.51c.83-11.55,1.64-22.64,2.39-33.73.1-1.35.54-2.28,1.93-2.31,13-.28,26.09-3.4,38.95,1.43,2.32.87,3.63,3.61,6.5,3.21l-.09-.09c6.72,11,9.19,22.62,5.73,35.22a20.17,20.17,0,0,1-2.38,5.65c-2.95,4.5-6.57,4.41-9.55-.11a14.81,14.81,0,0,0-6.16-5.37c-7.06-3.27-14.2-6.37-21.37-9.4-4.74-2-8.89-1.17-12.09,3.1Z"/><path class="cls-2" d="M315.17,282.82c2.77-2.2,5.46-4.54,8.34-6.58,14.17-10.05,28.06-4.68,31.74,12.21,3.43,15.79-10.64,33.88-26.86,34.51-11.61.45-21.6-14.6-18.11-27.72,1.15-4.3,3.29-8.34,5-12.5Z"/><path class="cls-2" d="M329,220.48c2.5-2.24-.13-3-1.28-3.87-6.26-4.55-13.62-5.71-21-5.64a179.68,179.68,0,0,0-25.52,1.74c-6,.92-6.16-2-4.57-5.59,2.59-5.88,6.74-10.86,13.64-11.49,9.67-.87,19.5-.69,28.86,2,12.06,3.41,20.35,11.68,24.87,23.23,4.19,10.7,7.61,21.69,11.38,32.55,2.57,7.38,1.74,14.39-2.49,21.54-4.73-5.45-9.4-10.89-17.24-11.82,5.26-13.49,4.57-26.43-1.36-39.09-1.56-3.33-2.12-3.49-5.35-3.63Z"/><path class="cls-2" d="M283.09,249.48c11-2.25,19.53,4.2,28.88,7.83a19.32,19.32,0,0,1,6.94,4.38c2.75,2.83,3.17,5-.77,7.61-8.25,5.47-16.13,11.5-20.39,21.14-3.06-2-3.46-5.39-4.77-8.17a18.58,18.58,0,0,0-8.19-9c-2.4-1.28-7.16.17-7.12-3.32.05-5-1.18-10.64,3.4-15,1.2-1.15,5.22-2.4,2.13-5.63Z"/><path class="cls-2" d="M140.26,441.28c8.06,2.45,14.62,2.69,20.65-3.21,3.2-3.14,6.23.17,7,3.42a67.35,67.35,0,0,1,1.53,25.45c-1,7.2-7.14,7.63-12.61,8.43s-9.41-.73-11.35-6.5C142.59,460.26,142.14,451.26,140.26,441.28Z"/><path class="cls-2" d="M269.34,307.6c-2.18.89-1,2.14-.22,3.14,5.45,6.65,11.35,12.55,21.3,11.48-5.79,7.34-12.83,8.66-20.17,4.15C259.93,320,251.83,302,254.18,290.15c.86-4.37,3-8,8.25-9.15-4.73,10.26-.13,18.53,4.55,26.76.59,1,1.7,1.59,2.57,0Z"/><path class="cls-2" d="M510.33,524.17c13.75-11.82,25.9-25.07,35.77-41.51,4,23-12,40.76-35.64,41.3Z"/><path class="cls-2" d="M277.68,309.46c-5.54-6.15-6.8-13.95-8.07-21.66-.49-2.95-.38-5.94,3.91-6.77,3.67-.71,5.71.52,7,3.74,2.21,5.56,4.74,11,6.53,16.69.9,2.89,2.11,6.5-.71,9.12-3.2,3-5.95,0-8.77-1.25Z"/><path class="cls-2" d="M315.26,282.74c-1.93-2.66-2.55-.09-3.27.95-4.78,6.89-6.53,14.44-4.65,22.7.39,1.73,1.49,3.37.61,4.9-3.06,1.74-3-5-6.46-1.92h.1c1.44-.73,1-1.67.46-2.8-4.63-9.17-2-17.13,4.72-23.88S320.7,270,330,266.94c1.53-.5,3-1.25,5.06.86-7,2.13-13.48,4.65-18.24,9.91-1.19,1.32-4.44,2.37-1.62,5.11Z"/><path class="cls-2" d="M301.49,309.37a18.6,18.6,0,0,1-8.89,1.2c0-11.88-10.21-31.44-18.45-34.32,6.11-2.14,10.86-.49,13.84,3.91,4.06,6,7.71,12.37,9,19.77.6,3.53.14,7.74,4.62,9.45Z"/><path class="cls-2" d="M173.6,464.25c1.11,6.57,4.55,12,.22,15.38s-10.17,2.54-16-.13C170.67,474.21,170.67,474.21,173.6,464.25Z"/><path class="cls-2" d="M269.55,307.79c-1.85-4.4-4-8.71-5.45-13.24-1.15-3.56-1.75-7.45,2.21-11.71a59.38,59.38,0,0,0,4.44,21.49c.47,1.21,1.63,3.3-1.41,3.27Z"/><path class="cls-2" d="M277.68,309.46l-.12-.13c-3.06,2.71.16,3.35,1.57,4.15a13.41,13.41,0,0,0,8.51,1.79c1.72-.22,4.81-2.19,5.13.65.37,3.36-3.25,3.09-5.65,3.23-3.91.23-6.89-2-10-4C273.61,312.81,275.18,311.14,277.68,309.46Z"/><path class="cls-1" d="M415,274.43c.29-1.13,1.61-2.19,2.07-1.68,1,1.07-.56,1.82-1.22,2.62A7.59,7.59,0,0,1,415,274.43Z"/><path class="cls-1" d="M479.87,443c.49,1,1.27,2.31.16,2.89-1.6.85-1.29-1-1.75-1.81Z"/><path class="cls-1" d="M510.46,524l.17.31a1.78,1.78,0,0,0-.29-.12Z"/><path class="cls-2" d="M350.14,345.93c.32-6.21,1.31-12.31,4.75-18q-1.51,9.13-3,18.27Z"/><path class="cls-2" d="M370.47,587.28l11,7.62a56.88,56.88,0,0,0,4.43,5.21c10.56,9.83,17.41,9.93,28.11,0,4.91-4.53,9.34-9.68,11.88-15.95a19.84,19.84,0,0,1,11.19-11.5c3-1.25,5.93-2.54,8.77-4.05,5.16-2.73,6.8-6.82,3.71-12-5.06-8.5-10-17.08-15.61-25.22-5.23-7.61-6.75-7.34-12.39.17-4.91,6.55-10.83,12.06-19.65,10.16-12.13-2.62-19.37.63-29.2,14.39,2.51.58,4.2-3.36,7.17-1-2.12,4.46-6.7,5.93-10.44,8.37-7.1,4.63-8.84,8.77-7,16.95.23,1.06,1.77,2.14.34,3.21C366.25,582.75,367.18,587.74,370.47,587.28Z"/><path class="cls-2" d="M362.29,583.87c-2.35.54-2.74-1.71-2.74-2.8,0-7.22-4.59-7.06-10-7.34-28.2-1.46-56-5.36-82.71-15-35.13-12.72-65.7-31.89-85-64.94-4.62-7.91-8.74-10.87-17.06-8.24a7.27,7.27,0,0,0-.93.52,127.18,127.18,0,0,0,31.52,44c46.31,42.5,103.24,54.45,163.57,56.52C361.33,586.58,361.79,585.44,362.29,583.87Z"/></svg>