<svg id="Layer_1" data-name="Layer 1" xmlns="http://www.w3.org/2000/svg" viewBox="0 0 500 500"><defs><style>.cls-1{fill:#fff;}.cls-2{fill:#231f20;}</style></defs><circle class="cls-1" cx="250" cy="250" r="200"/><path class="cls-2" d="M305.24,234.68c-6.85,16.2-5.37,33.79,4.4,53.42,6.42,12.9,15.44,24.66,27.55,36a167.28,167.28,0,0,1,16,16.58c-7.87,6.32-12.53,14.72-17.05,22.85l-1.44,2.57c-1.93,3.44-4.68,6.31-8.92,9.31-.91.64-1.88,1.25-2.91,1.9-3.55,2.26-7.58,4.81-10.28,9.33-.67,1.13-1.93,2.63-5.1,2.63a11.68,11.68,0,0,1-1.62-.12,23.41,23.41,0,0,0-3.24-.22,23.79,23.79,0,0,0-18.14,8.66c-.17-8.12-.23-16.34-.3-24.32-.25-32.22-.5-65.52-7.51-98.11l.84.15.66-4,1-5.94.94-5.7,2.77-16.82c8.19-1.25,15.48-4.43,22.39-8.13M273,256.37l-.32.53a27.64,27.64,0,0,0-3.6,13.32l-.18,3.52,3.47.62,1.1.2h0l-5,.9c1.94,13.45,2.67,27.27,3.37,40.65.37,7.1.75,14.44,1.32,21.67.6,7.71.55,15.66.5,23.35-.08,13.12-.16,26.68,2.89,40.08l5.7-.7a26,26,0,0,0-2.44,5.09,8.28,8.28,0,0,1-1.84,2.26c-.59.61-1.24,1.26-1.85,2l-.12,0a14,14,0,0,0-2.24-.36c-2-.11-4.14-.3-6.18-.48-2.93-.26-6-.53-9-.61a4.25,4.25,0,0,1,0-.94c3-8.08,2.71-16.58-1-26a12.65,12.65,0,0,1-.27-4.15V377A651.74,651.74,0,0,0,255,302c-1.18-13.93,2.47-27.42,6.08-40.47A26.69,26.69,0,0,0,273,256.37m41.38-31.51c-10.79,6.24-21.4,12.9-34.21,14.26-1.59.17-1.64,1.42-2,2.51-2.83,8.93-8.77,14.4-18.05,16-1.53.26-2.32.71-2.73,2.21-3.85,13.91-7.62,27.93-6.38,42.5a648.44,648.44,0,0,1,2.4,74.53c-.06,2-.18,4.28.54,6.1,3,7.65,3.92,15.27,1,23.12a7.2,7.2,0,0,0-.31,2.62c.06,2.27.71,3.67,3.55,3.72,5.14.11,10.27.81,15.41,1.09,1.06.06,2.4.56,3.47.56a1.67,1.67,0,0,0,1.54-.72c1.5-2.35,4.16-3.9,5-6.39,2.93-8.35,10.39-14,18.94-14a18.82,18.82,0,0,1,2.69.19,16.39,16.39,0,0,0,2.17.15,9.35,9.35,0,0,0,8.54-4.58c2.9-4.86,7.92-7.1,12.05-10A32.25,32.25,0,0,0,338.17,368c5.11-9.09,9.79-18.45,18.4-24.95,1.75-1.32,1.55-2.67.14-4.42a169.52,169.52,0,0,0-16.79-17.52c-10.85-10.12-20.08-21.52-26.7-34.82C303,265.8,301,245.37,315,225.46a3.86,3.86,0,0,1-.54-.6ZM276.13,259l-1.92,11.65-1.11-.2c.2-4,.84-7.84,3-11.45Zm4.4,141.36c-4.72-20.76-1.68-41.9-3.31-62.86s-1.71-41.78-4.71-62.58c9.11,41.45,7,83.53,8,125.44Z"/><path class="cls-2" d="M337.8,228h0c2.08,0,4.52,1.13,7.25,3.34,4.69,3.81,7.9,8.75,11.6,14.82,10.21,16.74,18.12,35.09,25.77,52.84,2.52,5.86,5.13,11.92,7.79,17.84q1.34,3,2.66,6c1.6,3.58,3.25,7.28,4.9,10.92a20.82,20.82,0,0,1,1.79,6.55c-.92,5-2.37,8.77-4.56,11.82-1.18,1.63-2.34,3.32-3.47,4.94-5.23,7.55-10.17,14.69-17.11,19.41a133.51,133.51,0,0,0-13.87,11.32c-3.68,3.29-7.17,6.41-11,9.2a22.38,22.38,0,0,1-3.52,2.07,10.4,10.4,0,0,1-3.78,1.23c-.41,0-1.27,0-3.48-3.44-.85-1.33-1.64-2.68-2.48-4.12a60.94,60.94,0,0,0-5.78-8.72c8.29-3.8,12.11-11.11,15.5-17.6.44-.84.88-1.68,1.33-2.52a50.87,50.87,0,0,1,11.5-14.71c6.56-5.65,6.71-9,3.83-16.38-4.91-12.5-12.38-23.47-19.59-34.08-2.64-3.86-5.36-7.86-7.89-11.84-6.68-10.51-10.12-19.26-11.14-28.37-1.14-10.08.92-18.41,6.27-25.48,2.56-3.37,5-5,7.46-5m0-4c-3.78,0-7.29,2.18-10.64,6.59-6.36,8.39-8.22,18.07-7.07,28.35,1.25,11,5.83,20.75,11.75,30.07,9.43,14.83,20.61,28.64,27.13,45.24,2.36,6,2.28,7.57-2.72,11.88A54.35,54.35,0,0,0,343.84,362c-3.92,7.28-7.18,15.22-15.8,18.74-1.59.65-3.44,2.63-1.29,5,3.57,4,5.82,8.81,8.68,13.25,2.32,3.61,4.21,5.28,6.84,5.28a13.32,13.32,0,0,0,5.5-1.62,25.51,25.51,0,0,0,4.16-2.45c8.63-6.32,15.76-14.34,24.74-20.44,9.18-6.25,15.08-16.28,21.58-25.33a33.52,33.52,0,0,0,5.35-14,25.54,25.54,0,0,0-2.18-8.36c-2.56-5.61-5-11.24-7.56-16.86-10.75-24-20.05-48.6-33.79-71.13-3.53-5.78-7.15-11.51-12.5-15.84-3.47-2.82-6.71-4.24-9.77-4.24Z"/><path class="cls-2" d="M274.25,148.36a53.34,53.34,0,0,1,5.34.27c7.93.77,13.94,5.34,18.92,14.37A62.5,62.5,0,0,1,306,196.11l0,.48c-.1,2.49-.2,5.07-.16,7.66.07,6.46,1.84,11.36,5.38,14.85-10.67,7.5-19.72,11.82-29.09,13.9l-.14-.42a12,12,0,0,1,.38-9.64c2.46-5.42.65-10.9-.54-14.52-2-6-4.06-12-6.19-17.95-4.83-13.46-15-21-29.35-21.69l-1.85-.11c-1.64-.1-3.34-.2-5.12-.2-.89,0-1.75,0-2.58.08a33.33,33.33,0,0,1,13.31-14,49.55,49.55,0,0,1,24.25-6.23m0-4a53.48,53.48,0,0,0-26.19,6.74c-8.8,4.87-14.35,12.71-18.22,22.9a27,27,0,0,1,9.43-1.53c2.31,0,4.54.19,6.77.3,12.8.66,21.49,7.07,25.79,19Q275,200.7,278,209.67c1.25,3.8,2.41,7.83.7,11.62a16,16,0,0,0-.53,12.56c.74,2.23,1.4,3.27,3.14,3.27a7.73,7.73,0,0,0,1.58-.2c12.15-2.68,22.61-8.73,32.53-15.92.72-.52,1.87-.93,1.77-2.4-5.65-3.09-7.31-8.37-7.39-14.4,0-2.64.09-5.29.19-7.94a66.18,66.18,0,0,0-8-35.19c-4.82-8.74-11.57-15.4-22-16.43-1.93-.18-3.84-.28-5.74-.28Z"/><path class="cls-2" d="M245.11,292.73a186,186,0,0,0,.62,19.3c.16,2.28.32,4.63.44,6.93.58,11,1.09,22.42,1.51,33.91a5.82,5.82,0,0,1-1.48,4.3,5.17,5.17,0,0,1-3.84,1.53,7.11,7.11,0,0,1-1.11-.09c-3.48-.54-7-1.19-10.48-1.81-5.84-1.07-11.88-2.17-17.94-2.8a40.43,40.43,0,0,1-8.92-2.37,57.11,57.11,0,0,0-8.35-2.42c2.23-5.65,3.38-11.76,3.72-19.79.05-1.32.08-2,2.53-2,.2,0,.41,0,.62,0,6.79.41,13.66.49,20.3.57h1a6.3,6.3,0,0,0,5-2.28,7.11,7.11,0,0,0,1.22-6c-.79-3.63.81-6,4-10.34l.22-.29c.68-.94,1.37-1.87,2.06-2.81a97.14,97.14,0,0,0,8.9-13.52m6-14.76c-3,1.89-5.8,2.41-6.7,5.69-2.43,8.84-8.26,15.85-13.5,23-3.15,4.32-6.07,8.16-4.84,13.84.37,1.69-.21,3.44-2.33,3.44h-.05c-7-.08-14-.15-21-.58l-.87,0c-3.93,0-6.36,1.79-6.53,5.88a55.72,55.72,0,0,1-3.47,18.54c-.74,1.85-.81,4.81,1.61,5.12,6.58.84,12.32,4.36,19,5.05,9.46,1,18.8,3.14,28.22,4.59a11.39,11.39,0,0,0,1.72.14c5.47,0,9.52-4.2,9.31-10q-.61-17-1.51-34c-.7-13.35-2.55-26.71,1-40.78Z"/><path class="cls-2" d="M154.23,300.43v4a5,5,0,0,1,4.26,2.1,3.2,3.2,0,0,1,0,3.29c-.82,1.66-2.64,3.52-4.26,3.76l-1.9.32a29.29,29.29,0,0,1-5.22.6,15.65,15.65,0,0,1-2.27-.16l-.68-.09-.67.14c-7.31,1.49-15.2,2.06-23.55,2.65-2.43.18-4.94.36-7.42.56-1.65.13-3.29.32-4.89.5-2.35.27-4.58.52-6.83.62-.64,0-1.23,0-1.79,0-2.34,0-2.39-.26-2.62-1.52a5.57,5.57,0,0,0-2-3.42,6,6,0,0,0,1.43-3.51c.09-1.05.12-1.44,3.66-1.74,5.77-.48,11.64-.9,17.33-1.31l9-.66,6.89-.51c6.84-.51,13.9-1,20.86-1.64l.57,0v-4m0,0c-.3,0-.61,0-.92.05-9.23.81-18.47,1.44-27.7,2.14-8.8.66-17.6,1.24-26.39,2-3.45.28-6.93.86-7.31,5.39-.18,2.1-1.86,1.42-3,1.72-1.61.44-3.49.18-3.18,3,.2,1.79,1,2,2,2,.35,0,.73,0,1.1,0l.43,0h.26c.47,0,1-.1,1.48-.1A1.37,1.37,0,0,1,92.48,318c.77,4.17,3.54,4.79,6.55,4.79.66,0,1.33,0,2-.06,4-.17,7.9-.8,11.85-1.12,10.8-.89,21.65-1.28,31.44-3.28a21.66,21.66,0,0,0,2.82.19,47.72,47.72,0,0,0,7.73-1c3.4-.52,6.09-3.64,7.23-5.93,2.83-5.64-1.68-11.18-7.86-11.18Z"/><path class="cls-2" d="M369.19,243v4c14.37,0,22.31,6.87,24.29,21a70.2,70.2,0,0,1,.91,12c-.25,6.81-.29,13.67-.24,20.49q-1.87-4.24-3.7-8.44c-6.55-15-13.3-30.4-21.77-45.09h.51v-4m0,0a59.19,59.19,0,0,0-7.27.48c15,24.27,24.35,50.75,36.5,76-.22-13.16-.51-26.21,0-39.25a73.3,73.3,0,0,0-.95-12.73c-2-14.57-10.31-24.46-28.25-24.46Z"/><path class="cls-2" d="M323.51,224.79l.62.15c-5.57,5.82-8.87,13.6-10,23.53-1.24,10.78.88,21.72,6.31,32.52,4.09,8.14,9.18,15.69,14.11,23,2.23,3.3,4.51,6.69,6.68,10.1-7.42-7.59-14.17-15.43-19.46-24.67-9-15.78-12.25-28.55-10.45-41.41,1.15-8.23,5.15-15.83,12.21-23.22m-.35-4.08a3.06,3.06,0,0,0-2.33,1.1c-7,7.25-12.08,15.52-13.49,25.65-2.25,16.09,3.13,30.3,10.94,44,9.35,16.34,23.29,28.61,36.47,41.56l1-.69c-2.09-6.66-6.17-12.25-9.78-18.1-7.24-11.72-15.79-22.63-22-35-4.78-9.5-7.13-19.65-5.9-30.26,1.24-10.79,5.27-20.3,15.48-26.4-3.47-.59-6.39-.95-9.23-1.65a4.8,4.8,0,0,0-1.18-.17Z"/><path class="cls-2" d="M158.87,322.86a15.24,15.24,0,0,1,7.29,1.7,29.09,29.09,0,0,0,14.27,3.24c2.55,0,5.07-.19,7.51-.38l.28,0,.64,0h.39c0,.12,0,.27,0,.46.09,7.24-.88,12.85-3.07,17.64a8.8,8.8,0,0,1-1,1.77,7.76,7.76,0,0,1-1.12-1.08,6.7,6.7,0,0,0-5.11-2.44,7.51,7.51,0,0,0-3,.68,12.78,12.78,0,0,0-2,1.17,5.07,5.07,0,0,1-.72.46,15.12,15.12,0,0,1-6.13,1.65h-.31c0-.36-.05-.79-.06-1.13a14.13,14.13,0,0,0-.54-3.83c-.74-2.28-1.27-4.64-1.85-7.14-.4-1.78-.83-3.63-1.33-5.46-1.21-4.42-3.46-6.38-5.44-7.22.44,0,.87-.05,1.31-.05m0-4a22.53,22.53,0,0,0-14.37,5,.63.63,0,0,1-.42.11c-.2,0-.4,0-.54,0h0c-1.37-1.51,1.38-2.13.47-3.49-.36,0-.72,0-1.06,0-3.3,0-5.27,1.3-4.22,6a18.65,18.65,0,0,1,1.75-1.29c.57-.31,1.11-1.22,1.74-1.22a1,1,0,0,1,.74.45c.88,1.09-.49,1.78-1.22,2.33-2.63,1.95-1.15,2.77.91,3.22a11.6,11.6,0,0,0,2.5.3,7.79,7.79,0,0,0,5.27-2,6.75,6.75,0,0,1,4.19-1.91c2.07,0,3.69,1.69,4.57,4.9,1.17,4.23,1.89,8.6,3.23,12.77.86,2.66-.63,7.05,3.2,7.62a9.54,9.54,0,0,0,1.52.11,19.09,19.09,0,0,0,7.84-2c.92-.43,1.7-1.18,2.63-1.59a3.42,3.42,0,0,1,1.4-.34,2.8,2.8,0,0,1,2.12,1.1c1.55,1.75,3,2.64,4.29,2.64q2.5,0,4.48-4.33c2.8-6.13,3.51-12.71,3.43-19.35,0-3-1.3-4.42-4.42-4.42-.3,0-.61,0-1,0-2.48.19-5,.39-7.48.39a24.88,24.88,0,0,1-12.35-2.75,19.24,19.24,0,0,0-9.21-2.19Z"/><path class="cls-2" d="M244.9,190.74a25.82,25.82,0,0,1,9.1,1.41c.11.07.3.24.45.36a8.91,8.91,0,0,0,2.65,1.62,23,23,0,0,1,2.27,17.68,11.29,11.29,0,0,1-.71,1.95,13.47,13.47,0,0,0-5.28-4.41c-5-2.32-10-4.45-13.73-6a11.59,11.59,0,0,0-4.51-1,9.47,9.47,0,0,0-2.65.37c.28-3.79.54-7.53.8-11.27,1.44-.08,2.86-.19,4.25-.3,2.55-.2,5-.39,7.36-.39m0-4c-4.73,0-9.49.69-14.23.79-.88,0-1.16.61-1.22,1.47-.48,7.07-1,14.13-1.53,21.49l2.49-1.57a5.82,5.82,0,0,1,4.73-2.59,7.53,7.53,0,0,1,3,.66c4.56,1.93,9.11,3.9,13.61,6a9.42,9.42,0,0,1,3.92,3.42c1,1.46,2,2.19,3.09,2.19s2.07-.7,3-2.12a12.44,12.44,0,0,0,1.51-3.6c2.2-8,.64-15.42-3.61-22.38l-.34,0c-1.58,0-2.4-1.55-3.78-2.07a29.49,29.49,0,0,0-10.59-1.7Zm14.68,3.69,0,.06h0l-.05,0Zm-29.13,18.46,0,0,0,0,.07-.07Z"/><path class="cls-2" d="M265.05,226.79c3.62,0,6.31,2.86,7.4,7.85.77,3.57-.38,7.79-3.09,11.29s-6.57,5.72-10.27,5.86h-.17c-1.8,0-3.71-1.13-5.23-3.11a11.32,11.32,0,0,1-2.12-9.53,35,35,0,0,1,1.89-4.88c.24-.53.48-1.07.72-1.63L255,232c1.18-1,2.29-1.87,3.44-2.68a11.76,11.76,0,0,1,6.6-2.49m0-4a15.58,15.58,0,0,0-8.91,3.22c-1.82,1.29-3.51,2.76-5.26,4.15a67.78,67.78,0,0,0-3.17,8c-2.2,8.23,4,17.66,11.21,17.66h.33c10.33-.41,19.3-11.93,17.11-22-1.55-7.09-5.92-11-11.31-11Zm-14.17,7.37-.06.05.06-.05Z"/><path class="cls-2" d="M241.19,178.36a40.21,40.21,0,0,1,11.05,1.39A19.14,19.14,0,0,1,260,184c-3.84-2.42-8.51-3.6-14.23-3.6h-.43a127.1,127.1,0,0,0-14.16.79,5.34,5.34,0,0,1,4.07-2.58c2.11-.19,4-.28,5.9-.28m28.9,26.87c.11.32.22.64.32,1,.73,2.16,1.48,4.39,2.24,6.58a11.4,11.4,0,0,1,.65,5,18,18,0,0,0-4.36-2.85,34,34,0,0,0,1.15-9.71m-28.9-30.87c-2.08,0-4.18.11-6.25.29-4.4.4-7.05,3.58-8.69,7.32-.89,2-.93,3.67,1.62,3.67a8,8,0,0,0,1.29-.11,116.07,116.07,0,0,1,16.26-1.1h.39c4.59,0,9.13.78,13,3.6.72.52,2.36,1,.87,2.41,2,.09,2.32.22,3.29,2.31a30.3,30.3,0,0,1,.87,24.9c5,.6,8,4.06,11,7.53a15.56,15.56,0,0,0,1.59-13.72c-2.41-6.92-4.59-13.92-7.25-20.74-2.89-7.36-8.17-12.63-15.85-14.81a44.44,44.44,0,0,0-12.14-1.54Zm18.39,16.07.05,0,.06,0Z"/><path class="cls-2" d="M234.56,212.75c2.7.32,5.39,1.58,8.2,2.91,1.47.69,3,1.41,4.58,2a9.21,9.21,0,0,1,2.24,1.2,43.76,43.76,0,0,0-9.71,8.4,15.57,15.57,0,0,0-6.52-6.65,7.16,7.16,0,0,0-2.47-.77c-.07-2.37,0-3.5.88-4.39l.17-.12a7.34,7.34,0,0,0,2.63-2.6M251,217.92h0m-17.67-9.25a14.24,14.24,0,0,0-2.79.27c1.89,2-.64,2.81-1.4,3.54-2.92,2.78-2.13,6.37-2.16,9.56,0,2.22,3,1.29,4.53,2.11a11.83,11.83,0,0,1,5.22,5.71c.84,1.77,1.09,3.92,3,5.21,2.72-6.15,7.74-10,13-13.47,2.5-1.67,2.24-3,.48-4.85a12,12,0,0,0-4.41-2.79c-5.11-2-9.86-5.29-15.51-5.29Zm-2.83.22-.07.07.11,0,0-.05Z"/><path class="cls-2" d="M153.42,333.61A38.27,38.27,0,0,1,154,347c-.15,1-.19,1.36-4,1.9l-.65.09a6,6,0,0,1-1,.08c-.89,0-1.38-.06-1.87-1.54a59.29,59.29,0,0,1-2.16-10.58c0-.24-.07-.48-.11-.71.33,0,.66,0,1,0a13.63,13.63,0,0,0,8.21-2.6m.79-5.28a2.45,2.45,0,0,0-1.68.8,10,10,0,0,1-7.32,3.08,20.56,20.56,0,0,1-5.84-1c1.2,6.35,1.49,12.09,3.33,17.58,1,3.08,3,4.26,5.67,4.26a10.89,10.89,0,0,0,1.57-.12c3.48-.51,7.37-.78,8-5.38a43,43,0,0,0-1-16.21c-.36-1.48-1.45-3-2.79-3Z"/><path class="cls-2" d="M217.22,229.05c-3.37.71-4.71,3-5.26,5.83-1.5,7.58,3.66,19,10.24,23.08a10.14,10.14,0,0,0,5.27,1.66c2.74,0,5.31-1.43,7.58-4.31a12.52,12.52,0,0,1-1.47.08c-5.47,0-8.91-3.49-12.1-7.39-.32-.39-.73-.85-.65-1.28a1.22,1.22,0,0,1-.72-.62c-3-5.24-5.91-10.52-2.89-17Zm4.4,16.95c-.53.21-.75.46-.79.72l.13,0c.27,0,.54-.18.79-.62l-.13-.12Z"/><path class="cls-2" d="M398,357.54a107.71,107.71,0,0,1-22.64,26.32c15-.38,25.15-11.68,22.64-26.32Zm-22.64,26.32h-.07l-.09.13.16-.13Z"/><path class="cls-2" d="M226.33,236.11l0,0c1,2.46,2,4.77,2.73,7.14l0,.1c0,.07,0,.15.07.23a18.64,18.64,0,0,1-2.85-7.51m-.87-7.17a6.54,6.54,0,0,0-1.18.13c-2.73.53-2.8,2.43-2.49,4.31.8,4.88,1.6,9.82,5.07,13.73,1.24.53,2.45,1.59,3.75,1.59a2.65,2.65,0,0,0,1.83-.8c1.8-1.67,1-4,.45-5.81-1.14-3.62-2.74-7.1-4.15-10.64-.67-1.68-1.66-2.51-3.28-2.51Zm1.39,18.16.08.08-.07-.07Z"/><path class="cls-2" d="M261.7,219.74a4.88,4.88,0,0,0-1.45.35c-5.9,1.92-10.52,5.78-14.78,10s-6,9.38-3,15.22c.27.52.48,1,.22,1.37a1.13,1.13,0,0,1,.47-.12c1,0,1.4,1.94,2.46,1.94a1.25,1.25,0,0,0,.61-.19c.56-1-.14-2-.39-3.12a17.57,17.57,0,0,1,3-14.47c.31-.45.59-1.35,1.12-1.35a.64.64,0,0,1,.35.12c-.69-1.26.93-1.86,1.58-2.57,3-3.36,7.17-5,11.63-6.32a2.49,2.49,0,0,0-1.78-.9Zm-11.43,9.79a3.34,3.34,0,0,0,.55.68l.06-.05a2.29,2.29,0,0,0-.61-.63Zm-7.59,17.19a2.64,2.64,0,0,0-.58.4h.07a1.23,1.23,0,0,0,.51-.41Z"/><path class="cls-2" d="M227.89,225.43a9.78,9.78,0,0,0-3.21.59c5.26,1.84,11.74,14.3,11.76,21.87a11.66,11.66,0,0,0,1.31.08,12.11,12.11,0,0,0,4.35-.85h.06c-2.85-1.08-2.56-3.77-2.94-6-.8-4.72-3.13-8.77-5.71-12.59a6.55,6.55,0,0,0-5.62-3.09Z"/><path class="cls-2" d="M160.62,345.81c-1.87,6.35-1.87,6.35-10.09,9.72a14.5,14.5,0,0,0,5.89,1.48,6.88,6.88,0,0,0,4.34-1.4c2.76-2.15.56-5.61-.14-9.8Z"/><path class="cls-2" d="M219.69,230.22c-2.52,2.71-2.14,5.19-1.41,7.47.92,2.84,2.26,5.54,3.42,8.31,1.84,0,1.11-1.33.82-2.09a37.65,37.65,0,0,1-2.83-13.69ZM221.62,246Zm0,0,.13.12-.05-.12h-.08Z"/><path class="cls-2" d="M226.85,247.1a3.66,3.66,0,0,0-.44.46c.16-.13.34-.25.52-.38l-.08-.08Zm-.44.46c-1.26.94-1.81,1.93.19,3.24s3.67,2.57,6,2.57H233c1.53-.09,3.84.08,3.6-2.06-.08-.74-.46-1-1-1a18.55,18.55,0,0,0-2.31.56,9.77,9.77,0,0,1-1.07.07,8.75,8.75,0,0,1-4.35-1.22c-.81-.46-2.58-.83-1.45-2.18Z"/><path class="cls-2" d="M315.52,223.71c-.37,0-1,.56-1.11,1.15a3.86,3.86,0,0,0,.54.6c.42-.51,1.39-1,.78-1.67a.28.28,0,0,0-.21-.08Z"/><path class="cls-2" d="M355.77,332.28l-1,.69c.24.41.15,1.3.68,1.3a1,1,0,0,0,.44-.14c.7-.37.21-1.23-.1-1.85Z"/><path class="cls-2" d="M375.26,383.86l-.08.12h0l.19.08-.11-.2Zm-.08.12Z"/><path class="cls-2" d="M276.13,259c-2.19,3.61-2.83,7.49-3,11.45l1.11.2L276.13,259Z"/><path class="cls-2" d="M322.63,390.06c.17.23.36.5.58.82,3,4.31,5.72,9,8.38,13.45.48.8,1,1.6,1.42,2.4a2.22,2.22,0,0,1,.44,1.11h0a3,3,0,0,1-1.23,1c-1.7.89-3.54,1.69-5.27,2.42a16.79,16.79,0,0,0-9.29,9.52c-1.17,2.89-3.25,5.66-6.57,8.72-2.65,2.45-4.69,3.64-6.25,3.64s-3.55-1.17-6.22-3.66a14.57,14.57,0,0,1-1.54-1.79l-.95-1.18-.35-.4-.44-.31-7-4.85-1.28-.89-.59.08a9.15,9.15,0,0,0-1.61-1.35c0-.06-.07-.13-.11-.2-.67-3.23-.17-4.21,2.84-6.17.47-.31,1-.62,1.59-.94,2.19-1.22,4.92-2.74,6.49-6l1.38-2.9-1.64-1.27a8.82,8.82,0,0,1,6.26-2.58,17.38,17.38,0,0,1,3.58.43,13.89,13.89,0,0,0,3,.34c6.45,0,10.62-4.45,13.52-8.32l.82-1.06m.07-5c-1.12,0-2.26,1.24-4.09,3.67-2.7,3.6-5.88,6.72-10.32,6.72a10.17,10.17,0,0,1-2.2-.25,21.18,21.18,0,0,0-4.42-.52c-5.28,0-9.21,2.74-14.18,9.7l.32,0c1.07,0,1.93-1.17,3-1.17a2,2,0,0,1,1.21.47c-1.36,2.84-4.27,3.78-6.66,5.34-4.52,2.94-5.63,5.58-4.47,10.79.15.68,1.13,1.37.22,2.05a1.89,1.89,0,0,1,.51-.07c1.73,0,2.41,2.42,4.13,2.42l.27,0,7,4.85a36,36,0,0,0,2.82,3.32c3.38,3.14,6.16,4.73,8.95,4.73s5.57-1.56,9-4.7a28.9,28.9,0,0,0,7.57-10.16,12.65,12.65,0,0,1,7.13-7.33c1.89-.79,3.78-1.62,5.59-2.58,3.29-1.74,4.33-4.35,2.36-7.66-3.22-5.41-6.38-10.88-9.95-16.07-1.64-2.39-2.7-3.56-3.8-3.56Z"/><path class="cls-2" d="M161.93,365.79l.51.84c.39.67.79,1.33,1.2,2-.59-.94-1.16-1.88-1.71-2.83m-3.53-7a11.28,11.28,0,0,0-3.38.6,4.31,4.31,0,0,0-.59.33,81,81,0,0,0,20.08,28c29.51,27.09,65.78,34.7,104.23,36h.14c1.37,0,1.66-.71,2-1.67a2.37,2.37,0,0,1-.43,0c-1.12,0-1.32-1.22-1.32-1.84,0-4.6-2.92-4.5-6.35-4.68-18-.93-35.69-3.42-52.7-9.58-22.38-8.1-41.86-20.32-54.16-41.38-2.24-3.84-4.3-5.85-7.49-5.85Z"/></svg>