<svg id="Layer_1" data-name="Layer 1" xmlns="http://www.w3.org/2000/svg" viewBox="0 0 500 500"><defs><style>.cls-1{fill:#fff;}.cls-2{fill:#0084ff;}</style></defs><circle class="cls-1" cx="250" cy="250" r="200"/><path class="cls-2" d="M282.72,178.37c.58,0,2.36,0,5.55,3.24,14,14.26,28.59,28.41,42.68,42.1q6.48,6.3,13,12.61c.45.44.93.89,1.42,1.34,4.52,4.25,4.93,5.41,3.93,7s-4,2.57-6.68,3.58c-1.57.59-3.19,1.21-4.7,1.94-.12.05-.54.16-.88.24s-1,.23-1.57.4l-2.48.68-.41,2.53c-.83,5.16-1.71,10.43-2.56,15.52-2.15,12.89-4.37,26.21-6.18,39.44-.77,5.56-1.8,6.54-6.89,6.54h-.24c-14.17-.13-29.57-.19-48.46-.19q-16.17,0-32.36,0t-32.33,0h-1.35c-1.3,0-2.63-.1-4.24-.24l1.13-10.81.44-4.17-1.1-.06c1.84-1.75,3.18-4.5,3.23-8.79a43.83,43.83,0,0,1,.85-7c.19-1.1.39-2.23.55-3.38.76-5.26,1.3-9.07-1.07-11.91-1.54-1.84-3.68-2.56-6.56-2.89l.62,0c3-.23,5.43-1.89,7.78-3.5.93-.63,1.9-1.29,2.87-1.84l4.68-2.62-3.86-3.74c-.87-.85-1.43-1.42-1.84-1.84a7.82,7.82,0,0,0-2.16-1.75,41.32,41.32,0,0,0-4.57-1.87c-1.63-.59-4.36-1.57-4.9-2.28-.85-1.91-.16-3.66,5.78-7.82,2.58-1.81,5-3.79,7.35-5.71,1-.84,2-1.67,3.07-2.49l2-1.57-.57-2.47-.32-1.33-.23-1a43.1,43.1,0,0,0,21.42-9c6.33-4.89,12.81-9.82,19.08-14.59,8.3-6.31,16.89-12.85,25.26-19.39,2.47-1.93,4.34-2.83,5.88-2.83m-9.63,58.73-2.69-.66a45,45,0,0,0-10.65-1.55c-4.8,0-8.37,1.34-10.93,4.1-3.45,3.73-4.65,9.7-3.91,19.35l.25,3.12.4.07c-2.85,3-3.79,7.68-4.23,12.57-.32,3.46,2.15,7.54,3.88,9.44a6.34,6.34,0,0,0,4.64,2.41h0a19.06,19.06,0,0,1,3.16.44,26.58,26.58,0,0,0,5,.62,9.64,9.64,0,0,0,6.84-2.51v.27l3.33.61a56.71,56.71,0,0,0,9.83,1.06c5.22,0,9-1.36,11.5-4.17,4.1-4.55,3.91-12.12,3.19-18.91l-.29-2.75c3.88-3.29,4.12-9.1,4.33-14.1.15-3.43-2.48-7.12-3.89-8.59a6.41,6.41,0,0,0-4.59-2.3h-.34a19.51,19.51,0,0,1-3.18-.42,27.08,27.08,0,0,0-4.84-.57,9.68,9.68,0,0,0-6.81,2.47m9.63-62.73c-2.67,0-5.34,1.33-8.35,3.68-14.66,11.46-29.59,22.59-44.32,34a38.85,38.85,0,0,1-24.17,8.56c-16.3.2-32.6,1.3-48.9,2,0,.74,0,1.47,0,2.2h50.12c.21.89.41,1.78.62,2.67-3.4,2.7-6.68,5.57-10.22,8.05-4.59,3.22-9.69,7.13-7.12,12.8,1.4,3.07,7.4,4.05,11.3,6,.47.23.8.74,3,2.9-3.42,1.91-6.11,4.61-9,4.83-12.11.9-24.27,1-36.41,1.5-14.66.55-29.32,1.15-44,1.72,24.83,2.68,49.63,3.61,74.43,4.49,10.39.37,10.72.7,9.31,10.56-.52,3.63-1.4,7.27-1.44,10.91-.08,6.36-3.33,7.88-9.15,8-13.14.19-26.27,1-39.4,1.61v.37l46,2.7c-.55,5.22-1,9.59-1.56,14.89,3.66.26,6.15.58,8.65.58h1.35c21.57,0,43.13-.08,64.69-.08q24.21,0,48.42.19h.28c7.53,0,9.88-2.94,10.85-10,2.53-18.41,5.79-36.72,8.73-54.86a22.61,22.61,0,0,0,3.13-.88c4.48-2.2,10.65-3.34,13-6.95,3.55-5.45-2-9.58-5.91-13.35-18.6-18.14-37.37-36.11-55.58-54.64-3-3.08-5.71-4.44-8.4-4.44Zm1,84.84a86.68,86.68,0,0,1-12-1.28c.69-5.12.7-10,2.09-14.43,1.22-3.89,3.5-4.87,6.09-4.87s5.55,1,8,1h.34c1.51,0,4.58,4.44,4.49,6.73-.41,9.63-1.57,12.86-9.06,12.86ZM259,259.12A64.11,64.11,0,0,1,248.9,258c-1-13.44,1.79-19.14,10.85-19.14a41.79,41.79,0,0,1,9.7,1.43c.5,14.08-1.19,18.8-10.42,18.8ZM249.85,282c-1.59,0-4.76-5-4.54-7.49.8-8.72,2.86-12.26,9.33-12.26a50.24,50.24,0,0,1,11.63,2c-.67,4.58-.81,9.42-2.17,13.88C262.9,282,260.61,283,258,283s-5.66-1.06-8.13-1.06h0Zm28.16.49a52.54,52.54,0,0,1-9.12-1c.2-15.28.39-18.8,7.59-18.8,2.85,0,6.78.55,12.25,1.14,1.42,13.47-1,18.66-10.72,18.66Z"/><path class="cls-2" d="M348.27,278.48l-.12.72L344,304l-.24,1.44-.7,4.14,4.17.49,39.46,4.68h0c-.13,2-.35,4.08-.65,6.1-.08.51-.2,1.07-.34,1.67-.17.77-.37,1.64-.49,2.56a61.77,61.77,0,0,0-.36,6.77c-.05,2.38-.13,6.76-.8,7.95-1.26.74-3.2,1.08-6.06,1.08-1.55,0-3.17-.09-4.89-.19s-3.57-.21-5.34-.21l-1.24,0H366c-4.8-10.68-10.1-17.64-19.23-17.64a22.59,22.59,0,0,0-6.52,1.05c-5.37,1.59-9.71,5.32-13.91,8.92-1.82,1.56-3.54,3-5.3,4.31-.67.48-1.29,1-1.9,1.53a13.43,13.43,0,0,1-2.16,1.62c-9,.19-17.89.21-24.63.21l-11.25,0H272.7q-3.27-8.22-8-12.64c15.48.05,31,.14,46.15.22l10.85.06H322c7.23,0,12.26-2,13.31-11.57s2.72-18.84,4.52-28.73c.55-3,1.11-6.12,1.66-9.25l6.75,0M237.35,327.77a57.27,57.27,0,0,0-5.28,3.79,30.31,30.31,0,0,0-4.24-3.76q4.68,0,9.52,0m-38.49.25a33.4,33.4,0,0,0-9.24,10.37,3.11,3.11,0,0,1-.65.4,12.76,12.76,0,0,1-.49-1.74,15.16,15.16,0,0,1-.06-3.11c0-.75.06-1.59.06-2.51v-3.26l3.55-.06,6.83-.09m160-53.57c-6.74,0-13.61.06-20.73.06-2.43,14.34-5.31,27.87-6.79,41.55-.74,6.82-3.35,8-9.33,8h-.27c-24.87-.13-49.75-.3-74.63-.3q-27.57,0-55.16.35c-27.62.39-55.22,2.34-82.84,3.59,12.43,1.92,24.85,1.69,37.26,2,12.63.3,25.25,1.13,38.09,1.74,0,2.58-.28,4.55.08,6.39a47,47,0,0,0,2.17,6.41c2.15-1.22,5.23-1.89,6.3-3.73,4.86-8.44,12.69-13.45,20.68-13.45,6.31,0,12.72,3.13,17.85,10.17,7.87-7,14.79-10.48,20.69-10.48,7.65,0,13.59,5.88,17.66,17.68,7.46,0,14.95,0,22.46,0,8.28,0,16.57,0,24.87-.21,2.08-.05,4.17-2.47,6.17-3.91,6-4.33,11.34-10.66,18-12.64a18.71,18.71,0,0,1,5.38-.88c7.06,0,11.47,5.54,16.54,17.49,1,.05,1.95.15,2.94.15h.39l1.12,0c3.32,0,6.9.4,10.23.4s6.15-.37,8.4-1.83c3.31-2.13,2-11.38,2.79-17.45.18-1.4.61-2.76.82-4.16,2.2-14.6,0-28.74-5.27-42.35-.8-2.06-4.32-4.26-6.65-4.33-6.36-.2-12.73-.26-19.22-.26Zm28.26,36.27-39.46-4.67c1.56-9.26,2.9-17.21,4.41-26.19,4.23,0,8.37-.05,12.48-.05,3.76,0,7.48,0,11.19.22a6.21,6.21,0,0,1,4.44,3.59c2.41,8.24,4.32,16.63,6.94,27.1Z"/><path class="cls-2" d="M213.49,331.94v4c6,0,9,3,9,8.84,0,7-6.67,13.8-13.77,14h-.35a8.92,8.92,0,0,1-8.92-9.17c-.07-7,6.64-13.63,13.81-13.71h.21v-4m-2.86,24.86a4.17,4.17,0,0,0,2.26-.66c2.21-1.41,6.13-4.42,7.67-8.7a5.35,5.35,0,0,0-.89-5,9.37,9.37,0,0,0-7.77-4.09,9.81,9.81,0,0,0-8.5,4.92,13,13,0,0,0-1.61,4.24,5.84,5.84,0,0,0,1.6,4.68s3.94,4.58,7.24,4.58m2.86-24.86h-.26c-9.4.11-17.85,8.56-17.76,17.75a12.91,12.91,0,0,0,12.92,13.13h.49c9.27-.32,17.67-8.92,17.63-18.06,0-8.09-4.84-12.82-13-12.82Zm-2.86,20.86c-.89,0-5.11-3.36-4.89-4.58a9,9,0,0,1,1.14-2.94,5.76,5.76,0,0,1,5-2.9,5.34,5.34,0,0,1,4.47,2.34c.38.56.55,1,.43,1.37-1,2.68-3.56,5.08-6.06,6.68a.2.2,0,0,1-.11,0Z"/><path class="cls-2" d="M343.86,336h.35c3,.08,5.27.86,6.64,2.32s2,3.82,1.93,6.95c-.25,6.94-6.84,13.5-13.55,13.5h-.48c-5.56-.27-9-4.07-8.85-9.69.24-7.09,6.63-13.08,14-13.08m-3.3,20.63a5.34,5.34,0,0,0,1-.1,12.46,12.46,0,0,0,4.1-1.73,9.75,9.75,0,0,0,4.6-8.33,9.42,9.42,0,0,0-4.45-8.07,6,6,0,0,0-3.22-1,4.62,4.62,0,0,0-1.84.37,14.09,14.09,0,0,0-4.5,3.25,9.9,9.9,0,0,0-2.77,7.41,9.42,9.42,0,0,0,3.42,6.76,5.77,5.77,0,0,0,3.68,1.46M343.85,332c-9.42,0-17.63,7.7-17.94,17-.27,7.79,4.91,13.44,12.65,13.81.22,0,.44,0,.67,0,8.76,0,17.21-8.26,17.55-17.35.31-8.47-4.09-13.2-12.46-13.42Zm-3.29,20.63a2,2,0,0,1-1.15-.56,5.65,5.65,0,0,1-.31-8.28,10,10,0,0,1,3.19-2.36.64.64,0,0,1,.28,0,2.31,2.31,0,0,1,1.11.42,5.69,5.69,0,0,1-.15,9.6,8.63,8.63,0,0,1-2.8,1.21l-.17,0Z"/><path class="cls-2" d="M250.74,336c2,0,4.84.4,6.73,2.31s2.22,4.55,2.21,6.49c0,7.12-6.72,13.91-13.75,14h-.09c-5.49,0-9.19-3.68-9.22-9.16,0-7.13,6.44-13.49,13.86-13.61h.26m-3.05,20.71a5.13,5.13,0,0,0,1.24-.14,13.19,13.19,0,0,0,5.15-2.84,9.24,9.24,0,0,0-.51-14.64,7.57,7.57,0,0,0-4.39-1.78,4.6,4.6,0,0,0-2.27.59,18.38,18.38,0,0,0-4.56,3.9,9.27,9.27,0,0,0-2.21,7.6,8.91,8.91,0,0,0,4.26,6.33,6.4,6.4,0,0,0,3.29,1M250.74,332h-.32c-9.59.15-17.85,8.34-17.8,17.63,0,7.67,5.55,13.14,13.22,13.14H246c9.18-.07,17.67-8.68,17.72-17.95,0-8-4.88-12.82-12.94-12.82Zm-3.05,20.71a2.61,2.61,0,0,1-1.25-.42,5.17,5.17,0,0,1-1.09-7.84,14.43,14.43,0,0,1,3.54-3.07.54.54,0,0,1,.29-.07,4.6,4.6,0,0,1,2.08,1,5.24,5.24,0,0,1,.27,8.29,9.17,9.17,0,0,1-3.55,2,1.36,1.36,0,0,1-.29,0Z"/></svg>