<svg id="Layer_1" data-name="Layer 1" xmlns="http://www.w3.org/2000/svg" viewBox="0 0 1048.01 478.21"><defs><style>.cls-1{fill:#dee9f7;}.cls-2{fill:#c0d1ec;}.cls-3{fill:#b2c1e3;}.cls-4{fill:#9ab0db;}.cls-5{fill:#9fb6df;}.cls-6{fill:#447bbf;}.cls-7{fill:#be1e2d;}.cls-8{fill:#fff;}.cls-9{fill:#a8c3e6;}.cls-10{fill:#919bce;}.cls-11{fill:#fab17e;}.cls-12{fill:#751113;}.cls-13{fill:#2b488c;}.cls-14{fill:#2e3b65;}.cls-15{fill:#ee985e;}.cls-16{fill:#243962;}.cls-17{fill:#97b3de;}.cls-18{fill:#6a75b8;}.cls-19{fill:#d63044;}</style></defs><path class="cls-1" d="M1007.29,478.18c-60.11,0-982,.07-982,0-33.77-34.24-43.72-116,29.42-194.9C81.53,254.37,10.45,198.93,56.59,110,74.12,76.19,144.15,18.1,329,63.18c78.58,19.17,145.26-11.44,160-22.49a163.28,163.28,0,0,1,27.18-16.35C617.85-24.88,793.58,6.47,870.28,65.62,881.15,74,930.57,117.39,891.62,177c-24.6,37.65,78.45,73.61,115.06,116.6C1099.79,402.91,1008.14,476.76,1007.29,478.18Z"/><path class="cls-2" d="M201.18,221.43V222c0,11.74-10,21.29-22.18,21.29H112.54a13.15,13.15,0,0,0-13.39,12.86v2a13.15,13.15,0,0,0,13.39,12.86h73.37a2.7,2.7,0,0,1,2.71,2.7,5.74,5.74,0,0,1-5.74,5.74H112.54c-12.23,0-22.18-9.56-22.18-21.3v-2c0-11.74,10-21.29,22.18-21.29H179A13.15,13.15,0,0,0,192.39,222v-.61A13.15,13.15,0,0,0,179,208.57H111.3c-12.22,0-22.17-9.55-22.17-21.3v-2.85c0-11.74,10-21.29,22.17-21.29H179a12.87,12.87,0,1,0,0-25.72H45.54q1.18-4.17,2.72-8.43H179c12.23,0,22.18,9.55,22.18,21.29s-10,21.29-22.18,21.29H111.3a13.15,13.15,0,0,0-13.39,12.86v2.85a13.14,13.14,0,0,0,13.39,12.86H179C191.23,200.13,201.18,209.68,201.18,221.43Z"/><rect class="cls-2" x="157.1" y="317.03" width="130.09" height="160.14"/><rect class="cls-3" x="157.1" y="340.91" width="130.09" height="2.17"/><path class="cls-3" d="M195.59,338.79H161V320.31h34.57Zm-34.14-.43h33.71V320.75H161.45Z"/><path class="cls-3" d="M214.4,329.55a6.2,6.2,0,1,1,6.2,6.2A6.2,6.2,0,0,1,214.4,329.55Z"/><path class="cls-3" d="M231.15,329.55a5,5,0,1,1,5,5.05A5,5,0,0,1,231.15,329.55Z"/><rect class="cls-3" x="249.16" y="323.61" width="27.69" height="11.88"/><circle class="cls-3" cx="220.6" cy="402.59" r="48.2"/><circle class="cls-4" cx="220.6" cy="402.59" r="38.75" transform="translate(-19.6 11.38) rotate(-2.83)"/><rect class="cls-3" x="250.24" y="396.08" width="14.33" height="16.93" rx="4.7"/><rect class="cls-5" x="504.91" y="131.5" width="113.62" height="2.55"/><path class="cls-5" d="M503.6,132.4a2.7,2.7,0,1,1,2.7,2.7A2.69,2.69,0,0,1,503.6,132.4Z"/><path class="cls-5" d="M615.06,132.4a2.7,2.7,0,1,1,2.7,2.7A2.69,2.69,0,0,1,615.06,132.4Z"/><path class="cls-6" d="M607.5,131.57v87.85c-8.72,1.49-31.49.21-44.47,1.7s-42.42-.51-42.42-.51V132a2.63,2.63,0,0,1,2.63-2.64l81.9-.13A2.35,2.35,0,0,1,607.5,131.57Z"/><path class="cls-7" d="M607.5,185.2v34.22c-8.72,1.49-31.49.21-44.47,1.7s-42.42-.51-42.42-.51V187.68c.2-1.17.31-1.85.31-1.85a298.91,298.91,0,0,0,35.73.4C573.37,185.17,593.47,187.9,607.5,185.2Z"/><path class="cls-8" d="M536.54,205.31c-7.11,0-15.42-.34-15.89-.36l.09-2.13c.15,0,15.34.63,22.23.22l1.62-.1c8.34-.52,25.69-1.59,32.94-.39,7.45,1.24,30.45-.28,30.68-.29l.14,2.12c-1,.06-23.47,1.55-31.17.27-7-1.17-24.84-.06-32.46.41l-1.62.1C541.3,205.27,539,205.31,536.54,205.31Z"/><path class="cls-8" d="M536.54,210c-7.11,0-15.42-.34-15.89-.36l.09-2.13c.15,0,15.34.64,22.23.22l1.62-.1c8.34-.52,25.69-1.59,32.94-.39,7.45,1.25,30.45-.28,30.68-.29l.14,2.12c-1,.07-23.47,1.55-31.17.27-7-1.17-24.84-.06-32.46.41l-1.62.1C541.3,210,539,210,536.54,210Z"/><rect class="cls-5" x="367.12" y="108.4" width="105.28" height="134.08"/><rect class="cls-2" x="371.39" y="112.6" width="96.74" height="126.2"/><rect class="cls-2" x="353.17" y="314.86" width="144.44" height="162.03"/><rect class="cls-3" x="353.17" y="364.57" width="144.44" height="1.92"/><rect class="cls-3" x="413.29" y="320.4" width="26.19" height="3.21" rx="1.05"/><rect class="cls-3" x="353.17" y="423.37" width="144.44" height="1.92"/><rect class="cls-3" x="413.29" y="370.45" width="26.19" height="3.21" rx="1.05"/><rect class="cls-3" x="413.29" y="431.88" width="26.19" height="3.21" rx="1.05"/><rect class="cls-4" x="344.18" y="306.42" width="161.4" height="10.62"/><path class="cls-4" d="M417.8,283.28h0a3.23,3.23,0,0,1-3.22-3.23V250.71a3.23,3.23,0,0,1,3.22-3.23h0a3.23,3.23,0,0,1,3.23,3.23v29.34A3.23,3.23,0,0,1,417.8,283.28Z"/><path class="cls-2" d="M472.92,283.28c0,9.92-10.73,18.57-26.63,23.17H394c-15.9-4.6-26.62-13.25-26.62-23.17Z"/><path class="cls-9" d="M475.52,283.28H364.79a2.33,2.33,0,0,1-2.32-2.32h0a2.34,2.34,0,0,1,2.32-2.33H475.52a2.34,2.34,0,0,1,2.32,2.33h0A2.33,2.33,0,0,1,475.52,283.28Z"/><path class="cls-10" d="M532.58,388s-28.49,6.52-28.49,25.22c0,0,.29,9.41,10.51,6.81C522.58,418,513.66,407,532.58,388Z"/><path class="cls-10" d="M530.86,385.65s-20.12-4-22,.69C506,393.59,520,384,530.86,385.65Z"/><path class="cls-10" d="M553.53,386.57s12.21,14.08,7.36,23c-.68,1.25-2.11,3.4-6,2s.83-6.55.65-13A61.51,61.51,0,0,0,553.53,386.57Z"/><path class="cls-11" d="M543.1,383.82c3.17.5,10.57-1.71,11.11-1.76,4.59-.44.16-4.95.16-4.95s-7.21-1.59-8.42-1.5a15.69,15.69,0,0,0-1.76.34l1.24,1.21s-6,.63-6.07,2A4.67,4.67,0,0,0,543.1,383.82Z"/><path class="cls-11" d="M546,375.61l-5.1.63c0,1.34,3.93.9,4.12,1.56s1.1-.92,1.1-.92Z"/><path class="cls-11" d="M593.58,376s-6.87.67-6.42,1.4,3.45,1,3.45,1l2.42-1.55Z"/><path class="cls-12" d="M553,379.34c-1.11-3.19.43-4.19.43-4.19s31.48-14.93,34.06-16.58,19.88-33.16,19.88-33.16,6.42-12.89,14.59-12.63c7.1.22,11,4.65,13.23,9.29a14.88,14.88,0,0,1-2.69,16.55c-9.42,10-28.36,29.72-33.26,32.72-10.92,6.68-43.63,12.07-43.63,12.07A10.67,10.67,0,0,1,553,379.34Z"/><path class="cls-13" d="M557.56,413.55c4.75,5.48,14.78,9,34.11,9.91q2.33.12,4.68.18c1.61.05,3.23.09,4.85.11,5.25.07,10.48,0,15.46-.16s9.43-.43,13.6-.77c8.16-.68,14.66-1.67,18-2.8a6.31,6.31,0,0,0,2.13-1,3.88,3.88,0,0,0,.84-1.08c1.21-2.26.58-6-.9-10.05-2.14-5.94-6.08-12.69-8.74-16.91-.53-.84-1-1.58-1.41-2.19-.81-1.24-1.31-2-1.31-2s-9,.83-21.39,2.44c-2.52.32-5.19.68-7.94,1.07-26.58,3.76-53.07,10.52-53,19.48C556.53,411.14,556.44,412.26,557.56,413.55Z"/><path class="cls-14" d="M590.48,423.36c1.61,0,9.1.37,10.72.39,5.25.07,10.48,0,15.46-.16l4.69-18.87C614.1,414.83,592.81,422.7,590.48,423.36Z"/><path class="cls-14" d="M606.13,478.18H580.37a4.57,4.57,0,0,1,3.78-2.68c4.05-.71,11.1-2.9,10.2-8.76s9-6.71,9-6.71S607.43,475.92,606.13,478.18Z"/><path class="cls-13" d="M557.15,412.58s32,50.29,34.62,56.27c0,0,10.88,1,13.49-6.76,0,0-19-53.07-27.35-57.45S557.15,412.58,557.15,412.58Z"/><path class="cls-11" d="M621.61,306.71s-11,15.06-20.82,15.87a30.54,30.54,0,0,1,2.28-6.3A6.62,6.62,0,0,0,603,310a.41.41,0,0,0-.05-.09,59.79,59.79,0,0,1-2.78-5.45l4.52-8.17.93-4.39a29.3,29.3,0,0,0,2.65,5.53A20.94,20.94,0,0,0,621.61,306.71Z"/><path class="cls-15" d="M608.65,297.34a12.66,12.66,0,0,1-5.75,12.56,59.79,59.79,0,0,1-2.78-5.45l4.52-8.17C608.24,295.75,608.65,297.34,608.65,297.34Z"/><path class="cls-11" d="M598.75,309s13.81-7.52,9-16.05-6.28-15.24-15.3-10.8-8.88,8.66-8,11.89S595,310.73,598.75,309Z"/><path class="cls-13" d="M607.69,276c.08-.21.35-.46,1-.78a3,3,0,0,0-1.47.14c-.54-.95-1.74-2.52-3.61-2.29a2.31,2.31,0,0,1,1.64,1.16c-2.76-1.29-7.54-1.16-18.84,4.28-14.88,7.16-6,15.19-3.51,15.62s6.19-4.78,10-5.91,6.62,4,8.17,4.29.54-.87,1.94-2.3,2.66,1.36,2.89,3.41,2.7,3.75,2.7,3.75.81-.15,2.18-3.64-.64-15.3-2.61-17.21Z"/><path class="cls-16" d="M690.13,461.74s3.21,4.88,4,6.45-.72,4.95-2.92,5.45c-1.94.45-2.23,3.89-2.23,3.89h9.41a2.48,2.48,0,0,0,2.28-1.39c1.33-2.93,1.63-6.73,1.9-8,.56-2.67,1.68-4.91,1.18-7.63s-5.12-4.29-13.58-4.26C680.85,456.28,690.13,461.74,690.13,461.74Z"/><path class="cls-7" d="M662.45,403c-7.1,7.52-59.24-8.05-54.87-12,1.11-1,.73-2.22,1.18-3.84,2.17-7.7-2.14-20.87-4-26-.43-1.19-.72-1.94-.78-2.09a89.54,89.54,0,0,1-4-14.52c-1.72-9.2-1.69-17.76.66-23a.25.25,0,0,0,0-.07c9.77-2.85,15.15-17.22,15.15-17.22S646.76,313,658,357.19c0,0,.58,2.81,1.29,7h0c.21,1.29.45,2.72.68,4.25,1.2,7.85,1.89,17.93,2.6,25.43,0,.26.06.52.08.8C663,397.94,663.63,401.71,662.45,403Z"/><path class="cls-6" d="M621.39,395.5s5.2.68,15.68,1.46c10.87.8,22.38,2.51,24.25,6.16.62,1.21.19,4.27-1,8.49-2.68,9.35-9.17,24.39-16.59,37.72,19,1.11,45,5.31,45,5.31a11.42,11.42,0,0,1,2.46,10.4c-1.36,0-5.45.59-11,1.49-20.21,3.25-44.82,9.94-60.08,9.94-3.34,0-5.83-2.37-6.85-5.47h0C606.91,451.91,621.39,395.5,621.39,395.5Z"/><path class="cls-14" d="M660.3,413c-10.51-.33-36.88-13.27-36.44-13.38a129,129,0,0,1,13.21-2.57c10.87.88,22.38,2.74,24.25,6.71C661.94,405.11,661.51,408.43,660.3,413Z"/><path class="cls-6" d="M621,306.4s-13.23,2.75-14.52,14.34c-.94,8.44,5.76,27.56,5.76,27.56l4.28-1.76s-8.1-23.6-6.85-27.62c1.6-5.14,9.2-12.84,16.19-9.77Z"/><path class="cls-6" d="M662.45,403c-7.1,7.52-60.36-7.88-56-11.85a8.21,8.21,0,0,0,2.3-4c2.17-7.7-2.14-20.87-4-26-.43-1.19-4.5-15.21-4.56-15.36l15-3.25s4.24,7.31,9.75,11.06a60.93,60.93,0,0,0,34.32,10.63h0c.21,1.29.45,2.72.68,4.25,1.2,7.85,1.89,17.93,2.6,25.43,0,.26.06.52.08.8C663,397.94,663.63,401.71,662.45,403Z"/><path class="cls-2" d="M549.4,476.9H539.08v-115a14.61,14.61,0,0,0-14.6-14.59H497.61V336.94h26.87a25,25,0,0,1,24.92,24.92Z"/><rect class="cls-17" x="518.83" y="335.75" width="1.86" height="13.19"/><rect class="cls-17" x="543.71" y="363.83" width="1.86" height="13.19" transform="translate(915.07 -174.21) rotate(90)"/><rect class="cls-17" x="543.71" y="385.98" width="1.86" height="13.19" transform="translate(937.21 -152.06) rotate(90)"/><rect class="cls-17" x="537.76" y="461.49" width="12.47" height="15.41"/><path class="cls-13" d="M551,367.27l48.49,19.06a1.9,1.9,0,0,0,2.45-1.06l.32-.82a1.59,1.59,0,0,0-.9-2.06l-48.77-19.17Z"/><path class="cls-13" d="M546.26,365.68l1.08.43.33-2.46A3.23,3.23,0,0,1,552,361l14.16,5.56,1.4-3.57L549.6,355.9a3.07,3.07,0,0,0-4.07,2.41l-.81,4.49A2.57,2.57,0,0,0,546.26,365.68Z"/><rect class="cls-13" x="556.74" y="362.58" width="9.51" height="5.44" transform="translate(950.5 910.65) rotate(-158.55)"/><path class="cls-18" d="M563.74,366.48a.59.59,0,0,0-.34-.77.6.6,0,1,0,.34.77Z"/><path class="cls-18" d="M560.17,365.08a.6.6,0,1,0-.78.34A.6.6,0,0,0,560.17,365.08Z"/><path class="cls-11" d="M603.77,375.42a28.3,28.3,0,0,1-4.93.64c-2.29.08-4.71-.35-5.81.11-2.32,1-9.68,6-6.13,8.19a8.18,8.18,0,0,0,9.64-.56c2.43-2,9-2.13,9-2.13Z"/><path class="cls-19" d="M628.49,317c15.94,4.6,25.65,42.88,23.41,54.33s-47.26,12.05-47.26,12.05-2.53-2-2.83-4a9,9,0,0,1,0-3.81s28.46-7.72,29.11-11-13.7-20.7-13.48-30.15S619.8,314.53,628.49,317Z"/><path class="cls-10" d="M567.66,476.9s-6.17-9.76-23.67-7.71-30,11.47-71.72,1-38,8.35-61.76,4.29-34.21,2.46-34.21,2.46Z"/><path class="cls-10" d="M523.5,335.75s4.79-10.69,14-8.74a2.41,2.41,0,0,1,1.77,3C538.67,332.44,531.47,329.14,523.5,335.75Z"/><rect class="cls-16" y="476.53" width="1048.01" height="1.68" rx="0.84"/></svg>