<svg xmlns="http://www.w3.org/2000/svg" viewBox="0 0 4281.57 843.3"><defs><style>.cls-1{fill:#dee9f7;}.cls-2{fill:#c0d1ec;}.cls-3{fill:#b2c1e3;}.cls-4{fill:#9ab0db;}.cls-5{fill:#9fb6df;}.cls-6{fill:#447bbf;}.cls-7{fill:#be1e2d;}.cls-8{fill:#fff;}.cls-9{fill:#a8c3e6;}.cls-10{fill:#919bce;}.cls-11{fill:#fab17e;}.cls-12{fill:#751113;}.cls-13{fill:#2b488c;}.cls-14{fill:#2e3b65;}.cls-15{fill:#ee985e;}.cls-16{fill:#243962;}.cls-17{fill:#97b3de;}.cls-18{fill:#6a75b8;}.cls-19{fill:#d63044;}.cls-20{fill:none;}</style></defs><g id="Layer_2" data-name="Layer 2"><g id="Layer_1-2" data-name="Layer 1"><path class="cls-1" d="M4237.49,843.27c-64.44,0-1052.58.07-1052.58,0-36.19-36.7-46.86-124.31,31.54-208.92,28.71-31-47.47-90.41,2-185.75,18.79-36.22,93.86-98.49,292-50.17,84.22,20.54,155.7-12.26,171.52-24.11A175.85,175.85,0,0,1,3711,356.79c109-52.75,297.38-19.15,379.6,44.25,11.65,9,64.62,55.49,22.87,119.41-26.37,40.35,84.09,78.89,123.34,125C4336.64,762.58,4238.4,841.74,4237.49,843.27Z"/><path class="cls-2" d="M3373.42,568.05v.66c0,12.59-10.67,22.83-23.77,22.83h-71.24c-7.92,0-14.36,6.18-14.36,13.78v2.17c0,7.6,6.44,13.78,14.36,13.78h78.64a2.9,2.9,0,0,1,2.9,2.9,6.15,6.15,0,0,1-6.15,6.15h-75.39c-13.11,0-23.78-10.24-23.78-22.83v-2.17c0-12.59,10.67-22.82,23.78-22.82h71.24c7.91,0,14.35-6.19,14.35-13.79v-.66c0-7.6-6.44-13.78-14.35-13.78h-72.57c-13.11,0-23.77-10.24-23.77-22.83v-3.06c0-12.58,10.66-22.82,23.77-22.82h72.57c7.91,0,14.35-6.18,14.35-13.78S3357.56,478,3349.65,478H3206.59q1.27-4.46,2.91-9h140.15c13.1,0,23.77,10.24,23.77,22.83s-10.67,22.82-23.77,22.82h-72.57c-7.91,0-14.36,6.19-14.36,13.78v3.06c0,7.61,6.45,13.79,14.36,13.79h72.57C3362.75,545.23,3373.42,555.47,3373.42,568.05Z"/><rect class="cls-2" x="3326.17" y="670.53" width="139.44" height="171.65"/><rect class="cls-3" x="3326.17" y="696.13" width="139.44" height="2.33"/><path class="cls-3" d="M3367.43,693.86h-37.06V674.05h37.06Zm-36.6-.47H3367V674.51h-36.13Z"/><path class="cls-3" d="M3387.59,684a6.65,6.65,0,1,1,6.64,6.64A6.64,6.64,0,0,1,3387.59,684Z"/><path class="cls-3" d="M3405.54,684a5.42,5.42,0,1,1,5.42,5.42A5.42,5.42,0,0,1,3405.54,684Z"/><rect class="cls-3" x="3424.85" y="677.59" width="29.68" height="12.73"/><circle class="cls-3" cx="3394.23" cy="762.25" r="51.66"/><circle class="cls-4" cx="3394.23" cy="762.25" r="41.54" transform="translate(-33.48 168.44) rotate(-2.83)"/><rect class="cls-3" x="3426" y="755.26" width="15.36" height="18.15" rx="4.7"/><rect class="cls-5" x="3698.99" y="471.66" width="121.79" height="2.74"/><path class="cls-5" d="M3697.59,472.63a2.89,2.89,0,1,1,2.88,2.88A2.88,2.88,0,0,1,3697.59,472.63Z"/><path class="cls-5" d="M3817.06,472.63a2.89,2.89,0,1,1,2.89,2.88A2.89,2.89,0,0,1,3817.06,472.63Z"/><path class="cls-6" d="M3809,471.73V565.9c-9.35,1.6-33.75.23-47.66,1.82s-45.48-.54-45.48-.54v-95a2.83,2.83,0,0,1,2.82-2.83l87.8-.13A2.52,2.52,0,0,1,3809,471.73Z"/><path class="cls-7" d="M3809,529.23V565.9c-9.35,1.6-33.75.23-47.66,1.82s-45.48-.54-45.48-.54v-35.3c.22-1.26.34-2,.34-2a319.37,319.37,0,0,0,38.3.43C3772.37,529.19,3793.91,532.12,3809,529.23Z"/><path class="cls-8" d="M3732.89,550.78c-7.62,0-16.53-.37-17-.39l.09-2.28c.17,0,16.45.68,23.83.23l1.74-.11c8.94-.55,27.54-1.7,35.31-.41,8,1.33,32.63-.3,32.88-.31l.15,2.27c-1,.07-25.16,1.67-33.4.29-7.52-1.25-26.63-.07-34.8.44l-1.74.11C3738,550.73,3735.52,550.78,3732.89,550.78Z"/><path class="cls-8" d="M3732.89,555.8c-7.62,0-16.53-.37-17-.39l.09-2.28c.17,0,16.45.68,23.83.23l1.74-.11c8.94-.55,27.54-1.7,35.31-.41,8,1.33,32.63-.3,32.88-.32l.15,2.28c-1,.07-25.16,1.66-33.4.29-7.52-1.25-26.63-.07-34.8.44l-1.74.11C3738,555.75,3735.52,555.8,3732.89,555.8Z"/><rect class="cls-5" x="3551.29" y="446.9" width="112.85" height="143.72"/><rect class="cls-2" x="3555.86" y="451.4" width="103.7" height="135.28"/><rect class="cls-2" x="3536.34" y="668.21" width="154.82" height="173.68"/><rect class="cls-3" x="3536.34" y="721.49" width="154.82" height="2.06"/><rect class="cls-3" x="3600.78" y="674.15" width="28.08" height="3.44" rx="1.05"/><rect class="cls-3" x="3536.34" y="784.52" width="154.82" height="2.06"/><rect class="cls-3" x="3600.78" y="727.79" width="28.08" height="3.44" rx="1.05"/><rect class="cls-3" x="3600.78" y="793.63" width="28.08" height="3.44" rx="1.05"/><rect class="cls-4" x="3526.7" y="659.15" width="173.01" height="11.38"/><path class="cls-4" d="M3605.62,634.35h0a3.47,3.47,0,0,1-3.46-3.46V599.44a3.47,3.47,0,0,1,3.46-3.46h0a3.47,3.47,0,0,1,3.46,3.46v31.45A3.47,3.47,0,0,1,3605.62,634.35Z"/><path class="cls-2" d="M3664.69,634.35c0,10.63-11.49,19.91-28.54,24.84h-56c-17-4.93-28.53-14.21-28.53-24.84Z"/><path class="cls-9" d="M3667.48,634.35H3548.8a2.5,2.5,0,0,1-2.49-2.49h0a2.5,2.5,0,0,1,2.49-2.49h118.68a2.5,2.5,0,0,1,2.49,2.49h0A2.5,2.5,0,0,1,3667.48,634.35Z"/><path class="cls-10" d="M3728.65,746.64s-30.54,7-30.54,27c0,0,.31,10.09,11.27,7.3C3717.92,778.81,3708.37,766.93,3728.65,746.64Z"/><path class="cls-10" d="M3726.8,744.08s-21.57-4.3-23.55.74C3700.18,752.6,3715.15,742.36,3726.8,744.08Z"/><path class="cls-10" d="M3751.1,745.07s13.09,15.09,7.89,24.61c-.72,1.34-2.26,3.65-6.45,2.13s.89-7,.7-14A66.46,66.46,0,0,0,3751.1,745.07Z"/><path class="cls-11" d="M3739.92,742.12c3.41.54,11.33-1.83,11.91-1.88,4.92-.48.18-5.31.18-5.31s-7.73-1.7-9-1.6a12.86,12.86,0,0,0-1.88.36l1.32,1.29s-6.44.68-6.5,2.18A5,5,0,0,0,3739.92,742.12Z"/><path class="cls-11" d="M3743,733.33l-5.47.66c0,1.44,4.21,1,4.42,1.68s1.17-1,1.17-1Z"/><path class="cls-11" d="M3794,733.77s-7.37.72-6.89,1.5,3.7,1.12,3.7,1.12l2.59-1.67Z"/><path class="cls-12" d="M3750.49,737.32c-1.19-3.42.47-4.49.47-4.49s33.74-16,36.5-17.77,21.31-35.55,21.31-35.55,6.88-13.81,15.64-13.54c7.61.24,11.84,5,14.18,10a16,16,0,0,1-2.88,17.74c-10.1,10.69-30.4,31.86-35.65,35.08-11.7,7.15-46.77,12.94-46.77,12.94A11.46,11.46,0,0,1,3750.49,737.32Z"/><path class="cls-13" d="M3755.43,774c5.09,5.87,15.83,9.66,36.55,10.63,1.66.07,3.34.14,5,.19s3.47.09,5.2.11c5.63.08,11.24,0,16.58-.16,5.17-.18,10.1-.46,14.57-.84,8.74-.72,15.72-1.78,19.32-3a6.78,6.78,0,0,0,2.29-1.13,3.83,3.83,0,0,0,.89-1.15c1.31-2.43.63-6.4-.95-10.78-2.3-6.37-6.53-13.6-9.37-18.12-.57-.91-1.08-1.7-1.51-2.35-.87-1.33-1.41-2.11-1.41-2.11s-9.68.9-22.93,2.62c-2.7.35-5.56.73-8.51,1.15-28.49,4-56.88,11.27-56.85,20.88C3754.32,771.4,3754.23,772.61,3755.43,774Z"/><path class="cls-14" d="M3790.71,784.5c1.73,0,9.76.4,11.49.42,5.63.08,11.24,0,16.58-.16l5-20.24C3816,775.36,3793.2,783.8,3790.71,784.5Z"/><path class="cls-14" d="M3807.49,843.27h-27.62a4.91,4.91,0,0,1,4.05-2.87c4.35-.77,11.9-3.12,10.93-9.4s9.62-7.18,9.62-7.18S3808.88,840.85,3807.49,843.27Z"/><path class="cls-13" d="M3755,773s34.26,53.91,37.11,60.31c0,0,11.66,1.09,14.46-7.24,0,0-20.36-56.89-29.31-61.58S3755,773,3755,773Z"/><path class="cls-11" d="M3824.08,659.46s-11.8,16.15-22.32,17a32.71,32.71,0,0,1,2.44-6.75,7.12,7.12,0,0,0-.12-6.75.41.41,0,0,1,0-.09,62.47,62.47,0,0,1-3-5.85l4.84-8.75,1-4.71a31.75,31.75,0,0,0,2.85,5.93A22.41,22.41,0,0,0,3824.08,659.46Z"/><path class="cls-15" d="M3810.19,649.43a13.58,13.58,0,0,1-6.16,13.46,62.47,62.47,0,0,1-3-5.85l4.84-8.75C3809.75,647.72,3810.19,649.43,3810.19,649.43Z"/><path class="cls-11" d="M3799.57,661.92s14.8-8.06,9.64-17.2-6.73-16.34-16.4-11.58-9.52,9.28-8.53,12.75S3795.59,663.78,3799.57,661.92Z"/><path class="cls-13" d="M3809.16,626.52c.08-.23.37-.5,1.11-.84a3.25,3.25,0,0,0-1.58.15c-.57-1-1.86-2.7-3.86-2.46a2.51,2.51,0,0,1,1.75,1.25c-2.95-1.39-8.08-1.24-20.19,4.59-15.95,7.67-6.39,16.28-3.77,16.74s6.64-5.12,10.74-6.34,7.1,4.33,8.75,4.61.58-.93,2.08-2.47,2.86,1.45,3.1,3.65,2.9,4,2.9,4,.87-.17,2.33-3.91-.68-16.39-2.8-18.45Z"/><path class="cls-16" d="M3897.53,825.65s3.44,5.22,4.24,6.91-.77,5.3-3.13,5.84c-2.08.48-2.39,4.17-2.39,4.17h10.09a2.66,2.66,0,0,0,2.44-1.49c1.43-3.14,1.75-7.21,2-8.57.6-2.87,1.79-5.27,1.27-8.19s-5.5-4.59-14.56-4.56C3887.57,819.79,3897.53,825.65,3897.53,825.65Z"/><path class="cls-7" d="M3867.85,762.64c-7.61,8.07-63.5-8.62-58.81-12.87,1.19-1.08.78-2.37,1.27-4.11,2.32-8.25-2.3-22.37-4.28-27.84-.46-1.27-.78-2.07-.84-2.24a96,96,0,0,1-4.31-15.56c-1.84-9.86-1.81-19,.71-24.65a.59.59,0,0,0,0-.08c10.47-3.06,16.24-18.46,16.24-18.46s33.16,9.42,45.2,56.74c0,0,.62,3,1.39,7.55h0c.24,1.39.48,2.92.73,4.56,1.29,8.42,2,19.22,2.8,27.26,0,.28.05.56.08.85C3868.45,757.26,3869.12,761.3,3867.85,762.64Z"/><path class="cls-6" d="M3823.84,754.64s5.58.74,16.81,1.56c11.65.87,24,2.7,26,6.61.66,1.3.2,4.58-1.1,9.11-2.87,10-9.83,26.13-17.78,40.43C3868.18,813.53,3896,818,3896,818a12.2,12.2,0,0,1,2.64,11.15c-1.45,0-5.83.63-11.81,1.6-21.66,3.48-48,10.65-64.39,10.65-3.58,0-6.26-2.54-7.35-5.86h0C3808.32,815.11,3823.84,754.64,3823.84,754.64Z"/><path class="cls-14" d="M3865.55,773.44c-11.27-.36-39.53-14.23-39.07-14.34a135.27,135.27,0,0,1,14.17-2.76c11.65.94,24,2.94,26,7.19C3867.31,764.94,3866.85,768.51,3865.55,773.44Z"/><path class="cls-6" d="M3823.43,659.13s-14.18,3-15.56,15.38c-1,9,6.17,29.53,6.17,29.53l4.6-1.88s-8.69-25.3-7.35-29.6c1.71-5.52,9.86-13.77,17.36-10.48Z"/><path class="cls-6" d="M3867.85,762.64c-7.61,8.07-64.7-8.44-60-12.69a8.91,8.91,0,0,0,2.48-4.29c2.32-8.25-2.3-22.37-4.28-27.84-.46-1.27-4.83-16.3-4.89-16.46l16.07-3.48s4.55,7.83,10.46,11.85a65.25,65.25,0,0,0,36.79,11.39h0c.24,1.39.48,2.92.73,4.56,1.29,8.42,2,19.22,2.8,27.26,0,.28.05.56.08.85C3868.45,757.26,3869.12,761.3,3867.85,762.64Z"/><path class="cls-2" d="M3746.67,841.89h-11.06V718.58A15.66,15.66,0,0,0,3720,702.94h-28.81V691.88H3720a26.73,26.73,0,0,1,26.7,26.7Z"/><rect class="cls-17" x="3713.91" y="690.59" width="2" height="14.14"/><rect class="cls-17" x="3740.57" y="720.7" width="2" height="14.14" transform="translate(4469.34 -3013.8) rotate(90)"/><rect class="cls-17" x="3740.57" y="744.44" width="2" height="14.14" transform="translate(4493.08 -2990.06) rotate(90)"/><rect class="cls-17" x="3734.19" y="825.38" width="13.37" height="16.51"/><path class="cls-13" d="M3748.36,724.39l52,20.42a2,2,0,0,0,2.62-1.14l.34-.87a1.72,1.72,0,0,0-1-2.22L3750.06,720Z"/><path class="cls-13" d="M3743.31,722.68l1.16.45.35-2.63a3.46,3.46,0,0,1,4.61-2.89l15.18,6,1.5-3.83-19.22-7.56a3.3,3.3,0,0,0-4.36,2.59l-.87,4.81A2.75,2.75,0,0,0,3743.31,722.68Z"/><rect class="cls-13" x="3754.54" y="719.36" width="10.2" height="5.83" transform="translate(6994.69 2769.49) rotate(-158.55)"/><path class="cls-18" d="M3762.05,723.54a.64.64,0,1,0-.84.36A.64.64,0,0,0,3762.05,723.54Z"/><path class="cls-18" d="M3758.22,722a.64.64,0,1,0-.84.37A.64.64,0,0,0,3758.22,722Z"/><path class="cls-11" d="M3805,733.12a30.37,30.37,0,0,1-5.28.69c-2.45.08-5.05-.38-6.23.11-2.49,1-10.37,6.46-6.57,8.78a8.76,8.76,0,0,0,10.33-.6c2.6-2.11,9.67-2.28,9.67-2.28Z"/><path class="cls-19" d="M3831.45,670.53c17.09,4.94,27.5,46,25.09,58.24s-50.66,12.92-50.66,12.92-2.71-2.13-3-4.32a9.87,9.87,0,0,1,0-4.08s30.51-8.28,31.21-11.8-14.69-22.2-14.45-32.32S3822.13,667.85,3831.45,670.53Z"/><path class="cls-10" d="M3766.25,841.89s-6.61-10.46-25.37-8.26-32.13,12.29-76.88,1-40.71,9-66.2,4.6-36.67,2.63-36.67,2.63Z"/><path class="cls-10" d="M3718.92,690.59s5.12-11.46,15-9.37a2.59,2.59,0,0,1,1.9,3.23C3735.18,687,3727.46,683.51,3718.92,690.59Z"/><path class="cls-1" d="M44.08,843.27c64.43,0,1052.57.07,1052.57,0,36.2-36.7,46.86-124.31-31.53-208.92-28.71-31,47.47-90.41-2-185.75-18.79-36.22-93.85-98.49-291.94-50.17C687,419,615.49,386.17,599.67,374.32a176.36,176.36,0,0,0-29.14-17.53C461.52,304,273.16,337.64,190.94,401c-11.65,9-64.63,55.49-22.87,119.41,26.37,40.35-84.09,78.89-123.34,125C-55.07,762.58,43.17,841.74,44.08,843.27Z"/><path class="cls-2" d="M908.15,568.05v.66c0,12.59,10.66,22.83,23.77,22.83h71.24c7.91,0,14.35,6.18,14.35,13.78v2.17c0,7.6-6.44,13.78-14.35,13.78H924.51a2.9,2.9,0,0,0-2.9,2.9,6.16,6.16,0,0,0,6.15,6.15h75.4c13.11,0,23.77-10.24,23.77-22.83v-2.17c0-12.59-10.66-22.82-23.77-22.82H931.92c-7.91,0-14.35-6.19-14.35-13.79v-.66c0-7.6,6.44-13.78,14.35-13.78h72.57c13.1,0,23.77-10.24,23.77-22.83v-3.06c0-12.58-10.67-22.82-23.77-22.82H931.92c-7.91,0-14.35-6.18-14.35-13.78S924,478,931.92,478H1075q-1.27-4.46-2.92-9H931.92c-13.11,0-23.77,10.24-23.77,22.83s10.66,22.82,23.77,22.82h72.57c7.91,0,14.35,6.19,14.35,13.78v3.06c0,7.61-6.44,13.79-14.35,13.79H931.92C918.81,545.23,908.15,555.47,908.15,568.05Z"/><rect class="cls-2" x="815.96" y="670.53" width="139.44" height="171.65" transform="translate(1771.35 1512.72) rotate(-180)"/><rect class="cls-3" x="815.96" y="696.13" width="139.44" height="2.33" transform="translate(1771.35 1394.59) rotate(-180)"/><path class="cls-3" d="M914.14,674.05H951.2v19.81H914.14Zm36.59.46H914.6v18.88h36.13Z"/><path class="cls-3" d="M894,684a6.64,6.64,0,1,0-6.64,6.64A6.64,6.64,0,0,0,894,684Z"/><path class="cls-3" d="M876,684a5.41,5.41,0,1,0-5.41,5.42A5.41,5.41,0,0,0,876,684Z"/><rect class="cls-3" x="827.04" y="677.59" width="29.68" height="12.73" transform="translate(1683.75 1367.9) rotate(-180)"/><circle class="cls-3" cx="887.33" cy="762.25" r="51.66"/><circle class="cls-4" cx="887.33" cy="762.25" r="41.54" transform="translate(82.22 1610.88) rotate(-87.17)"/><rect class="cls-3" x="840.2" y="755.26" width="15.36" height="18.15" rx="4.7" transform="translate(1695.77 1528.68) rotate(180)"/><rect class="cls-5" x="460.78" y="471.66" width="121.79" height="2.74" transform="translate(1043.36 946.05) rotate(-180)"/><path class="cls-5" d="M584,472.63a2.89,2.89,0,1,0-2.89,2.88A2.89,2.89,0,0,0,584,472.63Z"/><path class="cls-5" d="M464.51,472.63a2.89,2.89,0,1,0-2.89,2.88A2.89,2.89,0,0,0,464.51,472.63Z"/><path class="cls-6" d="M472.61,471.73V565.9c9.35,1.6,33.76.23,47.67,1.82s45.48-.54,45.48-.54v-95a2.84,2.84,0,0,0-2.83-2.83l-87.79-.13A2.52,2.52,0,0,0,472.61,471.73Z"/><path class="cls-7" d="M472.61,529.23V565.9c9.35,1.6,33.76.23,47.67,1.82s45.48-.54,45.48-.54v-35.3l-.35-2a319.24,319.24,0,0,1-38.29.43C509.19,529.19,487.66,532.12,472.61,529.23Z"/><path class="cls-8" d="M548.68,550.78c7.62,0,16.53-.37,17-.39l-.1-2.28c-.16,0-16.45.68-23.83.23l-1.74-.11c-8.94-.55-27.53-1.7-35.31-.41-8,1.33-32.63-.3-32.88-.31l-.15,2.27c1,.07,25.16,1.67,33.41.29,7.51-1.25,26.63-.07,34.79.44l1.75.11C543.57,550.73,546.05,550.78,548.68,550.78Z"/><path class="cls-8" d="M548.68,555.8c7.62,0,16.53-.37,17-.39l-.1-2.28c-.16,0-16.45.68-23.83.23l-1.74-.11c-8.94-.55-27.53-1.7-35.31-.41-8,1.33-32.63-.3-32.88-.32l-.15,2.28c1,.07,25.16,1.66,33.41.29,7.51-1.25,26.63-.07,34.79.44l1.75.11C543.57,555.75,546.05,555.8,548.68,555.8Z"/><rect class="cls-5" x="617.43" y="446.9" width="112.85" height="143.72" transform="translate(1347.71 1037.52) rotate(-180)"/><rect class="cls-2" x="622" y="451.4" width="103.7" height="135.28" transform="translate(1347.71 1038.08) rotate(-180)"/><rect class="cls-2" x="590.41" y="668.21" width="154.82" height="173.68" transform="translate(1335.63 1510.1) rotate(-180)"/><rect class="cls-3" x="590.41" y="721.49" width="154.82" height="2.06" transform="translate(1335.63 1445.03) rotate(-180)"/><rect class="cls-3" x="652.71" y="674.15" width="28.08" height="3.44" rx="1.05" transform="translate(1333.49 1351.73) rotate(-180)"/><rect class="cls-3" x="590.41" y="784.52" width="154.82" height="2.06" transform="translate(1335.63 1571.1) rotate(-180)"/><rect class="cls-3" x="652.71" y="727.79" width="28.08" height="3.44" rx="1.05" transform="translate(1333.49 1459.03) rotate(-180)"/><rect class="cls-3" x="652.71" y="793.63" width="28.08" height="3.44" rx="1.05" transform="translate(1333.49 1590.71) rotate(180)"/><rect class="cls-4" x="581.86" y="659.15" width="173.01" height="11.38" transform="translate(1336.73 1329.69) rotate(-180)"/><path class="cls-4" d="M676,634.35h0a3.46,3.46,0,0,0,3.45-3.46V599.44A3.47,3.47,0,0,0,676,596h0a3.47,3.47,0,0,0-3.46,3.46v31.45A3.47,3.47,0,0,0,676,634.35Z"/><path class="cls-2" d="M616.87,634.35c0,10.63,11.5,19.91,28.54,24.84h56c17-4.93,28.54-14.21,28.54-24.84Z"/><path class="cls-9" d="M614.08,634.35H732.77a2.5,2.5,0,0,0,2.49-2.49h0a2.5,2.5,0,0,0-2.49-2.49H614.08a2.49,2.49,0,0,0-2.48,2.49h0A2.49,2.49,0,0,0,614.08,634.35Z"/><path class="cls-10" d="M552.92,746.64s30.54,7,30.54,27c0,0-.31,10.09-11.27,7.3C563.64,778.81,573.2,766.93,552.92,746.64Z"/><path class="cls-10" d="M554.76,744.08s21.58-4.3,23.56.74C581.38,752.6,566.41,742.36,554.76,744.08Z"/><path class="cls-10" d="M530.47,745.07s-13.1,15.09-7.9,24.61c.73,1.34,2.26,3.65,6.46,2.13s-.9-7-.7-14A65.61,65.61,0,0,1,530.47,745.07Z"/><path class="cls-11" d="M541.65,742.12c-3.41.54-11.34-1.83-11.92-1.88-4.91-.48-.17-5.31-.17-5.31s7.73-1.7,9-1.6a12.7,12.7,0,0,1,1.89.36L539.14,735s6.44.68,6.51,2.18A5,5,0,0,1,541.65,742.12Z"/><path class="cls-11" d="M538.58,733.33l5.48.66c0,1.44-4.21,1-4.42,1.68s-1.18-1-1.18-1Z"/><path class="cls-11" d="M487.53,733.77s7.37.72,6.89,1.5-3.7,1.12-3.7,1.12l-2.59-1.67Z"/><path class="cls-12" d="M531.08,737.32c1.18-3.42-.47-4.49-.47-4.49s-33.75-16-36.5-17.77-21.32-35.55-21.32-35.55S465.92,665.7,457.16,666c-7.61.24-11.84,5-14.19,10a15.94,15.94,0,0,0,2.89,17.74c10.1,10.69,30.39,31.86,35.65,35.08,11.7,7.15,46.76,12.94,46.76,12.94A11.42,11.42,0,0,0,531.08,737.32Z"/><path class="cls-13" d="M526.14,774c-5.09,5.87-15.83,9.66-36.56,10.63-1.66.07-3.33.14-5,.19s-3.47.09-5.2.11c-5.64.08-11.24,0-16.58-.16-5.18-.18-10.11-.46-14.58-.84-8.74-.72-15.71-1.78-19.31-3a6.78,6.78,0,0,1-2.29-1.13,4,4,0,0,1-.9-1.15c-1.31-2.43-.62-6.4,1-10.78,2.3-6.37,6.52-13.6,9.37-18.12.57-.91,1.08-1.7,1.51-2.35.87-1.33,1.41-2.11,1.41-2.11s9.67.9,22.93,2.62c2.7.35,5.55.73,8.5,1.15,28.49,4,56.88,11.27,56.86,20.88C527.24,771.4,527.34,772.61,526.14,774Z"/><path class="cls-14" d="M490.86,784.5c-1.73,0-9.76.4-11.49.42-5.64.08-11.24,0-16.58-.16l-5-20.24C465.54,775.36,488.36,783.8,490.86,784.5Z"/><path class="cls-14" d="M474.08,843.27H501.7a4.93,4.93,0,0,0-4.05-2.87c-4.35-.77-11.91-3.12-10.94-9.4s-9.61-7.18-9.61-7.18S472.69,840.85,474.08,843.27Z"/><path class="cls-13" d="M526.59,773s-34.27,53.91-37.12,60.31c0,0-11.65,1.09-14.46-7.24,0,0,20.37-56.89,29.32-61.58S526.59,773,526.59,773Z"/><path class="cls-11" d="M457.49,659.46s11.8,16.15,22.32,17a32.41,32.41,0,0,0-2.45-6.75,7.12,7.12,0,0,1,.13-6.75.41.41,0,0,1,.05-.09,60.42,60.42,0,0,0,3-5.85l-4.84-8.75-1-4.71a31.13,31.13,0,0,1-2.84,5.93A22.41,22.41,0,0,1,457.49,659.46Z"/><path class="cls-15" d="M471.38,649.43a13.58,13.58,0,0,0,6.16,13.46,60.42,60.42,0,0,0,3-5.85l-4.84-8.75C471.82,647.72,471.38,649.43,471.38,649.43Z"/><path class="cls-11" d="M482,661.92s-14.8-8.06-9.63-17.2,6.73-16.34,16.39-11.58,9.52,9.28,8.54,12.75S486,663.78,482,661.92Z"/><path class="cls-13" d="M472.41,626.52c-.08-.23-.37-.5-1.11-.84a3.21,3.21,0,0,1,1.57.15c.57-1,1.87-2.7,3.87-2.46a2.49,2.49,0,0,0-1.75,1.25c2.95-1.39,8.08-1.24,20.18,4.59,16,7.67,6.4,16.28,3.77,16.74s-6.64-5.12-10.73-6.34-7.1,4.33-8.76,4.61-.58-.93-2.08-2.47-2.85,1.45-3.1,3.65-2.89,4-2.89,4-.87-.17-2.33-3.91.68-16.39,2.79-18.45Z"/><path class="cls-16" d="M384,825.65s-3.44,5.22-4.24,6.91.77,5.3,3.13,5.84c2.08.48,2.39,4.17,2.39,4.17H375.23a2.67,2.67,0,0,1-2.45-1.49c-1.42-3.14-1.75-7.21-2-8.57-.6-2.87-1.8-5.27-1.27-8.19s5.5-4.59,14.56-4.56C394,819.79,384,825.65,384,825.65Z"/><path class="cls-7" d="M413.71,762.64c7.61,8.07,63.5-8.62,58.82-12.87-1.19-1.08-.79-2.37-1.27-4.11-2.32-8.25,2.3-22.37,4.28-27.84.46-1.27.78-2.07.84-2.24a94.92,94.92,0,0,0,4.3-15.56c1.85-9.86,1.81-19-.71-24.65,0,0,0-.06,0-.08-10.47-3.06-16.23-18.46-16.23-18.46s-33.17,9.42-45.21,56.74c0,0-.62,3-1.38,7.55h0c-.23,1.39-.48,2.92-.73,4.56-1.28,8.42-2,19.22-2.79,27.26l-.09.85C413.11,757.26,412.45,761.3,413.71,762.64Z"/><path class="cls-6" d="M457.72,754.64s-5.57.74-16.81,1.56c-11.64.87-24,2.7-26,6.61-.66,1.3-.2,4.58,1.1,9.11,2.87,10,9.83,26.13,17.77,40.43-20.41,1.18-48.18,5.68-48.18,5.68A12.23,12.23,0,0,0,383,829.18c1.46,0,5.84.63,11.82,1.6,21.66,3.48,48,10.65,64.39,10.65,3.58,0,6.26-2.54,7.34-5.86h0C473.24,815.11,457.72,754.64,457.72,754.64Z"/><path class="cls-14" d="M416,773.44c11.26-.36,39.52-14.23,39.06-14.34a134.77,134.77,0,0,0-14.17-2.76c-11.64.94-24,2.94-26,7.19C414.26,764.94,414.72,768.51,416,773.44Z"/><path class="cls-6" d="M458.14,659.13s14.17,3,15.56,15.38c1,9-6.18,29.53-6.18,29.53l-4.59-1.88s8.68-25.3,7.35-29.6c-1.72-5.52-9.87-13.77-17.36-10.48Z"/><path class="cls-6" d="M413.71,762.64c7.61,8.07,64.71-8.44,60-12.69a8.82,8.82,0,0,1-2.47-4.29c-2.32-8.25,2.3-22.37,4.28-27.84.46-1.27,4.82-16.3,4.88-16.46l-16.07-3.48s-4.55,7.83-10.45,11.85a65.25,65.25,0,0,1-36.79,11.39h0c-.23,1.39-.48,2.92-.73,4.56-1.28,8.42-2,19.22-2.79,27.26l-.09.85C413.11,757.26,412.45,761.3,413.71,762.64Z"/><path class="cls-2" d="M534.89,841.89H546V718.58a15.66,15.66,0,0,1,15.64-15.64h28.81V691.88H561.6a26.74,26.74,0,0,0-26.71,26.7Z"/><rect class="cls-17" x="565.66" y="690.59" width="2" height="14.14" transform="translate(1133.32 1395.33) rotate(-180)"/><rect class="cls-17" x="539" y="720.7" width="2" height="14.14" transform="translate(1267.76 187.77) rotate(90)"/><rect class="cls-17" x="539" y="744.44" width="2" height="14.14" transform="translate(1291.5 211.51) rotate(90)"/><rect class="cls-17" x="534" y="825.38" width="13.37" height="16.51" transform="translate(1081.37 1667.27) rotate(-180)"/><path class="cls-13" d="M533.21,724.39l-52,20.42a2,2,0,0,1-2.62-1.14l-.34-.87a1.71,1.71,0,0,1,1-2.22L531.5,720Z"/><path class="cls-13" d="M538.26,722.68l-1.16.45-.35-2.63a3.47,3.47,0,0,0-4.61-2.89l-15.18,6-1.51-3.83,19.23-7.56a3.29,3.29,0,0,1,4.35,2.59l.88,4.81A2.75,2.75,0,0,1,538.26,722.68Z"/><rect class="cls-13" x="516.82" y="719.36" width="10.2" height="5.83" transform="translate(-227.99 240.91) rotate(-21.45)"/><path class="cls-18" d="M519.52,723.54a.64.64,0,0,1,.36-.83.64.64,0,1,1,.47,1.19A.64.64,0,0,1,519.52,723.54Z"/><path class="cls-18" d="M523.35,722a.64.64,0,0,1,.36-.83.64.64,0,1,1,.47,1.2A.63.63,0,0,1,523.35,722Z"/><path class="cls-11" d="M476.62,733.12a30.35,30.35,0,0,0,5.27.69c2.46.08,5.06-.38,6.24.11,2.48,1,10.37,6.46,6.56,8.78a8.76,8.76,0,0,1-10.33-.6c-2.6-2.11-9.67-2.28-9.67-2.28Z"/><path class="cls-19" d="M450.12,670.53c-17.1,4.94-27.51,46-25.1,58.24s50.66,12.92,50.66,12.92,2.71-2.13,3-4.32a9.64,9.64,0,0,0,0-4.08s-30.51-8.28-31.21-11.8,14.69-22.2,14.46-32.32S459.43,667.85,450.12,670.53Z"/><path class="cls-10" d="M515.31,841.89s6.62-10.46,25.38-8.26,32.12,12.29,76.88,1,40.71,9,66.2,4.6,36.67,2.63,36.67,2.63Z"/><path class="cls-10" d="M562.65,690.59s-5.13-11.46-15-9.37a2.59,2.59,0,0,0-1.9,3.23C546.39,687,554.11,683.51,562.65,690.59Z"/><rect class="cls-16" x="0.84" y="841.61" width="4280.72" height="1.68" rx="0.84"/><rect class="cls-20" width="4281.57" height="843.3"/></g></g></svg>