<svg id="Layer_1" data-name="Layer 1" xmlns="http://www.w3.org/2000/svg" viewBox="0 0 627.76 627.76"><defs><style>.cls-1{fill:#231f20;}.cls-2{fill:#be1e2d;}</style></defs><path class="cls-1" d="M313.88,25A289,289,0,0,1,426.32,580.07,289,289,0,0,1,201.44,47.69,287,287,0,0,1,313.88,25m0-25C140.53,0,0,140.53,0,313.88S140.53,627.76,313.88,627.76,627.76,487.23,627.76,313.88,487.23,0,313.88,0Z"/><path class="cls-2" d="M230,462c-1.88,6.06-.31,9,5,11.37,15.66,7,31,14.7,46.49,22.1,22.51,10.77,43,3.16,53-19.81a10.27,10.27,0,0,1,4.79-5q51.57-30,103.15-60.07c8.35-4.83,17.35-8.09,27.19-8.08a24.09,24.09,0,0,1,21.55,35.09c-3.56,7.19-9.05,12.84-15.25,17.65-47.79,37.08-95.45,74.33-145.09,109-11.29,7.87-22.19,8.82-34.91,3.68-33-13.35-66.36-25.92-99.51-39a39.72,39.72,0,0,0-15.24-2.77c-13.06.12-26.12-.06-39.18.16-5.82.09-8.07-2.08-8-8.09q.3-50.62,0-101.25c0-5.44,2-7.72,7.35-8.55,23.83-3.7,47.62-7.67,71.4-11.66a27.27,27.27,0,0,1,16.49,2.34c27,12.56,54,25.05,80.93,37.71,15.8,7.41,22.31,23.81,15.54,38.48-6.88,14.91-23.78,20.41-39.87,12.89C267.37,479.63,248.94,470.93,230,462Z"/><path class="cls-2" d="M233.59,158.51l52.73-44q8.78-7.32,17.52-14.66c7.83-6.54,12.19-6.63,20.1,0q70.13,58.58,140.2,117.22,18.28,15.27,36.59,30.51c4.25,3.55,5.95,8,4.31,13.34-1.4,4.6-4.73,7.19-9.44,7.89-4.21.63-7.57-1.24-10.69-3.85q-44.3-37.06-88.63-74.09c-26.21-21.9-52.5-43.7-78.55-65.78-3.42-2.9-5.15-2.11-8,.3Q226.9,194.73,144,263.94c-2.69,2.25-5.28,4.62-9,4.86-5.29.35-9.51-1.65-11.66-6.58-2.32-5.32-1.33-10.3,3.19-14.14,10.28-8.74,20.64-17.37,31-26q18-15.08,36.1-30.07c2.64-2.18,3.81-4.18,3.62-8.09-.59-12.16-.24-24.37-.22-36.56,0-5.61,2.84-8.42,8.47-8.4,6.31,0,12.62-.08,18.93,0,7.23.11,9.08,2.09,9.18,9.48C233.62,151.23,233.59,154,233.59,158.51Z"/><path class="cls-2" d="M179.58,305.4c0-17.42.1-34.85-.07-52.27,0-4,1-6.91,4.22-9.55q62-51.59,123.75-103.41c4.69-3.94,8.39-3.94,13.11,0q62,52.08,124.24,103.85a12.65,12.65,0,0,1,4.9,10.7c-.1,34.84-.22,69.69.1,104.53.05,6-2.81,5.76-7.09,6.07-5.38.4-5.9-2-5.88-6.48.16-32.88,0-65.77.18-98.65,0-4.07-1.07-6.81-4.25-9.46q-57.23-47.59-114.18-95.52c-3.32-2.79-5.25-3.34-9-.14q-56.38,47.58-113.25,94.58c-3.27,2.72-4.1,5.58-4.09,9.54.12,33.1-.07,66.21.2,99.31,0,5.57-1.7,6.72-7,6.9-6.05.21-6-2.78-5.94-7.11C179.66,340.68,179.58,323,179.58,305.4Z"/><path class="cls-2" d="M313.79,358.17q34.27,0,68.55,0c8.72,0,11.59-2.93,11.6-11.81q0-40.82,0-81.64c0-9.13-2.91-12-12.1-12.08a39.43,39.43,0,0,1-5.86-.13c-2.93-.47-2.61-3.24-2.81-5.19-.27-2.49,2.05-1.73,3.32-1.7,4.75.09,9.61-.84,14.18,1.18,6.08,2.69,9.87,7.16,9.88,14,.06,29.83.12,59.65,0,89.48,0,9.14-7.1,15.1-17.63,15.2-13.7.14-27.42,0-41.13,0q-47.33,0-94.66,0c-14.38,0-20-5.72-20-20.2q0-40.49,0-81c0-12.83,5.91-18.75,18.75-18.78,18.06,0,36.13-.07,54.19.08,1.81,0,5.18-1.91,5.2,2.37,0,3.53-1.78,4.72-5.36,4.69-17.84-.16-35.69-.09-53.54-.06-9.75,0-12.36,2.6-12.38,12.47q-.08,40.49,0,81c0,9.49,2.65,12.07,11.95,12.07Q279.85,358.21,313.79,358.17Z"/><path class="cls-2" d="M433.89,405.86,337.23,462.1c-1.43-6.59-2.52-12.56-5.91-17.68-2.18-3.3.82-3.49,2.55-4.34q28.88-14.26,57.79-28.46c5.26-2.59,10.48-5.25,15.75-7.79C416.11,399.63,424.57,400.07,433.89,405.86Z"/><path class="cls-2" d="M370.79,235.84c-3.59,5.41-3.48,10-.85,14.88.75,1.38-.61,3-2,3.72a9.19,9.19,0,0,0-5.25,9,2,2,0,0,1,0,.65c-.56,1.84-17.12,10.14-19,9.51-.61-.21-1.36-.9-1.76-.73-8.62,3.79-14.52-3.19-21.61-5.37-.2-.06-.44,0-.65-.08-1.69-.41-11.61-17-10.62-18.33,3.61-4.76-1.3-9.39-.09-13.56s7.84-5.65,6.84-11.69c-.22-1.33,16.62-11.17,17.83-10.43,3.72,2.26,7.26,2.42,11,0,1.62-1,3.57-.93,4.62.83,2.31,3.89,5.52,6,10.07,6,.42,0,1.08.08,1.23.35C363.52,226,364.35,232.7,370.79,235.84Zm-31.62,29.5c11.79.05,21.81-9.62,22-21.24.21-11.85-10-22.1-21.9-22.08s-22.29,10.29-22,22A22,22,0,0,0,339.17,265.34Z"/><path class="cls-2" d="M313.68,314.69h52.83c3.1,0,6.66-.3,6.48,4.2-.16,3.86-3.32,3.88-6.29,3.88q-52.81,0-105.65,0c-3.07,0-6.21-.37-6.23-4,0-4.18,3.5-4.12,6.69-4.12C278.9,314.72,296.29,314.69,313.68,314.69Z"/><path class="cls-2" d="M302,338.88H261.56c-3.07,0-6.82.27-6.79-4,0-3.93,3.44-4.39,6.71-4.38q40.09,0,80.18,0c3.34,0,6.54.65,6.44,4.62-.1,3.82-3.41,3.8-6.35,3.79Q321.86,338.86,302,338.88Z"/><path class="cls-2" d="M369.16,290.18c-8.4-1.39-15.34-.28-19.72,8.76-3.28-8.12-6-14.78-9.34-23.06,7.31,4.36,11.42,1.72,15.24-3.86,2-2.85,5.71-3,7.4,1.59C364.68,278.85,366.77,284,369.16,290.18Z"/><path class="cls-2" d="M329.33,298.63c-4.95-7.8-11-10.68-19.39-8.08a63.55,63.55,0,0,1,6.43-18c2.39-4.59,6.06-2.26,8.07.89,3.42,5.34,7.45,6.08,13.95,1.89Z"/></svg>