<svg xmlns="http://www.w3.org/2000/svg" viewBox="0 0 4281.57 844.98"><defs><style>.cls-1{fill:#dee9f7;}.cls-2{fill:#c0d1ec;}.cls-3{fill:#9fb6df;}.cls-4{fill:#447bbf;}.cls-5{fill:#be1e2d;}.cls-6{fill:#fff;}.cls-7{fill:#b2c1e3;}.cls-8{fill:#9ab0db;}.cls-9{fill:#fab17e;}.cls-10{fill:#751113;}.cls-11{fill:#35498c;}.cls-12{fill:#7988c3;}.cls-13{fill:#a8c3e6;}.cls-14{fill:#2e3b65;}.cls-15{fill:#ee985e;}.cls-16{fill:#231f20;}.cls-17{fill:#d63044;}.cls-18{fill:#919bce;}.cls-19{fill:#243962;}.cls-20{fill:none;}</style></defs><g id="Layer_2" data-name="Layer 2"><g id="Layer_1-2" data-name="Layer 1"><path class="cls-1" d="M1098.65,841.9C1033.17,841.9,29,842,29,841.9-7.82,804.6-18.65,715.57,61,629.59c29.18-31.49-48.24-91.88,2-188.77,19.1-36.81,95.38-100.1,296.69-51C445.32,410.71,518,377.37,534,365.33a178.73,178.73,0,0,1,29.61-17.81c110.78-53.61,302.2-19.47,385.76,45,11.84,9.13,65.68,56.39,23.24,121.34-26.79,41,85.46,80.18,125.35,127C1199.41,759.9,1099.57,840.35,1098.65,841.9Z"/><path class="cls-2" d="M220.53,562.21v.67c0,12.79-10.83,23.2-24.15,23.2H124c-8,0-14.59,6.28-14.59,14v2.21c0,7.73,6.55,14,14.59,14h79.93a2.94,2.94,0,0,1,2.94,2.94,6.25,6.25,0,0,1-6.25,6.25H124c-13.32,0-24.16-10.4-24.16-23.2v-2.21c0-12.79,10.84-23.19,24.16-23.19h72.4c8,0,14.58-6.29,14.58-14v-.67c0-7.72-6.54-14-14.58-14H122.63c-13.32,0-24.16-10.4-24.16-23.19V521.9c0-12.79,10.84-23.2,24.16-23.2h73.75c8,0,14.58-6.28,14.58-14s-6.54-14-14.58-14H51c.87-3,1.85-6.08,3-9.19H196.38c13.32,0,24.15,10.41,24.15,23.2s-10.83,23.19-24.15,23.19H122.63c-8,0-14.59,6.29-14.59,14V525c0,7.72,6.55,14,14.59,14h73.75C209.7,539,220.53,549.42,220.53,562.21Z"/><rect class="cls-3" x="655.04" y="464.25" width="123.77" height="2.78"/><path class="cls-3" d="M653.61,465.23a2.94,2.94,0,1,1,2.93,2.94A2.93,2.93,0,0,1,653.61,465.23Z"/><path class="cls-3" d="M775,465.23a2.94,2.94,0,1,1,2.93,2.94A2.93,2.93,0,0,1,775,465.23Z"/><path class="cls-4" d="M766.78,464.33V560c-9.5,1.63-34.3.24-48.43,1.86s-46.22-.56-46.22-.56V464.77A2.87,2.87,0,0,1,675,461.9l89.22-.14A2.56,2.56,0,0,1,766.78,464.33Z"/><path class="cls-5" d="M766.78,522.75V560c-9.5,1.63-34.3.24-48.43,1.86s-46.22-.56-46.22-.56V525.45c.22-1.28.35-2,.35-2a323.72,323.72,0,0,0,38.91.44C729.61,522.72,751.5,525.69,766.78,522.75Z"/><path class="cls-6" d="M689.49,544.66c-7.75,0-16.8-.38-17.31-.4l.09-2.31c.17,0,16.72.68,24.22.23l1.77-.11c9.08-.56,28-1.73,35.88-.42,8.12,1.36,33.16-.3,33.42-.32l.15,2.31c-1,.07-25.57,1.7-34,.3-7.64-1.27-27.06-.07-35.36.44l-1.77.11C694.68,544.61,692.16,544.66,689.49,544.66Z"/><path class="cls-6" d="M689.49,549.76c-7.75,0-16.8-.38-17.31-.4l.09-2.31c.17,0,16.72.68,24.22.23l1.77-.11c9.08-.56,28-1.73,35.88-.42,8.12,1.35,33.16-.3,33.42-.32l.15,2.31c-1,.07-25.57,1.69-34,.3-7.64-1.28-27.06-.07-35.36.44l-1.77.11C694.68,549.71,692.16,549.76,689.49,549.76Z"/><rect class="cls-3" x="504.93" y="439.09" width="114.68" height="146.05"/><rect class="cls-2" x="509.58" y="443.66" width="105.39" height="137.48"/><rect class="cls-2" x="149.68" y="666.36" width="141.71" height="174.44"/><rect class="cls-7" x="149.68" y="692.37" width="141.71" height="2.37"/><path class="cls-7" d="M191.61,690.06H154V669.93h37.66Zm-37.19-.47h36.72V670.4H154.42Z"/><path class="cls-7" d="M212.1,680a6.75,6.75,0,1,1,6.75,6.75A6.75,6.75,0,0,1,212.1,680Z"/><path class="cls-7" d="M230.34,680a5.51,5.51,0,1,1,5.51,5.51A5.51,5.51,0,0,1,230.34,680Z"/><rect class="cls-7" x="249.96" y="673.53" width="30.16" height="12.94"/><circle class="cls-7" cx="218.85" cy="759.56" r="52.5"/><circle class="cls-8" cx="218.85" cy="759.56" r="42.22" transform="translate(-37.22 11.73) rotate(-2.83)"/><rect class="cls-7" x="251.14" y="752.47" width="15.61" height="18.45" rx="4.7"/><rect class="cls-2" x="489.74" y="664" width="157.34" height="176.51"/><rect class="cls-7" x="489.74" y="718.14" width="157.34" height="2.09"/><rect class="cls-7" x="555.23" y="670.03" width="28.53" height="3.5" rx="1.05"/><rect class="cls-7" x="489.74" y="782.2" width="157.34" height="2.09"/><rect class="cls-7" x="555.23" y="724.55" width="28.53" height="3.5" rx="1.05"/><rect class="cls-7" x="555.23" y="791.46" width="28.53" height="3.5" rx="1.05"/><rect class="cls-8" x="479.94" y="654.79" width="175.82" height="11.57"/><path class="cls-8" d="M560.15,629.59h0a3.53,3.53,0,0,1-3.52-3.52v-32a3.53,3.53,0,0,1,3.52-3.52h0a3.52,3.52,0,0,1,3.51,3.52v32A3.52,3.52,0,0,1,560.15,629.59Z"/><path class="cls-9" d="M541.52,612.13s8.5-3.19,11.36-1.25-.89,8-3.16,8.36-8.89-.59-8.89-.59Z"/><path class="cls-10" d="M542.89,616.2c1.34-3.64.21-5.45.21-5.45s-31.26-6-34.17-8-29.28-38.51-29.28-38.51l-41.44,3.86s51.69,43.42,59.17,48.19c12.35,7.88,42.23,3.39,42.23,3.39A5.53,5.53,0,0,0,542.89,616.2Z"/><rect class="cls-11" x="547.77" y="605.26" width="3.76" height="19.91" transform="translate(582.31 1439.55) rotate(-140.49)"/><path class="cls-11" d="M557.72,600.91h0c-.8,1.27-1.1,2.91-.06,4,1.4,1.44,3.08.88,4.32-.63l.32-.39c.43-.53,1.58.62,1.51,1.3a5.49,5.49,0,0,1-1.67,3.34,5.42,5.42,0,1,1-5.85-8.92C557,599.29,558.16,600.23,557.72,600.91Z"/><path class="cls-11" d="M541.82,630.06v0c.81-1.27,1.1-2.9.06-4-1.4-1.44-3.07-.88-4.32.62,0,0-.31.39-.32.39-.43.53-1.58-.61-1.51-1.29a5.42,5.42,0,1,1,9.56,4.05,5.36,5.36,0,0,1-2,1.53C542.52,631.68,541.38,630.74,541.82,630.06Z"/><path class="cls-9" d="M552.88,610.88s-4.94-.15-5.1,2.3-.54,6.21,1.94,6.06S559.16,613.48,552.88,610.88Z"/><path class="cls-12" d="M570.16,615.74s31.18-28.39,43.25-12.49c3.15,4.15-3.69,9.08-8.6,9.84C596,614.45,581.47,609.9,570.16,615.74Z"/><path class="cls-2" d="M620.18,629.59c0,10.8-11.68,20.23-29,25.24H534.24c-17.32-5-29-14.44-29-25.24Z"/><path class="cls-13" d="M623,629.59H502.4a2.54,2.54,0,0,1-2.53-2.53h0a2.54,2.54,0,0,1,2.53-2.53H623a2.53,2.53,0,0,1,2.53,2.53h0A2.53,2.53,0,0,1,623,629.59Z"/><path class="cls-12" d="M583.24,634.66s2.1,11.77-3.65,15S569.31,646,574.35,643,581.4,640,583.24,634.66Z"/><path class="cls-12" d="M583.67,624.53s15.86,2.11,22.09,14,11.19,28.53-1.55,31.09-18.65-4-14.69-18.9C595.11,629.59,583.67,624.53,583.67,624.53Z"/><path class="cls-14" d="M355.87,814.62s-5.58,5.17-4.49,8.85,6.13,6.13,6.81,10.62S361.59,841,364,841h11.69s1.8-3.16-2.56-4.11-6-6.23-5.72-11.13a88,88,0,0,0-.41-11.44l-9.26-2.18Z"/><path class="cls-14" d="M424.36,827.85s-1.3,11.77,1.15,13h31.61s.05-3.75-5-4.56-13.89-3.82-15.39-10.49S424.36,827.85,424.36,827.85Z"/><path class="cls-4" d="M450.84,660.52s-1.65,20.64-3.6,45.45c-2.64,33.7-5.82,75.1-6.13,82.94-.55,13.62-2.73,35.4-2.73,35.4s-5.17,5.18-15.52,3c0,0-9.22-31.1-11.86-64l-.12-1.63c-2.45-33.49-6.26-104-6.26-104Z"/><path class="cls-14" d="M450.84,660.52s-1.65,20.64-3.6,45.45L411,763.31l-.12-1.63c-2.45-33.49-6.26-104-6.26-104Z"/><path class="cls-4" d="M443.28,663s-1.53,3.85-4.12,10.2c-6.06,14.79-17.91,43.23-29.65,68.42-5.43,11.68-10.85,22.66-15.65,31.26-19.61,35.14-25.74,44.94-25.74,44.94l-.75-.32c-2-.85-7.67-3.34-10.25-5.63a4.17,4.17,0,0,1-1.25-1.61s7.5-67.81,20.63-84.35c7.42-9.34,16.13-37.37,16.54-47.17.18-4.33.73-10.51,1.27-16.08.49-5,1-9.56,1.23-11.74.1-.89.16-1.39.16-1.39l34.43,9.75Z"/><path class="cls-14" d="M436.28,672.58a139.61,139.61,0,0,1-31.1-4.68c-5.32-1.3-8.82-4-10.87-5.28.49-5,1-9.56,1.23-11.74L409.39,658Z"/><path class="cls-9" d="M456.42,545.29s12.17,21.4,24.06,24.2a35.7,35.7,0,0,0-2.28-9.86,4.37,4.37,0,0,1,.67-4.4l1.35-1.68a71.64,71.64,0,0,0,4.41-6.19l-4-10.85-2.74-7.36a35.73,35.73,0,0,1-4.28,6.17C465.79,544.28,456.42,545.29,456.42,545.29Z"/><path class="cls-15" d="M473.58,535.32s-1.45,10.72,6.64,18.23a71.64,71.64,0,0,0,4.41-6.19l-4-10.85A22.88,22.88,0,0,0,473.58,535.32Z"/><path class="cls-9" d="M487.84,548.94s-18.18-7.08-13.59-18.34,5.33-19.74,17.13-15.69,12.29,9.25,11.67,13.38S492.69,550.5,487.84,548.94Z"/><path class="cls-5" d="M477.44,596.6a111.86,111.86,0,0,1-7.59,17.07c-.6,1.1-1.18,2.17-1.73,3.24-.37.71-.73,1.42-1.07,2.12a113,113,0,0,0-11,34.07c-.25,1.75-.45,3.41-.58,5-.6,6.68-63.08-15.08-61.07-24.42,1.33-6.15,3.15-12.62,4.85-18.13,2.47-8.07,4.69-14.09,4.69-14.09,11.68-27.81,28.27-42.78,41.19-50.69,2.34-1.44,4.56-2.64,6.61-3.64a55.79,55.79,0,0,1,13.2-4.81s2.67,13.36,14.13,18.66c0,0,1.79,7.25,1.79,7.28C482.77,575.11,481.25,585.62,477.44,596.6Z"/><path class="cls-16" d="M471.64,509.7c-.13-.25-.5-.52-1.4-.79a3.72,3.72,0,0,1,1.83-.07c.51-1.25,1.75-3.37,4.08-3.38a2.84,2.84,0,0,0-1.83,1.68c3.19-2,9.1-2.61,23.86,2.31,19.44,6.47,9.73,17.76,6.78,18.67s-8.37-4.91-13.25-5.7-7.52,6-9.38,6.57-.81-1-2.75-2.53-3.07,2.09-3,4.65-3.76,5-3.76,5L470.57,532c-2.23-4.09-1.63-18.92.5-21.59Z"/><path class="cls-10" d="M438.93,586.44s2.09,15.84,9.16,27.82,10.21-6.66,10.21-6.66Z"/><path class="cls-4" d="M467.05,619a113,113,0,0,0-11,34.07c-.25,1.75-.45,3.41-.58,5a78.29,78.29,0,0,0,0,14.39c.64,7.3-54.18-6.79-61.51-17.33-4-5.81,1-25.74,5.3-39.61.71.17,34.7,8.26,58.21-12.77Z"/><path class="cls-14" d="M471.21,581.39l-3.38-6.76c0-.11.36-11.92-6.72-18.84-3.81-3.74-9.19-5.43-16-5,2.34-1.44,4.56-2.64,6.61-3.64A21.57,21.57,0,0,1,463.88,553C472.2,561.16,471.23,580.84,471.21,581.39Z"/><path class="cls-9" d="M518,627.89s10.67-1.91,12.44-1.7,7.85,3.09,7.91,3.6-.26.9-1.33.92-4.59-.6-4.38-.16,10.28,2.92,10.29,5-5.74,5.59-10.46,5.62-13.72-5.88-14.51-6C511.22,634.26,518,627.89,518,627.89Z"/><path class="cls-17" d="M520,632.24c.21-2.11-2-4.35-2-4.35s-31.64-8.71-34.26-11.35S469,571.81,469,571.81s-4.18-17-14-18.91c-8.49-1.63-14.37,2.58-18.21,7.51a18.11,18.11,0,0,0-1.23,20.37c8.53,14.38,25.74,42.91,30.77,47.79,11.19,10.85,51.6,8.61,51.6,8.61S519.54,636.46,520,632.24Z"/><path class="cls-18" d="M723.39,841.93s-6.72-10.63-25.78-8.39S665,846,619.48,834.59s-41.38,9.09-67.28,4.66-37.27,2.68-37.27,2.68Z"/><path class="cls-1" d="M3182.92,841.9c65.48,0,1069.68.07,1069.68,0,36.78-37.3,47.62-126.33-32.05-212.31-29.18-31.49,48.24-91.88-2-188.77-19.1-36.81-95.38-100.1-296.69-51-85.6,20.88-158.23-12.46-174.31-24.5a178.73,178.73,0,0,0-29.61-17.81c-110.79-53.61-302.21-19.47-385.76,45-11.84,9.13-65.68,56.39-23.25,121.34,26.8,41-85.46,80.18-125.34,127C3082.16,759.9,3182,840.35,3182.92,841.9Z"/><path class="cls-2" d="M4061,562.21v.67c0,12.79,10.84,23.2,24.16,23.2h72.4c8,0,14.58,6.28,14.58,14v2.21c0,7.73-6.54,14-14.58,14h-79.93a3,3,0,0,0-2.95,2.94,6.27,6.27,0,0,0,6.25,6.25h76.63c13.32,0,24.16-10.4,24.16-23.2v-2.21c0-12.79-10.84-23.19-24.16-23.19h-72.4c-8,0-14.59-6.29-14.59-14v-.67c0-7.72,6.55-14,14.59-14h73.75c13.31,0,24.15-10.4,24.15-23.19V521.9c0-12.79-10.84-23.2-24.15-23.2h-73.75c-8,0-14.59-6.28-14.59-14s6.55-14,14.59-14h145.38q-1.29-4.53-3-9.19H4085.19c-13.32,0-24.16,10.41-24.16,23.2s10.84,23.19,24.16,23.19h73.75c8,0,14.58,6.29,14.58,14V525c0,7.72-6.54,14-14.58,14h-73.75C4071.87,539,4061,549.42,4061,562.21Z"/><rect class="cls-3" x="3502.76" y="464.25" width="123.77" height="2.78" transform="translate(7129.29 931.28) rotate(-180)"/><path class="cls-3" d="M3628,465.23a2.94,2.94,0,1,0-2.94,2.94A2.94,2.94,0,0,0,3628,465.23Z"/><path class="cls-3" d="M3506.54,465.23a2.94,2.94,0,1,0-2.94,2.94A2.93,2.93,0,0,0,3506.54,465.23Z"/><path class="cls-4" d="M3514.78,464.33V560c9.5,1.63,34.3.24,48.44,1.86s46.22-.56,46.22-.56V464.77a2.88,2.88,0,0,0-2.87-2.87l-89.22-.14A2.57,2.57,0,0,0,3514.78,464.33Z"/><path class="cls-5" d="M3514.78,522.75V560c9.5,1.63,34.3.24,48.44,1.86s46.22-.56,46.22-.56V525.45c-.22-1.28-.35-2-.35-2a323.85,323.85,0,0,1-38.92.44C3552,522.72,3530.07,525.69,3514.78,522.75Z"/><path class="cls-6" d="M3592.08,544.66c7.74,0,16.8-.38,17.31-.4l-.1-2.31c-.17,0-16.71.68-24.22.23l-1.76-.11c-9.09-.56-28-1.73-35.89-.42-8.11,1.36-33.16-.3-33.41-.32l-.16,2.31c1,.07,25.58,1.7,34,.3,7.64-1.27,27.07-.07,35.36.44l1.77.11C3586.89,544.61,3589.41,544.66,3592.08,544.66Z"/><path class="cls-6" d="M3592.08,549.76c7.74,0,16.8-.38,17.31-.4l-.1-2.31c-.17,0-16.72.68-24.22.23l-1.76-.11c-9.09-.56-28-1.73-35.89-.42-8.11,1.35-33.16-.3-33.41-.32l-.16,2.31c1,.07,25.58,1.69,34,.3,7.64-1.28,27.07-.07,35.36.44l1.77.11C3586.89,549.71,3589.41,549.76,3592.08,549.76Z"/><rect class="cls-3" x="3661.95" y="439.09" width="114.68" height="146.05" transform="translate(7438.58 1024.24) rotate(-180)"/><rect class="cls-2" x="3666.6" y="443.66" width="105.39" height="137.48" transform="translate(7438.58 1024.8) rotate(-180)"/><rect class="cls-2" x="3990.18" y="666.36" width="141.71" height="174.44" transform="translate(8122.06 1507.16) rotate(-180)"/><rect class="cls-7" x="3990.18" y="692.37" width="141.71" height="2.37" transform="translate(8122.06 1387.11) rotate(-180)"/><path class="cls-7" d="M4090,669.93h37.67v20.13H4090Zm37.2.47h-36.72v19.19h36.72Z"/><path class="cls-7" d="M4069.46,680a6.75,6.75,0,1,0-6.75,6.75A6.75,6.75,0,0,0,4069.46,680Z"/><path class="cls-7" d="M4051.22,680a5.5,5.5,0,1,0-5.5,5.51A5.5,5.5,0,0,0,4051.22,680Z"/><rect class="cls-7" x="4001.44" y="673.53" width="30.16" height="12.94" transform="translate(8033.04 1359.99) rotate(-180)"/><circle class="cls-7" cx="4062.71" cy="759.56" r="52.5"/><circle class="cls-8" cx="4062.71" cy="759.56" r="42.22" transform="translate(3103.58 4779.84) rotate(-87.17)"/><rect class="cls-7" x="4014.82" y="752.47" width="15.61" height="18.45" rx="4.7" transform="translate(8045.25 1523.38) rotate(180)"/><rect class="cls-2" x="3634.49" y="664" width="157.34" height="176.51" transform="translate(7426.31 1504.5) rotate(-180)"/><rect class="cls-7" x="3634.49" y="718.14" width="157.34" height="2.09" transform="translate(7426.31 1438.37) rotate(-180)"/><rect class="cls-7" x="3697.8" y="670.03" width="28.53" height="3.5" rx="1.05" transform="translate(7424.13 1343.55) rotate(-180)"/><rect class="cls-7" x="3634.49" y="782.2" width="157.34" height="2.09" transform="translate(7426.31 1566.49) rotate(-180)"/><rect class="cls-7" x="3697.8" y="724.55" width="28.53" height="3.5" rx="1.05" transform="translate(7424.13 1452.6) rotate(180)"/><rect class="cls-7" x="3697.8" y="791.46" width="28.53" height="3.5" rx="1.05" transform="translate(7424.13 1586.42) rotate(-180)"/><rect class="cls-8" x="3625.8" y="654.79" width="175.82" height="11.57" transform="translate(7427.43 1321.15) rotate(-180)"/><path class="cls-8" d="M3721.42,629.59h0a3.52,3.52,0,0,0,3.51-3.52v-32a3.52,3.52,0,0,0-3.51-3.52h0a3.52,3.52,0,0,0-3.51,3.52v32A3.52,3.52,0,0,0,3721.42,629.59Z"/><path class="cls-9" d="M3740,612.13s-8.49-3.19-11.35-1.25.88,8,3.16,8.36,8.88-.59,8.88-.59Z"/><path class="cls-10" d="M3738.67,616.2c-1.33-3.64-.21-5.45-.21-5.45s31.26-6,34.18-8,29.28-38.51,29.28-38.51l41.44,3.86s-51.69,43.42-59.17,48.19c-12.36,7.88-42.23,3.39-42.23,3.39A5.53,5.53,0,0,1,3738.67,616.2Z"/><rect class="cls-11" x="3730.04" y="605.26" width="3.76" height="19.91" transform="translate(461.3 2514.88) rotate(-39.51)"/><path class="cls-11" d="M3723.84,600.91h0c.81,1.27,1.11,2.91.06,4-1.4,1.44-3.07.88-4.31-.63,0,0-.32-.38-.33-.39-.43-.53-1.58.62-1.5,1.3a5.42,5.42,0,1,0,7.52-5.58C3724.54,599.29,3723.4,600.23,3723.84,600.91Z"/><path class="cls-11" d="M3739.74,630.06v0c-.8-1.27-1.1-2.9-.05-4,1.39-1.44,3.07-.88,4.31.62,0,0,.32.39.33.39.42.53,1.58-.61,1.5-1.29a5.36,5.36,0,0,0-1.67-3.34,5.42,5.42,0,1,0-5.85,8.92C3739,631.68,3740.19,630.74,3739.74,630.06Z"/><path class="cls-9" d="M3728.69,610.88s4.94-.15,5.1,2.3.54,6.21-1.94,6.06S3722.4,613.48,3728.69,610.88Z"/><path class="cls-12" d="M3711.4,615.74s-31.18-28.39-43.25-12.49c-3.14,4.15,3.69,9.08,8.61,9.84C3685.55,614.45,3700.09,609.9,3711.4,615.74Z"/><path class="cls-2" d="M3661.39,629.59c0,10.8,11.67,20.23,29,25.24h56.94c17.32-5,29-14.44,29-25.24Z"/><path class="cls-13" d="M3658.55,629.59h120.61a2.54,2.54,0,0,0,2.53-2.53h0a2.54,2.54,0,0,0-2.53-2.53H3658.55a2.54,2.54,0,0,0-2.53,2.53h0A2.54,2.54,0,0,0,3658.55,629.59Z"/><path class="cls-12" d="M3698.32,634.66s-2.09,11.77,3.66,15,10.28-3.61,5.24-6.68S3700.17,640,3698.32,634.66Z"/><path class="cls-12" d="M3697.89,624.53s-15.85,2.11-22.09,14-11.18,28.53,1.56,31.09,18.64-4,14.68-18.9C3686.46,629.59,3697.89,624.53,3697.89,624.53Z"/><path class="cls-14" d="M3925.69,814.62s5.59,5.17,4.5,8.85-6.13,6.13-6.81,10.62S3920,841,3917.52,841h-11.68s-1.8-3.16,2.55-4.11,6-6.23,5.73-11.13a88,88,0,0,1,.41-11.44l9.26-2.18Z"/><path class="cls-14" d="M3857.21,827.85s1.3,11.77-1.15,13h-31.61s-.06-3.75,5-4.56,13.89-3.82,15.39-10.49S3857.21,827.85,3857.21,827.85Z"/><path class="cls-4" d="M3830.73,660.52s1.65,20.64,3.59,45.45c2.65,33.7,5.83,75.1,6.14,82.94.54,13.62,2.72,35.4,2.72,35.4s5.18,5.18,15.53,3c0,0,9.22-31.1,11.85-64,.05-.54.09-1.08.13-1.63,2.45-33.49,6.26-104,6.26-104Z"/><path class="cls-14" d="M3830.73,660.52s1.65,20.64,3.59,45.45l36.24,57.34c.05-.54.09-1.08.13-1.63,2.45-33.49,6.26-104,6.26-104Z"/><path class="cls-4" d="M3838.28,663s1.54,3.85,4.13,10.2c6.06,14.79,17.91,43.23,29.64,68.42,5.44,11.68,10.85,22.66,15.66,31.26,19.6,35.14,25.73,44.94,25.73,44.94s.29-.11.76-.32c2-.85,7.67-3.34,10.24-5.63a4.17,4.17,0,0,0,1.25-1.61s-7.49-67.81-20.62-84.35c-7.42-9.34-16.14-37.37-16.55-47.17-.18-4.33-.72-10.51-1.26-16.08-.49-5-1-9.56-1.24-11.74-.1-.89-.15-1.39-.15-1.39l-34.43,9.75Z"/><path class="cls-14" d="M3845.29,672.58a139.61,139.61,0,0,0,31.1-4.68c5.31-1.3,8.82-4,10.87-5.28-.49-5-1-9.56-1.24-11.74L3872.18,658Z"/><path class="cls-9" d="M3825.14,545.29s-12.16,21.4-24,24.2a35.9,35.9,0,0,1,2.27-9.86,4.34,4.34,0,0,0-.66-4.4l-1.35-1.68a70.73,70.73,0,0,1-4.42-6.19l4-10.85,2.74-7.36a34.66,34.66,0,0,0,4.28,6.17C3815.78,544.28,3825.14,545.29,3825.14,545.29Z"/><path class="cls-15" d="M3808,535.32s1.45,10.72-6.64,18.23a70.73,70.73,0,0,1-4.42-6.19l4-10.85A22.84,22.84,0,0,1,3808,535.32Z"/><path class="cls-9" d="M3793.73,548.94s18.17-7.08,13.59-18.34-5.33-19.74-17.14-15.69-12.29,9.25-11.67,13.38S3788.88,550.5,3793.73,548.94Z"/><path class="cls-5" d="M3804.12,596.6a111.92,111.92,0,0,0,7.6,17.07c.6,1.1,1.18,2.17,1.73,3.24.37.71.72,1.42,1.07,2.12a113.28,113.28,0,0,1,11,34.07c.25,1.75.45,3.41.58,5,.6,6.68,63.07-15.08,61.06-24.42-1.33-6.15-3.14-12.62-4.84-18.13-2.48-8.07-4.69-14.09-4.69-14.09-11.69-27.81-28.28-42.78-41.2-50.69-2.34-1.44-4.55-2.64-6.61-3.64a55.82,55.82,0,0,0-13.19-4.81S3814,555.66,3802.51,561c0,0-1.79,7.25-1.8,7.28C3798.79,575.11,3800.32,585.62,3804.12,596.6Z"/><path class="cls-16" d="M3809.93,509.7c.12-.25.49-.52,1.4-.79a3.72,3.72,0,0,0-1.83-.07c-.51-1.25-1.76-3.37-4.08-3.38a2.83,2.83,0,0,1,1.82,1.68c-3.18-2-9.1-2.61-23.85,2.31-19.45,6.47-9.73,17.76-6.78,18.67s8.37-4.91,13.25-5.7,7.52,6,9.38,6.57.8-1,2.75-2.53,3.07,2.09,3,4.65,3.75,5,3.75,5L3811,532c2.23-4.09,1.62-18.92-.51-21.59Z"/><path class="cls-10" d="M3842.64,586.44s-2.09,15.84-9.17,27.82-10.2-6.66-10.2-6.66Z"/><path class="cls-4" d="M3814.52,619a113.28,113.28,0,0,1,11,34.07c.25,1.75.45,3.41.58,5a78.29,78.29,0,0,1,0,14.39c-.65,7.3,54.18-6.79,61.51-17.33,4-5.81-1-25.74-5.3-39.61-.71.17-34.7,8.26-58.22-12.77Z"/><path class="cls-14" d="M3810.36,581.39l3.38-6.76c0-.11-.37-11.92,6.71-18.84,3.82-3.74,9.2-5.43,16-5-2.34-1.44-4.55-2.64-6.61-3.64a21.54,21.54,0,0,0-12.14,5.89C3809.36,561.16,3810.33,580.84,3810.36,581.39Z"/><path class="cls-9" d="M3763.6,627.89s-10.66-1.91-12.43-1.7-7.86,3.09-7.91,3.6.25.9,1.33.92,4.58-.6,4.38-.16-10.28,2.92-10.3,5,5.74,5.59,10.46,5.62,13.72-5.88,14.51-6C3770.35,634.26,3763.6,627.89,3763.6,627.89Z"/><path class="cls-17" d="M3761.6,632.24c-.21-2.11,2-4.35,2-4.35s31.65-8.71,34.27-11.35,14.75-44.73,14.75-44.73,4.17-17,14-18.91c8.5-1.63,14.37,2.58,18.21,7.51a18.11,18.11,0,0,1,1.23,20.37c-8.53,14.38-25.74,42.91-30.76,47.79-11.19,10.85-51.6,8.61-51.6,8.61S3762,636.46,3761.6,632.24Z"/><path class="cls-18" d="M3558.18,840.5s6.72-10.63,25.78-8.39,32.65,12.49,78.13,1,41.37,9.08,67.27,4.66,37.27,2.68,37.27,2.68Z"/><rect class="cls-19" x="0.84" y="843.3" width="4280.72" height="1.68" rx="0.84"/><rect class="cls-20" width="4281.57" height="843.3"/></g></g></svg>