<svg id="Layer_1" data-name="Layer 1" xmlns="http://www.w3.org/2000/svg" viewBox="0 0 627.76 627.76"><defs><style>.cls-1{fill:#231f20;}.cls-2{fill:#be1e2d;}</style></defs><path class="cls-1" d="M313.88,25A289,289,0,0,1,426.32,580.07,289,289,0,0,1,201.44,47.69,287,287,0,0,1,313.88,25m0-25C140.53,0,0,140.53,0,313.88S140.53,627.76,313.88,627.76,627.76,487.23,627.76,313.88,487.23,0,313.88,0Z"/><path class="cls-2" d="M492.33,443.62c-3.23,3.5-6.66,6.81-10.11,10.11a11.79,11.79,0,0,1-2.9,1.54c-.17-.26-.33-.53-.49-.79L493.22,442l-1.67-2.28a5.77,5.77,0,0,0-.71-1.12q-36-36.08-72.11-72.09c-1-1-2.66-1.32-4-1.94-2.08-.93-4.48-1.46-6.19-2.84-3-2.41-5.49-5.37-8.24-8.06-6.77-6.64-13.56-13.25-20.6-20.12l71.25-73.83,78.53,78.92,3.47-3.79-78.58-78.34c2.55-1.19,4.63-2.68,6.92-3.13,6-1.17,12.11-1.76,18.12-2.86,2.49-.45,5.44-1,7.15-2.57,6.71-6.28,7.71-23.29,2.06-30.53-.83-1.07-2.41-1.54-3.93-2.45-1.57,4.41-3.11,8.24-4.28,12.19-1.12,3.78-2.77,4.75-6.69,3.09-8.29-3.49-16.82-6.44-26.15-9.95-.89,8.92-1.73,17.24-2.56,25.57l-1.71.37-38.59-40.18c-3.7,2.25-5,4-2,6.88,3.62,3.5,6.81,7.29,10.81,10.6,10,8.26,18.79,18,28.32,27.45l-72.35,70.65-75.71-75.52c3.3-2.71,7.49-4,11.4-2.25a100.56,100.56,0,0,1,17.37,9.94c3.56,2.57,5.68,3.08,8.89-.29,8-8.35,16.27-16.35,24.37-24.56,3.15-3.2,5.76-7,9.2-9.82,9.47-7.74,16.42-16.9,19-29.1.5-2.34,2-4.46,3.17-7.05-6.45-4.23-10.48,2.08-15.85,4.56,1.11-5.3,3.46-8.79,9.16-9.35-2.86-6.31-7.7-7.85-14.2-6.87l1.58-2.83-2.94-.87V158l-14.1,7.47-.46-.94,6.47-7.93-.8-.56-6.93,2.63c2.58-9.41,1.63-13-3.14-15.84-2.35,1.77-4.21,3.73-6.48,4.76-3.34,1.5-7.18,1.92-10.44,3.54a116.73,116.73,0,0,0-16.16,9.36c-3.89,2.81-7,6.74-10.42,10.19-9.12,9.14-18.14,18.4-27.41,27.39-3,2.9-3,4.91-.35,8.12a76,76,0,0,1,9.43,14.07c2.5,5,2.74,10.52-1.6,16l-46.13-46.82-13.31,14c15.05,15,30.47,30.34,46,45.85l-3.38,3.21q-37.53,35.86-75,71.72Q127,385.2,63.5,446.23a51.3,51.3,0,0,0-9.43,13.4c-2.51,4.87-.8,9.62,3.21,13.34s9,4.45,13.67,2a45.47,45.47,0,0,0,11.14-8c8.11-8,15.81-16.36,23.67-24.59L274.29,265.94c2-2.06,3.9-4.14,5.68-6a10.3,10.3,0,0,1,1.1.61Q338.85,318.23,396.59,376c.78.78,1.68,2.13,1.52,3.05-.65,3.75,1.38,6.06,3.74,8.41,18.52,18.44,37.08,36.86,55.49,55.42,8.17,8.23,17.17,15.79,22.64,26.41,1.29,2.51,3.43,4.59,4.95,6.57l24.64-24.25c-4.05-2.86-8-5.7-12-8.51C495.66,441.75,494.06,441.75,492.33,443.62ZM454,225.71l15.8,5.94c-1.52,4.07-2.83,7.6-4.34,11.63l-16-5.8C451,233.45,452.42,229.82,454,225.71ZM64.37,471.11c-2.11-2.73-4.34-4.38-4.17-5.73A6.12,6.12,0,0,1,64,461c1.16-.25,4,2.2,4.13,3.57C68.23,466.28,66.23,468.1,64.37,471.11ZM187.1,352.17q-37.29,38.65-74.6,77.29c-9.39,9.73-18.74,19.5-28.22,29.15-1,1-2.7,1.26-4.07,1.86.47-1.51.5-3.45,1.48-4.47q51.42-53.53,103.05-106.87a10.55,10.55,0,0,1,3.73-2c.18-.07.83,1.06,1.42,1.83C188.87,350.13,188,351.2,187.1,352.17ZM334,156.15c3.64-.09,7.24-1.19,11.74-2l-4.61,8.38v11.75l18.37-8V177l12.26-2.08c.2.42.4.83.61,1.25-5.51,5.41-6.67,11.77-4.83,19L378.22,190c-2,14.05-10.15,22.51-18.8,30.45L309,169.65C314.27,160.17,323.07,156.44,334,156.15Zm-53.78,41.33,6.4-6.49,51.09,51.65-6.42,6.27Zm139,180.68c-.65-.65-1.57-1.2-1.87-2a12.29,12.29,0,0,1-.37-3.3,11.42,11.42,0,0,1,3.31.05c.79.25,1.38,1.17,2,1.82q30.3,30.27,60.57,60.57c1.17,1.16,2.22,2.44,3.41,3.77-.53.87-.77,1.79-1.31,2a3.11,3.11,0,0,1-2.45,0,13,13,0,0,1-2.75-2.41Q449.48,408.46,419.21,378.16Z"/><path class="cls-2" d="M364,480.8c3-4.72,5.5-9.7,8.47-15-5.75,0-10.68-.22-15.58.06s-9.09.29-10.14-5.77c0-.13-.44-.19-.23-.11-.31,2.14-.62,4.39-.94,6.63,1.08,2.93,2.66,5.66,3,8.55.66,5.32.5,10.73.87,16.09.66,9.63-3.63,17-10.73,22.82a122.34,122.34,0,0,1-11.4,7.77c-6.95,4.51-14.26,8.51-20.84,13.5C297,542.51,288.39,551,275.33,552a30,30,0,0,1,3,4.32c2,4.61,6.59,9.18.39,14.18-.73.58-.8,2.83-.3,3.9a22,22,0,0,0,4.08,6c3.53,3.55,4.45,7.42,3,12.19-.85,2.74-1.88,5.9-1.28,8.51a151.47,151.47,0,0,0,6.45,21.06c.65,1.67,4.14,3.28,6.18,3.12,3.26-.25,2.27-3.19,1.75-5.48-2.53-11.24-1.05-22,6-31.09a112.73,112.73,0,0,1,16.93-17.46c16.78-14,30.29-30.3,36.94-51.27,2.3-7.26,4.89-11.57,13.05-10,.12,0,.33-.4.67-.85-2.67-4.51-5.26-9.21-8.16-13.71C360.81,490.47,360.82,485.81,364,480.8Z"/><path class="cls-2" d="M195.1,483.42q-9.6-16.26-19.12-32.58c-2.12-3.62-5.1-5.57-9.39-5.53-12.76.11-25.52,0-38.27.37-2.66.09-6.24,1.28-7.7,3.23C116.83,454,114,459.79,110,466.61h6.53c8.46,0,16.91-.14,25.37-.1,7.44,0,11.47,4,11.57,11.34.1,7.54.1,15.07.05,22.6,0,7.25-4.16,11.37-11.48,11.45-8.61.1-17.22.07-25.83.14-1.58,0-3.17.26-5.67.49,3.71,6.15,6.54,11.79,10.34,16.7,1.6,2.07,5.18,3.57,7.91,3.65,12.44.34,24.9.14,37.35,0,4,0,7.65-1.16,9.81-4.93q9.81-17.21,19.54-34.47C197.35,490.16,197.07,486.75,195.1,483.42Zm-2.56,7.35c-1-.27-2.41-.65-2.92-1.46-3.1-4.92-6-10-9-15-4-6.72-8-13.41-11.85-20.2-.61-1.09-.35-2.68-.49-4,1.26.7,3,1.08,3.68,2.15,6.92,11.37,13.67,22.86,20.45,34.32.46.78.85,1.6,1.41,2.66C193.4,489.78,192.82,490.84,192.54,490.77Z"/><path class="cls-2" d="M418.4,510.3c-6.32-.05-10.48-3.94-10.67-10.26q-.37-12.21-.14-24.45c.12-6.29,4.13-10.22,10.49-10.59,3.22-.19,6.46-.08,9.69-.08h21.51l.78-1.47c-3.35-5.46-6.34-11.19-10.23-16.23-1.51-2-5-3.21-7.67-3.26-12.45-.24-24.92.1-37.37.15-5,0-8.35,2.19-10.75,6.55q-8.55,15.54-17.49,30.88c-2.72,4.65-2.55,8.87.19,13.4,6,10,12,20,17.74,30.2,2.55,4.54,6,6.64,11.17,6.51,8.92-.21,17.84-.21,26.76-.27,18.58-.11,15.72,1.55,25.12-15,1-1.73,1.66-3.63,2.78-6.11C439,510.32,428.69,510.38,418.4,510.3Zm-26,18.76c-1.1-.5-2.72-.68-3.24-1.54q-10.83-17.89-21.33-36c-.52-.89-.07-2.35-.07-3.55l1.4-.3a18.09,18.09,0,0,1,2.25,2.57q10.52,17.55,20.85,35.21C392.79,526.36,392.37,527.84,392.39,529.06Z"/><path class="cls-2" d="M321.8,495.64c-6.19-7.71-11-15.24-2-24.13-8.82-1.31-17-2.91-22-11.8-.47,4.23-1.11,7.56-1.13,10.89s.63,6.72.88,10.09a31.79,31.79,0,0,1,0,5.07c-.67,7.72-10.77,14.84-18.26,12.93-5.26-1.34-8.76-6.25-9.45-13.39-.41-4.25-.72-8.5-1.08-12.75a35.86,35.86,0,0,0-.11,11.69c.76,5.72.21,11.09-3.72,15.6-3.56,4.1-8.12,5.32-13.35,4-5-1.32-8.61-4.3-9.53-9.52s-1.29-10.4-1.9-15.6a9.63,9.63,0,0,0-.73,4.62c.63,4.85-2.14,6.66-6.27,7.25-5.75.82-10.16-1.66-13.67-6-4.14-5.09-5.58-11.11-5.49-17.58H188.24c3,5.18,5.6,9.89,8.49,14.38,3.28,5.1,3.26,9.91,0,15-2.9,4.57-5.37,9.42-8.43,14.85h49.41l-7.51,5.15C240.52,518.9,250.87,521,261,524c3.75,1.12,5.6,1.16,8.34-2,13.08-14.93,29.3-24,49.49-25.22A11.5,11.5,0,0,0,321.8,495.64Zm-77.65,12.17c-14.72,0-29.43,0-44.15-.08-1,0-2.07-1.2-3.1-1.84,1-.69,2-2,3.06-2,13.5-.2,27-.29,40.5-.16,1.42,0,2.83,1.6,4.25,2.45C244.52,506.72,244.33,507.27,244.15,507.81Z"/><path class="cls-2" d="M203.74,202.79c2.79-3.4,5.79-4.23,9.52-1.52,2.43,1.75,4.44,1,6.45-1.07,4.59-4.76,9.19-9.52,14.1-13.93,3.13-2.81,3.64-5.5,1.26-8.8-2.1-2.9-1.54-5.3.9-7.73,8-8,17-14.08,27.94-17.17,1.35-.38,2.68-.88,5-1.65-9.47-4.19-18-5.31-27-2.9-26.08,7-45.21,24.56-63.48,41.34l19,20.27C199.59,207.3,201.79,205.15,203.74,202.79Z"/><path class="cls-2" d="M289.78,409c6.76.1,13.53.11,20.29,0,2.88-.07,5-1.31,5-4.76-.06-8,0-16,0-24,0-3.47-1.65-5-5.11-5q-10.14.13-20.28.05c-3.55,0-5,1.73-4.95,5.11.05,3.69,0,7.38,0,11.06h0c0,4,.13,8,0,12C284.47,407.26,286.33,409,289.78,409Z"/><path class="cls-2" d="M252.37,409q10.61.21,21.2,0c2.77-.06,4.6-1.53,4.59-4.64,0-8.15,0-16.29,0-24.44,0-2.95-1.48-4.54-4.56-4.53-7.07,0-14.14,0-21.21,0-3,0-4.52,1.6-4.54,4.56,0,4,0,8,0,12h0c0,4,.07,8,0,12C247.71,407.12,249.28,408.93,252.37,409Z"/><path class="cls-2" d="M253.25,368.37c6.6.06,13.2,0,19.81,0,3.57,0,5.29-1.86,5.17-5.51s0-7.37,0-11.06c0-4,0-8,0-12,0-3.32-1.33-5.19-4.93-5.14-6.76.08-13.52,0-20.27,0-3.67,0-5.26,1.81-5.23,5.43.06,7.52.13,15.05,0,22.57C247.66,366.68,249.58,368.34,253.25,368.37Z"/><path class="cls-2" d="M289.81,368.32c6.76.1,13.52.14,20.28,0,3.25,0,5-1.67,5-5.21q-.17-11.52,0-23c.05-3.65-1.45-5.45-5.15-5.42-6.76,0-13.52.05-20.28,0-3.53,0-5,1.76-5,5.13,0,4,0,8,0,12,0,3.69.14,7.38,0,11.06S286.34,368.27,289.81,368.32Z"/><path class="cls-2" d="M176.34,226.74a16.22,16.22,0,0,0,3.62,2.09c1.29-.44,2.37-.5,2.95-1.06,3.75-3.63,7.66-7.15,10.87-11.22.88-1.12.26-4.66-.91-6-5.15-5.68-10.74-11-16.19-16.36-2.56-2.53-5.13-2.34-7.62.15-2.83,2.81-5.64,5.65-8.48,8.45s-2.76,5.55.08,8.34C165.9,216.35,171.05,221.62,176.34,226.74Z"/><path class="cls-2" d="M568.68,360.17c-.44-.42-.83-.9-1.26-1.35L547.54,338c-2.33,2.5-3.73,4.12-5.24,5.62-3.06,3-6.18,6-9.51,9.2l22.07,22.41c6.8,6.9,6.89,7,13.78,0C575.83,367.93,578,369,568.68,360.17Zm-1.89,7.31c.86,5.45-.56,6.68-5.7,4.87.17,1.53.33,3,.49,4.57-1.59-.47-3.62-.48-4.7-1.5q-8.68-8.19-16.91-16.86c-1.15-1.22-1.42-3.28-2.1-5l5.11.22-.42-5.18,5.53.56c-.14-1.76-.29-3.51-.43-5.27,1.59.58,3.57.75,4.7,1.83,5.9,5.6,11.63,11.38,17.28,17.24.91.95,1.09,2.61,1.6,3.94Z"/><path class="cls-2" d="M221.2,451.5c13.31-3,16.87-2,20.47,5.68,11.49-11.61,18.69-12.74,28.2-4.54,7-7.57,15.11-7.08,24.06-2.11-3-5.12-8.9-9-13.44-7.06-7.81,3.39-15.09,2.38-22.92,1-6.15-1-10.94,2.93-15,7C233.84,446.24,227.17,446.29,221.2,451.5Z"/><path class="cls-2" d="M463.67,346.82c2.34-.16,3.13-1,3.32-3.28,1-12.55,1-12.64-11.63-12.38-.61,0-1.22.12-2.71.28v5.22C452.65,347.64,452.64,347.57,463.67,346.82Z"/><path class="cls-2" d="M452.66,326.85c14.27,1.62,15.27.74,14.3-11.86,0-.31.1-.78-.06-.9-1.16-.85-2.41-2.37-3.56-2.31a92,92,0,0,0-10.62,1.6c-.07,0-.05.57-.05.88C452.66,318.37,452.66,322.49,452.66,326.85Z"/><path class="cls-2" d="M232,551.16c-6.89.29-13.59-.1-18.51-5.75v33.76c3.58-2.76,2.84-6.07,2.25-9.32-1.38-7.49,1.45-13.27,8.7-15.52a35.56,35.56,0,0,1,13.08-1.26c7.6.61,15.12,2.06,23.85,3.33A66.54,66.54,0,0,0,232,551.16Z"/><path class="cls-2" d="M436.81,346.63a71.35,71.35,0,0,0,10.13,0c.74-.06,1.82-1.5,2-2.44,2-11.87.71-13.37-11.28-13-.6,0-1.21.11-2.68.25,0,4.55-.09,8.82.08,13.07A2.91,2.91,0,0,0,436.81,346.63Z"/><path class="cls-2" d="M446.46,327.13a3.53,3.53,0,0,0,2.4-2.43,91.42,91.42,0,0,0,.07-10.6c0-.77-.72-2.16-1.16-2.18-3.83-.18-7.67-.19-11.49,0-.48,0-1.27,1.33-1.29,2.06-.13,4.25-.06,8.5-.06,13.29C439.16,327.25,442.83,327.41,446.46,327.13Z"/><path class="cls-2" d="M545,338.33c1.78-1.7,2.23-3.15.21-5-1.75-1.59-3.22-3.4-5.71-.9-4.88,4.9-9.89,9.65-15,14.57,4,6.76,4.68,6.9,9.32,2.33C537.56,345.7,541.19,341.94,545,338.33Z"/><path class="cls-2" d="M470,206.84c-7.51.23-15.4,6.7-17,13.65l10.59,4C465.68,218.58,467.76,212.88,470,206.84Z"/><path class="cls-2" d="M320.43,454.24c4.07-.44,8.1-1.32,12.18-2-6.1-2.16-14,2.66-19.16-4.37a47.66,47.66,0,0,0,3.68,4.54C318,453.25,319.39,454.35,320.43,454.24Z"/><path class="cls-2" d="M455.35,237.44l1,1c5.64-2,7.82-4.95,5.55-8.12Z"/></svg>