<svg id="Layer_1" data-name="Layer 1" xmlns="http://www.w3.org/2000/svg" xmlns:xlink="http://www.w3.org/1999/xlink" viewBox="0 0 1048.01 469.28"><defs><style>.cls-1{fill:url(#linear-gradient);}.cls-2{fill:#dee9f7;}.cls-3{fill:#98b1dc;}.cls-12,.cls-4{fill:#fff;}.cls-4{opacity:0.57;}.cls-5{fill:#c0cfeb;}.cls-6{fill:#8193ca;}.cls-7{fill:url(#linear-gradient-2);}.cls-8{fill:url(#linear-gradient-3);}.cls-9{clip-path:url(#clip-path);}.cls-10{fill:#a0aed9;}.cls-11{fill:url(#linear-gradient-5);}.cls-13{fill:url(#linear-gradient-6);}.cls-14{fill:url(#linear-gradient-7);}.cls-15{fill:#1e3966;}.cls-16{fill:#447bbf;}.cls-17{fill:#d63044;}.cls-18{fill:url(#linear-gradient-8);}.cls-19{fill:url(#linear-gradient-9);}.cls-20{fill:url(#linear-gradient-10);}.cls-21{fill:url(#linear-gradient-11);}.cls-22{fill:url(#linear-gradient-12);}.cls-23{fill:url(#linear-gradient-13);}.cls-24{fill:url(#linear-gradient-14);}.cls-25{fill:url(#linear-gradient-15);}.cls-26{fill:url(#linear-gradient-16);}.cls-27{fill:url(#linear-gradient-17);}.cls-28{fill:url(#linear-gradient-18);}.cls-29{fill:url(#linear-gradient-19);}.cls-30{fill:url(#linear-gradient-20);}.cls-31{fill:url(#linear-gradient-21);}.cls-32{fill:url(#linear-gradient-22);}.cls-33{fill:url(#linear-gradient-23);}.cls-34{fill:url(#linear-gradient-24);}.cls-35{fill:url(#linear-gradient-25);}.cls-36{fill:url(#linear-gradient-26);}.cls-37{fill:url(#linear-gradient-27);}.cls-38{fill:url(#linear-gradient-28);}.cls-39{fill:url(#linear-gradient-29);}.cls-40{fill:url(#linear-gradient-30);}.cls-41{fill:url(#linear-gradient-31);}.cls-42{fill:url(#linear-gradient-32);}.cls-43{fill:url(#linear-gradient-33);}.cls-44{fill:url(#linear-gradient-34);}.cls-45{fill:url(#linear-gradient-35);}.cls-46{fill:url(#linear-gradient-36);}.cls-47{fill:#243962;}</style><linearGradient id="linear-gradient" x1="331.67" y1="306.41" x2="519.53" y2="306.41" gradientUnits="userSpaceOnUse"><stop offset="0" stop-color="#5560ab"/><stop offset="1" stop-color="#4c57a6"/></linearGradient><linearGradient id="linear-gradient-2" x1="-4787.25" y1="140.61" x2="-4805.48" y2="227.75" gradientTransform="matrix(-1, 0, 0, 1, -4395.81, 0)" xlink:href="#linear-gradient"/><linearGradient id="linear-gradient-3" x1="628.85" y1="278.21" x2="715.21" y2="42.81" xlink:href="#linear-gradient"/><clipPath id="clip-path"><path class="cls-1" d="M337.18,353H463.74l55.79-93.09H364.28l-32.09,85.28A5.5,5.5,0,0,0,337.18,353Z"/></clipPath><linearGradient id="linear-gradient-5" x1="512.23" y1="605.27" x2="516.41" y2="477.13" xlink:href="#linear-gradient"/><linearGradient id="linear-gradient-6" x1="18167.23" y1="94.63" x2="18172.34" y2="94.63" gradientTransform="matrix(-1, 0.01, 0.01, 1, 18623.06, -24.47)" gradientUnits="userSpaceOnUse"><stop offset="0" stop-color="#f9baba"/><stop offset="1" stop-color="#f5928f"/></linearGradient><linearGradient id="linear-gradient-7" x1="18148.81" y1="94.37" x2="18153.23" y2="94.37" xlink:href="#linear-gradient-6"/><linearGradient id="linear-gradient-8" x1="18131.14" y1="-1.71" x2="18164.17" y2="-1.71" xlink:href="#linear-gradient-6"/><linearGradient id="linear-gradient-9" x1="18156.51" y1="-37.03" x2="18169.57" y2="-37.03" xlink:href="#linear-gradient-6"/><linearGradient id="linear-gradient-10" x1="-1693.74" y1="3275.75" x2="-1708.66" y2="3295.49" gradientTransform="matrix(-0.92, -0.4, -0.4, 0.92, 197.64, -3581.55)" xlink:href="#linear-gradient-6"/><linearGradient id="linear-gradient-11" x1="2394.53" y1="1372.64" x2="2376.63" y2="1411.91" gradientTransform="matrix(-0.91, 0.41, 0.41, 0.91, 2042.27, -2158.78)" gradientUnits="userSpaceOnUse"><stop offset="0" stop-color="#201b59"/><stop offset="1" stop-color="#2d2d84"/></linearGradient><linearGradient id="linear-gradient-12" x1="-1715.6" y1="3291.38" x2="-1703.63" y2="3279.1" gradientTransform="matrix(-0.92, -0.4, -0.4, 0.92, 197.64, -3581.55)" xlink:href="#linear-gradient-6"/><linearGradient id="linear-gradient-13" x1="471.69" y1="66.82" x2="464.49" y2="77.97" gradientUnits="userSpaceOnUse"><stop offset="0" stop-color="#f5928f"/><stop offset="1" stop-color="#f37064"/></linearGradient><linearGradient id="linear-gradient-14" x1="-3959.99" y1="625.62" x2="-3940.8" y2="637.08" gradientTransform="matrix(-1, -0.1, -0.1, 1, -3421.18, -925.2)" xlink:href="#linear-gradient-13"/><linearGradient id="linear-gradient-15" x1="527.65" y1="59.24" x2="498.17" y2="73.63" gradientUnits="userSpaceOnUse"><stop offset="0" stop-color="#e1483d"/><stop offset="1" stop-color="#e9625a"/></linearGradient><linearGradient id="linear-gradient-16" x1="651.66" y1="45.83" x2="576.45" y2="83.44" xlink:href="#linear-gradient"/><linearGradient id="linear-gradient-17" x1="417.1" y1="131.01" x2="494.4" y2="30.73" xlink:href="#linear-gradient"/><linearGradient id="linear-gradient-18" x1="410.67" y1="38.79" x2="384.2" y2="102.85" xlink:href="#linear-gradient"/><linearGradient id="linear-gradient-19" x1="17882.94" y1="145.16" x2="17893.27" y2="145.16" gradientTransform="matrix(-1, 0, 0, 1, 18345.44, 0)" xlink:href="#linear-gradient-6"/><linearGradient id="linear-gradient-20" x1="-6349.46" y1="445.52" x2="-6442.8" y2="547.05" gradientTransform="matrix(-1, 0, 0, 1, -5723.19, 0)" xlink:href="#linear-gradient-11"/><linearGradient id="linear-gradient-21" x1="-6379.75" y1="453.06" x2="-6371.46" y2="453.06" gradientTransform="matrix(-1, 0, 0, 1, -5723.19, 0)" xlink:href="#linear-gradient-6"/><linearGradient id="linear-gradient-22" x1="-6370.4" y1="426.27" x2="-6463.74" y2="527.8" gradientTransform="matrix(-1, 0, 0, 1, -5723.19, 0)" xlink:href="#linear-gradient-11"/><linearGradient id="linear-gradient-23" x1="-6409.63" y1="452.63" x2="-6402.48" y2="452.63" gradientTransform="matrix(-1, 0, 0, 1, -5723.19, 0)" xlink:href="#linear-gradient-6"/><linearGradient id="linear-gradient-24" x1="-6338.69" y1="236.76" x2="-6296.33" y2="236.76" gradientTransform="matrix(-1, 0, 0, 1, -5723.19, 0)" gradientUnits="userSpaceOnUse"><stop offset="0" stop-color="#a22d25"/><stop offset="1" stop-color="#c1423d"/></linearGradient><linearGradient id="linear-gradient-25" x1="589.49" y1="88.95" x2="586.01" y2="122.37" gradientTransform="matrix(1, 0, 0, 1, 0, 0)" xlink:href="#linear-gradient-24"/><linearGradient id="linear-gradient-26" x1="580.73" y1="103.33" x2="578.41" y2="273.25" gradientTransform="matrix(1, 0, 0, 1, 0, 0)" xlink:href="#linear-gradient-24"/><linearGradient id="linear-gradient-27" x1="-6427.7" y1="296.76" x2="-6374.1" y2="296.76" xlink:href="#linear-gradient-24"/><linearGradient id="linear-gradient-28" x1="657.72" y1="221.32" x2="670.26" y2="268.67" gradientTransform="matrix(1, 0, 0, 1, 0, 0)" xlink:href="#linear-gradient-24"/><linearGradient id="linear-gradient-29" x1="-11034.34" y1="-4189.15" x2="-11040.6" y2="-4169.42" gradientTransform="matrix(-0.75, -0.67, -0.67, 0.75, -10460.48, -3786.2)" xlink:href="#linear-gradient-24"/><linearGradient id="linear-gradient-30" x1="-10967.1" y1="-4449.52" x2="-10960.48" y2="-4411.73" gradientTransform="matrix(-0.75, -0.67, -0.67, 0.75, -10460.48, -3786.2)" xlink:href="#linear-gradient-11"/><linearGradient id="linear-gradient-31" x1="-11042.45" y1="-4191.73" x2="-11048.72" y2="-4172" gradientTransform="matrix(-0.75, -0.67, -0.67, 0.75, -10460.48, -3786.2)" xlink:href="#linear-gradient-24"/><linearGradient id="linear-gradient-32" x1="701.52" y1="153.16" x2="689.21" y2="171.96" xlink:href="#linear-gradient-13"/><linearGradient id="linear-gradient-33" x1="-5138.68" y1="-951.34" x2="-5106" y2="-931.83" gradientTransform="matrix(-0.91, -0.42, -0.42, 0.91, -4379.62, -1125.25)" xlink:href="#linear-gradient-13"/><linearGradient id="linear-gradient-34" x1="680.82" y1="153.11" x2="671.77" y2="180.5" xlink:href="#linear-gradient-15"/><linearGradient id="linear-gradient-35" x1="599.93" y1="290.12" x2="630.87" y2="290.12" gradientUnits="userSpaceOnUse"><stop offset="0" stop-color="#dbe2f3"/><stop offset="1" stop-color="#eaeff8"/></linearGradient><linearGradient id="linear-gradient-36" x1="-6383.39" y1="291.14" x2="-6366.69" y2="291.14" xlink:href="#linear-gradient-24"/></defs><path class="cls-2" d="M50.05,469.25c59,0,963,.07,963,0,33.11-33.57,42.87-113.73-28.85-191.14-26.28-28.35,43.42-82.72-1.82-169.94C965.21,75,896.53,18.06,715.3,62.27,638.23,81.06,572.84,51.05,558.37,40.21a161.4,161.4,0,0,0-26.66-16C432-24.09,259.64,6.65,184.42,64.66c-10.66,8.22-59.13,50.77-20.93,109.24,24.13,36.92-76.93,72.19-112.84,114.34C-40.66,395.43,49.22,467.86,50.05,469.25Z"/><path class="cls-3" d="M615.2,271.33c4.08-16.8,13.25-30.62,24.64-39.18A49.14,49.14,0,0,0,659,200.64c.21-1.32.48-2.65.8-4,4.9-20.21,21.23-33.6,36.46-29.9s23.62,23.07,18.72,43.28a48.32,48.32,0,0,1-4.34,11.45,49.41,49.41,0,0,0-4.34,36.11,72.48,72.48,0,0,1,.13,35.85c-4.55,18.79-15.48,33.85-28.76,42a48.27,48.27,0,0,0-13.06,11.73c-6,7.77-14.84,11.86-23.4,9.79-9.22-2.24-15.5-11-16.64-21.73a51.43,51.43,0,0,0-5.17-17.37C613,305,611.08,288.32,615.2,271.33Z"/><path class="cls-4" d="M685.67,187c-5.23,12.87-10,25.91-14.72,39-1.17,3.27-2.29,6.55-3.41,9.84l-1.7,4.93-1.65,4.94c-1.09,3.3-2.22,6.58-3.27,9.89l-3.15,9.93c-2,6.65-4.09,13.28-6,20-.95,3.34-2,6.66-2.85,10l-2.7,10.07c-3.46,13.45-6.59,27-9,40.69l.59.11L640,336.17l.55-2.54.61-2.53,1.23-5.05,1.22-5.06c.41-1.69.87-3.36,1.31-5,.88-3.35,1.74-6.71,2.65-10.06,3.72-13.36,7.62-26.68,11.79-39.91,2.13-6.6,4.21-13.22,6.39-19.81l1.62-4.94L669,236.3q1.65-4.94,3.35-9.85,3.35-9.87,6.82-19.67t7-19.6Z"/><path class="cls-5" d="M527.33,260.08c2-20.54,10.47-38.41,22.51-50.45a58.59,58.59,0,0,0,17.29-40.45c0-1.6.11-3.22.26-4.85,2.37-24.7,19.43-43.28,38.1-41.49s31.89,23.27,29.52,48a58.41,58.41,0,0,1-3.19,14.26,58.85,58.85,0,0,0,1,43.4,86.35,86.35,0,0,1,6.26,42.33c-2.2,23-12.58,42.6-26.92,54.47a57.49,57.49,0,0,0-13.47,16.07c-5.75,10.18-15.56,16.52-26,15.51-11.31-1.08-20.23-10.4-23.4-22.85a61.45,61.45,0,0,0-9.08-19.64C530.42,300.21,525.34,280.85,527.33,260.08Z"/><path class="cls-4" d="M596.43,148.5c-4,16.09-7.49,32.3-10.8,48.54-.83,4.06-1.6,8.13-2.38,12.21l-1.16,6.1L581,221.47c-.72,4.08-1.51,8.15-2.19,12.24l-2,12.26c-1.26,8.2-2.58,16.38-3.69,24.6-.56,4.11-1.2,8.2-1.67,12.32l-1.49,12.35c-1.81,16.49-3.21,33-3.77,49.6l.72,0,.89-12.38.21-3.1.3-3.09.59-6.18.59-6.18c.19-2.06.46-4.11.69-6.17.48-4.11.92-8.22,1.43-12.33,2.13-16.42,4.48-32.81,7.17-49.15,1.41-8.15,2.74-16.32,4.21-24.47L584,215.7l1.13-6.11c.75-4.07,1.5-8.14,2.3-12.2q2.26-12.21,4.73-24.39c1.6-8.12,3.28-16.24,5-24.34Z"/><path class="cls-6" d="M358,459.33h92.22a7.46,7.46,0,0,0,7.45-7.45V360a7.46,7.46,0,0,0-7.45-7.45H350.57v99.36A7.46,7.46,0,0,0,358,459.33Z"/><path class="cls-7" d="M337.18,353H463.74l55.79-93.09H364.28l-32.09,85.28A5.5,5.5,0,0,0,337.18,353Z"/><path class="cls-6" d="M686,461.11H594V351.05H696.08V451A10.12,10.12,0,0,1,686,461.11Z"/><path class="cls-8" d="M710.7,353H590.1l-67.43-93.09,162.21,2.61,30.57,82.89A5.33,5.33,0,0,1,710.7,353Z"/><path class="cls-1" d="M337.18,353H463.74l55.79-93.09H364.28l-32.09,85.28A5.5,5.5,0,0,0,337.18,353Z"/><g class="cls-9"><rect class="cls-10" x="333.85" y="347.71" width="99.17" height="5.26" transform="translate(766.87 700.69) rotate(180)"/><rect class="cls-10" x="337.46" y="338.93" width="95.56" height="5.26" transform="translate(770.48 683.12) rotate(180)"/><rect class="cls-10" x="340.49" y="329.59" width="92.53" height="5.26" transform="translate(773.51 664.45) rotate(180)"/><rect class="cls-10" x="344.1" y="320.81" width="88.92" height="5.26" transform="translate(777.12 646.88) rotate(180)"/><rect class="cls-10" x="347.14" y="310.8" width="88.35" height="5.26" transform="translate(782.62 626.86) rotate(180)"/><rect class="cls-10" x="350.57" y="302.02" width="84.92" height="5.26" transform="translate(786.06 609.29) rotate(180)"/><rect class="cls-10" x="354.16" y="292.66" width="86.45" height="5.26" transform="translate(794.77 590.57) rotate(180)"/><rect class="cls-10" x="356.25" y="283.87" width="84.36" height="5.26" transform="translate(796.86 573) rotate(180)"/><rect class="cls-10" x="360.04" y="274.43" width="87.21" height="5.26" transform="translate(807.3 554.13) rotate(180)"/><rect class="cls-10" x="341.34" y="265.65" width="110.01" height="5.26" transform="translate(792.69 536.56) rotate(180)"/><rect class="cls-10" x="348.81" y="247.92" width="5.05" height="110.66" transform="translate(580.03 707.1) rotate(-160.32)"/><rect class="cls-10" x="398.44" y="252.75" width="5.25" height="110.66" transform="translate(674.97 733.23) rotate(-160.32)"/></g><path class="cls-10" d="M363.52,262.47,516,264l3.38-10.73c.15-.49-.32-1-1-1H373.51c-5.52,0-10,2.77-10,6.18Z"/><path class="cls-5" d="M635.13,350.18a.93.93,0,0,1,0-1.85l71.14-.52a2,2,0,0,0,1.59-.84,1.92,1.92,0,0,0,.26-1.78l-22-63.89a.93.93,0,0,1,1.76-.61l22,63.89a3.83,3.83,0,0,1-3.59,5.08l-71.14.52Z"/><path class="cls-3" d="M623.79,458.38V300a4.72,4.72,0,0,0-2.39-4.1L522.73,240a4.69,4.69,0,0,0-4.8.1l-94.7,58.63a4.72,4.72,0,0,0-2.24,4V459.27a4.71,4.71,0,0,0,4.74,4.71l193.37-.88A4.72,4.72,0,0,0,623.79,458.38Z"/><path class="cls-11" d="M524,222.25l116.29,73.67a3,3,0,0,1,.82,4.67h0c-5.2,5.77-15.46,6.88-22.42,2.41L523.3,241.74a5.23,5.23,0,0,0-5.51,0l-92.48,62c-6.1,4.09-15.25,3.38-20.24-1.57l-1.61-1.59a3,3,0,0,1,.66-4.81L518.6,222.27A5.05,5.05,0,0,1,524,222.25Z"/><path class="cls-12" d="M545.38,384H495.32a5.14,5.14,0,0,1-5.14-5.14V311c1.76-19.15,17.05-27.71,30.83-27.71h.85c13.57.35,28.52,9.18,29.27,27.74v67.2A5.75,5.75,0,0,1,545.38,384ZM492,311.11v67.72a3.29,3.29,0,0,0,3.29,3.28h50.06a3.9,3.9,0,0,0,3.9-3.89V311.06c-.7-17.33-14.73-25.59-27.47-25.92C508.67,284.81,493.74,292.79,492,311.11Z"/><path class="cls-6" d="M518.61,325.61h-23a1.16,1.16,0,0,0-1.16,1.16v21.81a1,1,0,0,0,1,1h22.49a1.45,1.45,0,0,0,1.44-1.45V326.38A.77.77,0,0,0,518.61,325.61Z"/><path class="cls-6" d="M545.15,322.33a1.26,1.26,0,0,0,1.26-1.25v-9c-.57-14.85-11.34-22.83-22.92-23.84a.93.93,0,0,0-1,.92V321a1.35,1.35,0,0,0,1.35,1.35Z"/><path class="cls-6" d="M494.48,353.89v18.18a3.35,3.35,0,0,0,3.34,3.34h20.5a1.05,1.05,0,0,0,1.06-1.06V353.89a1.05,1.05,0,0,0-1.06-1.06H495.54A1.06,1.06,0,0,0,494.48,353.89Z"/><path class="cls-6" d="M518.32,288.26c-11.58,1.07-22.53,9-23.84,23.83v9.18a1.06,1.06,0,0,0,1.06,1.06h23a.87.87,0,0,0,.87-.87V289.22A1,1,0,0,0,518.32,288.26Z"/><path class="cls-6" d="M522.47,326.87v21.52a1.16,1.16,0,0,0,1.16,1.16h21.52a1.26,1.26,0,0,0,1.26-1.26V327a1.36,1.36,0,0,0-1.36-1.35H523.73A1.25,1.25,0,0,0,522.47,326.87Z"/><path class="cls-6" d="M523.82,375.41h19.47a3.12,3.12,0,0,0,3.12-3.12V354a1.16,1.16,0,0,0-1.16-1.16h-22a.77.77,0,0,0-.77.77v20.46A1.35,1.35,0,0,0,523.82,375.41Z"/><path class="cls-5" d="M405.86,299.49a.94.94,0,0,1-.78-.42.92.92,0,0,1,.27-1.28l112.71-73.18a6.1,6.1,0,0,1,6.63,0L539,234a.92.92,0,0,1,.27,1.28.93.93,0,0,1-1.29.27l-14.34-9.34a4.2,4.2,0,0,0-4.59,0L406.37,299.34A1,1,0,0,1,405.86,299.49Z"/><path class="cls-4" d="M425.62,410.71a.93.93,0,0,1-.93-.93V326.22a.93.93,0,0,1,1.86,0v83.56A.93.93,0,0,1,425.62,410.71Z"/><rect class="cls-3" x="636.69" y="373.31" width="44.9" height="69.64" rx="6.67"/><rect class="cls-3" x="366.83" y="373.44" width="44.9" height="69.64" rx="6.67"/><path class="cls-6" d="M456.24,242.76s.63,3.37.95,6.7A2.3,2.3,0,0,1,455,252c-4.45.22-14,.68-17.37.56a.75.75,0,0,1-.67-1h0a1.68,1.68,0,0,1,.85-.91l15.64-7.37Z"/><path class="cls-13" d="M456.71,240.77l-.44,4s-2.74,1.31-4.63-.11l1.09-4.51Z"/><path class="cls-6" d="M474.33,244.35a24.52,24.52,0,0,1,1.93,6.21,1.41,1.41,0,0,1-1.22,1.69c-1.47.16-3.73.37-5.54.37a1.41,1.41,0,0,1-1.4-1.55,11.77,11.77,0,0,1,2.69-6.5Z"/><path class="cls-14" d="M475.11,239.15l-1.06,6.11a3.92,3.92,0,0,1-3.29.26l.47-6.57Z"/><path class="cls-15" d="M455.63,164.93c.21,1,0,56.66-5.33,79.8-.09.38,4.36,2.62,6.9,1.34,0,0,9.77-33.91,10.59-62.57s0-1,0-1l-.81-17.7Z"/><path class="cls-16" d="M477.44,166.3c4.95,28.18-.48,75.37-2,80.89,0,0-3.72.57-6.06-.46-.39-2.6.69-49.9-3.9-66.09a3.44,3.44,0,0,0-1.37-1.91l-8.2-5.71-.71-9.36Z"/><path class="cls-17" d="M448.25,115.07c13.46-1,28.42,3.27,28.42,3.27,4.25,23.44,1.19,50.55,1.19,50.55-10.43,2.84-22.26-1.46-22.26-1.46-1.83-9.8-10.19-37.34-10.19-37.34-1.26,9.38-12.06,19.75-16.56,17.28,3.38-4,.61-13.44,1.28-16.43C434.91,132.38,441.42,115.58,448.25,115.07Z"/><path class="cls-16" d="M465.54,130.55a.26.26,0,0,1,.14.11l13.15,12.54a.55.55,0,0,1,.16.3c.45,2.54-.7,26.23-1.06,25.87,1.3,1.73-21.66,1.89-22.08-.34,0,0-7.88-28.2-7.76-28.36l2.11-11.42a.57.57,0,0,1,.61-.54C453.61,128.92,465.54,130.55,465.54,130.55Z"/><path class="cls-17" d="M471.62,131.46l5.05-13.12s12.69,8.45,14.87,19.29a29.9,29.9,0,0,0-10.93,3C479.63,135.55,471.62,131.46,471.62,131.46Z"/><path class="cls-18" d="M460.72,143.86s14.23,7.87,18.94,1a5.4,5.4,0,0,0,.95-4.18,29.9,29.9,0,0,1,10.93-3A15,15,0,0,1,490,147.92c-8.22,15.39-31.13-.55-31.13-.55Z"/><path class="cls-19" d="M461.82,104l4.41,12.38a.45.45,0,0,1-.2.54,10.09,10.09,0,0,1-10.48-.61,2.08,2.08,0,0,1-1-1.49l-1.5-10.74Z"/><polygon class="cls-16" points="450.49 114.89 450.5 129.27 453.77 129.5 454.23 115.04 450.49 114.89"/><path class="cls-16" d="M465.21,130.69s5.59-14.16,5.94-13.7l-3.86-.46c-.13,0-5.37,13.76-5.37,13.76Z"/><path class="cls-20" d="M450.18,95.93c-.08.18-.9,13.16-.9,13.16l7.42.31,2.61-12.19S451.48,92.9,450.18,95.93Z"/><path class="cls-21" d="M456.7,98.64a1.11,1.11,0,0,1,.3.9l-.86,6.42a1,1,0,0,1-.08.29c-.22.49-1,2-2.58,1.09a9.41,9.41,0,0,0-3.55-1.57,1.07,1.07,0,0,0-1.14,1,40.44,40.44,0,0,0,.06,5.87,1.05,1.05,0,0,0,1.08.95,29.39,29.39,0,0,0,6.62-.82,1.09,1.09,0,0,0,.76-.79c.38-1.69,1.48-6.43,2-7.72s1.68-1,2.66-1.53,1.27-1.92,1.35-3c.13-1.94-.08-4.78-1.7-6.1-2-1.61-3.57.41-5.31-.41-2.39-1.11-5.53-.18-7.52,1.46-3.09,2.55,3,3,4.44,2.54S456.06,98,456.7,98.64Z"/><path class="cls-22" d="M459,106.64s-.31-4,1.25-4.48,3.4.47,2.26,3C461.05,108.23,459,106.64,459,106.64Z"/><path class="cls-23" d="M444.41,93.45s1.86-10,12.2-8.1S464.48,95,464.48,95Z"/><path class="cls-24" d="M462.17,87.64s-13.28-4.59-15,6l-2.74-.21s1.52-9.49,8.39-8.92S461.56,85.89,462.17,87.64Z"/><path class="cls-12" d="M451.17,94.23a.13.13,0,0,0,.1,0l.05-.06c1.25-1.37,3.34-3.66,5.3-3.56a16.22,16.22,0,0,1,2.88.49c.67.16,1.37.32,2,.42.92.13,1.93.26,3.08.4h0a.1.1,0,0,0,.12-.1.1.1,0,0,0-.09-.12c-1.15-.14-2.16-.27-3.07-.41-.67-.09-1.36-.25-2-.41a17.49,17.49,0,0,0-2.92-.5c-2.07-.11-4.2,2.24-5.48,3.64l0,.06a.11.11,0,0,0,0,.16Z"/><path class="cls-25" d="M464.93,96.36l-23.19-.61a.35.35,0,0,1-.2-.62c.93-.71,2.5-1.8,3.31-1.74L464.48,95S464.9,95.05,464.93,96.36Z"/><path class="cls-26" d="M428.39,130l-15,40c-1.84,12.27,30.92,12.62,41.51,0l10.82-34.54a4,4,0,0,0-3.75-5.15L428.39,130Z"/><path class="cls-27" d="M389.49,129.66l-15,40c-1.84,12.27,30.92,12.62,41.51,0L428.39,130l-38.9-.33Z"/><path class="cls-28" d="M390.31,129.69a33.53,33.53,0,0,1-4.35,0l-10.2-.09-13.87-.11-5.54,0c-1.34,0-3.67-.47-4.52.82a25.48,25.48,0,0,0-1.45,3.92l-2.11,5.29q-2.58,6.51-5.17,13-3.37,8.44-6.73,16.89c-1.84,12.28,30.92,12.62,41.52,0C377.89,169.33,390.29,129.74,390.31,129.69Z"/><path class="cls-29" d="M461.75,149.75s1.08-4.44.65-6-1.28-3.61-4.09-3.16a40.86,40.86,0,0,0-6.14,1.64,1.61,1.61,0,0,0,2.31,1.39l-1.33,1s.19,1.64,2,.76l-1.23,1.36a1.44,1.44,0,0,0,2.1.49C457.35,146.38,458,150.29,461.75,149.75Z"/><path class="cls-30" d="M655.78,453.08s1,5.47,1.44,10.89a3.74,3.74,0,0,1-3.57,4c-7.22.3-22.65.88-28.19.63a1.22,1.22,0,0,1-1.07-1.66h0a2.76,2.76,0,0,1,1.4-1.47l25.48-11.71Z"/><path class="cls-31" d="M656.57,449.87l-.78,6.54s-4.46,2.08-7.51-.26l1.85-7.29Z"/><path class="cls-15" d="M656,326.81c.34,1.7,1.8,85.3-7.13,122.76a1.27,1.27,0,0,0,.74,1.48,22.2,22.2,0,0,0,7.28,1.48A2.19,2.19,0,0,0,659,451c2.56-8.69,14.8-52.23,16.39-93.83,1.79-46.49,0-1.59,0-1.59l-1-28.73Z"/><path class="cls-32" d="M685.1,455.94s1.53,2.76,3,10.1a2.27,2.27,0,0,1-2,2.73c-2.38.23-6,.53-9,.51a2.26,2.26,0,0,1-2.24-2.53,19.09,19.09,0,0,1,4.47-10.5Z"/><path class="cls-33" d="M686.45,447.52l-1.82,9.9s-1.79,1.33-5.34.36l.87-10.65Z"/><path class="cls-16" d="M691.35,329.37c7.31,44.1-1.59,109-4.58,121.71a2,2,0,0,1-1.6,1.5,13.19,13.19,0,0,1-5.72-.22,1.83,1.83,0,0,1-1.31-1.68c-.4-10.27.33-73.31-6.48-98.23a5.69,5.69,0,0,0-2.19-3.12l-13.21-9.4-1-15.19Z"/><path class="cls-17" d="M644.78,245.8c21.9-.36,46.07,5.75,46.07,5.75,6.53,38.09,1.14,82,1.14,82-17,4.45-36.08-2.72-36.08-2.72-2.82-15.92-16-60.73-16-60.73a72,72,0,0,1-26.77-8.5c5.54-6.41,8.15-14.58,9.28-19.41A73.41,73.41,0,0,0,644.78,245.8Z"/><path class="cls-34" d="M580.09,213.54a4.2,4.2,0,0,1,4.88-1.37c3.22,13.62,20.12,24.66,37.48,30.05-1.13,4.83-3.74,13-9.28,19.41C584.36,245.43,580.09,213.54,580.09,213.54Z"/><path class="cls-35" d="M580.62,214.2c-.23.72,2.38,1.81,3.91-1.12.06-1.4.91-7.41.07-8.55-4.46-6.09-13.12-13.72-13.12-13.72a2.06,2.06,0,0,0-.26,2.86l4.2,4.38a20,20,0,0,0-2.45,4.84,5.85,5.85,0,0,0,.59,4.33,50.15,50.15,0,0,0,2.69,4.41A5.82,5.82,0,0,0,580.62,214.2Z"/><path class="cls-36" d="M577.26,200.88l3.82,3.25,1.21,3.23-3.42,3.78s-1.14-6.41-2-7.79S576.46,201.29,577.26,200.88Z"/><path class="cls-17" d="M682.45,272.76l8.4-21.21s20.45,13.9,23.82,31.52a48.41,48.41,0,0,0-17.78,4.77C695.37,279.52,682.45,272.76,682.45,272.76Z"/><path class="cls-37" d="M664.57,292.71s23,13,30.72,1.9a8.74,8.74,0,0,0,1.6-6.77,48.41,48.41,0,0,1,17.78-4.77A24.36,24.36,0,0,1,712,299.75c-13.58,24.83-50.5-1.37-50.5-1.37Z"/><path class="cls-38" d="M667,228l7,20.15a.74.74,0,0,1-.34.88c-1.9,1-8.74,4.08-17-1.14a3.43,3.43,0,0,1-1.57-2.45L652.78,228Z"/><path class="cls-39" d="M651.8,209.36s-7.65,14.4-6.67,20.22,10.47,5.4,18.75.68l5.79-15.56Z"/><path class="cls-40" d="M663.51,222.62a.6.6,0,0,1-.26-.87,15.23,15.23,0,0,0,2.13-4.52s1.38-.88-3.5-2-12.15-3-13.68-7.13,4.58-10.53,8.68-6.11a.61.61,0,0,0,.94,0c1-1.33,3.71-4.1,7.45-2.42,3.5,1.57,3.89,4.13,3.85,5.43a.58.58,0,0,0,.7.6c1.76-.34,6-.63,8,3.73,1.63,3.58.57,5.61-.39,6.61a.59.59,0,0,0,.25,1c1.16.36,2.66,1.34,2.51,4.06-.21,3.77-4.42,3.44-5.61,3.27a.6.6,0,0,0-.53.18c-1,1.14-5.66,6-10.67,6.55a.6.6,0,0,1-.63-.79l2.17-6.3a.59.59,0,0,0-.32-.74Z"/><path class="cls-41" d="M662.64,223.51s5.45-3.73,5.85-.59-4.91,4.56-7.54,3.39Z"/><path class="cls-42" d="M648.77,202.88s8.68-15,24.19-6,7.13,20,7.13,20Z"/><path class="cls-43" d="M680.57,203.67s-18.69-14.92-27.52,1.11c-3.61-1.59-4.28-1.9-4.28-1.9s7.84-14.36,18.54-9.53S680.59,200.51,680.57,203.67Z"/><path class="cls-12" d="M659.18,208a.25.25,0,0,0,.17,0l.12-.07c2.79-1.49,7.44-4,10.53-2.7a27.53,27.53,0,0,1,4.35,2.44c1,.63,2,1.29,3,1.83,1.4.73,2.93,1.52,4.7,2.4h0a.2.2,0,0,0,.25-.09.19.19,0,0,0-.09-.26c-1.76-.88-3.3-1.66-4.69-2.4-1-.53-2-1.18-3-1.8a29.66,29.66,0,0,0-4.41-2.48c-3.26-1.35-8,1.2-10.86,2.72l-.12.06a.21.21,0,0,0-.08.27A.24.24,0,0,0,659.18,208Z"/><path class="cls-44" d="M680,219.23l-36.86-14.18a.57.57,0,0,1-.38-.56.58.58,0,0,1,.41-.54c1.9-.62,5-1.47,6.3-.91l30.58,13.77S680.75,217.12,680,219.23Z"/><path class="cls-5" d="M597.82,247.26a.14.14,0,0,1,0-.06l.06,0,.32-.24,4.53-3.3a2.53,2.53,0,0,1,3.85,1.2l2.26,6.47,4.33,12.34S593.15,263.74,597.82,247.26Z"/><path class="cls-12" d="M597.81,247.26l.09-.1.32-.24c-1.61,2.37,1.15,2.82,10.64,4.37,1.51.24,3.19.51,5,.83,10.23,1.72,19.64-3.19,24-5.94a2.51,2.51,0,0,1,3.67,1.15C645.19,256.11,656,282,656.57,283l10.6,24.84s.14,4.08-5.84,8-7.81,5.4-16.3,3.88a108.06,108.06,0,0,1-14.13-3.93h0l0,.63a41.68,41.68,0,0,0-7-1.89h0a4.32,4.32,0,0,1-.23-.66L611.5,285.07h0l-.22-.94a137.82,137.82,0,0,1-10.42-18c0-.07,0-.14-.05-.21-.52-1.11-1-2.16-1.37-3.15C595.27,252.61,596.82,248.6,597.81,247.26Z"/><path class="cls-45" d="M630.87,316.41a41.68,41.68,0,0,0-7-1.89h0L611.8,285.89a6.77,6.77,0,0,1-.3-.82h0c-6-7.79-8.5-14-10.73-18.92,0-.06,0-.13,0-.2-.31-.7-.55-1.37-.82-2v-.09c.28.36,9.29,12.52,12.44,16.6C615.21,284.1,628,310.59,630.87,316.41Z"/><path class="cls-46" d="M664.3,298.56s1.75-7.18,1-9.73-2.06-5.82-6.61-5.09a65.86,65.86,0,0,0-9.92,2.64s.27,3.32,3.73,2.25l-2.14,1.66s.3,2.65,3.22,1.23l-2,2.2a2.32,2.32,0,0,0,3.4.79C657.18,293.11,658.21,299.42,664.3,298.56Z"/><rect class="cls-47" y="467.6" width="1048.01" height="1.68" rx="0.84"/></svg>