<svg xmlns="http://www.w3.org/2000/svg" xmlns:xlink="http://www.w3.org/1999/xlink" viewBox="0 0 4281.57 843.3"><defs><style>.cls-1{fill:url(#linear-gradient);}.cls-2{fill:url(#linear-gradient-2);}.cls-3{fill:#dee9f7;}.cls-4{fill:#98b1dc;}.cls-13,.cls-5{fill:#fff;}.cls-5{opacity:0.57;}.cls-6{fill:#c0cfeb;}.cls-7{fill:#8193ca;}.cls-8{fill:url(#linear-gradient-3);}.cls-9{fill:url(#linear-gradient-4);}.cls-10{clip-path:url(#clip-path);}.cls-11{fill:#a0aed9;}.cls-12{fill:url(#linear-gradient-6);}.cls-14{fill:url(#linear-gradient-7);}.cls-15{fill:url(#linear-gradient-8);}.cls-16{fill:#1e3966;}.cls-17{fill:#447bbf;}.cls-18{fill:#d63044;}.cls-19{fill:url(#linear-gradient-9);}.cls-20{fill:url(#linear-gradient-10);}.cls-21{fill:url(#linear-gradient-11);}.cls-22{fill:url(#linear-gradient-12);}.cls-23{fill:url(#linear-gradient-13);}.cls-24{fill:url(#linear-gradient-14);}.cls-25{fill:url(#linear-gradient-15);}.cls-26{fill:url(#linear-gradient-16);}.cls-27{fill:url(#linear-gradient-17);}.cls-28{fill:url(#linear-gradient-18);}.cls-29{fill:url(#linear-gradient-19);}.cls-30{fill:url(#linear-gradient-20);}.cls-31{fill:url(#linear-gradient-21);}.cls-32{fill:url(#linear-gradient-22);}.cls-33{fill:url(#linear-gradient-23);}.cls-34{fill:url(#linear-gradient-24);}.cls-35{fill:url(#linear-gradient-25);}.cls-36{fill:url(#linear-gradient-26);}.cls-37{fill:url(#linear-gradient-27);}.cls-38{fill:url(#linear-gradient-28);}.cls-39{fill:url(#linear-gradient-29);}.cls-40{fill:url(#linear-gradient-30);}.cls-41{fill:url(#linear-gradient-31);}.cls-42{fill:url(#linear-gradient-32);}.cls-43{fill:url(#linear-gradient-33);}.cls-44{fill:url(#linear-gradient-34);}.cls-45{fill:url(#linear-gradient-35);}.cls-46{fill:url(#linear-gradient-36);}.cls-47{fill:url(#linear-gradient-37);}.cls-48{fill:url(#linear-gradient-38);}.cls-49{fill:url(#linear-gradient-39);}.cls-50{clip-path:url(#clip-path-2);}.cls-51{fill:url(#linear-gradient-41);}.cls-52{fill:url(#linear-gradient-42);}.cls-53{fill:url(#linear-gradient-43);}.cls-54{fill:url(#linear-gradient-44);}.cls-55{fill:url(#linear-gradient-45);}.cls-56{fill:url(#linear-gradient-46);}.cls-57{fill:url(#linear-gradient-47);}.cls-58{fill:url(#linear-gradient-48);}.cls-59{fill:url(#linear-gradient-49);}.cls-60{fill:url(#linear-gradient-50);}.cls-61{fill:url(#linear-gradient-51);}.cls-62{fill:url(#linear-gradient-52);}.cls-63{fill:url(#linear-gradient-53);}.cls-64{fill:url(#linear-gradient-54);}.cls-65{fill:url(#linear-gradient-55);}.cls-66{fill:url(#linear-gradient-56);}.cls-67{fill:url(#linear-gradient-57);}.cls-68{fill:url(#linear-gradient-58);}.cls-69{fill:url(#linear-gradient-59);}.cls-70{fill:url(#linear-gradient-60);}.cls-71{fill:url(#linear-gradient-61);}.cls-72{fill:url(#linear-gradient-62);}.cls-73{fill:url(#linear-gradient-63);}.cls-74{fill:url(#linear-gradient-64);}.cls-75{fill:url(#linear-gradient-65);}.cls-76{fill:url(#linear-gradient-66);}.cls-77{fill:url(#linear-gradient-67);}.cls-78{fill:url(#linear-gradient-68);}.cls-79{fill:url(#linear-gradient-69);}.cls-80{fill:url(#linear-gradient-70);}.cls-81{fill:url(#linear-gradient-71);}.cls-82{fill:url(#linear-gradient-72);}.cls-83{fill:#243962;}.cls-84{fill:none;}</style><linearGradient id="linear-gradient" x1="3509.24" y1="665.28" x2="3714.56" y2="665.28" gradientUnits="userSpaceOnUse"><stop offset="0" stop-color="#5560ab"/><stop offset="1" stop-color="#4c57a6"/></linearGradient><linearGradient id="linear-gradient-2" x1="3896.11" y1="665.28" x2="4101.43" y2="665.28" gradientTransform="matrix(-1, 0, 0, 1, 4668.44, 0)" xlink:href="#linear-gradient"/><linearGradient id="linear-gradient-3" x1="11034.03" y1="484.06" x2="11014.11" y2="579.3" gradientTransform="matrix(-1, 0, 0, 1, 14608.6, 0)" xlink:href="#linear-gradient"/><linearGradient id="linear-gradient-4" x1="3834.05" y1="634.46" x2="3928.44" y2="377.16" xlink:href="#linear-gradient"/><clipPath id="clip-path"><path class="cls-1" d="M3515.25,716.16h138.34l61-101.75H3544.87l-35.07,93.21A6,6,0,0,0,3515.25,716.16Z"/></clipPath><linearGradient id="linear-gradient-6" x1="3706.58" y1="991.94" x2="3711.15" y2="851.87" xlink:href="#linear-gradient"/><linearGradient id="linear-gradient-7" x1="33949.43" y1="387.92" x2="33955.01" y2="387.92" gradientTransform="matrix(-1, 0.01, 0.01, 1, 37591.66, -114.75)" gradientUnits="userSpaceOnUse"><stop offset="0" stop-color="#f9baba"/><stop offset="1" stop-color="#f5928f"/></linearGradient><linearGradient id="linear-gradient-8" x1="33929.3" y1="387.63" x2="33934.12" y2="387.63" xlink:href="#linear-gradient-7"/><linearGradient id="linear-gradient-9" x1="33909.97" y1="282.62" x2="33946.08" y2="282.62" xlink:href="#linear-gradient-7"/><linearGradient id="linear-gradient-10" x1="33937.7" y1="244.01" x2="33951.98" y2="244.01" xlink:href="#linear-gradient-7"/><linearGradient id="linear-gradient-11" x1="14964.65" y1="6401.18" x2="14948.34" y2="6422.76" gradientTransform="matrix(-0.92, -0.4, -0.4, 0.92, 19917.06, 497.4)" xlink:href="#linear-gradient-7"/><linearGradient id="linear-gradient-12" x1="16227.05" y1="-594.85" x2="16207.48" y2="-551.92" gradientTransform="matrix(-0.91, 0.41, 0.41, 0.91, 18636.05, -5752.14)" gradientUnits="userSpaceOnUse"><stop offset="0" stop-color="#201b59"/><stop offset="1" stop-color="#2d2d84"/></linearGradient><linearGradient id="linear-gradient-13" x1="14940.76" y1="6418.27" x2="14953.84" y2="6404.85" gradientTransform="matrix(-0.92, -0.4, -0.4, 0.92, 19917.06, 497.4)" xlink:href="#linear-gradient-7"/><linearGradient id="linear-gradient-14" x1="3662.27" y1="403.41" x2="3654.41" y2="415.59" gradientUnits="userSpaceOnUse"><stop offset="0" stop-color="#f5928f"/><stop offset="1" stop-color="#f37064"/></linearGradient><linearGradient id="linear-gradient-15" x1="12160.56" y1="1598.42" x2="12181.54" y2="1610.94" gradientTransform="matrix(-1, -0.1, -0.1, 1, 15906.6, 23.16)" xlink:href="#linear-gradient-14"/><linearGradient id="linear-gradient-16" x1="3723.44" y1="395.12" x2="3691.22" y2="410.85" gradientUnits="userSpaceOnUse"><stop offset="0" stop-color="#e1483d"/><stop offset="1" stop-color="#e9625a"/></linearGradient><linearGradient id="linear-gradient-17" x1="3858.98" y1="380.46" x2="3776.78" y2="421.57" xlink:href="#linear-gradient"/><linearGradient id="linear-gradient-18" x1="3602.61" y1="473.56" x2="3687.09" y2="363.96" xlink:href="#linear-gradient"/><linearGradient id="linear-gradient-19" x1="3595.57" y1="372.76" x2="3566.65" y2="442.79" xlink:href="#linear-gradient"/><linearGradient id="linear-gradient-20" x1="33697.62" y1="489.03" x2="33708.91" y2="489.03" gradientTransform="matrix(-1, 0, 0, 1, 37349.85, 0)" xlink:href="#linear-gradient-7"/><linearGradient id="linear-gradient-21" x1="9449.99" y1="817.32" x2="9347.97" y2="928.3" gradientTransform="matrix(-1, 0, 0, 1, 13281.22, 0)" xlink:href="#linear-gradient-12"/><linearGradient id="linear-gradient-22" x1="9416.88" y1="825.57" x2="9425.94" y2="825.57" gradientTransform="matrix(-1, 0, 0, 1, 13281.22, 0)" xlink:href="#linear-gradient-7"/><linearGradient id="linear-gradient-23" x1="9427.1" y1="796.28" x2="9325.08" y2="907.25" gradientTransform="matrix(-1, 0, 0, 1, 13281.22, 0)" xlink:href="#linear-gradient-12"/><linearGradient id="linear-gradient-24" x1="9384.22" y1="825.1" x2="9392.04" y2="825.1" gradientTransform="matrix(-1, 0, 0, 1, 13281.22, 0)" xlink:href="#linear-gradient-7"/><linearGradient id="linear-gradient-25" x1="9461.76" y1="589.15" x2="9508.05" y2="589.15" gradientTransform="matrix(-1, 0, 0, 1, 13281.22, 0)" gradientUnits="userSpaceOnUse"><stop offset="0" stop-color="#a22d25"/><stop offset="1" stop-color="#c1423d"/></linearGradient><linearGradient id="linear-gradient-26" x1="3791.03" y1="427.59" x2="3787.22" y2="464.12" gradientTransform="matrix(1, 0, 0, 1, 0, 0)" xlink:href="#linear-gradient-25"/><linearGradient id="linear-gradient-27" x1="3781.46" y1="443.31" x2="3778.92" y2="629.03" gradientTransform="matrix(1, 0, 0, 1, 0, 0)" xlink:href="#linear-gradient-25"/><linearGradient id="linear-gradient-28" x1="9364.47" y1="654.73" x2="9423.06" y2="654.73" xlink:href="#linear-gradient-25"/><linearGradient id="linear-gradient-29" x1="3865.61" y1="572.27" x2="3879.31" y2="624.03" gradientTransform="matrix(1, 0, 0, 1, 0, 0)" xlink:href="#linear-gradient-25"/><linearGradient id="linear-gradient-30" x1="5433.32" y1="1242.4" x2="5426.47" y2="1263.97" gradientTransform="matrix(-0.75, -0.67, -0.67, 0.75, 8640.13, 3498.64)" xlink:href="#linear-gradient-25"/><linearGradient id="linear-gradient-31" x1="5506.8" y1="957.82" x2="5514.04" y2="999.12" gradientTransform="matrix(-0.75, -0.67, -0.67, 0.75, 8640.13, 3498.64)" xlink:href="#linear-gradient-12"/><linearGradient id="linear-gradient-32" x1="5424.45" y1="1239.58" x2="5417.6" y2="1261.15" gradientTransform="matrix(-0.75, -0.67, -0.67, 0.75, 8640.13, 3498.64)" xlink:href="#linear-gradient-25"/><linearGradient id="linear-gradient-33" x1="3913.47" y1="497.78" x2="3900.03" y2="518.33" xlink:href="#linear-gradient-14"/><linearGradient id="linear-gradient-34" x1="11513.09" y1="2396" x2="11548.81" y2="2417.32" gradientTransform="matrix(-0.91, -0.42, -0.42, 0.91, 15325.79, 3270.49)" xlink:href="#linear-gradient-14"/><linearGradient id="linear-gradient-35" x1="3890.86" y1="497.72" x2="3880.96" y2="527.66" xlink:href="#linear-gradient-16"/><linearGradient id="linear-gradient-36" x1="3802.45" y1="647.47" x2="3836.26" y2="647.47" gradientUnits="userSpaceOnUse"><stop offset="0" stop-color="#dbe2f3"/><stop offset="1" stop-color="#eaeff8"/></linearGradient><linearGradient id="linear-gradient-37" x1="9412.9" y1="648.58" x2="9431.16" y2="648.58" xlink:href="#linear-gradient-25"/><linearGradient id="linear-gradient-38" x1="10647.16" y1="484.06" x2="10627.24" y2="579.3" gradientTransform="translate(-9940.16)" xlink:href="#linear-gradient"/><linearGradient id="linear-gradient-39" x1="4220.92" y1="634.46" x2="4315.31" y2="377.16" gradientTransform="matrix(-1, 0, 0, 1, 4668.44, 0)" xlink:href="#linear-gradient"/><clipPath id="clip-path-2"><path class="cls-2" d="M766.31,716.16H628L567,614.41H736.69l35.07,93.21A6,6,0,0,1,766.31,716.16Z"/></clipPath><linearGradient id="linear-gradient-41" x1="4093.45" y1="991.94" x2="4098.02" y2="851.87" gradientTransform="matrix(-1, 0, 0, 1, 4668.44, 0)" xlink:href="#linear-gradient"/><linearGradient id="linear-gradient-42" x1="33562.59" y1="391.59" x2="33568.18" y2="391.59" gradientTransform="translate(-32923.23 -114.75) rotate(0.54)" xlink:href="#linear-gradient-7"/><linearGradient id="linear-gradient-43" x1="33542.46" y1="391.3" x2="33547.28" y2="391.3" gradientTransform="translate(-32923.23 -114.75) rotate(0.54)" xlink:href="#linear-gradient-7"/><linearGradient id="linear-gradient-44" x1="33523.14" y1="286.29" x2="33559.25" y2="286.29" gradientTransform="translate(-32923.23 -114.75) rotate(0.54)" xlink:href="#linear-gradient-7"/><linearGradient id="linear-gradient-45" x1="33550.87" y1="247.69" x2="33565.15" y2="247.69" gradientTransform="translate(-32923.23 -114.75) rotate(0.54)" xlink:href="#linear-gradient-7"/><linearGradient id="linear-gradient-46" x1="14609.51" y1="6247.7" x2="14593.2" y2="6269.27" gradientTransform="translate(-15248.62 497.4) rotate(-23.37)" xlink:href="#linear-gradient-7"/><linearGradient id="linear-gradient-47" x1="15874.83" y1="-434.8" x2="15855.27" y2="-391.87" gradientTransform="matrix(0.91, 0.41, -0.41, 0.91, -13967.62, -5752.14)" xlink:href="#linear-gradient-12"/><linearGradient id="linear-gradient-48" x1="14585.62" y1="6264.78" x2="14598.7" y2="6251.36" gradientTransform="translate(-15248.62 497.4) rotate(-23.37)" xlink:href="#linear-gradient-7"/><linearGradient id="linear-gradient-49" x1="4049.14" y1="403.41" x2="4041.28" y2="415.59" gradientTransform="matrix(-1, 0, 0, 1, 4668.44, 0)" xlink:href="#linear-gradient-14"/><linearGradient id="linear-gradient-50" x1="11775.55" y1="1560.54" x2="11796.53" y2="1573.07" gradientTransform="translate(-11238.17 23.16) rotate(-5.62)" xlink:href="#linear-gradient-14"/><linearGradient id="linear-gradient-51" x1="4110.31" y1="395.12" x2="4078.09" y2="410.85" gradientTransform="matrix(-1, 0, 0, 1, 4668.44, 0)" xlink:href="#linear-gradient-16"/><linearGradient id="linear-gradient-52" x1="4245.85" y1="380.46" x2="4163.65" y2="421.57" gradientTransform="matrix(-1, 0, 0, 1, 4668.44, 0)" xlink:href="#linear-gradient"/><linearGradient id="linear-gradient-53" x1="3989.48" y1="473.56" x2="4073.96" y2="363.96" gradientTransform="matrix(-1, 0, 0, 1, 4668.44, 0)" xlink:href="#linear-gradient"/><linearGradient id="linear-gradient-54" x1="3982.44" y1="372.76" x2="3953.52" y2="442.79" gradientTransform="matrix(-1, 0, 0, 1, 4668.44, 0)" xlink:href="#linear-gradient"/><linearGradient id="linear-gradient-55" x1="33310.75" y1="489.03" x2="33322.04" y2="489.03" gradientTransform="translate(-32681.42)" xlink:href="#linear-gradient-7"/><linearGradient id="linear-gradient-56" x1="9063.12" y1="817.32" x2="8961.1" y2="928.3" gradientTransform="translate(-8612.78)" xlink:href="#linear-gradient-12"/><linearGradient id="linear-gradient-57" x1="9030" y1="825.57" x2="9039.07" y2="825.57" gradientTransform="translate(-8612.78)" xlink:href="#linear-gradient-7"/><linearGradient id="linear-gradient-58" x1="9040.23" y1="796.28" x2="8938.21" y2="907.25" gradientTransform="translate(-8612.78)" xlink:href="#linear-gradient-12"/><linearGradient id="linear-gradient-59" x1="8997.35" y1="825.1" x2="9005.17" y2="825.1" gradientTransform="translate(-8612.78)" xlink:href="#linear-gradient-7"/><linearGradient id="linear-gradient-60" x1="9074.89" y1="589.15" x2="9121.18" y2="589.15" gradientTransform="translate(-8612.78)" xlink:href="#linear-gradient-25"/><linearGradient id="linear-gradient-61" x1="4177.9" y1="427.59" x2="4174.09" y2="464.12" gradientTransform="matrix(-1, 0, 0, 1, 4668.44, 0)" xlink:href="#linear-gradient-25"/><linearGradient id="linear-gradient-62" x1="4168.33" y1="443.31" x2="4165.79" y2="629.03" gradientTransform="matrix(-1, 0, 0, 1, 4668.44, 0)" xlink:href="#linear-gradient-25"/><linearGradient id="linear-gradient-63" x1="8977.6" y1="654.73" x2="9036.19" y2="654.73" gradientTransform="translate(-8612.78)" xlink:href="#linear-gradient-25"/><linearGradient id="linear-gradient-64" x1="4252.48" y1="572.27" x2="4266.18" y2="624.03" gradientTransform="matrix(-1, 0, 0, 1, 4668.44, 0)" xlink:href="#linear-gradient-25"/><linearGradient id="linear-gradient-65" x1="5144.69" y1="984.77" x2="5137.84" y2="1006.33" gradientTransform="translate(-3971.69 3498.64) rotate(-41.75)" xlink:href="#linear-gradient-25"/><linearGradient id="linear-gradient-66" x1="5218.18" y1="700.19" x2="5225.42" y2="741.49" gradientTransform="translate(-3971.69 3498.64) rotate(-41.75)" xlink:href="#linear-gradient-12"/><linearGradient id="linear-gradient-67" x1="5135.82" y1="981.95" x2="5128.97" y2="1003.51" gradientTransform="translate(-3971.69 3498.64) rotate(-41.75)" xlink:href="#linear-gradient-25"/><linearGradient id="linear-gradient-68" x1="4300.34" y1="497.78" x2="4286.9" y2="518.33" gradientTransform="matrix(-1, 0, 0, 1, 4668.44, 0)" xlink:href="#linear-gradient-14"/><linearGradient id="linear-gradient-69" x1="11162.9" y1="2231.58" x2="11198.62" y2="2252.91" gradientTransform="translate(-10657.36 3270.49) rotate(-25.15)" xlink:href="#linear-gradient-14"/><linearGradient id="linear-gradient-70" x1="4277.73" y1="497.72" x2="4267.83" y2="527.66" gradientTransform="matrix(-1, 0, 0, 1, 4668.44, 0)" xlink:href="#linear-gradient-16"/><linearGradient id="linear-gradient-71" x1="4189.32" y1="647.47" x2="4223.13" y2="647.47" gradientTransform="matrix(-1, 0, 0, 1, 4668.44, 0)" xlink:href="#linear-gradient-36"/><linearGradient id="linear-gradient-72" x1="9026.03" y1="648.58" x2="9044.29" y2="648.58" gradientTransform="translate(-8612.78)" xlink:href="#linear-gradient-25"/></defs><g id="Layer_2" data-name="Layer 2"><g id="Layer_1-2" data-name="Layer 1"><path class="cls-3" d="M3201.42,843.27c64.44,0,1052.58.07,1052.58,0,36.2-36.7,46.86-124.31-31.53-208.92-28.72-31,47.46-90.41-2-185.75-18.79-36.22-93.85-98.49-291.94-50.17-84.23,20.54-155.7-12.26-171.53-24.11a175.85,175.85,0,0,0-29.13-17.53c-109-52.75-297.38-19.15-379.59,44.25-11.65,9-64.63,55.49-22.88,119.41,26.37,40.35-84.09,78.89-123.34,125C3102.28,762.58,3200.52,841.74,3201.42,843.27Z"/><path class="cls-4" d="M3819.13,626.94c4.46-18.37,14.48-33.47,26.93-42.83a53.72,53.72,0,0,0,20.9-34.43c.23-1.45.52-2.9.87-4.36,5.36-22.09,23.21-36.72,39.86-32.68s25.81,25.22,20.45,47.3a53.12,53.12,0,0,1-4.73,12.52,54,54,0,0,0-4.75,39.47,79.29,79.29,0,0,1,.14,39.18c-5,20.54-16.91,37-31.43,45.91a52.65,52.65,0,0,0-14.28,12.82c-6.52,8.49-16.22,13-25.57,10.7-10.09-2.45-16.94-12.06-18.19-23.75a56.26,56.26,0,0,0-5.65-19C3816.71,663.72,3814.63,645.51,3819.13,626.94Z"/><path class="cls-5" d="M3896.16,534.72c-5.72,14.07-11,28.31-16.09,42.61-1.28,3.58-2.5,7.17-3.74,10.76l-1.85,5.38-1.8,5.41c-1.19,3.6-2.43,7.19-3.58,10.81l-3.44,10.85c-2.21,7.27-4.48,14.52-6.55,21.82-1,3.66-2.15,7.29-3.11,11l-2.95,11c-3.79,14.71-7.21,29.53-9.87,44.48l.64.12,2.42-11.11.6-2.78.67-2.76,1.34-5.53,1.34-5.53c.44-1.84.95-3.67,1.42-5.5,1-3.67,1.91-7.34,2.9-11,4.07-14.6,8.33-29.16,12.88-43.62,2.34-7.22,4.61-14.45,7-21.65l1.78-5.4,1.81-5.39c1.22-3.6,2.43-7.19,3.67-10.77q3.65-10.77,7.46-21.5t7.67-21.42Z"/><path class="cls-6" d="M3723.09,614.64c2.15-22.45,11.45-42,24.6-55.14a64.06,64.06,0,0,0,18.9-44.22c0-1.74.12-3.51.29-5.29,2.59-27,21.23-47.31,41.64-45.35s34.85,25.43,32.26,52.43a63.65,63.65,0,0,1-3.48,15.59,64.3,64.3,0,0,0,1.08,47.43,94.37,94.37,0,0,1,6.84,46.26c-2.41,25.1-13.75,46.57-29.42,59.54a63.16,63.16,0,0,0-14.73,17.57c-6.28,11.13-17,18-28.46,16.95-12.36-1.18-22.11-11.37-25.58-25a67.13,67.13,0,0,0-9.92-21.46C3726.47,658.5,3720.91,637.34,3723.09,614.64Z"/><path class="cls-5" d="M3798.62,492.68c-4.38,17.59-8.19,35.3-11.81,53.06-.91,4.44-1.75,8.89-2.6,13.34l-1.27,6.67-1.22,6.69c-.8,4.46-1.65,8.91-2.4,13.38l-2.23,13.4c-1.38,9-2.83,17.9-4,26.89-.61,4.49-1.31,9-1.83,13.47l-1.62,13.49c-2,18-3.51,36.1-4.12,54.21l.78,0,1-13.54.24-3.38.32-3.38.65-6.76.64-6.75c.21-2.25.5-4.5.75-6.74.53-4.5,1-9,1.57-13.48,2.33-17.95,4.9-35.86,7.84-53.72,1.53-8.92,3-17.85,4.59-26.75l1.18-6.69,1.24-6.67q1.23-6.68,2.51-13.34,2.49-13.35,5.18-26.66t5.44-26.6Z"/><path class="cls-7" d="M3538,832.42h100.79a8.14,8.14,0,0,0,8.14-8.15V723.82a8.13,8.13,0,0,0-8.14-8.14H3529.89V824.27A8.15,8.15,0,0,0,3538,832.42Z"/><path class="cls-8" d="M3515.25,716.16h138.34l61-101.75H3544.87l-35.07,93.21A6,6,0,0,0,3515.25,716.16Z"/><path class="cls-7" d="M3896.48,834.36H3796V714.08h111.56V823.31A11.05,11.05,0,0,1,3896.48,834.36Z"/><path class="cls-9" d="M3923.52,716.16H3791.7L3718,614.41l177.29,2.85,33.42,90.6A5.84,5.84,0,0,1,3923.52,716.16Z"/><path class="cls-1" d="M3515.25,716.16h138.34l61-101.75H3544.87l-35.07,93.21A6,6,0,0,0,3515.25,716.16Z"/><g class="cls-10"><rect class="cls-11" x="3511.62" y="710.42" width="108.39" height="5.75" transform="translate(7131.62 1426.6) rotate(180)"/><rect class="cls-11" x="3515.56" y="700.82" width="104.45" height="5.75" transform="translate(7135.56 1407.39) rotate(180)"/><rect class="cls-11" x="3518.88" y="690.62" width="101.13" height="5.75" transform="translate(7138.88 1386.98) rotate(180)"/><rect class="cls-11" x="3522.82" y="681.02" width="97.19" height="5.75" transform="translate(7142.82 1367.78) rotate(180)"/><rect class="cls-11" x="3526.14" y="670.08" width="96.57" height="5.75" transform="translate(7148.84 1345.9) rotate(180)"/><rect class="cls-11" x="3529.89" y="660.48" width="92.81" height="5.75" transform="translate(7152.6 1326.7) rotate(180)"/><rect class="cls-11" x="3533.81" y="650.25" width="94.49" height="5.75" transform="translate(7162.12 1306.24) rotate(180)"/><rect class="cls-11" x="3536.1" y="640.64" width="92.21" height="5.75" transform="translate(7164.4 1287.04) rotate(180)"/><rect class="cls-11" x="3540.25" y="630.33" width="95.32" height="5.75" transform="translate(7175.81 1266.4) rotate(180)"/><rect class="cls-11" x="3519.8" y="620.73" width="120.24" height="5.75" transform="translate(7159.84 1247.2) rotate(180)"/><rect class="cls-11" x="3527.97" y="601.35" width="5.52" height="120.95" transform="translate(6632.35 2473.99) rotate(-160.32)"/><rect class="cls-11" x="3582.22" y="606.63" width="5.74" height="120.95" transform="translate(6736.12 2502.54) rotate(-160.32)"/></g><path class="cls-11" d="M3544,617.25l166.63,1.63,3.7-11.73c.16-.53-.35-1-1-1H3555c-6,0-10.93,3-10.93,6.76Z"/><path class="cls-6" d="M3840.91,713.12a1,1,0,0,1-1-1,1,1,0,0,1,1-1l77.75-.57a2.1,2.1,0,0,0,1.75-.91,2.12,2.12,0,0,0,.28-2l-24.08-69.83a1,1,0,0,1,.62-1.29,1,1,0,0,1,1.29.63L3922.6,707a4.19,4.19,0,0,1-3.93,5.55l-77.75.57Z"/><path class="cls-4" d="M3828.52,831.39V658.23a5.16,5.16,0,0,0-2.61-4.48l-107.84-61.11a5.16,5.16,0,0,0-5.26.1L3609.3,656.83a5.18,5.18,0,0,0-2.44,4.39V832.35a5.16,5.16,0,0,0,5.18,5.16l211.35-1A5.15,5.15,0,0,0,3828.52,831.39Z"/><path class="cls-12" d="M3719.48,573.29l127.11,80.52a3.26,3.26,0,0,1,.9,5.11h0c-5.69,6.31-16.91,7.51-24.51,2.63l-104.3-66.95a5.68,5.68,0,0,0-6,0l-101.08,67.74c-6.67,4.47-16.67,3.7-22.12-1.71l-1.76-1.74a3.26,3.26,0,0,1,.72-5.26l125.13-80.37A5.51,5.51,0,0,1,3719.48,573.29Z"/><path class="cls-13" d="M3742.82,750.05H3688.1a5.62,5.62,0,0,1-5.62-5.62V670.36a.28.28,0,0,1,0-.09c1.92-20.93,18.62-30.28,33.69-30.28h.93c14.83.38,31.18,10,32,30.32v73.44A6.29,6.29,0,0,1,3742.82,750.05Zm-58.31-79.64v74a3.59,3.59,0,0,0,3.59,3.59h54.72a4.26,4.26,0,0,0,4.26-4.26v-73.4c-.77-18.94-16.1-28-30-28.33C3702.69,641.67,3686.38,650.39,3684.51,670.41Z"/><path class="cls-7" d="M3713.56,686.27h-25.11a1.25,1.25,0,0,0-1.26,1.26v23.84a1.06,1.06,0,0,0,1,1.06h24.58a1.59,1.59,0,0,0,1.58-1.59V687.11A.84.84,0,0,0,3713.56,686.27Z"/><path class="cls-7" d="M3742.57,682.68a1.37,1.37,0,0,0,1.37-1.37v-9.83c-.62-16.22-12.39-25-25.05-26.05a1,1,0,0,0-1.11,1V681.2a1.47,1.47,0,0,0,1.47,1.48Z"/><path class="cls-7" d="M3687.19,717.17v19.88a3.66,3.66,0,0,0,3.65,3.65h22.4a1.16,1.16,0,0,0,1.16-1.16V717.17a1.16,1.16,0,0,0-1.16-1.16h-24.89A1.16,1.16,0,0,0,3687.19,717.17Z"/><path class="cls-7" d="M3713.24,645.44c-12.66,1.17-24.62,9.81-26,26v10a1.16,1.16,0,0,0,1.16,1.16h25.1a.94.94,0,0,0,1-.95V646.49A1.06,1.06,0,0,0,3713.24,645.44Z"/><path class="cls-7" d="M3717.78,687.64v23.52a1.26,1.26,0,0,0,1.26,1.27h23.53a1.38,1.38,0,0,0,1.37-1.37V687.74a1.47,1.47,0,0,0-1.48-1.47h-23.31A1.37,1.37,0,0,0,3717.78,687.64Z"/><path class="cls-7" d="M3719.25,740.7h21.28a3.41,3.41,0,0,0,3.41-3.41v-20a1.27,1.27,0,0,0-1.27-1.27h-24.05a.85.85,0,0,0-.84.85v22.36A1.47,1.47,0,0,0,3719.25,740.7Z"/><path class="cls-6" d="M3590.32,657.72a1,1,0,0,1-.85-.46,1,1,0,0,1,.3-1.41l123.19-80a6.63,6.63,0,0,1,7.24,0l15.67,10.21a1,1,0,0,1,.3,1.4,1,1,0,0,1-1.41.3l-15.67-10.21a4.59,4.59,0,0,0-5,0l-123.2,80A.94.94,0,0,1,3590.32,657.72Z"/><path class="cls-5" d="M3611.92,779.28a1,1,0,0,1-1-1V686.93a1,1,0,1,1,2,0v91.33A1,1,0,0,1,3611.92,779.28Z"/><rect class="cls-4" x="3842.62" y="738.4" width="49.08" height="76.11" rx="7.29"/><rect class="cls-4" x="3547.66" y="738.54" width="49.08" height="76.11" rx="7.29"/><path class="cls-7" d="M3645.39,595.71s.68,3.68,1,7.33a2.51,2.51,0,0,1-2.38,2.74c-4.86.25-15.25.74-19,.61a.81.81,0,0,1-.73-1.11h0a1.84,1.84,0,0,1,.92-1l17.1-8Z"/><path class="cls-14" d="M3645.9,593.54l-.48,4.41s-3,1.43-5.06-.13l1.19-4.92Z"/><path class="cls-7" d="M3665.16,597.44a26.86,26.86,0,0,1,2.1,6.79,1.53,1.53,0,0,1-1.33,1.85c-1.6.17-4.07.4-6,.41a1.54,1.54,0,0,1-1.53-1.7,13,13,0,0,1,2.94-7.1Z"/><path class="cls-15" d="M3666,591.76l-1.16,6.68a4.34,4.34,0,0,1-3.6.29l.51-7.19Z"/><path class="cls-16" d="M3644.72,510.64c.23,1.15,0,61.93-5.83,87.22-.09.41,4.77,2.87,7.55,1.46,0,0,10.67-37.06,11.57-68.39s0-1.06,0-1.06l-.89-19.35Z"/><path class="cls-17" d="M3668.56,512.14c5.4,30.8-.52,82.38-2.23,88.41,0,0-4.07.63-6.62-.5-.43-2.84.75-54.55-4.27-72.24a3.84,3.84,0,0,0-1.49-2.09l-9-6.24-.78-10.23Z"/><path class="cls-18" d="M3636.65,456.14c14.72-1.1,31.07,3.58,31.07,3.58,4.64,25.62,1.3,55.25,1.3,55.25-11.4,3.1-24.33-1.6-24.33-1.6-2-10.71-11.14-40.81-11.14-40.81-1.37,10.25-13.18,21.59-18.1,18.89,3.69-4.36.66-14.7,1.39-18C3622.08,475.06,3629.19,456.7,3636.65,456.14Z"/><path class="cls-17" d="M3655.55,473.07a.24.24,0,0,1,.16.12l14.37,13.7a.67.67,0,0,1,.18.33c.49,2.77-.77,28.66-1.17,28.27,1.42,1.89-23.67,2.07-24.13-.37,0,0-8.61-30.83-8.48-31l2.3-12.48a.61.61,0,0,1,.67-.58C3642.51,471.28,3655.55,473.07,3655.55,473.07Z"/><path class="cls-18" d="M3662.2,474.06l5.52-14.34S3681.59,469,3684,480.8a32.81,32.81,0,0,0-11.95,3.32C3671,478.53,3662.2,474.06,3662.2,474.06Z"/><path class="cls-19" d="M3650.28,487.61s15.56,8.6,20.71,1.09a5.89,5.89,0,0,0,1-4.58A32.81,32.81,0,0,1,3684,480.8a16.41,16.41,0,0,1-1.67,11.25c-9,16.82-34-.6-34-.6Z"/><path class="cls-20" d="M3651.48,444l4.82,13.53a.5.5,0,0,1-.21.59c-1.28.72-5.87,2.81-11.46-.66a2.29,2.29,0,0,1-1.07-1.63l-1.63-11.74Z"/><polygon class="cls-17" points="3639.11 455.94 3639.11 471.67 3642.69 471.92 3643.2 456.12 3639.11 455.94"/><path class="cls-17" d="M3655.19,473.22s6.11-15.48,6.5-15l-4.23-.51c-.14,0-5.86,15-5.86,15Z"/><path class="cls-21" d="M3638.76,435.22c-.08.2-1,14.38-1,14.38l8.11.35,2.85-13.33S3640.19,431.91,3638.76,435.22Z"/><path class="cls-22" d="M3645.89,438.19a1.21,1.21,0,0,1,.33,1l-.94,7a1.11,1.11,0,0,1-.09.31c-.24.54-1.13,2.21-2.82,1.2a10.26,10.26,0,0,0-3.88-1.72,1.16,1.16,0,0,0-1.24,1.1,42.33,42.33,0,0,0,.06,6.42,1.15,1.15,0,0,0,1.18,1,32,32,0,0,0,7.24-.9,1.18,1.18,0,0,0,.83-.87c.41-1.84,1.61-7,2.17-8.43s1.84-1.09,2.91-1.67,1.39-2.11,1.47-3.27c.15-2.12-.09-5.22-1.85-6.67-2.15-1.75-3.91.44-5.81-.44-2.61-1.22-6-.21-8.22,1.59-3.38,2.79,3.24,3.25,4.86,2.78S3645.19,437.48,3645.89,438.19Z"/><path class="cls-23" d="M3648.36,446.93s-.34-4.32,1.37-4.89,3.71.5,2.47,3.23C3650.65,448.67,3648.36,446.93,3648.36,446.93Z"/><path class="cls-24" d="M3632.45,432.51s2-10.93,13.35-8.85,8.59,10.55,8.59,10.55Z"/><path class="cls-25" d="M3651.87,426.16s-14.52-5-16.42,6.58c-2.52-.18-3-.23-3-.23s1.67-10.37,9.18-9.74S3651.2,424.24,3651.87,426.16Z"/><path class="cls-13" d="M3639.85,433.36a.14.14,0,0,0,.1,0l.06-.06c1.36-1.5,3.65-4,5.79-3.9a17.34,17.34,0,0,1,3.15.55c.74.17,1.5.34,2.23.45,1,.14,2.11.29,3.36.44h0a.12.12,0,0,0,.13-.11.12.12,0,0,0-.11-.14c-1.25-.15-2.35-.29-3.35-.44-.73-.1-1.48-.28-2.21-.45a19.84,19.84,0,0,0-3.2-.55c-2.26-.11-4.59,2.45-6,4l-.06.06a.13.13,0,0,0,0,.18A.09.09,0,0,0,3639.85,433.36Z"/><path class="cls-26" d="M3654.88,435.69l-25.34-.66a.39.39,0,0,1-.35-.26.38.38,0,0,1,.13-.42c1-.78,2.74-2,3.62-1.9,2.83.22,21.45,1.76,21.45,1.76S3654.86,434.26,3654.88,435.69Z"/><path class="cls-27" d="M3614.94,472.43l-16.43,43.68c-2,13.42,33.79,13.8,45.37,0l11.83-37.74a4.34,4.34,0,0,0-4.1-5.64l-36.67-.3Z"/><path class="cls-28" d="M3572.43,472.1,3556,515.78c-2,13.42,33.8,13.8,45.37,0L3615,472.45l-42.52-.35Z"/><path class="cls-29" d="M3573.32,472.12c-.07.21-4.45,0-4.75,0l-11.15-.09-15.16-.13-6.05-.06c-1.47,0-4-.5-4.94.9-.69,1.05-1.09,3-1.59,4.29l-2.3,5.78L3521.72,497l-7.35,18.46c-2,13.42,33.8,13.8,45.38,0Z"/><path class="cls-30" d="M3651.41,494.05s1.19-4.85.71-6.57-1.4-3.94-4.47-3.45a44.61,44.61,0,0,0-6.71,1.79,1.76,1.76,0,0,0,2.52,1.52l-1.45,1.12s.21,1.8,2.19.84l-1.35,1.48a1.56,1.56,0,0,0,2.3.53C3646.6,490.37,3647.3,494.64,3651.41,494.05Z"/><path class="cls-31" d="M3863.48,825.59s1.06,6,1.57,11.9a4.07,4.07,0,0,1-3.9,4.42c-7.88.33-24.75,1-30.8.7a1.33,1.33,0,0,1-1.17-1.82h0a3,3,0,0,1,1.52-1.6l27.86-12.8Z"/><path class="cls-32" d="M3864.34,822.08l-.84,7.15s-4.88,2.27-8.22-.29l2-8Z"/><path class="cls-16" d="M3863.71,687.57c.36,1.87,2,93.24-7.8,134.18a1.4,1.4,0,0,0,.81,1.62,24.38,24.38,0,0,0,8,1.61,2.39,2.39,0,0,0,2.37-1.71c2.79-9.5,16.17-57.1,17.92-102.57,2-50.8,0-1.73,0-1.73l-1.15-31.4Z"/><path class="cls-33" d="M3895.53,828.71s1.68,3,3.31,11a2.5,2.5,0,0,1-2.19,3c-2.61.25-6.61.58-9.83.56a2.48,2.48,0,0,1-2.45-2.77,20.91,20.91,0,0,1,4.88-11.48Z"/><path class="cls-34" d="M3897,819.51l-2,10.82s-2,1.46-5.84.4l1-11.64Z"/><path class="cls-17" d="M3902.36,690.37c8,48.21-1.73,119.15-5,133a2.17,2.17,0,0,1-1.75,1.65,14.54,14.54,0,0,1-6.24-.25,2,2,0,0,1-1.43-1.83c-.44-11.22.35-80.14-7.09-107.37a6.19,6.19,0,0,0-2.39-3.41L3864,701.92l-1.11-16.6Z"/><path class="cls-18" d="M3851.47,599c23.93-.39,50.34,6.29,50.34,6.29C3909,647,3903.06,695,3903.06,695c-18.53,4.86-39.43-3-39.43-3-3.08-17.4-17.46-66.37-17.46-66.37a79,79,0,0,1-29.26-9.29c6.05-7,8.91-15.94,10.14-21.22A80.12,80.12,0,0,0,3851.47,599Z"/><path class="cls-35" d="M3780.76,563.77a4.58,4.58,0,0,1,5.33-1.49c3.52,14.88,22,26.94,41,32.84-1.23,5.28-4.09,14.2-10.14,21.22C3785.42,598.63,3780.76,563.77,3780.76,563.77Z"/><path class="cls-36" d="M3781.33,564.5c-.25.78,2.6,2,4.28-1.23.06-1.53,1-8.1.07-9.35-4.87-6.65-14.33-15-14.33-15a2.26,2.26,0,0,0-.29,3.13l4.59,4.78c-1,1.73-2.13,3.2-2.68,5.29a6.49,6.49,0,0,0,.64,4.74c.81,1.45,1.91,3.34,2.95,4.81A6.33,6.33,0,0,0,3781.33,564.5Z"/><path class="cls-37" d="M3777.66,549.94l4.18,3.54,1.32,3.53-3.73,4.14s-1.26-7-2.19-8.52S3776.79,550.38,3777.66,549.94Z"/><path class="cls-18" d="M3892.63,628.5l9.18-23.18s22.36,15.19,26,34.45a52.94,52.94,0,0,0-19.44,5.21C3906.76,635.89,3892.63,628.5,3892.63,628.5Z"/><path class="cls-38" d="M3873.09,650.31s25.11,14.18,33.58,2.07a9.49,9.49,0,0,0,1.74-7.4,52.94,52.94,0,0,1,19.44-5.21A26.61,26.61,0,0,1,3925,658c-14.84,27.14-55.19-1.5-55.19-1.5Z"/><path class="cls-39" d="M3875.71,579.6l7.62,22a.8.8,0,0,1-.36,1c-2.08,1.15-9.56,4.47-18.57-1.25a3.7,3.7,0,0,1-1.72-2.67l-2.47-19.06Z"/><path class="cls-40" d="M3859.14,559.2s-8.36,15.75-7.29,22.11,11.44,5.9,20.49.73l6.32-17Z"/><path class="cls-41" d="M3871.94,573.7a.65.65,0,0,1-.29-1,17.1,17.1,0,0,0,2.33-4.94s1.5-1-3.83-2.24-13.28-3.26-15-7.8,5-11.51,9.48-6.68a.67.67,0,0,0,1,0c1.12-1.46,4.06-4.48,8.15-2.65,3.82,1.71,4.25,4.52,4.2,5.93a.65.65,0,0,0,.77.66c1.93-.37,6.57-.69,8.73,4.07,1.79,3.92.63,6.14-.43,7.23a.64.64,0,0,0,.28,1.07c1.27.39,2.91,1.47,2.75,4.44-.23,4.12-4.83,3.76-6.14,3.57a.66.66,0,0,0-.58.2c-1.12,1.25-6.18,6.52-11.66,7.16a.66.66,0,0,1-.69-.87l2.37-6.89a.64.64,0,0,0-.35-.8Z"/><path class="cls-42" d="M3871,574.67s6-4.08,6.39-.64-5.36,5-8.23,3.7Z"/><path class="cls-43" d="M3855.82,552.12s9.49-16.39,26.45-6.6,7.78,21.82,7.78,21.82Z"/><path class="cls-44" d="M3890.59,553s-20.43-16.31-30.09,1.22c-3.94-1.74-4.68-2.08-4.68-2.08s8.57-15.7,20.27-10.41S3890.61,549.53,3890.59,553Z"/><path class="cls-13" d="M3867.2,557.69a.21.21,0,0,0,.19,0l.13-.07c3-1.63,8.13-4.35,11.51-3a31,31,0,0,1,4.75,2.66c1.08.69,2.2,1.41,3.32,2,1.53.8,3.21,1.66,5.14,2.62h0a.23.23,0,0,0,.28-.1.21.21,0,0,0-.1-.28c-1.93-1-3.61-1.82-5.13-2.62-1.11-.58-2.22-1.29-3.29-2a31.92,31.92,0,0,0-4.82-2.7c-3.56-1.48-8.76,1.31-11.87,3l-.13.07a.21.21,0,0,0-.09.28A.28.28,0,0,0,3867.2,557.69Z"/><path class="cls-45" d="M3890,570l-40.29-15.49a.64.64,0,0,1,0-1.21c2.08-.67,5.52-1.61,6.9-1,4.41,2,33.41,15,33.41,15S3890.77,567.68,3890,570Z"/><path class="cls-6" d="M3800.13,600.62a.11.11,0,0,0,0-.06l.07,0,.35-.26,4.95-3.61a2.75,2.75,0,0,1,4.21,1.31l2.47,7.07,4.73,13.49S3795,618.64,3800.13,600.62Z"/><path class="cls-13" d="M3800.13,600.62l.09-.1.35-.26c-1.76,2.59,1.25,3.07,11.63,4.77,1.65.27,3.48.56,5.51.91,11.18,1.88,21.47-3.48,26.18-6.49a2.76,2.76,0,0,1,4,1.26c4,9.59,15.86,37.92,16.45,39l11.59,27.15s.14,4.46-6.39,8.74-8.54,5.89-17.82,4.23a116.69,116.69,0,0,1-15.44-4.29h0l0,.68a46.49,46.49,0,0,0-7.63-2.06h0a6.75,6.75,0,0,1-.24-.72L3815.09,642h0l-.25-1a151.53,151.53,0,0,1-11.38-19.65,2,2,0,0,0-.06-.23c-.57-1.21-1.05-2.36-1.5-3.44C3797.35,606.48,3799.05,602.1,3800.13,600.62Z"/><path class="cls-46" d="M3836.26,676.2a46.49,46.49,0,0,0-7.63-2.06h0l-13.2-31.29a6.53,6.53,0,0,1-.33-.9h0c-6.59-8.52-9.29-15.3-11.73-20.68,0-.08,0-.15,0-.23-.34-.76-.6-1.5-.89-2.21v-.09c.3.4,10.15,13.68,13.59,18.14C3819.14,640.9,3833.16,669.84,3836.26,676.2Z"/><path class="cls-47" d="M3872.8,656.7s1.91-7.85,1.14-10.64-2.26-6.36-7.23-5.56a71.79,71.79,0,0,0-10.84,2.89s.3,3.62,4.07,2.45l-2.34,1.82s.34,2.9,3.53,1.35l-2.18,2.4a2.54,2.54,0,0,0,3.72.86C3865,650.74,3866.14,657.64,3872.8,656.7Z"/><path class="cls-3" d="M1080.14,843.27c-64.43,0-1052.57.07-1052.57,0C-8.63,806.57-19.29,719,59.1,634.35c28.71-31-47.47-90.41,2-185.75,18.79-36.22,93.85-98.49,291.94-50.17,84.23,20.54,155.7-12.26,171.52-24.11a176.36,176.36,0,0,1,29.14-17.53C662.7,304,851.06,337.64,933.28,401c11.65,9,64.63,55.49,22.87,119.41-26.37,40.35,84.09,78.89,123.34,125C1179.29,762.58,1081.05,841.74,1080.14,843.27Z"/><path class="cls-4" d="M462.43,626.94C458,608.57,448,593.47,435.5,584.11a53.72,53.72,0,0,1-20.9-34.43c-.22-1.45-.52-2.9-.87-4.36-5.36-22.09-23.2-36.72-39.85-32.68s-25.82,25.22-20.46,47.3a53.14,53.14,0,0,0,4.74,12.52,54,54,0,0,1,4.75,39.47,79.16,79.16,0,0,0-.15,39.18c5,20.54,16.92,37,31.44,45.91a52.61,52.61,0,0,1,14.27,12.82c6.52,8.49,16.22,13,25.57,10.7,10.09-2.45,16.95-12.06,18.19-23.75a56.5,56.5,0,0,1,5.66-19C464.85,663.72,466.93,645.51,462.43,626.94Z"/><path class="cls-5" d="M385.41,534.72c5.71,14.07,11,28.31,16.09,42.61,1.28,3.58,2.5,7.17,3.73,10.76l1.85,5.38,1.81,5.41c1.19,3.6,2.42,7.19,3.57,10.81l3.45,10.85c2.2,7.27,4.47,14.52,6.54,21.82,1,3.66,2.15,7.29,3.12,11l2.95,11c3.78,14.71,7.2,29.53,9.86,44.48l-.64.12-2.42-11.11-.59-2.78-.67-2.76-1.35-5.53-1.33-5.53c-.44-1.84-.95-3.67-1.42-5.5-1-3.67-1.91-7.34-2.91-11-4.06-14.6-8.32-29.16-12.88-43.62-2.33-7.22-4.6-14.45-7-21.65l-1.77-5.4-1.82-5.39c-1.21-3.6-2.42-7.19-3.67-10.77q-3.65-10.77-7.45-21.5T384.8,535Z"/><path class="cls-6" d="M558.48,614.64c-2.15-22.45-11.45-42-24.6-55.14A64,64,0,0,1,515,515.28c0-1.74-.12-3.51-.29-5.29-2.59-27-21.23-47.31-41.64-45.35s-34.85,25.43-32.26,52.43a63.65,63.65,0,0,0,3.48,15.59,64.3,64.3,0,0,1-1.09,47.43,94.26,94.26,0,0,0-6.83,46.26c2.4,25.1,13.74,46.57,29.42,59.54a63.16,63.16,0,0,1,14.73,17.57c6.27,11.13,17,18,28.46,16.95,12.36-1.18,22.11-11.37,25.57-25A67.13,67.13,0,0,1,544.45,674C555.1,658.5,560.65,637.34,558.48,614.64Z"/><path class="cls-5" d="M483,492.68c4.38,17.59,8.18,35.3,11.81,53.06.9,4.44,1.74,8.89,2.59,13.34l1.28,6.67,1.22,6.69c.79,4.46,1.65,8.91,2.39,13.38l2.24,13.4c1.37,9,2.83,17.9,4,26.89.61,4.49,1.31,9,1.83,13.47L512,653.07c2,18,3.51,36.1,4.12,54.21l-.78,0-1-13.54-.23-3.38-.32-3.38-.66-6.76-.64-6.75c-.21-2.25-.5-4.5-.75-6.74-.52-4.5-1-9-1.56-13.48-2.33-17.95-4.9-35.86-7.84-53.72-1.54-8.92-3-17.85-4.6-26.75l-1.18-6.69-1.24-6.67c-.82-4.45-1.64-8.9-2.51-13.34q-2.49-13.35-5.17-26.66t-5.44-26.6Z"/><path class="cls-7" d="M743.53,832.42H642.74a8.15,8.15,0,0,1-8.15-8.15V723.82a8.14,8.14,0,0,1,8.15-8.14H751.68V824.27A8.15,8.15,0,0,1,743.53,832.42Z"/><path class="cls-48" d="M766.31,716.16H628L567,614.41H736.69l35.07,93.21A6,6,0,0,1,766.31,716.16Z"/><path class="cls-7" d="M385.09,834.36H485.6V714.08H374V823.31A11.06,11.06,0,0,0,385.09,834.36Z"/><path class="cls-49" d="M358.05,716.16H489.87l73.7-101.75-177.3,2.85-33.41,90.6A5.84,5.84,0,0,0,358.05,716.16Z"/><path class="cls-2" d="M766.31,716.16H628L567,614.41H736.69l35.07,93.21A6,6,0,0,1,766.31,716.16Z"/><g class="cls-50"><rect class="cls-11" x="661.56" y="710.42" width="108.39" height="5.75"/><rect class="cls-11" x="661.56" y="700.82" width="104.45" height="5.75"/><rect class="cls-11" x="661.56" y="690.62" width="101.13" height="5.75"/><rect class="cls-11" x="661.56" y="681.02" width="97.19" height="5.75"/><rect class="cls-11" x="658.86" y="670.08" width="96.57" height="5.75"/><rect class="cls-11" x="658.86" y="660.48" width="92.81" height="5.75"/><rect class="cls-11" x="653.26" y="650.25" width="94.49" height="5.75"/><rect class="cls-11" x="653.26" y="640.64" width="92.21" height="5.75"/><rect class="cls-11" x="646" y="630.33" width="95.32" height="5.75"/><rect class="cls-11" x="641.52" y="620.73" width="120.24" height="5.75"/><rect class="cls-11" x="748.08" y="601.35" width="5.52" height="120.95" transform="translate(-179.02 291.51) rotate(-19.68)"/><rect class="cls-11" x="693.61" y="606.63" width="5.74" height="120.95" transform="translate(-183.97 273.51) rotate(-19.68)"/></g><path class="cls-11" d="M737.52,617.25l-166.63,1.63-3.69-11.73c-.17-.53.35-1,1-1H726.6c6,0,10.92,3,10.92,6.76Z"/><path class="cls-6" d="M440.65,713.12a1,1,0,0,0,1-1,1,1,0,0,0-1-1l-77.75-.57a2.12,2.12,0,0,1-1.75-.91,2.15,2.15,0,0,1-.27-2L385,637.83a1,1,0,0,0-1.92-.66L359,707a4.19,4.19,0,0,0,3.93,5.55l77.75.57Z"/><path class="cls-4" d="M453,831.39V658.23a5.14,5.14,0,0,1,2.62-4.48L563.5,592.64a5.15,5.15,0,0,1,5.25.1l103.51,64.09a5.15,5.15,0,0,1,2.44,4.39V832.35a5.16,5.16,0,0,1-5.18,5.16l-211.35-1A5.16,5.16,0,0,1,453,831.39Z"/><path class="cls-51" d="M562.09,573.29,435,653.81a3.25,3.25,0,0,0-.9,5.11h0c5.69,6.31,16.9,7.51,24.5,2.63l104.3-66.95a5.7,5.7,0,0,1,6,0L670,662.39c6.66,4.47,16.67,3.7,22.12-1.71l1.75-1.74a3.25,3.25,0,0,0-.71-5.26L568,573.31A5.51,5.51,0,0,0,562.09,573.29Z"/><path class="cls-13" d="M532.46,743.76V670.32c.82-20.29,17.16-29.94,32-30.32h.93c15.06,0,31.77,9.35,33.69,30.28,0,0,0,.06,0,.09v74.07a5.63,5.63,0,0,1-5.62,5.62H538.74A6.29,6.29,0,0,1,532.46,743.76Zm32-101.73c-13.92.36-29.25,9.39-30,28.33v73.4a4.26,4.26,0,0,0,4.25,4.26h54.73a3.59,3.59,0,0,0,3.59-3.59v-74C595.19,650.39,578.87,641.67,564.51,642Z"/><path class="cls-7" d="M568,686.27h25.1a1.26,1.26,0,0,1,1.27,1.26v23.84a1.06,1.06,0,0,1-1.06,1.06H568.75a1.59,1.59,0,0,1-1.59-1.59V687.11A.84.84,0,0,1,568,686.27Z"/><path class="cls-7" d="M539,682.68a1.37,1.37,0,0,1-1.37-1.37v-9.83c.61-16.22,12.38-25,25-26.05a1,1,0,0,1,1.11,1V681.2a1.48,1.48,0,0,1-1.48,1.48Z"/><path class="cls-7" d="M594.38,717.17v19.88a3.66,3.66,0,0,1-3.65,3.65H568.32a1.16,1.16,0,0,1-1.16-1.16V717.17a1.16,1.16,0,0,1,1.16-1.16h24.9A1.16,1.16,0,0,1,594.38,717.17Z"/><path class="cls-7" d="M568.33,645.44c12.65,1.17,24.62,9.81,26,26v10a1.16,1.16,0,0,1-1.16,1.16H568.11a1,1,0,0,1-1-.95V646.49A1.06,1.06,0,0,1,568.33,645.44Z"/><path class="cls-7" d="M563.79,687.64v23.52a1.27,1.27,0,0,1-1.27,1.27H539a1.37,1.37,0,0,1-1.37-1.37V687.74a1.47,1.47,0,0,1,1.47-1.47h23.32A1.37,1.37,0,0,1,563.79,687.64Z"/><path class="cls-7" d="M562.31,740.7H541a3.41,3.41,0,0,1-3.41-3.41v-20a1.26,1.26,0,0,1,1.26-1.27h24.05a.85.85,0,0,1,.85.85v22.36A1.48,1.48,0,0,1,562.31,740.7Z"/><path class="cls-6" d="M691.24,657.72a1,1,0,0,0,.56-1.87l-123.2-80a6.61,6.61,0,0,0-7.23,0l-15.68,10.21a1,1,0,0,0-.29,1.4,1,1,0,0,0,1.4.3l15.68-10.21a4.59,4.59,0,0,1,5,0l123.19,80A.94.94,0,0,0,691.24,657.72Z"/><path class="cls-5" d="M669.65,779.28a1,1,0,0,0,1-1V686.93a1,1,0,1,0-2,0v91.33A1,1,0,0,0,669.65,779.28Z"/><rect class="cls-4" x="389.87" y="738.4" width="49.08" height="76.11" rx="7.29"/><rect class="cls-4" x="684.83" y="738.54" width="49.08" height="76.11" rx="7.29"/><path class="cls-7" d="M636.18,595.71s-.69,3.68-1,7.33a2.51,2.51,0,0,0,2.38,2.74c4.85.25,15.25.74,19,.61a.82.82,0,0,0,.73-1.11h0a1.82,1.82,0,0,0-.93-1l-17.09-8Z"/><path class="cls-52" d="M635.67,593.54l.48,4.41s3,1.43,5.06-.13L640,592.9Z"/><path class="cls-7" d="M616.41,597.44a26.5,26.5,0,0,0-2.11,6.79,1.54,1.54,0,0,0,1.33,1.85c1.61.17,4.08.4,6,.41a1.54,1.54,0,0,0,1.54-1.7,13,13,0,0,0-3-7.1Z"/><path class="cls-53" d="M615.55,591.76l1.16,6.68a4.34,4.34,0,0,0,3.6.29l-.52-7.19Z"/><path class="cls-16" d="M636.85,510.64c-.24,1.15,0,61.93,5.82,87.22.1.41-4.76,2.87-7.54,1.46,0,0-10.68-37.06-11.58-68.39s0-1.06,0-1.06l.89-19.35Z"/><path class="cls-17" d="M613,512.14c-5.41,30.8.52,82.38,2.22,88.41,0,0,4.08.63,6.63-.5.42-2.84-.75-54.55,4.27-72.24a3.79,3.79,0,0,1,1.49-2.09l9-6.24.78-10.23Z"/><path class="cls-18" d="M644.92,456.14c-14.72-1.1-31.08,3.58-31.08,3.58-4.64,25.62-1.29,55.25-1.29,55.25,11.39,3.1,24.32-1.6,24.32-1.6,2-10.71,11.15-40.81,11.15-40.81,1.37,10.25,13.18,21.59,18.09,18.89-3.69-4.36-.66-14.7-1.39-18C659.49,475.06,652.38,456.7,644.92,456.14Z"/><path class="cls-17" d="M626,473.07a.22.22,0,0,0-.16.12l-14.37,13.7a.6.6,0,0,0-.18.33c-.49,2.77.77,28.66,1.16,28.27-1.42,1.89,23.67,2.07,24.13-.37,0,0,8.61-30.83,8.49-31l-2.31-12.48a.61.61,0,0,0-.66-.58C639.06,471.28,626,473.07,626,473.07Z"/><path class="cls-18" d="M619.37,474.06l-5.53-14.34S600,469,597.59,480.8a32.71,32.71,0,0,1,11.95,3.32C610.62,478.53,619.37,474.06,619.37,474.06Z"/><path class="cls-54" d="M631.28,487.61s-15.55,8.6-20.7,1.09a5.9,5.9,0,0,1-1-4.58,32.71,32.71,0,0,0-11.95-3.32,16.42,16.42,0,0,0,1.68,11.25c9,16.82,34-.6,34-.6Z"/><path class="cls-55" d="M630.08,444l-4.82,13.53a.49.49,0,0,0,.22.59c1.27.72,5.86,2.81,11.45-.66a2.34,2.34,0,0,0,1.08-1.63l1.63-11.74Z"/><polygon class="cls-17" points="642.46 455.94 642.46 471.67 638.88 471.92 638.37 456.12 642.46 455.94"/><path class="cls-17" d="M626.37,473.22s-6.1-15.48-6.49-15l4.22-.51c.15,0,5.87,15,5.87,15Z"/><path class="cls-56" d="M642.81,435.22c.08.2,1,14.38,1,14.38l-8.11.35-2.85-13.33S641.38,431.91,642.81,435.22Z"/><path class="cls-57" d="M635.68,438.19a1.15,1.15,0,0,0-.33,1l.94,7a1.09,1.09,0,0,0,.08.31c.24.54,1.14,2.21,2.83,1.2a10.19,10.19,0,0,1,3.88-1.72,1.17,1.17,0,0,1,1.24,1.1,43.69,43.69,0,0,1-.06,6.42,1.16,1.16,0,0,1-1.18,1,32,32,0,0,1-7.24-.9,1.15,1.15,0,0,1-.83-.87c-.42-1.84-1.61-7-2.18-8.43s-1.83-1.09-2.91-1.67-1.39-2.11-1.47-3.27c-.14-2.12.09-5.22,1.86-6.67,2.14-1.75,3.91.44,5.81-.44,2.61-1.22,6-.21,8.21,1.59,3.38,2.79-3.23,3.25-4.85,2.78S636.37,437.48,635.68,438.19Z"/><path class="cls-58" d="M633.21,446.93s.34-4.32-1.37-4.89-3.72.5-2.47,3.23C630.92,448.67,633.21,446.93,633.21,446.93Z"/><path class="cls-59" d="M649.11,432.51s-2-10.93-13.34-8.85-8.59,10.55-8.59,10.55Z"/><path class="cls-60" d="M629.7,426.16s14.51-5,16.41,6.58c2.53-.18,3-.23,3-.23s-1.66-10.37-9.17-9.74S630.37,424.24,629.7,426.16Z"/><path class="cls-13" d="M641.72,433.36a.12.12,0,0,1-.1,0l-.06-.06c-1.37-1.5-3.65-4-5.8-3.9a17.49,17.49,0,0,0-3.15.55c-.73.17-1.49.34-2.23.45-1,.14-2.1.29-3.36.44h0a.13.13,0,1,1,0-.25c1.26-.15,2.35-.29,3.36-.44.72-.1,1.48-.28,2.21-.45a19.72,19.72,0,0,1,3.19-.55c2.26-.11,4.6,2.45,6,4l.06.06a.14.14,0,0,1,0,.18A.11.11,0,0,1,641.72,433.36Z"/><path class="cls-61" d="M626.69,435.69,652,435a.39.39,0,0,0,.35-.26.38.38,0,0,0-.13-.42c-1-.78-2.74-2-3.62-1.9-2.84.22-21.45,1.76-21.45,1.76S626.71,434.26,626.69,435.69Z"/><path class="cls-62" d="M666.62,472.43l16.44,43.68c2,13.42-33.8,13.8-45.38,0l-11.82-37.74a4.34,4.34,0,0,1,4.1-5.64l36.66-.3Z"/><path class="cls-63" d="M709.13,472.1l16.44,43.68c2,13.42-33.8,13.8-45.38,0l-13.57-43.33,42.51-.35Z"/><path class="cls-64" d="M708.24,472.12c.07.21,4.45,0,4.75,0l11.15-.09,15.16-.13,6.06-.06c1.46,0,4-.5,4.94.9a28.88,28.88,0,0,1,1.58,4.29l2.3,5.78L759.85,497l7.35,18.46c2,13.42-33.8,13.8-45.38,0Z"/><path class="cls-65" d="M630.15,494.05s-1.18-4.85-.7-6.57,1.4-3.94,4.47-3.45a44.32,44.32,0,0,1,6.7,1.79,1.76,1.76,0,0,1-2.52,1.52l1.45,1.12s-.21,1.8-2.18.84l1.35,1.48a1.57,1.57,0,0,1-2.3.53C635,490.37,634.27,494.64,630.15,494.05Z"/><path class="cls-66" d="M418.09,825.59s-1.06,6-1.58,11.9a4.07,4.07,0,0,0,3.9,4.42c7.89.33,24.76,1,30.81.7a1.33,1.33,0,0,0,1.17-1.82h0a3,3,0,0,0-1.52-1.6L423,826.39Z"/><path class="cls-67" d="M417.22,822.08l.85,7.15s4.88,2.27,8.21-.29l-2-8Z"/><path class="cls-16" d="M417.86,687.57c-.37,1.87-2,93.24,7.8,134.18a1.39,1.39,0,0,1-.82,1.62,24.31,24.31,0,0,1-7.95,1.61,2.4,2.4,0,0,1-2.38-1.71c-2.79-9.5-16.17-57.1-17.91-102.57-2-50.8,0-1.73,0-1.73l1.14-31.4Z"/><path class="cls-68" d="M386,828.71s-1.68,3-3.31,11a2.5,2.5,0,0,0,2.19,3c2.6.25,6.61.58,9.82.56a2.48,2.48,0,0,0,2.46-2.77,21,21,0,0,0-4.89-11.48Z"/><path class="cls-69" d="M384.56,819.51l2,10.82s2,1.46,5.85.4l-.95-11.64Z"/><path class="cls-17" d="M379.2,690.37c-8,48.21,1.74,119.15,5,133a2.18,2.18,0,0,0,1.75,1.65,14.59,14.59,0,0,0,6.25-.25,2,2,0,0,0,1.43-1.83c.44-11.22-.36-80.14,7.09-107.37a6.17,6.17,0,0,1,2.38-3.41l14.45-10.27,1.11-16.6Z"/><path class="cls-18" d="M430.1,599c-23.94-.39-50.35,6.29-50.35,6.29C372.62,647,378.5,695,378.5,695c18.53,4.86,39.44-3,39.44-3,3.08-17.4,17.45-66.37,17.45-66.37a79.07,79.07,0,0,0,29.27-9.29c-6.06-7-8.91-15.94-10.15-21.22A80.06,80.06,0,0,1,430.1,599Z"/><path class="cls-70" d="M500.81,563.77a4.58,4.58,0,0,0-5.33-1.49c-3.52,14.88-22,26.94-41,32.84,1.24,5.28,4.09,14.2,10.15,21.22C496.15,598.63,500.81,563.77,500.81,563.77Z"/><path class="cls-71" d="M500.24,564.5c.24.78-2.61,2-4.28-1.23-.06-1.53-1-8.1-.08-9.35,4.88-6.65,14.34-15,14.34-15a2.25,2.25,0,0,1,.28,3.13l-4.59,4.78c1,1.73,2.13,3.2,2.68,5.29a6.44,6.44,0,0,1-.64,4.74,54.52,54.52,0,0,1-2.94,4.81A6.35,6.35,0,0,1,500.24,564.5Z"/><path class="cls-72" d="M503.91,549.94l-4.19,3.54L498.41,557l3.73,4.14s1.25-7,2.18-8.52S504.77,550.38,503.91,549.94Z"/><path class="cls-18" d="M388.93,628.5l-9.18-23.18s-22.36,15.19-26,34.45A52.85,52.85,0,0,1,373.15,645C374.81,635.89,388.93,628.5,388.93,628.5Z"/><path class="cls-73" d="M408.47,650.31s-25.1,14.18-33.57,2.07a9.54,9.54,0,0,1-1.75-7.4,52.85,52.85,0,0,0-19.43-5.21A26.6,26.6,0,0,0,356.6,658c14.84,27.14,55.19-1.5,55.19-1.5Z"/><path class="cls-74" d="M405.85,579.6l-7.61,22a.78.78,0,0,0,.36,1c2.08,1.15,9.56,4.47,18.57-1.25a3.7,3.7,0,0,0,1.72-2.67l2.47-19.06Z"/><path class="cls-75" d="M422.43,559.2s8.36,15.75,7.29,22.11-11.44,5.9-20.49.73l-6.33-17Z"/><path class="cls-76" d="M409.63,573.7a.65.65,0,0,0,.28-1,17.11,17.11,0,0,1-2.32-4.94s-1.51-1,3.82-2.24,13.28-3.26,14.95-7.8-5-11.51-9.48-6.68a.67.67,0,0,1-1,0c-1.12-1.46-4.06-4.48-8.14-2.65-3.83,1.71-4.26,4.52-4.21,5.93a.64.64,0,0,1-.76.66c-1.93-.37-6.57-.69-8.74,4.07-1.78,3.92-.62,6.14.43,7.23a.64.64,0,0,1-.27,1.07c-1.27.39-2.91,1.47-2.75,4.44.23,4.12,4.83,3.76,6.14,3.57a.64.64,0,0,1,.57.2c1.13,1.25,6.19,6.52,11.66,7.16a.66.66,0,0,0,.69-.87L408.1,575a.64.64,0,0,1,.35-.8Z"/><path class="cls-77" d="M410.58,574.67s-5.95-4.08-6.39-.64,5.36,5,8.24,3.7Z"/><path class="cls-78" d="M425.74,552.12s-9.49-16.39-26.44-6.6-7.79,21.82-7.79,21.82Z"/><path class="cls-79" d="M391,553s20.43-16.31,30.08,1.22c3.95-1.74,4.68-2.08,4.68-2.08s-8.57-15.7-20.26-10.41S391,549.53,391,553Z"/><path class="cls-13" d="M414.36,557.69a.19.19,0,0,1-.18,0l-.14-.07c-3-1.63-8.13-4.35-11.51-3a30.9,30.9,0,0,0-4.74,2.66c-1.09.69-2.21,1.41-3.33,2-1.52.8-3.21,1.66-5.14,2.62h0a.23.23,0,0,1-.28-.1.2.2,0,0,1,.1-.28c1.92-1,3.6-1.82,5.13-2.62,1.1-.58,2.22-1.29,3.29-2a31.82,31.82,0,0,1,4.81-2.7c3.56-1.48,8.77,1.31,11.87,3l.13.07a.2.2,0,0,1,.09.28A.22.22,0,0,1,414.36,557.69Z"/><path class="cls-80" d="M391.57,570l40.29-15.49a.65.65,0,0,0,.41-.62.64.64,0,0,0-.45-.59c-2.07-.67-5.51-1.61-6.89-1-4.42,2-33.42,15-33.42,15S390.79,567.68,391.57,570Z"/><path class="cls-6" d="M481.43,600.62l0-.06-.07,0-.34-.26-5-3.61a2.74,2.74,0,0,0-4.2,1.31L469.36,605l-4.73,13.49S486.53,618.64,481.43,600.62Z"/><path class="cls-13" d="M481.44,600.62l-.09-.1-.35-.26c1.76,2.59-1.26,3.07-11.64,4.77-1.64.27-3.48.56-5.51.91-11.18,1.88-21.46-3.48-26.17-6.49a2.75,2.75,0,0,0-4,1.26c-4,9.59-15.87,37.92-16.45,39l-11.59,27.15s-.15,4.46,6.38,8.74,8.54,5.89,17.82,4.23a116.83,116.83,0,0,0,15.45-4.29h0s0,.68,0,.68a46.23,46.23,0,0,1,7.62-2.06h0a5.13,5.13,0,0,0,.25-.72L466.47,642h0l.25-1a150.62,150.62,0,0,0,11.39-19.65,2,2,0,0,1,.06-.23c.57-1.21,1.05-2.36,1.49-3.44C484.21,606.48,482.52,602.1,481.44,600.62Z"/><path class="cls-81" d="M445.31,676.2a46.23,46.23,0,0,1,7.62-2.06h0l13.21-31.29a8.08,8.08,0,0,0,.32-.9h0c6.6-8.52,9.3-15.3,11.73-20.68,0-.08,0-.15,0-.23.34-.76.61-1.5.9-2.21v-.09c-.31.4-10.15,13.68-13.6,18.14C462.42,640.9,448.4,669.84,445.31,676.2Z"/><path class="cls-82" d="M408.77,656.7s-1.91-7.85-1.14-10.64,2.26-6.36,7.23-5.56a72.18,72.18,0,0,1,10.84,2.89s-.3,3.62-4.08,2.45l2.34,1.82s-.33,2.9-3.52,1.35l2.18,2.4a2.54,2.54,0,0,1-3.72.86C416.55,650.74,415.42,657.64,408.77,656.7Z"/><rect class="cls-83" x="0.84" y="841.61" width="4280.72" height="1.68" rx="0.84"/><rect class="cls-84" width="4281.57" height="843.3"/></g></g></svg>