<svg xmlns="http://www.w3.org/2000/svg" viewBox="0 0 400 120"><defs><style>.cls-1{fill:#0084ff;}.cls-2{fill:none;}</style></defs><g id="Layer_2" data-name="Layer 2"><g id="Layer_1-2" data-name="Layer 1"><path class="cls-1" d="M200.56,59.05a4,4,0,0,0-4.2,2.37A3.8,3.8,0,0,0,197.64,66a1.19,1.19,0,0,1,.36.76c0,1,0,2,0,3v2.84a2,2,0,1,0,4,0c0-1.87,0-3.75,0-5.62a1.26,1.26,0,0,1,.55-1.13,3.46,3.46,0,0,0,1.42-3.18A4,4,0,0,0,200.56,59.05Z"/><path class="cls-1" d="M207.79,34.09a7.9,7.9,0,0,0-15.71,1.24c0,3.77,0,7.54,0,11.31a3.89,3.89,0,0,0,0,.47h15.75c0-.11,0-.14,0-.18,0-3.4,0-6.8,0-10.19A21.19,21.19,0,0,0,207.79,34.09Z"/><path class="cls-1" d="M244.11,11.92C233.25,9.76,223,7.69,212.71,5.69c-4.55-.89-9.32-2.93-13.64-2.25-14.27,2.25-28.39,5.5-43.16,8.49,0,12-.06,23.68,0,35.33.2,31,14.76,53.48,41.13,68.79a6.81,6.81,0,0,0,5.69,0,80.31,80.31,0,0,0,33.38-34C247.9,59.61,242.76,35.53,244.11,11.92ZM223.73,75.1a7.84,7.84,0,0,1-7.9,7.63c-5.67,0-11.34,0-17,0-4.86,0-9.73,0-14.6,0a7.83,7.83,0,0,1-7.77-6.16,8.64,8.64,0,0,1-.2-2c0-6.45,0-12.89,0-19.34a7.9,7.9,0,0,1,7.6-8.13l.32,0c0-2.67,0-5.28,0-7.89a46.61,46.61,0,0,1,.15-5.8,15.14,15.14,0,0,1,9.94-12.83A15,15,0,0,1,209.88,23a15.19,15.19,0,0,1,5.94,12.29c.05,3.66,0,7.33,0,11V47c.92.21,1.81.34,2.65.62a7.7,7.7,0,0,1,5.25,7.15Q223.79,64.94,223.73,75.1Z"/><rect class="cls-2" width="400" height="120"/></g></g></svg>