<svg xmlns="http://www.w3.org/2000/svg" viewBox="0 0 400 120"><defs><style>.cls-1{fill:#0084ff;}.cls-2{fill:none;}</style></defs><g id="Layer_2" data-name="Layer 2"><g id="Layer_1-2" data-name="Layer 1"><path class="cls-1" d="M179.69,54.92c0-3.42,0-6.77,0-10.12a59.49,59.49,0,0,1,.19-7.44c1.07-7.89,5.33-13.52,12.75-16.45,7.18-2.83,14-1.7,20,3.06a19.46,19.46,0,0,1,7.61,15.75c.06,4.71,0,9.41,0,14.11v1c1.18.27,2.33.44,3.41.8a9.91,9.91,0,0,1,6.73,9.17c0,8.68.06,17.37,0,26.06a10,10,0,0,1-10.12,9.79c-7.27,0-14.54,0-21.81,0q-9.36,0-18.72,0a10,10,0,0,1-10-7.91,11.06,11.06,0,0,1-.26-2.5q0-12.4,0-24.81A10.13,10.13,0,0,1,179.28,55Zm30.4,0a1.67,1.67,0,0,0,0-.24c0-4.36,0-8.71,0-13.07a27.38,27.38,0,0,0-.15-3.39,10.13,10.13,0,0,0-20.15,1.6c0,4.83,0,9.66,0,14.49,0,.2,0,.4,0,.61ZM197.45,84v3.65a2.55,2.55,0,1,0,5.08,0c0-2.41,0-4.81,0-7.21a1.56,1.56,0,0,1,.7-1.45A4.45,4.45,0,0,0,205,74.91a5.07,5.07,0,0,0-4.33-4.67,5.13,5.13,0,0,0-5.38,3A4.87,4.87,0,0,0,197,79.2a1.47,1.47,0,0,1,.45,1C197.48,81.45,197.45,82.71,197.45,84Z"/><rect class="cls-2" width="400" height="120"/></g></g></svg>