<svg id="Capa_1" enable-background="new 0 0 511.977 511.977" height="512" viewBox="0 0 511.977 511.977" width="512" xmlns="http://www.w3.org/2000/svg"><g><g><path d="m286.29 496.384 84.845-48.983c50.005-28.869 80.81-82.223 80.81-139.963v-209.094c0-10.771-8.408-19.723-19.166-20.271-90.919-4.631-140.293-41.658-162.337-64.456-7.883-8.153-21.025-8.153-28.909 0-22.043 22.798-71.417 59.825-162.337 64.456-10.757.548-19.166 9.5-19.166 20.271v209.094c0 57.74 30.805 111.094 80.81 139.963l84.845 48.983c18.753 10.825 41.854 10.825 60.605 0z" fill="#eab14d"/></g><g><path d="m197.403 424.668c-38.185 0-74.443-8.248-107.093-23.054 13.182 18.387 30.281 34.096 50.532 45.787l84.845 48.983c18.751 10.825 41.852 10.825 60.603 0l84.845-48.983c50.005-28.869 80.81-82.223 80.81-139.963v-91.212c-23.756 118.871-128.683 208.442-254.542 208.442z" fill="#e7a52e"/></g><g><path d="m255.988 464.099c-3.541 0-7.034-.936-10.101-2.706l-84.845-48.983c-37.384-21.583-60.607-61.806-60.607-104.972v-181.451c0-5.076 3.767-9.381 8.803-10.014 67.342-8.473 112.617-33.512 140.514-55.518 3.659-2.886 8.813-2.886 12.472 0 27.898 22.006 73.173 47.044 140.514 55.518 5.036.634 8.803 4.939 8.803 10.014v181.451c0 43.167-23.223 83.39-60.607 104.973l-84.845 48.982c-3.067 1.771-6.559 2.706-10.101 2.706z" fill="#ffe07d"/></g><g><path d="m163.06 390.325c-10.678 0-21.202-.659-31.542-1.912 8.413 9.387 18.327 17.533 29.524 23.997l84.845 48.983c3.067 1.771 6.56 2.706 10.101 2.706s7.034-.936 10.101-2.706l84.845-48.982c37.384-21.583 60.607-61.806 60.607-104.973v-101.392c-32.279 106.638-131.306 184.279-248.481 184.279z" fill="#ffd064"/></g><g><g><path d="m225.683 352.11c-7.756 0-15.511-2.958-21.429-8.875l-60.61-60.61c-11.835-11.835-11.835-31.024 0-42.859s31.023-11.835 42.857 0l39.181 39.182 99.791-99.792c11.835-11.835 31.023-11.835 42.857 0 11.835 11.835 11.835 31.024 0 42.859l-121.22 121.22c-5.915 5.917-13.671 8.875-21.427 8.875z" fill="#95d6a4"/></g></g><g><path d="m368.332 179.156c-3.068-3.068-6.632-5.334-10.433-6.811 4.221 10.859 1.956 23.659-6.811 32.426l-121.219 121.22c-5.917 5.917-13.673 8.875-21.429 8.875s-15.511-2.958-21.429-8.875l17.244 17.244c5.917 5.917 13.673 8.875 21.429 8.875s15.511-2.958 21.429-8.875l121.22-121.22c11.834-11.835 11.834-31.024-.001-42.859z" fill="#78c2a4"/></g><g><path d="m451.948 178.293c4.142 0 7.5-3.357 7.5-7.5v-72.45c0-14.813-11.547-27.007-26.289-27.76-88.945-4.529-136.75-40.904-157.328-62.183-5.238-5.417-12.285-8.4-19.843-8.4s-14.605 2.983-19.841 8.399c-20.58 21.279-68.385 57.654-157.332 62.184-14.74.753-26.287 12.946-26.287 27.76v209.101c0 60.221 32.401 116.339 84.561 146.455l84.849 48.979c10.503 6.067 22.275 9.1 34.051 9.1 11.773 0 23.549-3.033 34.049-9.099l84.851-48.979c52.158-30.116 84.56-86.234 84.56-146.455v-101.65c0-4.143-3.358-7.5-7.5-7.5s-7.5 3.357-7.5 7.5v101.65c0 54.879-29.528 106.02-77.06 133.465l-84.852 48.98c-16.375 9.459-36.722 9.458-53.099-.001l-84.85-48.979c-47.532-27.445-77.06-78.586-77.06-133.465v-209.102c0-6.82 5.294-12.434 12.051-12.779 94.085-4.791 145.234-43.869 167.351-66.737 2.385-2.467 5.602-3.826 9.058-3.826s6.673 1.359 9.059 3.827c22.115 22.867 73.264 61.945 167.348 66.736 6.759.346 12.053 5.959 12.053 12.779v72.45c0 4.143 3.358 7.5 7.5 7.5z"/><path d="m100.438 198.293c-4.142 0-7.5 3.357-7.5 7.5v101.65c0 45.828 24.657 88.539 64.35 111.465l84.853 48.981c4.212 2.429 9 3.713 13.847 3.713s9.635-1.284 13.85-3.715l84.852-48.98c39.692-22.925 64.349-65.636 64.349-111.464v-181.46c0-8.854-6.607-16.357-15.364-17.452-67.269-8.461-111.521-34.017-136.808-53.973-6.405-5.039-15.352-5.039-21.765.007-25.278 19.949-69.531 45.505-136.793 53.965-8.762 1.096-15.37 8.599-15.37 17.453v44.81c0 4.143 3.358 7.5 7.5 7.5s7.5-3.357 7.5-7.5v-44.81c0-1.306.958-2.41 2.236-2.569 70.692-8.892 117.446-35.944 144.211-57.066.942-.743 2.26-.744 3.197-.007 26.773 21.129 73.527 48.182 144.226 57.074 1.271.158 2.23 1.263 2.23 2.568v181.46c0 40.488-21.784 78.222-56.849 98.475l-84.847 48.978c-3.873 2.234-8.837 2.232-12.704.002l-84.849-48.979c-35.066-20.254-56.851-57.987-56.851-98.476v-101.65c-.001-4.143-3.358-7.5-7.501-7.5z"/><path d="m165.073 238.39c6.091 0 11.816 2.371 16.122 6.677l39.19 39.18c2.93 2.93 7.677 2.928 10.606 0l42.93-42.93c2.929-2.93 2.929-7.678 0-10.607-2.929-2.928-7.678-2.928-10.606 0l-37.627 37.628-33.886-33.877c-7.138-7.139-16.63-11.07-26.728-11.07s-19.59 3.932-26.728 11.069c-7.143 7.144-11.077 16.639-11.077 26.737 0 10.101 3.935 19.594 11.077 26.73l60.605 60.605c7.134 7.146 16.629 11.081 26.738 11.081 10.102 0 19.594-3.936 26.723-11.076l121.217-121.219c7.145-7.139 11.08-16.632 11.08-26.731s-3.934-19.594-11.077-26.737c-7.138-7.138-16.63-11.068-26.728-11.068s-19.59 3.931-26.728 11.068l-32.11 32.109c-2.929 2.93-2.929 7.678 0 10.607 2.929 2.928 7.678 2.928 10.606 0l32.11-32.11c4.305-4.305 10.03-6.675 16.122-6.675 6.091 0 11.816 2.37 16.122 6.676 4.31 4.31 6.684 10.038 6.684 16.13 0 6.091-2.373 11.815-6.684 16.122l-121.225 121.226c-4.3 4.307-10.022 6.679-16.112 6.679-6.097 0-11.823-2.372-16.127-6.684l-60.612-60.612c-4.308-4.305-6.681-10.03-6.681-16.121 0-6.092 2.374-11.82 6.684-16.13 4.304-4.306 10.029-6.677 16.12-6.677z"/></g></g></svg>