<svg id="Layer_1" data-name="Layer 1" xmlns="http://www.w3.org/2000/svg" viewBox="0 0 627.76 627.76"><defs><style>.cls-1{fill:#231f20;}.cls-2{fill:#be1e2d;}</style></defs><path class="cls-1" d="M313.88,25A289,289,0,0,1,426.32,580.07,289,289,0,0,1,201.44,47.69,287,287,0,0,1,313.88,25m0-25C140.53,0,0,140.53,0,313.88S140.53,627.76,313.88,627.76,627.76,487.23,627.76,313.88,487.23,0,313.88,0Z"/><path class="cls-2" d="M282.21,294.77c-45,0-89.92-.1-134.88.07-9.64,0-19.48-.62-22.16-11.33-2.47-9.84,5.87-15.22,13.09-20.11,17-11.52,33.83-23.35,51.16-34.35,6.92-4.39,10.37-9.41,9.28-17.52a28.87,28.87,0,0,1,0-5.73c.81-11.9-4.47-27.56,11-32.39,14-4.38,30.22-7.85,42.28,6.57,4.37,5.22,7.82,1,11.06-1,9.28-5.88,18.12-12.45,27.43-18.28,15.62-9.78,31.87-10.26,47.2,0C388.87,195,439.82,229.62,490.82,264.23c7.29,4.94,14.8,10.67,11.35,20.86s-13,9.59-21.71,9.68c-26.87.3-26.87.32-26.87,27.22,0,32.05-.43,64.11.2,96.14.27,13.73-5.64,19.23-18.61,19.16-18.18-.09-36.35.07-54.53,0-12.39-.06-24.13,0-35.68,7.22-8.93,5.61-20.31,2.91-30.63,0-4.93-1.4-7.4-3.9-6.91-9.12.59-6.29,5.3-5.5,9.56-5.86,7.68-.64,18,3.94,17.59-11.17-.25-10.38-5.05-11.56-13.37-11.55-4.91,0-12.8,3.46-13.53-5.73-.63-8,6.43-7.9,11.9-9.43,9-2.52,18.07-3.88,26.43,1.16,26.34,15.86,55.11,4.85,82.6,7.78,5.52.59,5.22-4.45,5.22-8.25,0-29.66-.2-59.32.15-89,.12-10.25-6.6-8.52-12.59-8.53Q351.79,294.73,282.21,294.77Zm56.37,106.62,2.78,3c.38,10.28,2.23,20.68-2.56,30.53H313.63c8.79,2.33,17.59,5.48,26.05,1.05,10-10.14,5.44-21.48,2.73-32.67l-3-2.7c-8.48-4.54-17.12-2.44-25.77.83Q326.1,401.41,338.58,401.39ZM467.3,274.64c-1.16-2.47-1.31-3.6-1.94-4q-68.79-46.59-137.67-93c-9.36-6.3-19-5.53-28.2.38-10.43,6.73-20.36,14.24-30.89,20.81s-20,15.23-33.11,20.39c0-8.47,0-15.14,0-21.82,0-5-2.94-6.69-7.38-6.41-3.56.22-8.28-1.24-9.15,4.25a34,34,0,0,0-.33,11.42c3.73,19.62-4.45,32.06-21.65,41.21-13.11,7-24.91,16.41-40.39,26.84ZM365,410l0,1.49h57.82l0-1.49Z"/><path class="cls-2" d="M225.89,311.89c22.89,56.52,58,103.77,71.73,160.71,9.49,39.38-6,70.6-40.07,82.65-41.1,14.53-86.28.46-101.4-31.68-9.08-19.3-7-38.85-1.48-58.68,9.8-35.32,28.16-66.76,44.28-99.22C207.36,348.73,215.89,331.84,225.89,311.89ZM188.34,522c-10.08-19.52-10-38.47-11.46-60.49C160.17,490.47,164.74,514.89,188.34,522Z"/></svg>