<svg id="Layer_1" data-name="Layer 1" xmlns="http://www.w3.org/2000/svg" viewBox="0 0 500 500"><defs><style>.cls-1{fill:#fff;}.cls-2{fill:#0084ff;}</style></defs><circle class="cls-1" cx="250" cy="250" r="200"/><path class="cls-2" d="M250.05,171.77c7.57,4.73,15.26,9.5,22.72,14.12l14.42,9q5.64,3.51,11.27,7c5,3.14,10.19,6.39,15.31,9.55,9.67,6,19.52,12,29,17.81l10.77,6.59,1.9,1.18c1.85,1.14,3.75,2.32,5.72,3.42-.11,19.28-.16,36.64-.16,53.07,0,16.77,0,33.81.06,50.3q0,14,0,28.05c0,2.42-.33,2.76-2.69,2.77h-11.6V260.92h-187c-4.9,0-6.72,1.79-6.72,6.63V374.63h-.06l-5.92,0c-2.35,0-4.31,0-6.18,0-1.45,0-2-.33-2-2.08q0-32,0-64v-26.3c0-13.72,0-27.92,0-41.89,11.39-7,22.93-14.12,34.09-21l12.41-7.67,50.14-31,4.66-2.86c3.2-2,6.5-4,9.75-6m0-4.28a3,3,0,0,0-1.58.56c-4.94,3.13-10,6.15-14.92,9.22l-50.14,31c-15.54,9.6-31.05,19.24-46.62,28.78a3.3,3.3,0,0,0-1.78,3.3q.06,27.53,0,55.05,0,38.58,0,77.17c0,3.81,2.16,6,5.93,6.08,2.07,0,4.15,0,6.22,0l8.38,0a12.06,12.06,0,0,0,1.6-.23V267.55c0-2.63,0-2.63,2.72-2.63h183V378.63h15.61c4.6,0,6.68-2.14,6.68-6.78q-.06-39.17-.11-78.34,0-26.64.16-53.27a3.08,3.08,0,0,0-1.77-3.13c-2.64-1.47-5.18-3.1-7.76-4.68q-19.91-12.18-39.8-24.39c-8.89-5.49-17.7-11.09-26.57-16.6-12.55-7.81-25.13-15.56-37.67-23.39a3,3,0,0,0-1.59-.56Z"/><path class="cls-2" d="M250,148.42c7.06,4.42,14.24,8.86,21.19,13.16l11.87,7.34,10.62,6.63c4.9,3.07,9.95,6.23,15,9.31,3.5,2.16,7.07,4.3,10.52,6.37,2.9,1.74,5.89,3.53,8.81,5.32,4.08,2.49,8.21,5.06,12.21,7.54l7.51,4.66,8.42,5.19c6.49,4,13.21,8.14,19.81,12.25,0,2.45.05,4.9.05,7.43l-5.43-3.49c-3.28-2.12-6.68-4.31-10.08-6.4-4.6-2.83-9.3-5.65-13.84-8.39-4.3-2.59-8.75-5.27-13.1-7.94s-8.7-5.39-12.93-8.05c-3.75-2.34-7.62-4.77-11.45-7.13-8.45-5.21-17.06-10.49-25.38-15.59l-17.61-10.81c-3.91-2.41-8-4.89-11.93-7.49a7.52,7.52,0,0,0-4.19-1.34,7.85,7.85,0,0,0-4.23,1.33c-13.7,8.54-27.67,17.17-41.18,25.52l-4.2,2.6-26.52,16.37-12.21,7.54-5.35,3.3-32.19,19.88c0-1.56,0-3.13-.16-4.7-.18-2.26.15-2.89,2.06-4,7.61-4.42,15.18-9.14,22.49-13.7,3.39-2.12,6.9-4.31,10.36-6.43,2.76-1.7,5.59-3.4,8.33-5,3.12-1.87,6.35-3.81,9.51-5.76,3.44-2.13,6.91-4.33,10.26-6.46,3-1.87,6-3.81,9-5.68,11.17-6.95,22.36-13.86,34.78-21.52,2.52-1.56,5-3.1,7.58-4.65,3.81-2.34,7.76-4.75,11.63-7.17m0-4.25a3.17,3.17,0,0,0-1.67.58c-6.52,4.08-13.1,8.05-19.64,12.08q-17.4,10.75-34.79,21.53c-6.45,4-12.81,8.14-19.27,12.13-5.9,3.66-11.9,7.16-17.82,10.8-10.92,6.7-21.69,13.65-32.77,20.08-3.4,2-4.32,4.18-4,7.77s.07,7.44.07,11.4c.63-.29,1-.41,1.31-.6l42.41-26.18,38.73-23.92q22.71-14,45.39-28.13a4.07,4.07,0,0,1,2.12-.72,3.65,3.65,0,0,1,2,.69c4,2.59,8,5.07,12,7.55q21.48,13.2,43,26.39c8.15,5,16.23,10.18,24.39,15.19,8.95,5.49,18,10.83,26.93,16.33,5.37,3.3,10.63,6.79,16,10.16,1.71,1.09,3.47,2.09,5.65,3.38,0-5.55.05-10.68-.07-15.79,0-.63-.8-1.44-1.43-1.83-9.53-5.94-19.11-11.81-28.66-17.71-6.59-4.07-13.14-8.18-19.74-12.21-6.42-3.93-12.92-7.73-19.32-11.68-8.55-5.27-17-10.64-25.58-15.94-11.16-6.92-22.35-13.8-33.49-20.77a3.14,3.14,0,0,0-1.67-.58Z"/><path class="cls-2" d="M324,294.74c0,1.78,0,3.55,0,5.29H176.3v-5.24l14.72,0c9.4,0,19.11.05,28.66.05h.9c10.61,0,21.4,0,31.83-.05l24.22-.05h24.15c7.37,0,15.26,0,23.21,0m1.8-4h0q-12.48.06-25,0H276.62c-18.68,0-37.36.1-56,.1h-.9c-15.16,0-30.32-.07-45.48-.1h0c-.63,0-1.26.1-1.9.16V304H328c0-3.75-.11-7.36,0-11,.07-1.81-.46-2.34-2.25-2.34Z"/><path class="cls-2" d="M323.9,276.09v1.51H176.35v-1.51H323.9m4-4H172.35v9.51H327.9v-9.51Z"/><path class="cls-2" d="M190.9,374a32.35,32.35,0,0,0,4.38.26c.81,0,1.63,0,2.45,0l2.05,0c0,.13,0,.25,0,.37l-4,0c-1.64,0-3.28,0-4.87-.05,0-.18,0-.36,0-.53m-4-5.25c0,2.94-.11,5.5.07,8a2.41,2.41,0,0,0,1.62,1.67c2.39.08,4.77.11,7.16.11,2.09,0,4.17,0,6.26-.08a2.22,2.22,0,0,0,1.63-1.42c.18-2.2.08-4.43.08-6.69a29.62,29.62,0,0,0-3.76-.21c-1.57,0-3.14.08-4.71.08a19.23,19.23,0,0,1-8.35-1.51Z"/><path class="cls-2" d="M308.16,374c0,.2,0,.39,0,.59-1.56,0-3.15.05-4.76.05l-4,0V374h8.79m4-4H295.4c0,2.76-.1,5,.07,7.3,0,.48,1,1.25,1.58,1.27,2.11,0,4.22.07,6.34.07q3.53,0,7.05-.1a2.24,2.24,0,0,0,1.61-1.47c.18-2.46.08-4.94.08-7.07Z"/><path class="cls-2" d="M299.08,312.06h0v1a3.46,3.46,0,0,1,.83.07l.62.78c.37.45.73.93,1.08,1.4a29.38,29.38,0,0,0,3.1,3.65c.53.5,1,1,1.48,1.55-3.46.71-6.53,1.31-9.65,1.82a9,9,0,0,0-7.12,5.26c-.5,1.12-1,2.26-1.48,3.38a4.72,4.72,0,0,0-.72-2c-1.57-2.45-4.51-2.45-6.09-2.45H250l-4,0H218.43c-1.12,0-4.08,0-5.63,2.45a4.72,4.72,0,0,0-.72,2.08c-.62-1.39-1.27-2.8-1.94-4.2a8.13,8.13,0,0,0-5.19-4.2c-3.15-.72-6.47-1.38-10.23-2.06,1.05-1.39,2-2.84,2.89-4.26.59-.93,1.16-1.81,1.75-2.66l.39-.56a10,10,0,0,1,1.53-.08h.18q23.19,0,46.38,0c18.3,0,35.06,0,51.24-.05v-1m-109.8,27.38,6.53,2,7.68,2.31.9.28c1.42.43,2.9.88,4.43,1.24a6.6,6.6,0,0,0,1.57.19,5.09,5.09,0,0,0,4.33-2.2,4.93,4.93,0,0,0,.83-2.92c.62,1.21,1.25,2.4,1.88,3.55a6.45,6.45,0,0,0,5.32,3.16c9.34,0,18.69,0,27.78,0s17.92,0,26.67,0a6.66,6.66,0,0,0,5.46-3.2c.7-1.24,1.38-2.52,2-3.82,0,.11,0,.21,0,.31s0,.21,0,.31l-.34,4,4,.39.36.07a9.36,9.36,0,0,0,1.72.19A5.77,5.77,0,0,0,292,345c6.28-1.82,12.52-3.68,18.57-5.53-.07,3.41,0,6.8.09,10.11v.21a7.76,7.76,0,0,0-4.19-1.45h-.13c-4.09,0-7.79,3.84-7.91,8.22a8.21,8.21,0,0,0,7.42,8.3h.48a8.22,8.22,0,0,0,4.43-1.23,2.9,2.9,0,0,1-.25,1.27h0s-.37.32-1.91.49a20.49,20.49,0,0,1-2.32.1H284.52c.94-1.6,1.87-3.23,2.83-4.92l1.46-2.54,3.44-6H207.8l3.47,6c.47.83.95,1.59,1.41,2.33a26.44,26.44,0,0,1,2.15,3.89,12.49,12.49,0,0,0,.56,1.22H192.78a5.75,5.75,0,0,1-1-.07c-2-.4-2.33-.72-2.39-.78a2.52,2.52,0,0,1-.17-1.13,7.83,7.83,0,0,0,4.21,1.29h.14a8,8,0,0,0,.21-16.09h-.12a8.16,8.16,0,0,0-4.32,1.22c0-1.76,0-3.51,0-5.24s0-3.49,0-5.25M299.09,309h0q-25.62,0-51.23.05-23.19,0-46.38,0h-.18c-1.94,0-3.73.07-5,1.86.3-.54.59-1.08.91-1.68H184l-.21.56a15.26,15.26,0,0,0,3.53,1.61,59.82,59.82,0,0,0,7.21.67h0c.47,0,1-.43,1.46-.66-2,3-3.78,6.19-6.2,8.79a16.59,16.59,0,0,0-4.56,11.58c-.1,10.45.11,20.9-.12,31.35-.09,4.35,2.05,5.47,5.75,6.23a8.58,8.58,0,0,0,1.84.15H306.3a25.37,25.37,0,0,0,2.76-.12c4.21-.47,5.74-2.18,5.73-6.38,0-2.5,0-5,0-7.5-.05-6.36-.44-12.74-.09-19.08.45-7.93-1.33-14.79-7.22-20.39a44.38,44.38,0,0,1-3.82-4.67c.55.24,1.13.71,1.67.71h.05a64.81,64.81,0,0,0,7.63-.73c1.12-.2,2.11-1.1,3.16-1.68-.1-.14-.19-.29-.29-.44H302.63l1,2.1c-1-1.73-2.46-2.29-4.51-2.29Zm-8.7,32.2c-.55,0-1.15-.19-1.72-.24a7.08,7.08,0,0,1,.2-1.86c1.36-3.33,2.74-6.66,4.21-9.94a5,5,0,0,1,4.12-2.94c4.07-.67,8.12-1.5,12.16-2.35a4.38,4.38,0,0,1,.84-.09c1,0,1.58.55,1.82,1.8.47,2.51,1,5,1.63,7.94-.46.38-1,1.1-1.66,1.31q-10.53,3.24-21.1,6.3a1.68,1.68,0,0,1-.5.07Zm-80,.2a3.28,3.28,0,0,1-.65-.08c-1.72-.41-3.41-1-5.1-1.46L188.48,335c-1.17-.35-2.11-.84-1.9-2.33.56-2.56,1-5.14,1.77-7.66a2.3,2.3,0,0,1,1.74-1.15h.11c4.64.78,9.27,1.64,13.86,2.68a4.21,4.21,0,0,1,2.48,2c1.75,3.64,3.33,7.38,4.85,11.13.43,1,0,1.7-1,1.7Zm37.23-10.9H250v0h31.15c3.09,0,3.45.48,2.15,3.3s-2.63,5.43-4.11,8.06a2.69,2.69,0,0,1-2,1.16q-13.33,0-26.66,0-13.87,0-27.77,0a2.5,2.5,0,0,1-1.82-1.08q-2.31-4.23-4.36-8.6c-1-2.22-.62-2.8,1.85-2.81h29.19Zm58.73,30.34h-.28a4.24,4.24,0,0,1-3.62-4.2c.06-2.19,2-4.33,3.91-4.33h.05c1.91,0,4.18,2.36,4.11,4.19-.11,2.71-1.69,4.34-4.17,4.34Zm-112.81-.06h-.08a4.05,4.05,0,0,1,.17-8.1h.07a3.89,3.89,0,0,1,3.87,4.07,3.85,3.85,0,0,1-4,4Zm31.71,6c-3.27,0-5.41-.74-6.7-4a56.78,56.78,0,0,0-3.82-6.74h70.61c-2,3.51-3.86,6.83-5.85,10-.29.46-1.38.59-2.09.59H252c-8.84,0-17.68,0-26.52.11Z"/><path class="cls-2" d="M275.27,334.1H224.56a234,234,0,0,0,25.22,1.36,239.19,239.19,0,0,0,25.49-1.36Z"/><path class="cls-2" d="M275.39,338.86H224.24a235.36,235.36,0,0,0,25.43,1.37,243.66,243.66,0,0,0,25.72-1.37Z"/></svg>