<svg xmlns="http://www.w3.org/2000/svg" viewBox="0 0 400 120"><defs><style>.cls-1{fill:#447bbe;}.cls-2{fill:none;}</style></defs><g id="Layer_2" data-name="Layer 2"><g id="Layer_1-2" data-name="Layer 1"><path class="cls-1" d="M174.38,26c18.11,15.89,20.26,52.52,20.26,52.52V97.87h11.22V78.49s.09-36.19,20-52.42l4.32,5,6.29-23.62-23.36,7.13L218,18.4C207.89,26,200,46.34,200,46.34s-8.26-20.18-17.54-28.46l4.33-4.57-23.3-6.23,6.92,23.61Z"/><path d="M233.91,30.94l-2,7.5-6.33-7.34a37.33,37.33,0,0,0-3.53,4.11,37,37,0,0,1-12.67,65.5c-1,.27-2.09.5-3.15.68a37.58,37.58,0,0,1-12.46,0c-.89-.15-1.78-.34-2.65-.55a37,37,0,0,1-13.23-65.59,39.75,39.75,0,0,0-3.26-4.11L168.88,38l-2.22-7.59a48,48,0,1,0,67.25.55Z"/><path d="M200,27.92a37.92,37.92,0,0,1,5.14.36,57.71,57.71,0,0,1,7.35-9.71l0,0a48.45,48.45,0,0,0-24.54-.1,69.61,69.61,0,0,1,6.93,9.83A38,38,0,0,1,200,27.92Z"/><rect class="cls-2" width="400" height="120"/><rect class="cls-2" width="400" height="120"/><rect class="cls-2" width="400" height="120"/><rect class="cls-2" width="400" height="120"/></g></g></svg>