<svg id="Layer_1" data-name="Layer 1" xmlns="http://www.w3.org/2000/svg" viewBox="0 0 627.76 627.76"><defs><style>.cls-1{fill:#fff;}.cls-2{fill:#0084ff;}</style></defs><circle class="cls-1" cx="313.88" cy="313.88" r="313.88"/><path class="cls-2" d="M448.74,101.14c2.24,0,5.59.72,11.62,6.34l29.36,27.42c27.49,25.68,55.91,52.23,83.92,78.29.66.61.66.61.65,1.46-.08,10.08-.06,20.31,0,30.21v3.71q-25.44-23.74-50.86-47.51c-21.73-20.31-44.21-41.32-66.34-62-.81-.76-1.49-1.41-2.07-2-2.68-2.59-5.21-5-9.42-5-3.24,0-5.5,1.52-7.68,3-.72.48-1.52,1-2.53,1.64-75.87,47-153,94.85-227.58,141.11l-52.85,32.78c0-.34,0-.67,0-1a181.85,181.85,0,0,0-.4-21.2c-.6-6.22.79-8.68,6.76-11.93,10-5.45,19.67-11.58,29-17.51,4.8-3,9.75-6.17,14.65-9.15a14.37,14.37,0,0,0,7.38-13.41c-.16-10.55-.12-21.33-.09-31.75,0-2.2,0-4.41,0-6.62,0-5.74,2.21-8,7.84-8h37.54c3.26,0,6.52,0,9.77,0,3.45,0,6.89,0,10.33,0,5.81,0,10.54,0,14.9.15h.68a27.82,27.82,0,0,0,15.23-4.56c44.68-27.82,90.25-56.07,129.46-80.37,4.4-2.73,7.9-4,10.69-4m0-8c-4.51,0-9.28,1.77-14.9,5.25q-64.77,40.14-129.48,80.38a20,20,0,0,1-11,3.35h-.5c-5-.11-10.05-.15-15.08-.15-6.7,0-13.4.06-20.1.07H220.12c-10.05,0-15.8,5.83-15.82,16,0,12.84-.12,25.68.07,38.51a6.47,6.47,0,0,1-3.54,6.45c-14.47,8.81-28.5,18.38-43.35,26.47-8.52,4.65-11.83,10.07-10.89,19.73,1,10.05.17,20.26.25,30.41,0,2.7.32,3.88,1.43,3.88a8,8,0,0,0,3.24-1.35c.68-.4,1.35-.82,2-1.24q143-88.68,286-177.36c3.5-2.17,4.81-3.42,6-3.42s2.42,1.47,6,4.85Q514.33,203.47,577,262.05c.95.9,1.84,2.49,3.22,2.49a2.32,2.32,0,0,0,1-.28c1.56-.82,1-2.85,1-4.39,0-15.05-.09-30.11,0-45.16a9,9,0,0,0-3.2-7.37q-56.72-52.77-113.27-105.7c-6.11-5.71-11.4-8.5-17.08-8.5Z"/><path class="cls-2" d="M417.5,175.9v49.73a15,15,0,0,0-6.91-2.1,9.13,9.13,0,0,0-8.85,6.78,19.54,19.54,0,0,0-.61,5.65c0,3.87,0,7.75,0,11.62,0,5.22,0,10.62,0,15.91,0,2.42-.48,3.51-.72,3.75s-1.41.73-3.94.76c-4.11,0-8.12.05-11.92.05s-7.28,0-10.75-.05-4.34-.78-4.36-4.44c0-4.68,0-9.45,0-14.06s0-9.31,0-14a20,20,0,0,0-.53-5.23,9,9,0,0,0-8.76-6.88c-2.75,0-5,1.16-7.47,2.56-1.69,1-3.37,1.94-5.05,2.92-2.11,1.23-4.28,2.49-6.41,3.69a19.64,19.64,0,0,0-10.36,17.92l0,10.38c0,9.69.06,19.71.14,29.57a18.67,18.67,0,0,0,9.74,16.62l6.55,3.73,6.38,3.65v120.2l-12.53,7.22c-6.83,3.91-10.39,10.27-10.32,18.39,0,3.3,0,6.69,0,10,0,3,0,6.07,0,9.15-3.5-.05-6.73-.07-9.76-.07-3.27,0-6.35,0-9.32.08.07-20.48.06-41.21.06-61.29q0-14.23,0-28.46,0-20,0-39.94c0-34.59.07-70.35,0-105.53,0-2.51.28-3,2.31-4.27,28.61-17.53,57.57-35.53,85.58-52.93q8.69-5.4,17.38-10.79l.27-.18.15-.09m-.31,138.49V434.7l-.25-.14v-120l.25-.15m1.74-147.52c-2.16,0-4.09,1.27-6.07,2.5-34.28,21.28-68.52,42.62-102.92,63.69-4.53,2.78-6.14,5.94-6.13,11.12.12,48.48,0,97,0,145.44,0,31.21.05,62.43-.07,93.64,0,3.15.7,4.21,3.75,4.21h.38q6.6-.16,13.2-.16c4.79,0,9.58.06,14.37.14h.21c2.57,0,3.28-.91,3.23-3.49-.15-7.92,0-15.84-.07-23.76,0-5,1.86-8.84,6.3-11.38q17.28-9.92,34.51-19.93a11.08,11.08,0,0,1,5.63-1.62,11.46,11.46,0,0,1,5.64,1.58c3.46,1.92,6.85,4,10.28,5.92,7.86,4.5,15.73,9,24,13.7v-148c-11.44,6.65-22.25,12.89-33,19.2a13.48,13.48,0,0,1-6.83,2.12,11.09,11.09,0,0,1-5.68-1.64c-11.62-6.75-23.31-13.39-35-20.06a10.69,10.69,0,0,1-5.71-9.73c-.11-13.31-.12-26.62-.17-39.92a11.57,11.57,0,0,1,6.26-10.91c3.87-2.17,7.67-4.45,11.52-6.64,1.7-1,2.8-1.51,3.51-1.51,1.08,0,1.27,1.25,1.29,4.15,0,9.35,0,18.69,0,28,0,8,4.26,12.32,12.28,12.4,3.61,0,7.22.05,10.83.05q6,0,12-.05c8.6-.08,12.53-4,12.59-12.45.07-9.19,0-18.38,0-27.57,0-3.14.24-4.45,1.46-4.45a9.33,9.33,0,0,1,3.52,1.36c3.67,1.91,6.9,4.72,11.39,5.86V176.53c0-3.38,0-6.73-3.45-8.75a6.17,6.17,0,0,0-3.12-.91ZM385.32,324.49a16.22,16.22,0,0,0,9-3.1c4.54-3,9.43-5.54,14.64-8.56V436.58c-5.95-3.41-11.23-6.25-16.31-9.41a13.86,13.86,0,0,0-7.38-2.37,13.53,13.53,0,0,0-7.26,2.33c-5.15,3.24-10.55,6.11-16.34,9.43V312.83c5.37,3.06,10.45,5.53,15.08,8.69a15.14,15.14,0,0,0,8.59,3Z"/><path class="cls-2" d="M443.68,159.69c.56.45,1.22,1.07,1.54,1.37q17.25,16.19,34.54,32.33l8.48,7.93a21,21,0,0,0-1.84,6.76c-.52,4.44-1.2,9-1.86,13.4-.32,2.21-.65,4.41-1,6.62-.89,6.32,1.38,9.83,4,11.78v6.18c.06,24.75.12,50.35-.08,75.49v0l-12.7.05c-9.44,0-14.21,5.35-14.18,15.8,0,2.84,0,10.1,6.26,13.45v.29c.08,7.27.09,14.68.1,21.85,0,8.66,0,17.58.16,26.44-4.19-.09-8.6-.13-13.38-.13-4.22,0-8.7,0-14.13.1.09-70.74.14-153.62,0-235.87,0-1.43,0-1.67,4.05-3.86m78.82,73.73c7.29,6.82,14.79,13.83,22.24,20.68a1.6,1.6,0,0,1,.7,1.59c-.06,54.89-.05,100.67,0,143.61-1.12,0-2.23,0-3.33,0s-2.22,0-3.33.05c0-5.9,0-11.83,0-17.59,0-9.62,0-19.56.14-29.29,0-.51,0-1.06,0-1.64,6.26-3.48,6.24-11,6.23-14,0-12.6-7.75-15.26-14.21-15.27l-13.23,0c.09-1.2.13-2.5.13-3.92V240.23a9,9,0,0,0,4.63-6.81m-78.7-82.06a6.56,6.56,0,0,0-3.14.87c-4.53,2.46-9,4.55-9,11.34q.27,120,0,240c0,3.15,1,3.89,3.78,3.89h.26c6-.08,12.06-.15,18.09-.15,5.38,0,10.76.05,16.13.19h.58c3.6,0,4.8-1,4.72-5.12-.32-17.11-.12-34.22-.31-51.33,0-3.06.78-4,3.82-4h.11q9.72.07,19.45.08,13.56,0,27.12-.21h.45c3.8,0,5.18.93,5.11,5.32-.31,17,0,33.9-.19,50.86,0,2.94.44,4.37,3.37,4.37.22,0,.45,0,.69,0,2.42-.15,4.86-.23,7.29-.23s5,.08,7.44.22l.63,0c2.67,0,3.27-1.16,3.26-4q-.13-73.9,0-147.82a9.39,9.39,0,0,0-3.28-7.47c-10.84-10-21.57-20.07-32.33-30.13L512,212.63c1,6.63,1.75,11.93,2.51,17.24.2,1.41.59,3.28-1.18,3.64-4.11.85-3.45,3.84-3.45,6.64v77.47c0,9.06,0,8.82-9.1,9.16h-.72c-3.58,0-4.54-1.19-4.51-5.17.21-27.41.13-54.82.07-82.23,0-1.88,1-4.44-1.81-5.27s-2.6-2.79-2.3-4.9c.95-6.73,2.05-13.45,2.84-20.21.44-3.77,1.25-6.77,6.06-6.77h.51L498.56,200q-23.94-22.4-47.87-44.8c-2.1-2-4.25-3.86-6.89-3.86Zm42.75,193.28c-3.89,0-7.78,0-11.67,0-5,0-6.2-1.48-6.22-7.22,0-6.08,1.21-7.75,6.22-7.77q18.27-.08,36.56-.08l19.51,0c4.87,0,6.21,1.71,6.23,7.3,0,6.15-1.14,7.7-6.22,7.75-3.85,0-7.69,0-11.54,0l-16.5,0H486.55Z"/><path class="cls-2" d="M289.09,255.48v46.79a25.38,25.38,0,0,0-8.18,1.7l-1.32-5.49-6.78,6.59a18.94,18.94,0,0,0-3.47-3.36l5.38-12.27L255,299.14l-.27.14-.16.08-2.56,1.26-5.42-7.88-2.88,12-1.89.93a22,22,0,0,0-11.92-3.47,27.77,27.77,0,0,0-6.88.93l-11.59,3,7.22,9.55a2.1,2.1,0,0,1,.32.52h0c0,.66-1,2.77-1.67,4-.34.68-.68,1.37-1,2-1,2.11-2.15,4.21-3.38,6.43a80.84,80.84,0,0,0-6.2,13.1c-2.13,6.24-4.75,15.77-2.84,26.37a25.62,25.62,0,0,1-.11,6.44c-.13,1.43-.26,2.9-.31,4.47-.46,14.07-.39,28.31-.33,42.09,0,5.92.06,12,0,18.05,0,6.5,3.69,13.57,14.1,13.87,6.19.18,13.44.71,20.25,3.28,9.75,3.67,12.2,7.67,10.94,17.81l-.85,6.84c-2.91,23.33-5.92,47.45-7.87,71.37-.16,2-.3,3.88-.32,5.83-8.78,0-18.53,0-28.2,0-10,0-19.06,0-27.61.06,0-8.77,0-17.52,0-26V492.54c0-55.41,0-112.71-.1-169.07,0-2.31.21-2.71,2.13-3.9,25.37-15.59,51.07-31.57,75.93-47l27.39-17,.08,0m2-9.2c-1.68,0-3.68.83-6.29,2.45-34.41,21.36-68.78,42.82-103.29,64-4.34,2.67-5.95,5.67-5.94,10.73q.21,104.36.1,208.73,0,15.21,0,30.43c0,1.92-.35,3.62,2.7,3.62h0q16.44-.09,32.88-.09,17.08,0,34.16.06h0c2.12,0,2.77-.71,2.4-2.78a40.37,40.37,0,0,1-.1-10.42c2.13-26,5.47-51.95,8.69-77.88,1.71-13.76-2.91-21.32-16.06-26.28-7.38-2.77-15.05-3.56-22.83-3.78-3.83-.12-6.35-1.45-6.34-5.87.05-20-.36-40,.28-59.9.13-4.16,1.06-8.34.3-12.57-1.38-7.72.06-15.11,2.54-22.38,2.26-6.63,6.27-12.41,9.24-18.69,2.24-4.73,5.64-9.39,1.51-14.84a19.15,19.15,0,0,1,4.87-.68,14.08,14.08,0,0,1,8.26,2.64c3.74,2.6,5.74,6.42,7.36,10.81a35.67,35.67,0,0,0,4.65-11.55c4,5.75,2.33,11.63,2.63,17.33,2.62-7.47,9.39-13.79,5.72-22.75l-.14,0,0-.09-.31-.05.43-.21-.12.26h.07l0,.06a9.91,9.91,0,0,1,1.19-.08c3.84,0,6.46,2.47,8.2,5.55,1.19,2.1,2.21,3.79,3.77,3.79.9,0,2-.55,3.38-1.91.45,1.88-1.15,3.67.94,4.65,3.38-6.24,8.53-8.42,14.64-8.42a32,32,0,0,1,3.84.25l2.57-.12v-58a1.72,1.72,0,0,1-.54-1.91c-1.68-2.83-3.31-4.21-5.47-4.21Z"/><path class="cls-2" d="M266.8,334.61c.47.7,1,1.49,1.46,2.37l8.64,15,5.83-16.31.1-.28a39.19,39.19,0,0,0,6.37,7.8l.16.16v.16c-.12,8.66-.14,16.69-.06,24.4-7.74,0-15.65,0-23.55,0-13.59,0-27.69,0-42,.1-1.23-9,1.78-16.92,9.56-25.08l4.15,1.67a9.43,9.43,0,0,0,2.24.61,24.67,24.67,0,0,0,9.69,8.74,11.85,11.85,0,0,0,5.48,1.53,8.78,8.78,0,0,0,6.55-2.91,9.67,9.67,0,0,0,2.2-7.83c-.37-3.22.91-6.08,3.15-10.11M287,317.46c-6.84,3.21-9.37,8.86-11.76,15.54-2.46-4.28-5-7.48-8.62-9.67a3.84,3.84,0,0,0-1.73-.75c-.47,0-.9.3-1.29,1.14-3.25,7.08-8.86,13.28-7.86,21.92.16,1.39-.21,1.82-.8,1.82a5,5,0,0,1-1.88-.68c-4.72-2.37-7.45-6.44-9.09-11.16-1.28.19-1.69,1.67-2.83,1.67a1.81,1.81,0,0,1-.63-.13c.06-5.48,1.49-11.36-4.78-15.62.56,6.23-2.25,10.07-6.1,13.8-10.45,10.1-16.51,21.92-13.13,37.06.59,2.65,1.64,3.6,4.36,3.6h.06q22.43-.11,44.87-.11,13.92,0,27.85.05h0c2.89,0,3.76-.9,3.71-3.78q-.23-14.27,0-28.52a7.69,7.69,0,0,0-2.61-6.19c-5.41-5.21-9.07-11.3-7.79-20Z"/><path class="cls-2" d="M247.87,149.16c9.16,0,18.26,0,27.07.06,4.16,0,6.74,2.59,6.89,6.88.08,2.22,0,4.48,0,6.2-.1,4.66-2.46,7-7,7.09-3.23,0-6.68.05-10.87.05l-8.62,0H229.85c-4.23,0-7.7,0-10.93,0-4.76,0-6.8-2-7-6.68a66.45,66.45,0,0,1,0-7.19c.25-3.92,2.72-6.28,6.62-6.3,10,0,19.87-.06,29.38-.06m0-8q-14.7,0-29.41.06c-8.19,0-14.07,5.7-14.57,13.81a72.42,72.42,0,0,0,0,8.07c.43,8.9,6,14.22,14.95,14.29,3.67,0,7.33,0,11,0l16.8,0h.22c5.7,0,11.39,0,17.08,0,3.65,0,7.3,0,10.94-.05,8.9-.08,14.74-6,14.94-14.91.05-2.22.07-4.44,0-6.65-.3-8.55-6.29-14.57-14.86-14.61q-13.55-.06-27.1-.06Z"/><path class="cls-2" d="M289.29,460.58c0,11.68,0,23.42,0,34.86v4.94q-.44-3.3-.85-6.55c-1-7.43-2-15.12-2.86-22.67a11.54,11.54,0,0,1,3.7-10.58m6.84-12.44a4.39,4.39,0,0,0-1.45.31c-9.92,3.55-18.53,10.88-17,23.65,1.92,16.32,4.27,32.6,6.12,48.93,1.54,13.49,3.83,26.93,3.51,40.6,0,1.89-1.17,4.66,1.8,4.66a6.46,6.46,0,0,0,1.08-.1,5.29,5.29,0,0,1,.8-.05c1.07,0,2.24.24,3.3.24,1.81,0,3.27-.72,3.19-4.62-.36-18.19-.12-36.4-.12-54.6h0q0-27.78,0-55.55c0-1.35.61-3.47-1.14-3.47Z"/><path class="cls-2" d="M289.36,421h0m4.1-3.71h-.26c-5.49.1-11,.13-16.47.13-6.7,0-13.4,0-20.1,0v.13H225c-9.33,0-9.16.1-9.4,9.56-.09,3.63.81,4.77,4.49,4.77h.16c11.19-.1,22.38-.12,33.58-.12l33.21,0h.18c10.17,0,10,0,10.15-10.18,0-3.16-.7-4.27-3.91-4.27Z"/><path class="cls-2" d="M503,354.44h-.07c-5.87,0-7.91,2-7.93,8.06,0,10.93,0,21.86,0,32.79,0,10.63,0,12.32,7.49,12.32,1.46,0,3.21-.06,5.3-.14,2.45-.09,3.26-.68,3.2-3.22-.17-7.13-.06-14.26-.06-21.39,0-6.81.05-13.63,0-20.44-.06-6.05-2-8-7.92-8Z"/><path class="cls-2" d="M522.26,361h0m-2.47-6.53c-3.31,0-5.54,2.82-5.59,7-.07,7,0,13.93,0,20.9V399c0,7.57,0,8.56,5.6,8.56.91,0,2,0,3.19-.05,2.37-.06,3.36-.54,3.33-3.14-.12-14.41-.06-28.82-.1-43.23,0-3.93-2.05-6.32-6-6.61Z"/><path class="cls-2" d="M485.34,354.55c-3.28,0-5.72,2.71-5.75,7.08-.08,12.5,0,25,0,37.5,0,8.48,0,8.31,8.46,8.37h.09c3,0,3.56-1,3.48-3.77-.2-7.12-.06-14.24-.06-21.36h0c0-7-.05-13.93,0-20.89,0-3-.81-5.3-3.75-6.44a7.11,7.11,0,0,0-2.51-.49Z"/><path class="cls-2" d="M383.34,473.09c-3.74,0-7.48,0-11.22.12-5.93.14-10,4.25-10.71,10.08-.35,2.71.13,4.19,3.19,4.19H365c2.75-.11,5.5-.15,8.25-.15,3.86,0,7.72.07,11.58.07h.33l9.83,0c2.66,0,5.32,0,8-.07h.11c1.08,0,2.42.33,3.55.33a2,2,0,0,0,2.09-1c1.19-2.5.5-5.6-1.05-8.15a10.28,10.28,0,0,0-9-5.27c-5.12-.07-10.24-.13-15.36-.13Z"/><path class="cls-2" d="M295.05,381c-.43,0-.88,0-1.31,0q-37.26,0-74.51.1h0c-.47,0-1-.05-1.44-.05-1.15,0-2.15.3-2.17,2.36,0,1.91.82,2.27,1.8,2.27.6,0,1.25-.13,1.8-.13h0q10.35,0,20.71,0h34.64q9.57,0,19.15,0h0c.51,0,1.08.08,1.62.08,1.09,0,2-.33,2-2.31s-1.1-2.38-2.33-2.38Z"/><path class="cls-2" d="M422.66,289.59a3.9,3.9,0,0,0-1.93.65q-18,10.53-36,21c-1.66,1-2.33,2.26-1.39,3.9a2.52,2.52,0,0,0,2.21,1.49,4.46,4.46,0,0,0,2.2-.74c11.68-6.93,23.4-13.78,35.09-20.66,1.06-.63,2.37-1.11,2.09-3.27-.4-1.25-1-2.41-2.3-2.41Z"/><path class="cls-2" d="M297.09,310.36l-2.57.12c1.57.81,2.77,1.15,1,3.49A11,11,0,0,0,297.09,329V310.36Z"/><path class="cls-2" d="M296.55,250.49a1.72,1.72,0,0,0,.54,1.91c.34-.78-.08-1.35-.54-1.91Z"/><path class="cls-2" d="M258.58,306.32l-.43.21.31.05.12-.26Zm-.12.26,0,.09.11-.08Zm0,.09Z"/><path class="cls-2" d="M395.49,329.25h-.1c-4.84.05-7.66,3.16-7.67,8.79q-.06,36.32,0,72.63c0,5.47,3.16,9,7.73,9h.34c4.48-.17,7.37-3.71,7.38-9.18q0-18,0-36.07c0-12.19,0-24.37,0-36.55,0-5.56-2.84-8.65-7.66-8.65Z"/><path class="cls-2" d="M531.09,336.16H496.24c-1.51,0-2.91.23-2.93,2.58,0,2.53,1.42,2.8,3,2.8l1.27,0h.08l7.17,0h9.42v-.17H530.4l1.38,0c1.4,0,2.65-.28,2.7-2.5.06-2.61-1.61-2.73-3.39-2.73Z"/></svg>