<svg id="Layer_1" data-name="Layer 1" xmlns="http://www.w3.org/2000/svg" viewBox="0 0 500 500"><defs><style>.cls-1{fill:#fff;}.cls-2{fill:#0084ff;}</style></defs><circle class="cls-1" cx="250" cy="250" r="200"/><path class="cls-2" d="M239.16,154.29h67.12c5.13,0,8.91,3.55,9,8.43.15,9.26.12,18.69.08,27.82,0,2.63,0,5.27,0,7.9H113.6v-6.05c0-9.25,0-18.81,0-28.22,0-5.28,2.55-8.74,7.16-9.74a10.14,10.14,0,0,1,2-.14H189.7a8.91,8.91,0,0,0-5.36,9.38c.68,6,1.37,11.4,2.09,16.66.78,5.61,4.22,8.58,9.94,8.58h36.1c5.93,0,9.43-3.15,10.12-9.11.61-5.17,1.25-10.3,1.92-15.26a9.62,9.62,0,0,0-2.09-7.93,8.57,8.57,0,0,0-3.26-2.32m58.49,38h0a15.9,15.9,0,1,0-15.93-15.93,16.13,16.13,0,0,0,15.92,15.93m-166.6,0h0a15.94,15.94,0,0,0,11.21-27.16,15.7,15.7,0,0,0-11.21-4.63,15.9,15.9,0,0,0-.05,31.79h0m130.86,0a15.86,15.86,0,0,0,15.74-15.82,15.69,15.69,0,0,0-15.73-16h-.11a15.9,15.9,0,0,0-.15,31.79h.25m-94.94,0a16.1,16.1,0,0,0,15.82-15.83,15.91,15.91,0,0,0-15.8-16h-.09a15.9,15.9,0,0,0-.14,31.79H167m66-42H122.75a14.11,14.11,0,0,0-2.83.23c-6.44,1.4-10.3,6.47-10.31,13.64,0,12.16,0,24.33,0,36.49,0,.57.06,1.14.09,1.79H319.16a5.06,5.06,0,0,0,.16-.8c0-13,.15-26-.06-39-.11-7.17-5.83-12.37-13-12.37Zm-18.48,34.63H196.37c-3.7,0-5.46-1.44-6-5.13-.77-5.51-1.45-11-2.08-16.56a5,5,0,0,1,5.3-5.72h41.26c4,0,6.2,2.54,5.66,6.52-.68,5.1-1.32,10.22-1.92,15.33-.45,3.88-2.25,5.57-6.15,5.57Zm83.19,3.4a12.1,12.1,0,0,1-11.92-11.93,11.93,11.93,0,0,1,11.93-11.86h0a11.82,11.82,0,0,1,11.87,11.86,12,12,0,0,1-11.87,11.93Zm-166.59,0h0a12,12,0,0,1-11.87-11.95,11.87,11.87,0,1,1,11.91,11.95Zm130.85,0h-.19a11.91,11.91,0,0,1-11.76-12,11.78,11.78,0,0,1,11.85-11.77h.09a11.77,11.77,0,0,1,11.75,11.95,11.89,11.89,0,0,1-11.74,11.84Zm-94.94,0h-.15a12,12,0,0,1-11.82-12,11.85,11.85,0,0,1,11.9-11.78H167a11.87,11.87,0,0,1,11.82,11.94A12,12,0,0,1,167,188.32Z"/><path class="cls-2" d="M281.69,213.59c-1.73.53-3.47,1.11-5.24,1.75a6.91,6.91,0,0,1-2.25.41l-91.06,0H153.32c-4,0-6.34,1.47-7.56,2.7a7.94,7.94,0,0,0-2.23,5.83c.05,3.84,2.64,8.32,9.73,8.33h10c1.16,1.58,3.22,2.92,6.88,2.92l48.47,0h26.52c-2.25,2.3-4.55,4.68-6.8,7.14,0,0,0,.05-.06.06h0q-39.3,0-78.58,0H124.41l-.94,0a8.46,8.46,0,0,0-8.5,8.74c0,20.23,0,40.18,0,59.29a8.54,8.54,0,0,0,8.49,8.76l.92,0h95.35l.93,3.69H113.71V213.59h168m37.48-4H109.71V327.21H225.79c-1-3.9-1.94-7.68-2.95-11.69H124.38l-.72,0a4.57,4.57,0,0,1-4.69-4.76q0-29.64,0-59.29a4.46,4.46,0,0,1,4.64-4.74l.8,0h35.28q39.28,0,78.57,0h0a3.65,3.65,0,0,0,3-1.36c3.2-3.49,6.53-6.87,9.87-10.23,1.18-1.19,2.53-2.2,4.17-3.61H218.62q-24.24,0-48.48,0h0c-2.2,0-3.85-.46-4.26-2.92h-12.6c-3.63,0-5.69-1.58-5.73-4.39s2-4.47,5.79-4.47h29.82q45.54,0,91.06,0a10.92,10.92,0,0,0,3.62-.65,83.91,83.91,0,0,1,28-5.37h.95c4.12,0,8.23.23,12.43.34v-4.48Z"/><path class="cls-2" d="M225,336a89.2,89.2,0,0,0,14.86,23.64H123.18c-5.79,0-9.35-3.39-9.53-9.05-.13-4.07-.09-8.26-.07-12.3,0-.75,0-1.51,0-2.26H145c29.65,0,54.65,0,80,0m.77-4h0L145,332H109.79a7.24,7.24,0,0,0-.18,1.06c0,5.88-.14,11.75,0,17.62.25,7.86,5.67,12.93,13.53,12.93H248.76l.21-.43c-.61-.56-1.25-1.09-1.84-1.68a85.35,85.35,0,0,1-18.73-27.84,2.34,2.34,0,0,0-2.6-1.69Z"/><path class="cls-2" d="M310.38,220.73c-44.26,0-80.26,35.85-80.28,80a80.29,80.29,0,0,0,79.22,80.35h.94c44.68,0,80.36-36.43,80.18-80.18a80.09,80.09,0,0,0-80.06-80.14Zm0,153.87h-.13a73.78,73.78,0,0,1-73.64-74.12c.25-41.62,34.34-73.31,73.82-73.31h.6c40,.33,73,33.4,72.92,73.74,0,40.6-33.1,73.69-73.57,73.69Z"/><path class="cls-2" d="M307.7,144.08H121.24v4.18H307.7v-4.18Z"/><path class="cls-2" d="M161,367.28H134.28a5,5,0,0,0,2.81,3.94,19.84,19.84,0,0,0,10.42,2.49h.19a20.28,20.28,0,0,0,10.11-2.25c1.58-.88,2.95-2,3.22-4.18Z"/><path class="cls-2" d="M285.91,253.9h0a21.62,21.62,0,0,1,15.55,6.39c6.91,6.59,8.94,14.51,6.22,24.21a6.09,6.09,0,0,0,1.79,6.6c.7.65,1.39,1.35,2.09,2.07l-4.87,5.11-.14-.13a7.19,7.19,0,0,0-4.9-2.18c-1.48,0-3.63.56-5.5,3.22l-.43.6-.06.07a6.6,6.6,0,0,0-2-.31,9.82,9.82,0,0,0-2.26.3,29.48,29.48,0,0,1-6.49.77c-6.36,0-11.71-2.38-16.38-7.3a21.81,21.81,0,0,1-6.42-17.11l2.77,2.62c.56.54,1.12,1.13,1.71,1.75s1,1,1.44,1.5a16.08,16.08,0,0,0,11.42,4.78A15.86,15.86,0,0,0,291,260.14c-2-2.09-3.91-4.12-5.94-6.22l.87,0m0-4a35.69,35.69,0,0,0-9.09,1.26c3.94,4.11,7.64,7.86,11.23,11.71a11.86,11.86,0,0,1-8.6,20,12.13,12.13,0,0,1-8.59-3.61c-1.09-1.09-2.11-2.26-3.22-3.32-2.69-2.56-5.42-5.08-8.05-7.55a4.5,4.5,0,0,0-.31.83c-2.75,10.1-.91,19.23,6.35,26.87a25.77,25.77,0,0,0,19.28,8.54,33.05,33.05,0,0,0,7.38-.87,6.12,6.12,0,0,1,1.37-.2,2.23,2.23,0,0,1,2,1.11,1.31,1.31,0,0,0,.92.66c.31,0,.62-.25.91-.86a22.63,22.63,0,0,1,2-3,2.86,2.86,0,0,1,2.23-1.53,3.38,3.38,0,0,1,2.18,1.11c1,.92,2,1.86,3,2.85l10.25-10.77c-1.73-1.78-3.25-3.45-4.89-5a2.18,2.18,0,0,1-.67-2.6c3-10.79.86-20.39-7.31-28.19a25.64,25.64,0,0,0-18.31-7.49Z"/><path class="cls-2" d="M322.87,304.16q2.26,2.23,4.51,4.42,3.31,3.26,6.65,6.49c3.88,3.78,7.87,7.67,11.82,11.55a10.72,10.72,0,0,0-3.28-.5,10.3,10.3,0,0,0-10.38,10.45,10.11,10.11,0,0,0,.4,2.82C326.89,333.2,321.31,327,316,321c.69-.5,1.35-1,2-1.52a6.53,6.53,0,0,0,2.65-4.75,6.59,6.59,0,0,0-2-5.09c-.15-.17-.31-.33-.47-.48l.34-.36,4.44-4.64m-.09-5.69-10.35,10.82c1.12,1.07,2.23,2,3.25,3.12,1.32,1.38,1.24,2.77-.23,4-1.2,1-2.47,1.83-4.07,3,.21,1,.07,2.58.78,3.37q10.14,11.44,20.54,22.66a12.28,12.28,0,0,0,9.25,4.15,15.17,15.17,0,0,0,3.42-.4,12.54,12.54,0,0,0,9.7-9.18,12.77,12.77,0,0,0-3.54-13.37c-7.08-7-14.23-13.93-21.36-20.89-2.44-2.38-4.87-4.78-7.39-7.25ZM342.61,343a6.43,6.43,0,0,1,0-12.85h0a6.43,6.43,0,0,1,0,12.85Z"/><path class="cls-2" d="M296.14,306a2.17,2.17,0,0,0-1.56.83c-1.27,1.41-2.6,2.77-3.91,4.14q-12.23,12.78-24.47,25.56a4.44,4.44,0,0,0-1.11,5.17,5.05,5.05,0,0,1,1.35-.18c4.63,0,10.44,5.43,9.68,10.71a5.39,5.39,0,0,0,1.67.29,4.26,4.26,0,0,0,3.16-1.45q14.26-14.91,28.54-29.8c1.09-1.14,1.08-2.18,0-3.23q-5.89-5.67-11.83-11.31a2.25,2.25,0,0,0-1.52-.73Zm-24.21,30.3-.44-.39q11.68-12.19,23.35-24.4l.41.4-23.32,24.39Zm2.36,2.27-.41-.39q11.64-12.19,23.3-24.38l.41.42q-11.65,12.18-23.3,24.35Zm2.39,2.26-.42-.39,23.28-24.36.44.39-23.3,24.36Zm2.39,2.25-.43-.38L302,318.33l.41.4L279.07,343.1Zm2.32,2.33L281,345l23.33-24.4.42.4-23.33,24.4Z"/><path class="cls-2" d="M351.39,262.44c-1.12,1.94-2.22,3.84-3.34,5.75l-3.64,2.05L343,271a17,17,0,0,1,8.37-8.58l0,0m3.18-6.71a53.92,53.92,0,0,1-5,3.14A21.07,21.07,0,0,0,339,270.21a13.93,13.93,0,0,1-2.52,4.32c-8.94,9.49-18,18.89-27,28.33-.43.45-1.1,1.35-1,1.52a12.35,12.35,0,0,0,2.68,2.72.15.15,0,0,0,.1,0,3.87,3.87,0,0,0,1.69-1.06q13.54-14.1,27.05-28.25a6.42,6.42,0,0,1,1.27-1.23c2.95-1.7,5.95-3.34,8.91-5a2.73,2.73,0,0,0,1-.93c2.25-3.82,4.46-7.66,6.74-11.6l-3.43-3.28Z"/><path class="cls-2" d="M301.92,300.85c-.63,0-1.15.91-2.5,2.85a1.91,1.91,0,0,0,.33,2.92c3,2.83,6,5.72,9,8.59,1.16,1.1,1.73,1.64,2.35,1.64s1.22-.47,2.44-1.4c.64-.48,1.21-1,2-1.71-.5-.59-.83-1.06-1.23-1.45l-9.62-9.23c-1.5-1.44-2.17-2.21-2.75-2.21Z"/><path class="cls-2" d="M267.38,342.66a5.71,5.71,0,0,0-2.12.44l9.13,8.71.6-.45c.43-3.24-1.52-5.32-3.84-7.12a6.12,6.12,0,0,0-3.77-1.58Z"/></svg>