<svg xmlns="http://www.w3.org/2000/svg" viewBox="0 0 1840.37 573.05"><defs><style>.cls-1{fill:#dee9f7;}.cls-2{fill:#c0d1ec;}.cls-3{fill:#9fb6df;}.cls-4{fill:#447bbf;}.cls-5{fill:#be1e2d;}.cls-6{fill:#fff;}.cls-7{fill:#b2c1e3;}.cls-8{fill:#9ab0db;}.cls-9{fill:#a8c3e6;}.cls-10{fill:#243962;}.cls-11{fill:#919bce;}.cls-12{fill:#35498c;}.cls-13{fill:#fab17e;}.cls-14{fill:#751113;}.cls-15{fill:#2b488c;}.cls-16{fill:#2e3b65;}.cls-17{fill:#ee985e;}.cls-18{fill:#d63044;}.cls-19{fill:none;}</style></defs><g id="Layer_2" data-name="Layer 2"><g id="Layer_1-2" data-name="Layer 1"><path class="cls-1" d="M1237.61,572.21c-39.43,0-644.11,0-644.11,0-22.14-22.46-28.67-76.07,19.3-127.85,17.57-19-29-55.32,1.22-113.66,11.5-22.17,57.43-60.27,178.64-30.7,51.55,12.57,95.28-7.51,105-14.75a107.84,107.84,0,0,1,17.83-10.73c66.71-32.28,182-11.72,232.29,27.08,7.13,5.5,39.54,33.95,14,73.06-16.13,24.7,51.46,48.28,75.48,76.48C1298.28,522.83,1238.16,571.27,1237.61,572.21Z"/><path class="cls-2" d="M708.86,403.8v.4c0,7.7-6.53,14-14.55,14H650.72a8.62,8.62,0,0,0-8.79,8.43v1.33a8.62,8.62,0,0,0,8.79,8.43h48.12a1.78,1.78,0,0,1,1.78,1.77,3.77,3.77,0,0,1-3.77,3.77H650.72c-8,0-14.55-6.27-14.55-14V426.6c0-7.7,6.52-14,14.55-14h43.59a8.62,8.62,0,0,0,8.78-8.43v-.4a8.63,8.63,0,0,0-8.78-8.44H649.9c-8,0-14.54-6.26-14.54-14v-1.87c0-7.7,6.52-14,14.54-14h44.41a8.44,8.44,0,1,0,0-16.86H606.77q.78-2.73,1.78-5.54h85.76c8,0,14.55,6.27,14.55,14s-6.53,14-14.55,14H649.9a8.62,8.62,0,0,0-8.78,8.43v1.87a8.62,8.62,0,0,0,8.78,8.44h44.41C702.33,389.83,708.86,396.09,708.86,403.8Z"/><rect class="cls-3" x="970.49" y="344.81" width="74.53" height="1.67"/><path class="cls-3" d="M969.63,345.4a1.77,1.77,0,1,1,1.77,1.77A1.77,1.77,0,0,1,969.63,345.4Z"/><path class="cls-3" d="M1042.74,345.4a1.77,1.77,0,1,1,1.77,1.77A1.77,1.77,0,0,1,1042.74,345.4Z"/><path class="cls-4" d="M1037.78,344.85v57.63c-5.73,1-20.66.14-29.17,1.11s-27.83-.33-27.83-.33V345.12a1.73,1.73,0,0,1,1.73-1.73l53.72-.08A1.54,1.54,0,0,1,1037.78,344.85Z"/><path class="cls-5" d="M1037.78,380v22.44c-5.73,1-20.66.14-29.17,1.11s-27.83-.33-27.83-.33v-21.6c.13-.77.21-1.22.21-1.22a194,194,0,0,0,23.43.27C1015.39,380,1028.57,381.81,1037.78,380Z"/><path class="cls-6" d="M991.23,393.22c-4.66,0-10.11-.22-10.42-.23l.06-1.4c.1,0,10.06.42,14.58.14l1.06-.06c5.47-.34,16.86-1.05,21.61-.25s20-.19,20.12-.2l.09,1.39c-.62.05-15.39,1-20.44.18-4.6-.76-16.29,0-21.29.27l-1.07.07C994.36,393.2,992.84,393.22,991.23,393.22Z"/><path class="cls-6" d="M991.23,396.29c-4.66,0-10.11-.22-10.42-.23l.06-1.4c.1,0,10.06.42,14.58.14l1.06-.06c5.47-.34,16.86-1.05,21.61-.25s20-.19,20.12-.2l.09,1.39c-.62.05-15.39,1-20.44.18-4.6-.76-16.29,0-21.29.27l-1.07.07C994.36,396.27,992.84,396.29,991.23,396.29Z"/><rect class="cls-3" x="880.1" y="329.66" width="69.05" height="87.94"/><rect class="cls-2" x="882.9" y="332.41" width="63.46" height="82.78"/><rect class="cls-2" x="666.19" y="466.51" width="85.33" height="105.04"/><rect class="cls-7" x="666.19" y="482.17" width="85.33" height="1.43"/><path class="cls-7" d="M691.44,480.78H668.76V468.66h22.68Zm-22.39-.29h22.1V468.94h-22.1Z"/><path class="cls-7" d="M703.78,474.72a4.07,4.07,0,1,1,4.06,4.06A4.07,4.07,0,0,1,703.78,474.72Z"/><path class="cls-7" d="M714.76,474.72a3.32,3.32,0,1,1,3.32,3.31A3.32,3.32,0,0,1,714.76,474.72Z"/><rect class="cls-7" x="726.58" y="470.82" width="18.16" height="7.79"/><circle class="cls-7" cx="707.84" cy="522.63" r="31.62"/><circle class="cls-8" cx="707.84" cy="522.63" r="25.42" transform="translate(-24.93 35.57) rotate(-2.83)"/><rect class="cls-7" x="727.28" y="518.36" width="9.4" height="11.11" rx="4.7"/><rect class="cls-2" x="870.96" y="465.08" width="94.74" height="106.28"/><rect class="cls-7" x="870.96" y="497.69" width="94.74" height="1.26"/><rect class="cls-7" x="910.39" y="468.72" width="17.18" height="2.11" rx="1.05"/><rect class="cls-7" x="870.96" y="536.26" width="94.74" height="1.26"/><rect class="cls-7" x="910.39" y="501.55" width="17.18" height="2.11" rx="1.05"/><rect class="cls-7" x="910.39" y="541.83" width="17.18" height="2.11" rx="1.05"/><rect class="cls-8" x="865.06" y="459.54" width="105.87" height="6.96"/><path class="cls-8" d="M913.35,444.37h0a2.13,2.13,0,0,1-2.11-2.12V423a2.13,2.13,0,0,1,2.11-2.12h0a2.13,2.13,0,0,1,2.12,2.12v19.25A2.13,2.13,0,0,1,913.35,444.37Z"/><path class="cls-2" d="M949.5,444.36c0,6.51-7,12.19-17.46,15.2H897.75c-10.43-3-17.46-8.69-17.46-15.2Z"/><path class="cls-9" d="M951.21,444.37H878.58a1.53,1.53,0,0,1-1.52-1.53h0a1.52,1.52,0,0,1,1.52-1.52h72.63a1.53,1.53,0,0,1,1.52,1.52h0A1.53,1.53,0,0,1,951.21,444.37Z"/><rect class="cls-10" x="0.84" y="571.37" width="1839.53" height="1.68" rx="0.84"/><path class="cls-11" d="M774.59,572.23s-4-6.4-15.52-5.06-19.66,7.52-47.05.63-24.91,5.48-40.51,2.81-22.44,1.62-22.44,1.62Z"/><rect class="cls-12" x="754.88" y="500.96" width="2.26" height="11.99" transform="translate(-149.79 596.83) rotate(-39.51)"/><path class="cls-12" d="M751.16,498.35h0a1.91,1.91,0,0,1,0,2.39c-.84.87-1.85.54-2.6-.37l-.2-.24c-.25-.31-.95.38-.9.78a3.26,3.26,0,1,0,5.75-2.44,3.29,3.29,0,0,0-1.22-.92C751.58,497.37,750.89,497.94,751.16,498.35Z"/><path class="cls-12" d="M760.73,515.9h0a1.94,1.94,0,0,1,0-2.4c.84-.87,1.85-.53,2.6.38l.19.23c.26.32,1-.37.91-.78a3.24,3.24,0,0,0-1-2,3.26,3.26,0,0,0-4.75,4.45,3.19,3.19,0,0,0,1.23.92C760.31,516.88,761,516.31,760.73,515.9Z"/><path class="cls-13" d="M755.21,509.79c2.09.33,6.94-1.12,7.29-1.15,3-.29.11-3.25.11-3.25a52.61,52.61,0,0,0-5.52-1,8.83,8.83,0,0,0-1.15.22l.81.79s-3.94.42-4,1.33A3,3,0,0,0,755.21,509.79Z"/><path class="cls-13" d="M757.09,504.41l-3.35.41c0,.88,2.58.59,2.7,1s.72-.6.72-.6Z"/><path class="cls-13" d="M788.33,504.68s-4.51.44-4.22.92,2.27.68,2.27.68l1.59-1Z"/><path class="cls-14" d="M761.68,506.85c-.72-2.09.29-2.75.29-2.75s20.65-9.79,22.34-10.87,13-21.75,13-21.75,4.21-8.46,9.57-8.29c4.65.15,7.24,3.05,8.68,6.1a9.75,9.75,0,0,1-1.77,10.85c-6.18,6.54-18.6,19.5-21.82,21.47-7.15,4.37-28.61,7.91-28.61,7.91A6.92,6.92,0,0,1,761.68,506.85Z"/><path class="cls-15" d="M764.7,529.29c3.12,3.6,9.69,5.92,22.37,6.51l3.07.11c1.06,0,2.13.06,3.19.07,3.44,0,6.87,0,10.14-.1s6.19-.28,8.92-.51a59.15,59.15,0,0,0,11.82-1.83,4.09,4.09,0,0,0,1.4-.69,2.38,2.38,0,0,0,.55-.71c.8-1.48.38-3.91-.59-6.59a63.27,63.27,0,0,0-5.73-11.09l-.92-1.44-.87-1.29s-5.92.55-14,1.6c-1.65.21-3.4.45-5.2.71C781.38,516.5,764,520.93,764,526.81A3.18,3.18,0,0,0,764.7,529.29Z"/><path class="cls-16" d="M786.29,535.72c1.06,0,6,.25,7,.26,3.44,0,6.87,0,10.14-.1l3.07-12.38C801.79,530.13,787.82,535.3,786.29,535.72Z"/><path class="cls-16" d="M796.56,571.69h-16.9a3,3,0,0,1,2.48-1.76c2.66-.47,7.28-1.91,6.69-5.75s5.88-4.4,5.88-4.4S797.41,570.2,796.56,571.69Z"/><path class="cls-15" d="M764.43,528.66s21,33,22.71,36.9c0,0,7.14.67,8.85-4.43,0,0-12.46-34.81-17.94-37.68S764.43,528.66,764.43,528.66Z"/><path class="cls-13" d="M806.71,459.21s-7.22,9.88-13.65,10.41a19.81,19.81,0,0,1,1.49-4.13,4.35,4.35,0,0,0-.07-4.13l0-.05a38.34,38.34,0,0,1-1.82-3.58l3-5.36.61-2.88a19.45,19.45,0,0,0,1.74,3.63A13.68,13.68,0,0,0,806.71,459.21Z"/><path class="cls-17" d="M798.21,453.07a8.31,8.31,0,0,1-3.77,8.24,38.34,38.34,0,0,1-1.82-3.58l3-5.36C798,452,798.21,453.07,798.21,453.07Z"/><path class="cls-13" d="M791.72,460.71s9.06-4.93,5.9-10.52-4.12-10-10-7.09-5.82,5.68-5.22,7.8S789.28,461.85,791.72,460.71Z"/><path class="cls-15" d="M797.58,439.05c0-.14.23-.3.68-.51a2,2,0,0,0-1,.09,2.53,2.53,0,0,0-2.36-1.5,1.51,1.51,0,0,1,1.07.76c-1.81-.85-5-.76-12.36,2.81-9.76,4.69-3.91,10-2.3,10.24s4.06-3.13,6.56-3.88,4.35,2.65,5.36,2.82.36-.57,1.28-1.51,1.74.89,1.89,2.24a4.39,4.39,0,0,0,1.77,2.46s.54-.1,1.43-2.39-.42-10-1.71-11.29Z"/><path class="cls-10" d="M851.66,560.9s2.11,3.2,2.6,4.24a3.06,3.06,0,0,1-1.92,3.57c-1.27.29-1.46,2.55-1.46,2.55h6.17a1.63,1.63,0,0,0,1.5-.91,21.85,21.85,0,0,0,1.24-5.25c.37-1.75,1.1-3.22.78-5s-3.36-2.81-8.91-2.79C845.57,557.32,851.66,560.9,851.66,560.9Z"/><path class="cls-5" d="M833.5,522.35c-4.66,4.94-38.86-5.27-36-7.88.73-.66.48-1.45.78-2.52,1.42-5-1.41-13.68-2.62-17-.28-.78-.48-1.27-.51-1.37a58.76,58.76,0,0,1-2.64-9.52c-1.13-6-1.11-11.65.44-15.09l0,0c6.41-1.88,9.93-11.3,9.93-11.3s20.3,5.76,27.67,34.72c0,0,.38,1.85.84,4.62h0c.14.85.29,1.79.44,2.79.79,5.15,1.25,11.76,1.71,16.68l.06.52C833.87,519.05,834.28,521.53,833.5,522.35Z"/><path class="cls-4" d="M806.57,517.45s3.41.45,10.29,1c7.12.53,14.67,1.65,15.9,4,.41.8.13,2.8-.67,5.57-1.76,6.13-6,16-10.88,24.74,12.49.73,29.49,3.48,29.49,3.48a7.48,7.48,0,0,1,1.61,6.83c-.89,0-3.57.38-7.23,1-13.25,2.13-29.39,6.52-39.4,6.52a4.8,4.8,0,0,1-4.49-3.58h0C797.07,554.46,806.57,517.45,806.57,517.45Z"/><path class="cls-16" d="M832.09,529c-6.89-.21-24.19-8.7-23.9-8.77a84.32,84.32,0,0,1,8.67-1.69c7.12.58,14.67,1.8,15.9,4.4C833.17,523.76,832.89,525.94,832.09,529Z"/><path class="cls-4" d="M806.32,459s-8.68,1.8-9.52,9.41c-.62,5.53,3.77,18.07,3.77,18.07l2.81-1.15s-5.31-15.48-4.49-18.11c1.05-3.38,6-8.43,10.62-6.42Z"/><path class="cls-4" d="M833.5,522.35c-4.66,4.94-39.59-5.17-36.73-7.77a5.43,5.43,0,0,0,1.52-2.63c1.42-5-1.41-13.68-2.62-17-.28-.78-2.95-10-3-10.07l9.83-2.13s2.79,4.79,6.4,7.25a40,40,0,0,0,22.51,7h0c.14.85.29,1.79.44,2.79.79,5.15,1.25,11.76,1.71,16.68l.06.52C833.87,519.05,834.28,521.53,833.5,522.35Z"/><path class="cls-13" d="M795,504.28a18.25,18.25,0,0,1-3.23.42c-1.5.05-3.09-.23-3.81.08-1.53.63-6.35,4-4,5.37a5.36,5.36,0,0,0,6.32-.37c1.59-1.29,5.92-1.4,5.92-1.4Z"/><path class="cls-18" d="M811.22,466c10.46,3,16.83,28.13,15.36,35.64s-31,7.9-31,7.9a5.29,5.29,0,0,1-1.85-2.63,6,6,0,0,1,0-2.5s18.67-5.07,19.1-7.22-9-13.59-8.84-19.78S805.52,464.34,811.22,466Z"/><rect class="cls-19" width="1840.37" height="571.37"/></g></g></svg>