<svg id="Layer_1" data-name="Layer 1" xmlns="http://www.w3.org/2000/svg" viewBox="0 0 1049.8 669.93"><defs><style>.cls-1{fill:#dbe8f7;}.cls-2{fill:#92a4d4;}.cls-3{fill:#d1dff3;}.cls-4{fill:#b0c0e3;}.cls-5{fill:#becfea;}.cls-6{fill:#bed7f0;}.cls-7{fill:#dee9f7;}.cls-8{fill:#b4d3ef;}.cls-9{fill:#751113;}.cls-10{fill:#d63044;}.cls-11{fill:#be1e2d;}.cls-12{fill:#faab77;}.cls-13{fill:#eaf3fb;}.cls-14{fill:#c3d0eb;}.cls-15{fill:#a0aed9;}.cls-16{fill:#e86524;}.cls-17{fill:#f79134;}.cls-18{fill:#f47621;}.cls-19{fill:#8facd9;}.cls-20{fill:#8d98cc;}.cls-21{fill:#c3ddf4;}.cls-22{fill:#344891;}.cls-23{fill:#f4fbfe;}.cls-24{fill:#447bbf;}.cls-25{fill:#1e3966;}.cls-26{fill:#f89a5f;}.cls-27{fill:#231f20;}.cls-28{fill:#2b3a68;}.cls-29{fill:#fab284;}.cls-30{fill:#ef7d2d;}.cls-31{fill:#f68730;}.cls-32{fill:#f89e58;}.cls-33{fill:#f9a03d;}.cls-34{fill:#da6127;}.cls-35{fill:#fff;}.cls-36{fill:#ed7a23;}.cls-37{fill:#234f9d;}.cls-38{fill:#f47b23;}.cls-39{fill:#f8cba6;}.cls-40{fill:#fedcbb;}.cls-41{fill:#72b571;}.cls-42{fill:#9dd199;}.cls-43{fill:#254790;}.cls-44{fill:#f5904e;}.cls-45{fill:#ed8822;}.cls-46{fill:#697abb;}.cls-47{fill:#f79351;}.cls-48{fill:#fcb315;}.cls-49{opacity:0.8;}.cls-50{fill:#243962;}</style></defs><path class="cls-1" d="M1040.94,604.66c-12.28,39.78-33,62.76-33.44,63.69-61.84,0-962.66.22-963.18-1.38l-.09-.2a1.07,1.07,0,0,1-.08-.29c-.14-.34-23.94-38.94-36.53-95.15-17.84-79.62-13.2-194.57,113-286.1,84.22-61.1-5.27-101.43,61.7-169.45C248.77,48.27,320.49,103.59,394,97.06c32.27-2.81,57.92-17.37,80.35-40.19C527.05,3.26,609.36-7.47,683.91,4.31,756,15.72,825.51,48.7,866.56,91.72c11.18,11.72,62,72.35,22,155.69-25.31,52.62,80.7,102.87,118.37,163C1058,491.84,1055,559.21,1040.94,604.66Z"/><path class="cls-2" d="M237.31,493.17v4.4c0,1.55-.5,2.81-1.11,2.81H75.4c-.61,0-1.11-1.26-1.11-2.81v-4.4c0-1.54.5-2.81,1.11-2.81H236.2C236.81,490.36,237.31,491.63,237.31,493.17Z"/><path class="cls-3" d="M237.31,493.17v4.4c0,1.55-.45,2.81-1,2.81H108.63c-.56,0-1-1.26-1-2.81v-4.4c0-1.54.45-2.81,1-2.81H236.3C236.86,490.36,237.31,491.63,237.31,493.17Z"/><rect class="cls-4" x="82.45" y="500.38" width="114.16" height="166.4"/><rect class="cls-5" x="114.44" y="500.38" width="114.16" height="166.4"/><path class="cls-2" d="M222.47,657.59H120.58V505.08H222.47Zm-100.79-1.1h99.69V506.18H121.68Z"/><rect class="cls-2" x="121.13" y="555.53" width="100.79" height="1.1"/><rect class="cls-2" x="121.13" y="606.96" width="100.79" height="1.1"/><path class="cls-2" d="M181.85,514.91h-18.7a1.65,1.65,0,0,1-1.65-1.65h0a1.66,1.66,0,0,1,1.65-1.65h18.7a1.66,1.66,0,0,1,1.65,1.65h0A1.65,1.65,0,0,1,181.85,514.91Z"/><path class="cls-2" d="M181.85,565.21h-18.7a1.65,1.65,0,0,1-1.65-1.65h0a1.65,1.65,0,0,1,1.65-1.65h18.7a1.65,1.65,0,0,1,1.65,1.65h0A1.65,1.65,0,0,1,181.85,565.21Z"/><path class="cls-2" d="M181.85,617.64h-18.7A1.65,1.65,0,0,1,161.5,616h0a1.66,1.66,0,0,1,1.65-1.65h18.7A1.66,1.66,0,0,1,183.5,616h0A1.65,1.65,0,0,1,181.85,617.64Z"/><rect class="cls-6" x="224.55" y="129.95" width="80.02" height="77.63" rx="14.09"/><rect class="cls-7" x="228.02" y="133.32" width="73.09" height="70.91" rx="12.87"/><path class="cls-8" d="M262.91,140.4a1.66,1.66,0,1,1,1.66,1.66A1.66,1.66,0,0,1,262.91,140.4Z"/><path class="cls-8" d="M276.28,142.74a1.67,1.67,0,0,1,2.26-.64,1.66,1.66,0,0,1-1.61,2.9A1.67,1.67,0,0,1,276.28,142.74Z"/><path class="cls-8" d="M287.74,151.85a1.66,1.66,0,1,1-.49,2.29A1.65,1.65,0,0,1,287.74,151.85Z"/><path class="cls-8" d="M293.42,165.94a1.66,1.66,0,1,1-1.66,1.66A1.66,1.66,0,0,1,293.42,165.94Z"/><circle class="cls-8" cx="289.35" cy="183.46" r="1.66"/><path class="cls-8" d="M280.11,192.73a1.65,1.65,0,1,1-2.34,0A1.65,1.65,0,0,1,280.11,192.73Z"/><path class="cls-8" d="M262.91,198.11a1.66,1.66,0,1,1,1.66,1.65A1.66,1.66,0,0,1,262.91,198.11Z"/><path class="cls-8" d="M252.79,142.74a1.65,1.65,0,1,0-.64,2.26A1.65,1.65,0,0,0,252.79,142.74Z"/><path class="cls-8" d="M241.34,151.85a1.66,1.66,0,1,0,.49,2.29A1.66,1.66,0,0,0,241.34,151.85Z"/><path class="cls-8" d="M235.66,165.94a1.66,1.66,0,1,0,1.66,1.66A1.66,1.66,0,0,0,235.66,165.94Z"/><path class="cls-8" d="M238.56,182.29a1.65,1.65,0,1,0,2.34,0A1.65,1.65,0,0,0,238.56,182.29Z"/><path class="cls-8" d="M249,192.73a1.65,1.65,0,1,0,2.34,0A1.65,1.65,0,0,0,249,192.73Z"/><path class="cls-8" d="M264.12,167.6a1.66,1.66,0,1,1,1.66,1.65A1.66,1.66,0,0,1,264.12,167.6Z"/><rect class="cls-8" x="265.55" y="146.89" width="0.45" height="20.71"/><rect class="cls-8" x="264.08" y="162.58" width="13.96" height="1.36" transform="translate(-42.96 202.2) rotate(-38.13)"/><rect class="cls-9" x="77.57" y="407.41" width="89.71" height="82.95" transform="translate(244.85 897.78) rotate(180)"/><rect class="cls-10" x="122.42" y="407.41" width="89.71" height="82.95" transform="translate(334.56 897.78) rotate(180)"/><polygon class="cls-11" points="77.62 469.33 91.84 469.33 90.58 464.84 91.84 461.64 77.62 461.64 77.62 469.33"/><polygon class="cls-9" points="122.42 433.08 136.64 433.08 135.39 428.6 136.64 425.39 122.42 425.39 122.42 433.08"/><polygon class="cls-11" points="122.42 425.39 108.21 425.39 109.46 429.88 108.21 433.08 122.42 433.08 122.42 425.39"/><polygon class="cls-12" points="212.14 470.22 197.92 470.22 199.17 474.7 197.92 477.91 212.14 477.91 212.14 470.22"/><rect class="cls-13" x="431.2" y="429.53" width="29.07" height="167.66" rx="13.6"/><rect class="cls-13" x="470.82" y="429.53" width="29.07" height="167.66" rx="13.6"/><rect class="cls-13" x="510.44" y="429.53" width="29.07" height="167.66" rx="13.6"/><rect class="cls-13" x="550.06" y="429.53" width="29.07" height="167.66" rx="13.6"/><rect class="cls-13" x="589.68" y="429.53" width="29.07" height="167.66" rx="13.6"/><rect class="cls-13" x="629.3" y="429.53" width="29.07" height="167.66" rx="13.6"/><path class="cls-13" d="M672.66,2.72C601.19-6.28,524.41,6,474.31,56.87c-20.14,20.49-42.88,34.31-70.67,39V391.74h269Z"/><path class="cls-14" d="M683.91,401.37V4.31C679,3.53,674,2.85,669,2.28V385.42H408.87V94.84A120.2,120.2,0,0,1,394,97.06V401.37Z"/><path class="cls-14" d="M392.62,387.39h294a13.5,13.5,0,0,1,13.5,13.5v1.28a0,0,0,0,1,0,0H378.8a0,0,0,0,1,0,0v-1a13.83,13.83,0,0,1,13.83-13.83Z"/><path class="cls-14" d="M544.56,13.43q-9,3.13-17.68,7.07V390.37h17.68Z"/><path class="cls-15" d="M538.62,208.09H537.2a1.78,1.78,0,0,1-1.77-1.74L534.8,186a1.79,1.79,0,0,1,1.77-1.85h2.73a1.79,1.79,0,0,1,1.77,1.86l-.68,20.31A1.79,1.79,0,0,1,538.62,208.09Z"/><path class="cls-13" d="M713.57,489.84H630.94v-5.18h82.63a15.82,15.82,0,0,0,15.79-15.79V14.67h5.18v454.2A21,21,0,0,1,713.57,489.84Z"/><path class="cls-4" d="M951.05,664.59l-21.7-80.17h16.91l12.19,79.74A2.74,2.74,0,0,1,956,667.5h-1.54A3.7,3.7,0,0,1,951.05,664.59Z"/><path class="cls-4" d="M708.34,664.59,730,584.42H713.13l-12.19,79.74a2.75,2.75,0,0,0,2.43,3.34h1.54A3.7,3.7,0,0,0,708.34,664.59Z"/><path class="cls-4" d="M840.44,664.59l-21.7-80.17h16.91l12.19,79.74a2.75,2.75,0,0,1-2.43,3.34h-1.54A3.7,3.7,0,0,1,840.44,664.59Z"/><path class="cls-16" d="M964.86,393.76s-44.9-9.81-131.55,0l-9.94,101,119-5.89Z"/><path class="cls-17" d="M697,546s-8.52-90.4,30.38-90.4,45-.32,43.17-36.31c-1.5-29.54,68.92-26.84,68.92-26.84L808.61,546Z"/><path class="cls-18" d="M719.21,546s-8.53-90.4,30.38-90.4,50.54-6.14,55.95-41.77c3.59-23.65,41.92-21.54,41.92-21.54a32.25,32.25,0,0,0-11.31,22.47c-1.88,33-5.29,131.24-5.29,131.24Z"/><path class="cls-16" d="M719.17,546s-1.17-8.83,4.43-12.87c14.06-10.16,37.45-22.9,67.89-24.63,51.59-2.94,84.44,37.5,84.44,37.5Z"/><path class="cls-19" d="M836.92,592.73s-11.43-.26-13.57,8.72l-3.05-11.53h16.31Z"/><path class="cls-19" d="M947.54,592.79s-11.46-.38-13.6,8.6l-3.13-11.49h16.32Z"/><path class="cls-19" d="M712,591.51s13.4-.41,14,7.87l2.56-9.46H712.29Z"/><rect class="cls-4" x="889.8" y="277.82" width="3.3" height="249.63" transform="translate(186.12 -275.09) rotate(19.55)"/><path class="cls-4" d="M870.64,533.31l-45.43-16.13h0a6.27,6.27,0,0,1,8-3.82l33.6,11.94a6.27,6.27,0,0,1,3.82,8Z"/><path class="cls-4" d="M924,355.24a.6.6,0,0,1,.77-.37.61.61,0,1,1-.41,1.14A.6.6,0,0,1,924,355.24Z"/><path class="cls-4" d="M924.35,354.13a.61.61,0,1,1,.37.77A.6.6,0,0,1,924.35,354.13Z"/><path class="cls-4" d="M923.56,356.35a.6.6,0,1,1,1.14.4.6.6,0,0,1-1.14-.4Z"/><path class="cls-4" d="M923.16,357.48a.6.6,0,1,1,.37.77A.6.6,0,0,1,923.16,357.48Z"/><path class="cls-4" d="M922.78,359.83a.61.61,0,0,1,.67-.53.59.59,0,0,1,.53.66.6.6,0,1,1-1.2-.13Z"/><path class="cls-4" d="M922.91,358.66a.6.6,0,1,1,.53.67A.61.61,0,0,1,922.91,358.66Z"/><path class="cls-4" d="M922.65,361a.62.62,0,0,1,.67-.54.61.61,0,0,1,.53.67.61.61,0,0,1-.67.54A.61.61,0,0,1,922.65,361Z"/><path class="cls-4" d="M922.52,362.19a.59.59,0,0,1,.66-.53.6.6,0,1,1-.66.53Z"/><path class="cls-4" d="M922.43,364.53a.61.61,0,0,1,.51-.69.62.62,0,0,1,.69.52.61.61,0,0,1-.52.68A.6.6,0,0,1,922.43,364.53Z"/><path class="cls-4" d="M922.45,363.35a.61.61,0,0,1,.52-.68.61.61,0,1,1-.52.68Z"/><path class="cls-4" d="M922.48,365.7A.61.61,0,0,1,923,365a.62.62,0,0,1,.69.52.61.61,0,0,1-1.2.17Z"/><path class="cls-4" d="M922.87,366.78a.59.59,0,0,1,.51-.68.6.6,0,1,1,.17,1.19A.6.6,0,0,1,922.87,366.78Z"/><path class="cls-4" d="M924.51,369a.6.6,0,1,1,.85,0A.6.6,0,0,1,924.51,369Z"/><path class="cls-4" d="M923.69,368.12a.6.6,0,1,1,.86-.85.6.6,0,1,1-.86.85Z"/><path class="cls-4" d="M925.33,369.8a.61.61,0,0,1,0-.86.6.6,0,1,1,0,.86Z"/><path class="cls-4" d="M926.17,370.66a.6.6,0,1,1,.85,0A.61.61,0,0,1,926.17,370.66Z"/><polygon class="cls-20" points="936.51 360.12 881.43 340.57 913.65 273.51 953.79 287.77 936.51 360.12"/><path class="cls-17" d="M743,342.38l-.12.23h0l-.12.22c-1.26,1.76-7.13.55-13.33-2.79s-10.44-7.57-9.66-9.59l.11-.23h0L720,330a13.06,13.06,0,0,1,23,12.39Z"/><path class="cls-20" d="M742.87,342.61h0a.3.3,0,0,1,0,.08,1,1,0,0,1-.08.14c-1.26,1.76-7.13.55-13.33-2.79s-10.44-7.57-9.66-9.59a.69.69,0,0,1,.07-.15.16.16,0,0,1,0-.07v0c.84-1.29,4-1.08,8,.32a38.74,38.74,0,0,1,5.39,2.42,41.72,41.72,0,0,1,4,2.47C741.2,338.2,743.54,341.07,742.87,342.61Z"/><path class="cls-21" d="M737.26,335.43a5.31,5.31,0,0,1-3,2,5.39,5.39,0,0,1-6.39-6.87,38.74,38.74,0,0,1,5.39,2.42A41.72,41.72,0,0,1,737.26,335.43Z"/><polygon class="cls-22" points="764.69 387.47 763.53 387.75 758.72 367.69 763.34 334.42 738.11 323.04 738.6 321.95 764.65 333.7 759.93 367.63 764.69 387.47"/><path class="cls-22" d="M736.2,325.72h0a1.23,1.23,0,0,1-.68-1.59l1.18-2.92a1.21,1.21,0,0,1,1.59-.68h0a1.21,1.21,0,0,1,.67,1.58L737.79,325A1.22,1.22,0,0,1,736.2,325.72Z"/><path class="cls-22" d="M762.15,334.34a1.58,1.58,0,1,1,1.91,1.17A1.58,1.58,0,0,1,762.15,334.34Z"/><path class="cls-22" d="M761.35,387H767a3.21,3.21,0,0,1,3.21,3.21v.22a0,0,0,0,1,0,0H758.14a0,0,0,0,1,0,0v-.22A3.21,3.21,0,0,1,761.35,387Z" transform="translate(-69.62 189.04) rotate(-13.49)"/><rect class="cls-22" x="760.6" y="368.71" width="2.53" height="19.17" transform="translate(-67.22 188.12) rotate(-13.49)"/><path class="cls-23" d="M753.5,524.2l30.2-.13a1.55,1.55,0,0,0,1.55-1.45A39.48,39.48,0,0,0,785,514h0a1.53,1.53,0,0,0-1.91-1.17,11.91,11.91,0,0,1-6.9-.31,16.51,16.51,0,0,1-4.88-2.73,1.55,1.55,0,0,0-2,.05c-2.09,1.9-6.84,6-9.34,6-3,0-7.33,1.33-7.94,6.64A1.55,1.55,0,0,0,753.5,524.2Z"/><path class="cls-23" d="M799.24,524.2l30.2-.13a1.55,1.55,0,0,0,1.55-1.45,39.48,39.48,0,0,0-.29-8.59h0a1.54,1.54,0,0,0-1.92-1.17,11.91,11.91,0,0,1-6.9-.31,16.45,16.45,0,0,1-4.87-2.73,1.55,1.55,0,0,0-2,.05c-2.09,1.9-6.85,6-9.35,6-3,0-7.32,1.33-7.94,6.64A1.56,1.56,0,0,0,799.24,524.2Z"/><path class="cls-24" d="M766.32,510.55s13.27,6.31,21.07,2c0,0,3-10.83,6.67-26.57,3-13,6.42-29.44,8.85-45.85.13-.87.26-1.81.38-2.83,1.94-16.54,1.74-51.29-31.81-41.94Z"/><path class="cls-25" d="M794.06,486c3-13,6.42-29.44,8.85-45.85.13-.87.26-1.81.38-2.83-2.07-11.61-5.29-20.89-9-22C794.24,415.28,781.23,471.48,794.06,486Z"/><path class="cls-12" d="M789.38,318.22,807,327.11l3.47-12.19a37.15,37.15,0,0,1-3.3-11.1,46.33,46.33,0,0,1-.4-10l-14.27,7.38a25.94,25.94,0,0,1,.58,3.27,23.56,23.56,0,0,1-.21,7.66A10.61,10.61,0,0,1,789.38,318.22Z"/><path class="cls-26" d="M792.83,312.11c8.13-.26,14.3-8.29,14.3-8.29l-14.09.63A23.56,23.56,0,0,1,792.83,312.11Z"/><path class="cls-12" d="M788.87,307.59s16.23,4.22,21.77-8.7c6-13.95-.69-24.06-6.2-24.72-11-1.32-17.35,2.9-19.26,7.33S779.91,305.35,788.87,307.59Z"/><path class="cls-27" d="M807.77,303.41s1.87-5.59,1.63-8.57c0,0,4.21-5.41,1.74-6.74s-3.79,1.88-4.35,1.25-1.5-11.22-4.49-10.88-14.06,3.83-18.94-.33,6.84-20.59,26.84-14.35S826.21,292.24,807.77,303.41Z"/><path class="cls-28" d="M820.09,272.45s.89-2.7-.09-4.62c0,0,0,2.65-1.07,3.84S820.09,272.45,820.09,272.45Z"/><path class="cls-28" d="M819.66,270.57a4,4,0,0,1,3.65,1.6,3.17,3.17,0,0,0-3.5.09Z"/><path class="cls-24" d="M831.79,394.73c1.45.2-3.76,63.62-.77,75.5s.2,44.06.2,44.06A40.76,40.76,0,0,1,807.76,513s-4-38.56-7.23-49.6c-7-23.78-10.82-66.54-10.82-66.54Z"/><polygon class="cls-29" points="773.76 333.04 763.48 359.99 777.68 361.74 780.55 339.78 773.76 333.04"/><path class="cls-11" d="M769.05,403.2a143,143,0,0,0,34.56,3.15,258.71,258.71,0,0,0,30.61-2.85c-.33.08-3.27-60.14-3.27-60.14l1.69-18.88c-5.31-6.58-15.24-8.59-22.21-9.56-2.66,2.75-7.91,6.79-13.8,6.05-4.43-.56-5.27-2.65-5.2-5.17-9.25,1.56-15.72,9.31-15.72,9.31Z"/><path class="cls-12" d="M832.36,323.55s18.41,34.69,16,44.16-28.55,13.1-28.55,13.1l-1.72-5s19.47-13.12,17.26-15.31S825,343.82,824.52,341.62,826.2,324.23,832.36,323.55Z"/><path class="cls-10" d="M823.7,318.14a26.38,26.38,0,0,1,11.81,9.08,92.07,92.07,0,0,1,7.88,14.6s-7,8.06-17,8S823.7,318.14,823.7,318.14Z"/><path class="cls-9" d="M784.75,318.2s-7.36,3.11-10.19,8.51-6.31,17.3-6.31,17.3a41.28,41.28,0,0,0,7.37.41C779.8,344.29,784.75,318.2,784.75,318.2Z"/><path class="cls-22" d="M797,362l8.47-17a2.88,2.88,0,0,0,.16-2.08h0a9,9,0,0,1,.93-6.41,1.86,1.86,0,0,1,2.67-.67,2.17,2.17,0,0,1,.63,2.87,4.62,4.62,0,0,0-.53,2.95c.07.23.27.91,1.51,1.48,2.8,1.3,4.09-1.18,4.42-2a1.89,1.89,0,0,1,2.54-1.09,2.14,2.14,0,0,1,1,2.74,8.53,8.53,0,0,1-4.1,4.41h0a4,4,0,0,0-2,1.91l-8.48,17Z"/><path class="cls-22" d="M789.27,361.05,791.09,351a1.54,1.54,0,0,0-.22-1.09h0a4.75,4.75,0,0,1-.46-3.41,1,1,0,0,1,1.26-.8,1.12,1.12,0,0,1,.74,1.35,2.49,2.49,0,0,0,.16,1.6c.06.1.26.41,1,.49a1.74,1.74,0,0,0,2-1.75,1.07,1.07,0,0,1,1.14-1,1.1,1.1,0,0,1,.92,1.22,4.84,4.84,0,0,1-1.44,2.93h0a2.28,2.28,0,0,0-.76,1.32l-1.82,10.09Z"/><path class="cls-20" d="M756.39,365.41l-5.63-13a1.9,1.9,0,0,0-1.07-1h0a6.14,6.14,0,0,1-3.12-3.45,1.58,1.58,0,0,1,.82-2,1.4,1.4,0,0,1,1.86.87,3.18,3.18,0,0,0,1.4,1.66c.15.06.61.23,1.49-.31a2.66,2.66,0,0,0,.87-3.7,1.6,1.6,0,0,1,.53-2.1,1.37,1.37,0,0,1,2,.56,6.87,6.87,0,0,1,.61,4.58h0a3.4,3.4,0,0,0,.14,2.16l5.63,13Z"/><rect class="cls-30" x="745.1" y="355.09" width="48.46" height="42.97" transform="translate(1540.4 749.59) rotate(179.74)"/><rect class="cls-31" x="769.33" y="354.98" width="48.46" height="42.97" transform="translate(1588.85 749.27) rotate(179.74)"/><polygon class="cls-32" points="769.25 355.09 778.88 366.35 826.7 366.13 817.71 354.87 769.25 355.09"/><polygon class="cls-33" points="745.17 387.27 752.85 387.24 752.16 384.92 752.84 383.25 745.16 383.29 745.17 387.27"/><polygon class="cls-34" points="769.27 359.95 759.1 370.98 745.11 371.05 745.04 355.2 769.25 355.09 769.27 359.95"/><polygon class="cls-32" points="745.02 355.2 734.16 366.56 758.41 366.45 769.25 355.09 745.02 355.2"/><path class="cls-12" d="M818.61,375.65s-4.44-2.79-6.5-1.79-5.67,4.92-3.69,5.65,4.74.53,5.81,1.11a7.72,7.72,0,0,0,5.89.14C822.59,379.84,818.61,375.65,818.61,375.65Z"/><path class="cls-12" d="M818.42,375.62a17.5,17.5,0,0,1-1-2.52c-.11-.64-.68-.37-.7.35s-.06,2-.06,2Z"/><path class="cls-18" d="M820.5,546h138a0,0,0,0,1,0,0v21.93a22,22,0,0,1-22,22H843.1a22.6,22.6,0,0,1-22.6-22.6V546A0,0,0,0,1,820.5,546Z"/><path class="cls-17" d="M697,546H843.83a0,0,0,0,1,0,0v21.23a22.68,22.68,0,0,1-22.68,22.68H720.27A23.31,23.31,0,0,1,697,566.6V546A0,0,0,0,1,697,546Z"/><path class="cls-17" d="M821.31,546s-8.75-90.4,31.21-90.4,63.47,3.64,55.16-41.53c-4.93-26.84,14-26.53,51.86-23.42,4.67.39,12.39,6.56,11.29,11.11L936,546Z"/><path class="cls-18" d="M843.85,546s-8.65-93.32,31.2-90.4c50.24,3.67,60.28,5.63,50.56-37.85-6.88-30.83,13.82-29.78,39.88-26.4,3.6.46,7.52,3.17,6.71,8.44L958.55,546Z"/><path class="cls-20" d="M237.19,424.47c-.54,2.13-1.69,5.55-3.16,9.65-.5,1.4-1,2.87-1.6,4.39-1.19,3.21-2.5,6.66-3.82,10.11-2.17,5.61-4.4,11.2-6.22,15.8-2.51,6.27-4.31,10.68-4.31,10.68l2.66,6.48-22.65-5.14,5.18-4.7s.27-4.74.73-11.46c.35-5,.77-11,1.23-17.08.29-3.65.59-7.28.9-10.66.26-2.82.53-5.46.78-7.77.32-2.92.66-5.34,1-6.95a12.89,12.89,0,0,1,1.67-4.31c3.93-6.44,12.5-7.74,13.25-11a12.72,12.72,0,0,0,.25-1.77c.47-5.19-.1-15.67-.1-15.67l14.81,3.36a151.3,151.3,0,0,0-6.8,13.93,13.9,13.9,0,0,0-.6,1.87c-.75,3.3,6.43,8.17,7.2,15.68A13.18,13.18,0,0,1,237.19,424.47Z"/><path class="cls-35" d="M237.19,424.47c-.54,2.13-1.69,5.55-3.16,9.65-.5,1.4-1,2.87-1.6,4.39-.16,0-7.91,1.61-26.3-6h0c.26-2.82.53-5.46.78-7.77.32-2.92.66-5.34,1-6.95a12.89,12.89,0,0,1,1.67-4.31s13.32,6.74,28,6.36A13.18,13.18,0,0,1,237.19,424.47Z"/><path class="cls-17" d="M233.15,436.53s-1.06-.84-2.94-2.38c-.93-.76-1.68-.39-2.62.09a5.08,5.08,0,0,1-3.38.73,4.4,4.4,0,0,1-2.6-1.52,3.8,3.8,0,0,0-3.81-1.33c-3.41.41-4.26-.4-5.79-1.86-.28-.27-.59-.57-.95-.89a3.85,3.85,0,0,0-4.47-.49l-.13-.22a4.12,4.12,0,0,1,4.77.52c.36.32.68.63,1,.89,1.47,1.42,2.29,2.19,5.58,1.8a4.08,4.08,0,0,1,4,1.4,4.15,4.15,0,0,0,2.47,1.45,4.83,4.83,0,0,0,3.21-.7c1-.5,1.84-.93,2.9-.06,1.88,1.53,2.93,2.36,2.94,2.37Z"/><path class="cls-17" d="M233.49,435s-1.06-.84-2.94-2.38c-.93-.77-1.68-.39-2.62.09a5,5,0,0,1-3.38.72A4.39,4.39,0,0,1,222,432a3.8,3.8,0,0,0-3.81-1.33c-3.41.41-4.26-.4-5.79-1.87-.28-.26-.6-.57-.95-.88a3.81,3.81,0,0,0-4.47-.5l-.13-.21a4.1,4.1,0,0,1,4.77.52c.36.32.67.62,1,.89,1.47,1.41,2.28,2.19,5.58,1.8a4.06,4.06,0,0,1,4,1.4,4.14,4.14,0,0,0,2.46,1.44,4.79,4.79,0,0,0,3.22-.7c1-.5,1.84-.93,2.9-.06,1.87,1.54,2.92,2.37,2.93,2.38Z"/><path class="cls-17" d="M214.63,427.93a.93.93,0,1,1,.7,1.11A.92.92,0,0,1,214.63,427.93Z"/><path class="cls-17" d="M224.18,430.1a.93.93,0,1,1,.71,1.11A.94.94,0,0,1,224.18,430.1Z"/><path class="cls-17" d="M218.6,434a.93.93,0,0,1,1.82.41.94.94,0,0,1-1.12.7A.93.93,0,0,1,218.6,434Z"/><path class="cls-17" d="M227.86,436.12a.93.93,0,1,1,.7,1.11A.92.92,0,0,1,227.86,436.12Z"/><path class="cls-17" d="M208.2,430.7a.93.93,0,1,1,.7,1.12A.94.94,0,0,1,208.2,430.7Z"/><path class="cls-17" d="M231.88,431.84a.93.93,0,0,1,1.82.42.93.93,0,1,1-1.82-.42Z"/><path class="cls-17" d="M235.9,427.59s-1.12-.85-3.11-2.41c-1-.78-1.77-.41-2.76.06a5.39,5.39,0,0,1-3.52.69,4.77,4.77,0,0,1-2.74-1.55,4.17,4.17,0,0,0-4-1.37c-3.57.37-4.46-.45-6.08-1.93l-1-.9a4.15,4.15,0,0,0-4.7-.55l-.13-.23a4.5,4.5,0,0,1,5,.58c.39.32.72.63,1,.91,1.57,1.43,2.43,2.22,5.88,1.86A4.41,4.41,0,0,1,224,424.2a4.56,4.56,0,0,0,2.6,1.47,5.19,5.19,0,0,0,3.37-.66c1-.49,1.91-.91,3,0,2,1.56,3.09,2.4,3.1,2.41Z"/><path class="cls-17" d="M236.24,426.1s-1.13-.85-3.11-2.41c-1-.78-1.77-.41-2.76.06a5.45,5.45,0,0,1-3.52.69,4.79,4.79,0,0,1-2.74-1.55,4.18,4.18,0,0,0-4-1.38c-3.57.37-4.47-.44-6.09-1.93-.29-.27-.63-.57-1-.89a4.19,4.19,0,0,0-4.7-.55l-.13-.23a4.5,4.5,0,0,1,5,.58c.38.32.72.63,1,.9,1.56,1.43,2.42,2.22,5.88,1.87a4.44,4.44,0,0,1,4.22,1.44,4.52,4.52,0,0,0,2.6,1.48,5.19,5.19,0,0,0,3.37-.67c1-.49,1.91-.91,3,0,2,1.56,3.09,2.41,3.1,2.42Z"/><path class="cls-17" d="M216.39,418.76a1,1,0,0,1,1.15-.69,1,1,0,0,1,.75,1.13,1,1,0,0,1-1.9-.44Z"/><path class="cls-17" d="M226.43,421a1,1,0,1,1,.75,1.13A1,1,0,0,1,226.43,421Z"/><path class="cls-17" d="M220.62,424.91a1,1,0,0,1,1.16-.69.93.93,0,1,1-1.16.69Z"/><path class="cls-17" d="M230.34,427.12a1,1,0,1,1,.75,1.12A1,1,0,0,1,230.34,427.12Z"/><path class="cls-17" d="M209.68,421.48a1,1,0,1,1,.75,1.12A1,1,0,0,1,209.68,421.48Z"/><path class="cls-17" d="M234.55,422.89a1,1,0,0,1,1.16-.69.94.94,0,0,1,.74,1.12,1,1,0,0,1-1.9-.43Z"/><path class="cls-36" d="M220.74,481.58l-22.65-5.14,5.18-4.7a39.64,39.64,0,0,0,14.81,3.36Z"/><path class="cls-37" d="M161,441.37V429s8.27-6.76,17.28-5.26,21.61-.94,25.55,5.26a35.12,35.12,0,0,1,4.88,11.83l-2.62,1.13Z"/><path class="cls-38" d="M239.58,429.09s10.4-6,17.41-4,5.4,3.67,5.4,3.67S239.71,428.72,239.58,429.09Z"/><path class="cls-39" d="M199.17,490.36H257.6a4,4,0,0,0,4-3.63l4.79-53.62a4,4,0,0,0-4-4.35h-68a4,4,0,0,0-4,4.35l4.8,53.62A4,4,0,0,0,199.17,490.36Z"/><path class="cls-40" d="M164.58,490.36H223a4,4,0,0,0,4-3.63l4.79-53.62a4,4,0,0,0-4-4.35h-68a4,4,0,0,0-4,4.35l4.79,53.62A4,4,0,0,0,164.58,490.36Z"/><path class="cls-37" d="M183.52,439.35h18.07a2.47,2.47,0,0,0,2.45-2.46h0a2.47,2.47,0,0,0-2.45-2.45H183.52a2.46,2.46,0,0,0-2.45,2.45h0A2.46,2.46,0,0,0,183.52,439.35Z"/><path class="cls-41" d="M170.34,338.16s-11.16-13-.69-21.28c0,0,7.65-4.63,13.88-4.26,0,0-8.83,14.82-6,16.29s8.66-17.21,8.66-17.21,17.4-1.69,23,1c0,0-14.88,12.17-11.74,12.9s19.2-11.23,19.2-11.23S232.87,317.13,232,327s-6.44,12.93-8.89,12.67S206.3,333.94,206,336s8.33,8.58,14.37,8.89c0,0-11.41,12.59-19,9s-8.24-9.39-13-11.55-8.77-2.16-6.82.05,10.52,4.34,13.22,9.13,5.14,8-2.72,6.83-20.61-6.93-21.17-13.51Z"/><path class="cls-41" d="M224.05,327.28s-44-1.7-53.71,10.88a31.83,31.83,0,0,1-8.76,12.3l-1,2.81s7.62-8,10.35-8.53C170.9,344.74,166.63,329.16,224.05,327.28Z"/><path class="cls-41" d="M161.58,350.46s-9.45,7-10.1,19.46l1.71.15s3-12.9,8.47-17.94S161.58,350.46,161.58,350.46Z"/><path class="cls-42" d="M131.33,321.79s17.74-9.94,9.46-23.43c0,0-6.62-8.28-13.72-10.41,0,0,3.78,20.12,0,20.59s-2.61-22.72-2.61-22.72-18.69-9-26-8.28c0,0,11.6,19.64,7.81,19.17s-16.8-20.35-16.8-20.35-19.17-3.55-22.25,7.81,1.9,17,4.74,17.74,21.06.48,20.58,2.84-12.78,6.16-19.64,4c0,0,7.57,18.69,17.51,17.75s13-7.1,19.17-7.58,10.65,1.19,7.58,2.84-13.49.55-18.46,4.77-9,6.83.23,8.72,25.8.71,29.11-6.39Z"/><path class="cls-41" d="M76,287.72s49.7,16.09,55.38,34.07a37.73,37.73,0,0,0,4.73,17.28v3.55s-5.21-12.07-8.05-13.73C128,328.89,139.13,313.27,76,287.72Z"/><path class="cls-41" d="M136.06,339.07s7.66,11.64,3.29,25.8l-2-.52s1.92-15.61-2.09-23.46S136.06,339.07,136.06,339.07Z"/><path class="cls-42" d="M159.56,308.09S136.17,295,147.08,277.2c0,0,8.74-10.92,18.1-13.72,0,0-5,26.51,0,27.14s3.43-29.95,3.43-29.95,24.64-11.86,34.31-10.92c0,0-15.28,25.89-10.29,25.27s22.15-26.83,22.15-26.83,25.27-4.68,29.32,10.29-2.49,22.47-6.24,23.4-27.76.63-27.14,3.74,16.85,8.12,25.9,5.31c0,0-10,24.64-23.09,23.39s-17.16-9.35-25.27-10-14,1.56-10,3.75,17.78.71,24.33,6.28,11.86,9-.31,11.5-34,.93-38.37-8.43Z"/><path class="cls-41" d="M232.56,263.16s-65.51,21.22-73,44.93c0,0,.31,10.6-6.24,22.77v4.68s6.87-15.91,10.61-18.1C163.93,317.44,149.27,296.86,232.56,263.16Z"/><path class="cls-41" d="M153.32,330.86s-10.1,15.34-4.34,34l2.6-.69s-2.52-20.57,2.76-30.92S153.32,330.86,153.32,330.86Z"/><path class="cls-4" d="M158.77,405.37a45.83,45.83,0,0,0,45.83-45.83H112.94A45.83,45.83,0,0,0,158.77,405.37Z"/><path class="cls-20" d="M205.24,407.7H112.31a5.65,5.65,0,0,1,5.66-5.65h81.61a5.65,5.65,0,0,1,5.66,5.65Z"/><rect class="cls-20" x="111.44" y="359.54" width="94.21" height="1.41"/><path class="cls-43" d="M338.7,423.61s0,1.63.09,4.57c.41,18.9,2,92,3.56,132.73.06,1.48.12,2.92.17,4.31l.09,2.21a442,442,0,0,0,6.29,54.42c3.44,19.67,6.94,33.07,6.94,33.07,13.12,2.66,11.62-20.1,11.62-20.1s11.28-19.16,12.62-37.64c.45-6,4.88-20.06,7.59-44.95,2.1-19.25,4.53-41.15,6.76-61.06.12-1.06.23-2.12.35-3.17,3.6-32.19,6.58-58.42,6.58-58.42l-23.2-2.21Z"/><path class="cls-25" d="M348.9,621.85l38.77-69.62c2.1-19.25,4.53-41.15,6.76-61.06.12-1.06.23-2.12.35-3.17,3.6-32.19,6.58-58.42,6.58-58.42l-23.2-2.21-39.37.81Z"/><path class="cls-44" d="M411.54,258.26s-2.75-10.13-4.27-14.4-16.31-13-19.92-11.79,1.44,12.17,3.24,15.5,1.07,7.15,4,9.27,8.9,6.74,8.9,6.74Z"/><path class="cls-45" d="M391.07,548.49S369.78,648,372.87,651s23.35,3.86,29,12c1.88,2.7,1.44,7,1.44,7h-50.4s-4.52-2.82-4.93-15.24-3.59-81.46-1.93-104.91C346.06,549.78,355.67,541.78,391.07,548.49Z"/><path class="cls-9" d="M404.89,262.15l5.57,53.29,30.61,15.11a79.55,79.55,0,0,0-8.32-45.49,150.74,150.74,0,0,0-21.21-30.36A22.05,22.05,0,0,0,404.89,262.15Z"/><rect class="cls-25" x="395.7" y="246.79" width="12.55" height="21.66" rx="5.77" transform="translate(-75.14 275.35) rotate(-34.78)"/><rect class="cls-46" x="396.87" y="248.71" width="10.95" height="18.89" rx="5.03" transform="translate(-75.38 275.67) rotate(-34.78)"/><path class="cls-12" d="M349.68,271.22l18,17.24a55,55,0,0,0,10.27-11.55c.42-.61.82-1.23,1.21-1.84a87.77,87.77,0,0,0,5.43-10.25c.21-.45.4-.88.58-1.28,1-2.17-10-9.12-16.18-13.52a24,24,0,0,1-3.91-3.23,17.83,17.83,0,0,1,0,4.89,20.19,20.19,0,0,1-5.42,10.16C353.37,268.73,349.68,271.22,349.68,271.22Z"/><path class="cls-47" d="M363.28,252.1s3.57,19,14.65,24.81c.42-.61.82-1.23,1.21-1.84a87.77,87.77,0,0,0,5.43-10.25c-1.35-2.8-10.59-8.7-16.08-12.6C365.39,252.16,363.28,252.1,363.28,252.1Z"/><path class="cls-12" d="M385.32,273.14s-26.92-9-21.06-25.67,6.32-29.07,23.75-24S406.54,236,405.94,242,392.47,275,385.32,273.14Z"/><path class="cls-27" d="M362.19,252.51s-5.13-1.87-5-12.29c.06-5.81-4.12-8.57.28-16.55s4.12-14.41,16.25-14.41,13.34-5.62,19.52-3.66,11.67,11,17,12.74,9.3,29.42-2.81,28.65c0,0-4.55-2.26-6.58-5.92s-12.35-12-15.63-9.28S368.7,252.64,362.19,252.51Z"/><path class="cls-9" d="M345.26,314.46s53.09,23.76,85.36,29.21c0,0,10.11-.68,10.45-13.12.21-7.89-53-46.62-72.42-45.47S338.54,306.13,345.26,314.46Z"/><path class="cls-25" d="M319.62,668.15h44.92a10.28,10.28,0,0,0-7-5.73,11.82,11.82,0,0,0-1.44-.29c-4.84-.68-12.29-2.78-17-7.12a13.29,13.29,0,0,1-4.16-6.69c-2.23-9-16.78,3.13-16.78,3.13s-.16,1.44-.27,3.49C317.6,659.37,317.54,666.64,319.62,668.15Z"/><path class="cls-24" d="M397.08,429.75s-23,75.13-40.7,126.88-24.3,81.71-24.3,81.71-8.48,20-15.63,15.95c0,0-4.08-98.1,6.62-124.16,7.07-17.23,12.48-53.91,10.64-67.12s-3.55-39.7-3.55-39.7Z"/><path class="cls-11" d="M327.3,420.52c1.22,6.56,4.13,11.78,8.63,15,5.12,3.63,13.2,4.94,22.1,4.8a121.28,121.28,0,0,0,31.09-5.06,73.12,73.12,0,0,0,12.3-4.74c13.74-7.16,11.79-16.69,11.46-52.38-.34-36.42-22.75-83.51-26.79-91.39-7.19-14-37.68-9.42-37.68-9.42-6.68,6.13-12.54,15-16.52,29.27-1.62,5.75-2.56,13.81-3.1,22.86-1.65,27.65.48,64.52-1.13,73.13A49.31,49.31,0,0,0,327.3,420.52Z"/><path class="cls-9" d="M352.39,263.39s-5,11.81-4,13.91c0,0,27.13,2.67,38.28,10.61,0,0-3.4-11.55-7.86-14.4S352.39,263.39,352.39,263.39Z"/><path class="cls-9" d="M327.3,420.52c56.74-21.59,24.34-101.44,24.34-101.44-7.93.56-15.71,4.42-22.85,10.35-1.65,27.65.48,64.52-1.13,73.13A49.31,49.31,0,0,0,327.3,420.52Z"/><path class="cls-12" d="M346.48,387.89s3.11,5.39,6.1,4.12,9-2.61,13.51.28,11.26,10.69,7,12.6-12.27-3.15-14.17-4-5.21.85-8.88-1a37.1,37.1,0,0,1-7.47-5.49Z"/><path class="cls-48" d="M362.29,549s-25.58,98.28-22.49,101.22,25.65,4.54,29.25,13.62a14,14,0,0,1,1,6.14H319.62s-4.51-2.82-4.93-15.24-3.58-81.46-1.93-104.91C312.76,549.78,342.84,546.47,362.29,549Z"/><path class="cls-12" d="M351.11,391.2s6.83-2.27,8-3.31,1.18,1.17-1.65,3.31-6.76,1.24-6.76,1.24Z"/><path class="cls-10" d="M346.62,279s-36.32,31.26-58.39,55.75a12.05,12.05,0,0,0-1.61,14.15l.08.12a75.67,75.67,0,0,0,20.81,26.26c20.89,17.19,32.42,20.6,32.42,20.6s13.85,2.39,11.43-6.58L324.93,353.2a5.87,5.87,0,0,1,2.38-8.86c17.12-7.48,34.78-17.8,39.32-26.64C375.53,300.38,357.21,277.49,346.62,279Z"/><path class="cls-27" d="M560.64,243.62s19.89-6,31.62,5.33,9.41,24.42,26.15,23.41,20.55,5.13,18.39,14.75,18.54,6.92,24.8,18.66,7.16,33.36-25.14,32.25-46.62-18.5-60.45-11.28-36.63-4.4-30.65-14.51-5.62-7.39-7.67-28.06S546.67,245.17,560.64,243.62Z"/><path class="cls-24" d="M602.24,309.33c-17.47-3.68-29.46-1.14-40.89-.84h0a59,59,0,0,1-31.09-7.23c-9.77-5.28,7.45-31.64,7.45-31.64l-7.5-4.78s-31.83,30.39-31.13,42c.46,7.68,24,19.19,39.4,27a8.89,8.89,0,0,1,4.56,9.87.69.69,0,0,0,0,.13c-2.62,18.22,11.77,45.05,11.77,45.05l26.81,21,25.57-18.2h0l2.08-.75s4.22-2.09,5.47-12.06c.16-1.24,1-11.76,1.94-22.37,1-11.45,1.89-23,1.89-23Z"/><path class="cls-9" d="M556.76,394.81s-10.08,29.5-8.29,51.09c1.08,13.05,18.6,105.86,19.58,111.88C569,563.46,581.57,637,581.57,637s-2.16,12.23,2.47,10.93c6.42-1.82,8.45-4,8.45-4s9.6-123.1,3.65-167.08a696.5,696.5,0,0,1-6-82Z"/><path class="cls-11" d="M609,393.67s18.81,25.24,20.56,42.3,2.76,77,6.49,93.64,17.47,48.65,17.47,100.54a10.39,10.39,0,0,1-5.83,4.56c-1.41.5-.77-2-2.6-1.61-3.63.83-33.18-73.36-34.84-76.7-9.28-18.69-27.49-83.49-47.85-117.87-4.89-8.26,3-41.09,3-41.09Z"/><path class="cls-12" d="M580.89,314.09c3.36-1.52,4.82-4,4.09-7.64-1.07-5.32-3-10.3-3.26-18.06l-1.12.26L561.77,293s.84,11.66.84,11.7C563.11,312.29,564.94,321.31,580.89,314.09Z"/><path class="cls-44" d="M561.77,293s.63,5.95.83,11.56c10.6-.65,15.88-10.51,18-16Z"/><path class="cls-12" d="M558.41,298.48s25.1-.43,24.6-16.06,2.39-26.21-13.66-26.6-19,5.68-20.07,10.94S551.87,298.18,558.41,298.48Z"/><path class="cls-27" d="M556.82,256.56s8.43,20.41,20.42,23.06,17-.7,17-.7a33.62,33.62,0,0,1-11.67-19.5S562.33,246.53,556.82,256.56Z"/><path class="cls-27" d="M560,255.69s-5.67,2.34-7.89,6.6a28.45,28.45,0,0,0-3.28,16.3s-6.3-13.85,0-22C555.52,247.92,560,255.69,560,255.69Z"/><path class="cls-25" d="M607.17,391.73h0l2.08-.75s4.22-2.09,5.47-12.06c.16-1.24,1.31-14.87,2.19-25.48,0,0-9.71-6.3-12.6-.68s3.79,16.22,1.34,22.48S599,389.91,607.17,391.73Z"/><path class="cls-25" d="M554.79,388.89s5,3.91,14.79,4.11c11.75.24,40.86-3,40.86-3a24.23,24.23,0,0,1,1.24,7.43s-35.56,9-56.16,1.31C555.52,398.74,552.87,393.75,554.79,388.89Z"/><path class="cls-35" d="M566.76,403.12c-3,0-5.36-2.72-5.36-6.06s2.4-6.07,5.36-6.07,5.36,2.72,5.36,6.07S569.72,403.12,566.76,403.12Zm0-10.35c-2,0-3.58,1.92-3.58,4.29s1.6,4.29,3.58,4.29,3.58-1.93,3.58-4.29S568.74,392.77,566.76,392.77Z"/><path class="cls-25" d="M602.24,309.33s16.88.83,26.1,13.66,29.91,43.51,31.3,53-33.93,36-33.93,36a14.54,14.54,0,0,1-3.82-2.05,15.3,15.3,0,0,1-2.29-2.52s20.47-33.49,18.81-36.06S605,344.09,605,344.09Z"/><path class="cls-12" d="M530.21,264.84s1.7-9,4.74-11.24,13.93-7.88,14.3-5.7-6.72,9-6.85,11.51c-.2,3.58,2.48,4.3-4.69,10.21S530.21,264.84,530.21,264.84Z"/><path class="cls-12" d="M531.48,259.93s.43-5.05-.4-7.73,1.35-1.31,1.83-.53A40,40,0,0,1,534.6,256Z"/><path class="cls-12" d="M619.6,407.41s-7.54-2.76-10.09-1.1-7.24,8-5.59,10.07,8.28-1.1,10.07-1.93,3.68,1.56,6.28,1.65,5.44-4.12,5.44-4.12Z"/><path class="cls-12" d="M619.6,407.41s-5.85-4.24-6.47-3.72,1.86,3.41,2.17,3.72S619.6,407.41,619.6,407.41Z"/><path class="cls-48" d="M603.82,544.09s25.18-5.58,39.25-12.2c0,0,14.22,79.64,19.62,106.87.84,4.23,3,10.65,3.79,14.47a32.22,32.22,0,0,1-.2,13.54h-43.6s.28-6.7,7.94-9.18,15.66-7.8,15.45-11.11S603.82,544.09,603.82,544.09Z"/><path class="cls-48" d="M562.54,546.19l37.24-.27s-3.12,90.77-1.7,100.42a196.11,196.11,0,0,1,1.7,20.43h-48s-.62-5.63,7-10.2,16.35-.64,19.25-7.05S562.54,546.19,562.54,546.19Z"/><path class="cls-23" d="M279.65,569.16a38.81,38.81,0,0,1-29.82,37.76,39.06,39.06,0,0,1-9,1h-1a38.8,38.8,0,0,1-4.25-77.24,39.27,39.27,0,0,1,5.23-.35,38.8,38.8,0,0,1,38.8,38.8Z"/><polygon class="cls-22" points="251.6 558.7 236.76 558.7 229.34 571.54 236.76 584.39 251.6 584.39 259.02 571.54 251.6 558.7"/><path class="cls-22" d="M271.47,593a38.83,38.83,0,0,1-21.64,13.92l-.69-1.18,7.43-12.85H271.4Z"/><path class="cls-22" d="M279.21,563.33H268.87l-7.41-12.85,5.68-9.85A38.66,38.66,0,0,1,279.21,563.33Z"/><path class="cls-22" d="M238.49,535.68l-7.41,12.85H216.24l-3.52-6.09a38.71,38.71,0,0,1,22.9-11.73Z"/><path class="cls-22" d="M219.4,572.89,212,585.74h-6.21a38.89,38.89,0,0,1-2.64-25.7H212Z"/><path class="cls-22" d="M240.18,607.41l-.31.54a38.61,38.61,0,0,1-24.28-9.35l2.34-4h14.83Z"/><g class="cls-49"><path class="cls-20" d="M1040.94,604.66c-12.28,39.78-33,62.76-33.44,63.69-61.84,0-962.66.22-963.18-1.38l-.09-.2a1.07,1.07,0,0,1-.08-.29c-.14-.34-23.94-38.94-36.53-95.15,18.84-6,71.12-17.33,139.88,12.25,86.91,37.38,244.08-11.14,337.85-2.25s126.21,36.06,211.6,25,153.75-11.3,209.79,0C954.35,616,998,604.07,1040.94,604.66Z"/></g><rect class="cls-50" x="0.89" y="668.24" width="1048.01" height="1.68" rx="0.84"/></svg>